<svg width="24" height="25" fill="none" xmlns="http://www.w3.org/2000/svg"><path d="M9.751 14.404a3.155 3.155 0 1 0 4.462-4.462 3.155 3.155 0 0 0-4.462 4.462Z" fill="#fff"/><path fill-rule="evenodd" clip-rule="evenodd" d="M7.947 2.19h8.07a5.954 5.954 0 0 1 5.948 5.947v8.07a5.954 5.954 0 0 1-5.947 5.948h-8.07A5.954 5.954 0 0 1 2 16.208v-8.07A5.954 5.954 0 0 1 7.947 2.19Zm10.446 4.858a1.237 1.237 0 1 1-2.474 0 1.237 1.237 0 0 1 2.474 0ZM8.334 8.524a5.17 5.17 0 0 1 3.648-1.515v.001a5.17 5.17 0 0 1 5.165 5.162 5.17 5.17 0 0 1-5.164 5.164 5.17 5.17 0 0 1-5.163-5.164 5.17 5.17 0 0 1 1.514-3.648Z" fill="#fff"/></svg>