<svg width="24" height="25" fill="none" xmlns="http://www.w3.org/2000/svg"><path d="M12 2.19c5.523 0 10 4.478 10 10 0 5.523-4.477 10-10 10s-10-4.477-10-10c0-5.522 4.477-10 10-10Zm4.442 6c-.381.007-.966.208-3.779 1.363-.985.404-2.954 1.242-5.907 2.512-.48.188-.73.372-.753.552-.044.346.46.454 1.094.657.517.166 1.213.36 1.575.368.328.007.694-.126 1.098-.4 2.76-1.839 4.183-2.768 4.273-2.788.063-.014.15-.032.21.02.059.052.053.15.046.176-.05.212-2.641 2.539-2.79 2.692l-.072.072c-.55.543-1.105.897-.147 1.52.866.563 1.37.923 2.26 1.5.57.368 1.017.805 1.605.752.271-.025.55-.276.693-1.025.335-1.771.995-5.609 1.147-7.19a1.739 1.739 0 0 0-.017-.393.42.42 0 0 0-.144-.271c-.121-.097-.309-.118-.392-.117Z" fill="#fff"/></svg>