<svg width="24" height="25" fill="none" xmlns="http://www.w3.org/2000/svg"><path fill-rule="evenodd" clip-rule="evenodd" d="M19.222 22.19A2.777 2.777 0 0 0 22 19.413V4.968a2.777 2.777 0 0 0-2.778-2.778H4.778A2.778 2.778 0 0 0 2 4.968v14.445a2.778 2.778 0 0 0 2.778 2.777h14.444ZM18.666 8.65a.693.693 0 0 1-.034.23c-.155.752-1.519 2.75-1.931 3.354-.077.112-.12.176-.118.176-.08.136-.134.234-.139.337-.005.098.035.2.139.345.155.222.492.631.834 1.044.616.745 1.11 1.528 1.219 1.848a.862.862 0 0 1 .03.235c-.007.275-.201.417-.539.417h-1.454c-.383 0-.584-.264-.994-.801-.18-.236-.4-.524-.693-.866-.833-.972-1.265-1.11-1.477-1.11-.296 0-.398.073-.398.518v1.651c0 .37-.096.608-1.028.608-1.54 0-3.277-1.042-4.597-2.847-1.82-2.49-2.153-4.656-2.153-5.056 0-.223.07-.43.495-.43h1.468c.367 0 .508.163.65.593.651 2.184 1.625 3.851 2.119 3.851.183 0 .268-.089.268-.578v-2.013c-.035-.64-.238-.92-.388-1.126-.094-.129-.167-.23-.167-.371 0-.179.118-.356.344-.356h2.582c.311 0 .407.177.407.563v2.88c0 .327.248.445.347.445h.013c.178 0 .35 0 .681-.347 1.045-1.23 1.952-3.096 1.952-3.096.099-.223.268-.445.635-.445h1.455c.325 0 .464.146.472.347Z" fill="#fff"/></svg>