<svg xmlns="http://www.w3.org/2000/svg" width="66" height="31" fill="none"><path fill="#002A5C" d="M5.8 12.349v2.301H3.323V12.35h-2.2v6.3h2.2V16.25h2.475v2.4H8v-6.301M13.317 12.349v4.064c0 .622-.203.685-1.07.685-.892 0-1.253-.023-1.253-.611v-4.138H8.793v4.17c0 1.516.327 2.18 3.454 2.18 2.071 0 3.27-.357 3.27-2.18v-4.17M21.889 12.349l.118 4.56-2.116-4.56h-3.569v6.3h2.203l-.118-4.558 2.086 4.559h3.599v-6.301M24.732 12.349v1.6h1.948v4.7h2.2v-4.7h2.05v-1.6M31.29 14.259c0 1.774 1.072 1.833 2.846 1.93l.726.04c.912.047.912.055.912.478 0 .403-.177.474-1.182.474-1.036 0-1.192-.08-1.192-.613v-.09h-2.12v.09c0 2.13 1.462 2.13 3.312 2.13 1.6 0 2.56-.222 3.017-.701.367-.384.366-.876.366-1.351V16.6c0-1.475-.616-1.72-2.891-1.853l-.842-.048c-.584-.036-.75-.063-.75-.45 0-.25 0-.431 1.1-.431.85 0 1.05.019 1.05.538v.09h2.12v-.343c0-1.804-1.54-1.804-3.17-1.804-2.054 0-3.301.132-3.301 1.959ZM44.751 12.349l-1.356 3.78-1.427-3.78h-3.36v6.3h2.205l-.193-4.462 1.852 4.463h1.868l1.843-4.487-.194 4.486h2.205v-6.3M54.238 12.349h-3.201l-2.35 6.3h2.296l.375-1.052h2.61l.396 1.052h2.255l-2.381-6.3Zm-2.626 4.056.986-2.832h.14l1.007 2.832M62.674 12.349l.118 4.561-2.116-4.561h-3.569v6.3h2.203l-.118-4.558 2.086 4.559h3.599v-6.301"/><path fill="#910027" d="M1.124 11.042h63.752V9.736H1.124v1.306ZM1.124 21.264h63.752v-1.306H1.124v1.306Z"/></svg>