<svg xmlns="http://www.w3.org/2000/svg" width="90" height="90" fill="none"><g filter="url(#a)"><path fill="#1894FF" d="M45.638 50.655v20.37c0 2.017 1.936 3.426 3.804 2.663 5.23-2.135 14.222-6.654 16.196-13.104.987-3.228.552-8.032.231-10.467a3.284 3.284 0 0 1 .828-2.657c2.556-2.771 9.025-10.155 11.44-16.376 2.278-5.863 2.565-14.837 2.552-19.293a2.772 2.772 0 0 0-2.756-2.784c-4.543-.054-13.797.169-19.795 2.577-6.046 2.427-13.158 8.83-15.872 11.404a3.29 3.29 0 0 1-2.687.864c-2.36-.304-6.885-.697-9.941.232-6.406 1.946-10.719 11.02-12.72 16.253-.71 1.859.697 3.747 2.687 3.747h20.111a3 3 0 0 1 2.322 1.1l2.922 3.571a3 3 0 0 1 .678 1.9Z"/><path fill="url(#b)" d="M45.638 50.655v20.37c0 2.017 1.936 3.426 3.804 2.663 5.23-2.135 14.222-6.654 16.196-13.104.987-3.228.552-8.032.231-10.467a3.284 3.284 0 0 1 .828-2.657c2.556-2.771 9.025-10.155 11.44-16.376 2.278-5.863 2.565-14.837 2.552-19.293a2.772 2.772 0 0 0-2.756-2.784c-4.543-.054-13.797.169-19.795 2.577-6.046 2.427-13.158 8.83-15.872 11.404a3.29 3.29 0 0 1-2.687.864c-2.36-.304-6.885-.697-9.941.232-6.406 1.946-10.719 11.02-12.72 16.253-.71 1.859.697 3.747 2.687 3.747h20.111a3 3 0 0 1 2.322 1.1l2.922 3.571a3 3 0 0 1 .678 1.9Z"/><path fill="url(#c)" d="M45.638 50.655v20.37c0 2.017 1.936 3.426 3.804 2.663 5.23-2.135 14.222-6.654 16.196-13.104.987-3.228.552-8.032.231-10.467a3.284 3.284 0 0 1 .828-2.657c2.556-2.771 9.025-10.155 11.44-16.376 2.278-5.863 2.565-14.837 2.552-19.293a2.772 2.772 0 0 0-2.756-2.784c-4.543-.054-13.797.169-19.795 2.577-6.046 2.427-13.158 8.83-15.872 11.404a3.29 3.29 0 0 1-2.687.864c-2.36-.304-6.885-.697-9.941.232-6.406 1.946-10.719 11.02-12.72 16.253-.71 1.859.697 3.747 2.687 3.747h20.111a3 3 0 0 1 2.322 1.1l2.922 3.571a3 3 0 0 1 .678 1.9Z"/><path fill="url(#d)" d="M45.638 50.655v20.37c0 2.017 1.936 3.426 3.804 2.663 5.23-2.135 14.222-6.654 16.196-13.104.987-3.228.552-8.032.231-10.467a3.284 3.284 0 0 1 .828-2.657c2.556-2.771 9.025-10.155 11.44-16.376 2.278-5.863 2.565-14.837 2.552-19.293a2.772 2.772 0 0 0-2.756-2.784c-4.543-.054-13.797.169-19.795 2.577-6.046 2.427-13.158 8.83-15.872 11.404a3.29 3.29 0 0 1-2.687.864c-2.36-.304-6.885-.697-9.941.232-6.406 1.946-10.719 11.02-12.72 16.253-.71 1.859.697 3.747 2.687 3.747h20.111a3 3 0 0 1 2.322 1.1l2.922 3.571a3 3 0 0 1 .678 1.9Z" style="mix-blend-mode:overlay"/></g><g filter="url(#e)" shape-rendering="crispEdges"><path fill="#DFE8F3" fill-opacity=".5" d="M47.638 61.532c-5.272 5.272-23.82 15.272-29.092 10-5.272-5.272 4.728-23.82 10-29.092 5.272-5.272 13.82-5.272 19.092 0 5.272 5.272 5.272 13.82 0 19.092Z"/><path stroke="#fff" stroke-width="2" d="M47.638 61.532c-5.272 5.272-23.82 15.272-29.092 10-5.272-5.272 4.728-23.82 10-29.092 5.272-5.272 13.82-5.272 19.092 0 5.272 5.272 5.272 13.82 0 19.092Z"/></g><defs><linearGradient id="b" x1="84.691" x2="62.371" y1="32.365" y2="32.365" gradientUnits="userSpaceOnUse"><stop stop-color="#016ECF"/><stop offset="1" stop-color="#0187F9"/></linearGradient><linearGradient id="c" x1="38.955" x2="17.49" y1="32.365" y2="32.365" gradientUnits="userSpaceOnUse"><stop stop-color="#0187F9" stop-opacity="0"/><stop offset="1" stop-color="#39A5FF"/></linearGradient><linearGradient id="d" x1="48.164" x2="48.164" y1="9" y2="75.084" gradientUnits="userSpaceOnUse"><stop stop-color="#0787F5"/><stop offset="1" stop-color="#66ADE7"/></linearGradient><filter id="a" width="75.958" height="76.898" x="10.732" y="5" color-interpolation-filters="sRGB" filterUnits="userSpaceOnUse"><feFlood flood-opacity="0" result="BackgroundImageFix"/><feColorMatrix in="SourceAlpha" result="hardAlpha" values="0 0 0 0 0 0 0 0 0 0 0 0 0 0 0 0 0 0 127 0"/><feOffset dy="2"/><feGaussianBlur stdDeviation="3"/><feComposite in2="hardAlpha" operator="out"/><feColorMatrix values="0 0 0 0 0 0 0 0 0 0 0 0 0 0 0 0 0 0 0.16 0"/><feBlend in2="BackgroundImageFix" result="effect1_dropShadow_2240_9282"/><feBlend in="SourceGraphic" in2="effect1_dropShadow_2240_9282" result="shape"/></filter><filter id="e" width="54.536" height="55.536" x="7.056" y="29.486" color-interpolation-filters="sRGB" filterUnits="userSpaceOnUse"><feFlood flood-opacity="0" result="BackgroundImageFix"/><feGaussianBlur in="BackgroundImageFix" stdDeviation="4"/><feComposite in2="SourceAlpha" operator="in" result="effect1_backgroundBlur_2240_9282"/><feColorMatrix in="SourceAlpha" result="hardAlpha" values="0 0 0 0 0 0 0 0 0 0 0 0 0 0 0 0 0 0 127 0"/><feOffset dy="2"/><feGaussianBlur stdDeviation="4.5"/><feComposite in2="hardAlpha" operator="out"/><feColorMatrix values="0 0 0 0 0 0 0 0 0 0 0 0 0 0 0 0 0 0 0.3 0"/><feBlend in2="effect1_backgroundBlur_2240_9282" result="effect2_dropShadow_2240_9282"/><feBlend in="SourceGraphic" in2="effect2_dropShadow_2240_9282" result="shape"/></filter></defs></svg>