<svg width="68" height="31" fill="none" xmlns="http://www.w3.org/2000/svg"><path d="M68 6.027H0v20.667h68V6.027Z" fill="#024A96"/><path d="M25.085 9.861h6.277c2.305 0 3.357 1.775 3.357 3.397 0 1.169-.389 1.922-1.432 2.625 1.316.562 2.031 1.575 2.031 3.14 0 1.87-1.175 3.854-3.947 3.854h-6.289l.003-13.016Zm3.428 10.077h2.272c.81 0 1.173-.668 1.173-1.26 0 .274.104-1.078-1.058-1.078h-2.386v2.338Zm.009-4.952h1.825c.835 0 1.167-.449 1.167-1.107 0-.152-.04-1.002-.927-1.002h-2.065v2.109ZM38.888 9.861h3.63l4.134 13h-3.726l-.545-1.948h-3.477l-.463 1.938h-3.697l4.144-12.99Zm1.668 3.86-.959 4.341h2.05l-1.091-4.341ZM52.44 13.728h3.462c.001-2.207-1.437-4.255-4.848-4.255-3.742 0-4.9 2.385-4.9 4.131 0 2.816 2.982 3.564 3.075 3.598.445.162 2.296.735 2.758.926.4.165.784.535.784 1.03 0 .759-.784 1.125-1.436 1.125-.42 0-1.827-.16-1.827-1.884h-3.575c0 2.29 1.363 4.851 5.188 4.851 4.22 0 5.104-2.908 5.104-4.455 0-1.262-.62-2.662-2.048-3.329-.86-.4-2.283-.752-2.999-.993-.36-.122-1.562-.403-1.562-1.25 0-1.085 1.548-.945 1.322-.945.7 0 1.503.455 1.503 1.45ZM56.81 9.858h8.64v3.436h-5.187v2.29h4.625v3.283h-4.641v4.007h-3.453l.017-13.016Z" fill="#FFFBFE"/><g opacity=".5" fill="#FFFBFE"><path d="M2.55 9.861v13.017h11.267V9.861H2.55Zm7.8 9.012H6.016v-5.008h4.334v5.008ZM17.284 13.866h4.334v5.007h-4.334v-5.007Z"/></g></svg>