<svg width="25" height="25" fill="none" xmlns="http://www.w3.org/2000/svg"><path d="M12.01 2.512c-5.31.25-9.5 4.64-9.484 9.917a9.798 9.798 0 0 0 1.085 4.465l-1.058 5.1a.387.387 0 0 0 .47.454l5.034-1.184a9.983 9.983 0 0 0 4.284 1.032c5.427.083 9.951-4.195 10.12-9.58C22.643 6.94 17.844 2.235 12.01 2.51Zm6.006 15.367a7.785 7.785 0 0 1-5.52 2.27 7.77 7.77 0 0 1-3.474-.808l-.7-.347-3.088.726.65-3.131-.346-.672A7.62 7.62 0 0 1 4.69 12.4c0-2.07.812-4.017 2.286-5.48a7.85 7.85 0 0 1 5.52-2.271c2.086 0 4.046.806 5.52 2.27a7.672 7.672 0 0 1 2.287 5.48c0 2.052-.825 4.03-2.287 5.48Z" fill="#25D366"/><path d="m17.335 14.545-1.93-.55a.723.723 0 0 0-.713.186l-.473.478a.706.706 0 0 1-.764.16c-.914-.367-2.835-2.063-3.326-2.912a.694.694 0 0 1 .056-.774l.412-.53a.71.71 0 0 0 .088-.726l-.811-1.824a.723.723 0 0 0-1.125-.256c-.54.453-1.18 1.14-1.256 1.903-.137 1.343.443 3.036 2.636 5.07 2.536 2.349 4.566 2.66 5.888 2.341.75-.18 1.35-.903 1.727-1.494a.713.713 0 0 0-.409-1.072Z" fill="#25D366"/></svg>