<svg xmlns="http://www.w3.org/2000/svg" width="31" height="31" fill="none"><path fill="#E4001C" d="M3.266 27.167h23.566V3.357H3.266v23.81Z"/><path fill="#fff" d="M9.366 9.582a1.32 1.32 0 0 1 1.32 1.314c0 .226-.056.438-.156.623a1.314 1.314 0 1 1-.699 2.459 2.491 2.491 0 1 0 4.975.21c0-.095-.002-.188-.012-.278a1.327 1.327 0 0 1-.757.236 1.314 1.314 0 0 1-.055-2.627 1.314 1.314 0 1 1 2.313 0 1.314 1.314 0 1 1-.81 2.389 2.491 2.491 0 1 0 4.967.279c0-.068 0-.136-.005-.203a1.313 1.313 0 1 1-.692-2.464 1.314 1.314 0 0 1 1.157-1.937l-.002 9.922H9.366V9.582Z"/></svg>