<svg xmlns="http://www.w3.org/2000/svg" width="100" height="100" fill="none"><path fill="url(#a)" stroke="#F2F2F2" d="M47.167 2.841a4 4 0 0 1 5.666 0l3.565 3.577a4 4 0 0 0 4.37.869l4.662-1.94a4 4 0 0 1 5.234 2.168l1.925 4.669a4 4 0 0 0 3.704 2.475l5.05-.008a4 4 0 0 1 4.006 4.006l-.008 5.05a4 4 0 0 0 2.475 3.704l4.669 1.925a4 4 0 0 1 2.168 5.234l-1.94 4.663a4 4 0 0 0 .87 4.369l3.576 3.565a4 4 0 0 1 0 5.666l-3.577 3.565a4 4 0 0 0-.869 4.37l1.94 4.662a4 4 0 0 1-2.168 5.234l-4.669 1.925a4 4 0 0 0-2.475 3.704l.008 5.05a4 4 0 0 1-4.006 4.006l-5.05-.008a4 4 0 0 0-3.704 2.475l-1.925 4.669a4 4 0 0 1-5.234 2.168l-4.663-1.94a4 4 0 0 0-4.369.87l-3.565 3.576a4 4 0 0 1-5.666 0l-3.565-3.577a4 4 0 0 0-4.37-.869l-4.662 1.94a4 4 0 0 1-5.234-2.168l-1.925-4.669a4 4 0 0 0-3.704-2.475l-5.05.008a4 4 0 0 1-4.006-4.006l.008-5.05a4 4 0 0 0-2.475-3.704l-4.669-1.925a4 4 0 0 1-2.168-5.234l1.94-4.663a4 4 0 0 0-.87-4.369l-3.576-3.565a4 4 0 0 1 0-5.666l3.577-3.565a4 4 0 0 0 .869-4.37l-1.94-4.662a4 4 0 0 1 2.168-5.234l4.669-1.925a4 4 0 0 0 2.475-3.704l-.008-5.05a4 4 0 0 1 4.006-4.006l5.05.008a4 4 0 0 0 3.704-2.475l1.925-4.669a4 4 0 0 1 5.234-2.168l4.663 1.94a4 4 0 0 0 4.369-.87l3.565-3.576Z"/><path stroke="#fff" stroke-linecap="round" stroke-linejoin="round" stroke-width="5" d="m45 39 13 10.5L45 60"/><defs><linearGradient id="a" x1="69.549" x2="15.02" y1="107.893" y2="18.966" gradientUnits="userSpaceOnUse"><stop stop-color="#4054E8"/><stop offset="1" stop-color="#5C47FF"/></linearGradient></defs></svg>