<svg xmlns="http://www.w3.org/2000/svg" width="72" height="31" fill="none"><g clip-path="url(#a)"><mask id="b" width="72" height="31" x="0" y="0" maskUnits="userSpaceOnUse" style="mask-type:luminance"><path fill="#fff" d="M72 0H0v31h72V0Z"/></mask><g fill="#991D85" mask="url(#b)"><path d="M71.62 18.978h-1.296c-.126 0-.228-.1-.253-.248a3.806 3.806 0 0 0-.813-2.105 2.646 2.646 0 0 0-.254-.298c-.507-.57-1.244-.867-2.005-.867h-.838v3.246c0 .148-.102.247-.254.247h-1.346c-.152 0-.253-.099-.253-.247v-7.63c0-.149.101-.248.253-.248h1.346c.152 0 .254.1.254.248v2.576h.838c1.472 0 2.69-1.164 2.716-2.6 0-.125.102-.224.229-.224h1.396c.152 0 .254.1.254.248a4.413 4.413 0 0 1-1.803 3.493c.28.223.559.47.787.743a5.534 5.534 0 0 1 1.371 3.418.251.251 0 0 1-.254.248h-.076ZM56.92 12.736a6.662 6.662 0 0 0-4.596 0v5.97c0 .148-.102.247-.254.247H50.7c-.153 0-.255-.099-.255-.247V11.72c0-.074.051-.149.102-.198a8.45 8.45 0 0 1 8.124 0c.076.05.127.124.102.223v6.985c0 .149-.102.248-.254.248h-1.371c-.153 0-.254-.099-.254-.248l.025-5.994ZM60.6 18.706v-7.63c0-.149.102-.248.255-.248h1.37c.153 0 .254.1.254.248v7.63c0 .148-.101.247-.254.247h-1.37a.251.251 0 0 1-.254-.247ZM37.117 10.828h1.828c.153 0 .254.1.254.248 0 .025 0 .05-.025.099l-2.996 7.63c-.025.099-.152.173-.254.173H33.64c-.101 0-.203-.05-.228-.149l-2.869-7.679v-.074c0-.124.102-.223.228-.248h1.854c.101 0 .203.074.228.174l1.955 6.143 2.107-6.168c.026-.075.127-.149.203-.149ZM29.526 18.978h-6.6a.268.268 0 0 1-.229-.124 7.814 7.814 0 0 1-1.066-3.963 7.66 7.66 0 0 1 1.066-3.939.315.315 0 0 1 .254-.124h6.27c.128 0 .23.1.23.223v1.387a.225.225 0 0 1-.23.223h-5.28c-.178.421-.28.867-.355 1.338h5.255c.127 0 .254.099.254.223v1.338c0 .148-.102.247-.254.247h-5.28c.076.446.177.892.355 1.313h5.61c.128 0 .254.1.254.223v1.363c0 .148-.101.247-.254.272ZM46.74 12.736a6.662 6.662 0 0 0-4.596 0v4.335a6.662 6.662 0 0 0 4.596 0v-4.335Zm-2.285 6.589a8.318 8.318 0 0 1-4.062-1.04c-.077-.05-.127-.124-.127-.199V11.72c0-.074.05-.149.127-.198a8.45 8.45 0 0 1 8.124 0c.076.05.127.124.127.198v6.366c0 .075-.051.149-.127.199-1.27.668-2.666 1.04-4.062 1.04ZM8.2 8.722c-3.503 0-6.347 2.75-6.347 6.193 0 3.419 2.818 6.193 6.347 6.193 1.854 0 3.605-.768 4.799-2.13H6.347a.487.487 0 0 1-.203-.05c-2.26-1.114-3.174-3.814-2.031-6.02.431-.866 1.168-1.56 2.03-1.98.052-.075.128-.075.204-.075h3.707c.076 0 .152.025.203.05.66.321 1.218.792 1.65 1.362.076.099.076.272-.05.347a.374.374 0 0 1-.178.05H6.728a2.608 2.608 0 0 0-.787 3.69c.203.297.482.57.787.768h9.013c.152 0 .253.1.279.223 0 .025 0 .074-.026.1-1.447 4.21-6.093 6.464-10.409 5.052-4.29-1.411-6.6-5.945-5.153-10.131C1.879 8.177 6.55 5.924 10.84 7.335c3.35 1.09 5.585 4.162 5.585 7.58 0 .223 0 .446-.025.694 0 .124-.127.223-.254.223h-8.81c-.101 0-.203-.05-.228-.149a1.751 1.751 0 0 1 0-1.51c.05-.1.127-.15.228-.15h7.134c-.457-3.071-3.123-5.3-6.27-5.3ZM30.923 21.926h.71v1.362c.356-.446.711-.892 1.042-1.362h.787c-.254.347-.686.916-1.067 1.387.356.545.736 1.09 1.143 1.585h-.889c-.355-.495-.71-.99-1.015-1.51v1.51h-.711v-2.972ZM33.943 21.925h.077c.355-.024.558-.024.787-.024.33-.025.634.024.939.173.28.173.457.47.431.793a.824.824 0 0 1-.558.817c.178.273.685.917.94 1.19l.025.049h-.863a19.748 19.748 0 0 1-.762-1.065l-.026-.05h-.304v1.115h-.686v-2.998Zm.686 1.313h.203c.431 0 .635-.124.635-.396s-.178-.421-.61-.421H34.63v.817ZM36.685 24.874a44.67 44.67 0 0 1 1.244-2.973h.686c.432.991.736 1.784 1.142 2.973h-.761l-.254-.793h-1.066l-.28.793h-.71Zm1.905-1.313-.178-.52c-.05-.174-.102-.347-.127-.52-.025.123-.025.148-.05.198l-.128.371-.178.471h.66ZM40.315 21.926h1.955v.594h-1.269v.62h1.219v.594H41v1.19h-.711l.025-2.998ZM43.59 22.521h-.964v-.57h2.64v.595h-.964v2.378h-.711V22.52ZM47.222 21.926h1.955v.594h-1.27v.62h1.244v.594h-1.219v1.19h-.71v-2.998ZM50.472 21.926v1.66a.817.817 0 0 0 .101.544.632.632 0 0 0 .483.223c.177 0 .38-.074.482-.198.076-.173.127-.372.101-.545v-1.66h.711v1.735c.026.297-.05.594-.203.866-.203.273-.584.422-1.091.422-.381.024-.762-.1-1.041-.372-.178-.198-.254-.47-.254-.916V21.95h.71v-.025Zm-.305-.942h.66v.644h-.66v-.644Zm1.168 0h.66v.644h-.66v-.644ZM53.06 21.925h.077c.355-.024.558-.024.787-.024.33-.025.634.024.939.173.28.173.457.47.432.793a.804.804 0 0 1-.559.817c.178.273.686.917.94 1.19l.025.049h-.863a19.86 19.86 0 0 1-.762-1.065l-.025-.05h-.305v1.115h-.686v-2.998Zm.686 1.313h.203c.432 0 .635-.124.635-.396s-.178-.421-.61-.421H53.746v.817ZM57.605 21.926h.584c.127 0 .229.05.28.148l.939 1.412c.152.248.305.496.406.744a3.005 3.005 0 0 1-.101-.818v-1.486h.634v2.972h-.584c-.127 0-.228-.05-.279-.148l-.94-1.412a7.412 7.412 0 0 1-.405-.768c.05.272.101.545.101.817v1.487h-.635v-2.948ZM61.185 21.926h1.954v.57h-1.244v.57h1.22v.569h-1.22v.644h1.27v.595h-1.98v-2.948ZM64.612 21.926v1.66a.815.815 0 0 0 .102.545.632.632 0 0 0 .482.222c.178 0 .381-.074.483-.198.076-.173.126-.371.101-.545v-1.66h.711v1.735c.025.297-.05.594-.203.867-.203.272-.584.42-1.092.42-.38.025-.761-.098-1.04-.37-.178-.2-.255-.471-.255-.917V21.95h.711v-.025ZM67.304 21.926h1.955v.57h-1.245v.57h1.22v.569h-1.22v.644h1.27v.595h-1.955v-2.948h-.025ZM69.918 24.081c.254.198.533.297.863.297.33 0 .482-.099.482-.297 0-.149-.101-.223-.38-.372l-.254-.123c-.508-.248-.686-.471-.686-.843 0-.545.432-.891 1.143-.891.28 0 .584.05.838.198v.644a1.315 1.315 0 0 0-.787-.273c-.305 0-.483.1-.483.273 0 .124.076.198.28.297l.253.124c.229.074.407.198.584.347a.832.832 0 0 1 .229.594c0 .57-.457.892-1.168.892-.305 0-.61-.074-.889-.198l-.025-.669Z"/></g></g><defs><clipPath id="a"><path fill="#fff" d="M0 0h72v31H0z"/></clipPath></defs></svg>