<svg xmlns="http://www.w3.org/2000/svg" width="70" height="31" fill="none"><path fill="#E4001C" d="M15.088 8.89c-.776 0-1.896.247-3.921.925V22.66c1.78.584 3.145.925 3.92.925 1.79 0 2.798-1.184 2.798-3.084v-8.529c0-1.9-1.009-3.084-2.797-3.084Zm.583 11.282c0 .744-.413.991-.907.991-.384 0-.976-.151-1.46-.294V11.6c.483-.138 1.076-.289 1.46-.289.494 0 .907.248.907.991v7.87ZM40.66 6.577c-2.265-.119-3.614.963-3.614 3.44v12.31c0 2.616 1.222 3.693 3.614 3.58 2.341-.11 3.563-1.074 3.563-3.855v-11.75c0-2.652-1.105-3.596-3.563-3.725Zm1.094 15.53c0 .744-.229 1.13-1.094 1.157-.89.028-1.132-.386-1.132-1.156V10.376c0-.77.242-1.198 1.132-1.17.865.027 1.094.426 1.094 1.17v11.732Zm20.923-10.726v9.697c2.78-1.429 4.375-3.09 4.375-4.868 0-1.76-1.596-3.411-4.375-4.829ZM2.95 16.211c0 1.775 1.594 3.438 4.372 4.864v-9.69c-2.778 1.414-4.372 3.066-4.372 4.825Zm21.17 5.467c0 .744-.237 1.214-1.094 1.102-.843-.11-1.07-.497-1.07-1.377V7.422c-.559.066-1.806.253-2.34.336v14.14c0 2.258 1.013 3.136 3.41 3.433 2.193.273 3.537-.927 3.537-3.433V6.958c-.458.029-1.96.166-2.443.222v14.498Zm26.885-4.62-2.71-9.567a61.353 61.353 0 0 0-2.316-.281v18.058c.484-.049 1.716-.2 2.352-.29l-.193-10.64 2.867 10.225c.611-.104 1.501-.272 2.087-.393V8.303c-.61-.13-1.72-.333-2.255-.421l.168 9.176ZM31.87 6.681c-.424 0-1.974.058-3.4.149v18.818c.484.028 1.756.1 2.444.119v-6.39l.956-.003c2.56-.008 3.624-1.25 3.624-3.64V10.19c0-2.34-1.196-3.508-3.624-3.508Zm1.155 8.855c0 .81-.261 1.22-1.254 1.223l-.858.002V9.336c.382-.022.585-.027.815-.027 1.073 0 1.297.44 1.297 1.266v4.961ZM54.3 11.078c.605.117 1.2.248 1.781.386V23.47a44.412 44.412 0 0 0 2.189-.628V12.03a70.08 70.08 0 0 1 1.781.527V10.24c-1.728-.653-3.583-1.184-5.751-1.674v2.511Z"/></svg>