<svg width="24" height="25" viewBox="0 0 24 25" fill="none" xmlns="http://www.w3.org/2000/svg">
<path fill-rule="evenodd" clip-rule="evenodd" d="M5.01412 5.11178C8.93247 1.21665 15.2622 1.21665 19.1805 5.11178C20.989 7.00941 22.0941 9.50628 21.9937 12.1031C21.9937 17.5962 17.573 21.9907 12.0471 21.9907C10.4395 21.9907 8.832 21.5912 7.32494 20.7922L2 22.1904L3.40659 17.0968C1.19624 13.2017 1.79906 8.30778 5.01412 5.11178ZM15.8146 13.8009C16.1914 13.9757 16.5682 14.1505 16.6686 14.2004L17.0705 14.4002C17.171 14.7997 17.171 15.1992 16.9701 15.5987C16.5682 16.1979 15.9653 16.6973 15.2621 16.7972C14.6592 16.8971 14.1569 16.8971 13.6545 16.6973C13.2665 16.6202 12.9385 16.4835 12.5778 16.3332C12.4714 16.2889 12.3623 16.2434 12.2479 16.1979C10.5399 15.3989 9.13332 14.1005 8.02814 12.5025C7.42532 11.7035 7.12391 10.8047 7.02344 9.90579C7.02344 9.10679 7.32485 8.40766 7.92767 7.80842C8.02814 7.70854 8.32955 7.50879 8.5305 7.50879H9.03285C9.23379 7.50879 9.43473 7.50879 9.53521 8.20792C9.73614 8.70729 10.2385 9.90579 10.339 10.0057C10.4394 10.1055 10.4394 10.3053 10.339 10.4052C10.339 10.505 10.2385 10.7048 10.138 10.8047C9.9979 10.8743 9.90663 10.9925 9.83015 11.0916C9.79696 11.1345 9.76655 11.1739 9.73614 11.2042C9.63568 11.3041 9.5352 11.5038 9.63568 11.7035C10.0376 12.3028 10.5399 12.9021 11.0423 13.4014C11.6451 13.9008 12.3483 14.3003 13.0517 14.5999C13.2526 14.6998 13.4535 14.6998 13.5541 14.5001C13.6545 14.4002 13.8052 14.2005 13.9559 14.0007C14.1066 13.801 14.2573 13.6012 14.3578 13.5013C14.5587 13.3015 14.7597 13.3015 14.9606 13.4014C15.0611 13.4514 15.4378 13.6262 15.8146 13.8009Z" fill="white"/>
</svg>
