<svg width="24" height="25" viewBox="0 0 24 25" fill="none" xmlns="http://www.w3.org/2000/svg">
<path fill-rule="evenodd" clip-rule="evenodd" d="M19.2222 22.1904C20.7567 22.1904 22 20.9471 22 19.4127V4.96821C22 3.43376 20.7567 2.19043 19.2222 2.19043H4.77778C3.24389 2.19043 2 3.43376 2 4.96821V19.4127C2 20.9471 3.24389 22.1904 4.77778 22.1904H19.2222ZM18.6661 8.64876C18.6694 8.71821 18.6572 8.79599 18.6317 8.87987C18.4769 9.6307 17.1131 11.6286 16.7005 12.2331C16.6243 12.3447 16.5805 12.4088 16.5828 12.4088C16.5028 12.5454 16.4494 12.6432 16.4444 12.746C16.4394 12.8438 16.4789 12.946 16.5828 13.091C16.7378 13.3132 17.075 13.7221 17.4167 14.1349C18.0333 14.8804 18.5278 15.6627 18.6356 15.9827C18.6583 16.0699 18.6683 16.1482 18.6667 16.2182C18.6589 16.4932 18.465 16.6349 18.1272 16.6349H16.6728C16.2897 16.6349 16.0886 16.3712 15.6787 15.8339C15.499 15.5983 15.2791 15.31 14.9861 14.9682C14.1528 13.996 13.7211 13.8571 13.5094 13.8571C13.2128 13.8571 13.1111 13.931 13.1106 14.376V16.0271C13.1106 16.3977 13.015 16.6349 12.0828 16.6349C10.5439 16.6349 8.80556 15.5932 7.48611 13.7877C5.66667 11.2977 5.33333 9.1321 5.33333 8.73154C5.33333 8.50932 5.40389 8.30154 5.82778 8.30154H7.29611C7.66333 8.30154 7.80444 8.46487 7.94556 8.89488C8.59722 11.0793 9.57056 12.746 10.065 12.746C10.2483 12.746 10.3333 12.6571 10.3333 12.1682V10.1554C10.2984 9.51493 10.0952 9.2357 9.94456 9.02878C9.85102 8.90026 9.77778 8.79963 9.77778 8.65765C9.77778 8.47932 9.89556 8.30154 10.1217 8.30154H12.7044C13.015 8.30154 13.1111 8.47932 13.1111 8.86487V11.7454C13.1111 12.0715 13.3594 12.1904 13.4578 12.1904C13.4621 12.1904 13.4665 12.1904 13.4708 12.1904C13.6494 12.1906 13.8214 12.1908 14.1522 11.8432C15.1972 10.6127 16.1039 8.74654 16.1039 8.74654C16.2028 8.52376 16.3722 8.30154 16.7394 8.30154H18.1939C18.5194 8.30154 18.6578 8.44765 18.6661 8.64876Z" fill="white"/>
</svg>
