<svg width="68" height="31" viewBox="0 0 68 31" fill="none" xmlns="http://www.w3.org/2000/svg">
<path d="M68 6.02734H0V26.694H68V6.02734Z" fill="#024A96"/>
<path d="M25.0849 9.86133H31.3624C33.6667 9.86133 34.7192 11.6363 34.7192 13.2583C34.7192 14.4268 34.3305 15.1804 33.2871 15.8827C34.603 16.4447 35.3184 17.4583 35.3184 19.0221C35.3184 20.8921 34.143 22.8766 31.3708 22.8766H25.082L25.0849 9.86133ZM28.5135 19.9383H30.7849C31.5949 19.9383 31.9581 19.2697 31.9581 18.6788C31.9581 18.9523 32.0623 17.6005 30.9001 17.6005H28.5135V19.9383ZM28.5216 14.986H30.3471C31.1816 14.986 31.5142 14.5371 31.5142 13.8788C31.5142 13.7269 31.4734 12.8767 30.5866 12.8767H28.5216V14.986Z" fill="#FFFBFE"/>
<path d="M38.8884 9.86133H42.518L46.652 22.8607H42.9265L42.3811 20.9133H38.9035L38.4412 22.8505H34.7441L38.8884 9.86133ZM40.5557 13.7207L39.5975 18.062H41.6461L40.5557 13.7207Z" fill="#FFFBFE"/>
<path d="M52.4406 13.7283H55.9021C55.903 11.5212 54.4652 9.47266 51.054 9.47266C47.3124 9.47266 46.154 11.8583 46.154 13.6044C46.154 16.4197 49.1362 17.1683 49.2287 17.2017C49.6742 17.3638 51.5254 17.9366 51.9871 18.1276C52.3877 18.2928 52.7708 18.6632 52.7708 19.1582C52.7708 19.9169 51.9871 20.2834 51.3347 20.2834C50.9157 20.2834 49.5081 20.123 49.5081 18.3992H45.9326C45.9326 20.6885 47.2958 23.2504 51.1208 23.2504C55.3415 23.2504 56.2246 20.342 56.2246 18.7952C56.2246 17.533 55.6057 16.1329 54.1773 15.4662C53.3178 15.0654 51.8936 14.7142 51.1782 14.4729C50.8177 14.3507 49.6163 14.0697 49.6163 13.2227C49.6163 12.1378 51.1644 12.2782 50.9385 12.2782C51.6377 12.2782 52.4406 12.7331 52.4406 13.7283Z" fill="#FFFBFE"/>
<path d="M56.8109 9.8584H65.4497V13.2938H60.2629V15.5839H64.8881V18.8666H60.2466V22.8744H56.7939L56.8109 9.8584Z" fill="#FFFBFE"/>
<g opacity="0.5">
<path d="M2.5498 9.86133V22.8781H13.8172V9.86133H2.5498ZM10.3503 18.8729H6.01585V13.8654H10.3503V18.8729Z" fill="#FFFBFE"/>
<path d="M17.2842 13.8662H21.6177V18.8727H17.2842V13.8662Z" fill="#FFFBFE"/>
</g>
</svg>
