<svg width="90" height="90" viewBox="0 0 90 90" fill="none" xmlns="http://www.w3.org/2000/svg">
<g clip-path="url(#clip0_2240_9237)">
<g filter="url(#filter0_b_2240_9237)">
<path d="M20.5 70.2053V72.5H35V66.5L34.6276 58.6799C34.5448 56.9409 33.897 55.2764 32.7824 53.9389L29.5 50L24.2369 44.2983C23.785 43.8088 23.096 43.6154 22.4554 43.7985C21.2688 44.1375 20.1096 43.185 20.2121 41.9552L20.5 38.5L20.0942 29.5722C20.0352 28.2747 19.327 27.0794 18.2256 26.391C16.8902 25.5564 15.1642 25.597 13.8828 26.5123C13.0011 27.142 12.422 28.1109 12.2848 29.1856L9.61529 50.0969C9.53868 50.697 9.53039 51.3039 9.59059 51.9059L9.72624 53.2624C9.90365 55.0365 10.6686 56.7005 11.8997 57.9902L18.2868 64.6815C19.7074 66.1697 20.5 68.1479 20.5 70.2053Z" fill="#DFE8F3" fill-opacity="0.5"/>
<path d="M20.5 70.2053V72.5H35V66.5L34.6276 58.6799C34.5448 56.9409 33.897 55.2764 32.7824 53.9389L29.5 50L24.2369 44.2983C23.785 43.8088 23.096 43.6154 22.4554 43.7985C21.2688 44.1375 20.1096 43.185 20.2121 41.9552L20.5 38.5L20.0942 29.5722C20.0352 28.2747 19.327 27.0794 18.2256 26.391C16.8902 25.5564 15.1642 25.597 13.8828 26.5123C13.0011 27.142 12.422 28.1109 12.2848 29.1856L9.61529 50.0969C9.53868 50.697 9.53039 51.3039 9.59059 51.9059L9.72624 53.2624C9.90365 55.0365 10.6686 56.7005 11.8997 57.9902L18.2868 64.6815C19.7074 66.1697 20.5 68.1479 20.5 70.2053Z" stroke="white" stroke-width="2"/>
</g>
<g filter="url(#filter1_b_2240_9237)">
<path d="M66.5 70.2053V72.5H52V66.5L52.3724 58.6799C52.4552 56.9409 53.103 55.2764 54.2176 53.9389L57.5 50L62.7631 44.2983C63.215 43.8088 63.904 43.6154 64.5446 43.7985C65.7312 44.1375 66.8904 43.185 66.7879 41.9552L66.5 38.5L66.9058 29.5722C66.9648 28.2747 67.673 27.0794 68.7744 26.391C70.1098 25.5564 71.8358 25.597 73.1172 26.5123C73.9989 27.142 74.578 28.1109 74.7152 29.1856L77.3847 50.0969C77.4613 50.697 77.4696 51.3039 77.4094 51.9059L77.2738 53.2624C77.0964 55.0365 76.3314 56.7005 75.1003 57.9902L68.7132 64.6815C67.2926 66.1697 66.5 68.1479 66.5 70.2053Z" fill="#DFE8F3" fill-opacity="0.5"/>
<path d="M66.5 70.2053V72.5H52V66.5L52.3724 58.6799C52.4552 56.9409 53.103 55.2764 54.2176 53.9389L57.5 50L62.7631 44.2983C63.215 43.8088 63.904 43.6154 64.5446 43.7985C65.7312 44.1375 66.8904 43.185 66.7879 41.9552L66.5 38.5L66.9058 29.5722C66.9648 28.2747 67.673 27.0794 68.7744 26.391C70.1098 25.5564 71.8358 25.597 73.1172 26.5123C73.9989 27.142 74.578 28.1109 74.7152 29.1856L77.3847 50.0969C77.4613 50.697 77.4696 51.3039 77.4094 51.9059L77.2738 53.2624C77.0964 55.0365 76.3314 56.7005 75.1003 57.9902L68.7132 64.6815C67.2926 66.1697 66.5 68.1479 66.5 70.2053Z" stroke="white" stroke-width="2"/>
</g>
<g filter="url(#filter2_bd_2240_9237)">
<path d="M27 57.5L19.7902 50.618C17.7654 48.6852 17.8631 45.4235 20 43.6154V43.6154M20 43.6154V43.6154C21.3913 42.4381 23.4673 42.5833 24.6811 43.9429L33.0594 53.3266C34.3129 54.7304 35.0312 56.5312 35.0883 58.4124L35.5 72H27H20.5V69.8137C20.5 67.692 19.6571 65.6571 18.1569 64.1569L11.7314 57.7314C10.0058 56.0058 9.16216 53.5869 9.44037 51.1625L12.0675 28.2691C12.3096 26.1591 14.1662 24.6111 16.2855 24.7524V24.7524C18.3757 24.8917 20 26.6279 20 28.7228V38V43.6154Z" stroke="white" stroke-width="2" shape-rendering="crispEdges"/>
</g>
<g filter="url(#filter3_bd_2240_9237)">
<path d="M60 57.5L67.2098 50.618C69.2346 48.6852 69.1369 45.4235 67 43.6154V43.6154M67 43.6154V43.6154C65.6087 42.4381 63.5327 42.5833 62.3189 43.9429L53.9406 53.3266C52.6871 54.7304 51.9688 56.5312 51.9117 58.4124L51.5 72H60H66.5V69.8137C66.5 67.692 67.3429 65.6571 68.8431 64.1569L75.2686 57.7314C76.9942 56.0058 77.8378 53.5869 77.5596 51.1625L74.9325 28.2691C74.6904 26.1591 72.8338 24.6111 70.7145 24.7524V24.7524C68.6243 24.8917 67 26.6279 67 28.7228V38V43.6154Z" stroke="white" stroke-width="2" shape-rendering="crispEdges"/>
</g>
<g filter="url(#filter4_d_2240_9237)">
<path d="M34.4307 28.5C31.7091 30.9698 30 34.5353 30 38.5V42.7097C30 42.87 30.13 43 30.2903 43H56.7097C56.87 43 57 42.87 57 42.7097V38.5C57 34.5353 55.2909 30.9698 52.5693 28.5C50.1728 30.6748 46.9912 32 43.5 32C40.0088 32 36.8272 30.6748 34.4307 28.5Z" fill="#1894FF"/>
<path d="M34.4307 28.5C31.7091 30.9698 30 34.5353 30 38.5V42.7097C30 42.87 30.13 43 30.2903 43H56.7097C56.87 43 57 42.87 57 42.7097V38.5C57 34.5353 55.2909 30.9698 52.5693 28.5C50.1728 30.6748 46.9912 32 43.5 32C40.0088 32 36.8272 30.6748 34.4307 28.5Z" fill="url(#paint0_linear_2240_9237)"/>
<path d="M34.4307 28.5C31.7091 30.9698 30 34.5353 30 38.5V42.7097C30 42.87 30.13 43 30.2903 43H56.7097C56.87 43 57 42.87 57 42.7097V38.5C57 34.5353 55.2909 30.9698 52.5693 28.5C50.1728 30.6748 46.9912 32 43.5 32C40.0088 32 36.8272 30.6748 34.4307 28.5Z" fill="url(#paint1_linear_2240_9237)"/>
<path d="M34.4307 28.5C31.7091 30.9698 30 34.5353 30 38.5V42.7097C30 42.87 30.13 43 30.2903 43H56.7097C56.87 43 57 42.87 57 42.7097V38.5C57 34.5353 55.2909 30.9698 52.5693 28.5C50.1728 30.6748 46.9912 32 43.5 32C40.0088 32 36.8272 30.6748 34.4307 28.5Z" fill="url(#paint2_linear_2240_9237)" style="mix-blend-mode:overlay"/>
</g>
<circle cx="43.5" cy="18.5" r="9.5" fill="#1894FF"/>
<circle cx="43.5" cy="18.5" r="9.5" fill="url(#paint3_linear_2240_9237)"/>
<circle cx="43.5" cy="18.5" r="9.5" fill="url(#paint4_linear_2240_9237)"/>
<circle cx="43.5" cy="18.5" r="9.5" fill="url(#paint5_linear_2240_9237)" style="mix-blend-mode:overlay"/>
<g filter="url(#filter5_d_2240_9237)">
<rect x="17" y="72.5" width="21" height="9" rx="3" fill="#1894FF"/>
<rect x="17" y="72.5" width="21" height="9" rx="3" fill="url(#paint6_linear_2240_9237)"/>
<rect x="17" y="72.5" width="21" height="9" rx="3" fill="url(#paint7_linear_2240_9237)"/>
<rect x="17" y="72.5" width="21" height="9" rx="3" fill="url(#paint8_linear_2240_9237)" style="mix-blend-mode:overlay"/>
<rect x="17" y="72.5" width="21" height="9" rx="3" stroke="white" stroke-width="2"/>
</g>
<g filter="url(#filter6_d_2240_9237)">
<rect width="21" height="9" rx="3" transform="matrix(-1 0 0 1 70 72.5)" fill="#1894FF"/>
<rect width="21" height="9" rx="3" transform="matrix(-1 0 0 1 70 72.5)" fill="url(#paint9_linear_2240_9237)"/>
<rect width="21" height="9" rx="3" transform="matrix(-1 0 0 1 70 72.5)" fill="url(#paint10_linear_2240_9237)"/>
<rect width="21" height="9" rx="3" transform="matrix(-1 0 0 1 70 72.5)" fill="url(#paint11_linear_2240_9237)" style="mix-blend-mode:overlay"/>
<rect width="21" height="9" rx="3" transform="matrix(-1 0 0 1 70 72.5)" stroke="white" stroke-width="2"/>
</g>
</g>
<defs>
<filter id="filter0_b_2240_9237" x="0.550781" y="16.7941" width="43.4492" height="64.7059" filterUnits="userSpaceOnUse" color-interpolation-filters="sRGB">
<feFlood flood-opacity="0" result="BackgroundImageFix"/>
<feGaussianBlur in="BackgroundImageFix" stdDeviation="4"/>
<feComposite in2="SourceAlpha" operator="in" result="effect1_backgroundBlur_2240_9237"/>
<feBlend mode="normal" in="SourceGraphic" in2="effect1_backgroundBlur_2240_9237" result="shape"/>
</filter>
<filter id="filter1_b_2240_9237" x="43" y="16.7941" width="43.4492" height="64.7059" filterUnits="userSpaceOnUse" color-interpolation-filters="sRGB">
<feFlood flood-opacity="0" result="BackgroundImageFix"/>
<feGaussianBlur in="BackgroundImageFix" stdDeviation="4"/>
<feComposite in2="SourceAlpha" operator="in" result="effect1_backgroundBlur_2240_9237"/>
<feBlend mode="normal" in="SourceGraphic" in2="effect1_backgroundBlur_2240_9237" result="shape"/>
</filter>
<filter id="filter2_bd_2240_9237" x="-0.611816" y="15.7434" width="46.1426" height="68.2566" filterUnits="userSpaceOnUse" color-interpolation-filters="sRGB">
<feFlood flood-opacity="0" result="BackgroundImageFix"/>
<feGaussianBlur in="BackgroundImageFix" stdDeviation="4"/>
<feComposite in2="SourceAlpha" operator="in" result="effect1_backgroundBlur_2240_9237"/>
<feColorMatrix in="SourceAlpha" type="matrix" values="0 0 0 0 0 0 0 0 0 0 0 0 0 0 0 0 0 0 127 0" result="hardAlpha"/>
<feOffset dy="2"/>
<feGaussianBlur stdDeviation="4.5"/>
<feComposite in2="hardAlpha" operator="out"/>
<feColorMatrix type="matrix" values="0 0 0 0 0 0 0 0 0 0 0 0 0 0 0 0 0 0 0.3 0"/>
<feBlend mode="normal" in2="effect1_backgroundBlur_2240_9237" result="effect2_dropShadow_2240_9237"/>
<feBlend mode="normal" in="SourceGraphic" in2="effect2_dropShadow_2240_9237" result="shape"/>
</filter>
<filter id="filter3_bd_2240_9237" x="41.4692" y="15.7434" width="46.1426" height="68.2566" filterUnits="userSpaceOnUse" color-interpolation-filters="sRGB">
<feFlood flood-opacity="0" result="BackgroundImageFix"/>
<feGaussianBlur in="BackgroundImageFix" stdDeviation="4"/>
<feComposite in2="SourceAlpha" operator="in" result="effect1_backgroundBlur_2240_9237"/>
<feColorMatrix in="SourceAlpha" type="matrix" values="0 0 0 0 0 0 0 0 0 0 0 0 0 0 0 0 0 0 127 0" result="hardAlpha"/>
<feOffset dy="2"/>
<feGaussianBlur stdDeviation="4.5"/>
<feComposite in2="hardAlpha" operator="out"/>
<feColorMatrix type="matrix" values="0 0 0 0 0 0 0 0 0 0 0 0 0 0 0 0 0 0 0.3 0"/>
<feBlend mode="normal" in2="effect1_backgroundBlur_2240_9237" result="effect2_dropShadow_2240_9237"/>
<feBlend mode="normal" in="SourceGraphic" in2="effect2_dropShadow_2240_9237" result="shape"/>
</filter>
<filter id="filter4_d_2240_9237" x="24" y="24.5" width="39" height="26.5" filterUnits="userSpaceOnUse" color-interpolation-filters="sRGB">
<feFlood flood-opacity="0" result="BackgroundImageFix"/>
<feColorMatrix in="SourceAlpha" type="matrix" values="0 0 0 0 0 0 0 0 0 0 0 0 0 0 0 0 0 0 127 0" result="hardAlpha"/>
<feOffset dy="2"/>
<feGaussianBlur stdDeviation="3"/>
<feComposite in2="hardAlpha" operator="out"/>
<feColorMatrix type="matrix" values="0 0 0 0 0 0 0 0 0 0 0 0 0 0 0 0 0 0 0.16 0"/>
<feBlend mode="normal" in2="BackgroundImageFix" result="effect1_dropShadow_2240_9237"/>
<feBlend mode="normal" in="SourceGraphic" in2="effect1_dropShadow_2240_9237" result="shape"/>
</filter>
<filter id="filter5_d_2240_9237" x="10" y="67.5" width="35" height="23" filterUnits="userSpaceOnUse" color-interpolation-filters="sRGB">
<feFlood flood-opacity="0" result="BackgroundImageFix"/>
<feColorMatrix in="SourceAlpha" type="matrix" values="0 0 0 0 0 0 0 0 0 0 0 0 0 0 0 0 0 0 127 0" result="hardAlpha"/>
<feOffset dy="2"/>
<feGaussianBlur stdDeviation="3"/>
<feComposite in2="hardAlpha" operator="out"/>
<feColorMatrix type="matrix" values="0 0 0 0 0 0 0 0 0 0 0 0 0 0 0 0 0 0 0.16 0"/>
<feBlend mode="normal" in2="BackgroundImageFix" result="effect1_dropShadow_2240_9237"/>
<feBlend mode="normal" in="SourceGraphic" in2="effect1_dropShadow_2240_9237" result="shape"/>
</filter>
<filter id="filter6_d_2240_9237" x="42" y="67.5" width="35" height="23" filterUnits="userSpaceOnUse" color-interpolation-filters="sRGB">
<feFlood flood-opacity="0" result="BackgroundImageFix"/>
<feColorMatrix in="SourceAlpha" type="matrix" values="0 0 0 0 0 0 0 0 0 0 0 0 0 0 0 0 0 0 127 0" result="hardAlpha"/>
<feOffset dy="2"/>
<feGaussianBlur stdDeviation="3"/>
<feComposite in2="hardAlpha" operator="out"/>
<feColorMatrix type="matrix" values="0 0 0 0 0 0 0 0 0 0 0 0 0 0 0 0 0 0 0.16 0"/>
<feBlend mode="normal" in2="BackgroundImageFix" result="effect1_dropShadow_2240_9237"/>
<feBlend mode="normal" in="SourceGraphic" in2="effect1_dropShadow_2240_9237" result="shape"/>
</filter>
<linearGradient id="paint0_linear_2240_9237" x1="58.6609" y1="31.3641" x2="49.3969" y2="31.3641" gradientUnits="userSpaceOnUse">
<stop stop-color="#016ECF"/>
<stop offset="1" stop-color="#0187F9"/>
</linearGradient>
<linearGradient id="paint1_linear_2240_9237" x1="39.678" y1="31.3641" x2="30.769" y2="31.3641" gradientUnits="userSpaceOnUse">
<stop stop-color="#0187F9" stop-opacity="0"/>
<stop offset="1" stop-color="#39A5FF"/>
</linearGradient>
<linearGradient id="paint2_linear_2240_9237" x1="43.5" y1="25" x2="43.5" y2="43" gradientUnits="userSpaceOnUse">
<stop stop-color="#0787F5"/>
<stop offset="1" stop-color="#66ADE7"/>
</linearGradient>
<linearGradient id="paint3_linear_2240_9237" x1="54.1688" y1="15.7177" x2="47.6497" y2="15.7177" gradientUnits="userSpaceOnUse">
<stop stop-color="#016ECF"/>
<stop offset="1" stop-color="#0187F9"/>
</linearGradient>
<linearGradient id="paint4_linear_2240_9237" x1="40.8104" y1="15.7177" x2="34.5411" y2="15.7177" gradientUnits="userSpaceOnUse">
<stop stop-color="#0187F9" stop-opacity="0"/>
<stop offset="1" stop-color="#39A5FF"/>
</linearGradient>
<linearGradient id="paint5_linear_2240_9237" x1="43.5" y1="9" x2="43.5" y2="28" gradientUnits="userSpaceOnUse">
<stop stop-color="#0787F5"/>
<stop offset="1" stop-color="#66ADE7"/>
</linearGradient>
<linearGradient id="paint6_linear_2240_9237" x1="39.2918" y1="75.6821" x2="32.0865" y2="75.6821" gradientUnits="userSpaceOnUse">
<stop stop-color="#016ECF"/>
<stop offset="1" stop-color="#0187F9"/>
</linearGradient>
<linearGradient id="paint7_linear_2240_9237" x1="24.5273" y1="75.6821" x2="17.5981" y2="75.6821" gradientUnits="userSpaceOnUse">
<stop stop-color="#0187F9" stop-opacity="0"/>
<stop offset="1" stop-color="#39A5FF"/>
</linearGradient>
<linearGradient id="paint8_linear_2240_9237" x1="27.5" y1="72.5" x2="27.5" y2="81.5" gradientUnits="userSpaceOnUse">
<stop stop-color="#0787F5"/>
<stop offset="1" stop-color="#66ADE7"/>
</linearGradient>
<linearGradient id="paint9_linear_2240_9237" x1="22.2918" y1="3.18207" x2="15.0865" y2="3.18207" gradientUnits="userSpaceOnUse">
<stop stop-color="#016ECF"/>
<stop offset="1" stop-color="#0187F9"/>
</linearGradient>
<linearGradient id="paint10_linear_2240_9237" x1="7.52731" y1="3.18207" x2="0.598078" y2="3.18207" gradientUnits="userSpaceOnUse">
<stop stop-color="#0187F9" stop-opacity="0"/>
<stop offset="1" stop-color="#39A5FF"/>
</linearGradient>
<linearGradient id="paint11_linear_2240_9237" x1="10.5" y1="0" x2="10.5" y2="9" gradientUnits="userSpaceOnUse">
<stop stop-color="#0787F5"/>
<stop offset="1" stop-color="#66ADE7"/>
</linearGradient>
<clipPath id="clip0_2240_9237">
<rect width="90" height="90" fill="white"/>
</clipPath>
</defs>
</svg>
