<svg width="72" height="31" viewBox="0 0 72 31" fill="none" xmlns="http://www.w3.org/2000/svg">
<g clip-path="url(#clip0_2133_9145)">
<mask id="mask0_2133_9145" style="mask-type:luminance" maskUnits="userSpaceOnUse" x="0" y="0" width="72" height="31">
<path d="M72 0H0V31H72V0Z" fill="white"/>
</mask>
<g mask="url(#mask0_2133_9145)">
<path d="M71.6193 18.978H70.3245C70.1976 18.978 70.0961 18.8789 70.0706 18.7303C70.0199 17.9623 69.7406 17.244 69.2582 16.6247C69.1821 16.5257 69.1059 16.4266 69.0043 16.3274C68.4966 15.7577 67.7604 15.4605 66.9987 15.4605H66.1609V18.7056C66.1609 18.8542 66.0594 18.9532 65.9071 18.9532H64.5615C64.4092 18.9532 64.3076 18.8542 64.3076 18.7056V11.0759C64.3076 10.9272 64.4092 10.8281 64.5615 10.8281H65.9071C66.0594 10.8281 66.1609 10.9272 66.1609 11.0759V13.6521H66.9987C68.4712 13.6521 69.6899 12.4878 69.7152 11.0511C69.7152 10.9272 69.8168 10.8281 69.9437 10.8281H71.34C71.4924 10.8281 71.5939 10.9272 71.5939 11.0759C71.5686 12.463 70.9085 13.7512 69.7914 14.5687C70.0706 14.7916 70.35 15.0393 70.5784 15.3118C71.4162 16.2779 71.8986 17.4669 71.9494 18.7303C71.9494 18.8542 71.8478 18.978 71.6955 18.978H71.6193Z" fill="#991D85"/>
<path d="M56.9192 12.7357C55.4467 12.1907 53.7965 12.1907 52.324 12.7357V18.7057C52.324 18.8543 52.2224 18.9534 52.0701 18.9534H50.6992C50.5468 18.9534 50.4453 18.8543 50.4453 18.7057V11.72C50.4453 11.6457 50.4961 11.5714 50.5469 11.5219C53.0602 10.1346 56.1576 10.1346 58.671 11.5219C58.7471 11.5714 58.7979 11.6457 58.7725 11.7448V18.7304C58.7725 18.879 58.671 18.9782 58.5187 18.9782H57.1477C56.9953 18.9782 56.8938 18.879 56.8938 18.7304L56.9192 12.7357Z" fill="#991D85"/>
<path d="M60.6006 18.7056V11.0759C60.6006 10.9272 60.7022 10.8281 60.8545 10.8281H62.2255C62.3778 10.8281 62.4793 10.9272 62.4793 11.0759V18.7056C62.4793 18.8542 62.3778 18.9532 62.2255 18.9532H60.8545C60.7275 18.9532 60.6006 18.8542 60.6006 18.7056Z" fill="#991D85"/>
<path d="M37.1175 10.8281H38.9454C39.0977 10.8281 39.1993 10.9272 39.1993 11.0759C39.1993 11.1007 39.1993 11.1254 39.1739 11.175L36.1781 18.8046C36.1528 18.9037 36.0258 18.978 35.9242 18.978H33.6394C33.5378 18.978 33.4362 18.9285 33.4108 18.8294L30.542 11.1502C30.542 11.1254 30.542 11.1007 30.542 11.0759C30.542 10.952 30.6436 10.8529 30.7705 10.8281H32.6238C32.7254 10.8281 32.827 10.9024 32.8523 11.0016L34.8072 17.1449L36.9143 10.9768C36.9398 10.9024 37.0413 10.8281 37.1175 10.8281Z" fill="#991D85"/>
<path d="M29.5265 18.978H22.9257C22.8241 18.978 22.7479 18.9285 22.6971 18.8542C21.9863 17.6404 21.6309 16.2779 21.6309 14.8907C21.6309 13.5035 21.9863 12.1411 22.6971 10.952C22.7479 10.8777 22.8495 10.8281 22.951 10.8281H29.2218C29.3487 10.8281 29.4503 10.9272 29.4503 11.0511V12.4383C29.4503 12.5621 29.3487 12.6613 29.2218 12.6613H23.9411C23.7634 13.0823 23.6619 13.5282 23.5857 13.9989H28.841C28.9679 13.9989 29.0949 14.098 29.0949 14.2219V15.5595C29.0949 15.7081 28.9934 15.8072 28.841 15.8072H23.5604C23.6365 16.2531 23.7381 16.699 23.9157 17.1202H29.5265C29.6535 17.1202 29.7804 17.2192 29.7804 17.3431V18.7056C29.7804 18.8542 29.6788 18.9532 29.5265 18.978Z" fill="#991D85"/>
<path d="M46.7395 12.7357C45.2671 12.1907 43.6168 12.1907 42.1443 12.7357V17.0707C43.6168 17.6157 45.2671 17.6157 46.7395 17.0707V12.7357ZM44.4546 19.3249C43.0329 19.3249 41.6365 18.9782 40.3926 18.2845C40.3164 18.235 40.2656 18.1607 40.2656 18.0864V11.72C40.2656 11.6457 40.3164 11.5714 40.3926 11.5219C42.906 10.1346 46.0033 10.1346 48.5167 11.5219C48.5929 11.5714 48.6436 11.6457 48.6436 11.72V18.0864C48.6436 18.1607 48.5929 18.235 48.5167 18.2845C47.2472 18.9534 45.8509 19.3249 44.4546 19.3249Z" fill="#991D85"/>
<path d="M8.20034 8.72247C4.69681 8.72247 1.85337 11.4721 1.85337 14.9153C1.85337 18.3339 4.67142 21.1083 8.20034 21.1083C10.0537 21.1083 11.8054 20.3403 12.9987 18.978H6.34702C6.27086 18.978 6.19469 18.9532 6.14391 18.9284C3.8844 17.8137 2.97043 15.1136 4.11289 12.9089C4.54448 12.0419 5.28073 11.3483 6.14391 10.9271C6.19469 10.8528 6.27086 10.8528 6.34702 10.8528H10.0537C10.1298 10.8528 10.206 10.8776 10.2567 10.9024C10.9168 11.2243 11.4753 11.695 11.907 12.2648C11.9831 12.3639 11.9831 12.5373 11.8562 12.6116C11.8054 12.6364 11.7546 12.6611 11.6785 12.6611H6.72783C5.45844 13.4538 5.10302 15.1136 5.94081 16.3521C6.14391 16.6493 6.42318 16.9219 6.72783 17.12H15.7406C15.8929 17.12 15.9944 17.2191 16.0198 17.343C16.0198 17.3678 16.0198 17.4173 15.9944 17.4421C14.5473 21.6533 9.90129 23.9075 5.58538 22.4955C1.29483 21.0836 -1.01547 16.5503 0.431646 12.3639C1.87875 8.17747 6.55012 5.92324 10.8407 7.33523C14.1919 8.42518 16.426 11.4969 16.426 14.9153C16.426 15.1384 16.426 15.3613 16.4007 15.609C16.4007 15.7329 16.2737 15.8319 16.1468 15.8319H7.33714C7.2356 15.8319 7.13404 15.7824 7.10866 15.6833C6.88017 15.1879 6.88017 14.6429 7.10866 14.1722C7.15943 14.0732 7.2356 14.0236 7.33714 14.0236H14.4711C14.0141 10.9519 11.3484 8.72247 8.20034 8.72247Z" fill="#991D85"/>
<path d="M30.9229 21.9258H31.6337V23.2882C31.9891 22.8423 32.3445 22.3965 32.6746 21.9258H33.4616C33.2077 22.2726 32.7762 22.8423 32.3953 23.313C32.7508 23.858 33.1315 24.4029 33.5377 24.8984H32.6492C32.2938 24.4029 31.9383 23.9075 31.6337 23.3873V24.8984H30.9229V21.9258Z" fill="#991D85"/>
<path d="M33.9434 21.9254H34.0196C34.375 21.9006 34.5781 21.9006 34.8066 21.9006C35.1366 21.8759 35.4413 21.9254 35.7459 22.074C36.0252 22.2474 36.2029 22.5447 36.1775 22.8668C36.2029 23.2135 35.9744 23.5603 35.619 23.6842C35.7967 23.9567 36.3044 24.6008 36.5583 24.8732L36.5837 24.9227H35.7206C35.5428 24.6998 35.1366 24.1301 34.9589 23.8576L34.9335 23.808H34.6288V24.9227H33.9434V21.9254ZM34.6288 23.2383C34.705 23.2383 34.7812 23.2383 34.832 23.2383C35.2635 23.2383 35.4667 23.1144 35.4667 22.842C35.4667 22.5695 35.2889 22.4209 34.8573 22.4209C34.8066 22.4209 34.7558 22.4209 34.705 22.4209H34.6288V23.2383Z" fill="#991D85"/>
<path d="M36.6855 24.874C36.9648 24.1061 37.4218 23.0161 37.9295 21.9014H38.6151C39.0466 22.8922 39.3513 23.6849 39.7575 24.874H38.9959L38.742 24.0813H37.6757L37.3964 24.874H36.6855ZM38.5896 23.5611L38.4119 23.0409C38.3612 22.8674 38.3103 22.6941 38.285 22.5207C38.2596 22.6445 38.2596 22.6693 38.2342 22.7188L38.1073 23.0904L37.9295 23.5611H38.5896Z" fill="#991D85"/>
<path d="M40.3154 21.9258H42.2703V22.5203H41.001V23.1396H42.2196V23.7341H41.001V24.9231H40.29L40.3154 21.9258Z" fill="#991D85"/>
<path d="M43.5907 22.521H42.626V21.9512H45.2663V22.5457H44.3016V24.9238H43.5907V22.521Z" fill="#991D85"/>
<path d="M47.2217 21.9258H49.1766V22.5203H47.9071V23.1396H49.1512V23.7341H47.9325V24.9231H47.2217V21.9258Z" fill="#991D85"/>
<path d="M50.4716 21.9257V23.5854C50.4462 23.7835 50.4716 23.9569 50.5731 24.1304C50.7001 24.279 50.8779 24.3533 51.0555 24.3533C51.2332 24.3533 51.4364 24.279 51.5379 24.1551C51.6141 23.9817 51.6648 23.7835 51.6394 23.6102V21.9505H52.3503V23.6845C52.3757 23.9817 52.2995 24.279 52.1472 24.5514C51.9441 24.824 51.5633 24.9726 51.0555 24.9726C50.6747 24.9973 50.2939 24.8735 50.0146 24.601C49.8369 24.4028 49.7607 24.1304 49.7607 23.6845V21.9505H50.4716V21.9257ZM50.1669 20.9844H50.827V21.6284H50.1669V20.9844ZM51.3348 20.9844H51.9949V21.6284H51.3348V20.9844Z" fill="#991D85"/>
<path d="M53.0605 21.9254H53.1367C53.4921 21.9006 53.6952 21.9006 53.9237 21.9006C54.2538 21.8759 54.5584 21.9254 54.863 22.074C55.1423 22.2474 55.3201 22.5447 55.2946 22.8668C55.3201 23.2383 55.0915 23.5603 54.7361 23.6842C54.9139 23.9567 55.4216 24.6008 55.6754 24.8732L55.7008 24.9227H54.8377C54.66 24.6998 54.2538 24.1301 54.076 23.8576L54.0506 23.808H53.746V24.9227H53.0605V21.9254ZM53.746 23.2383C53.8221 23.2383 53.8983 23.2383 53.9491 23.2383C54.3807 23.2383 54.5838 23.1144 54.5838 22.842C54.5838 22.5695 54.4061 22.4209 53.9744 22.4209C53.9237 22.4209 53.8729 22.4209 53.8221 22.4209H53.746V23.2383Z" fill="#991D85"/>
<path d="M57.6055 21.9258H58.1894C58.3163 21.9258 58.4179 21.9753 58.4686 22.0744L59.408 23.4864C59.5603 23.7341 59.7127 23.9819 59.8142 24.2296C59.738 23.9571 59.7126 23.6846 59.7126 23.4121V21.9258H60.3473V24.8984H59.7634C59.6365 24.8984 59.5349 24.8488 59.4842 24.7498L58.5448 23.3377C58.3925 23.0901 58.2656 22.8423 58.1386 22.5699C58.1894 22.8423 58.2401 23.1148 58.2401 23.3873V24.8736H57.6055V21.9258Z" fill="#991D85"/>
<path d="M61.1846 21.9258H63.1395V22.4956H61.8955V23.0653H63.1141V23.635H61.8955V24.2791H63.1648V24.8736H61.1846V21.9258Z" fill="#991D85"/>
<path d="M64.6123 21.9258V23.5855C64.5868 23.7836 64.6122 23.9571 64.7138 24.1305C64.8407 24.2791 65.0185 24.3534 65.1962 24.3534C65.3739 24.3534 65.577 24.2791 65.6786 24.1553C65.7547 23.9819 65.8055 23.7836 65.7801 23.6103V21.9506H66.491V23.6846C66.5163 23.9819 66.4401 24.2791 66.2878 24.5516C66.0848 24.8241 65.7039 24.9727 65.1962 24.9727C64.8153 24.9974 64.4345 24.8736 64.1553 24.6012C63.9776 24.4029 63.9014 24.1305 63.9014 23.6846V21.9506H64.6123V21.9258Z" fill="#991D85"/>
<path d="M67.3037 21.9258H69.2586V22.4956H68.0145V23.0653H69.2332V23.635H68.0145V24.2791H69.284V24.8736H67.3291V21.9258H67.3037Z" fill="#991D85"/>
<path d="M69.918 24.081C70.1719 24.2792 70.4511 24.3782 70.7811 24.3782C71.1112 24.3782 71.2635 24.2792 71.2635 24.081C71.2635 23.9324 71.1619 23.858 70.8827 23.7094L70.6288 23.5856C70.121 23.3378 69.9433 23.1149 69.9433 22.7433C69.9433 22.1983 70.3749 21.8516 71.0858 21.8516C71.3651 21.8516 71.6697 21.9011 71.9236 22.0497V22.6938C71.6951 22.5204 71.4158 22.4213 71.1366 22.4213C70.8319 22.4213 70.6542 22.5204 70.6542 22.6938C70.6542 22.8176 70.7304 22.892 70.9335 22.9911L71.1873 23.1149C71.4158 23.1892 71.5936 23.313 71.7713 23.4618C71.9236 23.6104 71.9998 23.8333 71.9998 24.0563C71.9998 24.626 71.5428 24.948 70.8319 24.948C70.5273 24.948 70.2226 24.8737 69.9433 24.7498L69.918 24.081Z" fill="#991D85"/>
</g>
</g>
<defs>
<clipPath id="clip0_2133_9145">
<rect width="72" height="31" fill="white"/>
</clipPath>
</defs>
</svg>
