<svg width="24" height="24" viewBox="0 0 24 24" fill="none" xmlns="http://www.w3.org/2000/svg">
<path fill-rule="evenodd" clip-rule="evenodd" d="M19.6931 3.32175C19.3755 3.51205 18.7585 3.80423 18.3218 3.97113C17.8852 4.13804 17.0937 4.36773 16.5629 4.48157C16.032 4.5954 14.852 4.73212 13.9405 4.78539C13.0292 4.83867 11.6214 4.88302 10.8122 4.88414C10.003 4.88515 8.92703 4.93468 8.42115 4.99402C7.91538 5.05337 7.17009 5.1908 6.76506 5.29947C6.36003 5.40804 5.7077 5.65698 5.31547 5.85254C4.92324 6.0481 4.33634 6.40794 4.01128 6.65201C3.68622 6.89609 3.36588 7.16488 3.29929 7.24934C3.19854 7.37715 3.47019 8.07626 4.92642 11.4361C5.88794 13.6544 6.70367 15.5026 6.73937 15.5432C6.77497 15.5839 7.04682 15.4359 7.34349 15.2144C7.64016 14.9929 8.1801 14.6573 8.54346 14.4684C8.90692 14.2796 9.51345 14.0284 9.89143 13.9101C10.2694 13.7918 11.0251 13.6248 11.5707 13.5389C12.1623 13.4458 13.8271 13.3463 15.6949 13.2924C17.8065 13.2314 19.1249 13.1477 19.7412 13.0352C20.244 12.9436 20.9802 12.7555 21.3771 12.6174C21.774 12.4792 22.4236 12.1838 22.8205 11.9609C23.2175 11.7381 23.6452 11.4672 23.7711 11.359L24 11.1622L22.2268 7.09419C21.2515 4.85669 20.4124 3.01478 20.362 3.00091C20.3117 2.98714 20.0106 3.13145 19.6931 3.32175ZM18.8543 5.93802C19.1039 6.07099 19.4858 6.23577 19.703 6.30413C20.0924 6.42667 20.1061 6.44734 20.7204 7.85133L21.3431 9.27425L20.9752 10.0227C20.7729 10.4343 20.6073 10.8384 20.6073 10.9206C20.6073 11.0029 20.5532 11.0919 20.487 11.1183C20.4209 11.1446 20.0636 11.2376 19.6931 11.3247C19.1998 11.4408 18.079 11.5071 15.5071 11.5724C13.1689 11.6318 11.7053 11.7133 11.1287 11.8163C10.6524 11.9015 9.97563 12.0555 9.62478 12.1588C9.00007 12.3426 8.97736 12.3425 8.51815 12.1512C8.26036 12.0437 7.77392 11.9018 7.43712 11.8356L6.82491 11.7154L6.30297 10.5061L5.78102 9.29664L6.03122 8.81284C6.16883 8.54669 6.37735 8.04719 6.49446 7.70275C6.67316 7.17733 6.75342 7.06269 6.99351 6.99018C7.15084 6.94258 7.60437 6.8332 8.00131 6.74711C8.5069 6.63743 9.70292 6.56502 11.9948 6.50526C14.1774 6.44825 15.5549 6.36733 16.1326 6.262C16.609 6.1751 17.2802 6.01742 17.6242 5.91169C17.9682 5.80585 18.2835 5.7141 18.325 5.70772C18.3665 5.70144 18.6047 5.80504 18.8543 5.93802ZM12.101 7.34363C11.8948 7.4681 11.6459 7.72868 11.5477 7.92273C11.4496 8.11687 11.3693 8.45564 11.3693 8.67571C11.3693 8.89568 11.4596 9.27192 11.5699 9.51164C11.6801 9.75137 11.964 10.127 12.2006 10.3463C12.4374 10.5655 12.8311 10.8167 13.0758 10.9044C13.3204 10.9921 13.741 11.0639 14.0102 11.0639C14.3018 11.0639 14.6353 10.988 14.8351 10.8763C15.0195 10.7732 15.2677 10.5386 15.3869 10.3551C15.5386 10.1209 15.6034 9.8731 15.6034 9.52572C15.6034 9.23344 15.526 8.87067 15.4147 8.64097C15.3108 8.42678 15.0844 8.10269 14.9115 7.9206C14.7385 7.73861 14.3795 7.48319 14.1139 7.35295C13.7755 7.18706 13.4577 7.11636 13.0533 7.11677C12.6327 7.11728 12.3741 7.17885 12.101 7.34363ZM13.1014 7.71541C13.1014 7.76757 13.2418 7.82449 13.4134 7.84201C13.6189 7.86287 13.7362 7.93417 13.7572 8.05094C13.779 8.17166 13.728 8.22817 13.5975 8.22817C13.4921 8.22817 13.3374 8.25582 13.2537 8.28965C13.1699 8.32347 13.1014 8.4125 13.1014 8.48744C13.1014 8.56238 13.2639 8.67126 13.4623 8.72919C13.6608 8.78722 13.871 8.83492 13.9294 8.83522C13.9878 8.83553 14.1502 8.94764 14.2902 9.08416C14.4343 9.22473 14.5449 9.44207 14.5449 9.58487C14.5449 9.72666 14.456 9.90257 14.342 9.98663C14.2289 10.07 14.1692 10.1875 14.2071 10.2521C14.256 10.3353 14.1709 10.3493 13.9047 10.3019C13.7011 10.2656 13.4633 10.2157 13.3765 10.1909C13.2896 10.166 13.1961 10.0561 13.169 9.94653C13.1261 9.77395 13.1689 9.74731 13.4897 9.74731C13.6933 9.74731 13.8907 9.69485 13.9284 9.63064C13.966 9.56654 13.9171 9.4526 13.8195 9.37745C13.7218 9.30241 13.517 9.24093 13.3643 9.24093C13.1857 9.24093 12.9862 9.1353 12.8053 8.94491C12.6506 8.78205 12.5241 8.56127 12.5241 8.45422C12.5241 8.34717 12.6089 8.17875 12.7127 8.07991C12.8164 7.98106 12.8979 7.87148 12.8938 7.83634C12.8896 7.80119 12.8913 7.7382 12.8976 7.69647C12.9039 7.65475 12.9523 7.62052 13.0052 7.62052C13.0581 7.62052 13.1014 7.66315 13.1014 7.71541ZM1.6353 10.3297L1 11.0133L2.76483 15.1149C3.73559 17.3709 4.70317 19.6179 4.91516 20.1084L5.30056 21L6.19375 20.1703C6.68509 19.714 7.40816 19.1126 7.80048 18.8339C8.1929 18.5552 8.91712 18.1263 9.40981 17.8806C9.9024 17.635 10.7103 17.3259 11.2051 17.1938C11.7 17.0618 12.5347 16.9066 13.0602 16.8492C13.5857 16.7917 15.1162 16.7195 16.4613 16.6887C17.8871 16.6561 19.3276 16.567 19.9157 16.4752C20.4704 16.3884 21.2752 16.2014 21.7041 16.0596C22.1329 15.9177 22.8194 15.6408 23.2295 15.4442C23.6397 15.2476 23.9753 15.0237 23.9753 14.9467C23.9753 14.8697 23.8481 14.5114 23.6926 14.1506C23.5371 13.7898 23.3868 13.4945 23.3585 13.4945C23.3302 13.4945 23.0638 13.6078 22.7663 13.7462C22.4689 13.8846 21.8797 14.1129 21.457 14.2535C21.0341 14.3941 20.3128 14.581 19.8539 14.669C19.2886 14.7775 18.0107 14.8557 15.8921 14.9116C13.7793 14.9674 12.4992 15.0457 11.9467 15.1528C11.4968 15.24 10.739 15.4504 10.2627 15.6203C9.78635 15.7902 9.03471 16.1178 8.59244 16.3483C8.15018 16.5788 7.38035 17.0545 6.88169 17.4054L5.97512 18.0432L5.6133 17.2121C5.4143 16.7549 4.60357 14.8667 3.81171 13.016C3.01984 11.1653 2.34913 9.64989 2.32122 9.64857C2.29331 9.64715 1.98471 9.95361 1.6353 10.3297Z" fill="#383838"/>
</svg>
