<svg width="70" height="31" viewBox="0 0 70 31" fill="none" xmlns="http://www.w3.org/2000/svg">
<path d="M15.0877 8.88929C14.3118 8.88929 13.1918 9.13736 11.1665 9.81466V22.6607C12.9472 23.2446 14.3118 23.5861 15.0877 23.5861C16.8763 23.5861 17.8847 22.4019 17.8847 20.5022V11.9732C17.8847 10.0735 16.8763 8.88929 15.0877 8.88929ZM15.6705 20.1722C15.6705 20.9156 15.2579 21.163 14.7644 21.163C14.3804 21.163 13.7875 21.012 13.3041 20.8689V11.6014C13.7875 11.4635 14.3804 11.3124 14.7644 11.3124C15.2579 11.3124 15.6705 11.5597 15.6705 12.3032V20.1722ZM40.6599 6.57664C38.395 6.45802 37.0463 7.54012 37.0463 10.0179V22.3275C37.0463 24.9433 38.2678 26.0197 40.66 25.9068C43.0014 25.7968 44.2229 24.8333 44.2229 22.0522V10.3019C44.2229 7.65014 43.1179 6.70606 40.6599 6.57664ZM41.7541 22.1075C41.7541 22.851 41.5253 23.2364 40.6599 23.2637C39.7696 23.2918 39.5279 22.8783 39.5279 22.1075V10.376C39.5279 9.60516 39.7696 9.17806 40.6599 9.2061C41.5253 9.23341 41.7541 9.63249 41.7541 10.376V22.1075ZM62.6772 11.381V21.0777C65.4563 19.649 67.0518 17.9888 67.0518 16.21C67.0518 14.4505 65.4563 12.7989 62.6772 11.381ZM2.94922 16.2102C2.94922 17.9861 4.54261 19.6493 7.32097 21.0751V11.3841C4.54261 12.7991 2.94922 14.4507 2.94922 16.2102ZM24.119 21.6781C24.119 22.4215 23.8823 22.8925 23.0248 22.7796C22.1824 22.6695 21.9557 22.2835 21.9557 21.4027V7.42203C21.3964 7.48807 20.1492 7.67509 19.615 7.75778V21.8981C19.615 24.1558 20.6276 25.0344 23.0248 25.3314C25.2182 25.6039 26.562 24.4039 26.562 21.8981V6.95894C26.1043 6.98686 24.6025 7.12423 24.119 7.17967V21.6781ZM51.0044 17.0581L48.294 7.4908C47.556 7.38583 46.6656 7.27869 45.9783 7.20965V25.2679C46.4618 25.219 47.694 25.0673 48.3298 24.9788L48.1366 14.338L51.0043 24.5632C51.6151 24.4589 52.5054 24.2907 53.0912 24.1699V8.30258C52.4804 8.17316 51.3705 7.96967 50.8363 7.88194L51.0044 17.0581ZM31.8704 6.68126C31.4456 6.68126 29.8958 6.73873 28.4706 6.83004V25.6483C28.954 25.6756 30.2262 25.7475 30.9135 25.7669V19.3762L31.8704 19.3742C34.4306 19.366 35.4941 18.1246 35.4941 15.7345V10.1894C35.4941 7.84972 34.2983 6.68126 31.8704 6.68126ZM33.0254 15.5361C33.0254 16.3457 32.7636 16.7562 31.771 16.7591L30.9135 16.7612V9.33581C31.2954 9.31421 31.4985 9.3085 31.7281 9.3085C32.8015 9.3085 33.0254 9.74926 33.0254 10.5747V15.5361ZM54.2999 11.0781C54.9049 11.1953 55.5006 11.3255 56.0813 11.4636V23.4705C56.6155 23.3353 57.6082 23.0549 58.2697 22.8428V12.0301C58.9048 12.2085 59.5034 12.3868 60.0512 12.5565V10.2412C58.3234 9.58832 56.4682 9.05697 54.2999 8.56732V11.0781Z" fill="#E4001C"/>
</svg>
