<svg width="90" height="90" viewBox="0 0 90 90" fill="none" xmlns="http://www.w3.org/2000/svg">
<g clip-path="url(#clip0_2240_9254)">
<g filter="url(#filter0_d_2240_9254)">
<rect x="15" y="13" width="73" height="48" rx="3" transform="rotate(5 15 13)" fill="#1894FF"/>
<rect x="15" y="13" width="73" height="48" rx="3" transform="rotate(5 15 13)" fill="url(#paint0_linear_2240_9254)"/>
<rect x="15" y="13" width="73" height="48" rx="3" transform="rotate(5 15 13)" fill="url(#paint1_linear_2240_9254)"/>
<rect x="15" y="13" width="73" height="48" rx="3" transform="rotate(5 15 13)" fill="url(#paint2_linear_2240_9254)" style="mix-blend-mode:overlay"/>
</g>
<g filter="url(#filter1_bd_2240_9254)">
<rect x="5" y="30" width="73" height="48" rx="8" fill="#DFE8F3" fill-opacity="0.5" shape-rendering="crispEdges"/>
<rect x="5" y="30" width="73" height="48" rx="8" stroke="white" stroke-width="2" shape-rendering="crispEdges"/>
</g>
<g filter="url(#filter2_di_2240_9254)">
<path d="M7 40C5.89543 40 5 40.8954 5 42L5 49C5 50.1046 5.89543 51 7 51L76 51C77.1046 51 78 50.1046 78 49L78 42C78 40.8954 77.1046 40 76 40L7 40Z" fill="white"/>
<path d="M7 40C5.89543 40 5 40.8954 5 42L5 49C5 50.1046 5.89543 51 7 51L76 51C77.1046 51 78 50.1046 78 49L78 42C78 40.8954 77.1046 40 76 40L7 40Z" stroke="white"/>
</g>
<g filter="url(#filter3_di_2240_9254)">
<path d="M53 58C51.8954 58 51 58.8954 51 60L51 68C51 69.1046 51.8954 70 53 70L69 70C70.1046 70 71 69.1046 71 68L71 60C71 58.8954 70.1046 58 69 58L53 58Z" fill="white"/>
<path d="M53 58C51.8954 58 51 58.8954 51 60L51 68C51 69.1046 51.8954 70 53 70L69 70C70.1046 70 71 69.1046 71 68L71 60C71 58.8954 70.1046 58 69 58L53 58Z" stroke="white"/>
</g>
</g>
<defs>
<filter id="filter0_d_2240_9254" x="5.06641" y="9.24988" width="88.4058" height="65.6799" filterUnits="userSpaceOnUse" color-interpolation-filters="sRGB">
<feFlood flood-opacity="0" result="BackgroundImageFix"/>
<feColorMatrix in="SourceAlpha" type="matrix" values="0 0 0 0 0 0 0 0 0 0 0 0 0 0 0 0 0 0 127 0" result="hardAlpha"/>
<feOffset dy="2"/>
<feGaussianBlur stdDeviation="3"/>
<feComposite in2="hardAlpha" operator="out"/>
<feColorMatrix type="matrix" values="0 0 0 0 0 0 0 0 0 0 0 0 0 0 0 0 0 0 0.16 0"/>
<feBlend mode="normal" in2="BackgroundImageFix" result="effect1_dropShadow_2240_9254"/>
<feBlend mode="normal" in="SourceGraphic" in2="effect1_dropShadow_2240_9254" result="shape"/>
</filter>
<filter id="filter1_bd_2240_9254" x="-5" y="21" width="93" height="69" filterUnits="userSpaceOnUse" color-interpolation-filters="sRGB">
<feFlood flood-opacity="0" result="BackgroundImageFix"/>
<feGaussianBlur in="BackgroundImageFix" stdDeviation="4"/>
<feComposite in2="SourceAlpha" operator="in" result="effect1_backgroundBlur_2240_9254"/>
<feColorMatrix in="SourceAlpha" type="matrix" values="0 0 0 0 0 0 0 0 0 0 0 0 0 0 0 0 0 0 127 0" result="hardAlpha"/>
<feOffset dy="2"/>
<feGaussianBlur stdDeviation="4.5"/>
<feComposite in2="hardAlpha" operator="out"/>
<feColorMatrix type="matrix" values="0 0 0 0 0 0 0 0 0 0 0 0 0 0 0 0 0 0 0.3 0"/>
<feBlend mode="normal" in2="effect1_backgroundBlur_2240_9254" result="effect2_dropShadow_2240_9254"/>
<feBlend mode="normal" in="SourceGraphic" in2="effect2_dropShadow_2240_9254" result="shape"/>
</filter>
<filter id="filter2_di_2240_9254" x="2.5" y="38.5" width="78" height="16" filterUnits="userSpaceOnUse" color-interpolation-filters="sRGB">
<feFlood flood-opacity="0" result="BackgroundImageFix"/>
<feColorMatrix in="SourceAlpha" type="matrix" values="0 0 0 0 0 0 0 0 0 0 0 0 0 0 0 0 0 0 127 0" result="hardAlpha"/>
<feOffset dy="1"/>
<feGaussianBlur stdDeviation="1"/>
<feComposite in2="hardAlpha" operator="out"/>
<feColorMatrix type="matrix" values="0 0 0 0 0 0 0 0 0 0 0 0 0 0 0 0 0 0 0.08 0"/>
<feBlend mode="normal" in2="BackgroundImageFix" result="effect1_dropShadow_2240_9254"/>
<feBlend mode="normal" in="SourceGraphic" in2="effect1_dropShadow_2240_9254" result="shape"/>
<feColorMatrix in="SourceAlpha" type="matrix" values="0 0 0 0 0 0 0 0 0 0 0 0 0 0 0 0 0 0 127 0" result="hardAlpha"/>
<feOffset/>
<feGaussianBlur stdDeviation="2"/>
<feComposite in2="hardAlpha" operator="arithmetic" k2="-1" k3="1"/>
<feColorMatrix type="matrix" values="0 0 0 0 1 0 0 0 0 1 0 0 0 0 1 0 0 0 0.25 0"/>
<feBlend mode="normal" in2="shape" result="effect2_innerShadow_2240_9254"/>
</filter>
<filter id="filter3_di_2240_9254" x="48.5" y="56.5" width="25" height="17" filterUnits="userSpaceOnUse" color-interpolation-filters="sRGB">
<feFlood flood-opacity="0" result="BackgroundImageFix"/>
<feColorMatrix in="SourceAlpha" type="matrix" values="0 0 0 0 0 0 0 0 0 0 0 0 0 0 0 0 0 0 127 0" result="hardAlpha"/>
<feOffset dy="1"/>
<feGaussianBlur stdDeviation="1"/>
<feComposite in2="hardAlpha" operator="out"/>
<feColorMatrix type="matrix" values="0 0 0 0 0 0 0 0 0 0 0 0 0 0 0 0 0 0 0.08 0"/>
<feBlend mode="normal" in2="BackgroundImageFix" result="effect1_dropShadow_2240_9254"/>
<feBlend mode="normal" in="SourceGraphic" in2="effect1_dropShadow_2240_9254" result="shape"/>
<feColorMatrix in="SourceAlpha" type="matrix" values="0 0 0 0 0 0 0 0 0 0 0 0 0 0 0 0 0 0 127 0" result="hardAlpha"/>
<feOffset/>
<feGaussianBlur stdDeviation="2"/>
<feComposite in2="hardAlpha" operator="arithmetic" k2="-1" k3="1"/>
<feColorMatrix type="matrix" values="0 0 0 0 1 0 0 0 0 1 0 0 0 0 1 0 0 0 0.25 0"/>
<feBlend mode="normal" in2="shape" result="effect2_innerShadow_2240_9254"/>
</filter>
<linearGradient id="paint0_linear_2240_9254" x1="92.4905" y1="29.9711" x2="67.4434" y2="29.9711" gradientUnits="userSpaceOnUse">
<stop stop-color="#016ECF"/>
<stop offset="1" stop-color="#0187F9"/>
</linearGradient>
<linearGradient id="paint1_linear_2240_9254" x1="41.1663" y1="29.9711" x2="17.079" y2="29.9711" gradientUnits="userSpaceOnUse">
<stop stop-color="#0187F9" stop-opacity="0"/>
<stop offset="1" stop-color="#39A5FF"/>
</linearGradient>
<linearGradient id="paint2_linear_2240_9254" x1="51.5" y1="13" x2="51.5" y2="61" gradientUnits="userSpaceOnUse">
<stop stop-color="#0787F5"/>
<stop offset="1" stop-color="#66ADE7"/>
</linearGradient>
<clipPath id="clip0_2240_9254">
<rect width="90" height="90" fill="white"/>
</clipPath>
</defs>
</svg>
