<svg width="25" height="25" viewBox="0 0 25 25" fill="none" xmlns="http://www.w3.org/2000/svg">
<path d="M12.4932 2.5C18.016 2.5 22.4932 6.97715 22.4932 12.5C22.4932 18.0228 18.016 22.5 12.4932 22.5C6.97032 22.5 2.49316 18.0228 2.49316 12.5C2.49316 6.97715 6.97032 2.5 12.4932 2.5ZM16.9347 8.5C16.5537 8.50676 15.9692 8.70741 13.1563 9.8625C12.1711 10.2671 10.2021 11.1044 7.24936 12.3745C6.76987 12.5627 6.51869 12.7469 6.49583 12.927C6.45193 13.2727 6.95608 13.3803 7.5904 13.5839C8.10757 13.7498 8.80324 13.944 9.1649 13.9517C9.49295 13.9587 9.8591 13.8252 10.2633 13.5512C13.0222 11.7125 14.4464 10.7832 14.5358 10.7632C14.5989 10.7491 14.6863 10.7313 14.7455 10.7833C14.8047 10.8352 14.7989 10.9336 14.7926 10.9601C14.7425 11.1712 12.1508 13.4985 12.0017 13.6514L11.9301 13.7233C11.3806 14.2661 10.8251 14.6205 11.7835 15.244C12.6488 15.807 13.1525 16.1661 14.0439 16.7431C14.6136 17.1118 15.0603 17.549 15.6485 17.4955C15.9192 17.471 16.1987 17.2197 16.3407 16.4703C16.6763 14.6993 17.3358 10.8621 17.4883 9.28087C17.5016 9.14234 17.4848 8.96504 17.4713 8.88721C17.4578 8.80938 17.4297 8.69849 17.3272 8.6164C17.2058 8.51918 17.0185 8.49868 16.9347 8.5Z" fill="#1C93CE"/>
</svg>
