<svg width="25" height="25" viewBox="0 0 25 25" fill="none" xmlns="http://www.w3.org/2000/svg">
<path d="M12.0094 2.51158C6.69941 2.76158 2.51041 7.15158 2.52641 12.4286C2.52904 13.9819 2.90094 15.5123 3.61141 16.8936L2.55341 21.9946C2.5405 22.0584 2.54388 22.1244 2.56324 22.1865C2.5826 22.2486 2.61731 22.3048 2.66416 22.35C2.71101 22.3952 2.76849 22.4278 2.83128 22.4448C2.89407 22.4619 2.96016 22.4628 3.02341 22.4476L8.05741 21.2636C9.39069 21.9224 10.8544 22.275 12.3414 22.2956C17.7684 22.3786 22.2924 18.1006 22.4614 12.7156C22.6434 6.94058 17.8444 2.23458 12.0094 2.51058V2.51158ZM18.0164 17.8786C17.2909 18.6015 16.4299 19.1741 15.4826 19.5637C14.5354 19.9532 13.5206 20.152 12.4964 20.1486C11.2914 20.1523 10.1021 19.8756 9.02241 19.3406L8.32141 18.9936L5.23441 19.7196L5.88441 16.5886L5.53841 15.9166C4.97751 14.8293 4.68665 13.623 4.69041 12.3996C4.69041 10.3296 5.50241 8.38258 6.97641 6.91958C8.44561 5.46528 10.4292 4.64922 12.4964 4.64858C14.5824 4.64858 16.5424 5.45458 18.0164 6.91858C18.7426 7.63421 19.3189 8.48742 19.7116 9.42834C20.1043 10.3693 20.3055 11.379 20.3034 12.3986C20.3034 14.4506 19.4784 16.4286 18.0164 17.8796V17.8786Z" fill="#25D366"/>
<path d="M17.3355 14.545L15.4045 13.995C15.2799 13.9592 15.148 13.9576 15.0226 13.9903C14.8971 14.0231 14.7828 14.0889 14.6915 14.181L14.2195 14.659C14.1219 14.7579 13.9972 14.8259 13.8612 14.8543C13.7251 14.8828 13.5837 14.8705 13.4545 14.819C12.5415 14.452 10.6195 12.756 10.1285 11.907C10.0597 11.7871 10.0283 11.6493 10.0383 11.5114C10.0482 11.3735 10.0992 11.2418 10.1845 11.133L10.5965 10.603C10.6759 10.5015 10.726 10.3802 10.7417 10.2523C10.7574 10.1244 10.738 9.9947 10.6855 9.877L9.87355 8.053C9.82762 7.95105 9.75868 7.86114 9.67213 7.79034C9.58558 7.71954 9.48379 7.66979 9.37477 7.64498C9.26574 7.62017 9.15244 7.62098 9.04378 7.64736C8.93512 7.67374 8.83406 7.72496 8.74855 7.797C8.20955 8.25 7.56955 8.937 7.49255 9.7C7.35555 11.043 7.93555 12.736 10.1295 14.77C12.6645 17.119 14.6955 17.43 16.0165 17.111C16.7665 16.931 17.3665 16.208 17.7435 15.617C17.8038 15.5231 17.8413 15.4164 17.8528 15.3054C17.8643 15.1945 17.8497 15.0823 17.81 14.9781C17.7703 14.8738 17.7067 14.7803 17.6243 14.7051C17.5419 14.6299 17.443 14.575 17.3355 14.545Z" fill="#25D366"/>
</svg>
