<svg width="31" height="31" viewBox="0 0 31 31" fill="none" xmlns="http://www.w3.org/2000/svg">
<path d="M3.26562 27.1672H26.8318V3.35645H3.26562V27.1672Z" fill="#E4001C"/>
<path d="M9.36594 9.58237C10.0916 9.58237 10.6869 10.1703 10.6869 10.8959C10.6869 11.1216 10.6302 11.3342 10.5298 11.5195C11.2294 11.5485 11.7878 12.125 11.7878 12.832C11.7878 13.5571 11.1999 14.1455 10.4743 14.1455C10.2407 14.1455 10.0213 14.0843 9.83138 13.9777C9.82628 14.0469 9.82345 14.1166 9.82345 14.1869C9.82345 15.5628 10.9391 16.678 12.3151 16.678C13.691 16.678 14.8061 15.5628 14.8061 14.1869C14.8061 14.0934 14.8039 14.0004 14.7942 13.9097C14.5811 14.0582 14.3169 14.1455 14.0374 14.1455C13.3117 14.1455 12.7233 13.5571 12.7233 12.832C12.7233 12.125 13.2822 11.5485 13.9818 11.5195C13.8815 11.3342 13.8242 11.1216 13.8242 10.8959C13.8242 10.1703 14.4127 9.58237 15.1383 9.58237C15.8634 9.58237 16.4513 10.1703 16.4513 10.8959C16.4513 11.1216 16.3947 11.3342 16.2943 11.5195C16.9945 11.5485 17.5529 12.125 17.5529 12.832C17.5529 13.5571 16.9644 14.1455 16.2387 14.1455C15.9587 14.1455 15.699 14.0577 15.4853 13.908C15.4751 13.9993 15.47 14.0922 15.47 14.1869C15.47 15.5628 16.5857 16.678 17.9611 16.678C19.3375 16.678 20.4521 15.5628 20.4521 14.1869C20.4521 14.1189 20.4521 14.0509 20.447 13.984C20.2594 14.0871 20.04 14.1461 19.8104 14.1461C19.0847 14.1461 18.4968 13.5582 18.4968 12.8325C18.4968 12.1262 19.0552 11.549 19.7548 11.5201C19.655 11.3347 19.5978 11.1221 19.5978 10.8971C19.5978 10.1714 20.1862 9.58294 20.9113 9.58294L20.9102 19.5052H9.36594V9.58237Z" fill="white"/>
</svg>
