<svg width="242" height="62" viewBox="0 0 242 62" fill="none" xmlns="http://www.w3.org/2000/svg">
<path d="M18.0409 23.7998C17.8174 29.8133 20.7231 36.4949 26.4229 39.1675C29.5522 40.2811 32.905 39.5016 36.2578 39.613C38.2695 39.613 40.393 39.7243 42.4046 39.947C44.1928 40.0584 45.981 40.6152 47.6574 40.0584C48.3279 39.7243 48.6632 39.0562 48.9985 38.4994C49.8926 36.829 50.3396 34.9358 50.7867 33.1541C51.122 31.8177 51.3455 30.5928 51.569 29.2565C51.7925 26.5838 56.0394 26.8065 56.0394 29.4792C55.7041 32.4859 55.2571 35.4926 54.363 38.388C52.2396 46.1832 47.7691 46.6287 40.6165 46.0719C37.5989 45.9605 34.4697 46.1832 31.4521 46.6287C19.2702 48.7445 10.1059 36.6062 9.10005 25.5816C7.53541 18.7886 17.5938 16.8955 18.0409 23.7998Z" fill="url(#paint0_linear_2106_9462)"/>
<path d="M17.5974 23.2431C20.1679 23.0203 22.7384 23.3544 25.1971 24.2453C27.9911 25.2475 30.5616 26.8066 33.2439 28.0315C37.1555 29.9247 41.4024 31.261 45.761 31.1496C47.9963 31.1496 50.1197 30.8156 52.2431 30.3701C55.2607 29.5906 58.2782 28.3656 60.9605 26.8066C65.0956 24.2453 61.184 18.4546 57.0488 21.2386C50.3432 24.5794 43.7494 25.0248 37.1555 21.3499C34.3615 19.9023 31.5675 18.1205 28.6617 16.8955C24.4148 15.0024 19.6091 14.3342 14.9152 14.891C12.7917 15.1138 10.5565 15.6706 8.54484 16.3387C6.08611 17.2296 3.51562 18.4546 3.51562 21.4613C3.73915 25.5816 7.87428 27.0293 11.1153 24.9135C13.127 23.6885 15.3622 23.4658 17.5974 23.2431Z" fill="url(#paint1_linear_2106_9462)"/>
<path d="M76.8939 37.2994L72.1018 23.9249H76.4607L79.3847 33.3466H79.4388L82.3628 23.9249H86.6134L81.8213 37.2994H76.8939Z" fill="#383838"/>
<path d="M101.45 37.2994H97.7137V35.2147H97.6596C97.3347 35.9547 96.8112 36.5503 96.0893 37.0016C95.3673 37.4347 94.51 37.6513 93.5173 37.6513C92.8133 37.6513 92.0824 37.516 91.3243 37.2452C90.5662 36.9745 89.8713 36.5593 89.2396 35.9998C88.6259 35.4222 88.1115 34.6913 87.6964 33.8068C87.2993 32.9224 87.1008 31.8575 87.1008 30.6121C87.1008 29.6014 87.2722 28.6628 87.6152 27.7964C87.9761 26.9301 88.4725 26.1901 89.1042 25.5764C89.754 24.9447 90.5121 24.4573 91.3784 24.1144C92.2628 23.7534 93.2375 23.5729 94.3024 23.5729C95.3493 23.5729 96.3149 23.7444 97.1993 24.0873C98.0837 24.4122 98.8328 24.8905 99.4464 25.5222C100.078 26.1359 100.566 26.8849 100.908 27.7694C101.269 28.6538 101.45 29.6465 101.45 30.7475V37.2994ZM94.3024 33.861C95.2229 33.861 95.9629 33.5632 96.5225 32.9675C97.1 32.3719 97.3888 31.5868 97.3888 30.6121C97.3888 29.6375 97.1 28.8523 96.5225 28.2567C95.9629 27.6611 95.2229 27.3633 94.3024 27.3633C93.3819 27.3633 92.6329 27.6611 92.0553 28.2567C91.4958 28.8523 91.216 29.6375 91.216 30.6121C91.216 31.5868 91.4958 32.3719 92.0553 32.9675C92.6329 33.5632 93.3819 33.861 94.3024 33.861Z" fill="#383838"/>
<path d="M113.21 37.2994V30.3685C113.21 29.3035 112.976 28.5365 112.506 28.0672C112.037 27.5979 111.423 27.3633 110.665 27.3633C109.907 27.3633 109.294 27.5979 108.824 28.0672C108.355 28.5365 108.12 29.3035 108.12 30.3685V37.2994H104.059V30.3685C104.059 29.2494 104.213 28.2657 104.52 27.4174C104.845 26.5691 105.296 25.8652 105.873 25.3056C106.451 24.7281 107.146 24.2949 107.958 24.0061C108.77 23.7173 109.673 23.5729 110.665 23.5729C111.658 23.5729 112.561 23.7173 113.373 24.0061C114.185 24.2768 114.88 24.701 115.457 25.2786C116.035 25.8381 116.477 26.542 116.784 27.3903C117.109 28.2386 117.271 29.2314 117.271 30.3685V37.2994H113.21Z" fill="#383838"/>
<path d="M129.019 37.2994V30.3685C129.019 29.3035 128.785 28.5365 128.315 28.0672C127.846 27.5979 127.232 27.3633 126.474 27.3633C125.716 27.3633 125.103 27.5979 124.633 28.0672C124.164 28.5365 123.929 29.3035 123.929 30.3685V37.2994H119.868V30.3685C119.868 29.2494 120.022 28.2657 120.329 27.4174C120.654 26.5691 121.105 25.8652 121.682 25.3056C122.26 24.7281 122.955 24.2949 123.767 24.0061C124.579 23.7173 125.482 23.5729 126.474 23.5729C127.467 23.5729 128.37 23.7173 129.182 24.0061C129.994 24.2768 130.689 24.701 131.267 25.2786C131.844 25.8381 132.286 26.542 132.593 27.3903C132.918 28.2386 133.08 29.2314 133.08 30.3685V37.2994H129.019Z" fill="#383838"/>
<path d="M149.485 37.2994H145.749V35.2147H145.695C145.37 35.9547 144.846 36.5503 144.124 37.0016C143.403 37.4347 142.545 37.6513 141.552 37.6513C140.849 37.6513 140.118 37.516 139.359 37.2452C138.601 36.9745 137.907 36.5593 137.275 35.9998C136.661 35.4222 136.147 34.6913 135.732 33.8068C135.335 32.9224 135.136 31.8575 135.136 30.6121C135.136 29.6014 135.307 28.6628 135.65 27.7964C136.011 26.9301 136.508 26.1901 137.139 25.5764C137.789 24.9447 138.547 24.4573 139.414 24.1144C140.298 23.7534 141.273 23.5729 142.338 23.5729C143.384 23.5729 144.35 23.7444 145.235 24.0873C146.119 24.4122 146.868 24.8905 147.482 25.5222C148.113 26.1359 148.601 26.8849 148.944 27.7694C149.305 28.6538 149.485 29.6465 149.485 30.7475V37.2994ZM142.338 33.861C143.258 33.861 143.998 33.5632 144.558 32.9675C145.135 32.3719 145.424 31.5868 145.424 30.6121C145.424 29.6375 145.135 28.8523 144.558 28.2567C143.998 27.6611 143.258 27.3633 142.338 27.3633C141.417 27.3633 140.668 27.6611 140.09 28.2567C139.531 28.8523 139.251 29.6375 139.251 30.6121C139.251 31.5868 139.531 32.3719 140.09 32.9675C140.668 33.5632 141.417 33.861 142.338 33.861Z" fill="#383838"/>
<path d="M151.391 31.9117V27.986H159.513V31.9117H151.391Z" fill="#383838"/>
<path d="M161.833 37.2994V18.0769H165.894V37.2994H161.833Z" fill="#383838"/>
<path d="M178.084 23.9249H182.145V30.8558C182.145 31.9748 181.983 32.9585 181.658 33.8068C181.351 34.6552 180.909 35.3681 180.331 35.9457C179.754 36.5052 179.059 36.9294 178.246 37.2181C177.434 37.5069 176.532 37.6513 175.539 37.6513C174.546 37.6513 173.644 37.516 172.832 37.2452C172.019 36.9564 171.325 36.5323 170.747 35.9727C170.169 35.3952 169.718 34.6822 169.393 33.8339C169.086 32.9856 168.933 31.9929 168.933 30.8558V23.9249H172.994V30.8558C172.994 31.9207 173.229 32.6878 173.698 33.1571C174.167 33.6263 174.781 33.861 175.539 33.861C176.297 33.861 176.911 33.6263 177.38 33.1571C177.849 32.6878 178.084 31.9207 178.084 30.8558V23.9249Z" fill="#383838"/>
<path d="M183.713 37.2994L188.262 30.4497L183.93 23.9249H188.776L191.213 28.1213H191.267L193.704 23.9249H198.441L194.083 30.4497L198.658 37.2994H193.812L191.159 32.751H191.104L188.451 37.2994H183.713Z" fill="#383838"/>
<path d="M202.508 37.6513C201.768 37.6513 201.145 37.4077 200.64 36.9203C200.153 36.415 199.909 35.7923 199.909 35.0522C199.909 34.3122 200.153 33.6985 200.64 33.2112C201.145 32.7058 201.768 32.4531 202.508 32.4531C203.248 32.4531 203.862 32.7058 204.349 33.2112C204.854 33.6985 205.107 34.3122 205.107 35.0522C205.107 35.7923 204.854 36.415 204.349 36.9203C203.862 37.4077 203.248 37.6513 202.508 37.6513Z" fill="#383838"/>
<path d="M207.371 18.0769H211.432V25.3056H211.486C211.865 24.7822 212.379 24.3671 213.029 24.0602C213.679 23.7354 214.437 23.5729 215.303 23.5729C216.007 23.5729 216.738 23.7083 217.496 23.979C218.255 24.2498 218.94 24.6739 219.554 25.2515C220.186 25.811 220.7 26.533 221.097 27.4174C221.512 28.3018 221.72 29.3667 221.72 30.6121C221.72 31.6229 221.539 32.5614 221.178 33.4278C220.836 34.2942 220.339 35.0432 219.689 35.6749C219.058 36.2886 218.3 36.7759 217.415 37.1369C216.531 37.4799 215.565 37.6513 214.518 37.6513C213.453 37.6513 212.479 37.4889 211.594 37.164C210.728 36.8211 209.979 36.3428 209.347 35.7291C208.734 35.0974 208.246 34.3393 207.885 33.4549C207.542 32.5705 207.371 31.5778 207.371 30.4767V18.0769ZM214.518 33.861C215.439 33.861 216.179 33.5632 216.738 32.9675C217.316 32.3719 217.605 31.5868 217.605 30.6121C217.605 29.6375 217.316 28.8523 216.738 28.2567C216.179 27.6611 215.439 27.3633 214.518 27.3633C213.598 27.3633 212.849 27.6611 212.271 28.2567C211.712 28.8523 211.432 29.6375 211.432 30.6121C211.432 31.5868 211.712 32.3719 212.271 32.9675C212.849 33.5632 213.598 33.861 214.518 33.861Z" fill="#383838"/>
<path d="M230.394 33.6444C231.134 33.6444 231.739 33.4007 232.208 32.9134C232.695 32.4261 232.939 31.668 232.939 30.6392V23.9249H237V36.8391C237 38.0123 236.82 39.005 236.459 39.8172C236.116 40.6475 235.646 41.3244 235.051 41.8478C234.455 42.3712 233.751 42.7502 232.939 42.9849C232.145 43.2376 231.287 43.3639 230.367 43.3639C229.573 43.3639 228.815 43.2646 228.093 43.0661C227.389 42.8856 226.748 42.5968 226.17 42.1997C225.611 41.8207 225.133 41.3334 224.736 40.7378C224.338 40.1421 224.059 39.4292 223.896 38.5989H227.957C228.156 39.0501 228.445 39.366 228.824 39.5465C229.203 39.745 229.717 39.8443 230.367 39.8443C231.269 39.8443 231.919 39.6187 232.316 39.1675C232.731 38.7343 232.939 38.0033 232.939 36.9745V35.7291H232.885C232.524 36.2525 232.064 36.6676 231.504 36.9745C230.944 37.2813 230.313 37.4347 229.609 37.4347C228.905 37.4347 228.201 37.3084 227.497 37.0557C226.811 36.803 226.188 36.4059 225.629 35.8645C225.087 35.323 224.645 34.6281 224.302 33.7798C223.959 32.9134 223.788 31.8665 223.788 30.6392V23.9249H227.849V30.6392C227.849 31.7041 228.084 32.4712 228.553 32.9405C229.022 33.4098 229.636 33.6444 230.394 33.6444Z" fill="#383838"/>
<path d="M76.0241 46.7016H75.3729V42.4269H72.9818V46.7016H72.3339V41.916H76.0241V46.7016Z" fill="#383838"/>
<path d="M77.9847 45.8867C78.0938 46.0336 78.2129 46.1372 78.342 46.1973C78.4711 46.2574 78.6159 46.2875 78.7762 46.2875C79.0923 46.2875 79.335 46.175 79.5042 45.9502C79.6734 45.7253 79.758 45.4047 79.758 44.9884C79.758 44.768 79.7379 44.5787 79.6979 44.4206C79.66 44.2626 79.6044 44.1334 79.5309 44.0333C79.4574 43.9309 79.3672 43.8563 79.2604 43.8095C79.1535 43.7628 79.0322 43.7394 78.8964 43.7394C78.7027 43.7394 78.5324 43.7839 78.3854 43.873C78.2407 43.962 78.1071 44.0878 77.9847 44.2503V45.8867ZM77.9546 43.8429C78.0971 43.667 78.2619 43.5257 78.4489 43.4188C78.6359 43.3119 78.8496 43.2585 79.0901 43.2585C79.286 43.2585 79.463 43.2963 79.6211 43.372C79.7791 43.4455 79.9138 43.5557 80.0251 43.7026C80.1365 43.8474 80.2222 44.0277 80.2823 44.2437C80.3424 44.4596 80.3725 44.7078 80.3725 44.9884C80.3725 45.2377 80.3391 45.4704 80.2723 45.6863C80.2055 45.9001 80.1086 46.086 79.9817 46.244C79.8571 46.3999 79.7034 46.5234 79.5209 46.6147C79.3405 46.7038 79.1368 46.7483 78.9097 46.7483C78.7027 46.7483 78.5246 46.7138 78.3754 46.6448C78.2285 46.5735 78.0982 46.4756 77.9847 46.3509V47.847H77.3869V43.3186H77.7442C77.8288 43.3186 77.8812 43.3598 77.9012 43.4422L77.9546 43.8429Z" fill="#383838"/>
<path d="M82.8843 43.2652C83.1314 43.2652 83.354 43.3064 83.5522 43.3887C83.7503 43.4711 83.9195 43.588 84.0598 43.7394C84.2 43.8908 84.3069 44.0744 84.3804 44.2904C84.4561 44.5041 84.4939 44.7435 84.4939 45.0084C84.4939 45.2756 84.4561 45.516 84.3804 45.7297C84.3069 45.9435 84.2 46.126 84.0598 46.2774C83.9195 46.4288 83.7503 46.5457 83.5522 46.6281C83.354 46.7082 83.1314 46.7483 82.8843 46.7483C82.6349 46.7483 82.41 46.7082 82.2097 46.6281C82.0115 46.5457 81.8423 46.4288 81.7021 46.2774C81.5618 46.126 81.4538 45.9435 81.3781 45.7297C81.3047 45.516 81.2679 45.2756 81.2679 45.0084C81.2679 44.7435 81.3047 44.5041 81.3781 44.2904C81.4538 44.0744 81.5618 43.8908 81.7021 43.7394C81.8423 43.588 82.0115 43.4711 82.2097 43.3887C82.41 43.3064 82.6349 43.2652 82.8843 43.2652ZM82.8843 46.2841C83.2182 46.2841 83.4676 46.1728 83.6323 45.9502C83.7971 45.7253 83.8794 45.4125 83.8794 45.0117C83.8794 44.6088 83.7971 44.2949 83.6323 44.07C83.4676 43.8451 83.2182 43.7327 82.8843 43.7327C82.7151 43.7327 82.567 43.7616 82.4401 43.8195C82.3154 43.8774 82.2108 43.9609 82.1262 44.07C82.0438 44.1791 81.9815 44.3138 81.9392 44.4741C81.8991 44.6322 81.8791 44.8114 81.8791 45.0117C81.8791 45.4125 81.9614 45.7253 82.1262 45.9502C82.2932 46.1728 82.5459 46.2841 82.8843 46.2841Z" fill="#383838"/>
<path d="M87.7292 46.2975C87.9273 46.2886 88.1021 46.2518 88.2535 46.1873C88.4071 46.1227 88.5351 46.0359 88.6375 45.9268C88.7421 45.8155 88.8201 45.683 88.8713 45.5294C88.9247 45.3758 88.9514 45.2032 88.9514 45.0117C88.9514 44.8181 88.9247 44.6444 88.8713 44.4908C88.8201 44.3349 88.7421 44.2014 88.6375 44.09C88.5351 43.9787 88.4071 43.8919 88.2535 43.8295C88.1021 43.765 87.9262 43.7271 87.7258 43.716V46.2674L87.7292 46.2975ZM87.2015 43.716C87.0011 43.7271 86.8253 43.765 86.6739 43.8295C86.5225 43.8919 86.3944 43.9787 86.2898 44.09C86.1874 44.2014 86.1095 44.3349 86.056 44.4908C86.0048 44.6466 85.9792 44.8203 85.9792 45.0117C85.9792 45.2032 86.0048 45.3758 86.056 45.5294C86.1095 45.683 86.1874 45.8155 86.2898 45.9268C86.3922 46.0359 86.5191 46.1227 86.6705 46.1873C86.8241 46.2518 87 46.2886 87.1982 46.2975L87.2015 46.2774V43.716ZM87.7459 43.2685C88.0242 43.2796 88.2746 43.3286 88.4972 43.4154C88.7199 43.5023 88.9091 43.6214 89.065 43.7728C89.2208 43.9242 89.3399 44.1045 89.4223 44.3138C89.5069 44.5208 89.5492 44.7524 89.5492 45.0084C89.5492 45.2644 89.5069 45.4971 89.4223 45.7064C89.3399 45.9134 89.2208 46.0926 89.065 46.244C88.9091 46.3932 88.7199 46.5112 88.4972 46.598C88.2746 46.6849 88.0242 46.7338 87.7459 46.745V47.8671H87.1848V46.745C86.9065 46.7338 86.656 46.6849 86.4334 46.598C86.2108 46.5112 86.0215 46.3932 85.8657 46.244C85.7098 46.0926 85.5896 45.9134 85.505 45.7064C85.4226 45.4971 85.3814 45.2644 85.3814 45.0084C85.3814 44.7524 85.4226 44.5208 85.505 44.3138C85.5896 44.1045 85.7098 43.9242 85.8657 43.7728C86.0215 43.6214 86.2108 43.5023 86.4334 43.4154C86.656 43.3286 86.9065 43.2796 87.1848 43.2685V41.916H87.7459V43.2685Z" fill="#383838"/>
<path d="M92.8893 44.6411C92.8893 44.503 92.8692 44.3772 92.8292 44.2637C92.7913 44.1479 92.7345 44.0488 92.6588 43.9665C92.5854 43.8819 92.4952 43.8173 92.3883 43.7728C92.2815 43.726 92.1601 43.7026 92.0243 43.7026C91.7393 43.7026 91.5134 43.7861 91.3464 43.9531C91.1816 44.1179 91.0792 44.3472 91.0392 44.6411H92.8893ZM93.3702 46.2273C93.2967 46.3164 93.2088 46.3943 93.1063 46.4611C93.0039 46.5257 92.8937 46.5791 92.7757 46.6214C92.66 46.6637 92.5397 46.6949 92.4151 46.7149C92.2904 46.7372 92.1668 46.7483 92.0444 46.7483C91.8106 46.7483 91.5946 46.7093 91.3965 46.6314C91.2006 46.5513 91.0303 46.4355 90.8855 46.2841C90.7431 46.1305 90.6317 45.9413 90.5516 45.7164C90.4714 45.4915 90.4314 45.2333 90.4314 44.9416C90.4314 44.7056 90.467 44.4852 90.5382 44.2804C90.6117 44.0756 90.7163 43.8986 90.8521 43.7494C90.988 43.598 91.1538 43.48 91.3497 43.3954C91.5457 43.3086 91.7661 43.2652 92.011 43.2652C92.2136 43.2652 92.4006 43.2997 92.572 43.3687C92.7457 43.4355 92.8948 43.5334 93.0195 43.6626C93.1464 43.7895 93.2455 43.9475 93.3167 44.1368C93.388 44.3238 93.4236 44.5375 93.4236 44.778C93.4236 44.8715 93.4136 44.9338 93.3935 44.965C93.3735 44.9962 93.3357 45.0117 93.28 45.0117H91.0191C91.0258 45.2255 91.0547 45.4114 91.1059 45.5695C91.1594 45.7275 91.2329 45.86 91.3264 45.9669C91.4199 46.0715 91.5312 46.1505 91.6603 46.204C91.7894 46.2552 91.9342 46.2808 92.0945 46.2808C92.2436 46.2808 92.3716 46.2641 92.4785 46.2307C92.5876 46.1951 92.6811 46.1572 92.759 46.1171C92.8369 46.0771 92.9015 46.0403 92.9527 46.0069C93.0061 45.9713 93.0518 45.9535 93.0896 45.9535C93.1386 45.9535 93.1765 45.9724 93.2032 46.0103L93.3702 46.2273Z" fill="#383838"/>
<path d="M96.8421 43.9197C96.8243 43.9442 96.8065 43.9631 96.7887 43.9765C96.7708 43.9898 96.7464 43.9965 96.7152 43.9965C96.6818 43.9965 96.6451 43.9832 96.605 43.9565C96.5649 43.9275 96.5148 43.8963 96.4547 43.8629C96.3968 43.8295 96.3245 43.7995 96.2376 43.7728C96.153 43.7438 96.0484 43.7294 95.9237 43.7294C95.7567 43.7294 95.6098 43.7594 95.4829 43.8195C95.356 43.8774 95.2491 43.962 95.1623 44.0733C95.0777 44.1847 95.0131 44.3194 94.9686 44.4774C94.9263 44.6355 94.9051 44.8125 94.9051 45.0084C94.9051 45.2132 94.9285 45.3958 94.9753 45.5561C95.022 45.7142 95.0877 45.8477 95.1723 45.9568C95.2591 46.0637 95.3627 46.1461 95.4829 46.204C95.6053 46.2596 95.7423 46.2875 95.8937 46.2875C96.0384 46.2875 96.1575 46.2708 96.251 46.2374C96.3445 46.2017 96.4213 46.1628 96.4814 46.1205C96.5438 46.0782 96.595 46.0403 96.635 46.0069C96.6773 45.9713 96.7185 45.9535 96.7586 45.9535C96.8076 45.9535 96.8454 45.9724 96.8721 46.0103L97.0391 46.2273C96.9656 46.3186 96.8822 46.3965 96.7887 46.4611C96.6951 46.5257 96.5938 46.5802 96.4848 46.6247C96.3779 46.667 96.2655 46.6982 96.1475 46.7183C96.0295 46.7383 95.9092 46.7483 95.7868 46.7483C95.5753 46.7483 95.3783 46.7093 95.1957 46.6314C95.0154 46.5535 94.8584 46.4411 94.7248 46.2941C94.5912 46.145 94.4866 45.9624 94.4109 45.7464C94.3352 45.5305 94.2974 45.2845 94.2974 45.0084C94.2974 44.7568 94.3319 44.5242 94.4009 44.3104C94.4721 44.0967 94.5745 43.913 94.7081 43.7594C94.8439 43.6036 95.0098 43.4822 95.2057 43.3954C95.4039 43.3086 95.6309 43.2652 95.887 43.2652C96.1252 43.2652 96.3345 43.3041 96.5148 43.382C96.6974 43.4577 96.8588 43.5657 96.999 43.706L96.8421 43.9197Z" fill="#383838"/>
<path d="M100.366 43.9197C100.348 43.9442 100.33 43.9631 100.312 43.9765C100.294 43.9898 100.27 43.9965 100.239 43.9965C100.205 43.9965 100.169 43.9832 100.128 43.9565C100.088 43.9275 100.038 43.8963 99.9782 43.8629C99.9203 43.8295 99.8479 43.7995 99.7611 43.7728C99.6765 43.7438 99.5719 43.7294 99.4472 43.7294C99.2802 43.7294 99.1333 43.7594 99.0064 43.8195C98.8795 43.8774 98.7726 43.962 98.6858 44.0733C98.6012 44.1847 98.5366 44.3194 98.4921 44.4774C98.4498 44.6355 98.4286 44.8125 98.4286 45.0084C98.4286 45.2132 98.452 45.3958 98.4988 45.5561C98.5455 45.7142 98.6112 45.8477 98.6958 45.9568C98.7826 46.0637 98.8862 46.1461 99.0064 46.204C99.1288 46.2596 99.2657 46.2875 99.4171 46.2875C99.5618 46.2875 99.681 46.2708 99.7745 46.2374C99.868 46.2017 99.9448 46.1628 100.005 46.1205C100.067 46.0782 100.118 46.0403 100.159 46.0069C100.201 45.9713 100.242 45.9535 100.282 45.9535C100.331 45.9535 100.369 45.9724 100.396 46.0103L100.563 46.2273C100.489 46.3186 100.406 46.3965 100.312 46.4611C100.219 46.5257 100.117 46.5802 100.008 46.6247C99.9014 46.667 99.7889 46.6982 99.6709 46.7183C99.5529 46.7383 99.4327 46.7483 99.3103 46.7483C99.0988 46.7483 98.9017 46.7093 98.7192 46.6314C98.5388 46.5535 98.3819 46.4411 98.2483 46.2941C98.1147 46.145 98.0101 45.9624 97.9344 45.7464C97.8587 45.5305 97.8208 45.2845 97.8208 45.0084C97.8208 44.7568 97.8553 44.5242 97.9244 44.3104C97.9956 44.0967 98.098 43.913 98.2316 43.7594C98.3674 43.6036 98.5333 43.4822 98.7292 43.3954C98.9273 43.3086 99.1544 43.2652 99.4105 43.2652C99.6487 43.2652 99.858 43.3041 100.038 43.382C100.221 43.4577 100.382 43.5657 100.523 43.706L100.366 43.9197Z" fill="#383838"/>
<path d="M104.437 43.3186V46.7016H103.842V44.4039C103.842 44.3594 103.845 44.3116 103.849 44.2603C103.853 44.2091 103.859 44.1579 103.866 44.1067C103.846 44.1513 103.826 44.1924 103.806 44.2303C103.786 44.2681 103.764 44.3026 103.742 44.3338L102.109 46.5546C102.085 46.5902 102.053 46.6247 102.016 46.6581C101.98 46.6893 101.94 46.7049 101.895 46.7049H101.535V43.3219H102.132V45.6195C102.132 45.6618 102.13 45.7086 102.126 45.7598C102.121 45.8088 102.116 45.8589 102.109 45.9101C102.129 45.8678 102.149 45.8288 102.169 45.7932C102.189 45.7554 102.209 45.7208 102.229 45.6897L103.862 43.4689C103.887 43.4333 103.918 43.3999 103.956 43.3687C103.994 43.3353 104.035 43.3186 104.079 43.3186H104.437Z" fill="#383838"/>
<path d="M107.136 43.2652C107.383 43.2652 107.606 43.3064 107.804 43.3887C108.002 43.4711 108.172 43.588 108.312 43.7394C108.452 43.8908 108.559 44.0744 108.632 44.2904C108.708 44.5041 108.746 44.7435 108.746 45.0084C108.746 45.2756 108.708 45.516 108.632 45.7297C108.559 45.9435 108.452 46.126 108.312 46.2774C108.172 46.4288 108.002 46.5457 107.804 46.6281C107.606 46.7082 107.383 46.7483 107.136 46.7483C106.887 46.7483 106.662 46.7082 106.462 46.6281C106.264 46.5457 106.094 46.4288 105.954 46.2774C105.814 46.126 105.706 45.9435 105.63 45.7297C105.557 45.516 105.52 45.2756 105.52 45.0084C105.52 44.7435 105.557 44.5041 105.63 44.2904C105.706 44.0744 105.814 43.8908 105.954 43.7394C106.094 43.588 106.264 43.4711 106.462 43.3887C106.662 43.3064 106.887 43.2652 107.136 43.2652ZM107.136 46.2841C107.47 46.2841 107.72 46.1728 107.884 45.9502C108.049 45.7253 108.132 45.4125 108.132 45.0117C108.132 44.6088 108.049 44.2949 107.884 44.07C107.72 43.8451 107.47 43.7327 107.136 43.7327C106.967 43.7327 106.819 43.7616 106.692 43.8195C106.568 43.8774 106.463 43.9609 106.378 44.07C106.296 44.1791 106.234 44.3138 106.191 44.4741C106.151 44.6322 106.131 44.8114 106.131 45.0117C106.131 45.4125 106.214 45.7253 106.378 45.9502C106.545 46.1728 106.798 46.2841 107.136 46.2841Z" fill="#383838"/>
<path d="M112.653 43.3186V46.7016H112.055V45.1186H110.432V46.7016H109.834V43.3186H110.432V44.6678H112.055V43.3186H112.653Z" fill="#383838"/>
<path d="M115.765 45.1787C115.491 45.1876 115.257 45.2099 115.064 45.2455C114.872 45.2789 114.715 45.3234 114.593 45.3791C114.472 45.4348 114.384 45.5004 114.329 45.5761C114.275 45.6518 114.249 45.7364 114.249 45.8299C114.249 45.919 114.263 45.9958 114.292 46.0604C114.321 46.1249 114.36 46.1784 114.409 46.2207C114.46 46.2607 114.519 46.2908 114.586 46.3108C114.655 46.3286 114.728 46.3375 114.806 46.3375C114.911 46.3375 115.007 46.3275 115.094 46.3075C115.18 46.2852 115.262 46.2541 115.337 46.214C115.415 46.1739 115.489 46.126 115.558 46.0704C115.629 46.0147 115.698 45.9513 115.765 45.88V45.1787ZM113.845 43.7962C114.032 43.6158 114.233 43.4811 114.449 43.3921C114.665 43.303 114.904 43.2585 115.167 43.2585C115.356 43.2585 115.524 43.2897 115.671 43.352C115.818 43.4143 115.942 43.5012 116.042 43.6125C116.142 43.7238 116.218 43.8585 116.269 44.0166C116.32 44.1746 116.346 44.3483 116.346 44.5375V46.7016H116.082C116.024 46.7016 115.98 46.6926 115.948 46.6748C115.917 46.6548 115.893 46.617 115.875 46.5613L115.808 46.2407C115.719 46.3231 115.632 46.3965 115.548 46.4611C115.463 46.5234 115.374 46.5769 115.281 46.6214C115.187 46.6637 115.087 46.696 114.98 46.7183C114.875 46.7427 114.758 46.755 114.629 46.755C114.498 46.755 114.374 46.7372 114.259 46.7016C114.143 46.6637 114.042 46.608 113.955 46.5346C113.87 46.4611 113.802 46.3687 113.751 46.2574C113.702 46.1439 113.678 46.0103 113.678 45.8567C113.678 45.7231 113.714 45.5951 113.788 45.4726C113.861 45.3479 113.98 45.2377 114.145 45.142C114.31 45.0463 114.525 44.9683 114.79 44.9082C115.055 44.8459 115.38 44.8103 115.765 44.8014V44.5375C115.765 44.2748 115.708 44.0767 115.594 43.9431C115.481 43.8073 115.315 43.7394 115.097 43.7394C114.95 43.7394 114.826 43.7583 114.726 43.7962C114.628 43.8318 114.543 43.873 114.469 43.9197C114.398 43.9642 114.335 44.0054 114.282 44.0433C114.231 44.0789 114.18 44.0967 114.128 44.0967C114.088 44.0967 114.054 44.0867 114.025 44.0667C113.996 44.0444 113.971 44.0177 113.951 43.9865L113.845 43.7962Z" fill="#383838"/>
<path d="M120.551 46.7016H119.956V43.7861H118.888C118.861 44.2158 118.821 44.5876 118.768 44.9015C118.714 45.2132 118.65 45.4793 118.574 45.6997C118.5 45.9179 118.417 46.096 118.323 46.234C118.232 46.3698 118.135 46.4756 118.033 46.5513C117.933 46.627 117.828 46.6782 117.719 46.7049C117.612 46.7316 117.505 46.745 117.398 46.745C117.209 46.745 117.114 46.7149 117.114 46.6548V46.2774H117.288C117.364 46.2774 117.441 46.2641 117.519 46.2374C117.596 46.2106 117.672 46.1594 117.746 46.0837C117.821 46.008 117.894 45.9023 117.963 45.7665C118.032 45.6284 118.094 45.4503 118.15 45.2322C118.208 45.0117 118.257 44.7457 118.297 44.434C118.339 44.1201 118.371 43.7483 118.393 43.3186H120.551V46.7016Z" fill="#383838"/>
<path d="M123.125 46.2674C123.246 46.2674 123.349 46.2529 123.436 46.224C123.525 46.1928 123.598 46.1505 123.656 46.0971C123.714 46.0414 123.758 45.9769 123.787 45.9034C123.816 45.8299 123.83 45.7498 123.83 45.663C123.83 45.5828 123.818 45.5082 123.793 45.4392C123.769 45.368 123.728 45.3056 123.67 45.2522C123.614 45.1988 123.541 45.1565 123.449 45.1253C123.358 45.0941 123.247 45.0785 123.115 45.0785H122.397V46.2674H123.125ZM123.115 44.6444C123.349 44.6444 123.545 44.6722 123.703 44.7279C123.863 44.7835 123.991 44.8581 124.087 44.9516C124.185 45.0451 124.255 45.1531 124.298 45.2756C124.34 45.398 124.361 45.5249 124.361 45.6563C124.361 45.8077 124.334 45.9479 124.281 46.0771C124.227 46.204 124.148 46.3142 124.044 46.4077C123.939 46.499 123.81 46.5713 123.656 46.6247C123.503 46.676 123.326 46.7016 123.125 46.7016H121.826V43.3186H122.397V44.6444H123.115Z" fill="#383838"/>
<path d="M128.175 43.3186V46.7016H127.577V45.1186H125.954V46.7016H125.356V43.3186H125.954V44.6678H127.577V43.3186H128.175Z" fill="#383838"/>
<path d="M131.287 45.1787C131.013 45.1876 130.78 45.2099 130.586 45.2455C130.394 45.2789 130.237 45.3234 130.115 45.3791C129.995 45.4348 129.907 45.5004 129.851 45.5761C129.798 45.6518 129.771 45.7364 129.771 45.8299C129.771 45.919 129.785 45.9958 129.814 46.0604C129.843 46.1249 129.882 46.1784 129.931 46.2207C129.983 46.2607 130.042 46.2908 130.108 46.3108C130.177 46.3286 130.251 46.3375 130.329 46.3375C130.433 46.3375 130.529 46.3275 130.616 46.3075C130.703 46.2852 130.784 46.2541 130.86 46.214C130.938 46.1739 131.011 46.126 131.08 46.0704C131.151 46.0147 131.22 45.9513 131.287 45.88V45.1787ZM129.367 43.7962C129.554 43.6158 129.755 43.4811 129.971 43.3921C130.187 43.303 130.427 43.2585 130.689 43.2585C130.879 43.2585 131.047 43.2897 131.194 43.352C131.341 43.4143 131.464 43.5012 131.564 43.6125C131.665 43.7238 131.74 43.8585 131.791 44.0166C131.843 44.1746 131.868 44.3483 131.868 44.5375V46.7016H131.604C131.547 46.7016 131.502 46.6926 131.471 46.6748C131.44 46.6548 131.415 46.617 131.397 46.5613L131.331 46.2407C131.242 46.3231 131.155 46.3965 131.07 46.4611C130.985 46.5234 130.896 46.5769 130.803 46.6214C130.709 46.6637 130.609 46.696 130.502 46.7183C130.398 46.7427 130.281 46.755 130.152 46.755C130.02 46.755 129.897 46.7372 129.781 46.7016C129.665 46.6637 129.564 46.608 129.477 46.5346C129.393 46.4611 129.325 46.3687 129.273 46.2574C129.224 46.1439 129.2 46.0103 129.2 45.8567C129.2 45.7231 129.237 45.5951 129.31 45.4726C129.384 45.3479 129.503 45.2377 129.667 45.142C129.832 45.0463 130.047 44.9683 130.312 44.9082C130.577 44.8459 130.902 44.8103 131.287 44.8014V44.5375C131.287 44.2748 131.23 44.0767 131.117 43.9431C131.003 43.8073 130.837 43.7394 130.619 43.7394C130.472 43.7394 130.349 43.7583 130.249 43.7962C130.151 43.8318 130.065 43.873 129.991 43.9197C129.92 43.9642 129.858 44.0054 129.804 44.0433C129.753 44.0789 129.702 44.0967 129.651 44.0967C129.611 44.0967 129.576 44.0867 129.547 44.0667C129.518 44.0444 129.494 44.0177 129.474 43.9865L129.367 43.7962Z" fill="#383838"/>
<path d="M134.888 44.8982V43.7193H134.32C134.193 43.7193 134.086 43.7383 133.999 43.7761C133.913 43.8117 133.842 43.8585 133.789 43.9164C133.738 43.972 133.701 44.0355 133.679 44.1067C133.656 44.1758 133.645 44.2448 133.645 44.3138C133.645 44.4963 133.712 44.6399 133.846 44.7446C133.979 44.847 134.162 44.8982 134.393 44.8982H134.888ZM135.455 43.3186V46.7016H134.888V45.2756H134.627C134.565 45.2756 134.513 45.2811 134.47 45.2923C134.43 45.3012 134.395 45.3145 134.363 45.3323C134.334 45.3502 134.309 45.3735 134.287 45.4025C134.264 45.4292 134.241 45.4604 134.216 45.496L133.475 46.4945C133.437 46.5657 133.39 46.6181 133.335 46.6515C133.281 46.6849 133.202 46.7016 133.098 46.7016H132.684L133.665 45.4259C133.746 45.2923 133.851 45.2032 133.983 45.1587C133.811 45.1364 133.667 45.0963 133.549 45.0385C133.431 44.9806 133.334 44.9127 133.258 44.8347C133.184 44.7546 133.131 44.6667 133.098 44.5709C133.064 44.4752 133.048 44.3783 133.048 44.2804C133.048 44.1646 133.07 44.0488 133.114 43.9331C133.161 43.8173 133.235 43.7149 133.335 43.6258C133.435 43.5346 133.564 43.4611 133.722 43.4054C133.882 43.3475 134.076 43.3186 134.303 43.3186H135.455Z" fill="#383838"/>
<path d="M139.376 45.8867C139.485 46.0336 139.604 46.1372 139.733 46.1973C139.863 46.2574 140.007 46.2875 140.168 46.2875C140.484 46.2875 140.726 46.175 140.896 45.9502C141.065 45.7253 141.149 45.4047 141.149 44.9884C141.149 44.768 141.129 44.5787 141.089 44.4206C141.051 44.2626 140.996 44.1334 140.922 44.0333C140.849 43.9309 140.759 43.8563 140.652 43.8095C140.545 43.7628 140.424 43.7394 140.288 43.7394C140.094 43.7394 139.924 43.7839 139.777 43.873C139.632 43.962 139.499 44.0878 139.376 44.2503V45.8867ZM139.346 43.8429C139.489 43.667 139.653 43.5257 139.84 43.4188C140.027 43.3119 140.241 43.2585 140.482 43.2585C140.677 43.2585 140.854 43.2963 141.013 43.372C141.171 43.4455 141.305 43.5557 141.417 43.7026C141.528 43.8474 141.614 44.0277 141.674 44.2437C141.734 44.4596 141.764 44.7078 141.764 44.9884C141.764 45.2377 141.731 45.4704 141.664 45.6863C141.597 45.9001 141.5 46.086 141.373 46.244C141.249 46.3999 141.095 46.5234 140.912 46.6147C140.732 46.7038 140.528 46.7483 140.301 46.7483C140.094 46.7483 139.916 46.7138 139.767 46.6448C139.62 46.5735 139.49 46.4756 139.376 46.3509V47.847H138.778V43.3186H139.136C139.22 43.3186 139.273 43.3598 139.293 43.4422L139.346 43.8429Z" fill="#383838"/>
<path d="M145.114 44.6411C145.114 44.503 145.094 44.3772 145.054 44.2637C145.016 44.1479 144.959 44.0488 144.884 43.9665C144.81 43.8819 144.72 43.8173 144.613 43.7728C144.506 43.726 144.385 43.7026 144.249 43.7026C143.964 43.7026 143.738 43.7861 143.571 43.9531C143.406 44.1179 143.304 44.3472 143.264 44.6411H145.114ZM145.595 46.2273C145.521 46.3164 145.433 46.3943 145.331 46.4611C145.229 46.5257 145.118 46.5791 145 46.6214C144.885 46.6637 144.764 46.6949 144.64 46.7149C144.515 46.7372 144.392 46.7483 144.269 46.7483C144.035 46.7483 143.819 46.7093 143.621 46.6314C143.425 46.5513 143.255 46.4355 143.11 46.2841C142.968 46.1305 142.856 45.9413 142.776 45.7164C142.696 45.4915 142.656 45.2333 142.656 44.9416C142.656 44.7056 142.692 44.4852 142.763 44.2804C142.836 44.0756 142.941 43.8986 143.077 43.7494C143.213 43.598 143.379 43.48 143.574 43.3954C143.77 43.3086 143.991 43.2652 144.236 43.2652C144.438 43.2652 144.625 43.2997 144.797 43.3687C144.97 43.4355 145.12 43.5334 145.244 43.6626C145.371 43.7895 145.47 43.9475 145.541 44.1368C145.613 44.3238 145.648 44.5375 145.648 44.778C145.648 44.8715 145.638 44.9338 145.618 44.965C145.598 44.9962 145.56 45.0117 145.505 45.0117H143.244C143.251 45.2255 143.279 45.4114 143.331 45.5695C143.384 45.7275 143.458 45.86 143.551 45.9669C143.645 46.0715 143.756 46.1505 143.885 46.204C144.014 46.2552 144.159 46.2808 144.319 46.2808C144.468 46.2808 144.596 46.2641 144.703 46.2307C144.812 46.1951 144.906 46.1572 144.984 46.1171C145.062 46.0771 145.126 46.0403 145.177 46.0069C145.231 45.9713 145.276 45.9535 145.314 45.9535C145.363 45.9535 145.401 45.9724 145.428 46.0103L145.595 46.2273Z" fill="#383838"/>
<path d="M149.067 43.9197C149.049 43.9442 149.031 43.9631 149.013 43.9765C148.996 43.9898 148.971 43.9965 148.94 43.9965C148.906 43.9965 148.87 43.9832 148.83 43.9565C148.79 43.9275 148.739 43.8963 148.679 43.8629C148.621 43.8295 148.549 43.7995 148.462 43.7728C148.378 43.7438 148.273 43.7294 148.148 43.7294C147.981 43.7294 147.834 43.7594 147.708 43.8195C147.581 43.8774 147.474 43.962 147.387 44.0733C147.302 44.1847 147.238 44.3194 147.193 44.4774C147.151 44.6355 147.13 44.8125 147.13 45.0084C147.13 45.2132 147.153 45.3958 147.2 45.5561C147.247 45.7142 147.312 45.8477 147.397 45.9568C147.484 46.0637 147.587 46.1461 147.708 46.204C147.83 46.2596 147.967 46.2875 148.118 46.2875C148.263 46.2875 148.382 46.2708 148.476 46.2374C148.569 46.2017 148.646 46.1628 148.706 46.1205C148.768 46.0782 148.82 46.0403 148.86 46.0069C148.902 45.9713 148.943 45.9535 148.983 45.9535C149.032 45.9535 149.07 45.9724 149.097 46.0103L149.264 46.2273C149.19 46.3186 149.107 46.3965 149.013 46.4611C148.92 46.5257 148.819 46.5802 148.709 46.6247C148.603 46.667 148.49 46.6982 148.372 46.7183C148.254 46.7383 148.134 46.7483 148.011 46.7483C147.8 46.7483 147.603 46.7093 147.42 46.6314C147.24 46.5535 147.083 46.4411 146.95 46.2941C146.816 46.145 146.711 45.9624 146.636 45.7464C146.56 45.5305 146.522 45.2845 146.522 45.0084C146.522 44.7568 146.557 44.5242 146.626 44.3104C146.697 44.0967 146.799 43.913 146.933 43.7594C147.069 43.6036 147.234 43.4822 147.43 43.3954C147.629 43.3086 147.856 43.2652 148.112 43.2652C148.35 43.2652 148.559 43.3041 148.74 43.382C148.922 43.4577 149.083 43.5657 149.224 43.706L149.067 43.9197Z" fill="#383838"/>
<path d="M153.048 43.7728H151.749V46.7016H151.154V43.7728H149.855V43.3186H153.048V43.7728Z" fill="#383838"/>
<path d="M155.749 45.1787C155.475 45.1876 155.242 45.2099 155.048 45.2455C154.857 45.2789 154.7 45.3234 154.577 45.3791C154.457 45.4348 154.369 45.5004 154.313 45.5761C154.26 45.6518 154.233 45.7364 154.233 45.8299C154.233 45.919 154.248 45.9958 154.277 46.0604C154.306 46.1249 154.344 46.1784 154.393 46.2207C154.445 46.2607 154.504 46.2908 154.57 46.3108C154.639 46.3286 154.713 46.3375 154.791 46.3375C154.895 46.3375 154.991 46.3275 155.078 46.3075C155.165 46.2852 155.246 46.2541 155.322 46.214C155.4 46.1739 155.473 46.126 155.542 46.0704C155.613 46.0147 155.683 45.9513 155.749 45.88V45.1787ZM153.829 43.7962C154.016 43.6158 154.218 43.4811 154.434 43.3921C154.649 43.303 154.889 43.2585 155.152 43.2585C155.341 43.2585 155.509 43.2897 155.656 43.352C155.803 43.4143 155.926 43.5012 156.026 43.6125C156.127 43.7238 156.202 43.8585 156.254 44.0166C156.305 44.1746 156.33 44.3483 156.33 44.5375V46.7016H156.067C156.009 46.7016 155.964 46.6926 155.933 46.6748C155.902 46.6548 155.877 46.617 155.859 46.5613L155.793 46.2407C155.704 46.3231 155.617 46.3965 155.532 46.4611C155.448 46.5234 155.359 46.5769 155.265 46.6214C155.172 46.6637 155.071 46.696 154.965 46.7183C154.86 46.7427 154.743 46.755 154.614 46.755C154.482 46.755 154.359 46.7372 154.243 46.7016C154.127 46.6637 154.026 46.608 153.939 46.5346C153.855 46.4611 153.787 46.3687 153.736 46.2574C153.687 46.1439 153.662 46.0103 153.662 45.8567C153.662 45.7231 153.699 45.5951 153.772 45.4726C153.846 45.3479 153.965 45.2377 154.13 45.142C154.294 45.0463 154.509 44.9683 154.774 44.9082C155.039 44.8459 155.364 44.8103 155.749 44.8014V44.5375C155.749 44.2748 155.693 44.0767 155.579 43.9431C155.465 43.8073 155.3 43.7394 155.081 43.7394C154.934 43.7394 154.811 43.7583 154.711 43.7962C154.613 43.8318 154.527 43.873 154.454 43.9197C154.382 43.9642 154.32 44.0054 154.267 44.0433C154.215 44.0789 154.164 44.0967 154.113 44.0967C154.073 44.0967 154.038 44.0867 154.009 44.0667C153.98 44.0444 153.956 44.0177 153.936 43.9865L153.829 43.7962Z" fill="#383838"/>
<path d="M158.869 46.2841C159.092 46.2841 159.267 46.2329 159.397 46.1305C159.526 46.0259 159.59 45.8834 159.59 45.703C159.59 45.6229 159.578 45.5505 159.553 45.486C159.529 45.4192 159.489 45.3613 159.433 45.3123C159.378 45.2633 159.303 45.2255 159.21 45.1988C159.118 45.172 159.006 45.1587 158.872 45.1587H158.141V46.2841H158.869ZM158.141 43.7193V44.7813H158.792C158.89 44.7813 158.98 44.768 159.063 44.7412C159.147 44.7123 159.22 44.6733 159.28 44.6244C159.34 44.5732 159.387 44.513 159.42 44.444C159.453 44.3728 159.47 44.2949 159.47 44.2103C159.47 44.1479 159.459 44.0878 159.437 44.0299C159.414 43.9698 159.377 43.9175 159.323 43.873C159.27 43.8262 159.199 43.7895 159.113 43.7628C159.026 43.7338 158.919 43.7193 158.792 43.7193H158.141ZM158.809 43.3186C159.018 43.3186 159.197 43.3397 159.346 43.382C159.496 43.4244 159.618 43.4822 159.714 43.5557C159.81 43.6269 159.88 43.7115 159.924 43.8095C159.969 43.9075 159.991 44.0121 159.991 44.1234C159.991 44.1969 159.981 44.2737 159.961 44.3539C159.941 44.434 159.905 44.5108 159.854 44.5843C159.805 44.6578 159.737 44.7245 159.65 44.7847C159.566 44.8425 159.459 44.8882 159.33 44.9216C159.588 44.9661 159.787 45.0563 159.928 45.1921C160.068 45.3257 160.138 45.5027 160.138 45.7231C160.138 45.8878 160.105 46.0314 160.038 46.1539C159.973 46.2741 159.883 46.3754 159.767 46.4578C159.654 46.5401 159.52 46.6014 159.367 46.6414C159.213 46.6815 159.048 46.7016 158.872 46.7016H157.57V43.3186H158.809Z" fill="#383838"/>
<path d="M161.815 45.8867C161.924 46.0336 162.043 46.1372 162.172 46.1973C162.301 46.2574 162.446 46.2875 162.606 46.2875C162.923 46.2875 163.165 46.175 163.335 45.9502C163.504 45.7253 163.588 45.4047 163.588 44.9884C163.588 44.768 163.568 44.5787 163.528 44.4206C163.49 44.2626 163.435 44.1334 163.361 44.0333C163.288 43.9309 163.198 43.8563 163.091 43.8095C162.984 43.7628 162.863 43.7394 162.727 43.7394C162.533 43.7394 162.363 43.7839 162.216 43.873C162.071 43.962 161.937 44.0878 161.815 44.2503V45.8867ZM161.785 43.8429C161.927 43.667 162.092 43.5257 162.279 43.4188C162.466 43.3119 162.68 43.2585 162.92 43.2585C163.116 43.2585 163.293 43.2963 163.451 43.372C163.609 43.4455 163.744 43.5557 163.855 43.7026C163.967 43.8474 164.053 44.0277 164.113 44.2437C164.173 44.4596 164.203 44.7078 164.203 44.9884C164.203 45.2377 164.169 45.4704 164.103 45.6863C164.036 45.9001 163.939 46.086 163.812 46.244C163.687 46.3999 163.534 46.5234 163.351 46.6147C163.171 46.7038 162.967 46.7483 162.74 46.7483C162.533 46.7483 162.355 46.7138 162.206 46.6448C162.059 46.5735 161.929 46.4756 161.815 46.3509V47.847H161.217V43.3186H161.575C161.659 43.3186 161.711 43.3598 161.732 43.4422L161.785 43.8429Z" fill="#383838"/>
<path d="M167.122 45.1787C166.848 45.1876 166.614 45.2099 166.421 45.2455C166.229 45.2789 166.072 45.3234 165.95 45.3791C165.83 45.4348 165.742 45.5004 165.686 45.5761C165.633 45.6518 165.606 45.7364 165.606 45.8299C165.606 45.919 165.62 45.9958 165.649 46.0604C165.678 46.1249 165.717 46.1784 165.766 46.2207C165.817 46.2607 165.876 46.2908 165.943 46.3108C166.012 46.3286 166.086 46.3375 166.164 46.3375C166.268 46.3375 166.364 46.3275 166.451 46.3075C166.538 46.2852 166.619 46.2541 166.695 46.214C166.772 46.1739 166.846 46.126 166.915 46.0704C166.986 46.0147 167.055 45.9513 167.122 45.88V45.1787ZM165.202 43.7962C165.389 43.6158 165.59 43.4811 165.806 43.3921C166.022 43.303 166.262 43.2585 166.524 43.2585C166.713 43.2585 166.882 43.2897 167.029 43.352C167.175 43.4143 167.299 43.5012 167.399 43.6125C167.499 43.7238 167.575 43.8585 167.626 44.0166C167.678 44.1746 167.703 44.3483 167.703 44.5375V46.7016H167.439C167.381 46.7016 167.337 46.6926 167.306 46.6748C167.275 46.6548 167.25 46.617 167.232 46.5613L167.165 46.2407C167.076 46.3231 166.99 46.3965 166.905 46.4611C166.82 46.5234 166.731 46.5769 166.638 46.6214C166.544 46.6637 166.444 46.696 166.337 46.7183C166.233 46.7427 166.116 46.755 165.987 46.755C165.855 46.755 165.732 46.7372 165.616 46.7016C165.5 46.6637 165.399 46.608 165.312 46.5346C165.227 46.4611 165.159 46.3687 165.108 46.2574C165.059 46.1439 165.035 46.0103 165.035 45.8567C165.035 45.7231 165.072 45.5951 165.145 45.4726C165.218 45.3479 165.338 45.2377 165.502 45.142C165.667 45.0463 165.882 44.9683 166.147 44.9082C166.412 44.8459 166.737 44.8103 167.122 44.8014V44.5375C167.122 44.2748 167.065 44.0767 166.952 43.9431C166.838 43.8073 166.672 43.7394 166.454 43.7394C166.307 43.7394 166.184 43.7583 166.083 43.7962C165.985 43.8318 165.9 43.873 165.826 43.9197C165.755 43.9642 165.693 44.0054 165.639 44.0433C165.588 44.0789 165.537 44.0967 165.486 44.0967C165.446 44.0967 165.411 44.0867 165.382 44.0667C165.353 44.0444 165.329 44.0177 165.309 43.9865L165.202 43.7962Z" fill="#383838"/>
<path d="M172.379 46.2507V47.6834C172.379 47.7413 172.362 47.7858 172.329 47.817C172.298 47.8504 172.256 47.8671 172.205 47.8671H171.841V46.7016H168.943V43.3186H169.54V46.2507H171.163V43.3186H171.761V46.2507H172.379Z" fill="#383838"/>
<path d="M176.216 43.3186V46.7016H175.622V44.4039C175.622 44.3594 175.624 44.3116 175.628 44.2603C175.633 44.2091 175.638 44.1579 175.645 44.1067C175.625 44.1513 175.605 44.1924 175.585 44.2303C175.565 44.2681 175.544 44.3026 175.521 44.3338L173.888 46.5546C173.864 46.5902 173.833 46.6247 173.795 46.6581C173.759 46.6893 173.719 46.7049 173.675 46.7049H173.314V43.3219H173.912V45.6195C173.912 45.6618 173.909 45.7086 173.905 45.7598C173.901 45.8088 173.895 45.8589 173.888 45.9101C173.908 45.8678 173.928 45.8288 173.948 45.7932C173.968 45.7554 173.989 45.7208 174.009 45.6897L175.642 43.4689C175.666 43.4333 175.697 43.3999 175.735 43.3687C175.773 43.3353 175.814 43.3186 175.859 43.3186H176.216Z" fill="#383838"/>
<path d="M179.27 44.8982V43.7193H178.702C178.575 43.7193 178.468 43.7383 178.381 43.7761C178.294 43.8117 178.224 43.8585 178.171 43.9164C178.12 43.972 178.083 44.0355 178.061 44.1067C178.038 44.1758 178.027 44.2448 178.027 44.3138C178.027 44.4963 178.094 44.6399 178.228 44.7446C178.361 44.847 178.544 44.8982 178.775 44.8982H179.27ZM179.837 43.3186V46.7016H179.27V45.2756H179.009C178.947 45.2756 178.894 45.2811 178.852 45.2923C178.812 45.3012 178.776 45.3145 178.745 45.3323C178.716 45.3502 178.691 45.3735 178.669 45.4025C178.646 45.4292 178.623 45.4604 178.598 45.496L177.857 46.4945C177.819 46.5657 177.772 46.6181 177.717 46.6515C177.663 46.6849 177.584 46.7016 177.48 46.7016H177.066L178.047 45.4259C178.128 45.2923 178.233 45.2032 178.365 45.1587C178.193 45.1364 178.048 45.0963 177.93 45.0385C177.812 44.9806 177.716 44.9127 177.64 44.8347C177.566 44.7546 177.513 44.6667 177.48 44.5709C177.446 44.4752 177.43 44.3783 177.43 44.2804C177.43 44.1646 177.452 44.0488 177.496 43.9331C177.543 43.8173 177.617 43.7149 177.717 43.6258C177.817 43.5346 177.946 43.4611 178.104 43.4054C178.264 43.3475 178.458 43.3186 178.685 43.3186H179.837Z" fill="#383838"/>
<path d="M184.459 46.2841C184.682 46.2841 184.858 46.2329 184.987 46.1305C185.116 46.0259 185.181 45.8834 185.181 45.703C185.181 45.6229 185.169 45.5505 185.144 45.486C185.12 45.4192 185.079 45.3613 185.024 45.3123C184.968 45.2633 184.894 45.2255 184.8 45.1988C184.709 45.172 184.596 45.1587 184.463 45.1587H183.731V46.2841H184.459ZM183.731 43.7193V44.7813H184.383C184.481 44.7813 184.571 44.768 184.653 44.7412C184.738 44.7123 184.81 44.6733 184.87 44.6244C184.93 44.5732 184.977 44.513 185.01 44.444C185.044 44.3728 185.061 44.2949 185.061 44.2103C185.061 44.1479 185.049 44.0878 185.027 44.0299C185.005 43.9698 184.967 43.9175 184.914 43.873C184.86 43.8262 184.79 43.7895 184.703 43.7628C184.616 43.7338 184.51 43.7193 184.383 43.7193H183.731ZM184.399 43.3186C184.609 43.3186 184.788 43.3397 184.937 43.382C185.086 43.4244 185.209 43.4822 185.304 43.5557C185.4 43.6269 185.47 43.7115 185.515 43.8095C185.559 43.9075 185.582 44.0121 185.582 44.1234C185.582 44.1969 185.572 44.2737 185.551 44.3539C185.531 44.434 185.496 44.5108 185.445 44.5843C185.396 44.6578 185.328 44.7245 185.241 44.7847C185.156 44.8425 185.049 44.8882 184.92 44.9216C185.179 44.9661 185.378 45.0563 185.518 45.1921C185.658 45.3257 185.728 45.5027 185.728 45.7231C185.728 45.8878 185.695 46.0314 185.628 46.1539C185.564 46.2741 185.474 46.3754 185.358 46.4578C185.244 46.5401 185.111 46.6014 184.957 46.6414C184.803 46.6815 184.639 46.7016 184.463 46.7016H183.16V43.3186H184.399Z" fill="#383838"/>
<path d="M188.641 45.1787C188.367 45.1876 188.134 45.2099 187.94 45.2455C187.748 45.2789 187.591 45.3234 187.469 45.3791C187.349 45.4348 187.261 45.5004 187.205 45.5761C187.152 45.6518 187.125 45.7364 187.125 45.8299C187.125 45.919 187.139 45.9958 187.168 46.0604C187.197 46.1249 187.236 46.1784 187.285 46.2207C187.337 46.2607 187.396 46.2908 187.462 46.3108C187.531 46.3286 187.605 46.3375 187.683 46.3375C187.787 46.3375 187.883 46.3275 187.97 46.3075C188.057 46.2852 188.138 46.2541 188.214 46.214C188.292 46.1739 188.365 46.126 188.434 46.0704C188.505 46.0147 188.574 45.9513 188.641 45.88V45.1787ZM186.721 43.7962C186.908 43.6158 187.109 43.4811 187.325 43.3921C187.541 43.303 187.781 43.2585 188.043 43.2585C188.233 43.2585 188.401 43.2897 188.548 43.352C188.695 43.4143 188.818 43.5012 188.918 43.6125C189.019 43.7238 189.094 43.8585 189.145 44.0166C189.197 44.1746 189.222 44.3483 189.222 44.5375V46.7016H188.958C188.901 46.7016 188.856 46.6926 188.825 46.6748C188.794 46.6548 188.769 46.617 188.751 46.5613L188.685 46.2407C188.596 46.3231 188.509 46.3965 188.424 46.4611C188.34 46.5234 188.25 46.5769 188.157 46.6214C188.063 46.6637 187.963 46.696 187.856 46.7183C187.752 46.7427 187.635 46.755 187.506 46.755C187.374 46.755 187.251 46.7372 187.135 46.7016C187.019 46.6637 186.918 46.608 186.831 46.5346C186.747 46.4611 186.679 46.3687 186.627 46.2574C186.578 46.1439 186.554 46.0103 186.554 45.8567C186.554 45.7231 186.591 45.5951 186.664 45.4726C186.738 45.3479 186.857 45.2377 187.021 45.142C187.186 45.0463 187.401 44.9683 187.666 44.9082C187.931 44.8459 188.256 44.8103 188.641 44.8014V44.5375C188.641 44.2748 188.584 44.0767 188.471 43.9431C188.357 43.8073 188.191 43.7394 187.973 43.7394C187.826 43.7394 187.703 43.7583 187.603 43.7962C187.505 43.8318 187.419 43.873 187.345 43.9197C187.274 43.9642 187.212 44.0054 187.158 44.0433C187.107 44.0789 187.056 44.0967 187.005 44.0967C186.965 44.0967 186.93 44.0867 186.901 44.0667C186.872 44.0444 186.848 44.0177 186.828 43.9865L186.721 43.7962Z" fill="#383838"/>
<path d="M193.28 43.3186V46.7016H192.682V45.1186H191.059V46.7016H190.462V43.3186H191.059V44.6678H192.682V43.3186H193.28Z" fill="#383838"/>
<path d="M197.378 43.3186V46.7016H196.78V45.1186H195.157V46.7016H194.559V43.3186H195.157V44.6678H196.78V43.3186H197.378Z" fill="#383838"/>
<path d="M203.054 43.9197C203.036 43.9442 203.018 43.9631 203 43.9765C202.983 43.9898 202.958 43.9965 202.927 43.9965C202.894 43.9965 202.857 43.9832 202.817 43.9565C202.777 43.9275 202.727 43.8963 202.666 43.8629C202.609 43.8295 202.536 43.7995 202.449 43.7728C202.365 43.7438 202.26 43.7294 202.135 43.7294C201.969 43.7294 201.822 43.7594 201.695 43.8195C201.568 43.8774 201.461 43.962 201.374 44.0733C201.289 44.1847 201.225 44.3194 201.18 44.4774C201.138 44.6355 201.117 44.8125 201.117 45.0084C201.117 45.2132 201.14 45.3958 201.187 45.5561C201.234 45.7142 201.299 45.8477 201.384 45.9568C201.471 46.0637 201.574 46.1461 201.695 46.204C201.817 46.2596 201.954 46.2875 202.105 46.2875C202.25 46.2875 202.369 46.2708 202.463 46.2374C202.556 46.2017 202.633 46.1628 202.693 46.1205C202.756 46.0782 202.807 46.0403 202.847 46.0069C202.889 45.9713 202.93 45.9535 202.97 45.9535C203.019 45.9535 203.057 45.9724 203.084 46.0103L203.251 46.2273C203.177 46.3186 203.094 46.3965 203 46.4611C202.907 46.5257 202.806 46.5802 202.697 46.6247C202.59 46.667 202.477 46.6982 202.359 46.7183C202.241 46.7383 202.121 46.7483 201.999 46.7483C201.787 46.7483 201.59 46.7093 201.407 46.6314C201.227 46.5535 201.07 46.4411 200.937 46.2941C200.803 46.145 200.698 45.9624 200.623 45.7464C200.547 45.5305 200.509 45.2845 200.509 45.0084C200.509 44.7568 200.544 44.5242 200.613 44.3104C200.684 44.0967 200.786 43.913 200.92 43.7594C201.056 43.6036 201.222 43.4822 201.417 43.3954C201.616 43.3086 201.843 43.2652 202.099 43.2652C202.337 43.2652 202.546 43.3041 202.727 43.382C202.909 43.4577 203.071 43.5657 203.211 43.706L203.054 43.9197Z" fill="#383838"/>
<path d="M209.091 46.1372C209.156 46.1372 209.207 46.1561 209.245 46.1939C209.283 46.2318 209.301 46.2808 209.301 46.3409V46.7016H206.109V46.4978C206.109 46.4555 206.118 46.4121 206.136 46.3676C206.153 46.3231 206.181 46.2819 206.219 46.244L207.752 44.7045C207.879 44.5754 207.995 44.4518 208.099 44.3338C208.204 44.2136 208.293 44.0934 208.366 43.9731C208.44 43.8529 208.497 43.7316 208.537 43.6091C208.577 43.4845 208.597 43.352 208.597 43.2117C208.597 43.0715 208.575 42.949 208.53 42.8444C208.486 42.7375 208.424 42.6496 208.346 42.5806C208.271 42.5115 208.18 42.4603 208.076 42.4269C207.971 42.3913 207.859 42.3735 207.739 42.3735C207.616 42.3735 207.504 42.3913 207.401 42.4269C207.299 42.4626 207.208 42.5127 207.127 42.5772C207.05 42.6396 206.984 42.7141 206.93 42.801C206.877 42.8878 206.839 42.9835 206.817 43.0882C206.79 43.1661 206.753 43.2184 206.707 43.2451C206.662 43.2696 206.599 43.2763 206.516 43.2652L206.206 43.2117C206.237 42.9935 206.297 42.801 206.386 42.634C206.477 42.4648 206.591 42.3234 206.727 42.2099C206.865 42.0963 207.022 42.0106 207.198 41.9527C207.373 41.8926 207.564 41.8626 207.769 41.8626C207.971 41.8626 208.16 41.8926 208.336 41.9527C208.512 42.0128 208.665 42.1008 208.794 42.2165C208.923 42.3301 209.024 42.4692 209.098 42.634C209.171 42.7987 209.208 42.9858 209.208 43.195C209.208 43.3731 209.181 43.539 209.128 43.6926C209.074 43.844 209.002 43.9887 208.911 44.1268C208.819 44.2648 208.714 44.3995 208.593 44.5309C208.475 44.6622 208.35 44.7947 208.216 44.9283L206.954 46.2173C207.043 46.1928 207.133 46.1739 207.224 46.1606C207.316 46.145 207.404 46.1372 207.488 46.1372H209.091Z" fill="#383838"/>
<path d="M213.677 44.3104C213.677 44.729 213.631 45.0919 213.54 45.3991C213.451 45.7041 213.328 45.9568 213.173 46.1572C213.017 46.3576 212.832 46.5068 212.618 46.6047C212.407 46.7027 212.18 46.7516 211.937 46.7516C211.692 46.7516 211.464 46.7027 211.252 46.6047C211.043 46.5068 210.86 46.3576 210.705 46.1572C210.549 45.9568 210.426 45.7041 210.337 45.3991C210.248 45.0919 210.204 44.729 210.204 44.3104C210.204 43.8919 210.248 43.529 210.337 43.2218C210.426 42.9145 210.549 42.6607 210.705 42.4603C210.86 42.2577 211.043 42.1075 211.252 42.0095C211.464 41.9115 211.692 41.8626 211.937 41.8626C212.18 41.8626 212.407 41.9115 212.618 42.0095C212.832 42.1075 213.017 42.2577 213.173 42.4603C213.328 42.6607 213.451 42.9145 213.54 43.2218C213.631 43.529 213.677 43.8919 213.677 44.3104ZM213.059 44.3104C213.059 43.9453 213.028 43.6392 212.965 43.3921C212.905 43.1427 212.823 42.9423 212.718 42.791C212.616 42.6396 212.497 42.5316 212.361 42.467C212.225 42.4002 212.084 42.3668 211.937 42.3668C211.79 42.3668 211.649 42.4002 211.513 42.467C211.377 42.5316 211.258 42.6396 211.155 42.791C211.053 42.9423 210.971 43.1427 210.908 43.3921C210.848 43.6392 210.818 43.9453 210.818 44.3104C210.818 44.6756 210.848 44.9817 210.908 45.2288C210.971 45.4759 211.053 45.6752 211.155 45.8266C211.258 45.978 211.377 46.0871 211.513 46.1539C211.649 46.2184 211.79 46.2507 211.937 46.2507C212.084 46.2507 212.225 46.2184 212.361 46.1539C212.497 46.0871 212.616 45.978 212.718 45.8266C212.823 45.6752 212.905 45.4759 212.965 45.2288C213.028 44.9817 213.059 44.6756 213.059 44.3104Z" fill="#383838"/>
<path d="M217.885 44.3104C217.885 44.729 217.839 45.0919 217.748 45.3991C217.659 45.7041 217.537 45.9568 217.381 46.1572C217.225 46.3576 217.04 46.5068 216.826 46.6047C216.615 46.7027 216.388 46.7516 216.145 46.7516C215.9 46.7516 215.672 46.7027 215.461 46.6047C215.251 46.5068 215.069 46.3576 214.913 46.1572C214.757 45.9568 214.635 45.7041 214.546 45.3991C214.457 45.0919 214.412 44.729 214.412 44.3104C214.412 43.8919 214.457 43.529 214.546 43.2218C214.635 42.9145 214.757 42.6607 214.913 42.4603C215.069 42.2577 215.251 42.1075 215.461 42.0095C215.672 41.9115 215.9 41.8626 216.145 41.8626C216.388 41.8626 216.615 41.9115 216.826 42.0095C217.04 42.1075 217.225 42.2577 217.381 42.4603C217.537 42.6607 217.659 42.9145 217.748 43.2218C217.839 43.529 217.885 43.8919 217.885 44.3104ZM217.267 44.3104C217.267 43.9453 217.236 43.6392 217.174 43.3921C217.114 43.1427 217.031 42.9423 216.927 42.791C216.824 42.6396 216.705 42.5316 216.569 42.467C216.434 42.4002 216.292 42.3668 216.145 42.3668C215.998 42.3668 215.857 42.4002 215.721 42.467C215.585 42.5316 215.466 42.6396 215.364 42.791C215.261 42.9423 215.179 43.1427 215.117 43.3921C215.057 43.6392 215.026 43.9453 215.026 44.3104C215.026 44.6756 215.057 44.9817 215.117 45.2288C215.179 45.4759 215.261 45.6752 215.364 45.8266C215.466 45.978 215.585 46.0871 215.721 46.1539C215.857 46.2184 215.998 46.2507 216.145 46.2507C216.292 46.2507 216.434 46.2184 216.569 46.1539C216.705 46.0871 216.824 45.978 216.927 45.8266C217.031 45.6752 217.114 45.4759 217.174 45.2288C217.236 44.9817 217.267 44.6756 217.267 44.3104Z" fill="#383838"/>
<path d="M219.365 43.3219C219.365 43.4733 219.386 43.6091 219.429 43.7294C219.473 43.8474 219.535 43.9475 219.616 44.0299C219.698 44.1123 219.797 44.1746 219.913 44.2169C220.031 44.2592 220.162 44.2804 220.307 44.2804C220.467 44.2804 220.608 44.2548 220.731 44.2036C220.856 44.1501 220.96 44.08 221.045 43.9932C221.129 43.9064 221.194 43.8062 221.239 43.6926C221.283 43.5791 221.305 43.4611 221.305 43.3386C221.305 43.1895 221.281 43.0548 221.232 42.9345C221.185 42.8121 221.119 42.7086 221.035 42.624C220.95 42.5394 220.849 42.4748 220.731 42.4303C220.615 42.3835 220.487 42.3601 220.347 42.3601C220.2 42.3601 220.066 42.3846 219.946 42.4336C219.826 42.4804 219.722 42.546 219.636 42.6307C219.549 42.7153 219.482 42.8166 219.435 42.9345C219.388 43.0525 219.365 43.1817 219.365 43.3219ZM220.754 44.7947C220.803 44.7301 220.849 44.6689 220.891 44.611C220.934 44.5531 220.974 44.4952 221.011 44.4373C220.889 44.5353 220.751 44.6099 220.597 44.6611C220.444 44.7123 220.281 44.7379 220.11 44.7379C219.929 44.7379 219.758 44.7078 219.595 44.6477C219.435 44.5876 219.294 44.4997 219.171 44.3839C219.049 44.2659 218.951 44.1223 218.877 43.9531C218.806 43.7817 218.771 43.5858 218.771 43.3654C218.771 43.1561 218.81 42.9602 218.888 42.7776C218.965 42.595 219.075 42.4358 219.215 42.3C219.355 42.1642 219.522 42.0574 219.716 41.9794C219.909 41.9015 220.122 41.8626 220.354 41.8626C220.583 41.8626 220.791 41.9004 220.978 41.9761C221.165 42.0518 221.325 42.1575 221.459 42.2934C221.593 42.4292 221.695 42.5917 221.766 42.7809C221.84 42.9702 221.876 43.1795 221.876 43.4088C221.876 43.5468 221.863 43.6782 221.836 43.8028C221.812 43.9253 221.775 44.0466 221.726 44.1668C221.679 44.2848 221.621 44.4028 221.552 44.5208C221.483 44.6366 221.406 44.7557 221.319 44.8782L220.153 46.5613C220.124 46.6036 220.083 46.6381 220.03 46.6648C219.976 46.6893 219.915 46.7016 219.846 46.7016H219.298L220.754 44.7947Z" fill="#383838"/>
<path d="M225.293 43.7728H223.697V46.7016H223.099V43.3186H225.293V43.7728Z" fill="#383838"/>
<path d="M225.727 46.3342C225.727 46.2763 225.737 46.2218 225.757 46.1706C225.779 46.1194 225.808 46.0748 225.844 46.037C225.881 45.9991 225.926 45.9691 225.977 45.9468C226.028 45.9246 226.083 45.9134 226.141 45.9134C226.199 45.9134 226.253 45.9246 226.304 45.9468C226.356 45.9691 226.4 45.9991 226.438 46.037C226.476 46.0748 226.506 46.1194 226.528 46.1706C226.551 46.2218 226.562 46.2763 226.562 46.3342C226.562 46.3943 226.551 46.45 226.528 46.5012C226.506 46.5502 226.476 46.5936 226.438 46.6314C226.4 46.6693 226.356 46.6982 226.304 46.7183C226.253 46.7405 226.199 46.7516 226.141 46.7516C226.083 46.7516 226.028 46.7405 225.977 46.7183C225.926 46.6982 225.881 46.6693 225.844 46.6314C225.808 46.5936 225.779 46.5502 225.757 46.5012C225.737 46.45 225.727 46.3943 225.727 46.3342Z" fill="#383838"/>
<defs>
<linearGradient id="paint0_linear_2106_9462" x1="236.197" y1="47.8671" x2="190.585" y2="-62.4367" gradientUnits="userSpaceOnUse">
<stop stop-color="#4054E8"/>
<stop offset="1" stop-color="#5C47FF"/>
</linearGradient>
<linearGradient id="paint1_linear_2106_9462" x1="254.883" y1="23.3009" x2="-8.40652" y2="23.3009" gradientUnits="userSpaceOnUse">
<stop stop-color="#538FFF"/>
<stop offset="1" stop-color="#40A1E8"/>
</linearGradient>
</defs>
</svg>
