<svg width="24" height="25" fill="none" xmlns="http://www.w3.org/2000/svg"><path fill-rule="evenodd" clip-rule="evenodd" d="M5.014 5.112c3.918-3.895 10.248-3.895 14.166 0 1.809 1.897 2.914 4.394 2.814 6.991 0 5.493-4.421 9.888-9.947 9.888-1.607 0-3.215-.4-4.722-1.199L2 22.19l1.407-5.093c-2.21-3.895-1.608-8.79 1.607-11.985Zm10.8 8.689c.377.175.754.35.855.4l.401.2c.101.399.101.798-.1 1.198-.402.599-1.005 1.098-1.708 1.198-.603.1-1.105.1-1.607-.1-.388-.077-.716-.213-1.077-.364-.107-.044-.216-.09-.33-.135-1.708-.8-3.115-2.098-4.22-3.696-.603-.799-.904-1.697-1.005-2.596 0-.8.302-1.498.905-2.098.1-.1.402-.3.603-.3h.502c.2 0 .402 0 .502.7.201.5.704 1.698.804 1.798.1.1.1.3 0 .4 0 .099-.1.299-.201.399-.14.07-.231.188-.308.287-.033.042-.063.082-.094.112-.1.1-.2.3-.1.5.402.599.904 1.198 1.406 1.697a8.22 8.22 0 0 0 2.01 1.199c.2.1.402.1.502-.1.1-.1.251-.3.402-.5.15-.199.301-.399.402-.499.2-.2.402-.2.603-.1.1.05.477.225.854.4Z" fill="#fff"/></svg>