<svg width="24" height="25" fill="none" xmlns="http://www.w3.org/2000/svg"><path fill-rule="evenodd" clip-rule="evenodd" d="M11.25 20.205c-.135 0-.266-.001-.393-.003l-2.775 2.701c-.63.614-1.707.18-1.707-.688v-2.728c-2.201-.91-3.71-2.776-4.142-5.227C2.125 13.646 2 12.668 2 11.197c0-1.47.125-2.448.233-3.062.538-3.049 2.74-5.193 5.872-5.717.63-.106 1.635-.228 3.145-.228h1.5c1.51 0 2.515.122 3.145.228 3.131.524 5.334 2.668 5.872 5.717.108.614.233 1.592.233 3.063 0 1.47-.125 2.448-.233 3.062-.538 3.049-2.74 5.193-5.872 5.717-.63.106-1.635.228-3.145.228h-1.5ZM12.478 6.89l.11.011c2.231.358 3.258 1.46 3.541 3.806.005.04.006.089.007.14.003.184.009.565.401.572h.012a.377.377 0 0 0 .291-.115c.122-.133.114-.33.107-.49v-.008a2.71 2.71 0 0 1-.003-.1c.029-2.399-1.962-4.574-4.26-4.654l-.027.001a.183.183 0 0 1-.027.002c-.021 0-.046-.002-.073-.004h-.012c-.035-.003-.075-.006-.115-.006-.366 0-.435.271-.444.433-.02.374.326.4.492.412Zm.484.521c1.5.19 2.71 1.557 2.698 3.048l-.002.02c-.004.027-.002.067 0 .11v.002c.004.153.014.472-.318.525a.627.627 0 0 1-.095.008c-.356 0-.377-.347-.387-.516v-.012c-.003-.04-.006-.079-.01-.11-.222-1.402-.676-1.899-2.023-2.215a1.407 1.407 0 0 0-.106-.018l-.009-.002c-.144-.02-.323-.046-.425-.191a.435.435 0 0 1-.06-.329c.023-.134.104-.361.412-.361.077.002.153.01.229.026l.096.015Zm2.918 6.212.142.115c.359.286.806.642.56 1.363-.278.822-1.187 1.543-1.945 1.543h-.012a.156.156 0 0 1-.04-.005 2.422 2.422 0 0 0-.095-.024 2.206 2.206 0 0 1-.408-.126c-1.61-.723-2.999-1.685-4.13-2.86-1.154-1.2-2.07-2.654-2.721-4.322-.225-.577-.235-1.131-.027-1.604.216-.488.646-.858 1.246-1.069a.978.978 0 0 1 .691.003c.523.2 1.762 1.962 1.792 2.548.027.516-.353.786-.558.93-.36.256-.426.569-.222 1.048.424.992 1.164 1.744 2.2 2.234.108.056.228.087.35.091.174 0 .316-.09.433-.275.265-.417.585-.629.953-.629.272 0 .56.114.881.35l.178.129c.244.178.495.36.732.56Zm-3.067-4.827c-.13.003-.4.01-.494.297-.044.134-.039.25.016.345.08.14.234.183.374.207.508.085.77.377.821.921.024.254.188.431.398.431a.361.361 0 0 0 .048-.003c.252-.031.375-.225.364-.576.004-.366-.18-.781-.492-1.112-.313-.332-.691-.519-1.035-.51Z" fill="#fff"/></svg>