<svg width="60" height="31" fill="none" xmlns="http://www.w3.org/2000/svg"><g clip-path="url(#a)"><mask id="b" style="mask-type:luminance" maskUnits="userSpaceOnUse" x="0" y="0" width="60" height="31"><path d="M60 0H0v31h60V0Z" fill="#fff"/></mask><g mask="url(#b)" fill="#005596"><path d="M15.478 20.509h4.65c.41 0 .683-.325.683-.793v-.402c-.223.055-.558.08-1.193.08h-1.53l2.661-5.538h-5.233v1.097h2.342l-2.232 4.576c-.198.402-.222.724-.148.98ZM10.84 16.972l1.206 2.505c.336.72.485 1.032 1.244 1.032h1.716c-.099-.084-.188-.257-.361-.59l-1.755-3.486 2.053-2.577h-1.827l-2.275 3.116ZM8.59 20.509h2.127v-7.954c0-.825-.56-1.36-1.33-1.36H8.59v9.314ZM7.645 19.906 5.52 13.08c-.249-.816-.51-1.19-1.554-1.19H2.958L0 20.51h1.342l.675-2.132h2.848l.406 1.38c.15.508.336.734.846.734h1.79c-.086-.093-.15-.252-.262-.586ZM2.35 17.335l1.143-3.607 1.066 3.607h-2.21ZM24.406 20.666c1.765 0 3.268-1.363 3.268-3.624 0-1.929-1.428-3.358-3.231-3.358-1.79 0-3.285 1.403-3.285 3.666 0 1.991 1.495 3.316 3.248 3.316Zm.023-1.229c-.72 0-.981-.898-.981-2.302 0-1.338.25-2.249.981-2.249.723 0 .957.964.957 2.368 0 1.328-.234 2.183-.957 2.183ZM28.63 20.509h1.33v-5.496l3.38 4.383c.473.618.784 1.113 1.294 1.113h.968v-7.897c0-.455-.285-.748-.72-.748h-.584v5.197l-3.25-4.183c-.484-.626-.733-1.014-1.44-1.014h-.977v8.645ZM39.768 20.666c1.766 0 3.271-1.363 3.271-3.624 0-1.926-1.43-3.358-3.233-3.358-1.79 0-3.282 1.403-3.282 3.666 0 1.993 1.491 3.316 3.244 3.316Zm.026-1.229c-.722 0-.983-.898-.983-2.302 0-1.338.248-2.249.983-2.249.72 0 .956.966.956 2.37 0 1.326-.236 2.181-.956 2.181ZM56.95 17.308c.039-.266.051-.534.051-.775 0-1.58-1.081-2.837-2.933-2.837-1.84 0-3.184 1.39-3.184 3.507 0 2.046 1.18 3.464 3.107 3.464 1.929 0 2.623-1.083 2.663-2.128-.413.324-1.045.509-1.755.509-1.077 0-1.773-.661-1.874-1.74h3.926Zm-3.925-.921c.069-.978.419-1.593 1.016-1.593.822 0 .983 1.593.983 1.593h-2ZM47.69 13.763c-.722 0-1.319.281-1.618.602V12.56c0-.829-.547-1.365-1.317-1.365h-.795v9.315h2.486c2.374 0 3.692-1.34 3.692-3.83 0-1.672-1.055-2.916-2.448-2.916Zm-1.295 5.633h-.323v-4.295c.137-.015.25-.028.46-.028.81 0 1.42.805 1.42 1.874 0 1.591-.562 2.45-1.557 2.45ZM57.886 20.509H60v-7.95c0-.829-.56-1.365-1.33-1.365h-.784v9.315Z"/></g></g><defs><clipPath id="a"><path fill="#fff" d="M0 0h60v31H0z"/></clipPath></defs></svg>