<svg xmlns="http://www.w3.org/2000/svg" width="36" height="36" fill="none"><path fill="#42C451" fill-rule="evenodd" d="M7.521 7.382c5.878-5.843 15.372-5.843 21.25 0 2.712 2.847 4.37 6.592 4.22 10.487 0 8.24-6.631 14.831-14.92 14.831-2.412 0-4.823-.599-7.084-1.797L3 33l2.11-7.64C1.794 19.517 2.699 12.176 7.52 7.381Zm16.2 13.034c.566.262 1.131.524 1.282.599l.603.3c.15.599.15 1.198-.15 1.797-.604.9-1.508 1.648-2.563 1.798-.904.15-1.658.15-2.411-.15-.582-.115-1.074-.32-1.615-.546-.16-.066-.324-.135-.495-.203-2.562-1.198-4.672-3.146-6.33-5.543-.904-1.198-1.356-2.547-1.507-3.895 0-1.199.452-2.247 1.357-3.146.15-.15.602-.45.904-.45h.753c.302 0 .603 0 .754 1.05.301.748 1.055 2.546 1.205 2.696.151.15.151.45 0 .6 0 .149-.15.449-.301.598-.21.105-.347.282-.462.43-.05.065-.095.124-.14.17-.152.15-.302.45-.152.749a17.259 17.259 0 0 0 2.11 2.547c.905.749 1.96 1.348 3.015 1.797.3.15.602.15.753-.15.15-.15.377-.449.603-.749.226-.3.452-.599.603-.749.301-.3.603-.3.904-.15.15.075.716.338 1.28.6Z" clip-rule="evenodd"/></svg>