<svg xmlns="http://www.w3.org/2000/svg" width="85" height="31" fill="none"><path fill="#00519E" d="M44.697 19.193c0 1.32-.901 2.047-2.877 2.047h-2.334v-4.146h2.304c2.035 0 2.907.636 2.907 2.1m-.541-6.883c0 1.323-.687 1.901-2.395 1.901h-2.275v-3.67h2.422c1.56 0 2.248.565 2.248 1.77Zm5.121 7.119c0-3.452-3.416-3.988-3.416-3.988s2.817-.636 2.817-3.666c0-3.374-2.339-4.309-7.192-4.309h-6.378v16.848h6.889c5.151 0 7.28-1.143 7.28-4.884M66.114 7.467h-5.185l-2.907 6.953-2.845-6.953h-5.3l5.812 11.077v5.771h4.581v-5.77l5.844-11.078Zm2.397 16.848h4.627V16.04l5.007 8.275h5.481l-5.932-8.901 6.114-7.947h-2.636c-2.13 0-2.875.508-4.195 2.198l-3.839 5.66V7.467H68.51v16.848Z"/><path fill="#009EE0" d="M25.68 14.05c0-4.549-3.597-8.151-8.184-8.151-.62 0-1.24.059-1.862.183 4.28 2.973 7.503 9.334 7.503 13.502v.434c1.55-1.42 2.543-3.6 2.543-5.967Z"/><path fill="#00519E" d="M1.06 19.33c0 5.73 4.341 7.358 9.919 7.358 5.956 0 11.846-2.306 12.159-6.67-1.492 1.37-3.471 2.246-5.643 2.246-4.527 0-8.12-3.553-8.12-8.213a8.187 8.187 0 0 1 6.258-7.969c-1.426-.997-3.04-1.627-4.587-1.627-6.08 0-9.987 9.212-9.987 14.875"/></svg>