<svg xmlns="http://www.w3.org/2000/svg" width="36" height="36" fill="none"><path fill="#1E95D1" d="M18 3c8.284 0 15 6.716 15 15 0 8.284-6.716 15-15 15-8.284 0-15-6.716-15-15C3 9.716 9.716 3 18 3Zm6.662 9c-.571.01-1.448.311-5.667 2.044-1.478.607-4.432 1.863-8.86 3.768-.72.282-1.097.558-1.131.828-.066.519.69.68 1.642.986.776.249 1.82.54 2.362.552.492.01 1.04-.19 1.647-.601 4.139-2.758 6.275-4.152 6.409-4.182.095-.021.226-.048.314.03.09.078.08.225.071.265-.075.317-3.963 3.808-4.186 4.037l-.108.108c-.824.814-1.657 1.346-.22 2.281 1.299.845 2.054 1.383 3.391 2.249.855.553 1.525 1.209 2.407 1.128.406-.037.825-.413 1.038-1.537.504-2.657 1.493-8.413 1.722-10.785a2.617 2.617 0 0 0-.026-.59.63.63 0 0 0-.216-.406c-.182-.146-.463-.177-.589-.175Z"/></svg>