<svg width="24" height="24" fill="none" xmlns="http://www.w3.org/2000/svg"><path fill-rule="evenodd" clip-rule="evenodd" d="M6.036 4.643c.034 1.506.054 1.695.246 2.282.115.352.346.85.514 1.108.167.258.903 1.181 1.636 2.052.732.87 1.38 1.698 1.438 1.838.058.14.106.41.106.598 0 .245-.065.445-.229.696-.126.193-.82 1.064-1.54 1.935-.825.995-1.417 1.79-1.595 2.138-.155.304-.339.75-.408.99-.087.305-.136.922-.164 2.077L6 22h12.703l-.04-1.643c-.028-1.155-.077-1.771-.165-2.078a6.883 6.883 0 0 0-.407-.99c-.178-.348-.77-1.142-1.595-2.137-.721-.87-1.415-1.742-1.54-1.935-.164-.251-.23-.45-.23-.696 0-.188.048-.457.107-.598.058-.14.706-.967 1.438-1.838.732-.87 1.468-1.794 1.636-2.052.167-.258.398-.756.514-1.108.192-.587.212-.776.245-2.282L18.703 3H6l.036 1.643Zm11.036 1.224c-.029.282-.148.697-.276.97-.125.263-.454.753-.732 1.09l-.506.612H9.145l-.506-.612c-.279-.337-.608-.827-.732-1.09a3.477 3.477 0 0 1-.277-.97l-.051-.492h9.545l-.052.492Zm-5.512 7.82v.396H13.143v-.396c0-.217.028-.395.063-.395.034 0 .158.204.276.455.133.284.734 1.08 1.6 2.118.93 1.114 1.48 1.847 1.67 2.225.195.388.297.714.327 1.049l.044.486h-.438c-.395 0-.474-.031-.822-.32a5.75 5.75 0 0 0-.939-.594 7.64 7.64 0 0 0-1.187-.44 5.303 5.303 0 0 0-1.386-.168c-.512 0-.954.053-1.385.167-.348.092-.883.29-1.188.44-.304.151-.727.418-.938.595-.348.289-.427.32-.823.32H7.58l.044-.486c.03-.335.132-.661.327-1.05.19-.377.74-1.11 1.67-2.224.867-1.039 1.468-1.834 1.601-2.118.117-.25.242-.455.276-.455.034 0 .063.178.063.396Zm0 1.584v.396H13.143v-.792H11.56v.396Zm0 1.583v.396H13.143v-.792H11.56v.396Z" fill="#383838"/></svg>