<svg xmlns="http://www.w3.org/2000/svg" width="242" height="62" fill="none"><path fill="url(#a)" d="M18.04 23.8c-.223 6.013 2.683 12.695 8.383 15.367 3.13 1.114 6.482.335 9.835.446 2.011 0 4.135.111 6.147.334 1.788.111 3.576.668 5.252.111.67-.334 1.006-1.002 1.342-1.559.894-1.67 1.34-3.563 1.788-5.345.335-1.336.559-2.561.782-3.898.223-2.672 4.47-2.45 4.47.223-.335 3.007-.782 6.014-1.676 8.909-2.123 7.795-6.594 8.24-13.746 7.684-3.018-.111-6.147.111-9.165.557C19.27 48.745 10.106 36.606 9.1 25.582c-1.565-6.793 8.494-8.687 8.94-1.782Z"/><path fill="url(#b)" d="M17.597 23.243c2.57-.223 5.141.111 7.6 1.002 2.794 1.002 5.365 2.562 8.047 3.787 3.912 1.893 8.158 3.229 12.517 3.118 2.235 0 4.359-.334 6.482-.78a35.005 35.005 0 0 0 8.718-3.563c4.135-2.562.223-8.352-3.912-5.568-6.706 3.34-13.3 3.786-19.893.11-2.794-1.447-5.588-3.229-8.494-4.454-4.247-1.893-9.053-2.56-13.747-2.004-2.123.223-4.358.78-6.37 1.448-2.459.89-5.03 2.116-5.03 5.122.224 4.12 4.36 5.568 7.6 3.453 2.012-1.226 4.247-1.448 6.482-1.67Z"/><path fill="#383838" d="m76.894 37.3-4.792-13.375h4.359l2.924 9.422h.054l2.924-9.422h4.25l-4.792 13.374h-4.927ZM101.45 37.3h-3.736v-2.085h-.054c-.325.74-.849 1.335-1.57 1.787-.723.433-1.58.65-2.573.65-.704 0-1.435-.136-2.193-.407A6.343 6.343 0 0 1 89.24 36c-.614-.578-1.128-1.309-1.544-2.193-.397-.885-.595-1.95-.595-3.195 0-1.01.171-1.95.514-2.816a6.582 6.582 0 0 1 1.49-2.22 6.835 6.835 0 0 1 2.273-1.462c.885-.36 1.86-.541 2.924-.541 1.047 0 2.013.171 2.897.514a5.934 5.934 0 0 1 2.247 1.435 6.206 6.206 0 0 1 1.462 2.247c.361.885.542 1.878.542 2.979v6.551Zm-7.148-3.439c.92 0 1.66-.298 2.22-.893.578-.596.867-1.381.867-2.356 0-.974-.289-1.76-.867-2.355-.56-.596-1.3-.894-2.22-.894-.92 0-1.67.298-2.247.894-.56.595-.839 1.38-.839 2.355 0 .975.28 1.76.84 2.356.577.595 1.326.893 2.246.893ZM113.21 37.3v-6.931c0-1.066-.234-1.832-.704-2.302-.469-.47-1.083-.704-1.841-.704s-1.371.235-1.841.704c-.469.47-.704 1.236-.704 2.302v6.93h-4.061v-6.93c0-1.12.154-2.103.461-2.952.325-.848.776-1.552 1.353-2.111a5.524 5.524 0 0 1 2.085-1.3c.812-.289 1.715-.433 2.707-.433.993 0 1.896.144 2.708.433.812.27 1.507.695 2.084 1.273.578.56 1.02 1.263 1.327 2.111.325.849.487 1.841.487 2.979v6.93h-4.061ZM129.019 37.3v-6.931c0-1.066-.234-1.832-.704-2.302-.469-.47-1.083-.704-1.841-.704s-1.371.235-1.841.704c-.469.47-.704 1.236-.704 2.302v6.93h-4.061v-6.93c0-1.12.154-2.103.461-2.952.325-.848.776-1.552 1.353-2.111a5.524 5.524 0 0 1 2.085-1.3c.812-.289 1.715-.433 2.707-.433.993 0 1.896.144 2.708.433.812.27 1.507.695 2.085 1.273.577.56 1.019 1.263 1.326 2.111.325.849.487 1.841.487 2.979v6.93h-4.061ZM149.485 37.3h-3.736v-2.085h-.054c-.325.74-.849 1.335-1.571 1.787-.721.433-1.579.65-2.572.65-.703 0-1.434-.136-2.193-.407A6.344 6.344 0 0 1 137.275 36c-.614-.578-1.128-1.309-1.543-2.193-.397-.885-.596-1.95-.596-3.195 0-1.01.171-1.95.514-2.816a6.593 6.593 0 0 1 1.489-2.22 6.833 6.833 0 0 1 2.275-1.462c.884-.36 1.859-.541 2.924-.541 1.046 0 2.012.171 2.897.514a5.94 5.94 0 0 1 2.247 1.435 6.228 6.228 0 0 1 1.462 2.247c.361.885.541 1.878.541 2.979v6.551Zm-7.147-3.439c.92 0 1.66-.298 2.22-.893.577-.596.866-1.381.866-2.356 0-.974-.289-1.76-.866-2.355-.56-.596-1.3-.894-2.22-.894-.921 0-1.67.298-2.248.894-.559.595-.839 1.38-.839 2.355 0 .975.28 1.76.839 2.356.578.595 1.327.893 2.248.893ZM151.391 31.912v-3.926h8.122v3.926h-8.122ZM161.833 37.3V18.076h4.061v19.222h-4.061ZM178.084 23.925h4.061v6.93c0 1.12-.162 2.104-.487 2.952-.307.848-.749 1.561-1.327 2.139a5.68 5.68 0 0 1-2.085 1.272c-.812.289-1.714.433-2.707.433-.993 0-1.895-.135-2.707-.406a5.69 5.69 0 0 1-2.085-1.272c-.578-.578-1.029-1.29-1.354-2.14-.307-.847-.46-1.84-.46-2.977v-6.931h4.061v6.93c0 1.066.235 1.833.704 2.302.469.47 1.083.704 1.841.704s1.372-.235 1.841-.704c.469-.47.704-1.236.704-2.301v-6.931ZM183.713 37.3l4.549-6.85-4.332-6.525h4.846l2.437 4.196h.054l2.437-4.196h4.737l-4.358 6.525 4.575 6.85h-4.846l-2.653-4.549h-.055l-2.653 4.548h-4.738ZM202.508 37.651c-.74 0-1.363-.243-1.868-.73-.487-.506-.731-1.129-.731-1.869s.244-1.353.731-1.84c.505-.506 1.128-.759 1.868-.759.74 0 1.354.253 1.841.758.505.488.758 1.101.758 1.841s-.253 1.363-.758 1.868c-.487.488-1.101.731-1.841.731ZM207.371 18.077h4.061v7.229h.054c.379-.524.893-.939 1.543-1.246.65-.325 1.408-.487 2.274-.487.704 0 1.435.135 2.193.406a5.85 5.85 0 0 1 2.058 1.273c.632.559 1.146 1.281 1.543 2.165.415.885.623 1.95.623 3.195 0 1.01-.181 1.95-.542 2.816a6.34 6.34 0 0 1-1.489 2.247 7.025 7.025 0 0 1-2.274 1.462c-.884.343-1.85.514-2.897.514-1.065 0-2.039-.162-2.924-.487a6.755 6.755 0 0 1-2.247-1.435 7.051 7.051 0 0 1-1.462-2.274c-.343-.884-.514-1.877-.514-2.978v-12.4Zm7.147 15.784c.921 0 1.661-.298 2.22-.893.578-.596.867-1.381.867-2.356 0-.974-.289-1.76-.867-2.355-.559-.596-1.299-.894-2.22-.894-.92 0-1.669.298-2.247.894-.559.595-.839 1.38-.839 2.355 0 .975.28 1.76.839 2.356.578.595 1.327.893 2.247.893ZM230.394 33.644c.74 0 1.345-.243 1.814-.73.487-.488.731-1.246.731-2.275v-6.714H237v12.914c0 1.173-.18 2.166-.541 2.978-.343.83-.813 1.507-1.408 2.03-.596.524-1.3.903-2.112 1.138a8.44 8.44 0 0 1-2.572.379 8.54 8.54 0 0 1-2.274-.298 5.996 5.996 0 0 1-1.923-.866 5.278 5.278 0 0 1-1.434-1.462c-.398-.596-.677-1.309-.84-2.14h4.061c.199.452.488.768.867.949.379.198.893.297 1.543.297.902 0 1.552-.225 1.949-.677.415-.433.623-1.164.623-2.193V35.73h-.054a3.975 3.975 0 0 1-1.381 1.245c-.56.307-1.191.46-1.895.46a6.215 6.215 0 0 1-2.112-.378 5.306 5.306 0 0 1-1.868-1.191c-.542-.542-.984-1.237-1.327-2.085-.343-.867-.514-1.914-.514-3.14v-6.715h4.061v6.714c0 1.065.235 1.832.704 2.302.469.469 1.083.703 1.841.703ZM76.024 46.702h-.651v-4.275h-2.391v4.275h-.648v-4.786h3.69v4.786ZM77.985 45.887a.96.96 0 0 0 .357.31c.13.06.274.09.434.09.316 0 .559-.112.728-.337.17-.225.254-.545.254-.962 0-.22-.02-.41-.06-.567a1.072 1.072 0 0 0-.167-.388.653.653 0 0 0-.27-.224.9.9 0 0 0-.365-.07.966.966 0 0 0-.51.134 1.477 1.477 0 0 0-.401.377v1.637Zm-.03-2.044c.142-.176.307-.317.494-.424.187-.107.4-.16.641-.16.196 0 .373.037.531.113.158.074.293.184.404.33.111.145.197.326.257.542.06.216.09.464.09.744 0 .25-.033.482-.1.698a1.68 1.68 0 0 1-.29.558c-.125.156-.279.28-.461.37-.18.09-.384.134-.611.134-.207 0-.385-.034-.535-.103a1.281 1.281 0 0 1-.39-.294v1.496h-.598v-4.528h.357c.085 0 .137.04.157.123l.054.4ZM82.884 43.265c.247 0 .47.041.668.124a1.432 1.432 0 0 1 .828.901c.076.214.114.453.114.718 0 .268-.038.508-.114.722a1.432 1.432 0 0 1-.828.898c-.198.08-.42.12-.668.12-.25 0-.474-.04-.674-.12a1.43 1.43 0 0 1-.508-.35 1.56 1.56 0 0 1-.324-.548 2.212 2.212 0 0 1-.11-.722c0-.265.037-.504.11-.718.076-.216.184-.4.324-.55.14-.152.31-.269.508-.351.2-.083.425-.124.674-.124Zm0 3.02c.334 0 .584-.112.748-.335.165-.225.247-.538.247-.938 0-.403-.082-.717-.247-.942-.164-.225-.414-.337-.748-.337-.169 0-.317.029-.444.087a.839.839 0 0 0-.314.25 1.15 1.15 0 0 0-.187.404c-.04.158-.06.337-.06.538 0 .4.082.713.247.938.167.223.42.334.758.334ZM87.73 46.297c.197-.008.372-.045.523-.11.154-.064.282-.151.385-.26.104-.111.182-.244.233-.398a1.57 1.57 0 0 0 .08-.517 1.58 1.58 0 0 0-.08-.521 1.06 1.06 0 0 0-.617-.661 1.561 1.561 0 0 0-.528-.114v2.551l.003.03Zm-.529-2.581a1.56 1.56 0 0 0-.527.114c-.152.062-.28.149-.384.26-.103.111-.18.245-.234.4-.051.157-.077.33-.077.522 0 .191.026.364.077.517.053.154.131.286.234.398.102.109.23.196.38.26.154.065.33.102.528.11l.004-.02v-2.561Zm.545-.447c.278.01.529.06.751.146.223.087.412.206.568.358.156.151.275.331.357.54.085.208.127.44.127.695 0 .256-.042.49-.127.698a1.528 1.528 0 0 1-.357.538c-.156.15-.345.267-.568.354a2.311 2.311 0 0 1-.751.147v1.122h-.561v-1.122a2.312 2.312 0 0 1-.752-.147 1.705 1.705 0 0 1-.567-.354 1.566 1.566 0 0 1-.361-.538 1.89 1.89 0 0 1-.124-.698c0-.256.042-.487.124-.694.085-.21.205-.39.36-.541a1.68 1.68 0 0 1 .568-.358c.223-.086.473-.135.752-.146v-1.353h.56v1.353ZM92.89 44.641c0-.138-.02-.264-.06-.377a.8.8 0 0 0-.806-.561c-.285 0-.51.083-.678.25-.164.165-.267.394-.307.688h1.85Zm.48 1.586a1.16 1.16 0 0 1-.264.234 1.68 1.68 0 0 1-.33.16 1.946 1.946 0 0 1-.36.094 2.103 2.103 0 0 1-.372.033c-.233 0-.45-.039-.647-.117a1.467 1.467 0 0 1-.512-.347 1.624 1.624 0 0 1-.333-.568 2.3 2.3 0 0 1-.12-.774 2 2 0 0 1 .106-.662c.074-.204.178-.381.314-.53a1.41 1.41 0 0 1 .498-.355c.196-.086.416-.13.661-.13.203 0 .39.035.561.104.174.066.323.164.447.294.127.127.227.285.298.474.071.187.107.4.107.641 0 .093-.01.156-.03.187-.02.031-.058.047-.114.047h-2.26c.006.213.035.4.086.557.053.158.127.291.22.398a.91.91 0 0 0 .334.237c.13.051.274.077.434.077.15 0 .278-.017.385-.05a1.916 1.916 0 0 0 .474-.224.262.262 0 0 1 .137-.053.13.13 0 0 1 .113.056l.167.217ZM96.842 43.92a.266.266 0 0 1-.053.056.12.12 0 0 1-.074.02.203.203 0 0 1-.11-.04 1.52 1.52 0 0 0-.15-.093 1.061 1.061 0 0 0-.531-.134c-.167 0-.314.03-.441.09a.847.847 0 0 0-.32.254c-.085.112-.15.246-.194.404a2.055 2.055 0 0 0-.064.531c0 .205.023.388.07.548.047.158.113.292.197.4a.9.9 0 0 0 .31.248c.123.056.26.084.412.084.144 0 .263-.017.357-.05.093-.036.17-.075.23-.117.063-.043.114-.08.154-.114a.195.195 0 0 1 .124-.053.13.13 0 0 1 .113.056l.167.217c-.073.092-.157.17-.25.234a1.593 1.593 0 0 1-.642.257c-.118.02-.238.03-.36.03a1.49 1.49 0 0 1-.591-.117 1.357 1.357 0 0 1-.471-.337 1.605 1.605 0 0 1-.314-.548 2.224 2.224 0 0 1-.114-.738c0-.251.035-.484.104-.698.071-.213.174-.397.307-.55.136-.156.302-.278.498-.365.198-.086.425-.13.681-.13.238 0 .448.04.628.117.182.076.344.184.484.324l-.157.214ZM100.366 43.92a.268.268 0 0 1-.054.056.12.12 0 0 1-.073.02.206.206 0 0 1-.111-.04 1.53 1.53 0 0 0-.15-.093 1.064 1.064 0 0 0-.53-.134c-.168 0-.315.03-.442.09a.847.847 0 0 0-.32.254c-.085.112-.15.246-.194.404a2.055 2.055 0 0 0-.063.531c0 .205.023.388.07.548.047.158.112.292.197.4a.9.9 0 0 0 .31.248c.123.056.26.084.411.084.145 0 .264-.017.358-.05a1.06 1.06 0 0 0 .23-.117c.062-.043.113-.08.154-.114a.193.193 0 0 1 .123-.053c.049 0 .087.018.114.056l.167.217c-.074.092-.157.17-.251.234a1.576 1.576 0 0 1-.641.257c-.118.02-.238.03-.36.03a1.49 1.49 0 0 1-.592-.117 1.356 1.356 0 0 1-.47-.337 1.605 1.605 0 0 1-.315-.548 2.224 2.224 0 0 1-.113-.738c0-.251.034-.484.103-.698.072-.213.174-.397.308-.55.135-.156.301-.278.497-.365.198-.086.425-.13.681-.13.239 0 .448.04.628.117.183.076.344.184.485.324l-.157.214ZM104.437 43.319v3.383h-.595v-2.298a2.67 2.67 0 0 1 .024-.297c-.02.044-.04.085-.06.123a.955.955 0 0 1-.064.104l-1.633 2.22a.58.58 0 0 1-.093.104.18.18 0 0 1-.121.047h-.36v-3.383h.597v2.297c0 .043-.002.09-.006.14-.005.05-.01.1-.017.151a1.88 1.88 0 0 1 .12-.22l1.633-2.221a.506.506 0 0 1 .094-.1.183.183 0 0 1 .123-.05h.358ZM107.136 43.265c.247 0 .47.041.668.124a1.432 1.432 0 0 1 .828.901c.076.214.114.453.114.718 0 .268-.038.508-.114.722a1.432 1.432 0 0 1-.828.898c-.198.08-.421.12-.668.12a1.8 1.8 0 0 1-.674-.12 1.432 1.432 0 0 1-.508-.35 1.57 1.57 0 0 1-.324-.548 2.223 2.223 0 0 1-.11-.722c0-.265.037-.504.11-.718.076-.216.184-.4.324-.55.14-.152.31-.269.508-.351.2-.083.425-.124.674-.124Zm0 3.02c.334 0 .584-.112.748-.335.165-.225.248-.538.248-.938 0-.403-.083-.717-.248-.942-.164-.225-.414-.337-.748-.337-.169 0-.317.029-.444.087a.848.848 0 0 0-.314.25 1.17 1.17 0 0 0-.187.404c-.04.158-.06.337-.06.538 0 .4.083.713.247.938.167.223.42.334.758.334ZM112.653 43.319v3.383h-.598v-1.583h-1.623v1.583h-.598v-3.383h.598v1.349h1.623v-1.35h.598ZM115.765 45.179a4.797 4.797 0 0 0-.701.066 1.96 1.96 0 0 0-.471.134.657.657 0 0 0-.264.197.426.426 0 0 0-.08.254c0 .089.014.166.043.23a.454.454 0 0 0 .117.16c.051.04.11.07.177.09a.876.876 0 0 0 .22.027c.105 0 .201-.01.288-.03a1.297 1.297 0 0 0 .464-.237c.071-.055.14-.119.207-.19v-.701Zm-1.92-1.383c.187-.18.388-.315.604-.404.216-.089.455-.134.718-.134.189 0 .357.032.504.094a1.033 1.033 0 0 1 .598.665c.051.158.077.331.077.52v2.165h-.264a.276.276 0 0 1-.134-.027c-.031-.02-.055-.058-.073-.114l-.067-.32a3.741 3.741 0 0 1-.26.22 1.672 1.672 0 0 1-.267.16 1.452 1.452 0 0 1-.301.097 1.553 1.553 0 0 1-.351.037c-.131 0-.255-.018-.37-.053a.802.802 0 0 1-.508-.444 1.006 1.006 0 0 1-.073-.401.73.73 0 0 1 .11-.384.953.953 0 0 1 .357-.331c.165-.096.38-.174.645-.234.265-.062.59-.098.975-.107v-.264c0-.262-.057-.46-.171-.594-.113-.136-.279-.204-.497-.204-.147 0-.271.02-.371.057a1.33 1.33 0 0 0-.257.124 3.776 3.776 0 0 0-.187.123.267.267 0 0 1-.154.054.176.176 0 0 1-.103-.03.316.316 0 0 1-.074-.08l-.106-.19ZM120.551 46.702h-.595v-2.916h-1.068c-.027.43-.067.802-.12 1.115a5.216 5.216 0 0 1-.194.799 2.22 2.22 0 0 1-.251.534 1.27 1.27 0 0 1-.29.317.857.857 0 0 1-.314.154c-.107.027-.214.04-.321.04-.189 0-.284-.03-.284-.09v-.378h.174a.6.6 0 0 0 .458-.194c.075-.075.148-.18.217-.316.069-.139.131-.317.187-.535.058-.22.107-.486.147-.798.042-.314.074-.686.096-1.115h2.158v3.383ZM123.125 46.267a.988.988 0 0 0 .311-.043.543.543 0 0 0 .351-.32.649.649 0 0 0 .043-.241.652.652 0 0 0-.037-.224.444.444 0 0 0-.123-.187.587.587 0 0 0-.221-.127 1.037 1.037 0 0 0-.334-.047h-.718v1.19h.728Zm-.01-1.623c.234 0 .43.028.588.084.16.055.288.13.384.224a.816.816 0 0 1 .211.324 1.165 1.165 0 0 1-.017.801.929.929 0 0 1-.237.33 1.165 1.165 0 0 1-.388.218 1.67 1.67 0 0 1-.531.077h-1.299v-3.383h.571v1.325h.718ZM128.175 43.319v3.383h-.598v-1.583h-1.623v1.583h-.598v-3.383h.598v1.349h1.623v-1.35h.598ZM131.287 45.179a4.811 4.811 0 0 0-.701.066 1.96 1.96 0 0 0-.471.134.671.671 0 0 0-.264.197.433.433 0 0 0-.08.254c0 .089.014.166.043.23a.454.454 0 0 0 .117.16c.052.04.111.07.177.09a.884.884 0 0 0 .221.027c.104 0 .2-.01.287-.03a1.289 1.289 0 0 0 .464-.237c.071-.055.14-.119.207-.19v-.701Zm-1.92-1.383c.187-.18.388-.315.604-.404.216-.089.456-.134.718-.134.19 0 .358.032.505.094a1.03 1.03 0 0 1 .597.665c.052.158.077.331.077.52v2.165h-.264a.272.272 0 0 1-.133-.027c-.031-.02-.056-.058-.074-.114l-.066-.32a3.529 3.529 0 0 1-.261.22 1.672 1.672 0 0 1-.267.16 1.452 1.452 0 0 1-.301.097 1.538 1.538 0 0 1-.35.037c-.132 0-.255-.018-.371-.053a.898.898 0 0 1-.304-.167.828.828 0 0 1-.204-.278 1.006 1.006 0 0 1-.073-.4.74.74 0 0 1 .11-.384.968.968 0 0 1 .357-.331c.165-.096.38-.174.645-.234.265-.062.59-.098.975-.107v-.264c0-.262-.057-.46-.17-.594-.114-.136-.28-.204-.498-.204-.147 0-.27.02-.37.057a1.34 1.34 0 0 0-.258.124 4.316 4.316 0 0 0-.187.123.266.266 0 0 1-.153.054.18.18 0 0 1-.104-.03.312.312 0 0 1-.073-.08l-.107-.19ZM134.888 44.898V43.72h-.568a.805.805 0 0 0-.321.057.582.582 0 0 0-.21.14.495.495 0 0 0-.11.19.651.651 0 0 0-.034.208c0 .182.067.326.201.43.133.103.316.154.547.154h.495Zm.567-1.58v3.384h-.567v-1.426h-.261a.63.63 0 0 0-.157.016.392.392 0 0 0-.107.04.279.279 0 0 0-.076.07 1.21 1.21 0 0 0-.071.094l-.741.998a.395.395 0 0 1-.14.157.455.455 0 0 1-.237.05h-.414l.981-1.275a.588.588 0 0 1 .318-.267 1.392 1.392 0 0 1-.434-.12 1.043 1.043 0 0 1-.291-.204.742.742 0 0 1-.16-.264.861.861 0 0 1-.05-.29c0-.116.022-.232.066-.348a.825.825 0 0 1 .221-.307c.1-.091.229-.165.387-.22.16-.059.354-.087.581-.087h1.152ZM139.376 45.887a.96.96 0 0 0 .357.31c.13.06.274.09.435.09.316 0 .558-.112.728-.337.169-.225.253-.545.253-.962 0-.22-.02-.41-.06-.567a1.065 1.065 0 0 0-.167-.388.647.647 0 0 0-.27-.224.9.9 0 0 0-.364-.07.965.965 0 0 0-.511.134 1.483 1.483 0 0 0-.401.377v1.637Zm-.03-2.044c.143-.176.307-.317.494-.424a1.27 1.27 0 0 1 .642-.16c.195 0 .372.037.531.113.158.074.292.184.404.33.111.145.197.326.257.542.06.216.09.464.09.744 0 .25-.033.482-.1.698-.067.214-.164.4-.291.558-.124.156-.278.28-.461.37a1.36 1.36 0 0 1-.611.134c-.207 0-.385-.034-.534-.103a1.287 1.287 0 0 1-.391-.294v1.496h-.598v-4.528h.358c.084 0 .137.04.157.123l.053.4ZM145.114 44.641c0-.138-.02-.264-.06-.377a.81.81 0 0 0-.17-.297.724.724 0 0 0-.271-.194.899.899 0 0 0-.364-.07c-.285 0-.511.083-.678.25-.165.165-.267.394-.307.688h1.85Zm.481 1.586c-.074.09-.162.167-.264.234a1.938 1.938 0 0 1-.691.254 2.103 2.103 0 0 1-.371.033c-.234 0-.45-.039-.648-.117a1.468 1.468 0 0 1-.511-.347 1.63 1.63 0 0 1-.334-.568 2.306 2.306 0 0 1-.12-.774c0-.236.036-.457.107-.662.073-.204.178-.381.314-.53.136-.152.302-.27.497-.355a1.62 1.62 0 0 1 .662-.13c.202 0 .389.035.561.104.173.066.323.164.447.294.127.127.226.285.297.474.072.187.107.4.107.641 0 .093-.01.156-.03.187-.02.031-.058.047-.113.047h-2.261c.007.213.035.4.087.557.053.158.127.291.22.398a.915.915 0 0 0 .334.237c.129.051.274.077.434.077.149 0 .277-.017.384-.05a1.934 1.934 0 0 0 .474-.224.263.263 0 0 1 .137-.053c.049 0 .087.018.114.056l.167.217ZM149.067 43.92a.268.268 0 0 1-.054.056.118.118 0 0 1-.073.02.2.2 0 0 1-.11-.04 1.539 1.539 0 0 0-.151-.093 1.06 1.06 0 0 0-.531-.134c-.167 0-.314.03-.44.09a.85.85 0 0 0-.321.254 1.2 1.2 0 0 0-.194.404 2.07 2.07 0 0 0-.063.531c0 .205.023.388.07.548a1.2 1.2 0 0 0 .197.4c.087.108.19.19.311.248a.979.979 0 0 0 .41.084c.145 0 .264-.017.358-.05.093-.036.17-.075.23-.117.062-.043.114-.08.154-.114a.193.193 0 0 1 .123-.053c.049 0 .087.018.114.056l.167.217c-.074.092-.157.17-.251.234a1.547 1.547 0 0 1-.641.257c-.118.02-.238.03-.361.03-.211 0-.408-.039-.591-.117a1.351 1.351 0 0 1-.47-.337 1.587 1.587 0 0 1-.314-.548 2.216 2.216 0 0 1-.114-.738c0-.251.035-.484.104-.698.071-.213.173-.397.307-.55.136-.156.301-.278.497-.365a1.69 1.69 0 0 1 .682-.13c.238 0 .447.04.628.117.182.076.343.184.484.324l-.157.214ZM153.048 43.773h-1.299v2.929h-.595v-2.93h-1.299v-.453h3.193v.454ZM155.749 45.179a4.811 4.811 0 0 0-.701.066 1.988 1.988 0 0 0-.471.134.671.671 0 0 0-.264.197.433.433 0 0 0-.08.254c0 .089.015.166.044.23a.452.452 0 0 0 .116.16c.052.04.111.07.177.09a.884.884 0 0 0 .221.027c.104 0 .2-.01.287-.03a1.289 1.289 0 0 0 .464-.237c.071-.055.141-.119.207-.19v-.701Zm-1.92-1.383c.187-.18.389-.315.605-.404.215-.089.455-.134.718-.134.189 0 .357.032.504.094a1.03 1.03 0 0 1 .598.665c.051.158.076.331.076.52v2.165h-.263a.274.274 0 0 1-.134-.027c-.031-.02-.056-.058-.074-.114l-.066-.32a3.529 3.529 0 0 1-.261.22 1.588 1.588 0 0 1-.267.16 1.553 1.553 0 0 1-.651.134c-.132 0-.255-.018-.371-.053a.898.898 0 0 1-.304-.167.812.812 0 0 1-.203-.278 1.005 1.005 0 0 1-.074-.4.74.74 0 0 1 .11-.384.964.964 0 0 1 .358-.331c.164-.096.379-.174.644-.234.265-.062.59-.098.975-.107v-.264c0-.262-.056-.46-.17-.594-.114-.136-.279-.204-.498-.204-.147 0-.27.02-.37.057a1.302 1.302 0 0 0-.257.124 3.356 3.356 0 0 0-.187.123.271.271 0 0 1-.154.054.18.18 0 0 1-.104-.03.312.312 0 0 1-.073-.08l-.107-.19ZM158.869 46.284c.223 0 .398-.051.528-.154a.52.52 0 0 0 .193-.427.597.597 0 0 0-.037-.217.414.414 0 0 0-.12-.174.567.567 0 0 0-.223-.113 1.22 1.22 0 0 0-.338-.04h-.731v1.125h.728Zm-.728-2.565v1.062h.651a.876.876 0 0 0 .271-.04.703.703 0 0 0 .217-.117.545.545 0 0 0 .14-.18.55.55 0 0 0 .017-.414.372.372 0 0 0-.114-.157.57.57 0 0 0-.21-.11 1.025 1.025 0 0 0-.321-.044h-.651Zm.668-.4c.209 0 .388.02.537.063.15.042.272.1.368.174a.643.643 0 0 1 .21.254.743.743 0 0 1 .067.313c0 .074-.01.15-.03.23a.76.76 0 0 1-.311.43 1.009 1.009 0 0 1-.32.139c.258.044.457.134.598.27a.7.7 0 0 1 .21.531.884.884 0 0 1-.1.43.886.886 0 0 1-.271.305 1.18 1.18 0 0 1-.4.183c-.154.04-.319.06-.495.06h-1.302V43.32h1.239ZM161.815 45.887a.96.96 0 0 0 .357.31c.129.06.274.09.434.09.317 0 .559-.112.729-.337.169-.225.253-.545.253-.962 0-.22-.02-.41-.06-.567a1.065 1.065 0 0 0-.167-.388.647.647 0 0 0-.27-.224.9.9 0 0 0-.364-.07.965.965 0 0 0-.511.134 1.468 1.468 0 0 0-.401.377v1.637Zm-.03-2.044c.142-.176.307-.317.494-.424a1.27 1.27 0 0 1 .641-.16c.196 0 .373.037.531.113.158.074.293.184.404.33.112.145.198.326.258.542.06.216.09.464.09.744 0 .25-.034.482-.1.698-.067.214-.164.4-.291.558-.125.156-.278.28-.461.37a1.36 1.36 0 0 1-.611.134c-.207 0-.385-.034-.534-.103a1.287 1.287 0 0 1-.391-.294v1.496h-.598v-4.528h.358c.084 0 .136.04.157.123l.053.4ZM167.122 45.179a4.797 4.797 0 0 0-.701.066 1.96 1.96 0 0 0-.471.134.671.671 0 0 0-.264.197.433.433 0 0 0-.08.254c0 .089.014.166.043.23a.454.454 0 0 0 .117.16c.051.04.11.07.177.09a.884.884 0 0 0 .221.027c.104 0 .2-.01.287-.03a1.11 1.11 0 0 0 .244-.093 1.33 1.33 0 0 0 .22-.144c.071-.055.14-.119.207-.19v-.701Zm-1.92-1.383c.187-.18.388-.315.604-.404.216-.089.456-.134.718-.134.189 0 .358.032.505.094a1.038 1.038 0 0 1 .597.665c.052.158.077.331.077.52v2.165h-.264a.27.27 0 0 1-.133-.027c-.031-.02-.056-.058-.074-.114l-.067-.32a3.522 3.522 0 0 1-.26.22 1.672 1.672 0 0 1-.267.16 1.452 1.452 0 0 1-.301.097 1.538 1.538 0 0 1-.35.037c-.132 0-.255-.018-.371-.053a.802.802 0 0 1-.508-.444 1.006 1.006 0 0 1-.073-.401.74.74 0 0 1 .11-.384.96.96 0 0 1 .357-.331c.165-.096.38-.174.645-.234.265-.062.59-.098.975-.107v-.264c0-.262-.057-.46-.17-.594-.114-.136-.28-.204-.498-.204-.147 0-.27.02-.371.057a1.33 1.33 0 0 0-.257.124 4.316 4.316 0 0 0-.187.123.266.266 0 0 1-.153.054.18.18 0 0 1-.104-.03.312.312 0 0 1-.073-.08l-.107-.19ZM172.379 46.25v1.433a.175.175 0 0 1-.05.134.162.162 0 0 1-.124.05h-.364v-1.165h-2.898v-3.383h.597v2.932h1.623v-2.932h.598v2.932h.618ZM176.216 43.319v3.383h-.594v-2.298c0-.045.002-.092.006-.144.005-.05.01-.102.017-.153-.02.044-.04.085-.06.123a.82.82 0 0 1-.064.104l-1.633 2.22a.544.544 0 0 1-.093.104.179.179 0 0 1-.12.047h-.361v-3.383h.598v2.297a1.848 1.848 0 0 1-.024.291 1.88 1.88 0 0 1 .121-.22l1.633-2.221a.472.472 0 0 1 .093-.1.184.184 0 0 1 .124-.05h.357ZM179.27 44.898V43.72h-.568a.805.805 0 0 0-.321.057.574.574 0 0 0-.21.14.495.495 0 0 0-.11.19.651.651 0 0 0-.034.208c0 .182.067.326.201.43.133.103.316.154.547.154h.495Zm.567-1.58v3.384h-.567v-1.426h-.261a.625.625 0 0 0-.157.016.279.279 0 0 0-.183.11 1.21 1.21 0 0 0-.071.094l-.741.998a.395.395 0 0 1-.14.157.455.455 0 0 1-.237.05h-.414l.981-1.275a.588.588 0 0 1 .318-.267 1.4 1.4 0 0 1-.435-.12 1.037 1.037 0 0 1-.29-.204.742.742 0 0 1-.16-.264.861.861 0 0 1-.05-.29c0-.116.022-.232.066-.348a.825.825 0 0 1 .221-.307c.1-.091.229-.165.387-.22.16-.059.354-.087.581-.087h1.152ZM184.459 46.284c.223 0 .399-.051.528-.154a.521.521 0 0 0 .194-.427.597.597 0 0 0-.037-.217.424.424 0 0 0-.12-.174.571.571 0 0 0-.224-.113 1.213 1.213 0 0 0-.337-.04h-.732v1.125h.728Zm-.728-2.565v1.062h.652a.865.865 0 0 0 .27-.04.692.692 0 0 0 .217-.117.535.535 0 0 0 .157-.595.37.37 0 0 0-.113-.156.575.575 0 0 0-.211-.11 1.018 1.018 0 0 0-.32-.044h-.652Zm.668-.4c.21 0 .389.02.538.063.149.042.272.1.367.174a.654.654 0 0 1 .211.254.758.758 0 0 1 .067.313c0 .074-.01.15-.031.23a.76.76 0 0 1-.31.43 1.025 1.025 0 0 1-.321.139c.259.044.458.134.598.27a.7.7 0 0 1 .21.531.884.884 0 0 1-.1.43.873.873 0 0 1-.27.305 1.186 1.186 0 0 1-.401.183 1.95 1.95 0 0 1-.494.06h-1.303V43.32h1.239ZM188.641 45.179a4.811 4.811 0 0 0-.701.066 1.96 1.96 0 0 0-.471.134.671.671 0 0 0-.264.197.433.433 0 0 0-.08.254c0 .089.014.166.043.23a.454.454 0 0 0 .117.16c.052.04.111.07.177.09a.884.884 0 0 0 .221.027c.104 0 .2-.01.287-.03a1.289 1.289 0 0 0 .464-.237c.071-.055.14-.119.207-.19v-.701Zm-1.92-1.383c.187-.18.388-.315.604-.404.216-.089.456-.134.718-.134.19 0 .358.032.505.094a1.03 1.03 0 0 1 .597.665c.052.158.077.331.077.52v2.165h-.264a.272.272 0 0 1-.133-.027c-.031-.02-.056-.058-.074-.114l-.066-.32a3.529 3.529 0 0 1-.261.22 1.629 1.629 0 0 1-.267.16 1.452 1.452 0 0 1-.301.097 1.538 1.538 0 0 1-.35.037c-.132 0-.255-.018-.371-.053a.898.898 0 0 1-.304-.167.828.828 0 0 1-.204-.278 1.006 1.006 0 0 1-.073-.4.74.74 0 0 1 .11-.384.968.968 0 0 1 .357-.331c.165-.096.38-.174.645-.234.265-.062.59-.098.975-.107v-.264c0-.262-.057-.46-.17-.594-.114-.136-.28-.204-.498-.204-.147 0-.27.02-.37.057a1.34 1.34 0 0 0-.258.124 4.316 4.316 0 0 0-.187.123.266.266 0 0 1-.153.054.18.18 0 0 1-.104-.03.312.312 0 0 1-.073-.08l-.107-.19ZM193.28 43.319v3.383h-.598v-1.583h-1.623v1.583h-.597v-3.383h.597v1.349h1.623v-1.35h.598ZM197.378 43.319v3.383h-.598v-1.583h-1.623v1.583h-.598v-3.383h.598v1.349h1.623v-1.35h.598ZM203.054 43.92a.268.268 0 0 1-.054.056.118.118 0 0 1-.073.02.203.203 0 0 1-.11-.04c-.04-.029-.09-.06-.151-.093a1.037 1.037 0 0 0-.217-.09.975.975 0 0 0-.314-.044c-.166 0-.313.03-.44.09a.85.85 0 0 0-.321.254 1.2 1.2 0 0 0-.194.404 2.07 2.07 0 0 0-.063.531c0 .205.023.388.07.548a1.2 1.2 0 0 0 .197.4c.087.108.19.19.311.248a.979.979 0 0 0 .41.084c.145 0 .264-.017.358-.05.093-.036.17-.075.23-.117.063-.043.114-.08.154-.114a.193.193 0 0 1 .123-.053c.049 0 .087.018.114.056l.167.217c-.074.092-.157.17-.251.234a1.568 1.568 0 0 1-.641.257 2.15 2.15 0 0 1-.36.03c-.212 0-.409-.039-.592-.117a1.351 1.351 0 0 1-.47-.337 1.587 1.587 0 0 1-.314-.548 2.216 2.216 0 0 1-.114-.738c0-.251.035-.484.104-.698.071-.213.173-.397.307-.55.136-.156.302-.278.497-.365a1.69 1.69 0 0 1 .682-.13c.238 0 .447.04.628.117.182.076.344.184.484.324l-.157.214ZM209.091 46.137c.065 0 .116.02.154.057a.198.198 0 0 1 .056.147v.36h-3.192v-.203c0-.042.009-.086.027-.13a.354.354 0 0 1 .083-.124l1.533-1.54c.127-.129.243-.252.347-.37.105-.12.194-.24.267-.36.074-.121.131-.242.171-.365.04-.125.06-.257.06-.397a.924.924 0 0 0-.067-.368.717.717 0 0 0-.454-.417 1.041 1.041 0 0 0-.337-.053c-.123 0-.235.017-.338.053a.892.892 0 0 0-.584.661c-.027.078-.064.13-.11.157-.045.025-.108.031-.191.02l-.31-.053a1.74 1.74 0 0 1 .18-.578c.091-.17.205-.31.341-.424.138-.114.295-.2.471-.257.175-.06.366-.09.571-.09.202 0 .391.03.567.09.176.06.329.148.458.264.129.113.23.252.304.417.073.165.11.352.11.561 0 .178-.027.344-.08.498a2.019 2.019 0 0 1-.217.434 3.284 3.284 0 0 1-.318.404 9.976 9.976 0 0 1-.377.397l-1.262 1.29a2.233 2.233 0 0 1 .534-.08h1.603ZM213.677 44.31c0 .419-.046.782-.137 1.09a2.265 2.265 0 0 1-.367.757c-.156.2-.341.35-.555.448a1.597 1.597 0 0 1-.681.147 1.487 1.487 0 0 1-1.232-.594 2.247 2.247 0 0 1-.368-.759 3.938 3.938 0 0 1-.133-1.089c0-.418.044-.781.133-1.088.089-.308.212-.561.368-.762.155-.202.338-.352.547-.45.212-.099.44-.147.685-.147.243 0 .47.048.681.147.214.098.399.248.555.45.155.2.278.454.367.762.091.307.137.67.137 1.088Zm-.618 0c0-.365-.031-.67-.094-.918-.06-.25-.142-.45-.247-.601a.903.903 0 0 0-.357-.324.95.95 0 0 0-.848 0 .912.912 0 0 0-.358.324 1.918 1.918 0 0 0-.247.601c-.06.247-.09.553-.09.918 0 .366.03.672.09.919.063.247.145.446.247.598a.94.94 0 0 0 .358.327.977.977 0 0 0 .848 0 .93.93 0 0 0 .357-.327c.105-.152.187-.351.247-.598.063-.247.094-.553.094-.919ZM217.885 44.31c0 .419-.046.782-.137 1.09a2.246 2.246 0 0 1-.367.757c-.156.2-.341.35-.555.448a1.597 1.597 0 0 1-.681.147 1.49 1.49 0 0 1-1.232-.594 2.246 2.246 0 0 1-.367-.759 3.935 3.935 0 0 1-.134-1.089c0-.418.045-.781.134-1.088.089-.308.211-.561.367-.762.156-.202.338-.352.548-.45.211-.099.439-.147.684-.147.243 0 .47.048.681.147.214.098.399.248.555.45.156.2.278.454.367.762.091.307.137.67.137 1.088Zm-.618 0c0-.365-.031-.67-.093-.918-.06-.25-.143-.45-.247-.601a.912.912 0 0 0-.782-.424.95.95 0 0 0-.424.1.903.903 0 0 0-.357.324 1.872 1.872 0 0 0-.247.601 3.96 3.96 0 0 0-.091.918c0 .366.031.672.091.919.062.247.144.446.247.598a.93.93 0 0 0 .357.327.977.977 0 0 0 .848 0 .94.94 0 0 0 .358-.327c.104-.152.187-.351.247-.598.062-.247.093-.553.093-.919ZM219.365 43.322c0 .151.021.287.064.407a.84.84 0 0 0 .187.3.798.798 0 0 0 .297.188c.118.042.249.063.394.063.16 0 .301-.025.424-.076a.91.91 0 0 0 .508-.511 1.062 1.062 0 0 0-.007-.758.884.884 0 0 0-.197-.311.85.85 0 0 0-.304-.194 1.017 1.017 0 0 0-.384-.07c-.147 0-.281.025-.401.074a.865.865 0 0 0-.511.5c-.047.119-.07.248-.07.388Zm1.389 1.473.137-.184a3.01 3.01 0 0 0 .12-.174 1.32 1.32 0 0 1-.414.224 1.528 1.528 0 0 1-1.002-.013 1.256 1.256 0 0 1-.424-.264 1.336 1.336 0 0 1-.294-.43 1.525 1.525 0 0 1-.106-.589 1.48 1.48 0 0 1 .444-1.065 1.53 1.53 0 0 1 .501-.32 1.69 1.69 0 0 1 .638-.117c.229 0 .437.037.624.113a1.368 1.368 0 0 1 .788.805c.074.19.11.398.11.628a1.964 1.964 0 0 1-.15.758 2.63 2.63 0 0 1-.174.354 5.311 5.311 0 0 1-.233.357l-1.166 1.683a.32.32 0 0 1-.123.104.44.44 0 0 1-.184.037h-.548l1.456-1.907ZM225.293 43.773h-1.596v2.929h-.598v-3.383h2.194v.454ZM225.727 46.334c0-.058.01-.112.03-.163a.418.418 0 0 1 .771 0 .394.394 0 0 1 .034.163.403.403 0 0 1-.124.297.381.381 0 0 1-.134.087.408.408 0 0 1-.327 0 .377.377 0 0 1-.133-.087.46.46 0 0 1-.087-.13.455.455 0 0 1-.03-.167Z"/><defs><linearGradient id="a" x1="236.197" x2="190.585" y1="47.867" y2="-62.437" gradientUnits="userSpaceOnUse"><stop stop-color="#4054E8"/><stop offset="1" stop-color="#5C47FF"/></linearGradient><linearGradient id="b" x1="254.883" x2="-8.407" y1="23.301" y2="23.301" gradientUnits="userSpaceOnUse"><stop stop-color="#538FFF"/><stop offset="1" stop-color="#40A1E8"/></linearGradient></defs></svg>