<svg width="24" height="25" viewBox="0 0 24 25" fill="none" xmlns="http://www.w3.org/2000/svg">
<path d="M18.4307 4.19158H5.56932C3.0449 4.19158 1 6.29352 1 8.88688V15.494C1 18.0873 3.046 20.1904 5.56932 20.1904H18.4307C20.9551 20.1904 23 18.0873 23 15.494V8.88688C23 6.29352 20.954 4.19043 18.4307 4.19043V4.19158ZM15.3407 12.5112L9.3251 15.4608C9.28841 15.4791 9.24784 15.4875 9.20718 15.4852C9.16652 15.4829 9.12708 15.4699 9.09253 15.4475C9.05799 15.4251 9.02946 15.394 9.0096 15.3571C8.98974 15.3201 8.9792 15.2786 8.97895 15.2362V9.15492C8.97895 8.9705 9.16966 8.85022 9.32951 8.93384L15.3462 12.0667C15.3863 12.0875 15.4199 12.1196 15.4433 12.1593C15.4666 12.199 15.4786 12.2448 15.4781 12.2913C15.4775 12.3378 15.4643 12.3833 15.44 12.4223C15.4157 12.4614 15.3813 12.4915 15.3407 12.5112Z" fill="white"/>
</svg>
