<svg width="275" height="69" viewBox="0 0 275 69" fill="none" xmlns="http://www.w3.org/2000/svg">
<path d="M20.6148 26.0994C20.3571 33.032 23.7071 40.735 30.2781 43.8161C33.8857 45.0999 37.751 44.2013 41.6163 44.3296C43.9354 44.3296 46.3835 44.458 48.7026 44.7148C50.7641 44.8432 52.8256 45.4851 54.7583 44.8432C55.5313 44.458 55.9179 43.6877 56.3044 43.0458C57.3351 41.1201 57.8505 38.9376 58.3659 36.8835C58.7524 35.3429 59.0101 33.9307 59.2678 32.3901C59.5255 29.309 64.4215 29.5657 64.4215 32.6469C64.035 36.1132 63.5196 39.5795 62.4889 42.9174C60.0409 51.9042 54.8871 52.4177 46.6412 51.7758C43.1624 51.6474 39.5548 51.9042 36.076 52.4177C22.0321 54.857 11.4669 40.8633 10.3074 28.1535C8.50355 20.3222 20.0994 18.1397 20.6148 26.0994Z" fill="white"/>
<path d="M20.0995 25.4578C23.0629 25.2011 26.0263 25.5862 28.8608 26.6133C32.0819 27.7687 35.0453 29.566 38.1375 30.9782C42.6471 33.1607 47.5431 34.7013 52.568 34.5729C55.1449 34.5729 57.5929 34.1878 60.0409 33.6743C63.5197 32.7756 66.9984 31.3634 70.0907 29.566C74.8579 26.6133 70.3484 19.9374 65.5812 23.147C57.8506 26.9984 50.2488 27.5119 42.6471 23.2753C39.426 21.6064 36.2049 19.5523 32.855 18.1401C27.9589 15.9576 22.4187 15.1873 17.0072 15.8292C14.5592 16.0859 11.9824 16.7279 9.66318 17.4981C6.82863 18.5252 3.86523 19.9374 3.86523 23.4037C4.12292 28.1538 8.89012 29.8228 12.6266 27.3836C14.9458 25.9714 17.5226 25.7146 20.0995 25.4578Z" fill="white"/>
<path d="M88.2827 43.1948L82.7581 27.776H87.7833L91.1542 38.6379H91.2167L94.5876 27.776H99.4879L93.9633 43.1948H88.2827Z" fill="white"/>
<path d="M116.592 43.1948H112.285V40.7915H112.222C111.848 41.6446 111.244 42.3313 110.412 42.8515C109.58 43.3509 108.591 43.6006 107.447 43.6006C106.635 43.6006 105.793 43.4445 104.919 43.1324C104.045 42.8203 103.244 42.3417 102.515 41.6967C101.808 41.0308 101.215 40.1881 100.736 39.1685C100.279 38.1489 100.05 36.9212 100.05 35.4854C100.05 34.3202 100.247 33.2382 100.643 32.2394C101.059 31.2406 101.631 30.3874 102.359 29.68C103.109 28.9517 103.982 28.3899 104.981 27.9945C106.001 27.5783 107.124 27.3703 108.352 27.3703C109.559 27.3703 110.672 27.5679 111.692 27.9633C112.711 28.3378 113.575 28.8893 114.282 29.6175C115.011 30.325 115.573 31.1886 115.968 32.2082C116.384 33.2278 116.592 34.3722 116.592 35.6415V43.1948ZM108.352 39.2309C109.413 39.2309 110.267 38.8876 110.912 38.2009C111.577 37.5142 111.91 36.6091 111.91 35.4854C111.91 34.3618 111.577 33.4566 110.912 32.77C110.267 32.0833 109.413 31.74 108.352 31.74C107.291 31.74 106.427 32.0833 105.762 32.77C105.116 33.4566 104.794 34.3618 104.794 35.4854C104.794 36.6091 105.116 37.5142 105.762 38.2009C106.427 38.8876 107.291 39.2309 108.352 39.2309Z" fill="white"/>
<path d="M130.15 43.1948V35.2045C130.15 33.9768 129.88 33.0925 129.339 32.5515C128.798 32.0105 128.09 31.74 127.216 31.74C126.342 31.74 125.635 32.0105 125.094 32.5515C124.553 33.0925 124.282 33.9768 124.282 35.2045V43.1948H119.601V35.2045C119.601 33.9144 119.777 32.7804 120.131 31.8024C120.506 30.8244 121.026 30.0129 121.692 29.3678C122.358 28.702 123.159 28.2026 124.095 27.8697C125.031 27.5367 126.072 27.3703 127.216 27.3703C128.361 27.3703 129.401 27.5367 130.338 27.8697C131.274 28.1818 132.075 28.6708 132.741 29.3366C133.407 29.9817 133.917 30.7932 134.27 31.7712C134.645 32.7492 134.832 33.8936 134.832 35.2045V43.1948H130.15Z" fill="white"/>
<path d="M148.376 43.1948V35.2045C148.376 33.9768 148.105 33.0925 147.564 32.5515C147.023 32.0105 146.316 31.74 145.442 31.74C144.568 31.74 143.86 32.0105 143.319 32.5515C142.778 33.0925 142.508 33.9768 142.508 35.2045V43.1948H137.826V35.2045C137.826 33.9144 138.003 32.7804 138.357 31.8024C138.731 30.8244 139.251 30.0129 139.917 29.3678C140.583 28.702 141.384 28.2026 142.321 27.8697C143.257 27.5367 144.297 27.3703 145.442 27.3703C146.586 27.3703 147.627 27.5367 148.563 27.8697C149.499 28.1818 150.3 28.6708 150.966 29.3366C151.632 29.9817 152.142 30.7932 152.496 31.7712C152.87 32.7492 153.058 33.8936 153.058 35.2045V43.1948H148.376Z" fill="white"/>
<path d="M171.97 43.1948H167.662V40.7915H167.6C167.225 41.6446 166.622 42.3313 165.79 42.8515C164.957 43.3509 163.969 43.6006 162.825 43.6006C162.013 43.6006 161.17 43.4445 160.296 43.1324C159.422 42.8203 158.621 42.3417 157.893 41.6967C157.186 41.0308 156.592 40.1881 156.114 39.1685C155.656 38.1489 155.427 36.9212 155.427 35.4854C155.427 34.3202 155.625 33.2382 156.02 32.2394C156.436 31.2406 157.009 30.3874 157.737 29.68C158.486 28.9517 159.36 28.3899 160.359 27.9945C161.378 27.5783 162.502 27.3703 163.73 27.3703C164.937 27.3703 166.05 27.5679 167.069 27.9633C168.089 28.3378 168.953 28.8893 169.66 29.6175C170.388 30.325 170.95 31.1886 171.345 32.2082C171.762 33.2278 171.97 34.3722 171.97 35.6415V43.1948ZM163.73 39.2309C164.791 39.2309 165.644 38.8876 166.289 38.2009C166.955 37.5142 167.288 36.6091 167.288 35.4854C167.288 34.3618 166.955 33.4566 166.289 32.77C165.644 32.0833 164.791 31.74 163.73 31.74C162.668 31.74 161.805 32.0833 161.139 32.77C160.494 33.4566 160.171 34.3618 160.171 35.4854C160.171 36.6091 160.494 37.5142 161.139 38.2009C161.805 38.8876 162.668 39.2309 163.73 39.2309Z" fill="white"/>
<path d="M174.167 36.9836V32.4578H183.53V36.9836H174.167Z" fill="white"/>
<path d="M186.205 43.1948V21.0342H190.887V43.1948H186.205Z" fill="white"/>
<path d="M204.94 27.776H209.622V35.7663C209.622 37.0564 209.435 38.1905 209.06 39.1685C208.706 40.1465 208.197 40.9684 207.531 41.6342C206.865 42.2793 206.064 42.7683 205.127 43.1012C204.191 43.4341 203.151 43.6006 202.006 43.6006C200.862 43.6006 199.821 43.4445 198.885 43.1324C197.949 42.7995 197.147 42.3105 196.482 41.6654C195.816 40.9996 195.295 40.1777 194.921 39.1997C194.567 38.2217 194.39 37.0773 194.39 35.7663V27.776H199.072V35.7663C199.072 36.994 199.343 37.8784 199.884 38.4194C200.425 38.9604 201.132 39.2309 202.006 39.2309C202.88 39.2309 203.588 38.9604 204.129 38.4194C204.67 37.8784 204.94 36.994 204.94 35.7663V27.776Z" fill="white"/>
<path d="M211.43 43.1948L216.673 35.2982L211.679 27.776H217.266L220.076 32.6139H220.138L222.947 27.776H228.409L223.384 35.2982L228.659 43.1948H223.072L220.013 37.9512H219.951L216.892 43.1948H211.43Z" fill="white"/>
<path d="M233.097 43.6006C232.244 43.6006 231.526 43.3197 230.944 42.7579C230.382 42.1752 230.101 41.4574 230.101 40.6042C230.101 39.7511 230.382 39.0436 230.944 38.4818C231.526 37.8992 232.244 37.6079 233.097 37.6079C233.951 37.6079 234.658 37.8992 235.22 38.4818C235.802 39.0436 236.094 39.7511 236.094 40.6042C236.094 41.4574 235.802 42.1752 235.22 42.7579C234.658 43.3197 233.951 43.6006 233.097 43.6006Z" fill="white"/>
<path d="M238.703 21.0342H243.385V29.3678H243.448C243.885 28.7644 244.478 28.2858 245.227 27.9321C245.976 27.5575 246.85 27.3703 247.849 27.3703C248.66 27.3703 249.503 27.5263 250.377 27.8384C251.251 28.1506 252.041 28.6396 252.749 29.3054C253.477 29.9505 254.07 30.7828 254.528 31.8024C255.007 32.822 255.246 34.0497 255.246 35.4854C255.246 36.6507 255.038 37.7327 254.622 38.7315C254.226 39.7303 253.654 40.5938 252.905 41.3221C252.177 42.0296 251.303 42.5914 250.283 43.0076C249.264 43.4029 248.15 43.6006 246.943 43.6006C245.716 43.6006 244.592 43.4133 243.572 43.0388C242.574 42.6434 241.71 42.092 240.982 41.3845C240.274 40.6563 239.713 39.7823 239.296 38.7627C238.901 37.7431 238.703 36.5987 238.703 35.3294V21.0342ZM246.943 39.2309C248.005 39.2309 248.858 38.8876 249.503 38.2009C250.169 37.5142 250.502 36.6091 250.502 35.4854C250.502 34.3618 250.169 33.4566 249.503 32.77C248.858 32.0833 248.005 31.74 246.943 31.74C245.882 31.74 245.019 32.0833 244.353 32.77C243.708 33.4566 243.385 34.3618 243.385 35.4854C243.385 36.6091 243.708 37.5142 244.353 38.2009C245.019 38.8876 245.882 39.2309 246.943 39.2309Z" fill="white"/>
<path d="M265.246 38.9812C266.099 38.9812 266.796 38.7003 267.337 38.1385C267.899 37.5767 268.18 36.7027 268.18 35.5166V27.776H272.861V42.6642C272.861 44.0168 272.653 45.1612 272.237 46.0976C271.842 47.0548 271.301 47.8351 270.614 48.4385C269.928 49.0419 269.116 49.4789 268.18 49.7494C267.264 50.0407 266.276 50.1864 265.214 50.1864C264.299 50.1864 263.425 50.0719 262.593 49.843C261.781 49.635 261.042 49.302 260.377 48.8443C259.732 48.4073 259.18 47.8455 258.722 47.1588C258.265 46.4721 257.942 45.6502 257.755 44.693H262.437C262.665 45.2132 262.998 45.5774 263.435 45.7855C263.872 46.0143 264.465 46.1288 265.214 46.1288C266.255 46.1288 267.004 45.8687 267.462 45.3485C267.94 44.8491 268.18 44.0064 268.18 42.8203V41.3845H268.117C267.701 41.988 267.17 42.4666 266.525 42.8203C265.88 43.174 265.152 43.3509 264.341 43.3509C263.529 43.3509 262.717 43.2053 261.906 42.9139C261.115 42.6226 260.397 42.1648 259.752 41.5406C259.128 40.9164 258.618 40.1152 258.223 39.1373C257.828 38.1385 257.63 36.9316 257.63 35.5166V27.776H262.312V35.5166C262.312 36.7443 262.582 37.6287 263.123 38.1697C263.664 38.7107 264.372 38.9812 265.246 38.9812Z" fill="white"/>
<path d="M90.0504 50.4447H89.4069V46.2207H87.0441V50.4447H86.4039V45.7158H90.0504V50.4447Z" fill="white"/>
<path d="M92.0428 49.6395C92.1506 49.7847 92.2683 49.8871 92.3959 49.9464C92.5235 50.0059 92.6665 50.0355 92.8249 50.0355C93.1373 50.0355 93.3771 49.9244 93.5443 49.7023C93.7115 49.48 93.7951 49.1632 93.7951 48.7518C93.7951 48.534 93.7753 48.347 93.7357 48.1908C93.6983 48.0346 93.6433 47.907 93.5707 47.808C93.4981 47.7068 93.409 47.6331 93.3034 47.5869C93.1978 47.5407 93.0779 47.5176 92.9437 47.5176C92.7523 47.5176 92.584 47.5616 92.4388 47.6497C92.2958 47.7376 92.1638 47.8619 92.0428 48.0225V49.6395ZM92.0131 47.6199C92.1539 47.4461 92.3167 47.3064 92.5015 47.2008C92.6863 47.0952 92.8975 47.0424 93.1351 47.0424C93.3287 47.0424 93.5036 47.0798 93.6598 47.1546C93.816 47.2272 93.9491 47.3361 94.0591 47.4813C94.1691 47.6243 94.2538 47.8025 94.3132 48.0159C94.3726 48.2293 94.4023 48.4746 94.4023 48.7518C94.4023 48.9982 94.3693 49.2281 94.3033 49.4415C94.2373 49.6527 94.1416 49.8364 94.0162 49.9926C93.893 50.1466 93.7412 50.2687 93.5608 50.359C93.3826 50.4469 93.1813 50.4909 92.9569 50.4909C92.7523 50.4909 92.5763 50.4568 92.4289 50.3886C92.2837 50.3182 92.155 50.2214 92.0428 50.0982V51.5766H91.4521V47.1018H91.8052C91.8888 47.1018 91.9405 47.1425 91.9603 47.2239L92.0131 47.6199Z" fill="white"/>
<path d="M96.9394 47.049C97.1835 47.049 97.4035 47.0897 97.5993 47.1711C97.7952 47.2525 97.9623 47.368 98.101 47.5176C98.2395 47.6672 98.3452 47.8487 98.4178 48.0621C98.4926 48.2733 98.53 48.5098 98.53 48.7716C98.53 49.0356 98.4926 49.2732 98.4178 49.4844C98.3452 49.6956 98.2395 49.876 98.101 50.0257C97.9623 50.1752 97.7952 50.2907 97.5993 50.3721C97.4035 50.4513 97.1835 50.4909 96.9394 50.4909C96.6929 50.4909 96.4708 50.4513 96.2728 50.3721C96.077 50.2907 95.9098 50.1752 95.7712 50.0257C95.6326 49.876 95.5259 49.6956 95.4511 49.4844C95.3785 49.2732 95.3421 49.0356 95.3421 48.7716C95.3421 48.5098 95.3785 48.2733 95.4511 48.0621C95.5259 47.8487 95.6326 47.6672 95.7712 47.5176C95.9098 47.368 96.077 47.2525 96.2728 47.1711C96.4708 47.0897 96.6929 47.049 96.9394 47.049ZM96.9394 50.0322C97.2693 50.0322 97.5158 49.9222 97.6786 49.7023C97.8414 49.48 97.9228 49.1709 97.9228 48.7749C97.9228 48.3767 97.8414 48.0665 97.6786 47.8443C97.5158 47.6222 97.2693 47.511 96.9394 47.511C96.7721 47.511 96.6258 47.5396 96.5005 47.5968C96.3773 47.654 96.2738 47.7365 96.1903 47.8443C96.1088 47.9521 96.0472 48.0852 96.0055 48.2436C95.9659 48.3998 95.9461 48.5769 95.9461 48.7749C95.9461 49.1709 96.0275 49.48 96.1903 49.7023C96.3552 49.9222 96.6049 50.0322 96.9394 50.0322Z" fill="white"/>
<path d="M101.782 50.0454C101.978 50.0366 102.15 50.0003 102.3 49.9365C102.452 49.8727 102.578 49.7869 102.679 49.6791C102.783 49.5691 102.86 49.4382 102.91 49.2864C102.963 49.1346 102.99 48.9641 102.99 48.7749C102.99 48.5835 102.963 48.4119 102.91 48.2601C102.86 48.1061 102.783 47.9741 102.679 47.8641C102.578 47.7542 102.452 47.6683 102.3 47.6067C102.15 47.5429 101.977 47.5055 101.779 47.4945V50.0158L101.782 50.0454ZM101.26 47.4945C101.062 47.5055 100.889 47.5429 100.739 47.6067C100.589 47.6683 100.463 47.7542 100.36 47.8641C100.258 47.9741 100.181 48.1061 100.129 48.2601C100.078 48.4141 100.053 48.5857 100.053 48.7749C100.053 48.9641 100.078 49.1346 100.129 49.2864C100.181 49.4382 100.258 49.5691 100.36 49.6791C100.461 49.7869 100.586 49.8727 100.736 49.9365C100.888 50.0003 101.061 50.0366 101.257 50.0454L101.26 50.0257V47.4945ZM101.798 47.0523C102.073 47.0633 102.321 47.1117 102.541 47.1975C102.761 47.2833 102.948 47.401 103.102 47.5506C103.256 47.7002 103.374 47.8784 103.455 48.0852C103.539 48.2898 103.58 48.5187 103.58 48.7716C103.58 49.0247 103.539 49.2545 103.455 49.4613C103.374 49.6659 103.256 49.843 103.102 49.9926C102.948 50.14 102.761 50.2566 102.541 50.3424C102.321 50.4282 102.073 50.4766 101.798 50.4876V51.5965H101.244V50.4876C100.969 50.4766 100.721 50.4282 100.501 50.3424C100.281 50.2566 100.094 50.14 99.9405 49.9926C99.7865 49.843 99.6677 49.6659 99.5841 49.4613C99.5027 49.2545 99.462 49.0247 99.462 48.7716C99.462 48.5187 99.5027 48.2898 99.5841 48.0852C99.6677 47.8784 99.7865 47.7002 99.9405 47.5506C100.094 47.401 100.281 47.2833 100.501 47.1975C100.721 47.1117 100.969 47.0633 101.244 47.0523V45.7158H101.798V47.0523Z" fill="white"/>
<path d="M106.82 50.0454C107.016 50.0366 107.189 50.0003 107.338 49.9365C107.49 49.8727 107.617 49.7869 107.718 49.6791C107.821 49.5691 107.898 49.4382 107.949 49.2864C108.002 49.1346 108.028 48.9641 108.028 48.7749C108.028 48.5835 108.002 48.4119 107.949 48.2601C107.898 48.1061 107.821 47.9741 107.718 47.8641C107.617 47.7542 107.49 47.6683 107.338 47.6067C107.189 47.5429 107.015 47.5055 106.817 47.4945V50.0158L106.82 50.0454ZM106.299 47.4945C106.101 47.5055 105.927 47.5429 105.778 47.6067C105.628 47.6683 105.501 47.7542 105.398 47.8641C105.297 47.9741 105.22 48.1061 105.167 48.2601C105.116 48.4141 105.091 48.5857 105.091 48.7749C105.091 48.9641 105.116 49.1346 105.167 49.2864C105.22 49.4382 105.297 49.5691 105.398 49.6791C105.499 49.7869 105.625 49.8727 105.774 49.9365C105.926 50.0003 106.1 50.0366 106.296 50.0454L106.299 50.0257V47.4945ZM106.837 47.0523C107.112 47.0633 107.359 47.1117 107.579 47.1975C107.799 47.2833 107.986 47.401 108.14 47.5506C108.294 47.7002 108.412 47.8784 108.493 48.0852C108.577 48.2898 108.619 48.5187 108.619 48.7716C108.619 49.0247 108.577 49.2545 108.493 49.4613C108.412 49.6659 108.294 49.843 108.14 49.9926C107.986 50.14 107.799 50.2566 107.579 50.3424C107.359 50.4282 107.112 50.4766 106.837 50.4876V51.5965H106.282V50.4876C106.007 50.4766 105.76 50.4282 105.54 50.3424C105.32 50.2566 105.133 50.14 104.979 49.9926C104.825 49.843 104.706 49.6659 104.623 49.4613C104.541 49.2545 104.5 49.0247 104.5 48.7716C104.5 48.5187 104.541 48.2898 104.623 48.0852C104.706 47.8784 104.825 47.7002 104.979 47.5506C105.133 47.401 105.32 47.2833 105.54 47.1975C105.76 47.1117 106.007 47.0633 106.282 47.0523V45.7158H106.837V47.0523Z" fill="white"/>
<path d="M111.974 48.4086C111.974 48.2722 111.955 48.1479 111.915 48.0357C111.878 47.9213 111.822 47.8234 111.747 47.7421C111.674 47.6584 111.585 47.5946 111.479 47.5506C111.374 47.5044 111.254 47.4813 111.12 47.4813C110.838 47.4813 110.615 47.5638 110.45 47.7288C110.287 47.8916 110.186 48.1182 110.146 48.4086H111.974ZM112.45 49.9761C112.377 50.0641 112.29 50.1412 112.189 50.2071C112.088 50.271 111.979 50.3237 111.862 50.3655C111.748 50.4073 111.629 50.4381 111.506 50.4579C111.383 50.4799 111.261 50.4909 111.14 50.4909C110.909 50.4909 110.695 50.4524 110.499 50.3755C110.306 50.2962 110.137 50.1819 109.994 50.0322C109.854 49.8804 109.744 49.6934 109.664 49.4712C109.585 49.249 109.546 48.9938 109.546 48.7056C109.546 48.4724 109.581 48.2546 109.651 48.0522C109.724 47.8498 109.827 47.6749 109.961 47.5275C110.096 47.3779 110.26 47.2613 110.453 47.1777C110.647 47.0919 110.865 47.049 111.107 47.049C111.307 47.049 111.492 47.0831 111.661 47.1513C111.833 47.2173 111.98 47.3141 112.103 47.4417C112.229 47.5671 112.326 47.7233 112.397 47.9103C112.467 48.0951 112.502 48.3063 112.502 48.5439C112.502 48.6363 112.493 48.6979 112.473 48.7287C112.453 48.7595 112.416 48.7749 112.361 48.7749H110.126C110.133 48.9861 110.162 49.1698 110.212 49.326C110.265 49.4822 110.338 49.6131 110.43 49.7188C110.522 49.8222 110.632 49.9002 110.76 49.953C110.888 50.0036 111.031 50.0289 111.189 50.0289C111.336 50.0289 111.463 50.0124 111.569 49.9795C111.676 49.9442 111.769 49.9068 111.846 49.8672C111.923 49.8276 111.987 49.7913 112.037 49.7584C112.09 49.7231 112.135 49.7055 112.172 49.7055C112.221 49.7055 112.258 49.7242 112.285 49.7616L112.45 49.9761Z" fill="white"/>
<path d="M115.935 47.6959C115.918 47.72 115.9 47.7387 115.883 47.7519C115.865 47.7651 115.841 47.7717 115.81 47.7717C115.777 47.7717 115.741 47.7585 115.701 47.7321C115.662 47.7035 115.612 47.6727 115.553 47.6397C115.495 47.6067 115.424 47.577 115.338 47.5506C115.255 47.522 115.151 47.5077 115.028 47.5077C114.863 47.5077 114.718 47.5374 114.592 47.5968C114.467 47.654 114.361 47.7376 114.276 47.8476C114.192 47.9576 114.128 48.0907 114.084 48.2469C114.042 48.4031 114.021 48.578 114.021 48.7716C114.021 48.974 114.045 49.1544 114.091 49.3129C114.137 49.4691 114.202 49.601 114.285 49.7088C114.371 49.8144 114.474 49.8958 114.592 49.953C114.713 50.008 114.849 50.0355 114.998 50.0355C115.141 50.0355 115.259 50.0191 115.351 49.986C115.444 49.9508 115.52 49.9123 115.579 49.8705C115.641 49.8288 115.691 49.7913 115.731 49.7584C115.773 49.7231 115.813 49.7055 115.853 49.7055C115.901 49.7055 115.939 49.7242 115.965 49.7616L116.13 49.9761C116.058 50.0663 115.975 50.1433 115.883 50.2071C115.79 50.271 115.69 50.3248 115.582 50.3689C115.477 50.4106 115.366 50.4414 115.249 50.4613C115.132 50.481 115.014 50.4909 114.893 50.4909C114.684 50.4909 114.489 50.4524 114.309 50.3755C114.13 50.2985 113.975 50.1873 113.843 50.0421C113.711 49.8947 113.608 49.7143 113.533 49.5009C113.458 49.2875 113.421 49.0444 113.421 48.7716C113.421 48.523 113.455 48.2931 113.523 48.0819C113.594 47.8707 113.695 47.6892 113.827 47.5374C113.961 47.3834 114.125 47.2635 114.318 47.1777C114.514 47.0919 114.739 47.049 114.992 47.049C115.227 47.049 115.434 47.0875 115.612 47.1645C115.792 47.2393 115.952 47.346 116.091 47.4846L115.935 47.6959Z" fill="white"/>
<path d="M120.013 47.1018V50.4447H119.426V48.1743C119.426 48.1303 119.428 48.083 119.433 48.0324C119.437 47.9818 119.442 47.9312 119.449 47.8806C119.429 47.9246 119.409 47.9653 119.39 48.0027C119.37 48.0401 119.349 48.0742 119.327 48.105L117.713 50.2995C117.689 50.3347 117.658 50.3688 117.621 50.4018C117.586 50.4326 117.546 50.448 117.502 50.448H117.146V47.1051H117.736V49.3755C117.736 49.4174 117.734 49.4635 117.73 49.5141C117.725 49.5625 117.72 49.612 117.713 49.6626C117.733 49.6208 117.753 49.5823 117.773 49.5471C117.792 49.5097 117.812 49.4756 117.832 49.4448L119.446 47.2503C119.47 47.2151 119.501 47.1821 119.538 47.1513C119.576 47.1183 119.616 47.1018 119.66 47.1018H120.013Z" fill="white"/>
<path d="M122.736 47.049C122.98 47.049 123.2 47.0897 123.396 47.1711C123.592 47.2525 123.759 47.368 123.898 47.5176C124.036 47.6672 124.142 47.8487 124.214 48.0621C124.289 48.2733 124.327 48.5098 124.327 48.7716C124.327 49.0356 124.289 49.2732 124.214 49.4844C124.142 49.6956 124.036 49.876 123.898 50.0257C123.759 50.1752 123.592 50.2907 123.396 50.3721C123.2 50.4513 122.98 50.4909 122.736 50.4909C122.49 50.4909 122.267 50.4513 122.069 50.3721C121.874 50.2907 121.706 50.1752 121.568 50.0257C121.429 49.876 121.323 49.6956 121.248 49.4844C121.175 49.2732 121.139 49.0356 121.139 48.7716C121.139 48.5098 121.175 48.2733 121.248 48.0621C121.323 47.8487 121.429 47.6672 121.568 47.5176C121.706 47.368 121.874 47.2525 122.069 47.1711C122.267 47.0897 122.49 47.049 122.736 47.049ZM122.736 50.0322C123.066 50.0322 123.312 49.9222 123.475 49.7023C123.638 49.48 123.719 49.1709 123.719 48.7749C123.719 48.3767 123.638 48.0665 123.475 47.8443C123.312 47.6222 123.066 47.511 122.736 47.511C122.569 47.511 122.423 47.5396 122.297 47.5968C122.174 47.654 122.071 47.7365 121.987 47.8443C121.906 47.9521 121.844 48.0852 121.802 48.2436C121.763 48.3998 121.743 48.5769 121.743 48.7749C121.743 49.1709 121.824 49.48 121.987 49.7023C122.152 49.9222 122.402 50.0322 122.736 50.0322Z" fill="white"/>
<path d="M128.242 47.1018V50.4447H127.651V48.8805H126.047V50.4447H125.457V47.1018H126.047V48.435H127.651V47.1018H128.242Z" fill="white"/>
<path d="M131.372 48.9399C131.102 48.9487 130.871 48.9707 130.679 49.0059C130.49 49.0389 130.335 49.083 130.214 49.138C130.095 49.193 130.008 49.2578 129.953 49.3326C129.901 49.4074 129.874 49.491 129.874 49.5834C129.874 49.6714 129.888 49.7473 129.917 49.8111C129.946 49.875 129.984 49.9277 130.033 49.9696C130.083 50.0092 130.141 50.0388 130.207 50.0586C130.276 50.0762 130.348 50.085 130.425 50.085C130.529 50.085 130.623 50.0751 130.709 50.0553C130.795 50.0333 130.875 50.0025 130.95 49.9629C131.027 49.9234 131.1 49.876 131.168 49.821C131.238 49.766 131.306 49.7033 131.372 49.6329V48.9399ZM129.475 47.5737C129.66 47.3955 129.859 47.2624 130.072 47.1744C130.286 47.0864 130.522 47.0424 130.782 47.0424C130.969 47.0424 131.135 47.0732 131.28 47.1348C131.425 47.1964 131.547 47.2822 131.646 47.3922C131.745 47.5022 131.82 47.6353 131.871 47.7915C131.921 47.9478 131.947 48.1194 131.947 48.3064V50.4447H131.686C131.629 50.4447 131.585 50.4359 131.554 50.4183C131.523 50.3985 131.499 50.3611 131.481 50.3061L131.415 49.9893C131.327 50.0707 131.241 50.1433 131.158 50.2071C131.074 50.2687 130.986 50.3215 130.894 50.3655C130.801 50.4073 130.702 50.4392 130.597 50.4613C130.493 50.4854 130.378 50.4976 130.25 50.4976C130.121 50.4976 129.998 50.4799 129.884 50.4447C129.77 50.4073 129.67 50.3523 129.584 50.2797C129.5 50.2071 129.433 50.1158 129.382 50.0058C129.334 49.8936 129.31 49.7616 129.31 49.6098C129.31 49.4778 129.346 49.3513 129.419 49.2304C129.491 49.1072 129.609 48.9982 129.772 48.9036C129.935 48.809 130.147 48.732 130.409 48.6726C130.671 48.611 130.992 48.5758 131.372 48.567V48.3064C131.372 48.0467 131.316 47.8509 131.204 47.7189C131.092 47.5847 130.928 47.5176 130.712 47.5176C130.567 47.5176 130.445 47.5363 130.346 47.5737C130.249 47.6089 130.165 47.6497 130.092 47.6959C130.022 47.7398 129.96 47.7805 129.907 47.8179C129.857 47.8531 129.806 47.8708 129.755 47.8708C129.716 47.8708 129.682 47.8608 129.653 47.841C129.624 47.819 129.6 47.7926 129.58 47.7618L129.475 47.5737Z" fill="white"/>
<path d="M136.157 50.4447H135.569V47.5638H134.513C134.487 47.9884 134.447 48.3559 134.395 48.666C134.342 48.974 134.278 49.2369 134.203 49.4547C134.131 49.6703 134.048 49.8463 133.956 49.9827C133.865 50.1169 133.77 50.2214 133.669 50.2962C133.57 50.371 133.466 50.4216 133.358 50.448C133.253 50.4744 133.147 50.4876 133.042 50.4876C132.855 50.4876 132.761 50.458 132.761 50.3985V50.0257H132.933C133.007 50.0257 133.083 50.0125 133.16 49.986C133.237 49.9596 133.312 49.909 133.385 49.8342C133.46 49.7594 133.531 49.6549 133.599 49.5207C133.667 49.3843 133.729 49.2084 133.784 48.9927C133.841 48.7749 133.89 48.512 133.929 48.204C133.971 47.8938 134.003 47.5264 134.025 47.1018H136.157V50.4447Z" fill="white"/>
<path d="M138.756 50.0158C138.875 50.0158 138.977 50.0014 139.063 49.9728C139.151 49.942 139.223 49.9002 139.28 49.8475C139.338 49.7924 139.381 49.7286 139.409 49.656C139.438 49.5834 139.452 49.5042 139.452 49.4184C139.452 49.3392 139.44 49.2655 139.416 49.1973C139.392 49.1269 139.351 49.0653 139.294 49.0125C139.239 48.9597 139.166 48.9179 139.076 48.8871C138.986 48.8563 138.876 48.841 138.746 48.841H138.036V50.0158H138.756ZM138.746 48.4119C138.977 48.4119 139.17 48.4394 139.327 48.4944C139.485 48.5494 139.612 48.6231 139.706 48.7155C139.803 48.8079 139.872 48.9146 139.914 49.0356C139.956 49.1566 139.977 49.2821 139.977 49.4118C139.977 49.5615 139.95 49.7 139.898 49.8276C139.845 49.953 139.767 50.062 139.663 50.1544C139.56 50.2445 139.432 50.316 139.28 50.3689C139.129 50.4194 138.954 50.4447 138.756 50.4447H137.472V47.1018H138.036V48.4119H138.746Z" fill="white"/>
<path d="M143.8 47.1018V50.4447H143.21V48.8805H141.606V50.4447H141.015V47.1018H141.606V48.435H143.21V47.1018H143.8Z" fill="white"/>
<path d="M146.931 48.9399C146.66 48.9487 146.429 48.9707 146.238 49.0059C146.049 49.0389 145.894 49.083 145.773 49.138C145.654 49.193 145.567 49.2578 145.512 49.3326C145.459 49.4074 145.433 49.491 145.433 49.5834C145.433 49.6714 145.447 49.7473 145.476 49.8111C145.504 49.875 145.543 49.9277 145.591 49.9696C145.642 50.0092 145.7 50.0388 145.766 50.0586C145.834 50.0762 145.907 50.085 145.984 50.085C146.087 50.085 146.182 50.0751 146.268 50.0553C146.353 50.0333 146.434 50.0025 146.508 49.9629C146.585 49.9234 146.658 49.876 146.726 49.821C146.797 49.766 146.865 49.7033 146.931 49.6329V48.9399ZM145.033 47.5737C145.218 47.3955 145.417 47.2624 145.631 47.1744C145.844 47.0864 146.081 47.0424 146.34 47.0424C146.527 47.0424 146.693 47.0732 146.839 47.1348C146.984 47.1964 147.106 47.2822 147.205 47.3922C147.304 47.5022 147.379 47.6353 147.429 47.7915C147.48 47.9478 147.505 48.1194 147.505 48.3064V50.4447H147.244C147.187 50.4447 147.143 50.4359 147.112 50.4183C147.082 50.3985 147.057 50.3611 147.04 50.3061L146.974 49.9893C146.886 50.0707 146.8 50.1433 146.716 50.2071C146.633 50.2687 146.545 50.3215 146.452 50.3655C146.36 50.4073 146.261 50.4392 146.155 50.4613C146.052 50.4854 145.936 50.4976 145.809 50.4976C145.679 50.4976 145.557 50.4799 145.443 50.4447C145.328 50.4073 145.228 50.3523 145.142 50.2797C145.059 50.2071 144.992 50.1158 144.941 50.0058C144.893 49.8936 144.868 49.7616 144.868 49.6098C144.868 49.4778 144.905 49.3513 144.977 49.2304C145.05 49.1072 145.168 48.9982 145.33 48.9036C145.493 48.809 145.705 48.732 145.967 48.6726C146.229 48.611 146.55 48.5758 146.931 48.567V48.3064C146.931 48.0467 146.875 47.8509 146.763 47.7189C146.65 47.5847 146.486 47.5176 146.271 47.5176C146.126 47.5176 146.004 47.5363 145.905 47.5737C145.808 47.6089 145.723 47.6497 145.65 47.6959C145.58 47.7398 145.518 47.7805 145.466 47.8179C145.415 47.8531 145.365 47.8708 145.314 47.8708C145.274 47.8708 145.24 47.8608 145.212 47.841C145.183 47.819 145.159 47.7926 145.139 47.7618L145.033 47.5737Z" fill="white"/>
<path d="M150.544 48.6627V47.4978H149.983C149.857 47.4978 149.752 47.5165 149.666 47.5539C149.58 47.5891 149.511 47.6353 149.458 47.6925C149.407 47.7475 149.371 47.8102 149.349 47.8806C149.327 47.9488 149.316 48.017 149.316 48.0852C149.316 48.2656 149.382 48.4075 149.514 48.5109C149.646 48.6121 149.827 48.6627 150.055 48.6627H150.544ZM151.105 47.1018V50.4447H150.544V49.0356H150.286C150.225 49.0356 150.173 49.0411 150.131 49.0521C150.092 49.0609 150.056 49.0742 150.026 49.0918C149.997 49.1093 149.972 49.1325 149.95 49.161C149.928 49.1875 149.905 49.2183 149.88 49.2534L149.148 50.2401C149.11 50.3105 149.064 50.3622 149.009 50.3952C148.956 50.4282 148.878 50.4447 148.775 50.4447H148.366L149.336 49.1842C149.415 49.0522 149.52 48.9641 149.649 48.9201C149.48 48.8981 149.337 48.8586 149.22 48.8013C149.104 48.7441 149.008 48.677 148.933 48.6C148.861 48.5208 148.808 48.4339 148.775 48.3393C148.742 48.2447 148.725 48.149 148.725 48.0522C148.725 47.9378 148.747 47.8234 148.791 47.709C148.838 47.5946 148.91 47.4934 149.009 47.4054C149.108 47.3152 149.236 47.2426 149.392 47.1876C149.55 47.1304 149.742 47.1018 149.966 47.1018H151.105Z" fill="white"/>
<path d="M155.089 49.6395C155.197 49.7847 155.315 49.8871 155.442 49.9464C155.57 50.0059 155.713 50.0355 155.871 50.0355C156.184 50.0355 156.423 49.9244 156.591 49.7023C156.758 49.48 156.841 49.1632 156.841 48.7518C156.841 48.534 156.822 48.347 156.782 48.1908C156.745 48.0346 156.69 47.907 156.617 47.808C156.544 47.7068 156.455 47.6331 156.35 47.5869C156.244 47.5407 156.124 47.5176 155.99 47.5176C155.799 47.5176 155.63 47.5616 155.485 47.6497C155.342 47.7376 155.21 47.8619 155.089 48.0225V49.6395ZM155.059 47.6199C155.2 47.4461 155.363 47.3064 155.548 47.2008C155.733 47.0952 155.944 47.0424 156.181 47.0424C156.375 47.0424 156.55 47.0798 156.706 47.1546C156.862 47.2272 156.995 47.3361 157.105 47.4813C157.215 47.6243 157.3 47.8025 157.36 48.0159C157.419 48.2293 157.449 48.4746 157.449 48.7518C157.449 48.9982 157.416 49.2281 157.35 49.4415C157.284 49.6527 157.188 49.8364 157.063 49.9926C156.939 50.1466 156.788 50.2687 156.607 50.359C156.429 50.4469 156.228 50.4909 156.003 50.4909C155.799 50.4909 155.623 50.4568 155.475 50.3886C155.33 50.3182 155.201 50.2214 155.089 50.0982V51.5766H154.498V47.1018H154.852C154.935 47.1018 154.987 47.1425 155.007 47.2239L155.059 47.6199Z" fill="white"/>
<path d="M160.814 48.4086C160.814 48.2722 160.794 48.1479 160.755 48.0357C160.717 47.9213 160.661 47.8234 160.586 47.7421C160.514 47.6584 160.425 47.5946 160.319 47.5506C160.213 47.5044 160.093 47.4813 159.959 47.4813C159.678 47.4813 159.454 47.5638 159.289 47.7288C159.127 47.8916 159.025 48.1182 158.986 48.4086H160.814ZM161.289 49.9761C161.217 50.0641 161.13 50.1412 161.028 50.2071C160.927 50.271 160.818 50.3237 160.702 50.3655C160.587 50.4073 160.469 50.4381 160.345 50.4579C160.222 50.4799 160.1 50.4909 159.979 50.4909C159.748 50.4909 159.535 50.4524 159.339 50.3755C159.145 50.2962 158.977 50.1819 158.834 50.0322C158.693 49.8804 158.583 49.6934 158.504 49.4712C158.425 49.249 158.385 48.9938 158.385 48.7056C158.385 48.4724 158.42 48.2546 158.491 48.0522C158.563 47.8498 158.667 47.6749 158.801 47.5275C158.935 47.3779 159.099 47.2613 159.293 47.1777C159.486 47.0919 159.704 47.049 159.946 47.049C160.146 47.049 160.331 47.0831 160.5 47.1513C160.672 47.2173 160.819 47.3141 160.943 47.4417C161.068 47.5671 161.166 47.7233 161.236 47.9103C161.307 48.0951 161.342 48.3063 161.342 48.5439C161.342 48.6363 161.332 48.6979 161.312 48.7287C161.292 48.7595 161.255 48.7749 161.2 48.7749H158.966C158.973 48.9861 159.001 49.1698 159.052 49.326C159.105 49.4822 159.177 49.6131 159.27 49.7188C159.362 49.8222 159.472 49.9002 159.6 49.953C159.727 50.0036 159.87 50.0289 160.029 50.0289C160.176 50.0289 160.302 50.0124 160.408 49.9795C160.516 49.9442 160.608 49.9068 160.685 49.8672C160.762 49.8276 160.826 49.7913 160.877 49.7584C160.929 49.7231 160.975 49.7055 161.012 49.7055C161.06 49.7055 161.098 49.7242 161.124 49.7616L161.289 49.9761Z" fill="white"/>
<path d="M164.775 47.6959C164.757 47.72 164.74 47.7387 164.722 47.7519C164.705 47.7651 164.68 47.7717 164.65 47.7717C164.617 47.7717 164.58 47.7585 164.541 47.7321C164.501 47.7035 164.452 47.6727 164.392 47.6397C164.335 47.6067 164.264 47.577 164.178 47.5506C164.094 47.522 163.991 47.5077 163.868 47.5077C163.702 47.5077 163.557 47.5374 163.432 47.5968C163.307 47.654 163.201 47.7376 163.115 47.8476C163.031 47.9576 162.968 48.0907 162.924 48.2469C162.882 48.4031 162.861 48.578 162.861 48.7716C162.861 48.974 162.884 49.1544 162.93 49.3129C162.977 49.4691 163.041 49.601 163.125 49.7088C163.211 49.8144 163.313 49.8958 163.432 49.953C163.553 50.008 163.688 50.0355 163.838 50.0355C163.981 50.0355 164.099 50.0191 164.191 49.986C164.283 49.9508 164.359 49.9123 164.419 49.8705C164.48 49.8288 164.531 49.7913 164.57 49.7584C164.612 49.7231 164.653 49.7055 164.693 49.7055C164.741 49.7055 164.778 49.7242 164.805 49.7616L164.97 49.9761C164.897 50.0663 164.815 50.1433 164.722 50.2071C164.63 50.271 164.53 50.3248 164.422 50.3689C164.316 50.4106 164.205 50.4414 164.089 50.4613C163.972 50.481 163.853 50.4909 163.732 50.4909C163.523 50.4909 163.328 50.4524 163.148 50.3755C162.97 50.2985 162.815 50.1873 162.683 50.0421C162.551 49.8947 162.447 49.7143 162.373 49.5009C162.298 49.2875 162.26 49.0444 162.26 48.7716C162.26 48.523 162.294 48.2931 162.363 48.0819C162.433 47.8707 162.534 47.6892 162.666 47.5374C162.8 47.3834 162.964 47.2635 163.158 47.1777C163.354 47.0919 163.578 47.049 163.831 47.049C164.067 47.049 164.273 47.0875 164.452 47.1645C164.632 47.2393 164.792 47.346 164.93 47.4846L164.775 47.6959Z" fill="white"/>
<path d="M168.764 47.5506H167.48V50.4447H166.893V47.5506H165.609V47.1018H168.764V47.5506Z" fill="white"/>
<path d="M171.488 48.9399C171.218 48.9487 170.987 48.9707 170.795 49.0059C170.606 49.0389 170.451 49.083 170.33 49.138C170.211 49.193 170.124 49.2578 170.069 49.3326C170.017 49.4074 169.99 49.491 169.99 49.5834C169.99 49.6714 170.005 49.7473 170.033 49.8111C170.062 49.875 170.1 49.9277 170.149 49.9696C170.199 50.0092 170.257 50.0388 170.323 50.0586C170.392 50.0762 170.464 50.085 170.541 50.085C170.645 50.085 170.739 50.0751 170.825 50.0553C170.911 50.0333 170.991 50.0025 171.066 49.9629C171.143 49.9234 171.216 49.876 171.284 49.821C171.354 49.766 171.422 49.7033 171.488 49.6329V48.9399ZM169.591 47.5737C169.776 47.3955 169.975 47.2624 170.188 47.1744C170.402 47.0864 170.638 47.0424 170.898 47.0424C171.085 47.0424 171.251 47.0732 171.396 47.1348C171.541 47.1964 171.663 47.2822 171.762 47.3922C171.861 47.5022 171.936 47.6353 171.987 47.7915C172.037 47.9478 172.063 48.1194 172.063 48.3064V50.4447H171.802C171.745 50.4447 171.701 50.4359 171.67 50.4183C171.639 50.3985 171.615 50.3611 171.597 50.3061L171.531 49.9893C171.443 50.0707 171.357 50.1433 171.274 50.2071C171.19 50.2687 171.102 50.3215 171.01 50.3655C170.917 50.4073 170.818 50.4392 170.713 50.4613C170.609 50.4854 170.494 50.4976 170.366 50.4976C170.237 50.4976 170.115 50.4799 170 50.4447C169.886 50.4073 169.786 50.3523 169.7 50.2797C169.616 50.2071 169.549 50.1158 169.498 50.0058C169.45 49.8936 169.426 49.7616 169.426 49.6098C169.426 49.4778 169.462 49.3513 169.535 49.2304C169.607 49.1072 169.725 48.9982 169.888 48.9036C170.051 48.809 170.263 48.732 170.525 48.6726C170.787 48.611 171.108 48.5758 171.488 48.567V48.3064C171.488 48.0467 171.432 47.8509 171.32 47.7189C171.208 47.5847 171.044 47.5176 170.828 47.5176C170.683 47.5176 170.561 47.5363 170.462 47.5737C170.365 47.6089 170.281 47.6497 170.208 47.6959C170.138 47.7398 170.076 47.7805 170.023 47.8179C169.973 47.8531 169.922 47.8708 169.871 47.8708C169.832 47.8708 169.798 47.8608 169.769 47.841C169.74 47.819 169.716 47.7926 169.697 47.7618L169.591 47.5737Z" fill="white"/>
<path d="M174.626 50.0322C174.846 50.0322 175.02 49.9816 175.147 49.8804C175.275 49.7771 175.339 49.6362 175.339 49.458C175.339 49.3788 175.327 49.3073 175.303 49.2435C175.278 49.1775 175.239 49.1203 175.184 49.0719C175.129 49.0235 175.055 48.9861 174.963 48.9597C174.872 48.9333 174.761 48.9201 174.629 48.9201H173.907V50.0322H174.626ZM173.907 47.4978V48.5472H174.55C174.647 48.5472 174.736 48.534 174.817 48.5076C174.901 48.479 174.973 48.4405 175.032 48.3921C175.091 48.3415 175.138 48.2821 175.171 48.2139C175.204 48.1435 175.22 48.0665 175.22 47.9829C175.22 47.9213 175.209 47.8619 175.187 47.8047C175.165 47.7453 175.128 47.6936 175.075 47.6497C175.022 47.6034 174.953 47.5671 174.867 47.5407C174.781 47.5121 174.676 47.4978 174.55 47.4978H173.907ZM174.567 47.1018C174.773 47.1018 174.951 47.1227 175.098 47.1645C175.245 47.2063 175.366 47.2635 175.461 47.3361C175.556 47.4065 175.625 47.4901 175.669 47.5869C175.713 47.6837 175.735 47.7871 175.735 47.8971C175.735 47.9697 175.725 48.0456 175.705 48.1248C175.685 48.204 175.65 48.2799 175.6 48.3526C175.551 48.4251 175.484 48.4911 175.398 48.5505C175.315 48.6077 175.209 48.6528 175.081 48.6858C175.337 48.7298 175.534 48.8189 175.672 48.9531C175.811 49.0851 175.88 49.26 175.88 49.4778C175.88 49.6406 175.847 49.7825 175.781 49.9035C175.717 50.0224 175.628 50.1224 175.514 50.2038C175.402 50.2852 175.27 50.3457 175.118 50.3853C174.966 50.4249 174.803 50.4447 174.629 50.4447H173.342V47.1018H174.567Z" fill="white"/>
<path d="M177.592 49.6395C177.7 49.7847 177.818 49.8871 177.945 49.9464C178.073 50.0059 178.216 50.0355 178.374 50.0355C178.687 50.0355 178.927 49.9244 179.094 49.7023C179.261 49.48 179.345 49.1632 179.345 48.7518C179.345 48.534 179.325 48.347 179.285 48.1908C179.248 48.0346 179.193 47.907 179.12 47.808C179.048 47.7068 178.958 47.6331 178.853 47.5869C178.747 47.5407 178.627 47.5176 178.493 47.5176C178.302 47.5176 178.133 47.5616 177.988 47.6497C177.845 47.7376 177.713 47.8619 177.592 48.0225V49.6395ZM177.563 47.6199C177.703 47.4461 177.866 47.3064 178.051 47.2008C178.236 47.0952 178.447 47.0424 178.685 47.0424C178.878 47.0424 179.053 47.0798 179.209 47.1546C179.365 47.2272 179.499 47.3361 179.609 47.4813C179.719 47.6243 179.803 47.8025 179.863 48.0159C179.922 48.2293 179.952 48.4746 179.952 48.7518C179.952 48.9982 179.919 49.2281 179.853 49.4415C179.787 49.6527 179.691 49.8364 179.566 49.9926C179.442 50.1466 179.291 50.2687 179.11 50.359C178.932 50.4469 178.731 50.4909 178.506 50.4909C178.302 50.4909 178.126 50.4568 177.978 50.3886C177.833 50.3182 177.704 50.2214 177.592 50.0982V51.5766H177.002V47.1018H177.355C177.438 47.1018 177.49 47.1425 177.51 47.2239L177.563 47.6199Z" fill="white"/>
<path d="M182.891 48.9399C182.621 48.9487 182.39 48.9707 182.198 49.0059C182.009 49.0389 181.854 49.083 181.733 49.138C181.614 49.193 181.527 49.2578 181.472 49.3326C181.42 49.4074 181.393 49.491 181.393 49.5834C181.393 49.6714 181.408 49.7473 181.436 49.8111C181.465 49.875 181.503 49.9277 181.552 49.9696C181.602 50.0092 181.661 50.0388 181.727 50.0586C181.795 50.0762 181.867 50.085 181.944 50.085C182.048 50.085 182.142 50.0751 182.228 50.0553C182.314 50.0333 182.394 50.0025 182.469 49.9629C182.546 49.9234 182.619 49.876 182.687 49.821C182.757 49.766 182.825 49.7033 182.891 49.6329V48.9399ZM180.994 47.5737C181.179 47.3955 181.378 47.2624 181.591 47.1744C181.805 47.0864 182.041 47.0424 182.301 47.0424C182.488 47.0424 182.654 47.0732 182.799 47.1348C182.944 47.1964 183.066 47.2822 183.165 47.3922C183.264 47.5022 183.339 47.6353 183.39 47.7915C183.44 47.9478 183.466 48.1194 183.466 48.3064V50.4447H183.205C183.148 50.4447 183.104 50.4359 183.073 50.4183C183.042 50.3985 183.018 50.3611 183 50.3061L182.934 49.9893C182.846 50.0707 182.761 50.1433 182.677 50.2071C182.593 50.2687 182.505 50.3215 182.413 50.3655C182.321 50.4073 182.222 50.4392 182.116 50.4613C182.013 50.4854 181.897 50.4976 181.769 50.4976C181.64 50.4976 181.518 50.4799 181.403 50.4447C181.289 50.4073 181.189 50.3523 181.103 50.2797C181.019 50.2071 180.952 50.1158 180.902 50.0058C180.853 49.8936 180.829 49.7616 180.829 49.6098C180.829 49.4778 180.865 49.3513 180.938 49.2304C181.01 49.1072 181.128 48.9982 181.291 48.9036C181.454 48.809 181.666 48.732 181.928 48.6726C182.19 48.611 182.511 48.5758 182.891 48.567V48.3064C182.891 48.0467 182.835 47.8509 182.723 47.7189C182.611 47.5847 182.447 47.5176 182.231 47.5176C182.086 47.5176 181.964 47.5363 181.865 47.5737C181.768 47.6089 181.684 47.6497 181.611 47.6959C181.541 47.7398 181.479 47.7805 181.426 47.8179C181.376 47.8531 181.325 47.8708 181.274 47.8708C181.235 47.8708 181.201 47.8608 181.172 47.841C181.144 47.819 181.119 47.7926 181.1 47.7618L180.994 47.5737Z" fill="white"/>
<path d="M188.141 49.9992V51.4149C188.141 51.4721 188.125 51.5161 188.092 51.5469C188.061 51.5799 188.02 51.5965 187.97 51.5965H187.61V50.4447H184.745V47.1018H185.336V49.9992H186.94V47.1018H187.531V49.9992H188.141Z" fill="white"/>
<path d="M191.988 47.1018V50.4447H191.4V48.1743C191.4 48.1303 191.403 48.083 191.407 48.0324C191.411 47.9818 191.417 47.9312 191.423 47.8806C191.404 47.9246 191.384 47.9653 191.364 48.0027C191.344 48.0401 191.323 48.0742 191.301 48.105L189.688 50.2995C189.663 50.3347 189.633 50.3688 189.595 50.4018C189.56 50.4326 189.52 50.448 189.476 50.448H189.12V47.1051H189.711V49.3755C189.711 49.4174 189.709 49.4635 189.704 49.5141C189.7 49.5625 189.694 49.612 189.688 49.6626C189.707 49.6208 189.727 49.5823 189.747 49.5471C189.767 49.5097 189.787 49.4756 189.806 49.4448L191.42 47.2503C191.444 47.2151 191.475 47.1821 191.513 47.1513C191.55 47.1183 191.591 47.1018 191.635 47.1018H191.988Z" fill="white"/>
<path d="M195.06 48.6627V47.4978H194.499C194.374 47.4978 194.268 47.5165 194.182 47.5539C194.097 47.5891 194.027 47.6353 193.975 47.6925C193.924 47.7475 193.888 47.8102 193.866 47.8806C193.844 47.9488 193.833 48.017 193.833 48.0852C193.833 48.2656 193.899 48.4075 194.031 48.5109C194.163 48.6121 194.343 48.6627 194.572 48.6627H195.06ZM195.621 47.1018V50.4447H195.06V49.0356H194.803C194.741 49.0356 194.69 49.0411 194.648 49.0521C194.608 49.0609 194.573 49.0742 194.542 49.0918C194.514 49.1093 194.488 49.1325 194.466 49.161C194.444 49.1875 194.421 49.2183 194.397 49.2534L193.664 50.2401C193.627 50.3105 193.581 50.3622 193.526 50.3952C193.473 50.4282 193.395 50.4447 193.291 50.4447H192.882L193.852 49.1842C193.932 49.0522 194.036 48.9641 194.166 48.9201C193.997 48.8981 193.854 48.8586 193.737 48.8013C193.62 48.7441 193.525 48.677 193.45 48.6C193.377 48.5208 193.324 48.4339 193.291 48.3393C193.258 48.2447 193.242 48.149 193.242 48.0522C193.242 47.9378 193.264 47.8234 193.308 47.709C193.354 47.5946 193.427 47.4934 193.526 47.4054C193.625 47.3152 193.752 47.2426 193.909 47.1876C194.067 47.1304 194.258 47.1018 194.483 47.1018H195.621Z" fill="white"/>
<path d="M200.299 50.0322C200.519 50.0322 200.692 49.9816 200.82 49.8804C200.948 49.7771 201.011 49.6362 201.011 49.458C201.011 49.3788 200.999 49.3073 200.975 49.2435C200.951 49.1775 200.911 49.1203 200.856 49.0719C200.801 49.0235 200.728 48.9861 200.635 48.9597C200.545 48.9333 200.434 48.9201 200.302 48.9201H199.579V50.0322H200.299ZM199.579 47.4978V48.5472H200.223C200.32 48.5472 200.409 48.534 200.49 48.5076C200.574 48.479 200.645 48.4405 200.705 48.3921C200.764 48.3415 200.81 48.2821 200.843 48.2139C200.876 48.1435 200.893 48.0665 200.893 47.9829C200.893 47.9213 200.882 47.8619 200.86 47.8047C200.838 47.7453 200.8 47.6936 200.747 47.6497C200.695 47.6034 200.625 47.5671 200.54 47.5407C200.454 47.5121 200.348 47.4978 200.223 47.4978H199.579ZM200.239 47.1018C200.446 47.1018 200.623 47.1227 200.771 47.1645C200.918 47.2063 201.039 47.2635 201.133 47.3361C201.228 47.4065 201.297 47.4901 201.341 47.5869C201.385 47.6837 201.407 47.7871 201.407 47.8971C201.407 47.9697 201.398 48.0456 201.378 48.1248C201.358 48.204 201.323 48.2799 201.272 48.3526C201.224 48.4251 201.157 48.4911 201.071 48.5505C200.987 48.6077 200.882 48.6528 200.754 48.6858C201.009 48.7298 201.206 48.8189 201.345 48.9531C201.483 49.0851 201.553 49.26 201.553 49.4778C201.553 49.6406 201.52 49.7825 201.454 49.9035C201.39 50.0224 201.301 50.1224 201.186 50.2038C201.074 50.2852 200.942 50.3457 200.79 50.3853C200.639 50.4249 200.476 50.4447 200.302 50.4447H199.015V47.1018H200.239Z" fill="white"/>
<path d="M204.486 48.9399C204.215 48.9487 203.984 48.9707 203.793 49.0059C203.604 49.0389 203.449 49.083 203.328 49.138C203.209 49.193 203.122 49.2578 203.067 49.3326C203.014 49.4074 202.988 49.491 202.988 49.5834C202.988 49.6714 203.002 49.7473 203.031 49.8111C203.059 49.875 203.098 49.9277 203.146 49.9696C203.197 50.0092 203.255 50.0388 203.321 50.0586C203.389 50.0762 203.462 50.085 203.539 50.085C203.642 50.085 203.737 50.0751 203.823 50.0553C203.908 50.0333 203.989 50.0025 204.063 49.9629C204.14 49.9234 204.213 49.876 204.281 49.821C204.352 49.766 204.42 49.7033 204.486 49.6329V48.9399ZM202.588 47.5737C202.773 47.3955 202.972 47.2624 203.186 47.1744C203.399 47.0864 203.636 47.0424 203.895 47.0424C204.082 47.0424 204.248 47.0732 204.393 47.1348C204.539 47.1964 204.661 47.2822 204.76 47.3922C204.859 47.5022 204.934 47.6353 204.984 47.7915C205.035 47.9478 205.06 48.1194 205.06 48.3064V50.4447H204.799C204.742 50.4447 204.698 50.4359 204.667 50.4183C204.637 50.3985 204.612 50.3611 204.595 50.3061L204.529 49.9893C204.441 50.0707 204.355 50.1433 204.271 50.2071C204.188 50.2687 204.1 50.3215 204.007 50.3655C203.915 50.4073 203.816 50.4392 203.71 50.4613C203.607 50.4854 203.491 50.4976 203.364 50.4976C203.234 50.4976 203.112 50.4799 202.998 50.4447C202.883 50.4073 202.783 50.3523 202.697 50.2797C202.614 50.2071 202.547 50.1158 202.496 50.0058C202.448 49.8936 202.423 49.7616 202.423 49.6098C202.423 49.4778 202.46 49.3513 202.532 49.2304C202.605 49.1072 202.723 48.9982 202.885 48.9036C203.048 48.809 203.26 48.732 203.522 48.6726C203.784 48.611 204.105 48.5758 204.486 48.567V48.3064C204.486 48.0467 204.43 47.8509 204.318 47.7189C204.205 47.5847 204.041 47.5176 203.826 47.5176C203.681 47.5176 203.559 47.5363 203.46 47.5737C203.363 47.6089 203.278 47.6497 203.205 47.6959C203.135 47.7398 203.073 47.7805 203.021 47.8179C202.97 47.8531 202.919 47.8708 202.869 47.8708C202.829 47.8708 202.795 47.8608 202.767 47.841C202.738 47.819 202.714 47.7926 202.694 47.7618L202.588 47.5737Z" fill="white"/>
<path d="M209.125 47.1018V50.4447H208.534V48.8805H206.93V50.4447H206.34V47.1018H206.93V48.435H208.534V47.1018H209.125Z" fill="white"/>
<path d="M213.229 47.1018V50.4447H212.638V48.8805H211.034V50.4447H210.444V47.1018H211.034V48.435H212.638V47.1018H213.229Z" fill="white"/>
<path d="M218.948 47.6959C218.93 47.72 218.913 47.7387 218.895 47.7519C218.877 47.7651 218.853 47.7717 218.822 47.7717C218.789 47.7717 218.753 47.7585 218.714 47.7321C218.674 47.7035 218.624 47.6727 218.565 47.6397C218.508 47.6067 218.436 47.577 218.351 47.5506C218.267 47.522 218.164 47.5077 218.04 47.5077C217.875 47.5077 217.73 47.5374 217.605 47.5968C217.479 47.654 217.374 47.7376 217.288 47.8476C217.204 47.9576 217.141 48.0907 217.097 48.2469C217.055 48.4031 217.034 48.578 217.034 48.7716C217.034 48.974 217.057 49.1544 217.103 49.3129C217.149 49.4691 217.214 49.601 217.298 49.7088C217.384 49.8144 217.486 49.8958 217.605 49.953C217.726 50.008 217.861 50.0355 218.011 50.0355C218.154 50.0355 218.271 50.0191 218.364 49.986C218.456 49.9508 218.532 49.9123 218.591 49.8705C218.653 49.8288 218.704 49.7913 218.743 49.7584C218.785 49.7231 218.826 49.7055 218.865 49.7055C218.914 49.7055 218.951 49.7242 218.978 49.7616L219.143 49.9761C219.07 50.0663 218.987 50.1433 218.895 50.2071C218.803 50.271 218.703 50.3248 218.595 50.3689C218.489 50.4106 218.378 50.4414 218.261 50.4613C218.145 50.481 218.026 50.4909 217.905 50.4909C217.696 50.4909 217.501 50.4524 217.321 50.3755C217.143 50.2985 216.988 50.1873 216.856 50.0421C216.724 49.8947 216.62 49.7143 216.545 49.5009C216.471 49.2875 216.433 49.0444 216.433 48.7716C216.433 48.523 216.467 48.2931 216.536 48.0819C216.606 47.8707 216.707 47.6892 216.839 47.5374C216.973 47.3834 217.137 47.2635 217.331 47.1777C217.527 47.0919 217.751 47.049 218.004 47.049C218.239 47.049 218.446 47.0875 218.624 47.1645C218.805 47.2393 218.964 47.346 219.103 47.4846L218.948 47.6959Z" fill="white"/>
<path d="M225.024 49.8871C225.087 49.8871 225.138 49.9057 225.175 49.9431C225.213 49.9805 225.231 50.0289 225.231 50.0883V50.4447H222.077V50.2434C222.077 50.2016 222.085 50.1587 222.103 50.1147C222.121 50.0708 222.148 50.03 222.186 49.9926L223.7 48.4713C223.826 48.3438 223.94 48.2216 224.043 48.105C224.147 47.9862 224.235 47.8675 224.307 47.7486C224.38 47.6298 224.436 47.5099 224.476 47.3889C224.515 47.2657 224.535 47.1348 224.535 46.9962C224.535 46.8576 224.513 46.7366 224.469 46.6332C224.425 46.5276 224.365 46.4407 224.288 46.3725C224.213 46.3043 224.124 46.2537 224.02 46.2207C223.917 46.1855 223.806 46.1679 223.687 46.1679C223.566 46.1679 223.455 46.1855 223.354 46.2207C223.253 46.2559 223.162 46.3054 223.083 46.3692C223.006 46.4308 222.941 46.5045 222.888 46.5903C222.836 46.6761 222.798 46.7707 222.776 46.8741C222.75 46.9511 222.714 47.0028 222.667 47.0292C222.623 47.0534 222.561 47.06 222.479 47.049L222.172 46.9962C222.203 46.7806 222.263 46.5903 222.351 46.4253C222.441 46.2581 222.553 46.1184 222.687 46.0062C222.824 45.894 222.979 45.8093 223.152 45.7521C223.326 45.6927 223.514 45.663 223.717 45.663C223.917 45.663 224.104 45.6927 224.278 45.7521C224.452 45.8115 224.602 45.8984 224.73 46.0128C224.857 46.125 224.958 46.2625 225.03 46.4253C225.103 46.5881 225.139 46.7729 225.139 46.9797C225.139 47.1557 225.113 47.3196 225.06 47.4714C225.007 47.621 224.936 47.764 224.845 47.9004C224.755 48.0368 224.651 48.1699 224.532 48.2997C224.415 48.4296 224.291 48.5604 224.159 48.6924L222.912 49.9662C223 49.942 223.089 49.9233 223.179 49.9101C223.269 49.8947 223.356 49.8871 223.44 49.8871H225.024Z" fill="white"/>
<path d="M229.61 48.0819C229.61 48.4955 229.565 48.8541 229.475 49.1577C229.387 49.4591 229.266 49.7088 229.112 49.9068C228.958 50.1048 228.775 50.2522 228.564 50.349C228.355 50.4458 228.13 50.4942 227.891 50.4942C227.649 50.4942 227.423 50.4458 227.214 50.349C227.007 50.2522 226.827 50.1048 226.673 49.9068C226.519 49.7088 226.398 49.4591 226.31 49.1577C226.222 48.8541 226.178 48.4955 226.178 48.0819C226.178 47.6684 226.222 47.3097 226.31 47.0061C226.398 46.7025 226.519 46.4517 226.673 46.2537C226.827 46.0535 227.007 45.905 227.214 45.8082C227.423 45.7114 227.649 45.663 227.891 45.663C228.13 45.663 228.355 45.7114 228.564 45.8082C228.775 45.905 228.958 46.0535 229.112 46.2537C229.266 46.4517 229.387 46.7025 229.475 47.0061C229.565 47.3097 229.61 47.6684 229.61 48.0819ZM228.999 48.0819C228.999 47.7211 228.969 47.4186 228.907 47.1744C228.848 46.928 228.766 46.73 228.663 46.5804C228.562 46.4308 228.444 46.3241 228.31 46.2603C228.176 46.1943 228.036 46.1613 227.891 46.1613C227.745 46.1613 227.606 46.1943 227.472 46.2603C227.337 46.3241 227.22 46.4308 227.118 46.5804C227.017 46.73 226.936 46.928 226.874 47.1744C226.815 47.4186 226.785 47.7211 226.785 48.0819C226.785 48.4427 226.815 48.7452 226.874 48.9894C226.936 49.2336 227.017 49.4305 227.118 49.5802C227.22 49.7298 227.337 49.8375 227.472 49.9035C227.606 49.9674 227.745 49.9992 227.891 49.9992C228.036 49.9992 228.176 49.9674 228.31 49.9035C228.444 49.8375 228.562 49.7298 228.663 49.5802C228.766 49.4305 228.848 49.2336 228.907 48.9894C228.969 48.7452 228.999 48.4427 228.999 48.0819Z" fill="white"/>
<path d="M233.824 48.0819C233.824 48.4955 233.778 48.8541 233.688 49.1577C233.6 49.4591 233.479 49.7088 233.325 49.9068C233.171 50.1048 232.989 50.2522 232.777 50.349C232.568 50.4458 232.344 50.4942 232.104 50.4942C231.862 50.4942 231.637 50.4458 231.428 50.349C231.221 50.2522 231.041 50.1048 230.887 49.9068C230.733 49.7088 230.612 49.4591 230.524 49.1577C230.436 48.8541 230.392 48.4955 230.392 48.0819C230.392 47.6684 230.436 47.3097 230.524 47.0061C230.612 46.7025 230.733 46.4517 230.887 46.2537C231.041 46.0535 231.221 45.905 231.428 45.8082C231.637 45.7114 231.862 45.663 232.104 45.663C232.344 45.663 232.568 45.7114 232.777 45.8082C232.989 45.905 233.171 46.0535 233.325 46.2537C233.479 46.4517 233.6 46.7025 233.688 47.0061C233.778 47.3097 233.824 47.6684 233.824 48.0819ZM233.213 48.0819C233.213 47.7211 233.182 47.4186 233.121 47.1744C233.061 46.928 232.98 46.73 232.876 46.5804C232.775 46.4308 232.658 46.3241 232.523 46.2603C232.389 46.1943 232.249 46.1613 232.104 46.1613C231.959 46.1613 231.819 46.1943 231.685 46.2603C231.551 46.3241 231.433 46.4308 231.332 46.5804C231.231 46.73 231.149 46.928 231.088 47.1744C231.028 47.4186 230.999 47.7211 230.999 48.0819C230.999 48.4427 231.028 48.7452 231.088 48.9894C231.149 49.2336 231.231 49.4305 231.332 49.5802C231.433 49.7298 231.551 49.8375 231.685 49.9035C231.819 49.9674 231.959 49.9992 232.104 49.9992C232.249 49.9992 232.389 49.9674 232.523 49.9035C232.658 49.8375 232.775 49.7298 232.876 49.5802C232.98 49.4305 233.061 49.2336 233.121 48.9894C233.182 48.7452 233.213 48.4427 233.213 48.0819Z" fill="white"/>
<path d="M235.341 47.1051C235.341 47.2547 235.362 47.3889 235.404 47.5077C235.448 47.6243 235.509 47.7233 235.588 47.8047C235.67 47.8861 235.768 47.9478 235.882 47.9895C235.999 48.0313 236.129 48.0522 236.272 48.0522C236.43 48.0522 236.57 48.0269 236.691 47.9763C236.814 47.9235 236.917 47.8542 237.001 47.7684C237.084 47.6826 237.148 47.5836 237.192 47.4714C237.236 47.3592 237.258 47.2426 237.258 47.1216C237.258 46.9742 237.234 46.8411 237.186 46.7223C237.139 46.6013 237.075 46.499 236.991 46.4154C236.907 46.3318 236.807 46.268 236.691 46.224C236.576 46.1778 236.45 46.1547 236.311 46.1547C236.166 46.1547 236.034 46.1789 235.915 46.2273C235.796 46.2735 235.694 46.3384 235.608 46.422C235.522 46.5056 235.456 46.6057 235.41 46.7223C235.364 46.8389 235.341 46.9665 235.341 47.1051ZM236.714 48.5604C236.762 48.4966 236.807 48.4361 236.849 48.3789C236.891 48.3218 236.93 48.2645 236.968 48.2073C236.847 48.3041 236.71 48.3778 236.559 48.4284C236.407 48.479 236.246 48.5043 236.077 48.5043C235.899 48.5043 235.729 48.4746 235.569 48.4152C235.41 48.3558 235.271 48.2689 235.15 48.1545C235.029 48.0379 234.932 47.896 234.859 47.7288C234.789 47.5594 234.754 47.3658 234.754 47.148C234.754 46.9412 234.792 46.7476 234.869 46.5672C234.946 46.3868 235.054 46.2295 235.192 46.0953C235.331 45.9611 235.496 45.8555 235.687 45.7785C235.879 45.7015 236.089 45.663 236.318 45.663C236.544 45.663 236.75 45.7004 236.935 45.7752C237.12 45.85 237.278 45.9545 237.41 46.0887C237.542 46.2229 237.643 46.3835 237.714 46.5705C237.786 46.7575 237.823 46.9643 237.823 47.1909C237.823 47.3273 237.809 47.4571 237.783 47.5803C237.759 47.7013 237.722 47.8212 237.674 47.94C237.628 48.0566 237.571 48.1732 237.502 48.2898C237.434 48.4042 237.357 48.5219 237.271 48.6429L236.12 50.3061C236.091 50.3479 236.05 50.382 235.998 50.4084C235.945 50.4326 235.884 50.4447 235.816 50.4447H235.275L236.714 48.5604Z" fill="white"/>
<path d="M241.254 47.5506H239.677V50.4447H239.086V47.1018H241.254V47.5506Z" fill="white"/>
<path d="M241.737 50.0817C241.737 50.0245 241.747 49.9706 241.767 49.92C241.789 49.8694 241.818 49.8255 241.853 49.788C241.89 49.7506 241.934 49.7209 241.985 49.6989C242.035 49.6769 242.089 49.666 242.146 49.666C242.204 49.666 242.258 49.6769 242.308 49.6989C242.359 49.7209 242.403 49.7506 242.44 49.788C242.478 49.8255 242.507 49.8694 242.529 49.92C242.551 49.9706 242.562 50.0245 242.562 50.0817C242.562 50.1411 242.551 50.1961 242.529 50.2467C242.507 50.2951 242.478 50.3381 242.44 50.3755C242.403 50.4128 242.359 50.4414 242.308 50.4613C242.258 50.4832 242.204 50.4942 242.146 50.4942C242.089 50.4942 242.035 50.4832 241.985 50.4613C241.934 50.4414 241.89 50.4128 241.853 50.3755C241.818 50.3381 241.789 50.2951 241.767 50.2467C241.747 50.1961 241.737 50.1411 241.737 50.0817Z" fill="white"/>
</svg>
