<svg width="24" height="25" viewBox="0 0 24 25" fill="none" xmlns="http://www.w3.org/2000/svg">
<rect opacity="0.01" x="24" y="24.1904" width="24" height="24" transform="rotate(180 24 24.1904)" fill="white"/>
<path d="M17 3.69058C17 3.41444 16.7761 3.19058 16.5 3.19058H14C11.3793 3.06004 9.14528 5.07068 9 7.69058V10.3906H6.5C6.22386 10.3906 6 10.6144 6 10.8906V13.4906C6 13.7667 6.22386 13.9906 6.5 13.9906H9V20.6906C9 20.9667 9.22386 21.1906 9.5 21.1906H12.5C12.7761 21.1906 13 20.9667 13 20.6906V13.9906H15.62C15.8487 13.9939 16.0505 13.8415 16.11 13.6206L16.83 11.0206C16.8703 10.8709 16.8389 10.7109 16.7449 10.5876C16.6509 10.4642 16.5051 10.3915 16.35 10.3906H13V7.69058C13.0515 7.17768 13.4845 6.788 14 6.79058H16.5C16.7761 6.79058 17 6.56673 17 6.29058V3.69058Z" fill="white"/>
</svg>
