<svg width="24" height="25" viewBox="0 0 24 25" fill="none" xmlns="http://www.w3.org/2000/svg">
<path fill-rule="evenodd" clip-rule="evenodd" d="M11.25 20.2046C11.1148 20.2046 10.9837 20.2036 10.8565 20.2018L8.08211 22.9033C7.45214 23.5167 6.375 23.0822 6.375 22.2147V19.4874C4.17375 18.5773 2.66581 16.7108 2.23333 14.26C2.125 13.6462 2 12.6677 2 11.1975C2 9.72738 2.125 8.74888 2.23333 8.13499C2.77135 5.08611 4.97378 2.94152 8.10488 2.41763C8.73532 2.31215 9.74021 2.19043 11.25 2.19043H12.75C14.2598 2.19043 15.2647 2.31215 15.8951 2.41763C19.0262 2.94152 21.2287 5.08611 21.7667 8.13499C21.875 8.74888 22 9.72738 22 11.1975C22 12.6677 21.875 13.6462 21.7667 14.26C21.2287 17.3089 19.0262 19.4535 15.8951 19.9774C15.2647 20.0829 14.2598 20.2046 12.75 20.2046H11.25ZM12.4783 6.89033C12.5189 6.89343 12.5565 6.89653 12.5882 6.90118C14.8193 7.25934 15.8455 8.36173 16.1294 10.7071C16.1343 10.7469 16.1353 10.7958 16.1358 10.8469C16.1388 11.0305 16.145 11.4115 16.5371 11.4193H16.549C16.6724 11.4193 16.77 11.3805 16.8404 11.304C16.9622 11.1712 16.9543 10.9732 16.9469 10.8141L16.9466 10.806C16.9452 10.7699 16.9439 10.7357 16.9439 10.7055C16.9726 8.30746 14.9819 6.13214 12.6849 6.05152C12.675 6.05152 12.666 6.05152 12.6571 6.05307C12.6481 6.05426 12.639 6.05478 12.6299 6.05462C12.6086 6.05462 12.5837 6.0529 12.5566 6.05103L12.5486 6.05048L12.5447 6.0502C12.5099 6.04768 12.4703 6.0448 12.4297 6.0448C12.064 6.0448 11.9947 6.31613 11.9858 6.4779C11.9654 6.85156 12.3118 6.87792 12.4783 6.89033ZM12.9623 7.41101C14.4614 7.60031 15.6715 8.9677 15.6597 10.4594C15.6598 10.4663 15.659 10.4727 15.6582 10.4795C15.6543 10.5064 15.6557 10.5462 15.6571 10.5887L15.6572 10.5911C15.6621 10.7443 15.6724 11.0629 15.3403 11.116C15.3069 11.1212 15.2745 11.1238 15.245 11.1238C14.8886 11.1238 14.8682 10.7766 14.8584 10.6085L14.8583 10.6074L14.8576 10.596C14.8549 10.5554 14.8525 10.5174 14.8475 10.4862C14.6259 9.08376 14.1725 8.58704 12.8253 8.27085C12.7942 8.26365 12.7576 8.25824 12.719 8.25254L12.7103 8.25125C12.5663 8.23062 12.387 8.20483 12.2853 8.05989C12.2249 7.97375 12.2047 7.86285 12.2259 7.73132C12.2475 7.5967 12.3295 7.36974 12.6371 7.36974C12.7138 7.37177 12.7902 7.38039 12.8656 7.39553C12.8999 7.40172 12.9324 7.4074 12.9623 7.41101ZM15.8796 13.6225C15.9266 13.6617 15.974 13.7003 16.0218 13.7383C16.3806 14.0241 16.8275 14.3801 16.5827 15.1006C16.3038 15.9229 15.3946 16.6444 14.6375 16.6444H14.6246C14.6111 16.6443 14.5976 16.6423 14.5845 16.6387C14.5607 16.632 14.528 16.6242 14.4904 16.6154C14.3789 16.5896 14.2268 16.5539 14.0816 16.4888C12.4723 15.7658 11.083 14.8039 9.95285 13.6292C8.79791 12.4291 7.88229 10.9748 7.23075 9.307C7.0058 8.73022 6.99589 8.17567 7.20399 7.70329C7.41952 7.21489 7.84959 6.84484 8.4496 6.6345C8.67331 6.55089 8.91802 6.55162 9.14127 6.63656C9.6635 6.83658 10.9027 8.59946 10.9334 9.18503C10.9596 9.70133 10.5796 9.9706 10.375 10.1153C10.0153 10.3706 9.94889 10.6838 10.1535 11.1634C10.5766 12.1552 11.3169 12.9067 12.3524 13.3966C12.4615 13.4525 12.5807 13.4837 12.7022 13.4881C12.8771 13.4881 13.0193 13.3982 13.1362 13.2132C13.4008 12.7961 13.7209 12.5842 14.0885 12.5842C14.361 12.5842 14.6494 12.6984 14.9705 12.9336L15.148 13.0629C15.3915 13.2405 15.6429 13.4237 15.8796 13.6225ZM12.8132 8.79586C12.6839 8.79896 12.4138 8.80619 12.3192 9.09251C12.2746 9.22689 12.2801 9.34266 12.3351 9.43827C12.4153 9.57781 12.5694 9.62123 12.7091 9.645C13.217 9.72976 13.4781 10.0223 13.5301 10.5665C13.5544 10.8197 13.7184 10.997 13.928 10.997C13.9439 10.997 13.9598 10.996 13.9756 10.9939C14.2282 10.9629 14.3506 10.7691 14.3397 10.4182C14.3437 10.0523 14.1604 9.63673 13.8477 9.30596C13.5346 8.97416 13.157 8.78707 12.8132 8.79586Z" fill="white"/>
</svg>
