<svg width="24" height="25" viewBox="0 0 24 25" fill="none" xmlns="http://www.w3.org/2000/svg">
<path d="M9.75139 14.4044C10.3431 14.996 11.1456 15.3284 11.9823 15.3284C12.8191 15.3284 13.6216 14.996 14.2132 14.4044C14.8049 13.8127 15.1373 13.0102 15.1373 12.1734C15.1373 11.3367 14.8049 10.5342 14.2132 9.94251C13.6216 9.35083 12.8191 9.01843 11.9823 9.01843C11.1456 9.01843 10.3431 9.35083 9.75139 9.94251C9.15971 10.5342 8.82731 11.3367 8.82731 12.1734C8.82731 13.0102 9.15971 13.8127 9.75139 14.4044Z" fill="white"/>
<path fill-rule="evenodd" clip-rule="evenodd" d="M7.947 2.19043H16.017C17.5938 2.19202 19.1057 2.81905 20.2208 3.93396C21.3359 5.04887 21.9631 6.56058 21.965 8.13743V16.2074C21.9634 17.7843 21.3364 19.2961 20.2215 20.4112C19.1066 21.5263 17.5948 22.1536 16.018 22.1554H7.948C6.37115 22.1538 4.85933 21.5268 3.74424 20.4119C2.62914 19.297 2.00185 17.7853 2 16.2084V8.13843C2.00159 6.56158 2.62862 5.04976 3.74353 3.93467C4.85844 2.81957 6.37015 2.19228 7.947 2.19043ZM18.3933 7.04843C18.3933 7.73161 17.8395 8.28543 17.1563 8.28543C16.4731 8.28543 15.9193 7.73161 15.9193 7.04843C15.9193 6.36526 16.4731 5.81143 17.1563 5.81143C17.8395 5.81143 18.3933 6.36526 18.3933 7.04843ZM8.33421 8.52404C9.30184 7.55622 10.6137 7.01155 11.9823 7.00943V7.01043C13.3512 7.01175 14.6637 7.55593 15.632 8.52363C16.6003 9.49132 17.1452 10.8035 17.1473 12.1724C17.1457 13.5415 16.6012 14.8541 15.6331 15.8222C14.665 16.7903 13.3524 17.3348 11.9833 17.3364C10.6144 17.3346 9.30209 16.7899 8.33421 15.8218C7.36633 14.8538 6.8219 13.5413 6.82031 12.1724C6.82216 10.8039 7.36658 9.49186 8.33421 8.52404Z" fill="white"/>
</svg>
