<svg width="24" height="25" viewBox="0 0 24 25" fill="none" xmlns="http://www.w3.org/2000/svg">
<path d="M12 2.19043C17.5228 2.19043 22 6.66758 22 12.1904C22 17.7133 17.5228 22.1904 12 22.1904C6.47715 22.1904 2 17.7133 2 12.1904C2 6.66758 6.47715 2.19043 12 2.19043ZM16.4415 8.19043C16.0606 8.19719 15.4761 8.39784 12.6631 9.55293C11.678 9.95748 9.70898 10.7948 6.75619 12.0649C6.27671 12.2532 6.02553 12.4373 6.00267 12.6174C5.95877 12.9631 6.46291 13.0707 7.09724 13.2743C7.6144 13.4403 8.31008 13.6344 8.67173 13.6422C8.99979 13.6492 9.36594 13.5156 9.77017 13.2416C12.5291 11.403 13.9532 10.4737 14.0426 10.4536C14.1057 10.4395 14.1931 10.4217 14.2523 10.4737C14.3115 10.5257 14.3057 10.6241 14.2995 10.6505C14.2493 10.8616 11.6576 13.1889 11.5085 13.3418L11.437 13.4137C10.8874 13.9565 10.332 14.3109 11.2903 14.9344C12.1557 15.4974 12.6593 15.8566 13.5508 16.4335C14.1205 16.8022 14.5671 17.2394 15.1553 17.186C15.426 17.1614 15.7056 16.9101 15.8476 16.1607C16.1831 14.3897 16.8427 10.5525 16.9951 8.9713C17.0085 8.83277 16.9917 8.65547 16.9782 8.57764C16.9647 8.49981 16.9365 8.38892 16.834 8.30683C16.7127 8.20961 16.5253 8.18911 16.4415 8.19043Z" fill="white"/>
</svg>
