<svg width="100" height="100" viewBox="0 0 100 100" fill="none" xmlns="http://www.w3.org/2000/svg">
<path d="M47.1673 2.84137C48.7303 1.27353 51.2697 1.27353 52.8327 2.84137L56.3981 6.41761C57.5435 7.56649 59.2693 7.90978 60.7672 7.28668L65.4297 5.34707C67.4738 4.49673 69.8198 5.46848 70.6639 7.51515L72.5893 12.1836C73.2079 13.6833 74.671 14.6609 76.2933 14.6585L81.3431 14.6508C83.557 14.6474 85.3526 16.443 85.3492 18.6569L85.3415 23.7067C85.3391 25.329 86.3167 26.7921 87.8164 27.4107L92.4849 29.3361C94.5315 30.1802 95.5033 32.5262 94.6529 34.5703L92.7133 39.2328C92.0902 40.7307 92.4335 42.4565 93.5824 43.6019L97.1586 47.1673C98.7265 48.7303 98.7265 51.2697 97.1586 52.8327L93.5824 56.3981C92.4335 57.5435 92.0902 59.2693 92.7133 60.7672L94.6529 65.4297C95.5033 67.4738 94.5315 69.8198 92.4849 70.6639L87.8164 72.5893C86.3167 73.2079 85.3391 74.671 85.3415 76.2933L85.3492 81.3431C85.3526 83.557 83.557 85.3526 81.3431 85.3492L76.2933 85.3415C74.671 85.3391 73.2079 86.3167 72.5893 87.8164L70.6639 92.4849C69.8198 94.5315 67.4738 95.5033 65.4297 94.6529L60.7672 92.7133C59.2693 92.0902 57.5435 92.4335 56.3981 93.5824L52.8327 97.1586C51.2697 98.7265 48.7303 98.7265 47.1673 97.1586L43.6019 93.5824C42.4565 92.4335 40.7307 92.0902 39.2328 92.7133L34.5703 94.6529C32.5262 95.5033 30.1802 94.5315 29.3361 92.4849L27.4107 87.8164C26.7921 86.3167 25.329 85.3391 23.7067 85.3415L18.6569 85.3492C16.443 85.3526 14.6474 83.557 14.6508 81.3431L14.6585 76.2933C14.6609 74.671 13.6833 73.2079 12.1836 72.5893L7.51515 70.6639C5.46848 69.8198 4.49673 67.4738 5.34707 65.4297L7.28668 60.7672C7.90978 59.2693 7.56648 57.5435 6.41761 56.3981L2.84137 52.8327C1.27353 51.2697 1.27353 48.7303 2.84137 47.1673L6.41761 43.6019C7.56649 42.4565 7.90978 40.7307 7.28668 39.2328L5.34707 34.5703C4.49673 32.5262 5.46848 30.1802 7.51515 29.3361L12.1836 27.4107C13.6833 26.7921 14.6609 25.329 14.6585 23.7067L14.6508 18.6569C14.6474 16.443 16.443 14.6474 18.6569 14.6508L23.7067 14.6585C25.329 14.6609 26.7921 13.6833 27.4107 12.1836L29.3361 7.51515C30.1802 5.46848 32.5262 4.49673 34.5703 5.34707L39.2328 7.28668C40.7307 7.90978 42.4565 7.56648 43.6019 6.41761L47.1673 2.84137Z" fill="url(#paint0_linear_2151_9051)" stroke="#F2F2F2"/>
<path d="M45 39L58 49.5L45 60" stroke="white" stroke-width="5" stroke-linecap="round" stroke-linejoin="round"/>
<defs>
<linearGradient id="paint0_linear_2151_9051" x1="69.5486" y1="107.893" x2="15.0196" y2="18.9664" gradientUnits="userSpaceOnUse">
<stop stop-color="#4054E8"/>
<stop offset="1" stop-color="#5C47FF"/>
</linearGradient>
</defs>
</svg>
