<svg width="36" height="36" viewBox="0 0 36 36" fill="none" xmlns="http://www.w3.org/2000/svg">
<path d="M18 3C26.2843 3 33 9.71573 33 18C33 26.2843 26.2843 33 18 33C9.71573 33 3 26.2843 3 18C3 9.71573 9.71573 3 18 3ZM24.6623 12C24.0908 12.0101 23.2141 12.3111 18.9947 14.0437C17.5169 14.6506 14.5635 15.9066 10.1343 17.8117C9.41506 18.0941 9.0383 18.3703 9.004 18.6404C8.93815 19.159 9.69437 19.3205 10.6459 19.6258C11.4216 19.8748 12.4651 20.166 13.0076 20.1776C13.4997 20.1881 14.0489 19.9878 14.6553 19.5767C18.7936 16.8188 20.9298 15.4248 21.0639 15.3948C21.1585 15.3736 21.2896 15.3469 21.3785 15.4249C21.4673 15.5028 21.4586 15.6505 21.4492 15.6901C21.3739 16.0068 17.4865 19.4977 17.2627 19.7271L17.1555 19.835C16.3311 20.6492 15.4979 21.1808 16.9355 22.116C18.2335 22.9605 18.9889 23.4992 20.3262 24.3646C21.1807 24.9176 21.8507 25.5735 22.733 25.4933C23.139 25.4564 23.5584 25.0795 23.7713 23.9555C24.2747 21.299 25.264 15.5431 25.4927 13.1713C25.5127 12.9635 25.4875 12.6976 25.4673 12.5808C25.447 12.4641 25.4047 12.2977 25.251 12.1746C25.069 12.0288 24.788 11.998 24.6623 12Z" fill="#1E95D1"/>
</svg>
