<svg width="85" height="31" viewBox="0 0 85 31" fill="none" xmlns="http://www.w3.org/2000/svg">
<path d="M44.6968 19.1928C44.6968 20.513 43.7958 21.2399 41.8201 21.2399H39.4858V17.0938H41.7899C43.8252 17.0938 44.6968 17.7304 44.6968 19.1935M44.156 12.3112C44.156 13.6338 43.4688 14.2123 41.7605 14.2123H39.4858V10.5411H41.9085C43.4688 10.5411 44.156 11.1071 44.156 12.3112ZM49.2772 19.4298C49.2772 15.9784 45.8613 15.4423 45.8613 15.4423C45.8613 15.4423 48.6783 14.8057 48.6783 11.7758C48.6783 8.40215 46.3393 7.46729 41.4862 7.46729H35.1084V24.3153H41.9968C47.1481 24.3153 49.2779 23.1724 49.2779 19.4306M66.1127 7.46729H60.928L58.0211 14.4203L55.1762 7.46729H49.8768L55.6875 18.5444V24.3153H60.2694V18.5444L66.1127 7.46729ZM68.5098 24.3153H73.1374V16.0404L78.1439 24.3153H83.6253L77.693 15.414L83.8074 7.46729H81.1709C79.0403 7.46729 78.2965 7.97514 76.9763 9.66512L73.1374 15.3246V7.46729H68.5098V24.3153Z" fill="#00519E"/>
<path d="M25.6801 14.0506C25.6801 9.50103 22.0829 5.89893 17.4955 5.89893C16.8757 5.89893 16.2551 5.9578 15.6338 6.08182C19.9143 9.05518 23.1373 15.4164 23.1373 19.5836V20.0185C24.6868 18.5977 25.6801 16.4172 25.6801 14.0506Z" fill="#009EE0"/>
<path d="M1.06014 19.3297C1.06014 25.0598 5.40111 26.6878 10.9786 26.6878C16.9349 26.6878 22.8246 24.3824 23.1377 20.0189C21.6462 21.3879 19.6667 22.2638 17.4951 22.2638C12.9682 22.2638 9.37562 18.7112 9.37562 14.051C9.37562 10.1789 12.0346 6.95747 15.6326 6.08226C14.207 5.0846 12.5924 4.45508 11.046 4.45508C4.9657 4.45508 1.05859 13.6672 1.05859 19.3297" fill="#00519E"/>
</svg>
