<svg width="60" height="31" viewBox="0 0 60 31" fill="none" xmlns="http://www.w3.org/2000/svg">
<g clip-path="url(#clip0_2133_9190)">
<mask id="mask0_2133_9190" style="mask-type:luminance" maskUnits="userSpaceOnUse" x="0" y="0" width="60" height="31">
<path d="M60 0H0V31H60V0Z" fill="white"/>
</mask>
<g mask="url(#mask0_2133_9190)">
<path d="M15.4777 20.5089H20.1286C20.5376 20.5089 20.8112 20.1837 20.8112 19.7164V19.3143C20.588 19.3693 20.2525 19.3942 19.6182 19.3942H18.0874L20.7492 13.8564H15.516V14.9533H17.8577L15.6263 19.5287C15.4278 19.9308 15.4042 20.253 15.4777 20.5089Z" fill="#005596"/>
<path d="M10.8408 16.9724L12.0459 19.4765C12.382 20.1979 12.5311 20.5089 13.2904 20.5089H15.0059C14.9073 20.4253 14.8184 20.2524 14.6446 19.9183L12.8902 16.4334L14.9434 13.8564H13.1161L10.8408 16.9724Z" fill="#005596"/>
<path d="M8.58984 20.509H10.7166V12.5554C10.7166 11.7304 10.1568 11.1943 9.38647 11.1943H8.58984V20.509Z" fill="#005596"/>
<path d="M7.64549 19.9058L5.52044 13.0805C5.27097 12.265 5.01056 11.8906 3.96612 11.8906H2.95786L0 20.51H1.34159L2.0165 18.3784H4.86526L5.27097 19.7572C5.42065 20.266 5.60651 20.4916 6.11694 20.4916H7.90756C7.82094 20.3987 7.75789 20.2405 7.64549 19.9058ZM2.34874 17.3348L3.49187 13.7284L4.55769 17.3348H2.34874Z" fill="#005596"/>
<path d="M24.4056 20.6665C26.1709 20.6665 27.6743 19.3031 27.6743 17.0418C27.6743 15.1134 26.2461 13.6836 24.4429 13.6836C22.6522 13.6836 21.1582 15.0867 21.1582 17.3504C21.1588 19.341 22.6528 20.6665 24.4056 20.6665ZM24.4291 19.4375C23.7092 19.4375 23.4477 18.5391 23.4477 17.1348C23.4477 15.7974 23.6972 14.886 24.4291 14.886C25.1517 14.886 25.3864 15.8495 25.3864 17.2538C25.3864 18.5817 25.1523 19.4375 24.4291 19.4375Z" fill="#005596"/>
<path d="M28.6309 20.5085H29.9604V15.0128L33.3398 19.3962C33.813 20.0139 34.1239 20.5085 34.6338 20.5085H35.602V12.6123C35.602 12.1569 35.3174 11.8643 34.8827 11.8643H34.2977V17.0615L31.0481 12.8782C30.5635 12.2516 30.3151 11.8643 29.6078 11.8643H28.6309V20.5085Z" fill="#005596"/>
<path d="M39.7684 20.6665C41.5344 20.6665 43.0394 19.3031 43.0394 17.0418C43.0394 15.1163 41.6084 13.6836 39.8062 13.6836C38.0151 13.6836 36.5244 15.0867 36.5244 17.3504C36.5238 19.3428 38.0151 20.6665 39.7684 20.6665ZM39.7936 19.4375C39.0716 19.4375 38.8106 18.5391 38.8106 17.1354C38.8106 15.7974 39.0595 14.886 39.7936 14.886C40.5136 14.886 40.7504 15.852 40.7504 17.2562C40.7504 18.5817 40.5136 19.4375 39.7936 19.4375Z" fill="#005596"/>
<path d="M56.9509 17.308C56.9887 17.0421 57.0013 16.7737 57.0013 16.5332C57.0013 14.9537 55.9196 13.6963 54.0676 13.6963C52.2281 13.6963 50.8838 15.0869 50.8838 17.2025C50.8838 19.2494 52.0648 20.6667 53.9914 20.6667C55.9196 20.6667 56.6137 19.584 56.6537 18.5393C56.2414 18.8627 55.6087 19.048 54.8993 19.048C53.8225 19.048 53.1262 18.3865 53.0254 17.308H56.9509ZM53.0248 16.3869C53.0938 15.4091 53.4436 14.7938 54.0412 14.7938C54.8626 14.7938 55.0238 16.3869 55.0238 16.3869H53.0248Z" fill="#005596"/>
<path d="M47.6898 13.763C46.9683 13.763 46.3713 14.0444 46.0719 14.3654V12.5589C46.0719 11.7303 45.5253 11.1943 44.7555 11.1943H43.96V20.509H46.4464C48.8203 20.509 50.1383 19.1693 50.1383 16.6794C50.1383 15.0068 49.0829 13.763 47.6898 13.763ZM46.3948 19.3961H46.0719V15.1015C46.2089 15.0861 46.3219 15.0731 46.5329 15.0731C47.3422 15.0731 47.9518 15.878 47.9518 16.9471C47.9518 18.5385 47.3904 19.3961 46.3948 19.3961Z" fill="#005596"/>
<path d="M57.8863 20.509H59.9999V12.5589C59.9999 11.7304 59.4401 11.1943 58.6693 11.1943H57.8857L57.8863 20.509Z" fill="#005596"/>
</g>
</g>
<defs>
<clipPath id="clip0_2133_9190">
<rect width="60" height="31" fill="white"/>
</clipPath>
</defs>
</svg>
