<svg width="36" height="36" viewBox="0 0 36 36" fill="none" xmlns="http://www.w3.org/2000/svg">
<path fill-rule="evenodd" clip-rule="evenodd" d="M7.52118 7.38203C13.3987 1.53932 22.8932 1.53932 28.7708 7.38203C31.4834 10.2285 33.1412 13.9738 32.9905 17.869C32.9905 26.1086 26.3595 32.7004 18.0706 32.7004C15.6593 32.7004 13.248 32.1011 10.9874 30.9026L3 33L5.10988 25.3595C1.79435 19.5169 2.69859 12.176 7.52118 7.38203ZM23.7219 20.4157C24.2871 20.6779 24.8522 20.9401 25.0029 21.015L25.6058 21.3146C25.7565 21.9139 25.7565 22.5131 25.4551 23.1124C24.8522 24.0112 23.948 24.7604 22.8931 24.9101C21.9887 25.06 21.2353 25.06 20.4818 24.7604C19.8998 24.6446 19.4077 24.4396 18.8667 24.2141C18.7072 24.1477 18.5434 24.0794 18.3718 24.0112C15.8099 22.8127 13.7 20.8651 12.0422 18.4681C11.138 17.2696 10.6859 15.9214 10.5352 14.573C10.5352 13.3745 10.9873 12.3258 11.8915 11.427C12.0422 11.2772 12.4943 10.9775 12.7957 10.9775H13.5493C13.8507 10.9775 14.1521 10.9775 14.3028 12.0262C14.6042 12.7753 15.3577 14.573 15.5085 14.7229C15.6592 14.8727 15.6592 15.1723 15.5085 15.3221C15.5085 15.4719 15.3577 15.7716 15.207 15.9214C14.9969 16.0258 14.86 16.2031 14.7452 16.3517C14.6954 16.4162 14.6498 16.4752 14.6042 16.5206C14.4535 16.6705 14.3028 16.9701 14.4535 17.2696C15.0563 18.1686 15.8099 19.0675 16.5634 19.8165C17.4676 20.5656 18.5225 21.1649 19.5776 21.6142C19.8789 21.7641 20.1803 21.7641 20.3311 21.4645C20.4818 21.3147 20.7078 21.015 20.9339 20.7154C21.16 20.4158 21.386 20.1162 21.5367 19.9664C21.8381 19.6666 22.1396 19.6666 22.4409 19.8165C22.5916 19.8914 23.1567 20.1536 23.7219 20.4157Z" fill="#42C451"/>
</svg>
