<svg width="275" height="69" fill="none" xmlns="http://www.w3.org/2000/svg"><path d="M20.615 26.1c-.258 6.932 3.092 14.635 9.663 17.716 3.608 1.284 7.473.385 11.338.514 2.32 0 4.767.128 7.087.385 2.061.128 4.123.77 6.055.128.773-.385 1.16-1.155 1.546-1.797 1.031-1.926 1.546-4.108 2.062-6.163.386-1.54.644-2.952.902-4.493.258-3.081 5.153-2.824 5.153.257-.386 3.466-.901 6.933-1.932 10.27-2.448 8.987-7.602 9.5-15.848 8.859-3.479-.129-7.086.128-10.565.642-14.044 2.439-24.61-11.555-25.769-24.264-1.803-7.832 9.792-10.014 10.308-2.055Z" fill="#fff"/><path d="M20.1 25.458a20.427 20.427 0 0 1 8.76 1.155c3.222 1.156 6.185 2.953 9.278 4.365 4.51 2.183 9.405 3.723 14.43 3.595 2.577 0 5.025-.385 7.473-.899 3.479-.898 6.957-2.31 10.05-4.108 4.767-2.953.257-9.629-4.51-6.419-7.73 3.851-15.332 4.365-22.934.128-3.221-1.669-6.442-3.723-9.792-5.135-4.896-2.182-10.436-2.953-15.848-2.31-2.448.256-5.025.898-7.344 1.668-2.834 1.027-5.798 2.44-5.798 5.906.258 4.75 5.025 6.419 8.762 3.98 2.319-1.413 4.896-1.67 7.472-1.926ZM88.283 43.195l-5.525-15.419h5.025l3.371 10.862h.063l3.37-10.862h4.9l-5.524 15.419h-5.68ZM116.592 43.195h-4.307V40.79h-.063c-.374.854-.978 1.54-1.81 2.06-.832.5-1.821.75-2.965.75-.812 0-1.654-.157-2.528-.469a7.323 7.323 0 0 1-2.404-1.435c-.707-.666-1.3-1.509-1.779-2.529-.457-1.02-.686-2.247-.686-3.683 0-1.165.197-2.247.593-3.246a7.587 7.587 0 0 1 1.716-2.559 7.887 7.887 0 0 1 2.622-1.686c1.02-.416 2.143-.624 3.371-.624 1.207 0 2.32.198 3.34.593 1.019.375 1.883.926 2.59 1.654.729.708 1.291 1.572 1.686 2.591.416 1.02.624 2.164.624 3.434v7.553Zm-8.24-3.964c1.061 0 1.915-.343 2.56-1.03.665-.687.998-1.592.998-2.716 0-1.123-.333-2.028-.998-2.715-.645-.687-1.499-1.03-2.56-1.03s-1.925.343-2.59 1.03c-.646.687-.968 1.592-.968 2.715 0 1.124.322 2.03.968 2.716.665.687 1.529 1.03 2.59 1.03ZM130.15 43.195v-7.99c0-1.228-.27-2.112-.811-2.654-.541-.54-1.249-.811-2.123-.811-.874 0-1.581.27-2.122.811-.541.541-.812 1.426-.812 2.654v7.99h-4.681v-7.99c0-1.29.176-2.425.53-3.403.375-.978.895-1.79 1.561-2.434a6.363 6.363 0 0 1 2.403-1.498c.936-.333 1.977-.5 3.121-.5 1.145 0 2.185.167 3.122.5a6.052 6.052 0 0 1 2.403 1.467c.666.645 1.176 1.456 1.529 2.434.375.978.562 2.123.562 3.434v7.99h-4.682ZM148.376 43.195v-7.99c0-1.228-.271-2.112-.812-2.654-.541-.54-1.248-.811-2.122-.811-.874 0-1.582.27-2.123.811-.541.541-.811 1.426-.811 2.654v7.99h-4.682v-7.99c0-1.29.177-2.425.531-3.403.374-.978.894-1.79 1.56-2.434a6.359 6.359 0 0 1 2.404-1.498c.936-.333 1.976-.5 3.121-.5 1.144 0 2.185.167 3.121.5a6.052 6.052 0 0 1 2.403 1.467c.666.645 1.176 1.456 1.53 2.434.374.978.562 2.123.562 3.434v7.99h-4.682ZM171.97 43.195h-4.308V40.79h-.062c-.375.854-.978 1.54-1.81 2.06-.833.5-1.821.75-2.965.75-.812 0-1.655-.157-2.529-.469a7.308 7.308 0 0 1-2.403-1.435c-.707-.666-1.301-1.509-1.779-2.529-.458-1.02-.687-2.247-.687-3.683 0-1.165.198-2.247.593-3.246a7.59 7.59 0 0 1 1.717-2.559 7.877 7.877 0 0 1 2.622-1.686c1.019-.416 2.143-.624 3.371-.624 1.207 0 2.32.198 3.339.593 1.02.375 1.884.926 2.591 1.654.728.708 1.29 1.572 1.685 2.591.417 1.02.625 2.164.625 3.434v7.553Zm-8.24-3.964c1.061 0 1.914-.343 2.559-1.03.666-.687.999-1.592.999-2.716 0-1.123-.333-2.028-.999-2.715-.645-.687-1.498-1.03-2.559-1.03-1.062 0-1.925.343-2.591 1.03-.645.687-.968 1.592-.968 2.715 0 1.124.323 2.03.968 2.716.666.687 1.529 1.03 2.591 1.03ZM174.167 36.984v-4.526h9.363v4.526h-9.363ZM186.205 43.195v-22.16h4.682v22.16h-4.682ZM204.94 27.776h4.682v7.99c0 1.29-.187 2.425-.562 3.403-.354.978-.863 1.8-1.529 2.465a6.56 6.56 0 0 1-2.404 1.467c-.936.333-1.976.5-3.121.5-1.144 0-2.185-.157-3.121-.469a6.555 6.555 0 0 1-2.403-1.467c-.666-.665-1.187-1.487-1.561-2.465-.354-.978-.531-2.123-.531-3.434v-7.99h4.682v7.99c0 1.228.271 2.112.812 2.653.541.541 1.248.812 2.122.812.874 0 1.582-.27 2.123-.812.541-.54.811-1.425.811-2.653v-7.99ZM211.43 43.195l5.243-7.897-4.994-7.522h5.587l2.81 4.838h.062l2.809-4.838h5.462l-5.025 7.522 5.275 7.897h-5.587l-3.059-5.244h-.062l-3.059 5.244h-5.462ZM233.097 43.6c-.853 0-1.571-.28-2.153-.842-.562-.583-.843-1.3-.843-2.154 0-.853.281-1.56.843-2.122.582-.583 1.3-.874 2.153-.874.854 0 1.561.291 2.123.874.582.562.874 1.27.874 2.122 0 .853-.292 1.571-.874 2.154-.562.562-1.269.843-2.123.843ZM238.703 21.034h4.682v8.334h.063c.437-.604 1.03-1.082 1.779-1.436.749-.374 1.623-.562 2.622-.562.811 0 1.654.156 2.528.468a6.754 6.754 0 0 1 2.372 1.467c.728.646 1.321 1.478 1.779 2.497.479 1.02.718 2.248.718 3.683 0 1.166-.208 2.248-.624 3.246a7.34 7.34 0 0 1-1.717 2.591c-.728.708-1.602 1.27-2.622 1.686-1.019.395-2.133.593-3.34.593-1.227 0-2.351-.188-3.371-.562a7.784 7.784 0 0 1-2.59-1.654c-.708-.729-1.269-1.603-1.686-2.622-.395-1.02-.593-2.164-.593-3.434V21.034Zm8.24 18.197c1.062 0 1.915-.343 2.56-1.03.666-.687.999-1.592.999-2.716 0-1.123-.333-2.028-.999-2.715-.645-.687-1.498-1.03-2.56-1.03-1.061 0-1.924.343-2.59 1.03-.645.687-.968 1.592-.968 2.715 0 1.124.323 2.03.968 2.716.666.687 1.529 1.03 2.59 1.03ZM265.246 38.981c.853 0 1.55-.28 2.091-.843.562-.561.843-1.435.843-2.621v-7.741h4.681v14.888c0 1.353-.208 2.497-.624 3.434-.395.957-.936 1.737-1.623 2.34a6.264 6.264 0 0 1-2.434 1.311 9.733 9.733 0 0 1-2.966.437 9.84 9.84 0 0 1-2.621-.343 6.89 6.89 0 0 1-2.216-.999 6.088 6.088 0 0 1-1.655-1.685c-.457-.687-.78-1.509-.967-2.466h4.682c.228.52.561.884.998 1.093.437.228 1.03.343 1.779.343 1.041 0 1.79-.26 2.248-.78.478-.5.718-1.343.718-2.529v-1.435h-.063a4.584 4.584 0 0 1-1.592 1.435c-.645.354-1.373.53-2.184.53a7.16 7.16 0 0 1-2.435-.436 6.122 6.122 0 0 1-2.154-1.373c-.624-.625-1.134-1.426-1.529-2.404-.395-.998-.593-2.205-.593-3.62v-7.741h4.682v7.74c0 1.228.27 2.113.811 2.654.541.54 1.249.811 2.123.811ZM90.05 50.445h-.643V46.22h-2.363v4.224h-.64v-4.73h3.646v4.73ZM92.043 49.64a.948.948 0 0 0 .353.306c.127.06.27.09.429.09.312 0 .552-.112.72-.334.166-.222.25-.539.25-.95 0-.218-.02-.405-.06-.561a1.06 1.06 0 0 0-.164-.383.644.644 0 0 0-.268-.221.89.89 0 0 0-.36-.07.954.954 0 0 0-.504.133 1.46 1.46 0 0 0-.396.373v1.616Zm-.03-2.02c.14-.174.304-.314.488-.42.185-.105.396-.158.634-.158a1.2 1.2 0 0 1 .525.113c.156.072.29.181.4.326.11.143.194.322.253.535.06.213.09.459.09.736 0 .246-.034.476-.1.69a1.662 1.662 0 0 1-.287.55 1.348 1.348 0 0 1-.455.367c-.178.088-.38.132-.604.132-.205 0-.38-.034-.528-.102a1.266 1.266 0 0 1-.386-.29v1.478h-.59v-4.475h.352c.084 0 .135.04.155.122l.053.396ZM96.94 47.049c.243 0 .463.04.66.122a1.415 1.415 0 0 1 .818.891c.075.211.112.448.112.71 0 .264-.037.501-.112.712a1.416 1.416 0 0 1-.819.888c-.196.08-.416.119-.66.119a1.78 1.78 0 0 1-.666-.119 1.415 1.415 0 0 1-.502-.346 1.544 1.544 0 0 1-.32-.542 2.184 2.184 0 0 1-.109-.712c0-.262.037-.499.11-.71.074-.213.18-.395.32-.544.138-.15.305-.266.5-.347.199-.081.42-.122.667-.122Zm0 2.983c.33 0 .576-.11.739-.33.162-.222.244-.531.244-.927 0-.398-.082-.709-.244-.93-.163-.223-.41-.334-.74-.334-.167 0-.313.029-.438.086a.828.828 0 0 0-.31.247c-.082.108-.144.241-.186.4-.04.156-.059.333-.059.53 0 .397.082.706.244.928.165.22.415.33.75.33ZM101.782 50.045c.196-.008.368-.045.518-.108a1.034 1.034 0 0 0 .61-.65c.053-.152.08-.323.08-.512 0-.191-.027-.363-.08-.515a1.03 1.03 0 0 0-.61-.653 1.542 1.542 0 0 0-.521-.112v2.52l.003.03Zm-.522-2.55a1.542 1.542 0 0 0-.521.112c-.15.061-.276.147-.379.257-.102.11-.179.242-.231.396a1.632 1.632 0 0 0-.076.515c0 .19.025.36.076.511.052.152.129.283.231.393.101.108.226.194.376.258.152.063.325.1.521.108l.003-.02v-2.53Zm.538-.443c.275.011.523.06.743.145.22.086.407.204.561.354.154.15.272.327.353.534.084.205.125.434.125.687 0 .253-.041.483-.125.69a1.504 1.504 0 0 1-.353.53 1.686 1.686 0 0 1-.561.35c-.22.086-.468.135-.743.146v1.108h-.554v-1.108a2.288 2.288 0 0 1-.743-.146 1.548 1.548 0 0 1-.917-.881 1.868 1.868 0 0 1-.122-.69c0-.252.04-.481.122-.686a1.54 1.54 0 0 1 .356-.534c.154-.15.341-.268.561-.354.22-.085.468-.134.743-.145v-1.336h.554v1.336ZM106.82 50.045a1.48 1.48 0 0 0 .518-.108c.152-.064.279-.15.38-.258.103-.11.18-.24.231-.393.053-.151.079-.322.079-.511 0-.191-.026-.363-.079-.515a1.036 1.036 0 0 0-.611-.653 1.536 1.536 0 0 0-.521-.112v2.52l.003.03Zm-.521-2.55a1.536 1.536 0 0 0-.521.112 1.07 1.07 0 0 0-.38.257c-.101.11-.178.242-.231.396a1.632 1.632 0 0 0-.076.515c0 .19.025.36.076.511.053.152.13.283.231.393.101.108.227.194.376.258.152.063.326.1.522.108l.003-.02v-2.53Zm.538-.443c.275.011.522.06.742.145.22.086.407.204.561.354.154.15.272.327.353.534.084.205.126.434.126.687 0 .253-.042.483-.126.69a1.504 1.504 0 0 1-.353.53 1.686 1.686 0 0 1-.561.35c-.22.086-.467.135-.742.146v1.108h-.555v-1.108a2.282 2.282 0 0 1-.742-.146 1.538 1.538 0 0 1-.917-.881 1.856 1.856 0 0 1-.123-.69c0-.252.041-.481.123-.686.083-.207.202-.385.356-.534.154-.15.341-.268.561-.354.22-.085.467-.134.742-.145v-1.336h.555v1.336ZM111.974 48.409c0-.137-.019-.261-.059-.373a.78.78 0 0 0-.436-.485.884.884 0 0 0-.359-.07c-.282 0-.505.083-.67.248-.163.163-.264.39-.304.68h1.828Zm.476 1.567a1.16 1.16 0 0 1-.261.231 1.919 1.919 0 0 1-.683.25 2.075 2.075 0 0 1-.366.034c-.231 0-.445-.039-.641-.115a1.456 1.456 0 0 1-.505-.344 1.63 1.63 0 0 1-.33-.56 2.28 2.28 0 0 1-.118-.766c0-.234.035-.451.105-.654.073-.202.176-.377.31-.524.135-.15.299-.267.492-.35a1.6 1.6 0 0 1 .654-.129c.2 0 .385.034.554.102.172.066.319.163.442.29a1.3 1.3 0 0 1 .294.47c.07.184.105.395.105.633 0 .092-.009.154-.029.185-.02.03-.057.046-.112.046h-2.235c.007.211.036.395.086.551.053.156.126.287.218.393a.89.89 0 0 0 .33.234c.128.05.271.076.429.076.147 0 .274-.017.38-.05a1.946 1.946 0 0 0 .468-.22.26.26 0 0 1 .135-.053.13.13 0 0 1 .113.056l.165.214ZM115.935 47.696a.262.262 0 0 1-.052.056.12.12 0 0 1-.073.02.202.202 0 0 1-.109-.04 1.47 1.47 0 0 0-.148-.092 1.07 1.07 0 0 0-.525-.132c-.165 0-.31.03-.436.089a.832.832 0 0 0-.316.25c-.084.11-.148.244-.192.4a2.021 2.021 0 0 0-.063.525c0 .202.024.382.07.54.046.157.111.289.194.397a.898.898 0 0 0 .307.244.972.972 0 0 0 .406.082c.143 0 .261-.016.353-.049.093-.035.169-.074.228-.115.062-.042.112-.08.152-.113a.191.191 0 0 1 .122-.053c.048 0 .086.02.112.057l.165.214c-.072.09-.155.167-.247.231a1.59 1.59 0 0 1-.634.254c-.117.02-.235.03-.356.03-.209 0-.404-.039-.584-.115a1.337 1.337 0 0 1-.466-.334 1.59 1.59 0 0 1-.31-.541 2.193 2.193 0 0 1-.112-.73c0-.248.034-.478.102-.69.071-.21.172-.392.304-.544a1.39 1.39 0 0 1 .491-.36c.196-.085.421-.128.674-.128.235 0 .442.038.62.115.18.075.34.182.479.32l-.156.212ZM120.013 47.102v3.343h-.587v-2.27a2.604 2.604 0 0 1 .023-.294c-.02.044-.04.084-.059.122a.932.932 0 0 1-.063.102l-1.614 2.195a.568.568 0 0 1-.092.102.176.176 0 0 1-.119.046h-.356v-3.343h.59v2.27c0 .042-.002.089-.006.14-.005.047-.01.097-.017.148.02-.042.04-.08.06-.116.019-.037.039-.071.059-.102l1.614-2.195a.488.488 0 0 1 .092-.099.182.182 0 0 1 .122-.05h.353ZM122.736 47.049c.244 0 .464.04.66.122a1.418 1.418 0 0 1 .818.891c.075.211.113.448.113.71 0 .264-.038.501-.113.712a1.419 1.419 0 0 1-.818.888c-.196.08-.416.119-.66.119-.246 0-.469-.04-.667-.119a1.415 1.415 0 0 1-.501-.346 1.541 1.541 0 0 1-.32-.542 2.174 2.174 0 0 1-.109-.712c0-.262.036-.499.109-.71.075-.213.181-.395.32-.544.138-.15.306-.266.501-.347.198-.081.421-.122.667-.122Zm0 2.983c.33 0 .576-.11.739-.33.163-.222.244-.531.244-.927 0-.398-.081-.709-.244-.93-.163-.223-.409-.334-.739-.334-.167 0-.313.029-.439.086a.833.833 0 0 0-.31.247c-.081.108-.143.241-.185.4a2.198 2.198 0 0 0-.059.53c0 .397.081.706.244.928.165.22.415.33.749.33ZM128.242 47.102v3.343h-.591V48.88h-1.604v1.565h-.59v-3.343h.59v1.333h1.604v-1.333h.591ZM131.372 48.94c-.27.009-.501.03-.693.066a1.95 1.95 0 0 0-.465.132.658.658 0 0 0-.261.195.43.43 0 0 0-.079.25c0 .088.014.164.043.228a.447.447 0 0 0 .116.159c.05.04.108.069.174.089a.875.875 0 0 0 .218.026c.104 0 .198-.01.284-.03a1.263 1.263 0 0 0 .459-.234 1.83 1.83 0 0 0 .204-.188v-.693Zm-1.897-1.366c.185-.178.384-.312.597-.4.214-.088.45-.132.71-.132.187 0 .353.031.498.093a1.022 1.022 0 0 1 .591.657c.05.156.076.327.076.514v2.139h-.261a.27.27 0 0 1-.132-.027c-.031-.02-.055-.057-.073-.112l-.066-.317a3.708 3.708 0 0 1-.257.218 1.648 1.648 0 0 1-.264.158 1.535 1.535 0 0 1-.644.132c-.129 0-.252-.017-.366-.052a.8.8 0 0 1-.502-.439 1.001 1.001 0 0 1-.072-.396c0-.132.036-.259.109-.38a.942.942 0 0 1 .353-.326c.163-.095.375-.172.637-.231.262-.062.583-.097.963-.106v-.26c0-.26-.056-.456-.168-.588-.112-.134-.276-.201-.492-.201-.145 0-.267.018-.366.056a1.305 1.305 0 0 0-.254.122c-.07.044-.132.085-.185.122a.263.263 0 0 1-.152.053.177.177 0 0 1-.102-.03.31.31 0 0 1-.073-.08l-.105-.187ZM136.157 50.445h-.588v-2.881h-1.056c-.026.424-.066.792-.118 1.102a5.12 5.12 0 0 1-.192.789 2.187 2.187 0 0 1-.247.528 1.272 1.272 0 0 1-.287.313.85.85 0 0 1-.311.152c-.105.026-.211.04-.316.04-.187 0-.281-.03-.281-.09v-.372h.172c.074 0 .15-.014.227-.04a.585.585 0 0 0 .225-.152 1.22 1.22 0 0 0 .214-.313c.068-.137.13-.313.185-.528.057-.218.106-.481.145-.789.042-.31.074-.678.096-1.102h2.132v3.343ZM138.756 50.016a.975.975 0 0 0 .307-.043.612.612 0 0 0 .217-.126.52.52 0 0 0 .129-.191.635.635 0 0 0 .043-.238.662.662 0 0 0-.036-.22.446.446 0 0 0-.122-.185.582.582 0 0 0-.218-.126c-.09-.03-.2-.046-.33-.046h-.71v1.175h.72Zm-.01-1.604c.231 0 .424.027.581.082.158.055.285.13.379.221.097.093.166.2.208.32a1.14 1.14 0 0 1-.016.793.902.902 0 0 1-.235.326c-.103.09-.231.162-.383.215-.151.05-.326.076-.524.076h-1.284v-3.343h.564v1.31h.71ZM143.8 47.102v3.343h-.59V48.88h-1.604v1.565h-.591v-3.343h.591v1.333h1.604v-1.333h.59ZM146.931 48.94c-.271.009-.502.03-.693.066a1.95 1.95 0 0 0-.465.132.658.658 0 0 0-.261.195.423.423 0 0 0-.079.25c0 .088.014.164.043.228a.444.444 0 0 0 .115.159.53.53 0 0 0 .175.089.87.87 0 0 0 .218.026c.103 0 .198-.01.284-.03a1.263 1.263 0 0 0 .458-.234c.071-.055.139-.118.205-.188v-.693Zm-1.898-1.366c.185-.178.384-.312.598-.4.213-.088.45-.132.709-.132.187 0 .353.031.499.093a1.022 1.022 0 0 1 .59.657c.051.156.076.327.076.514v2.139h-.261a.27.27 0 0 1-.132-.027c-.03-.02-.055-.057-.072-.112l-.066-.317a3.495 3.495 0 0 1-.258.218 1.565 1.565 0 0 1-.264.158 1.412 1.412 0 0 1-.297.096 1.526 1.526 0 0 1-.346.037c-.13 0-.252-.018-.366-.053a.885.885 0 0 1-.301-.165.811.811 0 0 1-.201-.274 1 1 0 0 1-.073-.396c0-.132.037-.259.109-.38a.958.958 0 0 1 .353-.326c.163-.095.375-.172.637-.231.262-.062.583-.097.964-.106v-.26c0-.26-.056-.456-.168-.588-.113-.134-.277-.201-.492-.201-.145 0-.267.018-.366.056a1.315 1.315 0 0 0-.255.122c-.07.044-.132.085-.184.122a.265.265 0 0 1-.152.053.172.172 0 0 1-.102-.03.31.31 0 0 1-.073-.08l-.106-.187ZM150.544 48.663v-1.165h-.561a.792.792 0 0 0-.317.056.575.575 0 0 0-.208.139.486.486 0 0 0-.109.188.663.663 0 0 0-.033.204c0 .18.066.322.198.426.132.101.313.152.541.152h.489Zm.561-1.561v3.343h-.561v-1.41h-.258a.623.623 0 0 0-.155.017.37.37 0 0 0-.105.04.276.276 0 0 0-.076.069 1.594 1.594 0 0 0-.07.092l-.732.987a.39.39 0 0 1-.139.155.448.448 0 0 1-.234.05h-.409l.97-1.26a.58.58 0 0 1 .313-.265 1.382 1.382 0 0 1-.429-.119 1.036 1.036 0 0 1-.287-.201.757.757 0 0 1-.158-.26.867.867 0 0 1-.05-.288.95.95 0 0 1 .066-.343.818.818 0 0 1 .218-.304c.099-.09.227-.162.383-.217.158-.058.35-.086.574-.086h1.139ZM155.089 49.64a.954.954 0 0 0 .353.306c.128.06.271.09.429.09.313 0 .552-.112.72-.334.167-.222.25-.539.25-.95a2.29 2.29 0 0 0-.059-.561 1.045 1.045 0 0 0-.165-.383.65.65 0 0 0-.267-.221.893.893 0 0 0-.36-.07.955.955 0 0 0-.505.133 1.46 1.46 0 0 0-.396.373v1.616Zm-.03-2.02c.141-.174.304-.314.489-.42.185-.105.396-.158.633-.158.194 0 .369.038.525.113.156.072.289.181.399.326.11.143.195.322.255.535.059.213.089.459.089.736 0 .246-.033.476-.099.69a1.67 1.67 0 0 1-.287.55 1.352 1.352 0 0 1-.456.367 1.345 1.345 0 0 1-.604.132c-.204 0-.38-.034-.528-.102a1.265 1.265 0 0 1-.386-.29v1.478h-.591v-4.475h.354c.083 0 .135.04.155.122l.052.396ZM160.814 48.409c0-.137-.02-.261-.059-.373a.796.796 0 0 0-.436-.485.893.893 0 0 0-.36-.07c-.281 0-.505.083-.67.248-.162.163-.264.39-.303.68h1.828Zm.475 1.567a1.118 1.118 0 0 1-.261.231c-.101.064-.21.117-.326.158a1.929 1.929 0 0 1-.357.093 2.075 2.075 0 0 1-.366.033c-.231 0-.444-.039-.64-.115a1.447 1.447 0 0 1-.505-.344 1.6 1.6 0 0 1-.33-.56 2.28 2.28 0 0 1-.119-.766c0-.234.035-.451.106-.654.072-.202.176-.377.31-.524.134-.15.298-.267.492-.35.193-.086.411-.129.653-.129.2 0 .385.034.554.102.172.066.319.163.443.29.125.126.223.282.293.47.071.184.106.395.106.633 0 .092-.01.154-.03.185-.02.03-.057.046-.112.046h-2.234c.007.211.035.395.086.551.053.156.125.287.218.393a.89.89 0 0 0 .33.234c.127.05.27.076.429.076.147 0 .273-.017.379-.05a1.9 1.9 0 0 0 .469-.22.256.256 0 0 1 .135-.053c.048 0 .086.018.112.056l.165.214ZM164.775 47.696a.264.264 0 0 1-.053.056.117.117 0 0 1-.072.02.2.2 0 0 1-.109-.04 1.498 1.498 0 0 0-.149-.092 1.036 1.036 0 0 0-.524-.132c-.166 0-.311.03-.436.089a.842.842 0 0 0-.317.25c-.084.11-.147.244-.191.4a2.021 2.021 0 0 0-.063.525c0 .202.023.382.069.54.047.157.111.289.195.397a.889.889 0 0 0 .307.244.969.969 0 0 0 .406.082c.143 0 .261-.016.353-.049.092-.035.168-.074.228-.115.061-.042.112-.08.151-.113a.193.193 0 0 1 .123-.053.13.13 0 0 1 .112.057l.165.214c-.073.09-.155.167-.248.231a1.552 1.552 0 0 1-.633.254c-.117.02-.236.03-.357.03-.209 0-.404-.039-.584-.115a1.343 1.343 0 0 1-.465-.334 1.574 1.574 0 0 1-.31-.541 2.192 2.192 0 0 1-.113-.73c0-.248.034-.478.103-.69.07-.21.171-.392.303-.544.134-.154.298-.273.492-.36.196-.085.42-.128.673-.128.236 0 .442.038.621.115.18.075.34.182.478.32l-.155.212ZM168.764 47.55h-1.284v2.895h-.587V47.55h-1.284v-.45h3.155v.45ZM171.488 48.94c-.27.009-.501.03-.693.066a1.95 1.95 0 0 0-.465.132.658.658 0 0 0-.261.195.43.43 0 0 0-.079.25c0 .088.015.164.043.228a.447.447 0 0 0 .116.159c.05.04.108.069.174.089a.875.875 0 0 0 .218.026c.104 0 .198-.01.284-.03a1.263 1.263 0 0 0 .459-.234 1.83 1.83 0 0 0 .204-.188v-.693Zm-1.897-1.366c.185-.178.384-.312.597-.4.214-.088.45-.132.71-.132.187 0 .353.031.498.093a1.022 1.022 0 0 1 .591.657c.05.156.076.327.076.514v2.139h-.261a.27.27 0 0 1-.132-.027c-.031-.02-.055-.057-.073-.112l-.066-.317a3.708 3.708 0 0 1-.257.218 1.648 1.648 0 0 1-.264.158 1.535 1.535 0 0 1-.644.132c-.129 0-.251-.017-.366-.052a.8.8 0 0 1-.502-.439 1.001 1.001 0 0 1-.072-.396c0-.132.036-.259.109-.38a.942.942 0 0 1 .353-.326c.163-.095.375-.172.637-.231.262-.062.583-.097.963-.106v-.26c0-.26-.056-.456-.168-.588-.112-.134-.276-.201-.492-.201-.145 0-.267.018-.366.056a1.305 1.305 0 0 0-.254.122c-.07.044-.132.085-.185.122a.263.263 0 0 1-.152.053.177.177 0 0 1-.102-.03.29.29 0 0 1-.072-.08l-.106-.187ZM174.626 50.032c.22 0 .394-.05.521-.152a.514.514 0 0 0 .192-.422c0-.08-.012-.15-.036-.215a.426.426 0 0 0-.119-.171.567.567 0 0 0-.221-.112 1.212 1.212 0 0 0-.334-.04h-.722v1.112h.719Zm-.719-2.534v1.05h.643a.858.858 0 0 0 .267-.04.683.683 0 0 0 .215-.116.55.55 0 0 0 .139-.178.537.537 0 0 0 .016-.41.363.363 0 0 0-.112-.154.562.562 0 0 0-.208-.11 1.011 1.011 0 0 0-.317-.042h-.643Zm.66-.396c.206 0 .384.02.531.063.147.041.268.099.363.171a.64.64 0 0 1 .208.25.74.74 0 0 1 .066.311.93.93 0 0 1-.03.228.705.705 0 0 1-.105.228.761.761 0 0 1-.202.197.995.995 0 0 1-.317.136c.256.044.453.133.591.267a.69.69 0 0 1 .208.525.876.876 0 0 1-.099.425.876.876 0 0 1-.267.3 1.166 1.166 0 0 1-.396.182c-.152.04-.315.06-.489.06h-1.287v-3.343h1.225ZM177.592 49.64a.954.954 0 0 0 .353.306c.128.06.271.09.429.09.313 0 .553-.112.72-.334.167-.222.251-.539.251-.95 0-.218-.02-.405-.06-.561a1.045 1.045 0 0 0-.165-.383.643.643 0 0 0-.267-.221.893.893 0 0 0-.36-.07.955.955 0 0 0-.505.133 1.46 1.46 0 0 0-.396.373v1.616Zm-.029-2.02c.14-.174.303-.314.488-.42.185-.105.396-.158.634-.158.193 0 .368.038.524.113.156.072.29.181.4.326.11.143.194.322.254.535.059.213.089.459.089.736 0 .246-.033.476-.099.69a1.67 1.67 0 0 1-.287.55 1.352 1.352 0 0 1-.456.367 1.345 1.345 0 0 1-.604.132c-.204 0-.38-.034-.528-.102a1.265 1.265 0 0 1-.386-.29v1.478h-.59v-4.475h.353c.083 0 .135.04.155.122l.053.396ZM182.891 48.94c-.27.009-.501.03-.693.066a1.95 1.95 0 0 0-.465.132.658.658 0 0 0-.261.195.43.43 0 0 0-.079.25c0 .088.015.164.043.228a.447.447 0 0 0 .116.159c.05.04.109.069.175.089.068.017.14.026.217.026.104 0 .198-.01.284-.03a1.263 1.263 0 0 0 .459-.234 1.83 1.83 0 0 0 .204-.188v-.693Zm-1.897-1.366c.185-.178.384-.312.597-.4.214-.088.45-.132.71-.132.187 0 .353.031.498.093a1.022 1.022 0 0 1 .591.657c.05.156.076.327.076.514v2.139h-.261a.27.27 0 0 1-.132-.027c-.031-.02-.055-.057-.073-.112l-.066-.317a3.488 3.488 0 0 1-.257.218 1.648 1.648 0 0 1-.264.158 1.412 1.412 0 0 1-.297.096 1.529 1.529 0 0 1-.347.037c-.129 0-.251-.018-.366-.053a.786.786 0 0 1-.501-.439.984.984 0 0 1-.073-.396c0-.132.036-.259.109-.38a.942.942 0 0 1 .353-.326c.163-.095.375-.172.637-.231.262-.062.583-.097.963-.106v-.26c0-.26-.056-.456-.168-.588-.112-.134-.276-.201-.492-.201-.145 0-.267.018-.366.056a1.305 1.305 0 0 0-.254.122c-.07.044-.132.085-.185.122a.263.263 0 0 1-.152.053.177.177 0 0 1-.102-.03.306.306 0 0 1-.072-.08l-.106-.187ZM188.141 50v1.415c0 .057-.016.101-.049.132a.16.16 0 0 1-.122.05h-.36v-1.152h-2.865v-3.343h.591v2.897h1.604v-2.897h.591v2.897h.61ZM191.988 47.102v3.343h-.588v-2.27c0-.045.003-.092.007-.143.004-.05.01-.1.016-.151a1.624 1.624 0 0 1-.059.122.932.932 0 0 1-.063.102l-1.613 2.195a.575.575 0 0 1-.093.102.176.176 0 0 1-.119.046h-.356v-3.343h.591v2.27c0 .042-.002.089-.007.14-.004.047-.01.097-.016.148a1.91 1.91 0 0 1 .118-.218l1.614-2.195a.467.467 0 0 1 .093-.099.18.18 0 0 1 .122-.05h.353ZM195.06 48.663v-1.165h-.561a.796.796 0 0 0-.317.056.57.57 0 0 0-.207.139.486.486 0 0 0-.109.188.663.663 0 0 0-.033.204c0 .18.066.322.198.426.132.101.312.152.541.152h.488Zm.561-1.561v3.343h-.561v-1.41h-.257a.618.618 0 0 0-.155.017.376.376 0 0 0-.106.04.291.291 0 0 0-.076.069 1.248 1.248 0 0 0-.069.092l-.733.987a.381.381 0 0 1-.138.155.45.45 0 0 1-.235.05h-.409l.97-1.26a.582.582 0 0 1 .314-.265 1.382 1.382 0 0 1-.429-.119 1.02 1.02 0 0 1-.287-.201.745.745 0 0 1-.159-.26.866.866 0 0 1-.049-.288.95.95 0 0 1 .066-.343.807.807 0 0 1 .218-.304 1.1 1.1 0 0 1 .383-.217c.158-.058.349-.086.574-.086h1.138ZM200.299 50.032c.22 0 .393-.05.521-.152a.513.513 0 0 0 .191-.422c0-.08-.012-.15-.036-.215a.416.416 0 0 0-.119-.171.56.56 0 0 0-.221-.112 1.2 1.2 0 0 0-.333-.04h-.723v1.112h.72Zm-.72-2.534v1.05h.644a.858.858 0 0 0 .267-.04.694.694 0 0 0 .215-.116.546.546 0 0 0 .138-.178.538.538 0 0 0 .017-.41.365.365 0 0 0-.113-.154.557.557 0 0 0-.207-.11 1.016 1.016 0 0 0-.317-.042h-.644Zm.66-.396c.207 0 .384.02.532.063.147.041.268.099.362.171a.64.64 0 0 1 .208.25.74.74 0 0 1 .066.311.927.927 0 0 1-.029.228.742.742 0 0 1-.307.426 1.005 1.005 0 0 1-.317.135c.255.044.452.133.591.267a.693.693 0 0 1 .208.525.876.876 0 0 1-.099.425.869.869 0 0 1-.268.3 1.166 1.166 0 0 1-.396.182 1.92 1.92 0 0 1-.488.06h-1.287v-3.343h1.224ZM204.486 48.94c-.271.009-.502.03-.693.066a1.95 1.95 0 0 0-.465.132.658.658 0 0 0-.261.195.423.423 0 0 0-.079.25c0 .088.014.164.043.228a.444.444 0 0 0 .115.159.53.53 0 0 0 .175.089.87.87 0 0 0 .218.026c.103 0 .198-.01.284-.03a1.263 1.263 0 0 0 .458-.234c.071-.055.139-.118.205-.188v-.693Zm-1.898-1.366c.185-.178.384-.312.598-.4.213-.088.45-.132.709-.132.187 0 .353.031.498.093a1.018 1.018 0 0 1 .591.657c.051.156.076.327.076.514v2.139h-.261a.27.27 0 0 1-.132-.027c-.03-.02-.055-.057-.072-.112l-.066-.317a3.495 3.495 0 0 1-.258.218 1.565 1.565 0 0 1-.264.158 1.412 1.412 0 0 1-.297.096 1.526 1.526 0 0 1-.346.037c-.13 0-.252-.018-.366-.053a.885.885 0 0 1-.301-.165.811.811 0 0 1-.201-.274 1 1 0 0 1-.073-.396c0-.132.037-.259.109-.38a.958.958 0 0 1 .353-.326c.163-.095.375-.172.637-.231.262-.062.583-.097.964-.106v-.26c0-.26-.056-.456-.168-.588-.113-.134-.277-.201-.492-.201-.145 0-.267.018-.366.056a1.315 1.315 0 0 0-.255.122c-.07.044-.132.085-.184.122a.268.268 0 0 1-.152.053.172.172 0 0 1-.102-.03.31.31 0 0 1-.073-.08l-.106-.187ZM209.125 47.102v3.343h-.591V48.88h-1.604v1.565h-.59v-3.343h.59v1.333h1.604v-1.333h.591ZM213.229 47.102v3.343h-.591V48.88h-1.604v1.565h-.59v-3.343h.59v1.333h1.604v-1.333h.591ZM218.948 47.696a.264.264 0 0 1-.053.056.12.12 0 0 1-.073.02.197.197 0 0 1-.108-.04c-.04-.029-.09-.06-.149-.092a1.06 1.06 0 0 0-.525-.132c-.165 0-.31.03-.435.089a.835.835 0 0 0-.317.25c-.084.11-.147.244-.191.4a2.021 2.021 0 0 0-.063.525c0 .202.023.382.069.54.046.157.111.289.195.397a.889.889 0 0 0 .307.244.969.969 0 0 0 .406.082c.143 0 .26-.016.353-.049.092-.035.168-.074.227-.115.062-.042.113-.08.152-.113a.193.193 0 0 1 .122-.053.13.13 0 0 1 .113.057l.165.214c-.073.09-.156.167-.248.231a1.552 1.552 0 0 1-.634.254c-.116.02-.235.03-.356.03-.209 0-.404-.039-.584-.115a1.343 1.343 0 0 1-.465-.334 1.592 1.592 0 0 1-.311-.541 2.22 2.22 0 0 1-.112-.73c0-.248.034-.478.103-.69.07-.21.171-.392.303-.544.134-.154.298-.273.492-.36.196-.085.42-.128.673-.128.235 0 .442.038.62.115.181.075.34.182.479.32l-.155.212ZM225.024 49.887c.063 0 .114.019.151.056a.194.194 0 0 1 .056.145v.357h-3.154v-.202a.363.363 0 0 1 .109-.25l1.514-1.522c.126-.127.24-.25.343-.366.104-.119.192-.237.264-.356.073-.12.129-.24.169-.36.039-.123.059-.254.059-.393a.922.922 0 0 0-.066-.363.702.702 0 0 0-.449-.412 1.023 1.023 0 0 0-.333-.053c-.121 0-.232.017-.333.053a.858.858 0 0 0-.578.653c-.026.077-.062.129-.109.155-.044.024-.106.031-.188.02l-.307-.053c.031-.215.091-.406.179-.57.09-.168.202-.308.336-.42a1.44 1.44 0 0 1 .465-.254c.174-.06.362-.089.565-.089.2 0 .387.03.561.09.174.059.324.145.452.26.127.112.228.25.3.412.073.163.109.348.109.555 0 .176-.026.34-.079.491-.053.15-.124.293-.215.43-.09.136-.194.269-.313.399-.117.13-.241.26-.373.392l-1.247 1.274a2.222 2.222 0 0 1 .528-.079h1.584ZM229.61 48.082c0 .413-.045.772-.135 1.076a2.223 2.223 0 0 1-.363.749 1.464 1.464 0 0 1-.548.442 1.584 1.584 0 0 1-.673.145 1.474 1.474 0 0 1-1.218-.587 2.223 2.223 0 0 1-.363-.75 3.888 3.888 0 0 1-.132-1.075c0-.414.044-.772.132-1.076a2.22 2.22 0 0 1 .363-.752 1.463 1.463 0 0 1 1.218-.591c.239 0 .464.048.673.145.211.097.394.245.548.446.154.198.275.449.363.752.09.304.135.662.135 1.076Zm-.611 0c0-.36-.03-.663-.092-.908a1.776 1.776 0 0 0-.244-.594.897.897 0 0 0-.353-.32.938.938 0 0 0-.838 0 .899.899 0 0 0-.354.32c-.101.15-.182.348-.244.594a3.935 3.935 0 0 0-.089.908c0 .36.03.663.089.907.062.245.143.442.244.591.102.15.219.258.354.324a.96.96 0 0 0 .838 0 .923.923 0 0 0 .353-.324c.103-.15.185-.346.244-.59a3.76 3.76 0 0 0 .092-.908ZM233.824 48.082c0 .413-.046.772-.136 1.076a2.223 2.223 0 0 1-.363.749 1.456 1.456 0 0 1-.548.442 1.58 1.58 0 0 1-.673.145 1.474 1.474 0 0 1-1.217-.587 2.223 2.223 0 0 1-.363-.75 3.888 3.888 0 0 1-.132-1.075c0-.414.044-.772.132-1.076a2.22 2.22 0 0 1 .363-.752 1.463 1.463 0 0 1 1.217-.591c.24 0 .464.048.673.145.212.097.394.245.548.446.154.198.275.449.363.752.09.304.136.662.136 1.076Zm-.611 0c0-.36-.031-.663-.092-.908a1.776 1.776 0 0 0-.245-.594.89.89 0 0 0-.353-.32.938.938 0 0 0-.838 0 .897.897 0 0 0-.353.32c-.101.15-.183.348-.244.594a3.88 3.88 0 0 0-.089.908c0 .36.029.663.089.907.061.245.143.442.244.591.101.15.219.258.353.324a.963.963 0 0 0 .838 0 .916.916 0 0 0 .353-.324c.104-.15.185-.346.245-.59a3.81 3.81 0 0 0 .092-.908ZM235.341 47.105c0 .15.021.284.063.403a.851.851 0 0 0 .184.297c.082.081.18.143.294.184.117.042.247.063.39.063.158 0 .298-.025.419-.076a.892.892 0 0 0 .501-.505 1.057 1.057 0 0 0-.006-.75.868.868 0 0 0-.195-.306.844.844 0 0 0-.3-.191 1.008 1.008 0 0 0-.38-.07c-.145 0-.277.025-.396.073a.903.903 0 0 0-.307.195.846.846 0 0 0-.198.3 1.034 1.034 0 0 0-.069.383Zm1.373 1.455.135-.181c.042-.057.081-.114.119-.172-.121.097-.258.17-.409.221a1.518 1.518 0 0 1-.99-.013 1.228 1.228 0 0 1-.71-.686 1.51 1.51 0 0 1-.105-.581 1.464 1.464 0 0 1 .438-1.053c.139-.134.304-.24.495-.316.192-.078.402-.116.631-.116.226 0 .432.037.617.112.185.075.343.18.475.314.132.134.233.294.304.482.072.187.109.393.109.62a1.999 1.999 0 0 1-.149.75 2.457 2.457 0 0 1-.172.349 5.182 5.182 0 0 1-.231.353l-1.151 1.663a.322.322 0 0 1-.122.102.435.435 0 0 1-.182.037h-.541l1.439-1.885ZM241.254 47.55h-1.577v2.895h-.591v-3.343h2.168v.449ZM241.737 50.082c0-.057.01-.111.03-.162a.462.462 0 0 1 .086-.132.414.414 0 0 1 .709.294.41.41 0 0 1-.122.294.376.376 0 0 1-.132.085.4.4 0 0 1-.162.033.398.398 0 0 1-.161-.033.376.376 0 0 1-.132-.085.476.476 0 0 1-.086-.13.445.445 0 0 1-.03-.164Z" fill="#fff"/></svg>