<svg width="25" height="31" fill="none" xmlns="http://www.w3.org/2000/svg"><path fill-rule="evenodd" clip-rule="evenodd" d="M11.216 5.276c-.362.041-.952.135-1.31.208-.36.073-1 .246-1.425.383-.425.138-1.11.412-1.522.61-.413.198-1.013.543-1.334.767l-.583.407v5.207c0 4 .026 5.333.11 5.749.061.298.242.816.402 1.152.198.414.482.81.883 1.233.325.342.913.857 1.307 1.143.393.286 1.015.71 1.381.942.367.232 1.255.783 1.975 1.226.719.442 1.35.804 1.4.804.051 0 .682-.362 1.401-.804.72-.443 1.608-.994 1.974-1.226.367-.232.989-.656 1.382-.942.393-.287.981-.8 1.306-1.143.404-.425.684-.816.882-1.233.159-.336.337-.798.394-1.027.078-.306.114-1.827.138-5.725l.032-5.309-.4-.29a14.64 14.64 0 0 0-.834-.554 11.788 11.788 0 0 0-1.166-.577 15.483 15.483 0 0 0-1.484-.532 16.47 16.47 0 0 0-1.484-.343 16.296 16.296 0 0 0-1.75-.164c-.559-.02-1.312-.003-1.675.038Zm2.951 1.702c.435.066 1.13.217 1.542.335.412.118 1.173.424 1.69.68l.94.463-.023 4.972-.024 4.97-.267.565c-.163.343-.441.738-.71 1.006-.243.243-.684.62-.98.839-.296.218-1.257.843-2.134 1.39-.878.545-1.643.992-1.7.992-.058 0-.824-.447-1.701-.993-.878-.546-1.838-1.171-2.134-1.39a10.37 10.37 0 0 1-.98-.838 3.923 3.923 0 0 1-.71-1.006L6.71 18.4l-.024-4.972-.024-4.97.94-.465c.518-.255 1.278-.56 1.691-.68a14.723 14.723 0 0 1 1.458-.327c.39-.062 1.14-.115 1.667-.12a13.47 13.47 0 0 1 1.75.113Zm-2.792 1.64c-.32.04-.864.144-1.208.23-.344.087-.897.263-1.23.393l-.603.235v4.086c0 2.695.032 4.2.092 4.42.05.183.185.459.301.612.116.153.5.494.854.756.353.262 1.131.783 1.729 1.158.597.375 1.133.682 1.19.682.058 0 .594-.307 1.191-.682a34.138 34.138 0 0 0 1.729-1.158c.354-.262.74-.603.857-.758.118-.154.253-.448.3-.653.053-.229.087-1.942.088-4.418l.002-4.045-.604-.235c-.332-.13-.867-.302-1.188-.384-.32-.082-.92-.19-1.333-.241-.412-.05-.938-.087-1.167-.082-.229.006-.679.044-1 .084Z" fill="#383838"/></svg>