<svg xmlns="http://www.w3.org/2000/svg" width="90" height="90" fill="none"><g clip-path="url(#a)"><g filter="url(#b)"><path fill="#DFE8F3" fill-opacity=".5" d="M20.5 70.205V72.5H35v-6l-.372-7.82a8 8 0 0 0-1.846-4.741L29.5 50l-5.263-5.702a1.765 1.765 0 0 0-1.782-.5 1.765 1.765 0 0 1-2.243-1.843L20.5 38.5l-.406-8.928a3.985 3.985 0 0 0-1.868-3.181 3.922 3.922 0 0 0-4.343.121 3.89 3.89 0 0 0-1.598 2.674l-2.67 20.91a8 8 0 0 0-.024 1.81l.135 1.356A8 8 0 0 0 11.9 57.99l6.387 6.691a8 8 0 0 1 2.213 5.524Z"/><path stroke="#fff" stroke-width="2" d="M20.5 70.205V72.5H35v-6l-.372-7.82a8 8 0 0 0-1.846-4.741L29.5 50l-5.263-5.702a1.765 1.765 0 0 0-1.782-.5 1.765 1.765 0 0 1-2.243-1.843L20.5 38.5l-.406-8.928a3.985 3.985 0 0 0-1.868-3.181 3.922 3.922 0 0 0-4.343.121 3.89 3.89 0 0 0-1.598 2.674l-2.67 20.91a8 8 0 0 0-.024 1.81l.135 1.356A8 8 0 0 0 11.9 57.99l6.387 6.691a8 8 0 0 1 2.213 5.524Z"/></g><g filter="url(#c)"><path fill="#DFE8F3" fill-opacity=".5" d="M66.5 70.205V72.5H52v-6l.372-7.82a8 8 0 0 1 1.846-4.741L57.5 50l5.263-5.702a1.765 1.765 0 0 1 1.782-.5 1.765 1.765 0 0 0 2.243-1.843L66.5 38.5l.406-8.928a3.985 3.985 0 0 1 1.868-3.181 3.922 3.922 0 0 1 4.343.121 3.89 3.89 0 0 1 1.598 2.674l2.67 20.91a8 8 0 0 1 .024 1.81l-.135 1.356A8 8 0 0 1 75.1 57.99l-6.387 6.691a8 8 0 0 0-2.213 5.524Z"/><path stroke="#fff" stroke-width="2" d="M66.5 70.205V72.5H52v-6l.372-7.82a8 8 0 0 1 1.846-4.741L57.5 50l5.263-5.702a1.765 1.765 0 0 1 1.782-.5 1.765 1.765 0 0 0 2.243-1.843L66.5 38.5l.406-8.928a3.985 3.985 0 0 1 1.868-3.181 3.922 3.922 0 0 1 4.343.121 3.89 3.89 0 0 1 1.598 2.674l2.67 20.91a8 8 0 0 1 .024 1.81l-.135 1.356A8 8 0 0 1 75.1 57.99l-6.387 6.691a8 8 0 0 0-2.213 5.524Z"/></g><g filter="url(#d)"><path stroke="#fff" stroke-width="2" d="m27 57.5-7.21-6.882a4.71 4.71 0 0 1 .21-7.003m0 0a3.363 3.363 0 0 1 4.681.328l8.378 9.384a8 8 0 0 1 2.03 5.085L35.5 72h-15v-2.186a8 8 0 0 0-2.343-5.657L11.73 57.73a8 8 0 0 1-2.29-6.569l2.627-22.893a3.98 3.98 0 0 1 7.932.454v14.892Z" shape-rendering="crispEdges"/></g><g filter="url(#e)"><path stroke="#fff" stroke-width="2" d="m60 57.5 7.21-6.882a4.71 4.71 0 0 0-.21-7.003m0 0a3.363 3.363 0 0 0-4.681.328l-8.378 9.384a8 8 0 0 0-2.03 5.085L51.5 72h15v-2.186a8 8 0 0 1 2.343-5.657l6.426-6.426a8 8 0 0 0 2.29-6.569L74.934 28.27a3.98 3.98 0 0 0-7.933.454v14.892Z" shape-rendering="crispEdges"/></g><g filter="url(#f)"><path fill="#1894FF" d="M34.43 28.5a13.465 13.465 0 0 0-4.43 10v4.21c0 .16.13.29.29.29h26.42c.16 0 .29-.13.29-.29V38.5c0-3.965-1.71-7.53-4.43-10A13.45 13.45 0 0 1 43.5 32a13.45 13.45 0 0 1-9.07-3.5Z"/><path fill="url(#g)" d="M34.43 28.5a13.465 13.465 0 0 0-4.43 10v4.21c0 .16.13.29.29.29h26.42c.16 0 .29-.13.29-.29V38.5c0-3.965-1.71-7.53-4.43-10A13.45 13.45 0 0 1 43.5 32a13.45 13.45 0 0 1-9.07-3.5Z"/><path fill="url(#h)" d="M34.43 28.5a13.465 13.465 0 0 0-4.43 10v4.21c0 .16.13.29.29.29h26.42c.16 0 .29-.13.29-.29V38.5c0-3.965-1.71-7.53-4.43-10A13.45 13.45 0 0 1 43.5 32a13.45 13.45 0 0 1-9.07-3.5Z"/><path fill="url(#i)" d="M34.43 28.5a13.465 13.465 0 0 0-4.43 10v4.21c0 .16.13.29.29.29h26.42c.16 0 .29-.13.29-.29V38.5c0-3.965-1.71-7.53-4.43-10A13.45 13.45 0 0 1 43.5 32a13.45 13.45 0 0 1-9.07-3.5Z" style="mix-blend-mode:overlay"/></g><circle cx="43.5" cy="18.5" r="9.5" fill="#1894FF"/><circle cx="43.5" cy="18.5" r="9.5" fill="url(#j)"/><circle cx="43.5" cy="18.5" r="9.5" fill="url(#k)"/><circle cx="43.5" cy="18.5" r="9.5" fill="url(#l)" style="mix-blend-mode:overlay"/><g filter="url(#m)"><rect width="21" height="9" x="17" y="72.5" fill="#1894FF" rx="3"/><rect width="21" height="9" x="17" y="72.5" fill="url(#n)" rx="3"/><rect width="21" height="9" x="17" y="72.5" fill="url(#o)" rx="3"/><rect width="21" height="9" x="17" y="72.5" fill="url(#p)" rx="3" style="mix-blend-mode:overlay"/><rect width="21" height="9" x="17" y="72.5" stroke="#fff" stroke-width="2" rx="3"/></g><g filter="url(#q)" transform="matrix(-1 0 0 1 70 72.5)"><rect width="21" height="9" fill="#1894FF" rx="3"/><rect width="21" height="9" fill="url(#r)" rx="3"/><rect width="21" height="9" fill="url(#s)" rx="3"/><rect width="21" height="9" fill="url(#t)" rx="3" style="mix-blend-mode:overlay"/><rect width="21" height="9" stroke="#fff" stroke-width="2" rx="3"/></g></g><defs><linearGradient id="n" x1="39.292" x2="32.087" y1="75.682" y2="75.682" gradientUnits="userSpaceOnUse"><stop stop-color="#016ECF"/><stop offset="1" stop-color="#0187F9"/></linearGradient><linearGradient id="j" x1="54.169" x2="47.65" y1="15.718" y2="15.718" gradientUnits="userSpaceOnUse"><stop stop-color="#016ECF"/><stop offset="1" stop-color="#0187F9"/></linearGradient><linearGradient id="h" x1="39.678" x2="30.769" y1="31.364" y2="31.364" gradientUnits="userSpaceOnUse"><stop stop-color="#0187F9" stop-opacity="0"/><stop offset="1" stop-color="#39A5FF"/></linearGradient><linearGradient id="i" x1="43.5" x2="43.5" y1="25" y2="43" gradientUnits="userSpaceOnUse"><stop stop-color="#0787F5"/><stop offset="1" stop-color="#66ADE7"/></linearGradient><linearGradient id="k" x1="40.81" x2="34.541" y1="15.718" y2="15.718" gradientUnits="userSpaceOnUse"><stop stop-color="#0187F9" stop-opacity="0"/><stop offset="1" stop-color="#39A5FF"/></linearGradient><linearGradient id="l" x1="43.5" x2="43.5" y1="9" y2="28" gradientUnits="userSpaceOnUse"><stop stop-color="#0787F5"/><stop offset="1" stop-color="#66ADE7"/></linearGradient><linearGradient id="g" x1="58.661" x2="49.397" y1="31.364" y2="31.364" gradientUnits="userSpaceOnUse"><stop stop-color="#016ECF"/><stop offset="1" stop-color="#0187F9"/></linearGradient><linearGradient id="o" x1="24.527" x2="17.598" y1="75.682" y2="75.682" gradientUnits="userSpaceOnUse"><stop stop-color="#0187F9" stop-opacity="0"/><stop offset="1" stop-color="#39A5FF"/></linearGradient><linearGradient id="p" x1="27.5" x2="27.5" y1="72.5" y2="81.5" gradientUnits="userSpaceOnUse"><stop stop-color="#0787F5"/><stop offset="1" stop-color="#66ADE7"/></linearGradient><linearGradient id="r" x1="22.292" x2="15.086" y1="3.182" y2="3.182" gradientUnits="userSpaceOnUse"><stop stop-color="#016ECF"/><stop offset="1" stop-color="#0187F9"/></linearGradient><linearGradient id="s" x1="7.527" x2=".598" y1="3.182" y2="3.182" gradientUnits="userSpaceOnUse"><stop stop-color="#0187F9" stop-opacity="0"/><stop offset="1" stop-color="#39A5FF"/></linearGradient><linearGradient id="t" x1="10.5" x2="10.5" y1="0" y2="9" gradientUnits="userSpaceOnUse"><stop stop-color="#0787F5"/><stop offset="1" stop-color="#66ADE7"/></linearGradient><filter id="m" width="35" height="23" x="10" y="67.5" color-interpolation-filters="sRGB" filterUnits="userSpaceOnUse"><feFlood flood-opacity="0" result="BackgroundImageFix"/><feColorMatrix in="SourceAlpha" result="hardAlpha" values="0 0 0 0 0 0 0 0 0 0 0 0 0 0 0 0 0 0 127 0"/><feOffset dy="2"/><feGaussianBlur stdDeviation="3"/><feComposite in2="hardAlpha" operator="out"/><feColorMatrix values="0 0 0 0 0 0 0 0 0 0 0 0 0 0 0 0 0 0 0.16 0"/><feBlend in2="BackgroundImageFix" result="effect1_dropShadow_2240_9237"/><feBlend in="SourceGraphic" in2="effect1_dropShadow_2240_9237" result="shape"/></filter><filter id="q" width="35" height="23" x="42" y="67.5" color-interpolation-filters="sRGB" filterUnits="userSpaceOnUse"><feFlood flood-opacity="0" result="BackgroundImageFix"/><feColorMatrix in="SourceAlpha" result="hardAlpha" values="0 0 0 0 0 0 0 0 0 0 0 0 0 0 0 0 0 0 127 0"/><feOffset dy="2"/><feGaussianBlur stdDeviation="3"/><feComposite in2="hardAlpha" operator="out"/><feColorMatrix values="0 0 0 0 0 0 0 0 0 0 0 0 0 0 0 0 0 0 0.16 0"/><feBlend in2="BackgroundImageFix" result="effect1_dropShadow_2240_9237"/><feBlend in="SourceGraphic" in2="effect1_dropShadow_2240_9237" result="shape"/></filter><filter id="b" width="43.449" height="64.706" x=".551" y="16.794" color-interpolation-filters="sRGB" filterUnits="userSpaceOnUse"><feFlood flood-opacity="0" result="BackgroundImageFix"/><feGaussianBlur in="BackgroundImageFix" stdDeviation="4"/><feComposite in2="SourceAlpha" operator="in" result="effect1_backgroundBlur_2240_9237"/><feBlend in="SourceGraphic" in2="effect1_backgroundBlur_2240_9237" result="shape"/></filter><filter id="d" width="46.143" height="68.257" x="-.612" y="15.743" color-interpolation-filters="sRGB" filterUnits="userSpaceOnUse"><feFlood flood-opacity="0" result="BackgroundImageFix"/><feGaussianBlur in="BackgroundImageFix" stdDeviation="4"/><feComposite in2="SourceAlpha" operator="in" result="effect1_backgroundBlur_2240_9237"/><feColorMatrix in="SourceAlpha" result="hardAlpha" values="0 0 0 0 0 0 0 0 0 0 0 0 0 0 0 0 0 0 127 0"/><feOffset dy="2"/><feGaussianBlur stdDeviation="4.5"/><feComposite in2="hardAlpha" operator="out"/><feColorMatrix values="0 0 0 0 0 0 0 0 0 0 0 0 0 0 0 0 0 0 0.3 0"/><feBlend in2="effect1_backgroundBlur_2240_9237" result="effect2_dropShadow_2240_9237"/><feBlend in="SourceGraphic" in2="effect2_dropShadow_2240_9237" result="shape"/></filter><filter id="e" width="46.143" height="68.257" x="41.469" y="15.743" color-interpolation-filters="sRGB" filterUnits="userSpaceOnUse"><feFlood flood-opacity="0" result="BackgroundImageFix"/><feGaussianBlur in="BackgroundImageFix" stdDeviation="4"/><feComposite in2="SourceAlpha" operator="in" result="effect1_backgroundBlur_2240_9237"/><feColorMatrix in="SourceAlpha" result="hardAlpha" values="0 0 0 0 0 0 0 0 0 0 0 0 0 0 0 0 0 0 127 0"/><feOffset dy="2"/><feGaussianBlur stdDeviation="4.5"/><feComposite in2="hardAlpha" operator="out"/><feColorMatrix values="0 0 0 0 0 0 0 0 0 0 0 0 0 0 0 0 0 0 0.3 0"/><feBlend in2="effect1_backgroundBlur_2240_9237" result="effect2_dropShadow_2240_9237"/><feBlend in="SourceGraphic" in2="effect2_dropShadow_2240_9237" result="shape"/></filter><filter id="c" width="43.449" height="64.706" x="43" y="16.794" color-interpolation-filters="sRGB" filterUnits="userSpaceOnUse"><feFlood flood-opacity="0" result="BackgroundImageFix"/><feGaussianBlur in="BackgroundImageFix" stdDeviation="4"/><feComposite in2="SourceAlpha" operator="in" result="effect1_backgroundBlur_2240_9237"/><feBlend in="SourceGraphic" in2="effect1_backgroundBlur_2240_9237" result="shape"/></filter><filter id="f" width="39" height="26.5" x="24" y="24.5" color-interpolation-filters="sRGB" filterUnits="userSpaceOnUse"><feFlood flood-opacity="0" result="BackgroundImageFix"/><feColorMatrix in="SourceAlpha" result="hardAlpha" values="0 0 0 0 0 0 0 0 0 0 0 0 0 0 0 0 0 0 127 0"/><feOffset dy="2"/><feGaussianBlur stdDeviation="3"/><feComposite in2="hardAlpha" operator="out"/><feColorMatrix values="0 0 0 0 0 0 0 0 0 0 0 0 0 0 0 0 0 0 0.16 0"/><feBlend in2="BackgroundImageFix" result="effect1_dropShadow_2240_9237"/><feBlend in="SourceGraphic" in2="effect1_dropShadow_2240_9237" result="shape"/></filter><clipPath id="a"><path fill="#fff" d="M0 0h90v90H0z"/></clipPath></defs></svg>