<svg width="25" height="25" fill="none" xmlns="http://www.w3.org/2000/svg"><path d="M7.574 1.673c-1.851.453-3.78 1.493-4.389 2.347-1.454 2.026-1.692 3.066-1.692 7.146 0 3.387.08 4.054.608 5.387.635 1.6 1.824 2.853 3.384 3.627.82.373.899.533.899 1.6 0 2.506.925 2.826 2.723.906l1.19-1.306 2.749-.16c3.172-.214 5.895-.96 7.085-1.974 1.85-1.546 2.882-5.493 2.538-9.6-.45-4.933-2.036-6.933-6.292-7.946-2.01-.48-6.926-.48-8.803-.027Zm8.46 1.893c2.035.56 3.066 1.227 3.753 2.454 1.137 2.026 1.375 6.346.53 9.253-.424 1.493-1.904 2.96-3.358 3.36-1.534.427-4.072.8-5.42.8-.952 0-1.19.16-2.564 1.653l-1.507 1.68-.027-1.946v-1.947l-.898-.373c-.503-.214-1.322-.88-1.851-1.494-1.19-1.413-1.586-3.253-1.428-6.586.106-2.054.265-2.747.9-4 .66-1.28 1.004-1.627 2.22-2.24 1.745-.88 2.036-.934 5.42-.987 1.665 0 3.251.133 4.23.373Z" fill="#665CA7"/><path d="M11.332 5.7c0 .24.238.4.661.4.37 0 1.11.186 1.665.4 1.798.773 2.83 2.133 3.173 4.186.264 1.547.846 1.653.846.16-.027-2.16-1.454-4.267-3.49-5.12-1.295-.56-2.855-.56-2.855-.027ZM6.864 6.5c-1.11.96-1.057 1.84.159 4.213a13.14 13.14 0 0 0 5.552 5.6c2.3 1.2 3.172 1.253 4.15.213.952-.986.82-1.52-.581-2.613-1.322-1.013-2.221-1.12-2.723-.32-.318.48-.476.507-1.164.24-1.057-.4-1.93-1.253-2.564-2.533l-.555-1.04.581-.374c.291-.213.556-.666.556-.986 0-.72-1.56-2.907-2.168-3.014-.212-.053-.767.24-1.243.614Z" fill="#665CA7"/><path d="M12.02 6.873c-.292.453.079.826.819.826.846 0 2.458 1.6 2.458 2.427 0 .907.423 1.52.793 1.147.767-.774-.607-3.574-2.035-4.134-1.216-.453-1.877-.56-2.036-.266Z" fill="#665CA7"/><path d="M12.39 8.633c0 .213.158.4.343.4.503 0 1.243.88 1.243 1.413 0 .24.185.453.396.453.688 0 .476-1.493-.29-2.106-.82-.667-1.692-.72-1.692-.16Z" fill="#665CA7"/></svg>