<svg xmlns="http://www.w3.org/2000/svg" width="70" height="70" fill="none"><path fill="url(#a)" d="M19.739 27.96c-.235 6.303 2.81 13.305 8.785 16.106 3.28 1.167 6.793.35 10.307.467 2.108 0 4.334.117 6.442.35 1.874.117 3.748.7 5.505.117.703-.35 1.055-1.05 1.406-1.634.937-1.75 1.405-3.735 1.874-5.602.351-1.4.586-2.685.82-4.085.234-2.801 4.685-2.568 4.685.233-.351 3.151-.82 6.303-1.757 9.337-2.225 8.17-6.91 8.637-14.407 8.053-3.162-.117-6.442.117-9.605.584-12.767 2.217-22.371-10.504-23.426-22.059-1.64-7.119 8.902-9.103 9.37-1.867Z"/><path fill="url(#b)" d="M19.274 27.377a18.569 18.569 0 0 1 7.965 1.05c2.928 1.05 5.622 2.684 8.433 3.968 4.1 1.984 8.55 3.385 13.119 3.268 2.343 0 4.568-.35 6.793-.817a36.687 36.687 0 0 0 9.137-3.735c4.333-2.684.234-8.753-4.1-5.835-7.028 3.501-13.939 3.968-20.85.116-2.927-1.517-5.856-3.384-8.901-4.668-4.451-1.984-9.488-2.684-14.407-2.1-2.226.233-4.568.816-6.677 1.517-2.576.933-5.27 2.217-5.27 5.368.234 4.319 4.568 5.836 7.964 3.618 2.109-1.284 4.451-1.517 6.794-1.75Z"/><defs><linearGradient id="a" x1="59.393" x2="10.418" y1="52.14" y2="23.226" gradientUnits="userSpaceOnUse"><stop stop-color="#4054E8"/><stop offset="1" stop-color="#5C47FF"/></linearGradient><linearGradient id="b" x1="71.318" x2="1.347" y1="27.166" y2="27.166" gradientUnits="userSpaceOnUse"><stop stop-color="#538FFF"/><stop offset="1" stop-color="#40A1E8"/></linearGradient></defs></svg>