<svg xmlns="http://www.w3.org/2000/svg" width="36" height="36" fill="none"><path fill="#735FF2" fill-rule="evenodd" d="M16.875 30.021c-.203 0-.4-.001-.59-.004l-4.162 4.052c-.945.92-2.56.269-2.56-1.033v-4.09C6.26 27.58 3.998 24.78 3.35 21.104c-.163-.92-.35-2.388-.35-4.593 0-2.206.188-3.673.35-4.594.807-4.573 4.11-7.79 8.807-8.576C13.103 3.183 14.61 3 16.875 3h2.25c2.265 0 3.772.183 4.718.34 4.696.787 8 4.004 8.807 8.577.163.92.35 2.388.35 4.594 0 2.205-.188 3.673-.35 4.593-.807 4.574-4.11 7.79-8.807 8.576-.946.159-2.453.341-4.718.341h-2.25Zm1.842-19.971c.061.005.118.01.165.016 3.347.537 4.886 2.19 5.312 5.709.008.06.009.133.01.21.004.275.013.847.602.858h.017a.566.566 0 0 0 .438-.173c.182-.199.17-.496.16-.735l-.001-.012a4.047 4.047 0 0 1-.004-.15c.043-3.598-2.943-6.86-6.389-6.981-.015 0-.028 0-.041.002a.277.277 0 0 1-.041.002c-.032 0-.07-.002-.11-.005h-.012l-.006-.001a2.371 2.371 0 0 0-.172-.008c-.549 0-.653.407-.666.65-.03.56.489.6.738.618Zm.727.78c2.248.285 4.063 2.336 4.046 4.573l-.003.03c-.005.04-.003.1-.001.164v.004c.007.23.023.708-.476.787a.953.953 0 0 1-.143.012c-.534 0-.565-.52-.58-.773V15.608c-.005-.06-.008-.118-.016-.164-.332-2.104-1.012-2.85-3.033-3.323a2.081 2.081 0 0 0-.16-.028l-.013-.002c-.216-.03-.485-.07-.637-.287-.09-.129-.12-.295-.09-.493.033-.202.156-.542.618-.542.115.003.23.016.342.039.052.009.1.018.146.023Zm4.376 9.318c.07.059.141.117.213.174.538.428 1.208.963.841 2.043-.418 1.234-1.782 2.316-2.918 2.316h-.02a.232.232 0 0 1-.06-.009 3.475 3.475 0 0 0-.14-.035 3.313 3.313 0 0 1-.614-.19c-2.413-1.084-4.497-2.527-6.193-4.289-1.732-1.8-3.106-3.982-4.083-6.483-.337-.865-.352-1.697-.04-2.406.323-.732.968-1.287 1.868-1.603a1.467 1.467 0 0 1 1.038.003c.783.3 2.642 2.945 2.688 3.823.04.774-.53 1.178-.837 1.395-.54.383-.64.853-.333 1.572.635 1.488 1.745 2.615 3.299 3.35.163.084.342.13.524.137.263 0 .476-.134.651-.412.397-.625.877-.943 1.429-.943.409 0 .841.171 1.323.524l.266.194c.365.266.742.54 1.098.84Zm-4.6-7.24c-.194.005-.6.016-.741.445-.067.202-.059.375.024.519.12.21.351.274.56.31.763.127 1.154.566 1.232 1.382.037.38.283.646.597.646a.567.567 0 0 0 .071-.005c.38-.046.563-.337.547-.863.005-.55-.27-1.173-.738-1.669-.47-.497-1.036-.778-1.552-.765Z" clip-rule="evenodd"/></svg>