<svg xmlns="http://www.w3.org/2000/svg" width="55" height="31" fill="none"><path fill="#EB192E" d="M41.592 23.497a1.41 1.41 0 0 1-.538-.1 1.297 1.297 0 0 1-.43-.282 1.322 1.322 0 0 1-.278-.435 1.466 1.466 0 0 1-.099-.546c0-.198.033-.38.099-.546a1.28 1.28 0 0 1 .708-.717c.163-.067.343-.1.538-.1.186 0 .36.033.52.1.164.067.307.162.43.286.124.121.22.265.29.43.07.167.105.349.105.547 0 .198-.032.38-.098.546a1.258 1.258 0 0 1-.707.717c-.165.067-.344.1-.54.1Zm0-.197a1.132 1.132 0 0 0 .803-.327 1.15 1.15 0 0 0 .333-.84c0-.16-.028-.311-.084-.452a1.135 1.135 0 0 0-.597-.62 1.09 1.09 0 0 0-.455-.094c-.22 0-.416.051-.59.153a1.065 1.065 0 0 0-.403.412 1.205 1.205 0 0 0-.147.602c0 .16.028.312.085.453.056.141.134.265.234.371.103.107.224.191.363.253.14.06.292.09.458.09Zm-.502-.353v-1.623h.47c.2 0 .346.04.44.119.092.08.139.2.139.36 0 .117-.03.21-.089.279a.527.527 0 0 1-.197.145l.425.72h-.316l-.366-.642h-.227v.642h-.279Zm.462-.873c.095 0 .17-.024.224-.074a.246.246 0 0 0 .08-.19c0-.086-.024-.15-.073-.189-.049-.04-.127-.06-.235-.06h-.18v.513h.184ZM1.318 15.5 27.5 6.479l26.182 9.02L27.5 24.522"/><path fill="#fff" d="M14.858 18.477h-.02c0 .14-.335.252-.748.256v.395h5.387c1.16 0 2.955-1.446 2.955-3.591 0-1.983-1.589-3.704-2.955-3.704H14.09v.354h.007c.398 0 .716.103.756.233h.005v.01c.002.006.008.01.008.017 0 .002-.006.005-.008.012v6.018Zm1.649-5.105h2.819c.553 0 1.576.75 1.578 2.135.003 1.333-.879 2.017-1.578 2.017h-2.819v-4.152Zm14.673 2.76c0-1.81-1.506-3.277-3.8-3.277-2.31 0-3.802 1.473-3.802 3.278 0 1.862 1.297 3.089 3.314 3.258h.975c2.017-.17 3.313-1.396 3.313-3.258Zm-5.935.088c0-1.016.843-1.836 2.14-1.836 1.298 0 2.14.82 2.14 1.837 0 1.014-.842 1.836-2.14 1.836-1.296 0-2.14-.822-2.14-1.836Zm14.675 2.325s2.05-4.647 2.054-4.651a.528.528 0 0 1 .33-.2c.053-.01.289-.01.289-.01v-.453l-2.874.012v.44l.094.001c.353.006.4.112.4.243l-1.12 2.977-1.27-3.476-.949.005h-.995l-1.174 3.334-.955-2.853h.014c0-.224.141-.242.359-.242v-.427h-2.8v.427c.443 0 .415.102.49.242.002.002-.004.006-.004.008l1.706 4.469a.37.37 0 0 1 .017.137c0 .248-.211.29-.462.297v.418l3.06.012v-.415h-.002c-.323 0-.444-.06-.444-.296a.14.14 0 0 1 .034-.1l1.156-2.555s.989 2.56.989 2.649c0 .223-.076.302-.35.302v.415l2.835-.022v-.406c-.43 0-.434-.093-.428-.282Z"/></svg>