<svg xmlns="http://www.w3.org/2000/svg" width="90" height="90" fill="none"><g clip-path="url(#a)"><g filter="url(#b)" transform="rotate(5 15 13)"><rect width="73" height="48" x="15" y="13" fill="#1894FF" rx="3"/><rect width="73" height="48" x="15" y="13" fill="url(#c)" rx="3"/><rect width="73" height="48" x="15" y="13" fill="url(#d)" rx="3"/><rect width="73" height="48" x="15" y="13" fill="url(#e)" rx="3" style="mix-blend-mode:overlay"/></g><g filter="url(#f)" shape-rendering="crispEdges"><rect width="73" height="48" x="5" y="30" fill="#DFE8F3" fill-opacity=".5" rx="8"/><rect width="73" height="48" x="5" y="30" stroke="#fff" stroke-width="2" rx="8"/></g><g filter="url(#g)"><path fill="#fff" d="M7 40a2 2 0 0 0-2 2v7a2 2 0 0 0 2 2h69a2 2 0 0 0 2-2v-7a2 2 0 0 0-2-2H7Z"/><path stroke="#fff" d="M7 40a2 2 0 0 0-2 2v7a2 2 0 0 0 2 2h69a2 2 0 0 0 2-2v-7a2 2 0 0 0-2-2H7Z"/></g><g filter="url(#h)"><path fill="#fff" d="M53 58a2 2 0 0 0-2 2v8a2 2 0 0 0 2 2h16a2 2 0 0 0 2-2v-8a2 2 0 0 0-2-2H53Z"/><path stroke="#fff" d="M53 58a2 2 0 0 0-2 2v8a2 2 0 0 0 2 2h16a2 2 0 0 0 2-2v-8a2 2 0 0 0-2-2H53Z"/></g></g><defs><filter id="b" width="88.406" height="65.68" x="5.066" y="9.25" color-interpolation-filters="sRGB" filterUnits="userSpaceOnUse"><feFlood flood-opacity="0" result="BackgroundImageFix"/><feColorMatrix in="SourceAlpha" result="hardAlpha" values="0 0 0 0 0 0 0 0 0 0 0 0 0 0 0 0 0 0 127 0"/><feOffset dy="2"/><feGaussianBlur stdDeviation="3"/><feComposite in2="hardAlpha" operator="out"/><feColorMatrix values="0 0 0 0 0 0 0 0 0 0 0 0 0 0 0 0 0 0 0.16 0"/><feBlend in2="BackgroundImageFix" result="effect1_dropShadow_2240_9254"/><feBlend in="SourceGraphic" in2="effect1_dropShadow_2240_9254" result="shape"/></filter><filter id="f" width="93" height="69" x="-5" y="21" color-interpolation-filters="sRGB" filterUnits="userSpaceOnUse"><feFlood flood-opacity="0" result="BackgroundImageFix"/><feGaussianBlur in="BackgroundImageFix" stdDeviation="4"/><feComposite in2="SourceAlpha" operator="in" result="effect1_backgroundBlur_2240_9254"/><feColorMatrix in="SourceAlpha" result="hardAlpha" values="0 0 0 0 0 0 0 0 0 0 0 0 0 0 0 0 0 0 127 0"/><feOffset dy="2"/><feGaussianBlur stdDeviation="4.5"/><feComposite in2="hardAlpha" operator="out"/><feColorMatrix values="0 0 0 0 0 0 0 0 0 0 0 0 0 0 0 0 0 0 0.3 0"/><feBlend in2="effect1_backgroundBlur_2240_9254" result="effect2_dropShadow_2240_9254"/><feBlend in="SourceGraphic" in2="effect2_dropShadow_2240_9254" result="shape"/></filter><filter id="g" width="78" height="16" x="2.5" y="38.5" color-interpolation-filters="sRGB" filterUnits="userSpaceOnUse"><feFlood flood-opacity="0" result="BackgroundImageFix"/><feColorMatrix in="SourceAlpha" result="hardAlpha" values="0 0 0 0 0 0 0 0 0 0 0 0 0 0 0 0 0 0 127 0"/><feOffset dy="1"/><feGaussianBlur stdDeviation="1"/><feComposite in2="hardAlpha" operator="out"/><feColorMatrix values="0 0 0 0 0 0 0 0 0 0 0 0 0 0 0 0 0 0 0.08 0"/><feBlend in2="BackgroundImageFix" result="effect1_dropShadow_2240_9254"/><feBlend in="SourceGraphic" in2="effect1_dropShadow_2240_9254" result="shape"/><feColorMatrix in="SourceAlpha" result="hardAlpha" values="0 0 0 0 0 0 0 0 0 0 0 0 0 0 0 0 0 0 127 0"/><feOffset/><feGaussianBlur stdDeviation="2"/><feComposite in2="hardAlpha" k2="-1" k3="1" operator="arithmetic"/><feColorMatrix values="0 0 0 0 1 0 0 0 0 1 0 0 0 0 1 0 0 0 0.25 0"/><feBlend in2="shape" result="effect2_innerShadow_2240_9254"/></filter><filter id="h" width="25" height="17" x="48.5" y="56.5" color-interpolation-filters="sRGB" filterUnits="userSpaceOnUse"><feFlood flood-opacity="0" result="BackgroundImageFix"/><feColorMatrix in="SourceAlpha" result="hardAlpha" values="0 0 0 0 0 0 0 0 0 0 0 0 0 0 0 0 0 0 127 0"/><feOffset dy="1"/><feGaussianBlur stdDeviation="1"/><feComposite in2="hardAlpha" operator="out"/><feColorMatrix values="0 0 0 0 0 0 0 0 0 0 0 0 0 0 0 0 0 0 0.08 0"/><feBlend in2="BackgroundImageFix" result="effect1_dropShadow_2240_9254"/><feBlend in="SourceGraphic" in2="effect1_dropShadow_2240_9254" result="shape"/><feColorMatrix in="SourceAlpha" result="hardAlpha" values="0 0 0 0 0 0 0 0 0 0 0 0 0 0 0 0 0 0 127 0"/><feOffset/><feGaussianBlur stdDeviation="2"/><feComposite in2="hardAlpha" k2="-1" k3="1" operator="arithmetic"/><feColorMatrix values="0 0 0 0 1 0 0 0 0 1 0 0 0 0 1 0 0 0 0.25 0"/><feBlend in2="shape" result="effect2_innerShadow_2240_9254"/></filter><linearGradient id="c" x1="92.49" x2="67.443" y1="29.971" y2="29.971" gradientUnits="userSpaceOnUse"><stop stop-color="#016ECF"/><stop offset="1" stop-color="#0187F9"/></linearGradient><linearGradient id="d" x1="41.166" x2="17.079" y1="29.971" y2="29.971" gradientUnits="userSpaceOnUse"><stop stop-color="#0187F9" stop-opacity="0"/><stop offset="1" stop-color="#39A5FF"/></linearGradient><linearGradient id="e" x1="51.5" x2="51.5" y1="13" y2="61" gradientUnits="userSpaceOnUse"><stop stop-color="#0787F5"/><stop offset="1" stop-color="#66ADE7"/></linearGradient><clipPath id="a"><path fill="#fff" d="M0 0h90v90H0z"/></clipPath></defs></svg>