<svg xmlns="http://www.w3.org/2000/svg" width="44" height="46" fill="none"><path fill="url(#a)" stroke="#F2F2F2" d="M21.889 1.742a2 2 0 0 1 2.222 0l2.063 1.378a2 2 0 0 0 1.501.299l2.434-.484a2 2 0 0 1 2.052.85l1.38 2.063a2 2 0 0 0 1.272.85l2.433.485a2 2 0 0 1 1.571 1.571l.484 2.434a2 2 0 0 0 .85 1.272l2.063 1.379a2 2 0 0 1 .85 2.052l-.483 2.434a2 2 0 0 0 .299 1.5l1.378 2.064a2 2 0 0 1 0 2.222l-1.378 2.063a2 2 0 0 0-.299 1.501l.484 2.434a2 2 0 0 1-.85 2.052l-2.063 1.38a2 2 0 0 0-.85 1.272l-.485 2.433a2 2 0 0 1-1.571 1.571l-2.434.484a2 2 0 0 0-1.272.85l-1.379 2.063a2 2 0 0 1-2.052.85l-2.434-.483a2 2 0 0 0-1.5.299l-2.064 1.378a2 2 0 0 1-2.222 0l-2.063-1.378a2 2 0 0 0-1.501-.299l-2.434.484a2 2 0 0 1-2.052-.85l-1.38-2.063a2 2 0 0 0-1.271-.85l-2.434-.485a2 2 0 0 1-1.571-1.571l-.484-2.434a2 2 0 0 0-.85-1.272l-2.064-1.379a2 2 0 0 1-.85-2.052l.484-2.434a2 2 0 0 0-.299-1.5L1.742 24.11a2 2 0 0 1 0-2.222l1.378-2.063a2 2 0 0 0 .299-1.501l-.484-2.434a2 2 0 0 1 .85-2.052l2.063-1.38a2 2 0 0 0 .85-1.271l.485-2.434a2 2 0 0 1 1.571-1.571l2.434-.484a2 2 0 0 0 1.272-.85l1.379-2.064a2 2 0 0 1 2.052-.85l2.434.484a2 2 0 0 0 1.5-.299l2.064-1.378Z"/><defs><linearGradient id="a" x1="31.601" x2="7.609" y1="48.473" y2="9.345" gradientUnits="userSpaceOnUse"><stop stop-color="#4054E8"/><stop offset="1" stop-color="#5C47FF"/></linearGradient></defs></svg>