<svg width="24" height="30" viewBox="0 0 24 30" fill="none" xmlns="http://www.w3.org/2000/svg">
<path fill-rule="evenodd" clip-rule="evenodd" d="M9.66699 8.65813C10.0107 8.57179 10.5545 8.46804 10.8753 8.42763C11.1962 8.38729 11.6462 8.34954 11.8753 8.34388C12.1045 8.33821 12.6295 8.37496 13.042 8.42554C13.4545 8.47604 14.0545 8.58454 14.3753 8.66654C14.6962 8.74854 15.2305 8.92146 15.5628 9.05071L16.167 9.28579L16.165 13.3303C16.1637 15.8065 16.1296 17.5195 16.0769 17.7481C16.0296 17.9535 15.8946 18.2477 15.7769 18.402C15.6592 18.5563 15.2736 18.8971 14.9198 19.1593C14.5662 19.4215 13.7882 19.943 13.1912 20.318C12.594 20.693 12.0582 20.9998 12.0003 20.9998C11.9425 20.9998 11.4067 20.693 10.8095 20.318C10.2124 19.943 9.43449 19.4215 9.08083 19.1593C8.72708 18.8971 8.34299 18.557 8.22724 18.4036C8.11141 18.2503 7.97574 17.9748 7.92566 17.7915C7.86558 17.5716 7.83441 16.0666 7.83416 13.372L7.83366 9.28579L8.43783 9.05046C8.77008 8.92096 9.32324 8.74446 9.66699 8.65813ZM10.314 10.0022C10.5624 9.9408 10.9553 9.86702 11.1871 9.83828C11.4189 9.8096 11.7441 9.78276 11.9097 9.77873C12.0753 9.7747 12.4546 9.80083 12.7527 9.8368C13.0507 9.87271 13.4843 9.94987 13.7161 10.0082C13.948 10.0665 14.334 10.1894 14.5742 10.2814L15.0107 10.4485L15.0093 13.5466C15.0084 15.3074 14.9837 16.7925 14.9457 16.955C14.9114 17.101 14.8139 17.3103 14.7289 17.4199C14.6439 17.5297 14.3652 17.7721 14.1096 17.9585C13.854 18.145 13.2919 18.5157 12.8605 18.7824C12.429 19.0491 12.0418 19.2673 12 19.2673C11.9582 19.2673 11.571 19.0491 11.1395 18.7824C10.7081 18.5157 10.146 18.145 9.89043 17.9585C9.63482 17.7721 9.35729 17.5302 9.27365 17.4211C9.18995 17.3121 9.09192 17.1162 9.05573 16.9858C9.01232 16.8295 8.9898 15.4924 8.98962 13.5762L8.98926 10.4485L9.42582 10.2812C9.66589 10.1891 10.0656 10.0636 10.314 10.0022Z" fill="#383838"/>
<path fill-rule="evenodd" clip-rule="evenodd" d="M9.40508 5.29388C9.76358 5.22079 10.3536 5.12704 10.7161 5.08563C11.0787 5.04429 11.8325 5.02721 12.3913 5.04779C12.9502 5.06838 13.7377 5.14196 14.1413 5.21129C14.545 5.28054 15.2128 5.43504 15.6253 5.55454C16.0378 5.67404 16.7054 5.91346 17.1088 6.08654C17.5122 6.25971 18.0372 6.51954 18.2755 6.66404C18.5137 6.80846 18.8888 7.05746 19.109 7.21729L19.5093 7.50796L19.4768 12.8164C19.453 16.715 19.4165 18.2355 19.3393 18.5415C19.2816 18.7706 19.104 19.2328 18.9446 19.5685C18.7467 19.9851 18.4672 20.3763 18.0635 20.8013C17.7382 21.1436 17.1504 21.658 16.7571 21.9444C16.3638 22.2306 15.742 22.6546 15.3753 22.8865C15.0087 23.1185 14.1202 23.67 13.401 24.1123C12.6817 24.5546 12.0514 24.9165 12.0003 24.9165C11.9492 24.9165 11.3189 24.5546 10.5997 24.1123C9.88049 23.67 8.99199 23.1185 8.62533 22.8865C8.25866 22.6546 7.63683 22.2306 7.24358 21.9444C6.85024 21.658 6.26241 21.1436 5.93716 20.8013C5.53583 20.3788 5.25224 19.9827 5.05449 19.5685C4.89424 19.2328 4.71341 18.7144 4.65258 18.4165C4.56766 18.0005 4.54199 16.667 4.54199 12.6676V7.46046L5.12533 7.05346C5.44616 6.82971 6.04616 6.48454 6.45866 6.28654C6.87116 6.08854 7.55616 5.81413 7.98091 5.67671C8.40566 5.53929 9.04649 5.36704 9.40508 5.29388ZM15.2087 7.12288C14.7962 7.00463 14.1024 6.85379 13.667 6.78771C13.2316 6.72154 12.4441 6.67088 11.917 6.67504C11.3899 6.67921 10.6399 6.73304 10.2503 6.79463C9.86074 6.85621 9.20449 7.00363 8.79199 7.12221C8.37949 7.24079 7.61874 7.54663 7.10141 7.80188L6.16083 8.26596L6.20866 18.2081L6.47608 18.7726C6.63841 19.1155 6.91691 19.5106 7.18524 19.779C7.42824 20.022 7.86949 20.3992 8.16574 20.6173C8.46199 20.8354 9.42241 21.4607 10.2999 22.0068C11.1774 22.553 11.9426 22.9998 12.0003 22.9998C12.0581 22.9998 12.8232 22.553 13.7007 22.0068C14.5782 21.4607 15.5387 20.8354 15.8349 20.6173C16.1312 20.3992 16.5724 20.022 16.8154 19.779C17.0837 19.5106 17.3622 19.1155 17.5246 18.7726L17.792 18.2081L17.8398 8.26596L16.8992 7.80188C16.3819 7.54663 15.6212 7.24104 15.2087 7.12288Z" fill="#383838"/>
</svg>
