<svg width="66" height="31" viewBox="0 0 66 31" fill="none" xmlns="http://www.w3.org/2000/svg">
<path d="M5.79934 12.3486V14.6501H3.32395V12.3486H1.12305V18.6495H3.32395V16.25H5.79934V18.6495H8.00024V12.3486" fill="#002A5C"/>
<path d="M13.317 12.3486V16.4132C13.317 17.0354 13.1141 17.0984 12.2467 17.0984C11.3553 17.0984 10.9939 17.0751 10.9939 16.4866V12.3486H8.79297V16.5194C8.79297 18.0346 9.11976 18.6986 12.2467 18.6986C14.3184 18.6986 15.5179 18.3422 15.5179 16.5194V12.3486" fill="#002A5C"/>
<path d="M21.8887 12.3486C21.8887 12.3486 21.9959 16.4904 22.0066 16.9099C21.844 16.559 19.8906 12.3486 19.8906 12.3486H16.3223V18.6495H18.5252C18.5252 18.6495 18.4182 14.5149 18.4073 14.091C18.5702 14.4471 20.4926 18.6495 20.4926 18.6495H24.0919V12.3486" fill="#002A5C"/>
<path d="M24.7324 12.3486V13.9488H26.6799V18.6495H28.8808V13.9488H30.9297V12.3486" fill="#002A5C"/>
<path d="M31.2906 14.2588C31.2906 16.0329 32.3615 16.0921 34.1361 16.1897L34.8622 16.2294C35.774 16.2762 35.774 16.2842 35.774 16.7071C35.774 17.1099 35.5975 17.1806 34.5924 17.1806C33.5561 17.1806 33.4003 17.1004 33.4003 16.5684V16.4785H31.2803V16.5684C31.2803 18.6989 32.742 18.6989 34.5924 18.6989C36.1928 18.6989 37.1511 18.476 37.6085 17.9969C37.9756 17.6129 37.9753 17.1213 37.9749 16.6457V16.6011C37.9749 15.1257 37.3587 14.8804 35.0838 14.7484L34.242 14.6995C33.6584 14.6641 33.4915 14.6369 33.4915 14.2508C33.4915 13.9996 33.4915 13.8185 34.5924 13.8185C35.4416 13.8185 35.6421 13.838 35.6421 14.3567V14.4466H37.7621V14.1038C37.7621 12.2998 36.2224 12.2998 34.5924 12.2998C32.5381 12.2998 31.2906 12.4318 31.2906 14.2588Z" fill="#002A5C"/>
<path d="M44.7513 12.3486C44.7513 12.3486 43.4772 15.8992 43.3949 16.1287C43.3093 15.902 41.9685 12.3486 41.9685 12.3486H38.6084V18.6495H40.8132C40.8132 18.6495 40.6447 14.7494 40.6204 14.1871C40.8286 14.6891 42.4722 18.6495 42.4722 18.6495H44.3403C44.3403 18.6495 45.9919 14.6282 46.1828 14.1631C46.1601 14.6896 45.9888 18.6495 45.9888 18.6495H48.1938V12.3486" fill="#002A5C"/>
<path d="M54.2378 12.3486H51.0369L48.6875 18.6495H50.983C50.983 18.6495 51.3211 17.7011 51.3584 17.5969H53.9687C54.007 17.6991 54.3641 18.6495 54.3641 18.6495H56.6186L54.2378 12.3486ZM51.6119 16.4054L52.5976 13.5729H52.7378L53.7452 16.4054" fill="#002A5C"/>
<path d="M62.6738 12.3486C62.6738 12.3486 62.7811 16.4918 62.7921 16.9103C62.6299 16.5608 60.6758 12.3486 60.6758 12.3486H57.1074V18.6495H59.3103C59.3103 18.6495 59.2034 14.5149 59.1924 14.091C59.3553 14.4471 61.2778 18.6495 61.2778 18.6495H64.877V12.3486" fill="#002A5C"/>
<path d="M1.12402 11.042H64.8765V9.73633H1.12402V11.042Z" fill="#910027"/>
<path d="M1.12402 21.2639H64.8765V19.958H1.12402V21.2639Z" fill="#910027"/>
</svg>
