<svg width="25" height="25" viewBox="0 0 25 25" fill="none" xmlns="http://www.w3.org/2000/svg">
<path d="M7.57362 1.67296C5.72305 2.12629 3.79316 3.16629 3.18512 4.01962C1.7311 6.04629 1.49316 7.08629 1.49316 11.1663C1.49316 14.553 1.57247 15.2196 2.10121 16.553C2.73569 18.153 3.92535 19.4063 5.48512 20.1796C6.30466 20.553 6.38397 20.713 6.38397 21.7796C6.38397 24.2863 7.30926 24.6063 9.10696 22.6863L10.2966 21.3796L13.046 21.2196C16.2185 21.0063 18.9414 20.2596 20.1311 19.2463C21.9817 17.6996 23.0127 13.753 22.669 9.64629C22.2196 4.71296 20.6334 2.71296 16.3771 1.69962C14.3679 1.21962 9.45063 1.21962 7.57362 1.67296ZM16.0334 3.56629C18.069 4.12629 19.1001 4.79296 19.7874 6.01962C20.9242 8.04629 21.1621 12.3663 20.3162 15.273C19.8932 16.7663 18.4127 18.233 16.9587 18.633C15.4253 19.0596 12.8874 19.433 11.5391 19.433C10.5874 19.433 10.3495 19.593 8.97477 21.0863L7.46788 22.7663L7.44144 20.8196V18.873L6.54259 18.4996C6.04029 18.2863 5.22075 17.6196 4.69201 17.0063C3.50236 15.593 3.10581 13.753 3.26443 10.4196C3.37018 8.36629 3.5288 7.67296 4.16328 6.41962C4.8242 5.13962 5.16788 4.79296 6.38397 4.17962C8.1288 3.29962 8.4196 3.24629 11.8035 3.19296C13.469 3.19296 15.0552 3.32629 16.0334 3.56629Z" fill="#665CA7"/>
<path d="M11.332 5.69935C11.332 5.93935 11.57 6.09935 11.993 6.09935C12.3631 6.09935 13.1033 6.28601 13.6585 6.49935C15.4562 7.27268 16.4872 8.63268 16.8309 10.686C17.0952 12.2327 17.6769 12.3393 17.6769 10.846C17.6504 8.68601 16.2228 6.57935 14.1872 5.72601C12.8918 5.16601 11.332 5.16601 11.332 5.69935Z" fill="#665CA7"/>
<path d="M6.86424 6.49972C5.7539 7.45972 5.80677 8.33972 7.02286 10.7131C8.29183 13.1397 10.1688 15.0331 12.5746 16.3131C14.8746 17.5131 15.747 17.5664 16.7252 16.5264C17.6769 15.5397 17.5447 15.0064 16.1436 13.9131C14.8217 12.8997 13.9229 12.7931 13.4206 13.5931C13.1033 14.0731 12.9447 14.0997 12.2573 13.8331C11.1999 13.4331 10.3275 12.5797 9.69298 11.2997L9.13781 10.2597L9.71941 9.88638C10.0102 9.67305 10.2746 9.21972 10.2746 8.89972C10.2746 8.17972 8.71482 5.99305 8.10677 5.88638C7.89528 5.83305 7.3401 6.12638 6.86424 6.49972Z" fill="#665CA7"/>
<path d="M12.0192 6.87261C11.7284 7.32594 12.0985 7.69927 12.8388 7.69927C13.6848 7.69927 15.2974 9.29927 15.2974 10.1259C15.2974 11.0326 15.7204 11.6459 16.0905 11.2726C16.8572 10.4993 15.4825 7.69927 14.0549 7.13927C12.8388 6.68594 12.1779 6.57927 12.0192 6.87261Z" fill="#665CA7"/>
<path d="M12.3896 8.63275C12.3896 8.84608 12.5483 9.03275 12.7333 9.03275C13.2356 9.03275 13.9759 9.91275 13.9759 10.4461C13.9759 10.6861 14.1609 10.8994 14.3724 10.8994C15.0598 10.8994 14.8483 9.40608 14.0816 8.79275C13.2621 8.12608 12.3896 8.07275 12.3896 8.63275Z" fill="#665CA7"/>
</svg>
