<svg width="25" height="31" viewBox="0 0 25 31" fill="none" xmlns="http://www.w3.org/2000/svg">
<path fill-rule="evenodd" clip-rule="evenodd" d="M11.2161 5.27606C10.8536 5.31747 10.2636 5.41122 9.90508 5.48431C9.54649 5.55747 8.90566 5.72972 8.48091 5.86714C8.05616 6.00456 7.37116 6.27897 6.95866 6.47697C6.54616 6.67497 5.94616 7.02014 5.62533 7.24389L5.04199 7.65089V12.8581C5.04199 16.8574 5.06766 18.1909 5.15258 18.6069C5.21341 18.9048 5.39424 19.4232 5.55449 19.7589C5.75224 20.1731 6.03583 20.5692 6.43716 20.9917C6.76241 21.3341 7.35024 21.8485 7.74358 22.1348C8.13683 22.4211 8.75866 22.8451 9.12533 23.077C9.49199 23.3089 10.3805 23.8605 11.0997 24.3027C11.8189 24.7451 12.4492 25.1069 12.5003 25.1069C12.5514 25.1069 13.1817 24.7451 13.901 24.3027C14.6202 23.8605 15.5087 23.3089 15.8753 23.077C16.242 22.8451 16.8638 22.4211 17.2571 22.1348C17.6504 21.8485 18.2382 21.3341 18.5635 20.9917C18.9672 20.5667 19.2467 20.1756 19.4446 19.7589C19.604 19.4232 19.7816 18.9611 19.8393 18.7319C19.9165 18.4259 19.953 16.9054 19.9768 13.0068L20.0093 7.69839L19.609 7.40772C19.3888 7.24789 19.0137 6.99889 18.7755 6.85447C18.5372 6.70997 18.0122 6.45014 17.6088 6.27697C17.2054 6.10389 16.5378 5.86447 16.1253 5.74497C15.7128 5.62547 15.045 5.47097 14.6413 5.40172C14.2377 5.33239 13.4502 5.25881 12.8913 5.23822C12.3325 5.21764 11.5787 5.23472 11.2161 5.27606ZM14.167 6.97814C14.6024 7.04422 15.2962 7.19506 15.7087 7.31331C16.1212 7.43147 16.8819 7.73706 17.3992 7.99231L18.3398 8.45639L18.3159 13.4275L18.292 18.3986L18.0246 18.9631C17.8622 19.3059 17.5837 19.7011 17.3154 19.9694C17.0724 20.2124 16.6312 20.5896 16.3349 20.8077C16.0387 21.0258 15.0782 21.6511 14.2007 22.1972C13.3232 22.7434 12.5581 23.1902 12.5003 23.1902C12.4426 23.1902 11.6774 22.7434 10.7999 22.1972C9.92241 21.6511 8.96199 21.0258 8.66574 20.8077C8.36949 20.5896 7.92824 20.2124 7.68524 19.9694C7.41691 19.7011 7.13841 19.3059 6.97608 18.9631L6.70866 18.3986L6.68474 13.4275L6.66083 8.45639L7.60141 7.99231C8.11874 7.73706 8.87949 7.43122 9.29199 7.31264C9.70449 7.19406 10.3607 7.04664 10.7503 6.98506C11.1399 6.92347 11.8899 6.86964 12.417 6.86547C12.9441 6.86131 13.7316 6.91197 14.167 6.97814ZM11.3753 8.61806C11.0545 8.65847 10.5107 8.76222 10.167 8.84856C9.82324 8.93489 9.27008 9.11139 8.93783 9.24089L8.33366 9.47622L8.33416 13.5624C8.33441 16.2571 8.36558 17.7621 8.42566 17.9819C8.47574 18.1652 8.61141 18.4407 8.72724 18.5941C8.84299 18.7475 9.22708 19.0876 9.58083 19.3497C9.93449 19.612 10.7124 20.1334 11.3095 20.5084C11.9067 20.8834 12.4425 21.1902 12.5003 21.1902C12.5582 21.1902 13.094 20.8834 13.6912 20.5084C14.2882 20.1334 15.0662 19.612 15.4198 19.3497C15.7736 19.0876 16.1592 18.7467 16.2769 18.5924C16.3946 18.4381 16.5296 18.1439 16.5769 17.9386C16.6296 17.71 16.6637 15.997 16.665 13.5207L16.667 9.47622L16.0628 9.24114C15.7305 9.11189 15.1962 8.93897 14.8753 8.85697C14.5545 8.77497 13.9545 8.66647 13.542 8.61597C13.1295 8.56539 12.6045 8.52864 12.3753 8.53431C12.1462 8.53997 11.6962 8.57772 11.3753 8.61806Z" fill="#383838"/>
</svg>
