<svg width="90" height="90" viewBox="0 0 90 90" fill="none" xmlns="http://www.w3.org/2000/svg">
<g filter="url(#filter0_d_2240_9282)">
<path d="M45.6377 50.6549V71.0243C45.6377 73.0421 47.574 74.4507 49.4421 73.6881C54.6726 71.5531 63.6638 67.034 65.6377 60.5839C66.6255 57.3561 66.1903 52.5523 65.8695 50.1175C65.7424 49.1526 66.0374 48.1752 66.6973 47.4597C69.2527 44.6888 75.7215 37.3047 78.1377 31.0839C80.4149 25.2211 80.702 16.2475 80.6893 11.7905C80.6849 10.2504 79.4729 9.02499 77.9329 9.00668C73.3898 8.95265 64.1359 9.17597 58.1377 11.5839C52.0917 14.0111 44.9797 20.4136 42.2664 22.9885C41.5496 23.6688 40.5587 23.9778 39.5786 23.8516C37.2193 23.5476 32.6936 23.1554 29.6377 24.0839C23.2321 26.0302 18.9193 35.1048 16.9187 40.3371C16.208 42.196 17.6149 44.0839 19.605 44.0839H39.716C40.6159 44.0839 41.4681 44.4878 42.0379 45.1842L44.9596 48.7552C45.3981 49.2911 45.6377 49.9623 45.6377 50.6549Z" fill="#1894FF"/>
<path d="M45.6377 50.6549V71.0243C45.6377 73.0421 47.574 74.4507 49.4421 73.6881C54.6726 71.5531 63.6638 67.034 65.6377 60.5839C66.6255 57.3561 66.1903 52.5523 65.8695 50.1175C65.7424 49.1526 66.0374 48.1752 66.6973 47.4597C69.2527 44.6888 75.7215 37.3047 78.1377 31.0839C80.4149 25.2211 80.702 16.2475 80.6893 11.7905C80.6849 10.2504 79.4729 9.02499 77.9329 9.00668C73.3898 8.95265 64.1359 9.17597 58.1377 11.5839C52.0917 14.0111 44.9797 20.4136 42.2664 22.9885C41.5496 23.6688 40.5587 23.9778 39.5786 23.8516C37.2193 23.5476 32.6936 23.1554 29.6377 24.0839C23.2321 26.0302 18.9193 35.1048 16.9187 40.3371C16.208 42.196 17.6149 44.0839 19.605 44.0839H39.716C40.6159 44.0839 41.4681 44.4878 42.0379 45.1842L44.9596 48.7552C45.3981 49.2911 45.6377 49.9623 45.6377 50.6549Z" fill="url(#paint0_linear_2240_9282)"/>
<path d="M45.6377 50.6549V71.0243C45.6377 73.0421 47.574 74.4507 49.4421 73.6881C54.6726 71.5531 63.6638 67.034 65.6377 60.5839C66.6255 57.3561 66.1903 52.5523 65.8695 50.1175C65.7424 49.1526 66.0374 48.1752 66.6973 47.4597C69.2527 44.6888 75.7215 37.3047 78.1377 31.0839C80.4149 25.2211 80.702 16.2475 80.6893 11.7905C80.6849 10.2504 79.4729 9.02499 77.9329 9.00668C73.3898 8.95265 64.1359 9.17597 58.1377 11.5839C52.0917 14.0111 44.9797 20.4136 42.2664 22.9885C41.5496 23.6688 40.5587 23.9778 39.5786 23.8516C37.2193 23.5476 32.6936 23.1554 29.6377 24.0839C23.2321 26.0302 18.9193 35.1048 16.9187 40.3371C16.208 42.196 17.6149 44.0839 19.605 44.0839H39.716C40.6159 44.0839 41.4681 44.4878 42.0379 45.1842L44.9596 48.7552C45.3981 49.2911 45.6377 49.9623 45.6377 50.6549Z" fill="url(#paint1_linear_2240_9282)"/>
<path d="M45.6377 50.6549V71.0243C45.6377 73.0421 47.574 74.4507 49.4421 73.6881C54.6726 71.5531 63.6638 67.034 65.6377 60.5839C66.6255 57.3561 66.1903 52.5523 65.8695 50.1175C65.7424 49.1526 66.0374 48.1752 66.6973 47.4597C69.2527 44.6888 75.7215 37.3047 78.1377 31.0839C80.4149 25.2211 80.702 16.2475 80.6893 11.7905C80.6849 10.2504 79.4729 9.02499 77.9329 9.00668C73.3898 8.95265 64.1359 9.17597 58.1377 11.5839C52.0917 14.0111 44.9797 20.4136 42.2664 22.9885C41.5496 23.6688 40.5587 23.9778 39.5786 23.8516C37.2193 23.5476 32.6936 23.1554 29.6377 24.0839C23.2321 26.0302 18.9193 35.1048 16.9187 40.3371C16.208 42.196 17.6149 44.0839 19.605 44.0839H39.716C40.6159 44.0839 41.4681 44.4878 42.0379 45.1842L44.9596 48.7552C45.3981 49.2911 45.6377 49.9623 45.6377 50.6549Z" fill="url(#paint2_linear_2240_9282)" style="mix-blend-mode:overlay"/>
</g>
<g filter="url(#filter1_bd_2240_9282)">
<path d="M47.6377 61.5321C42.3657 66.8042 23.8179 76.8042 18.5459 71.5321C13.2738 66.26 23.2738 47.7123 28.5459 42.4402C33.8179 37.1682 42.3657 37.1682 47.6377 42.4402C52.9098 47.7123 52.9098 56.26 47.6377 61.5321Z" fill="#DFE8F3" fill-opacity="0.5" shape-rendering="crispEdges"/>
<path d="M47.6377 61.5321C42.3657 66.8042 23.8179 76.8042 18.5459 71.5321C13.2738 66.26 23.2738 47.7123 28.5459 42.4402C33.8179 37.1682 42.3657 37.1682 47.6377 42.4402C52.9098 47.7123 52.9098 56.26 47.6377 61.5321Z" stroke="white" stroke-width="2" shape-rendering="crispEdges"/>
</g>
<defs>
<filter id="filter0_d_2240_9282" x="10.7319" y="5" width="75.958" height="76.8983" filterUnits="userSpaceOnUse" color-interpolation-filters="sRGB">
<feFlood flood-opacity="0" result="BackgroundImageFix"/>
<feColorMatrix in="SourceAlpha" type="matrix" values="0 0 0 0 0 0 0 0 0 0 0 0 0 0 0 0 0 0 127 0" result="hardAlpha"/>
<feOffset dy="2"/>
<feGaussianBlur stdDeviation="3"/>
<feComposite in2="hardAlpha" operator="out"/>
<feColorMatrix type="matrix" values="0 0 0 0 0 0 0 0 0 0 0 0 0 0 0 0 0 0 0.16 0"/>
<feBlend mode="normal" in2="BackgroundImageFix" result="effect1_dropShadow_2240_9282"/>
<feBlend mode="normal" in="SourceGraphic" in2="effect1_dropShadow_2240_9282" result="shape"/>
</filter>
<filter id="filter1_bd_2240_9282" x="7.05566" y="29.4862" width="54.5361" height="55.5363" filterUnits="userSpaceOnUse" color-interpolation-filters="sRGB">
<feFlood flood-opacity="0" result="BackgroundImageFix"/>
<feGaussianBlur in="BackgroundImageFix" stdDeviation="4"/>
<feComposite in2="SourceAlpha" operator="in" result="effect1_backgroundBlur_2240_9282"/>
<feColorMatrix in="SourceAlpha" type="matrix" values="0 0 0 0 0 0 0 0 0 0 0 0 0 0 0 0 0 0 127 0" result="hardAlpha"/>
<feOffset dy="2"/>
<feGaussianBlur stdDeviation="4.5"/>
<feComposite in2="hardAlpha" operator="out"/>
<feColorMatrix type="matrix" values="0 0 0 0 0 0 0 0 0 0 0 0 0 0 0 0 0 0 0.3 0"/>
<feBlend mode="normal" in2="effect1_backgroundBlur_2240_9282" result="effect2_dropShadow_2240_9282"/>
<feBlend mode="normal" in="SourceGraphic" in2="effect2_dropShadow_2240_9282" result="shape"/>
</filter>
<linearGradient id="paint0_linear_2240_9282" x1="84.6913" y1="32.3649" x2="62.3713" y2="32.3649" gradientUnits="userSpaceOnUse">
<stop stop-color="#016ECF"/>
<stop offset="1" stop-color="#0187F9"/>
</linearGradient>
<linearGradient id="paint1_linear_2240_9282" x1="38.9551" y1="32.3649" x2="17.4904" y2="32.3649" gradientUnits="userSpaceOnUse">
<stop stop-color="#0187F9" stop-opacity="0"/>
<stop offset="1" stop-color="#39A5FF"/>
</linearGradient>
<linearGradient id="paint2_linear_2240_9282" x1="48.1637" y1="9" x2="48.1637" y2="75.0839" gradientUnits="userSpaceOnUse">
<stop stop-color="#0787F5"/>
<stop offset="1" stop-color="#66ADE7"/>
</linearGradient>
</defs>
</svg>
