<svg width="24" height="24" viewBox="0 0 24 24" fill="none" xmlns="http://www.w3.org/2000/svg">
<path fill-rule="evenodd" clip-rule="evenodd" d="M6.03634 4.64271C6.06967 6.14941 6.09001 6.33838 6.28199 6.92492C6.3971 7.27674 6.62827 7.77549 6.7957 8.03326C6.96314 8.2911 7.69931 9.2145 8.43168 10.0853C9.16405 10.9559 9.81116 11.7831 9.86983 11.9234C9.92841 12.0636 9.97631 12.3327 9.97631 12.5215C9.97631 12.7663 9.9106 12.9658 9.7472 13.2168C9.62116 13.4103 8.92774 14.2812 8.2063 15.1521C7.3817 16.1474 6.78961 16.9412 6.61196 17.2896C6.45655 17.5944 6.2732 18.0397 6.20449 18.2792C6.11653 18.5855 6.06777 19.2016 6.03974 20.3573L6 22H12.3513H18.7026L18.6629 20.3573C18.6348 19.2016 18.5861 18.5855 18.4981 18.2792C18.4294 18.0397 18.2461 17.5944 18.0907 17.2896C17.913 16.9412 17.3209 16.1474 16.4963 15.1521C15.7749 14.2812 15.0814 13.4103 14.9554 13.2168C14.792 12.9658 14.7263 12.7663 14.7263 12.5215C14.7263 12.3327 14.7742 12.0636 14.8328 11.9234C14.8914 11.7831 15.5386 10.9559 16.2709 10.0853C17.0033 9.2145 17.7395 8.2911 17.9069 8.03326C18.0743 7.77549 18.3055 7.27674 18.4206 6.92492C18.6126 6.33838 18.6329 6.14941 18.6663 4.64271L18.7026 3H12.3513H6L6.03634 4.64271ZM17.0724 5.86718C17.043 6.1487 16.9244 6.56385 16.7955 6.83697C16.6714 7.09965 16.3422 7.59016 16.0637 7.92694L15.5576 8.53921H12.3513H9.14505L8.63886 7.92694C8.36043 7.59016 8.03118 7.09965 7.90713 6.83697C7.77816 6.56385 7.65965 6.1487 7.6302 5.86718L7.57874 5.375H12.3513H17.1239L17.0724 5.86718ZM11.5596 13.6875V14.0833H12.3513H13.143V13.6875C13.143 13.4698 13.1712 13.2917 13.2057 13.2917C13.2401 13.2917 13.3643 13.4965 13.4816 13.7469C13.6149 14.0312 14.2158 14.8264 15.0821 15.8646C16.0123 16.9794 16.5624 17.7125 16.7522 18.0898C16.9472 18.4777 17.0488 18.8036 17.0792 19.1388L17.1233 19.625H16.6855C16.2901 19.625 16.2105 19.594 15.8631 19.3047C15.6514 19.1285 15.229 18.8613 14.9242 18.7109C14.6194 18.5604 14.0851 18.3621 13.7367 18.2702C13.3051 18.1563 12.8638 18.1031 12.3513 18.1031C11.8388 18.1031 11.3975 18.1563 10.9659 18.2702C10.6176 18.3621 10.0832 18.5604 9.77839 18.7109C9.4736 18.8613 9.05116 19.1285 8.83955 19.3047C8.49209 19.594 8.41253 19.625 8.01709 19.625H7.5793L7.62339 19.1388C7.65379 18.8036 7.75536 18.4777 7.95043 18.0898C8.14019 17.7125 8.69032 16.9794 9.62053 15.8646C10.4868 14.8264 11.0877 14.0312 11.221 13.7469C11.3383 13.4965 11.4625 13.2917 11.4969 13.2917C11.5315 13.2917 11.5596 13.4698 11.5596 13.6875ZM11.5596 15.2708V15.6667H12.3513H13.143V15.2708V14.875H12.3513H11.5596V15.2708ZM11.5596 16.8542V17.25H12.3513H13.143V16.8542V16.4583H12.3513H11.5596V16.8542Z" fill="#383838"/>
</svg>
