<svg width="55" height="31" viewBox="0 0 55 31" fill="none" xmlns="http://www.w3.org/2000/svg">
<path d="M41.5923 23.497C41.3967 23.497 41.2172 23.4636 41.0535 23.3967C40.8897 23.3299 40.7468 23.2358 40.6246 23.1145C40.5049 22.9906 40.412 22.8457 40.346 22.6798C40.2801 22.5139 40.2471 22.3319 40.2471 22.1337C40.2471 21.9357 40.2801 21.7536 40.346 21.5877C40.412 21.4218 40.5049 21.2781 40.6246 21.1568C40.7468 21.033 40.8897 20.9377 41.0535 20.8708C41.2172 20.8039 41.3967 20.7705 41.5923 20.7705C41.778 20.7705 41.9515 20.8039 42.1128 20.8708C42.2765 20.9377 42.4195 21.033 42.5416 21.1568C42.6663 21.2781 42.7628 21.4218 42.8312 21.5877C42.9021 21.7536 42.9375 21.9357 42.9375 22.1337C42.9375 22.3319 42.9045 22.5139 42.8385 22.6798C42.7725 22.8457 42.6785 22.9906 42.5563 23.1145C42.4366 23.2358 42.2948 23.3299 42.1311 23.3967C41.9673 23.4636 41.7878 23.497 41.5923 23.497ZM41.5923 23.3002C41.7487 23.3002 41.8953 23.2717 42.0321 23.2147C42.169 23.1578 42.2899 23.0773 42.395 22.9732C42.5001 22.8668 42.582 22.743 42.6406 22.6018C42.6993 22.4607 42.7285 22.3047 42.7285 22.1337C42.7285 21.9728 42.7005 21.8218 42.6443 21.6806C42.5881 21.5394 42.5086 21.4157 42.406 21.3091C42.3058 21.2026 42.186 21.1197 42.0468 21.0603C41.9099 20.9984 41.7584 20.9674 41.5923 20.9674C41.3724 20.9674 41.1756 21.0182 41.0021 21.1197C40.8311 21.2187 40.6967 21.3561 40.5989 21.532C40.5012 21.7053 40.4523 21.906 40.4523 22.1337C40.4523 22.2948 40.4804 22.4458 40.5366 22.5869C40.5928 22.7281 40.671 22.8519 40.7712 22.9584C40.8738 23.0649 40.9948 23.1491 41.1341 23.211C41.2734 23.2704 41.4261 23.3002 41.5923 23.3002ZM41.0901 22.9472V21.324H41.5593C41.7597 21.324 41.9063 21.3636 41.9991 21.4429C42.092 21.5221 42.1385 21.6422 42.1385 21.8032C42.1385 21.9196 42.1091 22.0124 42.0505 22.0818C41.9918 22.1486 41.9258 22.1969 41.8525 22.2266L42.2777 22.9472H41.9625L41.596 22.3047H41.3687V22.9472H41.0901ZM41.552 22.0743C41.6472 22.0743 41.7218 22.0496 41.7755 22C41.8293 21.9505 41.8562 21.8874 41.8562 21.8106C41.8562 21.7239 41.8318 21.6608 41.7829 21.6211C41.734 21.5815 41.6558 21.5617 41.5483 21.5617H41.3687V22.0743H41.552Z" fill="#EB192E"/>
<path d="M1.31836 15.4997L27.5002 6.47852L53.6821 15.4997L27.5002 24.5208" fill="#EB192E"/>
<path d="M14.8581 18.4768H14.8377C14.8377 18.6174 14.503 18.7289 14.0898 18.7332V19.1279C14.0898 19.1279 18.2303 19.1279 19.477 19.1279C20.6369 19.1279 22.4319 17.6819 22.4319 15.537C22.4319 13.5539 20.8432 11.833 19.477 11.833C18.2408 11.833 14.0898 11.833 14.0898 11.833V12.1869C14.0898 12.1869 14.093 12.1869 14.0967 12.1869C14.4952 12.1869 14.8125 12.2904 14.8529 12.4199H14.8581V12.43C14.8597 12.4359 14.866 12.4396 14.866 12.4465C14.866 12.4491 14.8597 12.4523 14.8581 12.4587V18.4768ZM16.507 13.3724C16.507 13.3724 18.0899 13.3724 19.3258 13.3724C19.8787 13.3724 20.9024 14.1223 20.9045 15.5068C20.9066 16.8403 20.0253 17.5237 19.3258 17.5237C18.0811 17.5237 16.507 17.5237 16.507 17.5237V13.3724ZM31.1798 16.1329C31.1798 14.3228 29.6744 12.8551 27.3793 12.8551C25.0706 12.8551 23.5777 14.3282 23.5777 16.1329C23.5777 17.995 24.8747 19.2219 26.8923 19.3912H27.8668C29.8844 19.2219 31.1798 17.995 31.1798 16.1329ZM25.245 16.2205C25.245 15.2037 26.0885 14.3839 27.3851 14.3839C28.6827 14.3839 29.5247 15.2037 29.5247 16.2205C29.5247 17.2351 28.6827 18.0571 27.3851 18.0571C26.089 18.0571 25.245 17.2351 25.245 16.2205ZM39.9205 18.5453C39.9205 18.5453 41.97 13.8983 41.9741 13.8936C42.037 13.806 42.1438 13.7275 42.3041 13.6935C42.3569 13.6834 42.5926 13.6845 42.5926 13.6845V13.2313L39.7193 13.243V13.6828C39.7335 13.6828 39.8021 13.6828 39.8126 13.684C40.166 13.6903 40.2127 13.7964 40.2127 13.9265L39.0921 16.904L37.8228 13.4281L36.8744 13.4335H35.879L34.7045 16.7671L33.7499 13.9137H33.764C33.764 13.6903 33.9054 13.6717 34.1227 13.6717V13.2451H31.3234V13.6717C31.7663 13.6717 31.7375 13.7736 31.8129 13.9137C31.815 13.9159 31.8093 13.9196 31.8093 13.9216L33.5148 18.3909C33.5315 18.4339 33.5315 18.4785 33.5315 18.5283C33.5315 18.7756 33.3205 18.8186 33.0702 18.825V19.2431L36.1293 19.2548V18.8403H36.1276C35.8052 18.8403 35.6842 18.7793 35.6842 18.5443C35.6842 18.5071 35.6904 18.4736 35.7177 18.4434L36.8744 15.8888C36.8744 15.8888 37.863 18.4487 37.863 18.5379C37.863 18.7612 37.7871 18.8403 37.5122 18.8403V19.2548L40.3482 19.2331V18.827C39.9172 18.827 39.9137 18.7342 39.9205 18.5453Z" fill="white"/>
</svg>
