<svg width="21" height="733" viewBox="0 0 21 733" fill="none" xmlns="http://www.w3.org/2000/svg">
<path d="M21 0V733H11.4285L0 722.028L16 706.667L0 691.306L16 675.944L0 660.583L16 645.223L0 629.861L16 614.5L0 599.139L16 583.777L0 568.416L16 553.056L0 537.694L16 522.333L0 506.973L16 491.611L0 476.25L16 460.889L0 445.527L16 430.166L0 414.806L16 399.444L0 384.083L0.0285645 384.056L0 384.028L15.9709 368.695L0 353.361L0.0290527 353.334L0 353.306L16 337.944L0 322.583L16 307.223L0 291.861L16 276.5L0 261.139L16 245.777L0 230.416L16 215.056L0 199.694L16 184.333L0 168.973L16 153.611L0 138.25L16 122.889L0 107.527L16 92.166L0 76.8057L16 61.4443L0 46.083L16 30.7227L0 15.3613L16 0H21Z" fill="white"/>
</svg>
