<svg width="48" height="48" viewBox="0 0 48 48" fill="none" xmlns="http://www.w3.org/2000/svg">
<g opacity="0.5">
<path d="M23.9006 21.5771L18.0952 15.7733C17.9438 15.6164 17.7626 15.4914 17.5623 15.4053C17.362 15.3193 17.1465 15.274 16.9285 15.2721C16.7105 15.2702 16.4943 15.3117 16.2926 15.3943C16.0908 15.4768 15.9075 15.5988 15.7533 15.7529C15.5992 15.9071 15.4773 16.0904 15.3947 16.2921C15.3122 16.4939 15.2706 16.7101 15.2725 16.9281C15.2744 17.1461 15.3197 17.3615 15.4058 17.5619C15.4918 17.7622 15.6169 17.9433 15.7737 18.0948L21.5775 23.9002L15.7737 29.704C15.6169 29.8555 15.4918 30.0366 15.4058 30.2369C15.3197 30.4372 15.2744 30.6527 15.2725 30.8707C15.2706 31.0887 15.3122 31.3049 15.3947 31.5066C15.4773 31.7084 15.5992 31.8917 15.7533 32.0459C15.9075 32.2 16.0908 32.3219 16.2926 32.4045C16.4943 32.4871 16.7105 32.5286 16.9285 32.5267C17.1465 32.5248 17.362 32.4795 17.5623 32.3935C17.7626 32.3074 17.9438 32.1823 18.0952 32.0255L23.899 26.2217L29.7044 32.0255C29.8559 32.1823 30.0371 32.3074 30.2374 32.3935C30.4377 32.4795 30.6531 32.5248 30.8711 32.5267C31.0891 32.5286 31.3053 32.4871 31.5071 32.4045C31.7088 32.3219 31.8922 32.2 32.0463 32.0459C32.2005 31.8917 32.3224 31.7084 32.4049 31.5066C32.4875 31.3049 32.529 31.0887 32.5271 30.8707C32.5252 30.6527 32.4799 30.4372 32.3939 30.2369C32.3078 30.0366 32.1828 29.8555 32.026 29.704L26.2222 23.9002L32.026 18.0948C32.1828 17.9433 32.3078 17.7622 32.3939 17.5619C32.4799 17.3615 32.5252 17.1461 32.5271 16.9281C32.529 16.7101 32.4875 16.4939 32.4049 16.2921C32.3224 16.0904 32.2005 15.9071 32.0463 15.7529C31.8922 15.5988 31.7088 15.4768 31.5071 15.3943C31.3053 15.3117 31.0891 15.2702 30.8711 15.2721C30.6531 15.274 30.4377 15.3193 30.2374 15.4053C30.0371 15.4914 29.8559 15.6164 29.7044 15.7733L23.9006 21.5771Z" fill="#383838"/>
</g>
</svg>
