<svg width="28" height="29" viewBox="0 0 28 29" fill="none" xmlns="http://www.w3.org/2000/svg">
<g clip-path="url(#clip0_1703_9509)">
<path d="M0.000549316 28.645H28V0.35498H0.000549316V28.645Z" fill="#E4001C"/>
<path d="M7.24845 7.75212C8.11062 7.75212 8.81787 8.45061 8.81787 9.31279C8.81787 9.58087 8.75051 9.83346 8.63129 10.0537C9.46248 10.0881 10.1259 10.7731 10.1259 11.613C10.1259 12.4745 9.42745 13.1737 8.56528 13.1737C8.28777 13.1737 8.02709 13.101 7.80145 12.9743C7.79538 13.0565 7.79202 13.1393 7.79202 13.2229C7.79202 14.8576 9.11761 16.1825 10.7524 16.1825C12.3871 16.1825 13.712 14.8576 13.712 13.2229C13.712 13.1117 13.7093 13.0013 13.6979 12.8935C13.4446 13.07 13.1307 13.1737 12.7987 13.1737C11.9365 13.1737 11.2373 12.4745 11.2373 11.613C11.2373 10.7731 11.9015 10.0881 12.7327 10.0537C12.6134 9.83346 12.5454 9.58087 12.5454 9.31279C12.5454 8.45061 13.2446 7.75212 14.1068 7.75212C14.9683 7.75212 15.6667 8.45061 15.6667 9.31279C15.6667 9.58087 15.5994 9.83346 15.4802 10.0537C16.312 10.0881 16.9755 10.7731 16.9755 11.613C16.9755 12.4745 16.2763 13.1737 15.4142 13.1737C15.0814 13.1737 14.7729 13.0693 14.519 12.8915C14.5069 12.9999 14.5008 13.1104 14.5008 13.2229C14.5008 14.8576 15.8264 16.1825 17.4605 16.1825C19.0959 16.1825 20.4201 14.8576 20.4201 13.2229C20.4201 13.142 20.4201 13.0612 20.4141 12.9817C20.1911 13.1043 19.9305 13.1744 19.6577 13.1744C18.7955 13.1744 18.097 12.4759 18.097 11.6137C18.097 10.7744 18.7605 10.0887 19.5917 10.0544C19.4731 9.83413 19.4051 9.58154 19.4051 9.31413C19.4051 8.45196 20.1042 7.75279 20.9657 7.75279L20.9644 19.5417H7.24845V7.75212Z" fill="white"/>
</g>
<defs>
<clipPath id="clip0_1703_9509">
<rect width="28" height="28" fill="white" transform="translate(0 0.5)"/>
</clipPath>
</defs>
</svg>
