<svg width="70" height="36" viewBox="0 0 70 36" fill="none" xmlns="http://www.w3.org/2000/svg">
<g clip-path="url(#clip0_1920_8165)">
<path d="M18.0571 23.8172H23.4831C23.9603 23.8172 24.2795 23.4396 24.2795 22.8969V22.4299C24.0191 22.4938 23.6277 22.5227 22.8876 22.5227H21.1017L24.2072 16.0918H18.1018V17.3656H20.8337L18.2304 22.6789C17.9989 23.1459 17.9713 23.52 18.0571 23.8172Z" fill="#005596"/>
<path d="M12.6475 19.7103L14.0534 22.6183C14.4455 23.4561 14.6195 23.8172 15.5054 23.8172H17.5068C17.3917 23.7202 17.288 23.5194 17.0853 23.1314L15.0384 19.0844L17.4339 16.0918H15.302L12.6475 19.7103Z" fill="#005596"/>
<path d="M10.0212 23.817H12.5024V14.5806C12.5024 13.6225 11.8493 13 10.9506 13H10.0212V23.817Z" fill="#005596"/>
<path d="M8.91974 23.1161L6.44051 15.1899C6.14947 14.2428 5.84565 13.8081 4.62714 13.8081H3.45084L0 23.8177H1.56519L2.35258 21.3423H5.67614L6.14947 22.9435C6.32409 23.5343 6.54093 23.7963 7.13643 23.7963H9.22549C9.12443 23.6884 9.05087 23.5047 8.91974 23.1161ZM2.7402 20.1304L4.07385 15.9423L5.3173 20.1304H2.7402Z" fill="#005596"/>
<path d="M28.4734 23.9998C30.533 23.9998 32.2869 22.4165 32.2869 19.7905C32.2869 17.551 30.6207 15.8906 28.5169 15.8906C26.4278 15.8906 24.6848 17.52 24.6848 20.1488C24.6855 22.4605 26.4285 23.9998 28.4734 23.9998ZM28.5009 22.5726C27.661 22.5726 27.3559 21.5292 27.3559 19.8984C27.3559 18.3454 27.647 17.2869 28.5009 17.2869C29.3439 17.2869 29.6177 18.4059 29.6177 20.0367C29.6177 21.5787 29.3446 22.5726 28.5009 22.5726Z" fill="#005596"/>
<path d="M33.4026 23.8168H34.9537V17.4347L38.8964 22.5251C39.4484 23.2424 39.8111 23.8168 40.406 23.8168H41.5356V14.647C41.5356 14.1181 41.2036 13.7783 40.6964 13.7783H40.0139V19.8138L36.2227 14.9558C35.6573 14.2281 35.3676 13.7783 34.5424 13.7783H33.4026V23.8168Z" fill="#005596"/>
<path d="M46.3968 23.9998C48.4571 23.9998 50.2129 22.4165 50.2129 19.7905C50.2129 17.5544 48.5434 15.8906 46.4409 15.8906C44.3512 15.8906 42.6121 17.52 42.6121 20.1488C42.6114 22.4626 44.3512 23.9998 46.3968 23.9998ZM46.4262 22.5726C45.5838 22.5726 45.2793 21.5292 45.2793 19.8991C45.2793 18.3454 45.5697 17.2869 46.4262 17.2869C47.2661 17.2869 47.5424 18.4087 47.5424 20.0394C47.5424 21.5787 47.2661 22.5726 46.4262 22.5726Z" fill="#005596"/>
<path d="M66.443 20.0995C66.4871 19.7907 66.5018 19.4791 66.5018 19.1998C66.5018 17.3655 65.2398 15.9053 63.0791 15.9053C60.9331 15.9053 59.3647 17.5202 59.3647 19.977C59.3647 22.3541 60.7425 24 62.9902 24C65.2398 24 66.0496 22.7427 66.0963 21.5294C65.6153 21.905 64.8771 22.1202 64.0495 22.1202C62.7932 22.1202 61.9809 21.352 61.8632 20.0995H66.443ZM61.8625 19.0299C61.9431 17.8944 62.3512 17.1798 63.0484 17.1798C64.0066 17.1798 64.1947 19.0299 64.1947 19.0299H61.8625Z" fill="#005596"/>
<path d="M55.6376 15.9835C54.7958 15.9835 54.0993 16.3102 53.75 16.683V14.5852C53.75 13.6229 53.1123 13.0005 52.2142 13.0005H51.2861V23.8175H54.1869C56.9565 23.8175 58.4942 22.2617 58.4942 19.3702C58.4942 17.4279 57.2629 15.9835 55.6376 15.9835ZM54.1268 22.5251H53.75V17.5379C53.9099 17.52 54.0417 17.5049 54.2879 17.5049C55.2321 17.5049 55.9433 18.4396 55.9433 19.6811C55.9433 21.5292 55.2883 22.5251 54.1268 22.5251Z" fill="#005596"/>
<path d="M67.5341 23.817H69.9999V14.5847C69.9999 13.6225 69.3468 13 68.4475 13H67.5334L67.5341 23.817Z" fill="#005596"/>
</g>
<defs>
<clipPath id="clip0_1920_8165">
<rect width="70" height="36" fill="white"/>
</clipPath>
</defs>
</svg>
