<svg width="80" height="36" viewBox="0 0 80 36" fill="none" xmlns="http://www.w3.org/2000/svg">
<path d="M16.1047 9.55832C15.1736 9.55832 13.8297 9.8544 11.3993 10.6628V25.9952C13.5362 26.692 15.1736 27.0997 16.1047 27.0997C18.2511 27.0997 19.4611 25.6862 19.4611 23.4189V13.2391C19.4611 10.9717 18.2511 9.55832 16.1047 9.55832ZM16.8042 23.025C16.8042 23.9124 16.309 24.2076 15.7168 24.2076C15.256 24.2076 14.5446 24.0273 13.9644 23.8566V12.7954C14.5446 12.6307 15.256 12.4504 15.7168 12.4504C16.309 12.4504 16.8042 12.7456 16.8042 13.633V23.025ZM46.7914 6.79806C44.0736 6.65648 42.455 7.94803 42.455 10.9054V25.5975C42.455 28.7196 43.9208 30.0043 46.7915 29.8696C49.6011 29.7382 51.0669 28.5883 51.0669 25.2688V11.2443C51.0669 8.07934 49.741 6.95253 46.7914 6.79806ZM48.1045 25.3349C48.1045 26.2223 47.8299 26.6823 46.7914 26.7149C45.723 26.7485 45.4329 26.2549 45.4329 25.3349V11.3327C45.4329 10.4127 45.723 9.90298 46.7914 9.93646C47.8299 9.96905 48.1045 10.4454 48.1045 11.3327V25.3349ZM73.2121 12.5323V24.1058C76.5471 22.4006 78.4617 20.419 78.4617 18.2959C78.4617 16.1959 76.547 14.2247 73.2121 12.5323ZM1.53857 18.2961C1.53857 20.4159 3.45064 22.4009 6.78467 24.1026V12.536C3.45064 14.2249 1.53857 16.1962 1.53857 18.2961ZM26.9424 24.8223C26.9424 25.7097 26.6583 26.2718 25.6293 26.1371C24.6184 26.0057 24.3463 25.5449 24.3463 24.4936V7.80708C23.6752 7.8859 22.1786 8.10912 21.5375 8.20781V25.0849C21.5375 27.7796 22.7527 28.8284 25.6293 29.1828C28.2614 29.508 29.8739 28.0757 29.8739 25.085V7.25435C29.3247 7.28768 27.5225 7.45164 26.9424 7.51781V24.8223ZM59.2048 19.3082L55.9523 7.88916C55.0667 7.76387 53.9982 7.63599 53.1735 7.55359V29.107C53.7536 29.0486 55.2323 28.8676 55.9952 28.762L55.7634 16.0617L59.2047 28.2659C59.9376 28.1414 61.006 27.9407 61.7089 27.7965V8.85806C60.976 8.70358 59.6441 8.46071 59.0031 8.35601L59.2048 19.3082ZM36.244 6.92293C35.7342 6.92293 33.8745 6.99153 32.1642 7.10051V29.561C32.7443 29.5936 34.271 29.6795 35.0957 29.7026V22.075L36.244 22.0726C39.3163 22.0628 40.5924 20.5811 40.5924 17.7284V11.1101C40.5924 8.31755 39.1575 6.92293 36.244 6.92293ZM37.63 17.4916C37.63 18.4579 37.3159 18.9479 36.1247 18.9513L35.0957 18.9538V10.0913C35.554 10.0655 35.7977 10.0587 36.0732 10.0587C37.3614 10.0587 37.63 10.5847 37.63 11.5699V17.4916ZM63.1594 12.1708C63.8854 12.3107 64.6003 12.4661 65.2971 12.6308V26.9617C65.9382 26.8004 67.1293 26.4657 67.9232 26.2125V13.3071C68.6852 13.5199 69.4035 13.7327 70.0609 13.9353V11.1719C67.9876 10.3927 65.7614 9.75846 63.1594 9.17404V12.1708Z" fill="#E4001C"/>
</svg>
