<svg width="84" height="37" viewBox="0 0 84 37" fill="none" xmlns="http://www.w3.org/2000/svg">
<path d="M18.1046 9.55832C17.1735 9.55832 15.8296 9.8544 13.3992 10.6628V25.9952C15.5361 26.692 17.1735 27.0997 18.1046 27.0997C20.251 27.0997 21.461 25.6862 21.461 23.4189V13.2391C21.461 10.9717 20.251 9.55832 18.1046 9.55832ZM18.804 23.025C18.804 23.9124 18.3089 24.2076 17.7167 24.2076C17.2559 24.2076 16.5444 24.0273 15.9643 23.8566V12.7954C16.5444 12.6307 17.2559 12.4504 17.7167 12.4504C18.3089 12.4504 18.804 12.7456 18.804 13.633V23.025ZM48.7913 6.79806C46.0734 6.65648 44.4549 7.94803 44.4549 10.9054V25.5975C44.4549 28.7196 45.9207 30.0043 48.7913 29.8696C51.601 29.7382 53.0668 28.5883 53.0668 25.2688V11.2443C53.0668 8.07934 51.7409 6.95253 48.7913 6.79806ZM50.1044 25.3349C50.1044 26.2223 49.8297 26.6823 48.7913 26.7149C47.7229 26.7485 47.4328 26.2549 47.4328 25.3349V11.3327C47.4328 10.4127 47.7229 9.90298 48.7913 9.93646C49.8297 9.96905 50.1044 10.4454 50.1044 11.3327V25.3349ZM75.212 12.5323V24.1058C78.5469 22.4006 80.4615 20.419 80.4615 18.2959C80.4615 16.1959 78.5469 14.2247 75.212 12.5323ZM3.53845 18.2961C3.53845 20.4159 5.45052 22.4009 8.78455 24.1026V12.536C5.45052 14.2249 3.53845 16.1962 3.53845 18.2961ZM28.9422 24.8223C28.9422 25.7097 28.6582 26.2718 27.6292 26.1371C26.6183 26.0057 26.3462 25.5449 26.3462 24.4936V7.80708C25.6751 7.8859 24.1784 8.10912 23.5374 8.20781V25.0849C23.5374 27.7796 24.7526 28.8284 27.6292 29.1828C30.2613 29.508 31.8738 28.0757 31.8738 25.085V7.25435C31.3246 7.28768 29.5224 7.45164 28.9422 7.51781V24.8223ZM61.2047 19.3082L57.9522 7.88916C57.0665 7.76387 55.9981 7.63599 55.1734 7.55359V29.107C55.7535 29.0486 57.2322 28.8676 57.9951 28.762L57.7633 16.0617L61.2046 28.2659C61.9375 28.1414 63.0059 27.9407 63.7088 27.7965V8.85806C62.9759 8.70358 61.644 8.46071 61.0029 8.35601L61.2047 19.3082ZM38.2439 6.92293C37.7341 6.92293 35.8744 6.99153 34.1641 7.10051V29.561C34.7442 29.5936 36.2709 29.6795 37.0956 29.7026V22.075L38.2439 22.0726C41.3162 22.0628 42.5923 20.5811 42.5923 17.7284V11.1101C42.5923 8.31755 41.1574 6.92293 38.2439 6.92293ZM39.6298 17.4916C39.6298 18.4579 39.3157 18.9479 38.1246 18.9513L37.0956 18.9538V10.0913C37.5539 10.0655 37.7976 10.0587 38.0731 10.0587C39.3612 10.0587 39.6298 10.5847 39.6298 11.5699V17.4916ZM65.1592 12.1708C65.8853 12.3107 66.6001 12.4661 67.297 12.6308V26.9617C67.938 26.8004 69.1292 26.4657 69.923 26.2125V13.3071C70.6851 13.5199 71.4034 13.7327 72.0608 13.9353V11.1719C69.9874 10.3927 67.7613 9.75846 65.1592 9.17404V12.1708Z" fill="#E4001C"/>
</svg>
