<svg width="63" height="36" viewBox="0 0 63 36" fill="none" xmlns="http://www.w3.org/2000/svg">
<path d="M47.642 27.2869C47.418 27.2869 47.2123 27.2481 47.0248 27.1704C46.8372 27.0928 46.6735 26.9835 46.5335 26.8426C46.3964 26.6988 46.29 26.5305 46.2144 26.3379C46.1389 26.1452 46.1011 25.9338 46.1011 25.7037C46.1011 25.4737 46.1389 25.2623 46.2144 25.0696C46.29 24.8769 46.3964 24.7101 46.5335 24.5692C46.6735 24.4254 46.8372 24.3147 47.0248 24.2371C47.2123 24.1594 47.418 24.1206 47.642 24.1206C47.8547 24.1206 48.0534 24.1594 48.2382 24.2371C48.4257 24.3147 48.5895 24.4254 48.7294 24.5692C48.8722 24.7101 48.9827 24.8769 49.0611 25.0696C49.1423 25.2623 49.1829 25.4737 49.1829 25.7037C49.1829 25.9338 49.1451 26.1452 49.0695 26.3379C48.9939 26.5305 48.8862 26.6988 48.7462 26.8426C48.6091 26.9835 48.4467 27.0928 48.2592 27.1704C48.0716 27.2481 47.8659 27.2869 47.642 27.2869ZM47.642 27.0583C47.8211 27.0583 47.9891 27.0252 48.1458 26.959C48.3026 26.8929 48.4411 26.7994 48.5615 26.6786C48.6818 26.555 48.7756 26.4112 48.8428 26.2473C48.91 26.0834 48.9435 25.9022 48.9435 25.7037C48.9435 25.5168 48.9114 25.3414 48.847 25.1775C48.7826 25.0135 48.6916 24.8698 48.5741 24.7461C48.4593 24.6224 48.3221 24.5261 48.1626 24.4571C48.0058 24.3852 47.8323 24.3492 47.642 24.3492C47.3901 24.3492 47.1647 24.4082 46.966 24.5261C46.7701 24.6411 46.6161 24.8007 46.5041 25.0049C46.3922 25.2062 46.3362 25.4392 46.3362 25.7037C46.3362 25.8907 46.3684 26.0661 46.4328 26.23C46.4971 26.3939 46.5867 26.5377 46.7015 26.6614C46.819 26.7851 46.9576 26.8828 47.1171 26.9547C47.2767 27.0237 47.4516 27.0583 47.642 27.0583ZM47.0668 26.6484V24.7634H47.6042C47.8337 24.7634 48.0017 24.8094 48.108 24.9014C48.2144 24.9934 48.2676 25.1329 48.2676 25.3198C48.2676 25.455 48.234 25.5628 48.1668 25.6434C48.0996 25.721 48.024 25.7771 47.9401 25.8116L48.4271 26.6484H48.066L47.6462 25.9022H47.3859V26.6484H47.0668ZM47.5958 25.6347C47.7049 25.6347 47.7903 25.606 47.8519 25.5484C47.9135 25.4909 47.9443 25.4176 47.9443 25.3284C47.9443 25.2278 47.9163 25.1545 47.8603 25.1084C47.8043 25.0624 47.7147 25.0394 47.5916 25.0394H47.3859V25.6347H47.5958Z" fill="#EB192E"/>
<path d="M1.50977 18.0001L31.4999 7.52393L61.4901 18.0001L31.4999 28.4763" fill="#EB192E"/>
<path d="M17.0196 21.4571H16.9962C16.9962 21.6204 16.6129 21.7498 16.1396 21.7548V22.2132C16.1396 22.2132 20.8823 22.2132 22.3104 22.2132C23.639 22.2132 25.6951 20.534 25.6951 18.0431C25.6951 15.7402 23.8753 13.7417 22.3104 13.7417C20.8943 13.7417 16.1396 13.7417 16.1396 13.7417V14.1527C16.1414 14.1527 16.1432 14.1527 16.1474 14.1527C16.6039 14.1527 16.9674 14.2729 17.0136 14.4233H17.0196V14.435C17.0214 14.4418 17.0286 14.4461 17.0286 14.4541C17.0286 14.4572 17.0214 14.4609 17.0196 14.4683V21.4571ZM18.9083 15.5294C18.9083 15.5294 20.7215 15.5294 22.1371 15.5294C22.7705 15.5294 23.9431 16.4002 23.9455 18.008C23.9479 19.5566 22.9384 20.3503 22.1371 20.3503C20.7114 20.3503 18.9083 20.3503 18.9083 20.3503V15.5294ZM35.7154 18.7351C35.7154 16.6331 33.991 14.9286 31.3621 14.9286C28.7175 14.9286 27.0075 16.6393 27.0075 18.7351C27.0075 20.8976 28.4932 22.3223 30.8042 22.5189H31.9205C34.2315 22.3223 35.7154 20.8976 35.7154 18.7351ZM28.9173 18.8368C28.9173 17.6561 29.8835 16.704 31.3687 16.704C32.855 16.704 33.8195 17.6561 33.8195 18.8368C33.8195 20.0151 32.855 20.9697 31.3687 20.9697C29.8841 20.9697 28.9173 20.0151 28.9173 18.8368ZM45.7274 21.5366C45.7274 21.5366 48.075 16.1401 48.0798 16.1346C48.1518 16.0329 48.2741 15.9417 48.4577 15.9023C48.5182 15.8906 48.7882 15.8918 48.7882 15.8918V15.3655L45.497 15.3791V15.8899C45.5132 15.8899 45.5918 15.8899 45.6038 15.8912C46.0087 15.8986 46.0621 16.0218 46.0621 16.1728L44.7785 19.6306L43.3246 15.5941L42.2383 15.6003H41.0981L39.7527 19.4716L38.6593 16.158H38.6755C38.6755 15.8986 38.8374 15.877 39.0863 15.877V15.3815H35.8798V15.877C36.3872 15.877 36.3542 15.9953 36.4406 16.158C36.443 16.1605 36.4364 16.1648 36.4364 16.1672L38.39 21.3573C38.4091 21.4072 38.4091 21.459 38.4091 21.5169C38.4091 21.8041 38.1674 21.854 37.8807 21.8614V22.347L41.3848 22.3605V21.8792C41.3829 21.8792 41.3829 21.8792 41.3829 21.8792C41.0135 21.8792 40.8749 21.8084 40.8749 21.5354C40.8749 21.4922 40.8821 21.4534 40.9133 21.4183L42.2383 18.4517C42.2383 18.4517 43.3707 21.4244 43.3707 21.528C43.3707 21.7874 43.2837 21.8792 42.9688 21.8792V22.3605L46.2174 22.3353V21.8638C45.7237 21.8638 45.7196 21.756 45.7274 21.5366Z" fill="white"/>
</svg>
