<svg width="76" height="36" viewBox="0 0 76 36" fill="none" xmlns="http://www.w3.org/2000/svg">
<path d="M6.67852 14.3406V17.0133H3.82807V14.3406H1.2937V21.6577H3.82807V18.8712H6.67852V21.6577H9.21289V14.3406" fill="#002A5C"/>
<path d="M15.3345 14.3406V19.0607C15.3345 19.7833 15.1009 19.8565 14.102 19.8565C13.0756 19.8565 12.6594 19.8294 12.6594 19.146V14.3406H10.125V19.1841C10.125 20.9437 10.5013 21.7148 14.102 21.7148C16.4876 21.7148 17.8689 21.3009 17.8689 19.1841V14.3406" fill="#002A5C"/>
<path d="M25.2052 14.3406C25.2052 14.3406 25.3287 19.1504 25.341 19.6376C25.1538 19.2301 22.9044 14.3406 22.9044 14.3406H18.7954V21.6577H21.3321C21.3321 21.6577 21.2089 16.8563 21.1963 16.364C21.3839 16.7775 23.5976 21.6577 23.5976 21.6577H27.7422V14.3406" fill="#002A5C"/>
<path d="M28.4802 14.3406V16.1989H30.7227V21.6577H33.2571V16.1989H35.6165V14.3406" fill="#002A5C"/>
<path d="M36.0319 16.5591C36.0319 18.6193 37.2651 18.6881 39.3085 18.8014L40.1447 18.8475C41.1946 18.9018 41.1946 18.9111 41.1946 19.4022C41.1946 19.87 40.9913 19.9521 39.834 19.9521C38.6407 19.9521 38.4612 19.859 38.4612 19.2412V19.1368H36.02V19.2412C36.02 21.7153 37.7032 21.7153 39.834 21.7153C41.6768 21.7153 42.7804 21.4564 43.3071 20.9001C43.7298 20.4542 43.7294 19.8833 43.729 19.331V19.2792C43.729 17.5658 43.0194 17.2809 40.3998 17.1276L39.4305 17.0709C38.7585 17.0297 38.5663 16.9981 38.5663 16.5498C38.5663 16.2581 38.5663 16.0477 39.834 16.0477C40.8118 16.0477 41.0427 16.0704 41.0427 16.6728V16.7772H43.4839V16.3791C43.4839 14.2841 41.7109 14.2841 39.834 14.2841C37.4684 14.2841 36.0319 14.4374 36.0319 16.5591Z" fill="#002A5C"/>
<path d="M51.532 14.3406C51.532 14.3406 50.0648 18.4638 49.97 18.7304C49.8715 18.4671 48.3275 14.3406 48.3275 14.3406H44.4583V21.6577H46.9972C46.9972 21.6577 46.8031 17.1286 46.7751 16.4756C47.0149 17.0586 48.9075 21.6577 48.9075 21.6577H51.0587C51.0587 21.6577 52.9605 16.9878 53.1803 16.4477C53.1542 17.0591 52.957 21.6577 52.957 21.6577H55.496V14.3406" fill="#002A5C"/>
<path d="M62.4558 14.3406H58.7699L56.0645 21.6577H58.7078C58.7078 21.6577 59.0971 20.5564 59.1401 20.4354H62.1459C62.19 20.554 62.6012 21.6577 62.6012 21.6577H65.1973L62.4558 14.3406ZM59.432 19.0517L60.567 15.7623H60.7285L61.8885 19.0517" fill="#002A5C"/>
<path d="M72.1693 14.3406C72.1693 14.3406 72.2928 19.152 72.3055 19.638C72.1187 19.2321 69.8685 14.3406 69.8685 14.3406H65.7595V21.6577H68.2962C68.2962 21.6577 68.1731 16.8563 68.1604 16.364C68.348 16.7775 70.5617 21.6577 70.5617 21.6577H74.7063V14.3406" fill="#002A5C"/>
<path d="M1.29443 12.8225H74.7064V11.3062H1.29443V12.8225Z" fill="#910027"/>
<path d="M1.29419 24.6937H74.7061V23.1772H1.29419V24.6937Z" fill="#910027"/>
</svg>
