<svg width="84" height="36" viewBox="0 0 84 36" fill="none" xmlns="http://www.w3.org/2000/svg">
<g clip-path="url(#clip0_1920_8178)">
<path d="M83.5557 22.0386H82.0451C81.897 22.0386 81.7786 21.9235 81.7489 21.7509C81.6897 20.8591 81.3639 20.0249 80.8011 19.3057C80.7123 19.1907 80.6234 19.0756 80.5049 18.9605C79.9126 18.2989 79.0536 17.9537 78.165 17.9537H77.1876V21.7222C77.1876 21.8948 77.0691 22.0098 76.8914 22.0098H75.3216C75.1439 22.0098 75.0254 21.8948 75.0254 21.7222V12.8619C75.0254 12.6893 75.1439 12.5742 75.3216 12.5742H76.8914C77.0691 12.5742 77.1876 12.6893 77.1876 12.8619V15.8537H78.165C79.8829 15.8537 81.3047 14.5016 81.3343 12.8331C81.3343 12.6893 81.4528 12.5742 81.6008 12.5742H83.2299C83.4076 12.5742 83.5261 12.6893 83.5261 12.8619C83.4965 14.4728 82.7264 15.9687 81.4231 16.9181C81.7489 17.177 82.0748 17.4646 82.3413 17.7811C83.3188 18.903 83.8815 20.2838 83.9408 21.7509C83.9408 21.8948 83.8223 22.0386 83.6446 22.0386H83.5557Z" fill="#991D85"/>
<path d="M66.4062 14.7892C64.6882 14.1563 62.763 14.1563 61.0451 14.7892V21.7221C61.0451 21.8947 60.9266 22.0097 60.7489 22.0097H59.1495C58.9717 22.0097 58.8533 21.8947 58.8533 21.7221V13.6097C58.8533 13.5234 58.9125 13.4371 58.9718 13.3796C61.904 11.7686 65.5176 11.7686 68.4499 13.3796C68.5387 13.4371 68.598 13.5234 68.5684 13.6385V21.7508C68.5684 21.9234 68.4499 22.0385 68.2722 22.0385H66.6727C66.495 22.0385 66.3765 21.9234 66.3765 21.7508L66.4062 14.7892Z" fill="#991D85"/>
<path d="M70.7009 21.7222V12.8619C70.7009 12.6893 70.8194 12.5742 70.9971 12.5742H72.5966C72.7743 12.5742 72.8927 12.6893 72.8927 12.8619V21.7222C72.8927 21.8948 72.7743 22.0098 72.5966 22.0098H70.9971C70.849 22.0098 70.7009 21.8948 70.7009 21.7222Z" fill="#991D85"/>
<path d="M43.3032 12.5742H45.4358C45.6135 12.5742 45.732 12.6893 45.732 12.8619C45.732 12.8907 45.732 12.9194 45.7024 12.977L42.2073 21.8372C42.1777 21.9523 42.0296 22.0386 41.9111 22.0386H39.2454C39.1269 22.0386 39.0084 21.9811 38.9788 21.866L35.6318 12.9482C35.6318 12.9194 35.6318 12.8907 35.6318 12.8619C35.6318 12.7181 35.7503 12.603 35.8984 12.5742H38.0606C38.1791 12.5742 38.2976 12.6605 38.3272 12.7756L40.6079 19.9098L43.0662 12.7468C43.0959 12.6605 43.2143 12.5742 43.3032 12.5742Z" fill="#991D85"/>
<path d="M34.4472 22.0386H26.7462C26.6277 22.0386 26.5388 21.9811 26.4796 21.8948C25.6503 20.4852 25.2356 18.903 25.2356 17.292C25.2356 15.6811 25.6503 14.0989 26.4796 12.7181C26.5388 12.6318 26.6573 12.5742 26.7758 12.5742H34.0917C34.2398 12.5742 34.3583 12.6893 34.3583 12.8331V14.4441C34.3583 14.5879 34.2398 14.703 34.0917 14.703H27.9309C27.7236 15.192 27.6051 15.7098 27.5163 16.2564H33.6474C33.7955 16.2564 33.9436 16.3715 33.9436 16.5153V18.0687C33.9436 18.2413 33.8252 18.3564 33.6474 18.3564H27.4867C27.5755 18.8742 27.694 19.392 27.9013 19.8811H34.4472C34.5953 19.8811 34.7434 19.9961 34.7434 20.14V21.7222C34.7434 21.8948 34.6249 22.0098 34.4472 22.0386Z" fill="#991D85"/>
<path d="M54.529 14.7892C52.8111 14.1563 50.8858 14.1563 49.1679 14.7892V19.8234C50.8858 20.4563 52.8111 20.4563 54.529 19.8234V14.7892ZM51.8632 22.4412C50.2046 22.4412 48.5755 22.0385 47.1242 21.233C47.0353 21.1755 46.9761 21.0892 46.9761 21.0029V13.6097C46.9761 13.5234 47.0353 13.4371 47.1242 13.3796C50.0565 11.7686 53.67 11.7686 56.6023 13.3796C56.6912 13.4371 56.7504 13.5234 56.7504 13.6097V21.0029C56.7504 21.0892 56.6912 21.1755 56.6023 21.233C55.1213 22.0097 53.4923 22.4412 51.8632 22.4412Z" fill="#991D85"/>
<path d="M9.56706 10.1289C5.47961 10.1289 2.16226 13.322 2.16226 17.3206C2.16226 21.2905 5.44999 24.5124 9.56706 24.5124C11.7293 24.5124 13.773 23.6206 15.1651 22.0385H7.40486C7.316 22.0385 7.22714 22.0097 7.1679 21.9809C4.5318 20.6864 3.4655 17.5508 4.79837 14.9905C5.30189 13.9837 6.16085 13.1782 7.1679 12.6891C7.22714 12.6028 7.316 12.6028 7.40486 12.6028H11.7293C11.8181 12.6028 11.907 12.6316 11.9662 12.6604C12.7363 13.0343 13.3879 13.5809 13.8915 14.2426C13.9803 14.3576 13.9803 14.559 13.8322 14.6453C13.773 14.6741 13.7137 14.7028 13.6249 14.7028H7.84914C6.36818 15.6234 5.95352 17.5508 6.93095 18.9891C7.1679 19.3343 7.49371 19.6508 7.84914 19.8809H18.364C18.5417 19.8809 18.6601 19.996 18.6898 20.1398C18.6898 20.1686 18.6898 20.2261 18.6601 20.2549C16.9719 25.1453 11.5515 27.7631 6.51628 26.1234C1.51064 24.4837 -1.18471 19.2193 0.503586 14.3576C2.19188 9.49599 7.64181 6.87818 12.6475 8.51791C16.5572 9.78366 19.1637 13.3508 19.1637 17.3206C19.1637 17.5796 19.1637 17.8385 19.1341 18.1261C19.1341 18.27 18.986 18.385 18.8379 18.385H8.56C8.44153 18.385 8.32305 18.3275 8.29343 18.2124C8.02686 17.6371 8.02686 17.0042 8.29343 16.4576C8.35267 16.3426 8.44153 16.285 8.56 16.285H16.883C16.3498 12.7179 13.2398 10.1289 9.56706 10.1289Z" fill="#991D85"/>
<path d="M36.0762 25.4619H36.9055V27.0441C37.3202 26.5263 37.7348 26.0085 38.1199 25.4619H39.0381C38.7419 25.8647 38.2384 26.5263 37.7941 27.0729C38.2088 27.7058 38.653 28.3386 39.1269 28.914H38.0903C37.6756 28.3386 37.2609 27.7633 36.9055 27.1592V28.914H36.0762V25.4619Z" fill="#991D85"/>
<path d="M39.6008 25.4616H39.6897C40.1044 25.4328 40.3413 25.4328 40.6079 25.4328C40.9929 25.4041 41.3484 25.4616 41.7038 25.6342C42.0296 25.8356 42.2369 26.1808 42.2073 26.5548C42.2369 26.9575 41.9704 27.3602 41.5557 27.5041C41.763 27.8205 42.3554 28.5685 42.6516 28.8849L42.6812 28.9424H41.6742C41.4668 28.6835 40.9929 28.0219 40.7856 27.7054L40.756 27.6479H40.4005V28.9424H39.6008V25.4616ZM40.4005 26.9863C40.4894 26.9863 40.5783 26.9863 40.6375 26.9863C41.141 26.9863 41.378 26.8424 41.378 26.526C41.378 26.2096 41.1706 26.037 40.6671 26.037C40.6079 26.037 40.5486 26.037 40.4894 26.037H40.4005V26.9863Z" fill="#991D85"/>
<path d="M42.7998 28.8852C43.1256 27.9934 43.6588 26.7276 44.2511 25.4331H45.0509C45.5544 26.5838 45.9098 27.5043 46.3837 28.8852H45.4952L45.199 27.9646H43.955L43.6291 28.8852H42.7998ZM45.0212 27.3605L44.8139 26.7564C44.7547 26.555 44.6954 26.3537 44.6658 26.1523C44.6362 26.2961 44.6362 26.3249 44.6066 26.3824L44.4585 26.8139L44.2511 27.3605H45.0212Z" fill="#991D85"/>
<path d="M47.0352 25.4619H49.3159V26.1523H47.835V26.8715H49.2567V27.5619H47.835V28.9427H47.0056L47.0352 25.4619Z" fill="#991D85"/>
<path d="M50.8562 26.1524H49.7307V25.4907H52.8111V26.1811H51.6856V28.9428H50.8562V26.1524Z" fill="#991D85"/>
<path d="M55.0918 25.4619H57.3725V26.1523H55.8915V26.8715H57.3429V27.5619H55.9211V28.9427H55.0918V25.4619Z" fill="#991D85"/>
<path d="M58.883 25.4618V27.3892C58.8534 27.6193 58.883 27.8207 59.0015 28.0221C59.1496 28.1947 59.357 28.281 59.5643 28.281C59.7716 28.281 60.0086 28.1947 60.1271 28.0508C60.2159 27.8495 60.2751 27.6193 60.2455 27.418V25.4906H61.0749V27.5043C61.1045 27.8495 61.0156 28.1947 60.8379 28.5111C60.601 28.8276 60.1567 29.0002 59.5643 29.0002C59.12 29.0289 58.6757 28.8851 58.3499 28.5687C58.1426 28.3385 58.0537 28.0221 58.0537 27.5043V25.4906H58.883V25.4618ZM58.5276 24.3687H59.2977V25.1166H58.5276V24.3687ZM59.8901 24.3687H60.6602V25.1166H59.8901V24.3687Z" fill="#991D85"/>
<path d="M61.9041 25.4616H61.9929C62.4076 25.4328 62.6445 25.4328 62.9111 25.4328C63.2962 25.4041 63.6516 25.4616 64.007 25.6342C64.3328 25.8356 64.5402 26.1808 64.5105 26.5548C64.5402 26.9863 64.2736 27.3602 63.8589 27.5041C64.0663 27.8205 64.6586 28.5685 64.9548 28.8849L64.9844 28.9424H63.9774C63.7701 28.6835 63.2962 28.0219 63.0888 27.7054L63.0592 27.6479H62.7038V28.9424H61.9041V25.4616ZM62.7038 26.9863C62.7926 26.9863 62.8815 26.9863 62.9407 26.9863C63.4443 26.9863 63.6812 26.8424 63.6812 26.526C63.6812 26.2096 63.4739 26.037 62.9703 26.037C62.9111 26.037 62.8519 26.037 62.7926 26.037H62.7038V26.9863Z" fill="#991D85"/>
<path d="M67.2061 25.4619H67.8873C68.0354 25.4619 68.1539 25.5194 68.2131 25.6345L69.309 27.2742C69.4867 27.5619 69.6645 27.8496 69.7829 28.1373C69.6941 27.8208 69.6644 27.5044 69.6644 27.1879V25.4619H70.4049V28.914H69.7237C69.5756 28.914 69.4571 28.8564 69.3979 28.7414L68.302 27.1016C68.1243 26.814 67.9762 26.5263 67.8281 26.2099C67.8873 26.5263 67.9465 26.8427 67.9465 27.1592V28.8852H67.2061V25.4619Z" fill="#991D85"/>
<path d="M71.3823 25.4619H73.663V26.1236H72.2117V26.7852H73.6334V27.4468H72.2117V28.1948H73.6926V28.8852H71.3823V25.4619Z" fill="#991D85"/>
<path d="M75.3809 25.4619V27.3893C75.3512 27.6194 75.3808 27.8208 75.4993 28.0222C75.6474 28.1948 75.8548 28.2811 76.0621 28.2811C76.2694 28.2811 76.5064 28.1948 76.6249 28.051C76.7137 27.8496 76.773 27.6194 76.7433 27.4181V25.4907H77.5727V27.5044C77.6023 27.8496 77.5134 28.1948 77.3357 28.5112C77.0988 28.8277 76.6545 29.0003 76.0621 29.0003C75.6178 29.029 75.1735 28.8852 74.8477 28.5688C74.6404 28.3386 74.5515 28.0222 74.5515 27.5044V25.4907H75.3809V25.4619Z" fill="#991D85"/>
<path d="M78.5205 25.4619H80.8012V26.1236H79.3498V26.7852H80.7716V27.4468H79.3498V28.1948H80.8308V28.8852H78.5501V25.4619H78.5205Z" fill="#991D85"/>
<path d="M81.5713 27.9645C81.8675 28.1947 82.1933 28.3097 82.5783 28.3097C82.9634 28.3097 83.1411 28.1947 83.1411 27.9645C83.1411 27.7919 83.0226 27.7056 82.6968 27.533L82.4006 27.3892C81.8082 27.1015 81.6009 26.8426 81.6009 26.4111C81.6009 25.7782 82.1044 25.3755 82.9338 25.3755C83.2596 25.3755 83.615 25.433 83.9112 25.6056V26.3536C83.6446 26.1522 83.3188 26.0371 82.993 26.0371C82.6376 26.0371 82.4302 26.1522 82.4302 26.3536C82.4302 26.4974 82.5191 26.5837 82.7561 26.6988L83.0522 26.8426C83.3188 26.9289 83.5262 27.0727 83.7335 27.2454C83.9112 27.418 84.0001 27.6769 84.0001 27.9358C84.0001 28.5974 83.4669 28.9714 82.6376 28.9714C82.2822 28.9714 81.9267 28.8851 81.6009 28.7412L81.5713 27.9645Z" fill="#991D85"/>
</g>
<defs>
<clipPath id="clip0_1920_8178">
<rect width="84" height="36" fill="white"/>
</clipPath>
</defs>
</svg>
