<svg width="100" height="29" viewBox="0 0 100 29" fill="none" xmlns="http://www.w3.org/2000/svg">
<path d="M52.6897 18.8028C52.6897 20.3715 51.6192 21.2351 49.2719 21.2351H46.4984V16.309H49.236C51.6541 16.309 52.6897 17.0654 52.6897 18.8038M52.0472 10.6267C52.0472 12.1981 51.2307 12.8855 49.201 12.8855H46.4984V8.52366H49.3768C51.2307 8.52366 52.0472 9.19607 52.0472 10.6267ZM58.1317 19.0845C58.1317 14.9838 54.0732 14.3468 54.0732 14.3468C54.0732 14.3468 57.4202 13.5905 57.4202 9.99065C57.4202 5.98231 54.6412 4.87158 48.8751 4.87158H41.2975V24.889H49.4818C55.6022 24.889 58.1327 23.5311 58.1327 19.0854M78.1343 4.87158H71.9743L68.5206 13.1326L65.1405 4.87158H58.8442L65.748 18.0325V24.889H71.1919V18.0325L78.1343 4.87158ZM80.9823 24.889H86.4805V15.0575L92.4288 24.889H98.9414L91.8931 14.3133L99.1577 4.87158H96.0252C93.4938 4.87158 92.6102 5.47498 91.0416 7.48288L86.4805 14.207V4.87158H80.9823V24.889Z" fill="#00519E"/>
<path d="M30.095 12.6934C30.095 7.28802 25.8211 3.0083 20.3708 3.0083C19.6344 3.0083 18.8971 3.07825 18.1588 3.2256C23.2446 6.7583 27.0739 14.3161 27.0739 19.2673V19.784C28.9149 18.096 30.095 15.5052 30.095 12.6934Z" fill="#009EE0"/>
<path d="M0.844126 18.9653C0.844126 25.7734 6.00171 27.7076 12.6284 27.7076C19.7053 27.7076 26.7029 24.9685 27.0748 19.7842C25.3029 21.4106 22.951 22.4514 20.3708 22.4514C14.9923 22.4514 10.7239 18.2304 10.7239 12.6936C10.7239 8.09303 13.8831 4.26562 18.1579 3.22577C16.4642 2.04043 14.5458 1.29248 12.7085 1.29248C5.48439 1.29248 0.842285 12.2375 0.842285 18.9653" fill="#00519E"/>
</svg>
