<svg width="80" height="36" viewBox="0 0 80 36" fill="none" xmlns="http://www.w3.org/2000/svg">
<rect y="7" width="80" height="24" fill="#024A96"/>
<path d="M29.5112 11.4523H36.8965C39.6074 11.4523 40.8457 13.5135 40.8457 15.3972C40.8457 16.7541 40.3883 17.6293 39.1608 18.4449C40.7089 19.0975 41.5506 20.2746 41.5506 22.0906C41.5506 24.2622 40.1678 26.5668 36.9063 26.5668H29.5078L29.5112 11.4523ZM33.5448 23.1546H36.2171C37.17 23.1546 37.5973 22.3781 37.5973 21.692C37.5973 22.0095 37.7199 20.4397 36.3526 20.4397H33.5448V23.1546ZM33.5543 17.4035H35.702C36.6838 17.4035 37.075 16.8822 37.075 16.1177C37.075 15.9414 37.0271 14.954 35.9838 14.954H33.5543V17.4035Z" fill="#FFFBFE"/>
<path d="M45.7506 11.4523H50.0207L54.8842 26.5483H50.5013L49.8597 24.2868H45.7684L45.2245 26.5365H40.875L45.7506 11.4523ZM47.7121 15.9341L46.5848 20.9757H48.9949L47.7121 15.9341Z" fill="#FFFBFE"/>
<path d="M61.6944 15.942H65.7667C65.7678 13.3789 64.0762 11 60.0631 11C55.6612 11 54.2983 13.7704 54.2983 15.7981C54.2983 19.0675 57.8068 19.9369 57.9157 19.9757C58.4398 20.1639 60.6176 20.8291 61.1608 21.0509C61.6321 21.2427 62.0828 21.6729 62.0828 22.2477C62.0828 23.1288 61.1608 23.5544 60.3933 23.5544C59.9004 23.5544 58.2444 23.3681 58.2444 21.3663H54.0379C54.0379 24.0249 55.6416 27 60.1417 27C65.1072 27 66.1461 23.6225 66.1461 21.8262C66.1461 20.3604 65.418 18.7345 63.7375 17.9603C62.7264 17.4948 61.0508 17.0869 60.2092 16.8067C59.785 16.6648 58.3716 16.3385 58.3716 15.3549C58.3716 14.095 60.1929 14.258 59.9272 14.258C60.7498 14.258 61.6944 14.7863 61.6944 15.942Z" fill="#FFFBFE"/>
<path d="M66.8366 11.4488H77V15.4383H70.8978V18.0978H76.3392V21.9099H70.8787V26.5642H66.8167L66.8366 11.4488Z" fill="#FFFBFE"/>
<g opacity="0.5">
<path d="M3 11.4521V26.5684H16.2558V11.4521H3ZM12.1771 21.9171H7.0777V16.102H12.1771V21.9171Z" fill="#FFFBFE"/>
<path d="M20.3343 16.1031H25.4326V21.9171H20.3343V16.1031Z" fill="#FFFBFE"/>
</g>
</svg>
