<svg width="101" height="36" viewBox="0 0 101 36" fill="none" xmlns="http://www.w3.org/2000/svg">
<path d="M53.6898 23.3028C53.6898 24.8715 52.6192 25.7351 50.2719 25.7351H47.4985V20.809H50.236C52.6542 20.809 53.6898 21.5654 53.6898 23.3038M53.0473 15.1267C53.0473 16.6981 52.2308 17.3855 50.2011 17.3855H47.4985V13.0237H50.3769C52.2308 13.0237 53.0473 13.6961 53.0473 15.1267ZM59.1318 23.5845C59.1318 19.4838 55.0733 18.8468 55.0733 18.8468C55.0733 18.8468 58.4202 18.0905 58.4202 14.4906C58.4202 10.4823 55.6412 9.37158 49.8752 9.37158H42.2976V29.389H50.4818C56.6023 29.389 59.1327 28.0311 59.1327 23.5854M79.1344 9.37158H72.9743L69.5206 17.6326L66.1405 9.37158H59.8443L66.7481 22.5325V29.389H72.1919V22.5325L79.1344 9.37158ZM81.9824 29.389H87.4806V19.5575L93.4289 29.389H99.9415L92.8932 18.8133L100.158 9.37158H97.0253C94.4939 9.37158 93.6102 9.97498 92.0417 11.9829L87.4806 18.707V9.37158H81.9824V29.389Z" fill="#00519E"/>
<path d="M31.0951 17.1934C31.0951 11.788 26.8212 7.5083 21.3709 7.5083C20.6345 7.5083 19.8972 7.57825 19.1589 7.7256C24.2447 11.2583 28.074 18.8161 28.074 23.7673V24.284C29.915 22.596 31.0951 20.0052 31.0951 17.1934Z" fill="#009EE0"/>
<path d="M1.84413 23.4653C1.84413 30.2734 7.00171 32.2076 13.6284 32.2076C20.7053 32.2076 27.7029 29.4685 28.0748 24.2842C26.3029 25.9106 23.951 26.9514 21.3708 26.9514C15.9923 26.9514 11.7239 22.7304 11.7239 17.1936C11.7239 12.593 14.8831 8.76562 19.1579 7.72577C17.4642 6.54043 15.5458 5.79248 13.7085 5.79248C6.48439 5.79248 1.84229 16.7375 1.84229 23.4653" fill="#00519E"/>
</svg>
