<svg width="24" height="24" viewBox="0 0 24 24" fill="none" xmlns="http://www.w3.org/2000/svg">
<rect width="24" height="24" fill="white"/>
<path fill-rule="evenodd" clip-rule="evenodd" d="M3.047 3.314C1.89884 4.587 0.959961 6.18 0.959961 6.854C0.959961 9.485 4.91708 15.955 8.30396 18.863C13.3056 23.158 16.8278 23.791 19.7587 20.923C22.68 18.064 22.6598 17.626 19.5168 15.481C17.4672 14.082 16.5936 13.966 15.1564 14.9C13.6387 15.888 12.9024 15.594 10.4217 13.01C8.08988 10.581 7.71452 9.661 8.60252 8.547C9.4646 7.465 9.37148 6.44 8.19548 4.072C6.36764 0.389 5.76476 0.301 3.047 3.314Z" fill="#4552EC"/>
<path d="M16.258 11.3224C16.714 11.4497 17.1896 11.1675 17.243 10.6789C17.3223 9.9534 17.2741 9.21637 17.0982 8.50442C16.8509 7.50391 16.3599 6.58684 15.6726 5.84202C14.9853 5.0972 14.125 4.54986 13.175 4.25301C12.499 4.04178 11.7939 3.96248 11.0949 4.01636C10.624 4.05265 10.3345 4.53648 10.4386 5.01616C10.5427 5.49584 11.0024 5.78669 11.4745 5.78117C11.8823 5.7764 12.29 5.83579 12.6837 5.95882C13.3518 6.16756 13.9567 6.55243 14.44 7.07618C14.9233 7.59992 15.2686 8.24479 15.4424 8.94833C15.5449 9.363 15.5858 9.78977 15.5651 10.214C15.5411 10.7052 15.802 11.1952 16.258 11.3224Z" fill="#4552EC"/>
<path d="M19.7784 12.3051C20.3387 12.4614 20.9206 12.1153 21.0087 11.5181C21.2052 10.1852 21.1414 8.82066 20.8169 7.50737C20.4049 5.83985 19.5865 4.3114 18.441 3.07003C17.2955 1.82866 15.8616 0.916437 14.2783 0.421688C13.0314 0.0320382 11.725 -0.0882653 10.4386 0.0636401C9.86228 0.131696 9.50727 0.723758 9.63513 1.31307C9.763 1.90238 10.3258 2.26396 10.9039 2.21432C11.8345 2.13442 12.7745 2.23601 13.6748 2.51735C14.9117 2.90385 16.0318 3.61649 16.9267 4.58625C17.8216 5.55602 18.461 6.75005 18.7828 8.05274C19.0171 9.00096 19.0775 9.98335 18.964 10.9489C18.8936 11.5486 19.2182 12.1487 19.7784 12.3051Z" fill="#4552EC"/>
</svg>
