<svg width="24" height="30" viewBox="0 0 24 30" fill="none" xmlns="http://www.w3.org/2000/svg">
<path fill-rule="evenodd" clip-rule="evenodd" d="M10.7158 5.08563C10.3533 5.12704 9.76333 5.22079 9.40483 5.29388C9.04625 5.36704 8.40542 5.53929 7.98066 5.67671C7.55591 5.81413 6.87091 6.08854 6.45841 6.28654C6.04591 6.48454 5.44591 6.82971 5.12508 7.05346L4.54175 7.46046V12.6676C4.54175 16.667 4.56741 18.0005 4.65233 18.4165C4.71316 18.7144 4.894 19.2328 5.05425 19.5685C5.252 19.9827 5.53558 20.3788 5.93691 20.8013C6.26216 21.1436 6.85 21.658 7.24333 21.9444C7.63658 22.2306 8.25842 22.6546 8.62508 22.8865C8.99175 23.1185 9.88025 23.67 10.5994 24.1123C11.3187 24.5546 11.949 24.9165 12.0001 24.9165C12.0512 24.9165 12.6815 24.5546 13.4007 24.1123C14.1199 23.67 15.0084 23.1185 15.3751 22.8865C15.7417 22.6546 16.3636 22.2306 16.7568 21.9444C17.1502 21.658 17.738 21.1436 18.0632 20.8013C18.4669 20.3763 18.7465 19.9851 18.9443 19.5685C19.1037 19.2328 19.2813 18.7706 19.3391 18.5415C19.4162 18.2355 19.4528 16.715 19.4766 12.8164L19.5091 7.50796L19.1087 7.21729C18.8886 7.05746 18.5135 6.80846 18.2752 6.66404C18.037 6.51954 17.512 6.25971 17.1086 6.08654C16.7052 5.91346 16.0376 5.67404 15.6251 5.55454C15.2126 5.43504 14.5447 5.28054 14.1411 5.21129C13.7374 5.14196 12.9499 5.06838 12.3911 5.04779C11.8322 5.02721 11.0784 5.04429 10.7158 5.08563ZM13.6667 6.78771C14.1022 6.85379 14.7959 7.00463 15.2084 7.12288C15.6209 7.24104 16.3817 7.54663 16.899 7.80188L17.8396 8.26596L17.8157 13.237L17.7917 18.2081L17.5243 18.7726C17.362 19.1155 17.0835 19.5106 16.8152 19.779C16.5722 20.022 16.1309 20.3992 15.8347 20.6173C15.5384 20.8354 14.578 21.4607 13.7005 22.0068C12.823 22.553 12.0578 22.9998 12.0001 22.9998C11.9423 22.9998 11.1772 22.553 10.2997 22.0068C9.42217 21.4607 8.46175 20.8354 8.1655 20.6173C7.86925 20.3992 7.428 20.022 7.185 19.779C6.91667 19.5106 6.63816 19.1155 6.47583 18.7726L6.20841 18.2081L6.1845 13.237L6.16058 8.26596L7.10117 7.80188C7.6185 7.54663 8.37925 7.24079 8.79175 7.12221C9.20425 7.00363 9.8605 6.85621 10.2501 6.79463C10.6397 6.73304 11.3897 6.67921 11.9167 6.67504C12.4438 6.67088 13.2313 6.72154 13.6667 6.78771ZM10.8751 8.42763C10.5542 8.46804 10.0105 8.57179 9.66675 8.65813C9.323 8.74446 8.76983 8.92096 8.43758 9.05046L7.83342 9.28579L7.83391 13.372C7.83416 16.0666 7.86533 17.5716 7.92541 17.7915C7.9755 17.9748 8.11117 18.2503 8.227 18.4036C8.34275 18.557 8.72683 18.8971 9.08058 19.1593C9.43425 19.4215 10.2122 19.943 10.8092 20.318C11.4064 20.693 11.9422 20.9998 12.0001 20.9998C12.0579 20.9998 12.5937 20.693 13.1909 20.318C13.788 19.943 14.5659 19.4215 14.9196 19.1593C15.2733 18.8971 15.659 18.5563 15.7767 18.402C15.8943 18.2477 16.0293 17.9535 16.0767 17.7481C16.1293 17.5195 16.1635 15.8065 16.1647 13.3303L16.1667 9.28579L15.5626 9.05071C15.2302 8.92146 14.6959 8.74854 14.3751 8.66654C14.0542 8.58454 13.4542 8.47604 13.0417 8.42554C12.6292 8.37496 12.1042 8.33821 11.8751 8.34388C11.6459 8.34954 11.1959 8.38729 10.8751 8.42763Z" fill="#383838"/>
</svg>
