<svg width="24" height="24" viewBox="0 0 24 24" fill="none" xmlns="http://www.w3.org/2000/svg">
<path fill-rule="evenodd" clip-rule="evenodd" d="M5.01412 4.92135C8.93247 1.02622 15.2622 1.02622 19.1805 4.92135C20.989 6.81898 22.0941 9.31585 21.9937 11.9126C21.9937 17.4057 17.573 21.8003 12.0471 21.8003C10.4395 21.8003 8.832 21.4007 7.32494 20.6017L2 22L3.40659 16.9064C1.19624 13.0113 1.79906 8.11735 5.01412 4.92135ZM15.8146 13.6105C16.1914 13.7853 16.5682 13.9601 16.6686 14.01L17.0705 14.2097C17.171 14.6093 17.171 15.0087 16.9701 15.4083C16.5682 16.0075 15.9653 16.5069 15.2621 16.6067C14.6592 16.7066 14.1569 16.7066 13.6545 16.5069C13.2665 16.4298 12.9385 16.2931 12.5778 16.1428C12.4714 16.0984 12.3623 16.053 12.2479 16.0075C10.5399 15.2085 9.13332 13.9101 8.02814 12.3121C7.42532 11.5131 7.12391 10.6142 7.02344 9.71536C7.02344 8.91636 7.32485 8.21723 7.92767 7.61799C8.02814 7.51811 8.32955 7.31836 8.5305 7.31836H9.03285C9.23379 7.31836 9.43473 7.31836 9.53521 8.01749C9.73614 8.51686 10.2385 9.71536 10.339 9.81524C10.4394 9.91511 10.4394 10.1149 10.339 10.2147C10.339 10.3146 10.2385 10.5144 10.138 10.6142C9.9979 10.6839 9.90663 10.8021 9.83015 10.9011C9.79696 10.9441 9.76655 10.9835 9.73614 11.0137C9.63568 11.1136 9.5352 11.3134 9.63568 11.5131C10.0376 12.1124 10.5399 12.7116 11.0423 13.211C11.6451 13.7104 12.3483 14.1099 13.0517 14.4095C13.2526 14.5094 13.4535 14.5094 13.5541 14.3096C13.6545 14.2098 13.8052 14.01 13.9559 13.8103C14.1066 13.6105 14.2573 13.4108 14.3578 13.3109C14.5587 13.1111 14.7597 13.1111 14.9606 13.211C15.0611 13.261 15.4378 13.4357 15.8146 13.6105Z" fill="white"/>
</svg>
