<svg width="275" height="69" viewBox="0 0 275 69" fill="none" xmlns="http://www.w3.org/2000/svg">
<path d="M20.6148 25.9095C20.3571 32.8421 23.7071 40.545 30.2781 43.6262C33.8857 44.91 37.751 44.0113 41.6163 44.1397C43.9354 44.1397 46.3835 44.2681 48.7026 44.5248C50.7641 44.6532 52.8256 45.2951 54.7583 44.6532C55.5313 44.2681 55.9179 43.4978 56.3044 42.8559C57.3351 40.9302 57.8505 38.7477 58.3659 36.6936C58.7524 35.153 59.0101 33.7408 59.2678 32.2002C59.5255 29.119 64.4215 29.3758 64.4215 32.4569C64.035 35.9233 63.5196 39.3896 62.4889 42.7275C60.0409 51.7142 54.8871 52.2278 46.6412 51.5859C43.1624 51.4575 39.5548 51.7142 36.076 52.2278C22.0321 54.667 11.4669 40.6734 10.3074 27.9636C8.50355 20.1323 20.0994 17.9498 20.6148 25.9095Z" fill="white"/>
<path d="M20.0995 25.2679C23.0629 25.0111 26.0263 25.3963 28.8608 26.4233C32.0819 27.5788 35.0453 29.3761 38.1375 30.7883C42.6471 32.9708 47.5431 34.5114 52.568 34.383C55.1449 34.383 57.5929 33.9979 60.0409 33.4843C63.5197 32.5857 66.9984 31.1735 70.0907 29.3761C74.8579 26.4233 70.3484 19.7475 65.5812 22.957C57.8506 26.8085 50.2488 27.322 42.6471 23.0854C39.426 21.4164 36.2049 19.3623 32.855 17.9501C27.9589 15.7676 22.4187 14.9973 17.0072 15.6392C14.5592 15.896 11.9824 16.5379 9.66318 17.3082C6.82863 18.3353 3.86523 19.7475 3.86523 23.2138C4.12292 27.9639 8.89012 29.6329 12.6266 27.1936C14.9458 25.7814 17.5226 25.5246 20.0995 25.2679Z" fill="white"/>
<path d="M88.2827 43.0049L82.7581 27.5861H87.7833L91.1542 38.4479H91.2167L94.5876 27.5861H99.4879L93.9633 43.0049H88.2827Z" fill="white"/>
<path d="M116.592 43.0049H112.285V40.6016H112.222C111.848 41.4547 111.244 42.1414 110.412 42.6616C109.58 43.161 108.591 43.4107 107.447 43.4107C106.635 43.4107 105.793 43.2546 104.919 42.9425C104.045 42.6304 103.244 42.1518 102.515 41.5067C101.808 40.8409 101.215 39.9981 100.736 38.9785C100.279 37.9589 100.05 36.7313 100.05 35.2955C100.05 34.1302 100.247 33.0482 100.643 32.0494C101.059 31.0506 101.631 30.1975 102.359 29.49C103.109 28.7617 103.982 28.1999 104.981 27.8046C106.001 27.3884 107.124 27.1803 108.352 27.1803C109.559 27.1803 110.672 27.378 111.692 27.7733C112.711 28.1479 113.575 28.6993 114.282 29.4276C115.011 30.1351 115.573 30.9986 115.968 32.0182C116.384 33.0378 116.592 34.1823 116.592 35.4516V43.0049ZM108.352 39.041C109.413 39.041 110.267 38.6976 110.912 38.011C111.577 37.3243 111.91 36.4191 111.91 35.2955C111.91 34.1719 111.577 33.2667 110.912 32.58C110.267 31.8934 109.413 31.55 108.352 31.55C107.291 31.55 106.427 31.8934 105.762 32.58C105.116 33.2667 104.794 34.1719 104.794 35.2955C104.794 36.4191 105.116 37.3243 105.762 38.011C106.427 38.6976 107.291 39.041 108.352 39.041Z" fill="white"/>
<path d="M130.15 43.0049V35.0146C130.15 33.7869 129.88 32.9026 129.339 32.3615C128.798 31.8205 128.09 31.55 127.216 31.55C126.342 31.55 125.635 31.8205 125.094 32.3615C124.553 32.9026 124.282 33.7869 124.282 35.0146V43.0049H119.601V35.0146C119.601 33.7245 119.777 32.5904 120.131 31.6125C120.506 30.6345 121.026 29.823 121.692 29.1779C122.358 28.512 123.159 28.0126 124.095 27.6797C125.031 27.3468 126.072 27.1803 127.216 27.1803C128.361 27.1803 129.401 27.3468 130.338 27.6797C131.274 27.9918 132.075 28.4808 132.741 29.1467C133.407 29.7917 133.917 30.6033 134.27 31.5812C134.645 32.5592 134.832 33.7037 134.832 35.0146V43.0049H130.15Z" fill="white"/>
<path d="M148.376 43.0049V35.0146C148.376 33.7869 148.105 32.9026 147.564 32.3615C147.023 31.8205 146.316 31.55 145.442 31.55C144.568 31.55 143.86 31.8205 143.319 32.3615C142.778 32.9026 142.508 33.7869 142.508 35.0146V43.0049H137.826V35.0146C137.826 33.7245 138.003 32.5904 138.357 31.6125C138.731 30.6345 139.251 29.823 139.917 29.1779C140.583 28.512 141.384 28.0126 142.321 27.6797C143.257 27.3468 144.297 27.1803 145.442 27.1803C146.586 27.1803 147.627 27.3468 148.563 27.6797C149.499 27.9918 150.3 28.4808 150.966 29.1467C151.632 29.7917 152.142 30.6033 152.496 31.5812C152.87 32.5592 153.058 33.7037 153.058 35.0146V43.0049H148.376Z" fill="white"/>
<path d="M171.97 43.0049H167.662V40.6016H167.6C167.225 41.4547 166.622 42.1414 165.79 42.6616C164.957 43.161 163.969 43.4107 162.825 43.4107C162.013 43.4107 161.17 43.2546 160.296 42.9425C159.422 42.6304 158.621 42.1518 157.893 41.5067C157.186 40.8409 156.592 39.9981 156.114 38.9785C155.656 37.9589 155.427 36.7313 155.427 35.2955C155.427 34.1302 155.625 33.0482 156.02 32.0494C156.436 31.0506 157.009 30.1975 157.737 29.49C158.486 28.7617 159.36 28.1999 160.359 27.8046C161.378 27.3884 162.502 27.1803 163.73 27.1803C164.937 27.1803 166.05 27.378 167.069 27.7733C168.089 28.1479 168.953 28.6993 169.66 29.4276C170.388 30.1351 170.95 30.9986 171.345 32.0182C171.762 33.0378 171.97 34.1823 171.97 35.4516V43.0049ZM163.73 39.041C164.791 39.041 165.644 38.6976 166.289 38.011C166.955 37.3243 167.288 36.4191 167.288 35.2955C167.288 34.1719 166.955 33.2667 166.289 32.58C165.644 31.8934 164.791 31.55 163.73 31.55C162.668 31.55 161.805 31.8934 161.139 32.58C160.494 33.2667 160.171 34.1719 160.171 35.2955C160.171 36.4191 160.494 37.3243 161.139 38.011C161.805 38.6976 162.668 39.041 163.73 39.041Z" fill="white"/>
<path d="M174.167 36.7937V32.2679H183.53V36.7937H174.167Z" fill="white"/>
<path d="M186.205 43.0049V20.8442H190.887V43.0049H186.205Z" fill="white"/>
<path d="M204.94 27.5861H209.622V35.5764C209.622 36.8665 209.435 38.0005 209.06 38.9785C208.706 39.9565 208.197 40.7784 207.531 41.4443C206.865 42.0893 206.064 42.5783 205.127 42.9113C204.191 43.2442 203.151 43.4107 202.006 43.4107C200.862 43.4107 199.821 43.2546 198.885 42.9425C197.949 42.6096 197.147 42.1206 196.482 41.4755C195.816 40.8096 195.295 39.9877 194.921 39.0097C194.567 38.0318 194.39 36.8873 194.39 35.5764V27.5861H199.072V35.5764C199.072 36.8041 199.343 37.6884 199.884 38.2294C200.425 38.7704 201.132 39.041 202.006 39.041C202.88 39.041 203.588 38.7704 204.129 38.2294C204.67 37.6884 204.94 36.8041 204.94 35.5764V27.5861Z" fill="white"/>
<path d="M211.43 43.0049L216.673 35.1082L211.679 27.5861H217.266L220.076 32.424H220.138L222.947 27.5861H228.409L223.384 35.1082L228.659 43.0049H223.072L220.013 37.7613H219.951L216.892 43.0049H211.43Z" fill="white"/>
<path d="M233.097 43.4107C232.244 43.4107 231.526 43.1298 230.944 42.5679C230.382 41.9853 230.101 41.2674 230.101 40.4143C230.101 39.5612 230.382 38.8537 230.944 38.2919C231.526 37.7092 232.244 37.4179 233.097 37.4179C233.951 37.4179 234.658 37.7092 235.22 38.2919C235.802 38.8537 236.094 39.5612 236.094 40.4143C236.094 41.2674 235.802 41.9853 235.22 42.5679C234.658 43.1298 233.951 43.4107 233.097 43.4107Z" fill="white"/>
<path d="M238.703 20.8442H243.385V29.1779H243.448C243.885 28.5745 244.478 28.0959 245.227 27.7421C245.976 27.3676 246.85 27.1803 247.849 27.1803C248.66 27.1803 249.503 27.3364 250.377 27.6485C251.251 27.9606 252.041 28.4496 252.749 29.1155C253.477 29.7605 254.07 30.5929 254.528 31.6125C255.007 32.632 255.246 33.8597 255.246 35.2955C255.246 36.4607 255.038 37.5428 254.622 38.5416C254.226 39.5404 253.654 40.4039 252.905 41.1322C252.177 41.8397 251.303 42.4015 250.283 42.8176C249.264 43.213 248.15 43.4107 246.943 43.4107C245.716 43.4107 244.592 43.2234 243.572 42.8488C242.574 42.4535 241.71 41.9021 240.982 41.1946C240.274 40.4663 239.713 39.5924 239.296 38.5728C238.901 37.5532 238.703 36.4087 238.703 35.1394V20.8442ZM246.943 39.041C248.005 39.041 248.858 38.6976 249.503 38.011C250.169 37.3243 250.502 36.4191 250.502 35.2955C250.502 34.1719 250.169 33.2667 249.503 32.58C248.858 31.8934 248.005 31.55 246.943 31.55C245.882 31.55 245.019 31.8934 244.353 32.58C243.708 33.2667 243.385 34.1719 243.385 35.2955C243.385 36.4191 243.708 37.3243 244.353 38.011C245.019 38.6976 245.882 39.041 246.943 39.041Z" fill="white"/>
<path d="M265.246 38.7913C266.099 38.7913 266.796 38.5103 267.337 37.9485C267.899 37.3867 268.18 36.5128 268.18 35.3267V27.5861H272.861V42.4743C272.861 43.8268 272.653 44.9713 272.237 45.9076C271.842 46.8648 271.301 47.6451 270.614 48.2486C269.928 48.852 269.116 49.289 268.18 49.5595C267.264 49.8508 266.276 49.9964 265.214 49.9964C264.299 49.9964 263.425 49.882 262.593 49.6531C261.781 49.445 261.042 49.1121 260.377 48.6543C259.732 48.2173 259.18 47.6555 258.722 46.9689C258.265 46.2822 257.942 45.4603 257.755 44.5031H262.437C262.665 45.0233 262.998 45.3874 263.435 45.5955C263.872 45.8244 264.465 45.9389 265.214 45.9389C266.255 45.9389 267.004 45.6787 267.462 45.1585C267.94 44.6592 268.18 43.8164 268.18 42.6304V41.1946H268.117C267.701 41.798 267.17 42.2766 266.525 42.6304C265.88 42.9841 265.152 43.161 264.341 43.161C263.529 43.161 262.717 43.0153 261.906 42.724C261.115 42.4327 260.397 41.9749 259.752 41.3507C259.128 40.7264 258.618 39.9253 258.223 38.9473C257.828 37.9485 257.63 36.7417 257.63 35.3267V27.5861H262.312V35.3267C262.312 36.5544 262.582 37.4387 263.123 37.9797C263.664 38.5208 264.372 38.7913 265.246 38.7913Z" fill="white"/>
<path d="M90.0504 50.2548H89.4069V46.0308H87.0441V50.2548H86.4039V45.5259H90.0504V50.2548Z" fill="white"/>
<path d="M92.0428 49.4496C92.1506 49.5948 92.2683 49.6971 92.3959 49.7565C92.5235 49.8159 92.6665 49.8456 92.8249 49.8456C93.1373 49.8456 93.3771 49.7345 93.5443 49.5123C93.7115 49.2901 93.7951 48.9733 93.7951 48.5619C93.7951 48.3441 93.7753 48.1571 93.7357 48.0009C93.6983 47.8447 93.6433 47.7171 93.5707 47.6181C93.4981 47.5169 93.409 47.4432 93.3034 47.397C93.1978 47.3508 93.0779 47.3277 92.9437 47.3277C92.7523 47.3277 92.584 47.3717 92.4388 47.4597C92.2958 47.5477 92.1638 47.672 92.0428 47.8326V49.4496ZM92.0131 47.43C92.1539 47.2562 92.3167 47.1165 92.5015 47.0109C92.6863 46.9053 92.8975 46.8525 93.1351 46.8525C93.3287 46.8525 93.5036 46.8899 93.6598 46.9647C93.816 47.0373 93.9491 47.1462 94.0591 47.2914C94.1691 47.4344 94.2538 47.6126 94.3132 47.826C94.3726 48.0394 94.4023 48.2847 94.4023 48.5619C94.4023 48.8083 94.3693 49.0382 94.3033 49.2516C94.2373 49.4628 94.1416 49.6465 94.0162 49.8027C93.893 49.9567 93.7412 50.0788 93.5608 50.169C93.3826 50.257 93.1813 50.301 92.9569 50.301C92.7523 50.301 92.5763 50.2669 92.4289 50.1987C92.2837 50.1283 92.155 50.0315 92.0428 49.9083V51.3867H91.4521V46.9119H91.8052C91.8888 46.9119 91.9405 46.9526 91.9603 47.034L92.0131 47.43Z" fill="white"/>
<path d="M96.9394 46.8591C97.1835 46.8591 97.4035 46.8998 97.5993 46.9812C97.7952 47.0626 97.9623 47.1781 98.101 47.3277C98.2395 47.4773 98.3452 47.6588 98.4178 47.8722C98.4926 48.0834 98.53 48.3199 98.53 48.5817C98.53 48.8457 98.4926 49.0833 98.4178 49.2945C98.3452 49.5057 98.2395 49.6861 98.101 49.8357C97.9623 49.9853 97.7952 50.1008 97.5993 50.1822C97.4035 50.2614 97.1835 50.301 96.9394 50.301C96.6929 50.301 96.4708 50.2614 96.2728 50.1822C96.077 50.1008 95.9098 49.9853 95.7712 49.8357C95.6326 49.6861 95.5259 49.5057 95.4511 49.2945C95.3785 49.0833 95.3421 48.8457 95.3421 48.5817C95.3421 48.3199 95.3785 48.0834 95.4511 47.8722C95.5259 47.6588 95.6326 47.4773 95.7712 47.3277C95.9098 47.1781 96.077 47.0626 96.2728 46.9812C96.4708 46.8998 96.6929 46.8591 96.9394 46.8591ZM96.9394 49.8423C97.2693 49.8423 97.5158 49.7323 97.6786 49.5123C97.8414 49.2901 97.9228 48.981 97.9228 48.585C97.9228 48.1868 97.8414 47.8766 97.6786 47.6544C97.5158 47.4322 97.2693 47.3211 96.9394 47.3211C96.7721 47.3211 96.6258 47.3497 96.5005 47.4069C96.3773 47.4641 96.2738 47.5466 96.1903 47.6544C96.1088 47.7622 96.0472 47.8953 96.0055 48.0537C95.9659 48.2099 95.9461 48.387 95.9461 48.585C95.9461 48.981 96.0275 49.2901 96.1903 49.5123C96.3552 49.7323 96.6049 49.8423 96.9394 49.8423Z" fill="white"/>
<path d="M101.782 49.8555C101.978 49.8467 102.15 49.8104 102.3 49.7466C102.452 49.6828 102.578 49.597 102.679 49.4892C102.783 49.3792 102.86 49.2483 102.91 49.0965C102.963 48.9447 102.99 48.7742 102.99 48.585C102.99 48.3936 102.963 48.222 102.91 48.0702C102.86 47.9162 102.783 47.7842 102.679 47.6742C102.578 47.5642 102.452 47.4784 102.3 47.4168C102.15 47.353 101.977 47.3156 101.779 47.3046V49.8258L101.782 49.8555ZM101.26 47.3046C101.062 47.3156 100.889 47.353 100.739 47.4168C100.589 47.4784 100.463 47.5642 100.36 47.6742C100.258 47.7842 100.181 47.9162 100.129 48.0702C100.078 48.2242 100.053 48.3958 100.053 48.585C100.053 48.7742 100.078 48.9447 100.129 49.0965C100.181 49.2483 100.258 49.3792 100.36 49.4892C100.461 49.597 100.586 49.6828 100.736 49.7466C100.888 49.8104 101.061 49.8467 101.257 49.8555L101.26 49.8357V47.3046ZM101.798 46.8624C102.073 46.8734 102.321 46.9218 102.541 47.0076C102.761 47.0934 102.948 47.2111 103.102 47.3607C103.256 47.5103 103.374 47.6885 103.455 47.8953C103.539 48.0999 103.58 48.3287 103.58 48.5817C103.58 48.8347 103.539 49.0646 103.455 49.2714C103.374 49.476 103.256 49.6531 103.102 49.8027C102.948 49.9501 102.761 50.0667 102.541 50.1525C102.321 50.2383 102.073 50.2867 101.798 50.2977V51.4065H101.244V50.2977C100.969 50.2867 100.721 50.2383 100.501 50.1525C100.281 50.0667 100.094 49.9501 99.9405 49.8027C99.7865 49.6531 99.6677 49.476 99.5841 49.2714C99.5027 49.0646 99.462 48.8347 99.462 48.5817C99.462 48.3287 99.5027 48.0999 99.5841 47.8953C99.6677 47.6885 99.7865 47.5103 99.9405 47.3607C100.094 47.2111 100.281 47.0934 100.501 47.0076C100.721 46.9218 100.969 46.8734 101.244 46.8624V45.5259H101.798V46.8624Z" fill="white"/>
<path d="M106.82 49.8555C107.016 49.8467 107.189 49.8104 107.338 49.7466C107.49 49.6828 107.617 49.597 107.718 49.4892C107.821 49.3792 107.898 49.2483 107.949 49.0965C108.002 48.9447 108.028 48.7742 108.028 48.585C108.028 48.3936 108.002 48.222 107.949 48.0702C107.898 47.9162 107.821 47.7842 107.718 47.6742C107.617 47.5642 107.49 47.4784 107.338 47.4168C107.189 47.353 107.015 47.3156 106.817 47.3046V49.8258L106.82 49.8555ZM106.299 47.3046C106.101 47.3156 105.927 47.353 105.778 47.4168C105.628 47.4784 105.501 47.5642 105.398 47.6742C105.297 47.7842 105.22 47.9162 105.167 48.0702C105.116 48.2242 105.091 48.3958 105.091 48.585C105.091 48.7742 105.116 48.9447 105.167 49.0965C105.22 49.2483 105.297 49.3792 105.398 49.4892C105.499 49.597 105.625 49.6828 105.774 49.7466C105.926 49.8104 106.1 49.8467 106.296 49.8555L106.299 49.8357V47.3046ZM106.837 46.8624C107.112 46.8734 107.359 46.9218 107.579 47.0076C107.799 47.0934 107.986 47.2111 108.14 47.3607C108.294 47.5103 108.412 47.6885 108.493 47.8953C108.577 48.0999 108.619 48.3287 108.619 48.5817C108.619 48.8347 108.577 49.0646 108.493 49.2714C108.412 49.476 108.294 49.6531 108.14 49.8027C107.986 49.9501 107.799 50.0667 107.579 50.1525C107.359 50.2383 107.112 50.2867 106.837 50.2977V51.4065H106.282V50.2977C106.007 50.2867 105.76 50.2383 105.54 50.1525C105.32 50.0667 105.133 49.9501 104.979 49.8027C104.825 49.6531 104.706 49.476 104.623 49.2714C104.541 49.0646 104.5 48.8347 104.5 48.5817C104.5 48.3287 104.541 48.0999 104.623 47.8953C104.706 47.6885 104.825 47.5103 104.979 47.3607C105.133 47.2111 105.32 47.0934 105.54 47.0076C105.76 46.9218 106.007 46.8734 106.282 46.8624V45.5259H106.837V46.8624Z" fill="white"/>
<path d="M111.974 48.2187C111.974 48.0823 111.955 47.958 111.915 47.8458C111.878 47.7314 111.822 47.6335 111.747 47.5521C111.674 47.4685 111.585 47.4047 111.479 47.3607C111.374 47.3145 111.254 47.2914 111.12 47.2914C110.838 47.2914 110.615 47.3739 110.45 47.5389C110.287 47.7017 110.186 47.9283 110.146 48.2187H111.974ZM112.45 49.7862C112.377 49.8742 112.29 49.9512 112.189 50.0172C112.088 50.081 111.979 50.1338 111.862 50.1756C111.748 50.2174 111.629 50.2482 111.506 50.268C111.383 50.29 111.261 50.301 111.14 50.301C110.909 50.301 110.695 50.2625 110.499 50.1855C110.306 50.1063 110.137 49.9919 109.994 49.8423C109.854 49.6905 109.744 49.5035 109.664 49.2813C109.585 49.0591 109.546 48.8039 109.546 48.5157C109.546 48.2825 109.581 48.0647 109.651 47.8623C109.724 47.6599 109.827 47.485 109.961 47.3376C110.096 47.188 110.26 47.0714 110.453 46.9878C110.647 46.902 110.865 46.8591 111.107 46.8591C111.307 46.8591 111.492 46.8932 111.661 46.9614C111.833 47.0274 111.98 47.1242 112.103 47.2518C112.229 47.3772 112.326 47.5334 112.397 47.7204C112.467 47.9052 112.502 48.1164 112.502 48.354C112.502 48.4464 112.493 48.508 112.473 48.5388C112.453 48.5696 112.416 48.585 112.361 48.585H110.126C110.133 48.7962 110.162 48.9799 110.212 49.1361C110.265 49.2923 110.338 49.4232 110.43 49.5288C110.522 49.6322 110.632 49.7103 110.76 49.7631C110.888 49.8137 111.031 49.839 111.189 49.839C111.336 49.839 111.463 49.8225 111.569 49.7895C111.676 49.7543 111.769 49.7169 111.846 49.6773C111.923 49.6377 111.987 49.6014 112.037 49.5684C112.09 49.5332 112.135 49.5156 112.172 49.5156C112.221 49.5156 112.258 49.5343 112.285 49.5717L112.45 49.7862Z" fill="white"/>
<path d="M115.935 47.5059C115.918 47.5301 115.9 47.5488 115.883 47.562C115.865 47.5752 115.841 47.5818 115.81 47.5818C115.777 47.5818 115.741 47.5686 115.701 47.5422C115.662 47.5136 115.612 47.4828 115.553 47.4498C115.495 47.4168 115.424 47.3871 115.338 47.3607C115.255 47.3321 115.151 47.3178 115.028 47.3178C114.863 47.3178 114.718 47.3475 114.592 47.4069C114.467 47.4641 114.361 47.5477 114.276 47.6577C114.192 47.7677 114.128 47.9008 114.084 48.057C114.042 48.2132 114.021 48.3881 114.021 48.5817C114.021 48.7841 114.045 48.9645 114.091 49.1229C114.137 49.2791 114.202 49.4111 114.285 49.5189C114.371 49.6245 114.474 49.7059 114.592 49.7631C114.713 49.8181 114.849 49.8456 114.998 49.8456C115.141 49.8456 115.259 49.8291 115.351 49.7961C115.444 49.7609 115.52 49.7224 115.579 49.6806C115.641 49.6388 115.691 49.6014 115.731 49.5684C115.773 49.5332 115.813 49.5156 115.853 49.5156C115.901 49.5156 115.939 49.5343 115.965 49.5717L116.13 49.7862C116.058 49.8764 115.975 49.9534 115.883 50.0172C115.79 50.081 115.69 50.1349 115.582 50.1789C115.477 50.2207 115.366 50.2515 115.249 50.2713C115.132 50.2911 115.014 50.301 114.893 50.301C114.684 50.301 114.489 50.2625 114.309 50.1855C114.13 50.1085 113.975 49.9974 113.843 49.8522C113.711 49.7048 113.608 49.5244 113.533 49.311C113.458 49.0976 113.421 48.8545 113.421 48.5817C113.421 48.3331 113.455 48.1032 113.523 47.892C113.594 47.6808 113.695 47.4993 113.827 47.3475C113.961 47.1935 114.125 47.0736 114.318 46.9878C114.514 46.902 114.739 46.8591 114.992 46.8591C115.227 46.8591 115.434 46.8976 115.612 46.9746C115.792 47.0494 115.952 47.1561 116.091 47.2947L115.935 47.5059Z" fill="white"/>
<path d="M120.013 46.9119V50.2548H119.426V47.9844C119.426 47.9404 119.428 47.8931 119.433 47.8425C119.437 47.7919 119.442 47.7413 119.449 47.6907C119.429 47.7347 119.409 47.7754 119.39 47.8128C119.37 47.8502 119.349 47.8843 119.327 47.9151L117.713 50.1096C117.689 50.1448 117.658 50.1789 117.621 50.2119C117.586 50.2427 117.546 50.2581 117.502 50.2581H117.146V46.9152H117.736V49.1856C117.736 49.2274 117.734 49.2736 117.73 49.3242C117.725 49.3726 117.72 49.4221 117.713 49.4727C117.733 49.4309 117.753 49.3924 117.773 49.3572C117.792 49.3198 117.812 49.2857 117.832 49.2549L119.446 47.0604C119.47 47.0252 119.501 46.9922 119.538 46.9614C119.576 46.9284 119.616 46.9119 119.66 46.9119H120.013Z" fill="white"/>
<path d="M122.736 46.8591C122.98 46.8591 123.2 46.8998 123.396 46.9812C123.592 47.0626 123.759 47.1781 123.898 47.3277C124.036 47.4773 124.142 47.6588 124.214 47.8722C124.289 48.0834 124.327 48.3199 124.327 48.5817C124.327 48.8457 124.289 49.0833 124.214 49.2945C124.142 49.5057 124.036 49.6861 123.898 49.8357C123.759 49.9853 123.592 50.1008 123.396 50.1822C123.2 50.2614 122.98 50.301 122.736 50.301C122.49 50.301 122.267 50.2614 122.069 50.1822C121.874 50.1008 121.706 49.9853 121.568 49.8357C121.429 49.6861 121.323 49.5057 121.248 49.2945C121.175 49.0833 121.139 48.8457 121.139 48.5817C121.139 48.3199 121.175 48.0834 121.248 47.8722C121.323 47.6588 121.429 47.4773 121.568 47.3277C121.706 47.1781 121.874 47.0626 122.069 46.9812C122.267 46.8998 122.49 46.8591 122.736 46.8591ZM122.736 49.8423C123.066 49.8423 123.312 49.7323 123.475 49.5123C123.638 49.2901 123.719 48.981 123.719 48.585C123.719 48.1868 123.638 47.8766 123.475 47.6544C123.312 47.4322 123.066 47.3211 122.736 47.3211C122.569 47.3211 122.423 47.3497 122.297 47.4069C122.174 47.4641 122.071 47.5466 121.987 47.6544C121.906 47.7622 121.844 47.8953 121.802 48.0537C121.763 48.2099 121.743 48.387 121.743 48.585C121.743 48.981 121.824 49.2901 121.987 49.5123C122.152 49.7323 122.402 49.8423 122.736 49.8423Z" fill="white"/>
<path d="M128.242 46.9119V50.2548H127.651V48.6906H126.047V50.2548H125.457V46.9119H126.047V48.2451H127.651V46.9119H128.242Z" fill="white"/>
<path d="M131.372 48.75C131.102 48.7588 130.871 48.7808 130.679 48.816C130.49 48.849 130.335 48.893 130.214 48.948C130.095 49.003 130.008 49.0679 129.953 49.1427C129.901 49.2175 129.874 49.3011 129.874 49.3935C129.874 49.4815 129.888 49.5574 129.917 49.6212C129.946 49.685 129.984 49.7378 130.033 49.7796C130.083 49.8192 130.141 49.8489 130.207 49.8687C130.276 49.8863 130.348 49.8951 130.425 49.8951C130.529 49.8951 130.623 49.8852 130.709 49.8654C130.795 49.8434 130.875 49.8126 130.95 49.773C131.027 49.7334 131.1 49.6861 131.168 49.6311C131.238 49.5761 131.306 49.5134 131.372 49.443V48.75ZM129.475 47.3838C129.66 47.2056 129.859 47.0725 130.072 46.9845C130.286 46.8965 130.522 46.8525 130.782 46.8525C130.969 46.8525 131.135 46.8833 131.28 46.9449C131.425 47.0065 131.547 47.0923 131.646 47.2023C131.745 47.3123 131.82 47.4454 131.871 47.6016C131.921 47.7578 131.947 47.9294 131.947 48.1164V50.2548H131.686C131.629 50.2548 131.585 50.246 131.554 50.2284C131.523 50.2086 131.499 50.1712 131.481 50.1162L131.415 49.7994C131.327 49.8808 131.241 49.9534 131.158 50.0172C131.074 50.0788 130.986 50.1316 130.894 50.1756C130.801 50.2174 130.702 50.2493 130.597 50.2713C130.493 50.2955 130.378 50.3076 130.25 50.3076C130.121 50.3076 129.998 50.29 129.884 50.2548C129.77 50.2174 129.67 50.1624 129.584 50.0898C129.5 50.0172 129.433 49.9259 129.382 49.8159C129.334 49.7037 129.31 49.5717 129.31 49.4199C129.31 49.2879 129.346 49.1614 129.419 49.0404C129.491 48.9172 129.609 48.8083 129.772 48.7137C129.935 48.6191 130.147 48.5421 130.409 48.4827C130.671 48.4211 130.992 48.3859 131.372 48.3771V48.1164C131.372 47.8568 131.316 47.661 131.204 47.529C131.092 47.3948 130.928 47.3277 130.712 47.3277C130.567 47.3277 130.445 47.3464 130.346 47.3838C130.249 47.419 130.165 47.4597 130.092 47.5059C130.022 47.5499 129.96 47.5906 129.907 47.628C129.857 47.6632 129.806 47.6808 129.755 47.6808C129.716 47.6808 129.682 47.6709 129.653 47.6511C129.624 47.6291 129.6 47.6027 129.58 47.5719L129.475 47.3838Z" fill="white"/>
<path d="M136.157 50.2548H135.569V47.3739H134.513C134.487 47.7985 134.447 48.1659 134.395 48.4761C134.342 48.7841 134.278 49.047 134.203 49.2648C134.131 49.4804 134.048 49.6564 133.956 49.7928C133.865 49.927 133.77 50.0315 133.669 50.1063C133.57 50.1811 133.466 50.2317 133.358 50.2581C133.253 50.2845 133.147 50.2977 133.042 50.2977C132.855 50.2977 132.761 50.268 132.761 50.2086V49.8357H132.933C133.007 49.8357 133.083 49.8225 133.16 49.7961C133.237 49.7697 133.312 49.7191 133.385 49.6443C133.46 49.5695 133.531 49.465 133.599 49.3308C133.667 49.1944 133.729 49.0184 133.784 48.8028C133.841 48.585 133.89 48.3221 133.929 48.0141C133.971 47.7039 134.003 47.3365 134.025 46.9119H136.157V50.2548Z" fill="white"/>
<path d="M138.756 49.8258C138.875 49.8258 138.977 49.8115 139.063 49.7829C139.151 49.7521 139.223 49.7103 139.28 49.6575C139.338 49.6025 139.381 49.5387 139.409 49.4661C139.438 49.3935 139.452 49.3143 139.452 49.2285C139.452 49.1493 139.44 49.0756 139.416 49.0074C139.392 48.937 139.351 48.8754 139.294 48.8226C139.239 48.7698 139.166 48.728 139.076 48.6972C138.986 48.6664 138.876 48.651 138.746 48.651H138.036V49.8258H138.756ZM138.746 48.222C138.977 48.222 139.17 48.2495 139.327 48.3045C139.485 48.3595 139.612 48.4332 139.706 48.5256C139.803 48.618 139.872 48.7247 139.914 48.8457C139.956 48.9667 139.977 49.0921 139.977 49.2219C139.977 49.3715 139.95 49.5101 139.898 49.6377C139.845 49.7631 139.767 49.872 139.663 49.9644C139.56 50.0546 139.432 50.1261 139.28 50.1789C139.129 50.2295 138.954 50.2548 138.756 50.2548H137.472V46.9119H138.036V48.222H138.746Z" fill="white"/>
<path d="M143.8 46.9119V50.2548H143.21V48.6906H141.606V50.2548H141.015V46.9119H141.606V48.2451H143.21V46.9119H143.8Z" fill="white"/>
<path d="M146.931 48.75C146.66 48.7588 146.429 48.7808 146.238 48.816C146.049 48.849 145.894 48.893 145.773 48.948C145.654 49.003 145.567 49.0679 145.512 49.1427C145.459 49.2175 145.433 49.3011 145.433 49.3935C145.433 49.4815 145.447 49.5574 145.476 49.6212C145.504 49.685 145.543 49.7378 145.591 49.7796C145.642 49.8192 145.7 49.8489 145.766 49.8687C145.834 49.8863 145.907 49.8951 145.984 49.8951C146.087 49.8951 146.182 49.8852 146.268 49.8654C146.353 49.8434 146.434 49.8126 146.508 49.773C146.585 49.7334 146.658 49.6861 146.726 49.6311C146.797 49.5761 146.865 49.5134 146.931 49.443V48.75ZM145.033 47.3838C145.218 47.2056 145.417 47.0725 145.631 46.9845C145.844 46.8965 146.081 46.8525 146.34 46.8525C146.527 46.8525 146.693 46.8833 146.839 46.9449C146.984 47.0065 147.106 47.0923 147.205 47.2023C147.304 47.3123 147.379 47.4454 147.429 47.6016C147.48 47.7578 147.505 47.9294 147.505 48.1164V50.2548H147.244C147.187 50.2548 147.143 50.246 147.112 50.2284C147.082 50.2086 147.057 50.1712 147.04 50.1162L146.974 49.7994C146.886 49.8808 146.8 49.9534 146.716 50.0172C146.633 50.0788 146.545 50.1316 146.452 50.1756C146.36 50.2174 146.261 50.2493 146.155 50.2713C146.052 50.2955 145.936 50.3076 145.809 50.3076C145.679 50.3076 145.557 50.29 145.443 50.2548C145.328 50.2174 145.228 50.1624 145.142 50.0898C145.059 50.0172 144.992 49.9259 144.941 49.8159C144.893 49.7037 144.868 49.5717 144.868 49.4199C144.868 49.2879 144.905 49.1614 144.977 49.0404C145.05 48.9172 145.168 48.8083 145.33 48.7137C145.493 48.6191 145.705 48.5421 145.967 48.4827C146.229 48.4211 146.55 48.3859 146.931 48.3771V48.1164C146.931 47.8568 146.875 47.661 146.763 47.529C146.65 47.3948 146.486 47.3277 146.271 47.3277C146.126 47.3277 146.004 47.3464 145.905 47.3838C145.808 47.419 145.723 47.4597 145.65 47.5059C145.58 47.5499 145.518 47.5906 145.466 47.628C145.415 47.6632 145.365 47.6808 145.314 47.6808C145.274 47.6808 145.24 47.6709 145.212 47.6511C145.183 47.6291 145.159 47.6027 145.139 47.5719L145.033 47.3838Z" fill="white"/>
<path d="M150.544 48.4728V47.3079H149.983C149.857 47.3079 149.752 47.3266 149.666 47.364C149.58 47.3992 149.511 47.4454 149.458 47.5026C149.407 47.5576 149.371 47.6203 149.349 47.6907C149.327 47.7589 149.316 47.8271 149.316 47.8953C149.316 48.0757 149.382 48.2176 149.514 48.321C149.646 48.4222 149.827 48.4728 150.055 48.4728H150.544ZM151.105 46.9119V50.2548H150.544V48.8457H150.286C150.225 48.8457 150.173 48.8512 150.131 48.8622C150.092 48.871 150.056 48.8842 150.026 48.9018C149.997 48.9194 149.972 48.9425 149.95 48.9711C149.928 48.9975 149.905 49.0283 149.88 49.0635L149.148 50.0502C149.11 50.1206 149.064 50.1723 149.009 50.2053C148.956 50.2383 148.878 50.2548 148.775 50.2548H148.366L149.336 48.9942C149.415 48.8622 149.52 48.7742 149.649 48.7302C149.48 48.7082 149.337 48.6686 149.22 48.6114C149.104 48.5542 149.008 48.4871 148.933 48.4101C148.861 48.3309 148.808 48.244 148.775 48.1494C148.742 48.0548 148.725 47.9591 148.725 47.8623C148.725 47.7479 148.747 47.6335 148.791 47.5191C148.838 47.4047 148.91 47.3035 149.009 47.2155C149.108 47.1253 149.236 47.0527 149.392 46.9977C149.55 46.9405 149.742 46.9119 149.966 46.9119H151.105Z" fill="white"/>
<path d="M155.089 49.4496C155.197 49.5948 155.315 49.6971 155.442 49.7565C155.57 49.8159 155.713 49.8456 155.871 49.8456C156.184 49.8456 156.423 49.7345 156.591 49.5123C156.758 49.2901 156.841 48.9733 156.841 48.5619C156.841 48.3441 156.822 48.1571 156.782 48.0009C156.745 47.8447 156.69 47.7171 156.617 47.6181C156.544 47.5169 156.455 47.4432 156.35 47.397C156.244 47.3508 156.124 47.3277 155.99 47.3277C155.799 47.3277 155.63 47.3717 155.485 47.4597C155.342 47.5477 155.21 47.672 155.089 47.8326V49.4496ZM155.059 47.43C155.2 47.2562 155.363 47.1165 155.548 47.0109C155.733 46.9053 155.944 46.8525 156.181 46.8525C156.375 46.8525 156.55 46.8899 156.706 46.9647C156.862 47.0373 156.995 47.1462 157.105 47.2914C157.215 47.4344 157.3 47.6126 157.36 47.826C157.419 48.0394 157.449 48.2847 157.449 48.5619C157.449 48.8083 157.416 49.0382 157.35 49.2516C157.284 49.4628 157.188 49.6465 157.063 49.8027C156.939 49.9567 156.788 50.0788 156.607 50.169C156.429 50.257 156.228 50.301 156.003 50.301C155.799 50.301 155.623 50.2669 155.475 50.1987C155.33 50.1283 155.201 50.0315 155.089 49.9083V51.3867H154.498V46.9119H154.852C154.935 46.9119 154.987 46.9526 155.007 47.034L155.059 47.43Z" fill="white"/>
<path d="M160.814 48.2187C160.814 48.0823 160.794 47.958 160.755 47.8458C160.717 47.7314 160.661 47.6335 160.586 47.5521C160.514 47.4685 160.425 47.4047 160.319 47.3607C160.213 47.3145 160.093 47.2914 159.959 47.2914C159.678 47.2914 159.454 47.3739 159.289 47.5389C159.127 47.7017 159.025 47.9283 158.986 48.2187H160.814ZM161.289 49.7862C161.217 49.8742 161.13 49.9512 161.028 50.0172C160.927 50.081 160.818 50.1338 160.702 50.1756C160.587 50.2174 160.469 50.2482 160.345 50.268C160.222 50.29 160.1 50.301 159.979 50.301C159.748 50.301 159.535 50.2625 159.339 50.1855C159.145 50.1063 158.977 49.9919 158.834 49.8423C158.693 49.6905 158.583 49.5035 158.504 49.2813C158.425 49.0591 158.385 48.8039 158.385 48.5157C158.385 48.2825 158.42 48.0647 158.491 47.8623C158.563 47.6599 158.667 47.485 158.801 47.3376C158.935 47.188 159.099 47.0714 159.293 46.9878C159.486 46.902 159.704 46.8591 159.946 46.8591C160.146 46.8591 160.331 46.8932 160.5 46.9614C160.672 47.0274 160.819 47.1242 160.943 47.2518C161.068 47.3772 161.166 47.5334 161.236 47.7204C161.307 47.9052 161.342 48.1164 161.342 48.354C161.342 48.4464 161.332 48.508 161.312 48.5388C161.292 48.5696 161.255 48.585 161.2 48.585H158.966C158.973 48.7962 159.001 48.9799 159.052 49.1361C159.105 49.2923 159.177 49.4232 159.27 49.5288C159.362 49.6322 159.472 49.7103 159.6 49.7631C159.727 49.8137 159.87 49.839 160.029 49.839C160.176 49.839 160.302 49.8225 160.408 49.7895C160.516 49.7543 160.608 49.7169 160.685 49.6773C160.762 49.6377 160.826 49.6014 160.877 49.5684C160.929 49.5332 160.975 49.5156 161.012 49.5156C161.06 49.5156 161.098 49.5343 161.124 49.5717L161.289 49.7862Z" fill="white"/>
<path d="M164.775 47.5059C164.757 47.5301 164.74 47.5488 164.722 47.562C164.705 47.5752 164.68 47.5818 164.65 47.5818C164.617 47.5818 164.58 47.5686 164.541 47.5422C164.501 47.5136 164.452 47.4828 164.392 47.4498C164.335 47.4168 164.264 47.3871 164.178 47.3607C164.094 47.3321 163.991 47.3178 163.868 47.3178C163.702 47.3178 163.557 47.3475 163.432 47.4069C163.307 47.4641 163.201 47.5477 163.115 47.6577C163.031 47.7677 162.968 47.9008 162.924 48.057C162.882 48.2132 162.861 48.3881 162.861 48.5817C162.861 48.7841 162.884 48.9645 162.93 49.1229C162.977 49.2791 163.041 49.4111 163.125 49.5189C163.211 49.6245 163.313 49.7059 163.432 49.7631C163.553 49.8181 163.688 49.8456 163.838 49.8456C163.981 49.8456 164.099 49.8291 164.191 49.7961C164.283 49.7609 164.359 49.7224 164.419 49.6806C164.48 49.6388 164.531 49.6014 164.57 49.5684C164.612 49.5332 164.653 49.5156 164.693 49.5156C164.741 49.5156 164.778 49.5343 164.805 49.5717L164.97 49.7862C164.897 49.8764 164.815 49.9534 164.722 50.0172C164.63 50.081 164.53 50.1349 164.422 50.1789C164.316 50.2207 164.205 50.2515 164.089 50.2713C163.972 50.2911 163.853 50.301 163.732 50.301C163.523 50.301 163.328 50.2625 163.148 50.1855C162.97 50.1085 162.815 49.9974 162.683 49.8522C162.551 49.7048 162.447 49.5244 162.373 49.311C162.298 49.0976 162.26 48.8545 162.26 48.5817C162.26 48.3331 162.294 48.1032 162.363 47.892C162.433 47.6808 162.534 47.4993 162.666 47.3475C162.8 47.1935 162.964 47.0736 163.158 46.9878C163.354 46.902 163.578 46.8591 163.831 46.8591C164.067 46.8591 164.273 46.8976 164.452 46.9746C164.632 47.0494 164.792 47.1561 164.93 47.2947L164.775 47.5059Z" fill="white"/>
<path d="M168.764 47.3607H167.48V50.2548H166.893V47.3607H165.609V46.9119H168.764V47.3607Z" fill="white"/>
<path d="M171.488 48.75C171.218 48.7588 170.987 48.7808 170.795 48.816C170.606 48.849 170.451 48.893 170.33 48.948C170.211 49.003 170.124 49.0679 170.069 49.1427C170.017 49.2175 169.99 49.3011 169.99 49.3935C169.99 49.4815 170.005 49.5574 170.033 49.6212C170.062 49.685 170.1 49.7378 170.149 49.7796C170.199 49.8192 170.257 49.8489 170.323 49.8687C170.392 49.8863 170.464 49.8951 170.541 49.8951C170.645 49.8951 170.739 49.8852 170.825 49.8654C170.911 49.8434 170.991 49.8126 171.066 49.773C171.143 49.7334 171.216 49.6861 171.284 49.6311C171.354 49.5761 171.422 49.5134 171.488 49.443V48.75ZM169.591 47.3838C169.776 47.2056 169.975 47.0725 170.188 46.9845C170.402 46.8965 170.638 46.8525 170.898 46.8525C171.085 46.8525 171.251 46.8833 171.396 46.9449C171.541 47.0065 171.663 47.0923 171.762 47.2023C171.861 47.3123 171.936 47.4454 171.987 47.6016C172.037 47.7578 172.063 47.9294 172.063 48.1164V50.2548H171.802C171.745 50.2548 171.701 50.246 171.67 50.2284C171.639 50.2086 171.615 50.1712 171.597 50.1162L171.531 49.7994C171.443 49.8808 171.357 49.9534 171.274 50.0172C171.19 50.0788 171.102 50.1316 171.01 50.1756C170.917 50.2174 170.818 50.2493 170.713 50.2713C170.609 50.2955 170.494 50.3076 170.366 50.3076C170.237 50.3076 170.115 50.29 170 50.2548C169.886 50.2174 169.786 50.1624 169.7 50.0898C169.616 50.0172 169.549 49.9259 169.498 49.8159C169.45 49.7037 169.426 49.5717 169.426 49.4199C169.426 49.2879 169.462 49.1614 169.535 49.0404C169.607 48.9172 169.725 48.8083 169.888 48.7137C170.051 48.6191 170.263 48.5421 170.525 48.4827C170.787 48.4211 171.108 48.3859 171.488 48.3771V48.1164C171.488 47.8568 171.432 47.661 171.32 47.529C171.208 47.3948 171.044 47.3277 170.828 47.3277C170.683 47.3277 170.561 47.3464 170.462 47.3838C170.365 47.419 170.281 47.4597 170.208 47.5059C170.138 47.5499 170.076 47.5906 170.023 47.628C169.973 47.6632 169.922 47.6808 169.871 47.6808C169.832 47.6808 169.798 47.6709 169.769 47.6511C169.74 47.6291 169.716 47.6027 169.697 47.5719L169.591 47.3838Z" fill="white"/>
<path d="M174.626 49.8423C174.846 49.8423 175.02 49.7917 175.147 49.6905C175.275 49.5871 175.339 49.4463 175.339 49.2681C175.339 49.1889 175.327 49.1174 175.303 49.0536C175.278 48.9876 175.239 48.9304 175.184 48.882C175.129 48.8336 175.055 48.7962 174.963 48.7698C174.872 48.7434 174.761 48.7302 174.629 48.7302H173.907V49.8423H174.626ZM173.907 47.3079V48.3573H174.55C174.647 48.3573 174.736 48.3441 174.817 48.3177C174.901 48.2891 174.973 48.2506 175.032 48.2022C175.091 48.1516 175.138 48.0922 175.171 48.024C175.204 47.9536 175.22 47.8766 175.22 47.793C175.22 47.7314 175.209 47.672 175.187 47.6148C175.165 47.5554 175.128 47.5037 175.075 47.4597C175.022 47.4135 174.953 47.3772 174.867 47.3508C174.781 47.3222 174.676 47.3079 174.55 47.3079H173.907ZM174.567 46.9119C174.773 46.9119 174.951 46.9328 175.098 46.9746C175.245 47.0164 175.366 47.0736 175.461 47.1462C175.556 47.2166 175.625 47.3002 175.669 47.397C175.713 47.4938 175.735 47.5972 175.735 47.7072C175.735 47.7798 175.725 47.8557 175.705 47.9349C175.685 48.0141 175.65 48.09 175.6 48.1626C175.551 48.2352 175.484 48.3012 175.398 48.3606C175.315 48.4178 175.209 48.4629 175.081 48.4959C175.337 48.5399 175.534 48.629 175.672 48.7632C175.811 48.8952 175.88 49.0701 175.88 49.2879C175.88 49.4507 175.847 49.5926 175.781 49.7136C175.717 49.8324 175.628 49.9325 175.514 50.0139C175.402 50.0953 175.27 50.1558 175.118 50.1954C174.966 50.235 174.803 50.2548 174.629 50.2548H173.342V46.9119H174.567Z" fill="white"/>
<path d="M177.592 49.4496C177.7 49.5948 177.818 49.6971 177.945 49.7565C178.073 49.8159 178.216 49.8456 178.374 49.8456C178.687 49.8456 178.927 49.7345 179.094 49.5123C179.261 49.2901 179.345 48.9733 179.345 48.5619C179.345 48.3441 179.325 48.1571 179.285 48.0009C179.248 47.8447 179.193 47.7171 179.12 47.6181C179.048 47.5169 178.958 47.4432 178.853 47.397C178.747 47.3508 178.627 47.3277 178.493 47.3277C178.302 47.3277 178.133 47.3717 177.988 47.4597C177.845 47.5477 177.713 47.672 177.592 47.8326V49.4496ZM177.563 47.43C177.703 47.2562 177.866 47.1165 178.051 47.0109C178.236 46.9053 178.447 46.8525 178.685 46.8525C178.878 46.8525 179.053 46.8899 179.209 46.9647C179.365 47.0373 179.499 47.1462 179.609 47.2914C179.719 47.4344 179.803 47.6126 179.863 47.826C179.922 48.0394 179.952 48.2847 179.952 48.5619C179.952 48.8083 179.919 49.0382 179.853 49.2516C179.787 49.4628 179.691 49.6465 179.566 49.8027C179.442 49.9567 179.291 50.0788 179.11 50.169C178.932 50.257 178.731 50.301 178.506 50.301C178.302 50.301 178.126 50.2669 177.978 50.1987C177.833 50.1283 177.704 50.0315 177.592 49.9083V51.3867H177.002V46.9119H177.355C177.438 46.9119 177.49 46.9526 177.51 47.034L177.563 47.43Z" fill="white"/>
<path d="M182.891 48.75C182.621 48.7588 182.39 48.7808 182.198 48.816C182.009 48.849 181.854 48.893 181.733 48.948C181.614 49.003 181.527 49.0679 181.472 49.1427C181.42 49.2175 181.393 49.3011 181.393 49.3935C181.393 49.4815 181.408 49.5574 181.436 49.6212C181.465 49.685 181.503 49.7378 181.552 49.7796C181.602 49.8192 181.661 49.8489 181.727 49.8687C181.795 49.8863 181.867 49.8951 181.944 49.8951C182.048 49.8951 182.142 49.8852 182.228 49.8654C182.314 49.8434 182.394 49.8126 182.469 49.773C182.546 49.7334 182.619 49.6861 182.687 49.6311C182.757 49.5761 182.825 49.5134 182.891 49.443V48.75ZM180.994 47.3838C181.179 47.2056 181.378 47.0725 181.591 46.9845C181.805 46.8965 182.041 46.8525 182.301 46.8525C182.488 46.8525 182.654 46.8833 182.799 46.9449C182.944 47.0065 183.066 47.0923 183.165 47.2023C183.264 47.3123 183.339 47.4454 183.39 47.6016C183.44 47.7578 183.466 47.9294 183.466 48.1164V50.2548H183.205C183.148 50.2548 183.104 50.246 183.073 50.2284C183.042 50.2086 183.018 50.1712 183 50.1162L182.934 49.7994C182.846 49.8808 182.761 49.9534 182.677 50.0172C182.593 50.0788 182.505 50.1316 182.413 50.1756C182.321 50.2174 182.222 50.2493 182.116 50.2713C182.013 50.2955 181.897 50.3076 181.769 50.3076C181.64 50.3076 181.518 50.29 181.403 50.2548C181.289 50.2174 181.189 50.1624 181.103 50.0898C181.019 50.0172 180.952 49.9259 180.902 49.8159C180.853 49.7037 180.829 49.5717 180.829 49.4199C180.829 49.2879 180.865 49.1614 180.938 49.0404C181.01 48.9172 181.128 48.8083 181.291 48.7137C181.454 48.6191 181.666 48.5421 181.928 48.4827C182.19 48.4211 182.511 48.3859 182.891 48.3771V48.1164C182.891 47.8568 182.835 47.661 182.723 47.529C182.611 47.3948 182.447 47.3277 182.231 47.3277C182.086 47.3277 181.964 47.3464 181.865 47.3838C181.768 47.419 181.684 47.4597 181.611 47.5059C181.541 47.5499 181.479 47.5906 181.426 47.628C181.376 47.6632 181.325 47.6808 181.274 47.6808C181.235 47.6808 181.201 47.6709 181.172 47.6511C181.144 47.6291 181.119 47.6027 181.1 47.5719L180.994 47.3838Z" fill="white"/>
<path d="M188.141 49.8093V51.225C188.141 51.2822 188.125 51.3262 188.092 51.357C188.061 51.39 188.02 51.4065 187.97 51.4065H187.61V50.2548H184.745V46.9119H185.336V49.8093H186.94V46.9119H187.531V49.8093H188.141Z" fill="white"/>
<path d="M191.988 46.9119V50.2548H191.4V47.9844C191.4 47.9404 191.403 47.8931 191.407 47.8425C191.411 47.7919 191.417 47.7413 191.423 47.6907C191.404 47.7347 191.384 47.7754 191.364 47.8128C191.344 47.8502 191.323 47.8843 191.301 47.9151L189.688 50.1096C189.663 50.1448 189.633 50.1789 189.595 50.2119C189.56 50.2427 189.52 50.2581 189.476 50.2581H189.12V46.9152H189.711V49.1856C189.711 49.2274 189.709 49.2736 189.704 49.3242C189.7 49.3726 189.694 49.4221 189.688 49.4727C189.707 49.4309 189.727 49.3924 189.747 49.3572C189.767 49.3198 189.787 49.2857 189.806 49.2549L191.42 47.0604C191.444 47.0252 191.475 46.9922 191.513 46.9614C191.55 46.9284 191.591 46.9119 191.635 46.9119H191.988Z" fill="white"/>
<path d="M195.06 48.4728V47.3079H194.499C194.374 47.3079 194.268 47.3266 194.182 47.364C194.097 47.3992 194.027 47.4454 193.975 47.5026C193.924 47.5576 193.888 47.6203 193.866 47.6907C193.844 47.7589 193.833 47.8271 193.833 47.8953C193.833 48.0757 193.899 48.2176 194.031 48.321C194.163 48.4222 194.343 48.4728 194.572 48.4728H195.06ZM195.621 46.9119V50.2548H195.06V48.8457H194.803C194.741 48.8457 194.69 48.8512 194.648 48.8622C194.608 48.871 194.573 48.8842 194.542 48.9018C194.514 48.9194 194.488 48.9425 194.466 48.9711C194.444 48.9975 194.421 49.0283 194.397 49.0635L193.664 50.0502C193.627 50.1206 193.581 50.1723 193.526 50.2053C193.473 50.2383 193.395 50.2548 193.291 50.2548H192.882L193.852 48.9942C193.932 48.8622 194.036 48.7742 194.166 48.7302C193.997 48.7082 193.854 48.6686 193.737 48.6114C193.62 48.5542 193.525 48.4871 193.45 48.4101C193.377 48.3309 193.324 48.244 193.291 48.1494C193.258 48.0548 193.242 47.9591 193.242 47.8623C193.242 47.7479 193.264 47.6335 193.308 47.5191C193.354 47.4047 193.427 47.3035 193.526 47.2155C193.625 47.1253 193.752 47.0527 193.909 46.9977C194.067 46.9405 194.258 46.9119 194.483 46.9119H195.621Z" fill="white"/>
<path d="M200.299 49.8423C200.519 49.8423 200.692 49.7917 200.82 49.6905C200.948 49.5871 201.011 49.4463 201.011 49.2681C201.011 49.1889 200.999 49.1174 200.975 49.0536C200.951 48.9876 200.911 48.9304 200.856 48.882C200.801 48.8336 200.728 48.7962 200.635 48.7698C200.545 48.7434 200.434 48.7302 200.302 48.7302H199.579V49.8423H200.299ZM199.579 47.3079V48.3573H200.223C200.32 48.3573 200.409 48.3441 200.49 48.3177C200.574 48.2891 200.645 48.2506 200.705 48.2022C200.764 48.1516 200.81 48.0922 200.843 48.024C200.876 47.9536 200.893 47.8766 200.893 47.793C200.893 47.7314 200.882 47.672 200.86 47.6148C200.838 47.5554 200.8 47.5037 200.747 47.4597C200.695 47.4135 200.625 47.3772 200.54 47.3508C200.454 47.3222 200.348 47.3079 200.223 47.3079H199.579ZM200.239 46.9119C200.446 46.9119 200.623 46.9328 200.771 46.9746C200.918 47.0164 201.039 47.0736 201.133 47.1462C201.228 47.2166 201.297 47.3002 201.341 47.397C201.385 47.4938 201.407 47.5972 201.407 47.7072C201.407 47.7798 201.398 47.8557 201.378 47.9349C201.358 48.0141 201.323 48.09 201.272 48.1626C201.224 48.2352 201.157 48.3012 201.071 48.3606C200.987 48.4178 200.882 48.4629 200.754 48.4959C201.009 48.5399 201.206 48.629 201.345 48.7632C201.483 48.8952 201.553 49.0701 201.553 49.2879C201.553 49.4507 201.52 49.5926 201.454 49.7136C201.39 49.8324 201.301 49.9325 201.186 50.0139C201.074 50.0953 200.942 50.1558 200.79 50.1954C200.639 50.235 200.476 50.2548 200.302 50.2548H199.015V46.9119H200.239Z" fill="white"/>
<path d="M204.486 48.75C204.215 48.7588 203.984 48.7808 203.793 48.816C203.604 48.849 203.449 48.893 203.328 48.948C203.209 49.003 203.122 49.0679 203.067 49.1427C203.014 49.2175 202.988 49.3011 202.988 49.3935C202.988 49.4815 203.002 49.5574 203.031 49.6212C203.059 49.685 203.098 49.7378 203.146 49.7796C203.197 49.8192 203.255 49.8489 203.321 49.8687C203.389 49.8863 203.462 49.8951 203.539 49.8951C203.642 49.8951 203.737 49.8852 203.823 49.8654C203.908 49.8434 203.989 49.8126 204.063 49.773C204.14 49.7334 204.213 49.6861 204.281 49.6311C204.352 49.5761 204.42 49.5134 204.486 49.443V48.75ZM202.588 47.3838C202.773 47.2056 202.972 47.0725 203.186 46.9845C203.399 46.8965 203.636 46.8525 203.895 46.8525C204.082 46.8525 204.248 46.8833 204.393 46.9449C204.539 47.0065 204.661 47.0923 204.76 47.2023C204.859 47.3123 204.934 47.4454 204.984 47.6016C205.035 47.7578 205.06 47.9294 205.06 48.1164V50.2548H204.799C204.742 50.2548 204.698 50.246 204.667 50.2284C204.637 50.2086 204.612 50.1712 204.595 50.1162L204.529 49.7994C204.441 49.8808 204.355 49.9534 204.271 50.0172C204.188 50.0788 204.1 50.1316 204.007 50.1756C203.915 50.2174 203.816 50.2493 203.71 50.2713C203.607 50.2955 203.491 50.3076 203.364 50.3076C203.234 50.3076 203.112 50.29 202.998 50.2548C202.883 50.2174 202.783 50.1624 202.697 50.0898C202.614 50.0172 202.547 49.9259 202.496 49.8159C202.448 49.7037 202.423 49.5717 202.423 49.4199C202.423 49.2879 202.46 49.1614 202.532 49.0404C202.605 48.9172 202.723 48.8083 202.885 48.7137C203.048 48.6191 203.26 48.5421 203.522 48.4827C203.784 48.4211 204.105 48.3859 204.486 48.3771V48.1164C204.486 47.8568 204.43 47.661 204.318 47.529C204.205 47.3948 204.041 47.3277 203.826 47.3277C203.681 47.3277 203.559 47.3464 203.46 47.3838C203.363 47.419 203.278 47.4597 203.205 47.5059C203.135 47.5499 203.073 47.5906 203.021 47.628C202.97 47.6632 202.919 47.6808 202.869 47.6808C202.829 47.6808 202.795 47.6709 202.767 47.6511C202.738 47.6291 202.714 47.6027 202.694 47.5719L202.588 47.3838Z" fill="white"/>
<path d="M209.125 46.9119V50.2548H208.534V48.6906H206.93V50.2548H206.34V46.9119H206.93V48.2451H208.534V46.9119H209.125Z" fill="white"/>
<path d="M213.229 46.9119V50.2548H212.638V48.6906H211.034V50.2548H210.444V46.9119H211.034V48.2451H212.638V46.9119H213.229Z" fill="white"/>
<path d="M218.948 47.5059C218.93 47.5301 218.913 47.5488 218.895 47.562C218.877 47.5752 218.853 47.5818 218.822 47.5818C218.789 47.5818 218.753 47.5686 218.714 47.5422C218.674 47.5136 218.624 47.4828 218.565 47.4498C218.508 47.4168 218.436 47.3871 218.351 47.3607C218.267 47.3321 218.164 47.3178 218.04 47.3178C217.875 47.3178 217.73 47.3475 217.605 47.4069C217.479 47.4641 217.374 47.5477 217.288 47.6577C217.204 47.7677 217.141 47.9008 217.097 48.057C217.055 48.2132 217.034 48.3881 217.034 48.5817C217.034 48.7841 217.057 48.9645 217.103 49.1229C217.149 49.2791 217.214 49.4111 217.298 49.5189C217.384 49.6245 217.486 49.7059 217.605 49.7631C217.726 49.8181 217.861 49.8456 218.011 49.8456C218.154 49.8456 218.271 49.8291 218.364 49.7961C218.456 49.7609 218.532 49.7224 218.591 49.6806C218.653 49.6388 218.704 49.6014 218.743 49.5684C218.785 49.5332 218.826 49.5156 218.865 49.5156C218.914 49.5156 218.951 49.5343 218.978 49.5717L219.143 49.7862C219.07 49.8764 218.987 49.9534 218.895 50.0172C218.803 50.081 218.703 50.1349 218.595 50.1789C218.489 50.2207 218.378 50.2515 218.261 50.2713C218.145 50.2911 218.026 50.301 217.905 50.301C217.696 50.301 217.501 50.2625 217.321 50.1855C217.143 50.1085 216.988 49.9974 216.856 49.8522C216.724 49.7048 216.62 49.5244 216.545 49.311C216.471 49.0976 216.433 48.8545 216.433 48.5817C216.433 48.3331 216.467 48.1032 216.536 47.892C216.606 47.6808 216.707 47.4993 216.839 47.3475C216.973 47.1935 217.137 47.0736 217.331 46.9878C217.527 46.902 217.751 46.8591 218.004 46.8591C218.239 46.8591 218.446 46.8976 218.624 46.9746C218.805 47.0494 218.964 47.1561 219.103 47.2947L218.948 47.5059Z" fill="white"/>
<path d="M225.024 49.6971C225.087 49.6971 225.138 49.7158 225.175 49.7532C225.213 49.7906 225.231 49.839 225.231 49.8984V50.2548H222.077V50.0535C222.077 50.0117 222.085 49.9688 222.103 49.9248C222.121 49.8808 222.148 49.8401 222.186 49.8027L223.7 48.2814C223.826 48.1538 223.94 48.0317 224.043 47.9151C224.147 47.7963 224.235 47.6775 224.307 47.5587C224.38 47.4399 224.436 47.32 224.476 47.199C224.515 47.0758 224.535 46.9449 224.535 46.8063C224.535 46.6677 224.513 46.5467 224.469 46.4433C224.425 46.3377 224.365 46.2508 224.288 46.1826C224.213 46.1144 224.124 46.0638 224.02 46.0308C223.917 45.9956 223.806 45.978 223.687 45.978C223.566 45.978 223.455 45.9956 223.354 46.0308C223.253 46.066 223.162 46.1155 223.083 46.1793C223.006 46.2409 222.941 46.3146 222.888 46.4004C222.836 46.4862 222.798 46.5808 222.776 46.6842C222.75 46.7612 222.714 46.8129 222.667 46.8393C222.623 46.8635 222.561 46.8701 222.479 46.8591L222.172 46.8063C222.203 46.5907 222.263 46.4004 222.351 46.2354C222.441 46.0682 222.553 45.9285 222.687 45.8163C222.824 45.7041 222.979 45.6194 223.152 45.5622C223.326 45.5028 223.514 45.4731 223.717 45.4731C223.917 45.4731 224.104 45.5028 224.278 45.5622C224.452 45.6216 224.602 45.7085 224.73 45.8229C224.857 45.9351 224.958 46.0726 225.03 46.2354C225.103 46.3982 225.139 46.583 225.139 46.7898C225.139 46.9658 225.113 47.1297 225.06 47.2815C225.007 47.4311 224.936 47.5741 224.845 47.7105C224.755 47.8469 224.651 47.98 224.532 48.1098C224.415 48.2396 224.291 48.3705 224.159 48.5025L222.912 49.7763C223 49.7521 223.089 49.7334 223.179 49.7202C223.269 49.7048 223.356 49.6971 223.44 49.6971H225.024Z" fill="white"/>
<path d="M229.61 47.892C229.61 48.3056 229.565 48.6642 229.475 48.9678C229.387 49.2692 229.266 49.5189 229.112 49.7169C228.958 49.9149 228.775 50.0623 228.564 50.1591C228.355 50.2559 228.13 50.3043 227.891 50.3043C227.649 50.3043 227.423 50.2559 227.214 50.1591C227.007 50.0623 226.827 49.9149 226.673 49.7169C226.519 49.5189 226.398 49.2692 226.31 48.9678C226.222 48.6642 226.178 48.3056 226.178 47.892C226.178 47.4784 226.222 47.1198 226.31 46.8162C226.398 46.5126 226.519 46.2618 226.673 46.0638C226.827 45.8636 227.007 45.7151 227.214 45.6183C227.423 45.5215 227.649 45.4731 227.891 45.4731C228.13 45.4731 228.355 45.5215 228.564 45.6183C228.775 45.7151 228.958 45.8636 229.112 46.0638C229.266 46.2618 229.387 46.5126 229.475 46.8162C229.565 47.1198 229.61 47.4784 229.61 47.892ZM228.999 47.892C228.999 47.5312 228.969 47.2287 228.907 46.9845C228.848 46.7381 228.766 46.5401 228.663 46.3905C228.562 46.2409 228.444 46.1342 228.31 46.0704C228.176 46.0044 228.036 45.9714 227.891 45.9714C227.745 45.9714 227.606 46.0044 227.472 46.0704C227.337 46.1342 227.22 46.2409 227.118 46.3905C227.017 46.5401 226.936 46.7381 226.874 46.9845C226.815 47.2287 226.785 47.5312 226.785 47.892C226.785 48.2528 226.815 48.5553 226.874 48.7995C226.936 49.0437 227.017 49.2406 227.118 49.3902C227.22 49.5398 227.337 49.6476 227.472 49.7136C227.606 49.7774 227.745 49.8093 227.891 49.8093C228.036 49.8093 228.176 49.7774 228.31 49.7136C228.444 49.6476 228.562 49.5398 228.663 49.3902C228.766 49.2406 228.848 49.0437 228.907 48.7995C228.969 48.5553 228.999 48.2528 228.999 47.892Z" fill="white"/>
<path d="M233.824 47.892C233.824 48.3056 233.778 48.6642 233.688 48.9678C233.6 49.2692 233.479 49.5189 233.325 49.7169C233.171 49.9149 232.989 50.0623 232.777 50.1591C232.568 50.2559 232.344 50.3043 232.104 50.3043C231.862 50.3043 231.637 50.2559 231.428 50.1591C231.221 50.0623 231.041 49.9149 230.887 49.7169C230.733 49.5189 230.612 49.2692 230.524 48.9678C230.436 48.6642 230.392 48.3056 230.392 47.892C230.392 47.4784 230.436 47.1198 230.524 46.8162C230.612 46.5126 230.733 46.2618 230.887 46.0638C231.041 45.8636 231.221 45.7151 231.428 45.6183C231.637 45.5215 231.862 45.4731 232.104 45.4731C232.344 45.4731 232.568 45.5215 232.777 45.6183C232.989 45.7151 233.171 45.8636 233.325 46.0638C233.479 46.2618 233.6 46.5126 233.688 46.8162C233.778 47.1198 233.824 47.4784 233.824 47.892ZM233.213 47.892C233.213 47.5312 233.182 47.2287 233.121 46.9845C233.061 46.7381 232.98 46.5401 232.876 46.3905C232.775 46.2409 232.658 46.1342 232.523 46.0704C232.389 46.0044 232.249 45.9714 232.104 45.9714C231.959 45.9714 231.819 46.0044 231.685 46.0704C231.551 46.1342 231.433 46.2409 231.332 46.3905C231.231 46.5401 231.149 46.7381 231.088 46.9845C231.028 47.2287 230.999 47.5312 230.999 47.892C230.999 48.2528 231.028 48.5553 231.088 48.7995C231.149 49.0437 231.231 49.2406 231.332 49.3902C231.433 49.5398 231.551 49.6476 231.685 49.7136C231.819 49.7774 231.959 49.8093 232.104 49.8093C232.249 49.8093 232.389 49.7774 232.523 49.7136C232.658 49.6476 232.775 49.5398 232.876 49.3902C232.98 49.2406 233.061 49.0437 233.121 48.7995C233.182 48.5553 233.213 48.2528 233.213 47.892Z" fill="white"/>
<path d="M235.341 46.9152C235.341 47.0648 235.362 47.199 235.404 47.3178C235.448 47.4344 235.509 47.5334 235.588 47.6148C235.67 47.6962 235.768 47.7578 235.882 47.7996C235.999 47.8414 236.129 47.8623 236.272 47.8623C236.43 47.8623 236.57 47.837 236.691 47.7864C236.814 47.7336 236.917 47.6643 237.001 47.5785C237.084 47.4927 237.148 47.3937 237.192 47.2815C237.236 47.1693 237.258 47.0527 237.258 46.9317C237.258 46.7843 237.234 46.6512 237.186 46.5324C237.139 46.4114 237.075 46.3091 236.991 46.2255C236.907 46.1419 236.807 46.0781 236.691 46.0341C236.576 45.9879 236.45 45.9648 236.311 45.9648C236.166 45.9648 236.034 45.989 235.915 46.0374C235.796 46.0836 235.694 46.1485 235.608 46.2321C235.522 46.3157 235.456 46.4158 235.41 46.5324C235.364 46.649 235.341 46.7766 235.341 46.9152ZM236.714 48.3705C236.762 48.3067 236.807 48.2462 236.849 48.189C236.891 48.1318 236.93 48.0746 236.968 48.0174C236.847 48.1142 236.71 48.1879 236.559 48.2385C236.407 48.2891 236.246 48.3144 236.077 48.3144C235.899 48.3144 235.729 48.2847 235.569 48.2253C235.41 48.1659 235.271 48.079 235.15 47.9646C235.029 47.848 234.932 47.7061 234.859 47.5389C234.789 47.3695 234.754 47.1759 234.754 46.9581C234.754 46.7513 234.792 46.5577 234.869 46.3773C234.946 46.1969 235.054 46.0396 235.192 45.9054C235.331 45.7712 235.496 45.6656 235.687 45.5886C235.879 45.5116 236.089 45.4731 236.318 45.4731C236.544 45.4731 236.75 45.5105 236.935 45.5853C237.12 45.6601 237.278 45.7646 237.41 45.8988C237.542 46.033 237.643 46.1936 237.714 46.3806C237.786 46.5676 237.823 46.7744 237.823 47.001C237.823 47.1374 237.809 47.2672 237.783 47.3904C237.759 47.5114 237.722 47.6313 237.674 47.7501C237.628 47.8667 237.571 47.9833 237.502 48.0999C237.434 48.2143 237.357 48.332 237.271 48.453L236.12 50.1162C236.091 50.158 236.05 50.1921 235.998 50.2185C235.945 50.2427 235.884 50.2548 235.816 50.2548H235.275L236.714 48.3705Z" fill="white"/>
<path d="M241.254 47.3607H239.677V50.2548H239.086V46.9119H241.254V47.3607Z" fill="white"/>
<path d="M241.737 49.8918C241.737 49.8346 241.747 49.7807 241.767 49.7301C241.789 49.6795 241.818 49.6355 241.853 49.5981C241.89 49.5607 241.934 49.531 241.985 49.509C242.035 49.487 242.089 49.476 242.146 49.476C242.204 49.476 242.258 49.487 242.308 49.509C242.359 49.531 242.403 49.5607 242.44 49.5981C242.478 49.6355 242.507 49.6795 242.529 49.7301C242.551 49.7807 242.562 49.8346 242.562 49.8918C242.562 49.9512 242.551 50.0062 242.529 50.0568C242.507 50.1052 242.478 50.1481 242.44 50.1855C242.403 50.2229 242.359 50.2515 242.308 50.2713C242.258 50.2933 242.204 50.3043 242.146 50.3043C242.089 50.3043 242.035 50.2933 241.985 50.2713C241.934 50.2515 241.89 50.2229 241.853 50.1855C241.818 50.1481 241.789 50.1052 241.767 50.0568C241.747 50.0062 241.737 49.9512 241.737 49.8918Z" fill="white"/>
</svg>
