<svg width="24" height="24" viewBox="0 0 24 24" fill="none" xmlns="http://www.w3.org/2000/svg">
<path d="M18.4307 4.00115H5.56932C3.0449 4.00115 1 6.10309 1 8.69645V15.3036C1 17.8969 3.046 20 5.56932 20H18.4307C20.9551 20 23 17.8969 23 15.3036V8.69645C23 6.10309 20.954 4 18.4307 4V4.00115ZM15.3407 12.3207L9.3251 15.2703C9.28841 15.2887 9.24784 15.2971 9.20718 15.2948C9.16652 15.2925 9.12708 15.2795 9.09253 15.2571C9.05799 15.2347 9.02946 15.2036 9.0096 15.1666C8.98974 15.1297 8.9792 15.0881 8.97895 15.0458V8.96449C8.97895 8.78007 9.16966 8.65979 9.32951 8.74341L15.3462 11.8763C15.3863 11.8971 15.4199 11.9291 15.4433 11.9689C15.4666 12.0086 15.4786 12.0544 15.4781 12.1009C15.4775 12.1474 15.4643 12.1928 15.44 12.2319C15.4157 12.271 15.3813 12.301 15.3407 12.3207Z" fill="white"/>
</svg>
