<svg width="24" height="24" viewBox="0 0 24 24" fill="none" xmlns="http://www.w3.org/2000/svg">
<path fill-rule="evenodd" clip-rule="evenodd" d="M19.2222 22C20.7567 22 22 20.7567 22 19.2222V4.77778C22 3.24333 20.7567 2 19.2222 2H4.77778C3.24389 2 2 3.24333 2 4.77778V19.2222C2 20.7567 3.24389 22 4.77778 22H19.2222ZM18.6661 8.45833C18.6694 8.52778 18.6572 8.60556 18.6317 8.68945C18.4769 9.44027 17.1131 11.4382 16.7005 12.0426C16.6243 12.1542 16.5805 12.2183 16.5828 12.2183C16.5028 12.355 16.4494 12.4528 16.4444 12.5556C16.4394 12.6533 16.4789 12.7556 16.5828 12.9006C16.7378 13.1228 17.075 13.5317 17.4167 13.9444C18.0333 14.69 18.5278 15.4722 18.6356 15.7922C18.6583 15.8794 18.6683 15.9578 18.6667 16.0278C18.6589 16.3028 18.465 16.4444 18.1272 16.4444H16.6728C16.2897 16.4444 16.0886 16.1808 15.6787 15.6435C15.499 15.4078 15.2791 15.1195 14.9861 14.7778C14.1528 13.8056 13.7211 13.6667 13.5094 13.6667C13.2128 13.6667 13.1111 13.7406 13.1106 14.1856V15.8367C13.1106 16.2072 13.015 16.4444 12.0828 16.4444C10.5439 16.4444 8.80556 15.4028 7.48611 13.5972C5.66667 11.1072 5.33333 8.94167 5.33333 8.54111C5.33333 8.31889 5.40389 8.11111 5.82778 8.11111H7.29611C7.66333 8.11111 7.80444 8.27445 7.94556 8.70445C8.59722 10.8889 9.57056 12.5556 10.065 12.5556C10.2483 12.5556 10.3333 12.4667 10.3333 11.9778V9.965C10.2984 9.3245 10.0952 9.04527 9.94456 8.83835C9.85102 8.70983 9.77778 8.6092 9.77778 8.46722C9.77778 8.28889 9.89556 8.11111 10.1217 8.11111H12.7044C13.015 8.11111 13.1111 8.28889 13.1111 8.67444V11.555C13.1111 11.8811 13.3594 12 13.4578 12C13.4621 12 13.4665 12 13.4708 12C13.6494 12.0002 13.8214 12.0004 14.1522 11.6528C15.1972 10.4222 16.1039 8.55611 16.1039 8.55611C16.2028 8.33333 16.3722 8.11111 16.7394 8.11111H18.1939C18.5194 8.11111 18.6578 8.25722 18.6661 8.45833Z" fill="white"/>
</svg>
