<svg width="24" height="24" viewBox="0 0 24 24" fill="none" xmlns="http://www.w3.org/2000/svg">
<path d="M9.75139 14.2139C10.3431 14.8056 11.1456 15.138 11.9823 15.138C12.8191 15.138 13.6216 14.8056 14.2132 14.2139C14.8049 13.6222 15.1373 12.8198 15.1373 11.983C15.1373 11.1462 14.8049 10.3438 14.2132 9.75208C13.6216 9.1604 12.8191 8.828 11.9823 8.828C11.1456 8.828 10.3431 9.1604 9.75139 9.75208C9.15971 10.3438 8.82731 11.1462 8.82731 11.983C8.82731 12.8198 9.15971 13.6222 9.75139 14.2139Z" fill="white"/>
<path fill-rule="evenodd" clip-rule="evenodd" d="M7.947 2H16.017C17.5938 2.00159 19.1057 2.62862 20.2208 3.74353C21.3359 4.85844 21.9631 6.37015 21.965 7.947V16.017C21.9634 17.5938 21.3364 19.1057 20.2215 20.2208C19.1066 21.3359 17.5948 21.9631 16.018 21.965H7.948C6.37115 21.9634 4.85933 21.3364 3.74424 20.2215C2.62914 19.1066 2.00185 17.5948 2 16.018V7.948C2.00159 6.37115 2.62862 4.85933 3.74353 3.74424C4.85844 2.62914 6.37015 2.00185 7.947 2ZM18.3933 6.858C18.3933 7.54118 17.8395 8.095 17.1563 8.095C16.4731 8.095 15.9193 7.54118 15.9193 6.858C15.9193 6.17483 16.4731 5.621 17.1563 5.621C17.8395 5.621 18.3933 6.17483 18.3933 6.858ZM8.33421 8.33361C9.30184 7.36579 10.6137 6.82112 11.9823 6.819V6.82C13.3512 6.82132 14.6637 7.36551 15.632 8.3332C16.6003 9.30089 17.1452 10.6131 17.1473 11.982C17.1457 13.3511 16.6012 14.6637 15.6331 15.6317C14.665 16.5998 13.3524 17.1444 11.9833 17.146C10.6144 17.1441 9.30209 16.5995 8.33421 15.6314C7.36633 14.6633 6.8219 13.3509 6.82031 11.982C6.82216 10.6134 7.36658 9.30143 8.33421 8.33361Z" fill="white"/>
</svg>
