<svg width="24" height="24" viewBox="0 0 24 24" fill="none" xmlns="http://www.w3.org/2000/svg">
<path fill-rule="evenodd" clip-rule="evenodd" d="M11.25 20.0142C11.1148 20.0142 10.9837 20.0132 10.8565 20.0114L8.08211 22.7128C7.45214 23.3263 6.375 22.8918 6.375 22.0243V19.297C4.17375 18.3869 2.66581 16.5204 2.23333 14.0696C2.125 13.4557 2 12.4772 2 11.0071C2 9.53695 2.125 8.55845 2.23333 7.94456C2.77135 4.89568 4.97378 2.75109 8.10488 2.2272C8.73532 2.12172 9.74021 2 11.25 2H12.75C14.2598 2 15.2647 2.12172 15.8951 2.2272C19.0262 2.75109 21.2287 4.89568 21.7667 7.94456C21.875 8.55845 22 9.53695 22 11.0071C22 12.4772 21.875 13.4557 21.7667 14.0696C21.2287 17.1185 19.0262 19.2631 15.8951 19.787C15.2647 19.8925 14.2598 20.0142 12.75 20.0142H11.25ZM12.4783 6.6999C12.5189 6.703 12.5565 6.7061 12.5882 6.71075C14.8193 7.06891 15.8455 8.1713 16.1294 10.5166C16.1343 10.5564 16.1353 10.6053 16.1358 10.6565C16.1388 10.8401 16.145 11.2211 16.5371 11.2288H16.549C16.6724 11.2288 16.77 11.1901 16.8404 11.1136C16.9622 10.9808 16.9543 10.7828 16.9469 10.6236L16.9466 10.6156C16.9452 10.5795 16.9439 10.5453 16.9439 10.5151C16.9726 8.11703 14.9819 5.94171 12.6849 5.86109C12.675 5.86109 12.666 5.86109 12.6571 5.86264C12.6481 5.86383 12.639 5.86435 12.6299 5.86419C12.6086 5.86419 12.5837 5.86247 12.5566 5.8606L12.5486 5.86006L12.5447 5.85977C12.5099 5.85725 12.4703 5.85437 12.4297 5.85437C12.064 5.85437 11.9947 6.1257 11.9858 6.28747C11.9654 6.66113 12.3118 6.68749 12.4783 6.6999ZM12.9623 7.22058C14.4614 7.40988 15.6715 8.77727 15.6597 10.269C15.6598 10.2759 15.659 10.2822 15.6582 10.2891C15.6543 10.3159 15.6557 10.3558 15.6571 10.3982L15.6572 10.4006C15.6621 10.5539 15.6724 10.8725 15.3403 10.9256C15.3069 10.9307 15.2745 10.9333 15.245 10.9333C14.8886 10.9333 14.8682 10.5862 14.8584 10.4181L14.8583 10.417L14.8576 10.4056C14.8549 10.365 14.8525 10.3269 14.8475 10.2958C14.6259 8.89333 14.1725 8.39661 12.8253 8.08042C12.7942 8.07322 12.7576 8.06781 12.719 8.06211L12.7103 8.06082C12.5663 8.04019 12.387 8.0144 12.2853 7.86946C12.2249 7.78332 12.2047 7.67242 12.2259 7.54089C12.2475 7.40627 12.3295 7.17932 12.6371 7.17932C12.7138 7.18134 12.7902 7.18996 12.8656 7.20511C12.8999 7.21129 12.9324 7.21697 12.9623 7.22058ZM15.8796 13.4321C15.9266 13.4713 15.974 13.5099 16.0218 13.5478C16.3806 13.8336 16.8275 14.1897 16.5827 14.9102C16.3038 15.7324 15.3946 16.4539 14.6375 16.4539H14.6246C14.6111 16.4538 14.5976 16.4519 14.5845 16.4482C14.5607 16.4415 14.528 16.4338 14.4904 16.425C14.3789 16.3991 14.2268 16.3635 14.0816 16.2984C12.4723 15.5753 11.083 14.6135 9.95285 13.4388C8.79791 12.2387 7.88229 10.7844 7.23075 9.11657C7.0058 8.53979 6.99589 7.98524 7.20399 7.51286C7.41952 7.02446 7.84959 6.65441 8.4496 6.44407C8.67331 6.36046 8.91802 6.36119 9.14127 6.44613C9.6635 6.64615 10.9027 8.40904 10.9334 8.9946C10.9596 9.5109 10.5796 9.78017 10.375 9.92488C10.0153 10.1802 9.94889 10.4934 10.1535 10.973C10.5766 11.9648 11.3169 12.7163 12.3524 13.2062C12.4615 13.2621 12.5807 13.2933 12.7022 13.2977C12.8771 13.2977 13.0193 13.2078 13.1362 13.0227C13.4008 12.6057 13.7209 12.3938 14.0885 12.3938C14.361 12.3938 14.6494 12.508 14.9705 12.7431L15.148 12.8725C15.3915 13.05 15.6429 13.2333 15.8796 13.4321ZM12.8132 8.60543C12.6839 8.60853 12.4138 8.61576 12.3192 8.90209C12.2746 9.03646 12.2801 9.15223 12.3351 9.24784C12.4153 9.38738 12.5694 9.4308 12.7091 9.45457C13.217 9.53933 13.4781 9.83185 13.5301 10.3761C13.5544 10.6293 13.7184 10.8066 13.928 10.8066C13.9439 10.8066 13.9598 10.8055 13.9756 10.8035C14.2282 10.7725 14.3506 10.5787 14.3397 10.2277C14.3437 9.86183 14.1604 9.4463 13.8477 9.11553C13.5346 8.78373 13.157 8.59664 12.8132 8.60543Z" fill="white"/>
</svg>
