<svg width="144" height="106" viewBox="0 0 144 106" fill="none" xmlns="http://www.w3.org/2000/svg">
<path d="M69.0771 10.0676C70.6516 8.39155 73.3138 8.39152 74.8884 10.0675C76.2715 11.5398 78.5371 11.7449 80.1622 10.545L80.9057 9.99595C82.5948 8.74875 84.9902 9.2213 86.0791 11.0165C87.0542 12.6242 89.1091 13.2 90.7776 12.3332L92.4966 11.4402C94.1974 10.5566 96.2839 11.4193 96.8642 13.246C97.3925 14.9092 99.1929 15.8048 100.838 15.2226L103.376 14.3245C105.05 13.7325 106.821 14.92 106.909 16.6929C106.989 18.3278 108.518 19.4996 110.118 19.1529L113.139 18.4982C114.787 18.1411 116.253 19.6059 115.898 21.254C115.567 22.7872 116.822 24.1999 118.383 24.0522L121.465 23.7609C123.106 23.6058 124.28 25.312 123.549 26.7896C122.866 28.1708 123.85 29.7938 125.39 29.8271L128.118 29.8861C129.772 29.9219 130.664 31.8413 129.624 33.128C128.652 34.3326 129.365 36.1379 130.899 36.3513L132.941 36.6355C134.62 36.869 135.23 38.9799 133.934 40.0725C132.723 41.0938 133.163 43.0556 134.694 43.4625L135.84 43.767C137.547 44.2206 137.864 46.5065 136.345 47.4079C134.931 48.2467 135.084 50.34 136.604 50.9656L136.785 51.04C138.512 51.7507 138.512 54.1967 136.785 54.9074L136.604 54.9819C135.084 55.6075 134.932 57.7008 136.345 58.5396C137.865 59.4409 137.547 61.7268 135.84 62.1805L134.694 62.485C133.163 62.8919 132.723 64.8538 133.934 65.8751C135.23 66.9676 134.62 69.0785 132.942 69.3121L130.9 69.5963C129.366 69.8097 128.652 71.6151 129.625 72.8197C130.664 74.1064 129.773 76.0258 128.119 76.0616L125.391 76.1207C123.851 76.154 122.867 77.777 123.55 79.1582C124.281 80.6358 123.107 82.342 121.465 82.1869L118.384 81.8957C116.822 81.7482 115.568 83.1608 115.898 84.694C116.254 86.3422 114.788 87.807 113.14 87.45L110.119 86.7953C108.519 86.4487 106.99 87.6205 106.91 89.2554C106.822 91.0282 105.051 92.2159 103.378 91.6239L100.839 90.7258C99.194 90.1437 97.3936 91.0393 96.8653 92.7026C96.2851 94.5293 94.1986 95.392 92.4978 94.5085L90.7788 93.6155C89.1102 92.7488 87.0554 93.3247 86.0803 94.9324C84.9914 96.7276 82.596 97.2002 80.9069 95.9531L80.1634 95.4041C78.5383 94.2042 76.2727 94.4094 74.8896 95.8816C73.3151 97.5577 70.6529 97.5578 69.0783 95.8817C67.6952 94.4095 65.4296 94.2044 63.8045 95.4043L63.061 95.9533C61.3719 97.2005 58.9765 96.728 57.8876 94.9328C56.9125 93.3251 54.8576 92.7493 53.1891 93.6161L51.4701 94.5091C49.7693 95.3926 47.6828 94.53 47.1025 92.7033C46.5742 91.04 44.7738 90.1445 43.1286 90.7266L40.5902 91.6247C38.9169 92.2168 37.1458 91.0292 37.0582 89.2564C36.9774 87.6215 35.4488 86.4497 33.849 86.7964L30.8275 87.4511C29.1797 87.8082 27.7135 86.3434 28.0691 84.6952C28.3999 83.162 27.1451 81.7494 25.5836 81.897L22.5022 82.1883C20.861 82.3435 19.6866 80.6373 20.4174 79.1597C21.1005 77.7785 20.1168 76.1555 18.5762 76.1222L15.8484 76.0632C14.1948 76.0274 13.3031 74.108 14.3423 72.8213C15.3152 71.6167 14.6012 69.8113 13.0676 69.5979L11.0254 69.3138C9.34678 69.0802 8.73711 66.9694 10.0327 65.8768C11.2438 64.8555 10.8042 62.8936 9.27302 62.4868L8.12676 62.1823C6.41948 61.7286 6.10225 59.4428 7.62148 58.5414C9.03527 57.7026 8.88315 55.6093 7.36294 54.9837L7.18198 54.9092C5.45499 54.1985 5.45496 51.7526 7.18193 51.0419L7.36288 50.9674C8.88308 50.3417 9.03514 48.2485 7.62132 47.4097C6.10207 46.5083 6.41924 44.2225 8.1265 43.7688L9.27275 43.4642C10.8039 43.0574 11.2435 41.0955 10.0323 40.0742C8.73672 38.9816 9.34633 36.8708 11.0249 36.6372L13.0671 36.353C14.6008 36.1396 15.3147 34.3342 14.3418 33.1296C13.3025 31.8429 14.1942 29.9235 15.8477 29.8877L18.5756 29.8286C20.1161 29.7952 21.0998 28.1722 20.4166 26.7911C19.6858 25.3135 20.8602 23.6072 22.5013 23.7623L25.5828 24.0535C27.1443 24.2011 28.399 22.7885 28.0682 21.2553C27.7126 19.6071 29.1787 18.1423 30.8265 18.4993L33.848 19.154C35.4478 19.5006 36.9764 18.3288 37.0572 16.6938C37.1447 14.921 38.9158 13.7334 40.5892 14.3254L43.1275 15.2235C44.7727 15.8055 46.5731 14.9099 47.1014 13.2467C47.6816 11.42 49.7681 10.5573 51.4689 11.4408L53.1879 12.3337C54.8565 13.2005 56.9113 12.6246 57.8864 11.0169C58.9753 9.22167 61.3707 8.74905 63.0598 9.9962L63.8034 10.5452C65.4284 11.7451 67.694 11.5399 69.0771 10.0676Z" fill="url(#paint0_linear_1879_10583)"/>
<path d="M69.0771 10.0676C70.6516 8.39155 73.3138 8.39152 74.8884 10.0675C76.2715 11.5398 78.5371 11.7449 80.1622 10.545L80.9057 9.99595C82.5948 8.74875 84.9902 9.2213 86.0791 11.0165C87.0542 12.6242 89.1091 13.2 90.7776 12.3332L92.4966 11.4402C94.1974 10.5566 96.2839 11.4193 96.8642 13.246C97.3925 14.9092 99.1929 15.8048 100.838 15.2226L103.376 14.3245C105.05 13.7325 106.821 14.92 106.909 16.6929C106.989 18.3278 108.518 19.4996 110.118 19.1529L113.139 18.4982C114.787 18.1411 116.253 19.6059 115.898 21.254C115.567 22.7872 116.822 24.1999 118.383 24.0522L121.465 23.7609C123.106 23.6058 124.28 25.312 123.549 26.7896C122.866 28.1708 123.85 29.7938 125.39 29.8271L128.118 29.8861C129.772 29.9219 130.664 31.8413 129.624 33.128C128.652 34.3326 129.365 36.1379 130.899 36.3513L132.941 36.6355C134.62 36.869 135.23 38.9799 133.934 40.0725C132.723 41.0938 133.163 43.0556 134.694 43.4625L135.84 43.767C137.547 44.2206 137.864 46.5065 136.345 47.4079C134.931 48.2467 135.084 50.34 136.604 50.9656L136.785 51.04C138.512 51.7507 138.512 54.1967 136.785 54.9074L136.604 54.9819C135.084 55.6075 134.932 57.7008 136.345 58.5396C137.865 59.4409 137.547 61.7268 135.84 62.1805L134.694 62.485C133.163 62.8919 132.723 64.8538 133.934 65.8751C135.23 66.9676 134.62 69.0785 132.942 69.3121L130.9 69.5963C129.366 69.8097 128.652 71.6151 129.625 72.8197C130.664 74.1064 129.773 76.0258 128.119 76.0616L125.391 76.1207C123.851 76.154 122.867 77.777 123.55 79.1582C124.281 80.6358 123.107 82.342 121.465 82.1869L118.384 81.8957C116.822 81.7482 115.568 83.1608 115.898 84.694C116.254 86.3422 114.788 87.807 113.14 87.45L110.119 86.7953C108.519 86.4487 106.99 87.6205 106.91 89.2554C106.822 91.0282 105.051 92.2159 103.378 91.6239L100.839 90.7258C99.194 90.1437 97.3936 91.0393 96.8653 92.7026C96.2851 94.5293 94.1986 95.392 92.4978 94.5085L90.7788 93.6155C89.1102 92.7488 87.0554 93.3247 86.0803 94.9324C84.9914 96.7276 82.596 97.2002 80.9069 95.9531L80.1634 95.4041C78.5383 94.2042 76.2727 94.4094 74.8896 95.8816C73.3151 97.5577 70.6529 97.5578 69.0783 95.8817C67.6952 94.4095 65.4296 94.2044 63.8045 95.4043L63.061 95.9533C61.3719 97.2005 58.9765 96.728 57.8876 94.9328C56.9125 93.3251 54.8576 92.7493 53.1891 93.6161L51.4701 94.5091C49.7693 95.3926 47.6828 94.53 47.1025 92.7033C46.5742 91.04 44.7738 90.1445 43.1286 90.7266L40.5902 91.6247C38.9169 92.2168 37.1458 91.0292 37.0582 89.2564C36.9774 87.6215 35.4488 86.4497 33.849 86.7964L30.8275 87.4511C29.1797 87.8082 27.7135 86.3434 28.0691 84.6952C28.3999 83.162 27.1451 81.7494 25.5836 81.897L22.5022 82.1883C20.861 82.3435 19.6866 80.6373 20.4174 79.1597C21.1005 77.7785 20.1168 76.1555 18.5762 76.1222L15.8484 76.0632C14.1948 76.0274 13.3031 74.108 14.3423 72.8213C15.3152 71.6167 14.6012 69.8113 13.0676 69.5979L11.0254 69.3138C9.34678 69.0802 8.73711 66.9694 10.0327 65.8768C11.2438 64.8555 10.8042 62.8936 9.27302 62.4868L8.12676 62.1823C6.41948 61.7286 6.10225 59.4428 7.62148 58.5414C9.03527 57.7026 8.88315 55.6093 7.36294 54.9837L7.18198 54.9092C5.45499 54.1985 5.45496 51.7526 7.18193 51.0419L7.36288 50.9674C8.88308 50.3417 9.03514 48.2485 7.62132 47.4097C6.10207 46.5083 6.41924 44.2225 8.1265 43.7688L9.27275 43.4642C10.8039 43.0574 11.2435 41.0955 10.0323 40.0742C8.73672 38.9816 9.34633 36.8708 11.0249 36.6372L13.0671 36.353C14.6008 36.1396 15.3147 34.3342 14.3418 33.1296C13.3025 31.8429 14.1942 29.9235 15.8477 29.8877L18.5756 29.8286C20.1161 29.7952 21.0998 28.1722 20.4166 26.7911C19.6858 25.3135 20.8602 23.6072 22.5013 23.7623L25.5828 24.0535C27.1443 24.2011 28.399 22.7885 28.0682 21.2553C27.7126 19.6071 29.1787 18.1423 30.8265 18.4993L33.848 19.154C35.4478 19.5006 36.9764 18.3288 37.0572 16.6938C37.1447 14.921 38.9158 13.7334 40.5892 14.3254L43.1275 15.2235C44.7727 15.8055 46.5731 14.9099 47.1014 13.2467C47.6816 11.42 49.7681 10.5573 51.4689 11.4408L53.1879 12.3337C54.8565 13.2005 56.9113 12.6246 57.8864 11.0169C58.9753 9.22167 61.3707 8.74905 63.0598 9.9962L63.8034 10.5452C65.4284 11.7451 67.694 11.5399 69.0771 10.0676Z" fill="url(#paint1_radial_1879_10583)" fill-opacity="0.3"/>
<path d="M69.0771 10.0676C70.6516 8.39155 73.3138 8.39152 74.8884 10.0675C76.2715 11.5398 78.5371 11.7449 80.1622 10.545L80.9057 9.99595C82.5948 8.74875 84.9902 9.2213 86.0791 11.0165C87.0542 12.6242 89.1091 13.2 90.7776 12.3332L92.4966 11.4402C94.1974 10.5566 96.2839 11.4193 96.8642 13.246C97.3925 14.9092 99.1929 15.8048 100.838 15.2226L103.376 14.3245C105.05 13.7325 106.821 14.92 106.909 16.6929C106.989 18.3278 108.518 19.4996 110.118 19.1529L113.139 18.4982C114.787 18.1411 116.253 19.6059 115.898 21.254C115.567 22.7872 116.822 24.1999 118.383 24.0522L121.465 23.7609C123.106 23.6058 124.28 25.312 123.549 26.7896C122.866 28.1708 123.85 29.7938 125.39 29.8271L128.118 29.8861C129.772 29.9219 130.664 31.8413 129.624 33.128C128.652 34.3326 129.365 36.1379 130.899 36.3513L132.941 36.6355C134.62 36.869 135.23 38.9799 133.934 40.0725C132.723 41.0938 133.163 43.0556 134.694 43.4625L135.84 43.767C137.547 44.2206 137.864 46.5065 136.345 47.4079C134.931 48.2467 135.084 50.34 136.604 50.9656L136.785 51.04C138.512 51.7507 138.512 54.1967 136.785 54.9074L136.604 54.9819C135.084 55.6075 134.932 57.7008 136.345 58.5396C137.865 59.4409 137.547 61.7268 135.84 62.1805L134.694 62.485C133.163 62.8919 132.723 64.8538 133.934 65.8751C135.23 66.9676 134.62 69.0785 132.942 69.3121L130.9 69.5963C129.366 69.8097 128.652 71.6151 129.625 72.8197C130.664 74.1064 129.773 76.0258 128.119 76.0616L125.391 76.1207C123.851 76.154 122.867 77.777 123.55 79.1582C124.281 80.6358 123.107 82.342 121.465 82.1869L118.384 81.8957C116.822 81.7482 115.568 83.1608 115.898 84.694C116.254 86.3422 114.788 87.807 113.14 87.45L110.119 86.7953C108.519 86.4487 106.99 87.6205 106.91 89.2554C106.822 91.0282 105.051 92.2159 103.378 91.6239L100.839 90.7258C99.194 90.1437 97.3936 91.0393 96.8653 92.7026C96.2851 94.5293 94.1986 95.392 92.4978 94.5085L90.7788 93.6155C89.1102 92.7488 87.0554 93.3247 86.0803 94.9324C84.9914 96.7276 82.596 97.2002 80.9069 95.9531L80.1634 95.4041C78.5383 94.2042 76.2727 94.4094 74.8896 95.8816C73.3151 97.5577 70.6529 97.5578 69.0783 95.8817C67.6952 94.4095 65.4296 94.2044 63.8045 95.4043L63.061 95.9533C61.3719 97.2005 58.9765 96.728 57.8876 94.9328C56.9125 93.3251 54.8576 92.7493 53.1891 93.6161L51.4701 94.5091C49.7693 95.3926 47.6828 94.53 47.1025 92.7033C46.5742 91.04 44.7738 90.1445 43.1286 90.7266L40.5902 91.6247C38.9169 92.2168 37.1458 91.0292 37.0582 89.2564C36.9774 87.6215 35.4488 86.4497 33.849 86.7964L30.8275 87.4511C29.1797 87.8082 27.7135 86.3434 28.0691 84.6952C28.3999 83.162 27.1451 81.7494 25.5836 81.897L22.5022 82.1883C20.861 82.3435 19.6866 80.6373 20.4174 79.1597C21.1005 77.7785 20.1168 76.1555 18.5762 76.1222L15.8484 76.0632C14.1948 76.0274 13.3031 74.108 14.3423 72.8213C15.3152 71.6167 14.6012 69.8113 13.0676 69.5979L11.0254 69.3138C9.34678 69.0802 8.73711 66.9694 10.0327 65.8768C11.2438 64.8555 10.8042 62.8936 9.27302 62.4868L8.12676 62.1823C6.41948 61.7286 6.10225 59.4428 7.62148 58.5414C9.03527 57.7026 8.88315 55.6093 7.36294 54.9837L7.18198 54.9092C5.45499 54.1985 5.45496 51.7526 7.18193 51.0419L7.36288 50.9674C8.88308 50.3417 9.03514 48.2485 7.62132 47.4097C6.10207 46.5083 6.41924 44.2225 8.1265 43.7688L9.27275 43.4642C10.8039 43.0574 11.2435 41.0955 10.0323 40.0742C8.73672 38.9816 9.34633 36.8708 11.0249 36.6372L13.0671 36.353C14.6008 36.1396 15.3147 34.3342 14.3418 33.1296C13.3025 31.8429 14.1942 29.9235 15.8477 29.8877L18.5756 29.8286C20.1161 29.7952 21.0998 28.1722 20.4166 26.7911C19.6858 25.3135 20.8602 23.6072 22.5013 23.7623L25.5828 24.0535C27.1443 24.2011 28.399 22.7885 28.0682 21.2553C27.7126 19.6071 29.1787 18.1423 30.8265 18.4993L33.848 19.154C35.4478 19.5006 36.9764 18.3288 37.0572 16.6938C37.1447 14.921 38.9158 13.7334 40.5892 14.3254L43.1275 15.2235C44.7727 15.8055 46.5731 14.9099 47.1014 13.2467C47.6816 11.42 49.7681 10.5573 51.4689 11.4408L53.1879 12.3337C54.8565 13.2005 56.9113 12.6246 57.8864 11.0169C58.9753 9.22167 61.3707 8.74905 63.0598 9.9962L63.8034 10.5452C65.4284 11.7451 67.694 11.5399 69.0771 10.0676Z" stroke="#F2F2F2"/>
<path d="M58.7272 44.6245L58.8274 43.1279L59.2993 43.1595C59.5346 43.1752 59.7264 43.1596 59.8748 43.1126C60.0233 43.0627 60.1439 42.984 60.2365 42.8763C60.3322 42.7659 60.4156 42.6263 60.4867 42.4574L60.612 42.1796L57.8682 35.7006L59.773 35.8281L61.5355 40.2512L63.5359 36.0801L65.4152 36.2059L61.9449 43.0034C61.7787 43.3169 61.5871 43.6059 61.3701 43.8704C61.1559 44.1351 60.8901 44.3422 60.5725 44.4918C60.255 44.6414 59.8582 44.7002 59.382 44.6684L58.7272 44.6245Z" fill="white"/>
<path d="M65.2919 44.9444L65.3796 43.5067L65.5964 43.5212C65.7495 43.5315 65.8838 43.5035 65.9992 43.4372C66.1178 43.3682 66.2195 43.2512 66.3046 43.086C66.3897 42.9209 66.4629 42.6994 66.5242 42.4217C66.5857 42.1411 66.6374 41.7943 66.6793 41.3814L66.9791 38.4973L71.9453 38.8297L71.5081 45.3606L69.7818 45.245L70.1237 40.1385L68.5122 40.0306L68.2767 42.0179C68.2146 42.5633 68.1164 43.0294 67.9824 43.4162C67.8511 43.8032 67.6835 44.1165 67.4795 44.3563C67.2757 44.5932 67.0381 44.7623 66.7665 44.8638C66.4949 44.9652 66.1848 45.0042 65.8361 44.9808L65.2919 44.9444Z" fill="white"/>
<path d="M73.5129 47.9548C73.2833 47.9395 73.0692 47.9066 72.8704 47.8563C72.6742 47.809 72.5128 47.754 72.386 47.6915L72.8847 46.3667C73.0929 46.4461 73.2819 46.4944 73.4515 46.5114C73.6241 46.5287 73.7756 46.4989 73.906 46.4223C74.0392 46.3458 74.1524 46.2081 74.2454 46.0093L74.3702 45.7401L72.4772 38.8653L74.382 38.9929L75.413 43.8795L75.481 43.884L77.1669 39.1793L79.0845 39.3077L76.0617 46.3744C75.9163 46.7177 75.73 47.0127 75.5028 47.2595C75.2782 47.5092 75.0024 47.6944 74.6755 47.8148C74.3483 47.9381 73.9608 47.9848 73.5129 47.9548Z" fill="white"/>
<path d="M85.384 39.7294L84.9468 46.2602L83.2291 46.1452L83.6663 39.6144L85.384 39.7294ZM84.3545 42.5391L84.2589 43.9677C84.1158 44.0207 83.9389 44.0687 83.7282 44.1115C83.5177 44.1515 83.2979 44.181 83.0689 44.1998C82.8398 44.2186 82.6261 44.2214 82.4277 44.2081C81.4894 44.1453 80.7639 43.9031 80.2512 43.4816C79.7386 43.0572 79.5108 42.4198 79.5677 41.5694L79.7169 39.3415L81.4261 39.4559L81.277 41.6839C81.2601 41.9361 81.2892 42.1388 81.3644 42.2919C81.4424 42.4452 81.5742 42.5608 81.7597 42.6387C81.9483 42.714 82.2027 42.7623 82.523 42.7837C82.8207 42.8037 83.1147 42.792 83.4052 42.7488C83.6956 42.7056 84.0121 42.6357 84.3545 42.5391Z" fill="white"/>
<path d="M86.6706 39.8155L88.4011 39.9314L88.0601 45.0251L89.9011 45.1483L90.2421 40.0546L91.9726 40.1705L91.6316 45.2642L93.4727 45.3874L93.8137 40.2937L95.5442 40.4096L95.107 46.9404L86.2334 46.3464L86.6706 39.8155Z" fill="white"/>
<path d="M99.3592 47.3532C98.6874 47.3082 98.1182 47.1335 97.6517 46.8289C97.1883 46.5217 96.8429 46.1085 96.6157 45.5893C96.3887 45.0673 96.2983 44.4619 96.3444 43.7731C96.3894 43.1013 96.5592 42.5204 96.854 42.0305C97.1487 41.5406 97.5423 41.1697 98.0346 40.918C98.5298 40.6664 99.0977 40.5621 99.7383 40.6049C100.169 40.6338 100.566 40.7301 100.928 40.8938C101.293 41.0549 101.605 41.2823 101.864 41.5758C102.127 41.8696 102.322 42.23 102.45 42.6571C102.578 43.0814 102.623 43.5713 102.586 44.1269L102.553 44.6244L97.0382 44.2552L97.1133 43.1327L100.923 43.3877C100.94 43.1269 100.899 42.8921 100.799 42.6833C100.699 42.4744 100.553 42.3066 100.359 42.1797C100.168 42.0502 99.9412 41.9767 99.6776 41.959C99.4026 41.9406 99.1546 41.9881 98.9334 42.1014C98.7153 42.2121 98.5396 42.3697 98.4064 42.5743C98.2733 42.7761 98.1967 43.0059 98.1766 43.2637L98.1051 44.3309C98.0835 44.654 98.1243 44.9372 98.2276 45.1804C98.3338 45.4239 98.4931 45.6168 98.7057 45.7591C98.9182 45.9015 99.1761 45.9828 99.4794 46.0031C99.6807 46.0166 99.8668 46.0006 100.038 45.9551C100.209 45.9096 100.358 45.8341 100.484 45.7287C100.611 45.6233 100.711 45.4905 100.784 45.3303L102.452 45.5529C102.34 45.9498 102.142 46.2896 101.859 46.5724C101.578 46.8526 101.225 47.0624 100.8 47.202C100.378 47.3388 99.8977 47.3893 99.3592 47.3532Z" fill="white"/>
<path d="M108.24 43.8135L108.144 45.2379L104.734 45.0096L104.83 43.5852L108.24 43.8135ZM105.595 41.0825L105.158 47.6133L103.428 47.4974L103.865 40.9666L105.595 41.0825ZM109.545 41.3469L109.108 47.8777L107.39 47.7627L107.827 41.2319L109.545 41.3469Z" fill="white"/>
<path d="M115.206 44.2798L115.11 45.7042L111.7 45.4759L111.796 44.0515L115.206 44.2798ZM112.561 41.5488L112.124 48.0796L110.394 47.9638L110.831 41.4329L112.561 41.5488ZM116.511 41.8132L116.074 48.3441L114.356 48.2291L114.793 41.6982L116.511 41.8132Z" fill="white"/>
<path d="M119.214 48.6781C118.797 48.6502 118.43 48.5531 118.114 48.3867C117.798 48.2175 117.555 47.9833 117.384 47.6843C117.216 47.3827 117.147 47.0164 117.175 46.5856C117.2 46.2228 117.287 45.9225 117.436 45.6848C117.586 45.4471 117.781 45.2609 118.021 45.126C118.26 44.9911 118.529 44.8952 118.826 44.8382C119.126 44.7814 119.438 44.7483 119.763 44.7387C120.146 44.7244 120.454 44.7081 120.689 44.6896C120.924 44.6683 121.096 44.6258 121.206 44.5619C121.316 44.4981 121.375 44.3967 121.384 44.2578L121.386 44.2323C121.404 43.963 121.333 43.749 121.173 43.5902C121.015 43.4316 120.782 43.342 120.473 43.3213C120.147 43.2995 119.883 43.3544 119.681 43.4861C119.478 43.6149 119.339 43.7849 119.262 43.9962L117.596 43.748C117.708 43.3568 117.898 43.025 118.167 42.7526C118.436 42.4773 118.772 42.275 119.177 42.1454C119.584 42.0133 120.049 41.9646 120.57 41.9996C120.933 42.0238 121.278 42.0896 121.603 42.1968C121.932 42.3043 122.22 42.4559 122.466 42.6518C122.714 42.8478 122.905 43.0912 123.036 43.3818C123.168 43.6697 123.221 44.0078 123.195 44.3961L122.9 48.801L121.182 48.686L121.243 47.7804L121.191 47.777C121.073 47.974 120.921 48.1446 120.734 48.2888C120.548 48.4301 120.329 48.5364 120.077 48.6078C119.824 48.6763 119.537 48.6997 119.214 48.6781ZM119.816 47.4628C120.082 47.4806 120.321 47.4439 120.532 47.3527C120.744 47.2587 120.913 47.1248 121.042 46.9512C121.17 46.7776 121.242 46.5759 121.257 46.3463L121.304 45.6533C121.245 45.6863 121.164 45.7151 121.063 45.7397C120.965 45.7616 120.854 45.7812 120.73 45.7986C120.607 45.8131 120.484 45.8262 120.36 45.8379C120.237 45.8467 120.126 45.8549 120.026 45.8624C119.811 45.8794 119.622 45.9165 119.459 45.9739C119.295 46.0313 119.166 46.1152 119.07 46.2256C118.975 46.333 118.921 46.4718 118.91 46.6419C118.893 46.8885 118.97 47.083 119.14 47.2253C119.313 47.365 119.538 47.4442 119.816 47.4628Z" fill="white"/>
<path d="M128.012 49.1433L128.354 44.0325L127.129 43.9506C126.798 43.9284 126.54 43.988 126.357 44.1295C126.174 44.271 126.077 44.4467 126.066 44.6566C126.049 44.869 126.119 45.0545 126.276 45.2131C126.437 45.3691 126.681 45.4581 127.01 45.4801L128.855 45.6036L128.773 46.8281L126.928 46.7046C126.37 46.6672 125.892 46.5498 125.495 46.3524C125.098 46.155 124.8 45.8973 124.599 45.5792C124.398 45.2583 124.313 44.8952 124.343 44.4901C124.368 44.0647 124.503 43.6992 124.745 43.3937C124.988 43.0854 125.321 42.8557 125.744 42.7046C126.17 42.5509 126.663 42.4929 127.224 42.5304L130.137 42.7254L129.7 49.2563L128.012 49.1433ZM123.862 48.8654L125.905 45.5855L127.636 45.7014L125.597 48.9816L123.862 48.8654Z" fill="white"/>
<path d="M73.0538 61.7248L73.7854 50.7975L75.5924 50.9185L74.8609 61.8458L73.0538 61.7248ZM73.1939 59.6329C72.6921 59.5993 72.2398 59.4879 71.8367 59.2986C71.4339 59.1065 71.0922 58.8516 70.8117 58.5338C70.5313 58.2132 70.3227 57.8419 70.1858 57.4199C70.0491 56.9951 69.9974 56.5346 70.0306 56.0386C70.0642 55.5368 70.1769 55.086 70.3688 54.686C70.5609 54.2831 70.8172 53.943 71.1376 53.6654C71.4582 53.3851 71.8308 53.178 72.2555 53.0441C72.6803 52.9074 73.1436 52.8559 73.6453 52.8895L73.9812 52.9119L73.5298 59.6554L73.1939 59.6329ZM73.2884 58.2213L73.4882 58.2346L73.7506 54.3144L73.5508 54.3011C73.307 54.2847 73.0868 54.3213 72.89 54.4106C72.6933 54.4999 72.5237 54.6295 72.3814 54.7994C72.2392 54.9664 72.1262 55.1666 72.0422 55.4002C71.9611 55.6339 71.9113 55.8883 71.8929 56.1632C71.8686 56.5261 71.906 56.8603 72.0051 57.1659C72.1045 57.4686 72.263 57.7156 72.4809 57.9067C72.6989 58.095 72.9681 58.1998 73.2884 58.2213ZM75.0009 59.7539L74.665 59.7314L75.1164 52.9879L75.4523 53.0104C75.9541 53.044 76.4063 53.1569 76.8092 53.349C77.2122 53.5383 77.5539 53.7932 77.8342 54.1138C78.1148 54.4315 78.3234 54.8028 78.4601 55.2276C78.597 55.6497 78.6486 56.1115 78.6151 56.6133C78.5818 57.1093 78.4692 57.5587 78.2771 57.9616C78.0852 58.3616 77.8289 58.7018 77.5083 58.9821C77.1879 59.2596 76.8153 59.4667 76.3905 59.6034C75.9658 59.7373 75.5026 59.7874 75.0009 59.7539ZM75.0954 58.3422C75.3392 58.3586 75.5593 58.3235 75.7559 58.237C75.9526 58.1477 76.1222 58.0181 76.2645 57.8482C76.4069 57.6784 76.5199 57.4781 76.6037 57.2474C76.6877 57.0138 76.7388 56.761 76.757 56.4889C76.7815 56.1232 76.7426 55.7889 76.6405 55.4859C76.5414 55.1803 76.3843 54.9321 76.1693 54.7412C75.9543 54.5502 75.6838 54.4439 75.3578 54.422L75.158 54.4087L74.8956 58.3289L75.0954 58.3422Z" fill="white"/>
<path d="M82.4059 60.2496C81.7454 60.2054 81.1836 60.0268 80.7206 59.7139C80.2605 59.3984 79.917 58.9796 79.69 58.4576C79.4631 57.9328 79.3721 57.3359 79.4169 56.6669C79.4621 55.9923 79.6319 55.4114 79.9265 54.9244C80.2212 54.4344 80.6175 54.0652 81.1154 53.8166C81.6162 53.5654 82.1969 53.4619 82.8573 53.5062C83.5178 53.5504 84.078 53.7302 84.5381 54.0458C85.0012 54.3587 85.3461 54.7775 85.5729 55.3024C85.7999 55.8244 85.8909 56.4227 85.8457 57.0973C85.8009 57.7663 85.6312 58.3457 85.3364 58.8356C85.0418 59.3227 84.6441 59.6919 84.1433 59.9431C83.6455 60.1916 83.0663 60.2938 82.4059 60.2496ZM82.5083 58.847C82.8088 58.8672 83.0653 58.7989 83.278 58.6423C83.4908 58.4829 83.6582 58.2578 83.7802 57.967C83.905 57.6764 83.9801 57.3411 84.0055 56.9613C84.0309 56.5815 84.0012 56.2392 83.9162 55.9346C83.8341 55.6301 83.6982 55.3847 83.5085 55.1983C83.3188 55.0119 83.0738 54.9087 82.7733 54.8886C82.47 54.8683 82.2091 54.9377 81.9906 55.0967C81.7749 55.256 81.6047 55.4809 81.4799 55.7715C81.3579 56.0623 81.2842 56.3976 81.2588 56.7774C81.2334 57.1573 81.2617 57.4994 81.3438 57.8039C81.4288 58.1085 81.5675 58.3541 81.7601 58.5407C81.9556 58.7246 82.205 58.8267 82.5083 58.847Z" fill="white"/>
<path d="M86.5229 62.8571L87.124 53.8772L88.9098 53.9968L88.8364 55.0937L88.9172 55.0992C89.0083 54.9287 89.1351 54.7578 89.2974 54.5865C89.4628 54.4125 89.6715 54.2727 89.9234 54.1671C90.1784 54.0589 90.4887 54.017 90.8544 54.0415C91.3306 54.0734 91.7616 54.2275 92.1474 54.5039C92.5334 54.7775 92.8301 55.1718 93.0377 55.6868C93.2454 56.199 93.3242 56.8292 93.2741 57.5775C93.2254 58.306 93.0666 58.9132 92.7977 59.3992C92.5319 59.8825 92.1891 60.2397 91.7693 60.4707C91.3525 60.6991 90.8961 60.7966 90.4001 60.7634C90.0486 60.7399 89.7534 60.6618 89.5146 60.529C89.2786 60.3965 89.0886 60.2371 88.9444 60.051C88.8005 59.8619 88.6935 59.674 88.6234 59.4871L88.5681 59.4834L88.3342 62.9784L86.5229 62.8571ZM88.6785 57.2613C88.6525 57.6497 88.6836 57.992 88.772 58.2883C88.8604 58.5847 89.0012 58.8205 89.1944 58.9957C89.3879 59.1681 89.6306 59.2641 89.9226 59.2836C90.2174 59.3033 90.4722 59.2393 90.6871 59.0914C90.9022 58.9406 91.0719 58.7242 91.1961 58.4421C91.3234 58.1573 91.3997 57.825 91.4252 57.4452C91.4504 57.0682 91.4201 56.7331 91.3344 56.4397C91.2487 56.1464 91.1092 55.9122 90.916 55.7369C90.7227 55.5617 90.4772 55.4641 90.1796 55.4442C89.8848 55.4245 89.6302 55.4857 89.4156 55.6279C89.2039 55.7704 89.0347 55.9811 88.9078 56.2602C88.7809 56.5393 88.7045 56.873 88.6785 57.2613Z" fill="white"/>
<path d="M98.1386 59.1631L100.211 54.7533L101.588 54.8455L98.6041 61.2059L97.4008 61.1253L95.3507 54.428L96.724 54.5199L98.1386 59.1631ZM96.3116 54.4923L95.8744 61.0231L94.1439 60.9073L94.5811 54.3764L96.3116 54.4923ZM100.224 61.3143L100.661 54.7835L102.37 54.8979L101.933 61.4287L100.224 61.3143Z" fill="white"/>
<path d="M103.935 64.0228C103.705 64.0074 103.491 63.9746 103.292 63.9242C103.096 63.8769 102.935 63.822 102.808 63.7594L103.307 62.4347C103.515 62.5141 103.704 62.5623 103.874 62.5794C104.046 62.5966 104.198 62.5669 104.328 62.4902C104.461 62.4137 104.574 62.2761 104.667 62.0773L104.792 61.8081L102.899 54.9333L104.804 55.0608L105.835 59.9474L105.903 59.952L107.589 55.2473L109.507 55.3756L106.484 62.4423C106.338 62.7857 106.152 63.0807 105.925 63.3274C105.7 63.5772 105.424 63.7623 105.097 63.8828C104.77 64.0061 104.383 64.0528 103.935 64.0228Z" fill="white"/>
<path d="M108.968 61.8997L109.055 60.462L109.272 60.4765C109.425 60.4867 109.56 60.4587 109.675 60.3924C109.794 60.3235 109.895 60.2064 109.98 60.0413C110.065 59.8761 110.139 59.6547 110.2 59.3769C110.261 59.0963 110.313 58.7495 110.355 58.3367L110.655 55.4525L115.621 55.785L115.184 62.3158L113.458 62.2002L113.799 57.0938L112.188 56.9859L111.952 58.9732C111.89 59.5185 111.792 59.9846 111.658 60.3714C111.527 60.7584 111.359 61.0718 111.155 61.3115C110.952 61.5484 110.714 61.7176 110.442 61.819C110.171 61.9204 109.861 61.9594 109.512 61.9361L108.968 61.8997Z" fill="white"/>
<path d="M118.322 62.6498C117.906 62.6219 117.539 62.5247 117.223 62.3584C116.907 62.1891 116.663 61.955 116.493 61.656C116.325 61.3544 116.255 60.9881 116.284 60.5573C116.309 60.1944 116.396 59.8942 116.545 59.6565C116.695 59.4188 116.89 59.2325 117.129 59.0977C117.369 58.9628 117.637 58.8669 117.935 58.8099C118.234 58.7531 118.547 58.7199 118.872 58.7104C119.255 58.6961 119.563 58.6798 119.798 58.6613C120.033 58.64 120.205 58.5975 120.315 58.5336C120.424 58.4698 120.484 58.3684 120.493 58.2295L120.495 58.204C120.513 57.9347 120.442 57.7207 120.282 57.5619C120.124 57.4033 119.891 57.3137 119.582 57.293C119.256 57.2712 118.992 57.3261 118.79 57.4577C118.587 57.5866 118.448 57.7566 118.371 57.9679L116.705 57.7196C116.816 57.3285 117.007 56.9967 117.275 56.7243C117.544 56.449 117.881 56.2466 118.286 56.1171C118.693 55.9849 119.158 55.9363 119.679 55.9712C120.042 55.9955 120.386 56.0613 120.712 56.1685C121.041 56.276 121.328 56.4276 121.574 56.6234C121.823 56.8195 122.013 57.0628 122.145 57.3535C122.277 57.6414 122.329 57.9794 122.303 58.3678L122.008 62.7727L120.291 62.6577L120.351 61.752L120.3 61.7486C120.182 61.9457 120.029 62.1163 119.843 62.2604C119.657 62.4017 119.438 62.5081 119.186 62.5794C118.933 62.648 118.645 62.6714 118.322 62.6498ZM118.925 61.4345C119.191 61.4523 119.43 61.4156 119.641 61.3244C119.852 61.2303 120.022 61.0965 120.151 60.9229C120.279 60.7492 120.351 60.5476 120.366 60.318L120.413 59.625C120.353 59.658 120.273 59.6868 120.172 59.7114C120.074 59.7333 119.963 59.7529 119.839 59.7702C119.716 59.7847 119.592 59.7978 119.469 59.8095C119.346 59.8184 119.235 59.8266 119.134 59.8341C118.92 59.851 118.731 59.8882 118.567 59.9456C118.404 60.003 118.275 60.0869 118.179 60.1972C118.084 60.3047 118.03 60.4435 118.019 60.6136C118.002 60.8602 118.079 61.0547 118.249 61.197C118.422 61.3367 118.647 61.4159 118.925 61.4345Z" fill="white"/>
<path d="M125.637 59.1889L125.853 57.5505L124.414 58.3809L123.911 57.3394L125.443 56.7159L124.008 55.8937L124.645 54.9284L125.961 55.9433L125.965 54.2907L127.108 54.3673L126.888 56.0054L128.327 55.1749L128.83 56.2165L127.302 56.8403L128.733 57.6621L128.096 58.6274L126.78 57.6126L126.78 59.2654L125.637 59.1889Z" fill="white"/>
<path d="M30.9452 26.6216C30.8384 25.1094 31.9777 23.7968 33.49 23.69L48.5502 22.6261C50.0625 22.5192 51.375 23.6586 51.4819 25.1709C51.5887 26.6831 50.4494 27.9957 48.9371 28.1025L33.8769 29.1664C32.3646 29.2733 31.052 28.1339 30.9452 26.6216Z" fill="white"/>
<path d="M62.4606 53.9781L66.7797 56.0809L67.1182 60.8728L63.1376 63.5619L58.8184 61.4591L58.4799 56.6672L62.4606 53.9781Z" fill="white"/>
<path d="M57.6128 63.2642L61.9319 65.367L62.2705 70.1589L58.2898 72.848L53.9706 70.7452L53.6321 65.9533L57.6128 63.2642Z" fill="white"/>
<path d="M67.8811 62.5388L72.2003 64.6416L72.5388 69.4335L68.5582 72.1226L64.239 70.0198L63.9005 65.2279L67.8811 62.5388Z" fill="white"/>
<path d="M49.7925 59.6888C49.8993 61.2011 48.76 62.5137 47.2477 62.6205C45.7354 62.7273 44.4229 61.588 44.3161 60.0757C44.2092 58.5634 45.3486 57.2509 46.8608 57.144C48.3731 57.0372 49.6857 58.1765 49.7925 59.6888Z" fill="white"/>
<path d="M37.7607 64.6666C37.8141 65.4228 37.2444 66.079 36.4883 66.1325C35.7321 66.1859 35.0758 65.6162 35.0224 64.8601C34.969 64.1039 35.5387 63.4477 36.2948 63.3942C37.051 63.3408 37.7072 63.9105 37.7607 64.6666Z" fill="white"/>
<path d="M33.9737 30.5355C33.2175 30.589 32.6478 31.2452 32.7013 32.0014L32.8463 34.055L37.9805 33.6923C38.5476 33.6523 39.0398 34.0795 39.0799 34.6466C39.1199 35.2137 38.6927 35.7059 38.1256 35.746L32.9914 36.1087L33.1849 38.8469L38.319 38.4842C38.8861 38.4442 39.3783 38.8714 39.4184 39.4385C39.4585 40.0056 39.0312 40.4978 38.4641 40.5379L33.3299 40.9006L33.4025 41.9274L31.4616 47.2527C31.9234 47.4309 32.3748 47.6237 32.8109 47.8136C32.9431 47.8711 33.0735 47.9282 33.2025 47.9847C33.6945 48.2002 34.1677 48.4074 34.6541 48.6016C35.8693 49.0868 37.0381 49.4352 38.2905 49.4682C39.8472 49.5093 40.9251 48.9092 42.3025 48.0728L42.468 47.9721C43.791 47.1664 45.422 46.1732 47.7226 46.0797C49.7426 45.9976 51.5402 46.6226 52.8976 47.0945L53.0672 47.1534C53.7956 47.4058 54.3514 47.5904 54.8333 47.6762C54.875 47.6836 54.9149 47.6901 54.9532 47.6956L51.2009 40.6701L50.4997 30.744C50.4463 29.9879 49.79 29.4182 49.0339 29.4716L33.9737 30.5355Z" fill="white"/>
<path fill-rule="evenodd" clip-rule="evenodd" d="M56.3595 50.3286C55.662 50.5244 54.9694 50.4887 54.352 50.3787C53.6201 50.2483 52.858 49.9861 52.1683 49.7471L52.1427 49.7382C50.6916 49.2352 49.3259 48.7619 47.8341 48.8225C46.2508 48.8868 45.1566 49.5512 43.7549 50.4024L43.7273 50.4192C42.3373 51.2631 40.6487 52.2765 38.218 52.2123C36.497 52.1669 34.9802 51.6875 33.6363 51.151C33.1036 50.9383 32.5776 50.7079 32.0811 50.4904L32.0782 50.4891C31.9553 50.4353 31.8341 50.3822 31.7151 50.3304C31.3015 50.1503 30.9071 49.9824 30.5215 49.8323L23.0467 70.3414C21.6848 74.0782 24.6244 77.9781 28.5918 77.6978L60.9927 75.4089C63.2043 75.2527 64.9171 73.8552 65.6754 72.0411L63.3114 70.8902L58.3866 74.2171L52.8334 71.5135L52.3982 65.3525L57.5161 61.8951L57.6628 61.9667L57.246 56.0664L58.8465 54.9851L56.3595 50.3286ZM51.1617 59.5921C51.3219 61.8605 49.6129 63.8293 47.3445 63.9896C45.0761 64.1498 43.1073 62.4408 42.947 60.1724C42.7868 57.904 44.4958 55.9352 46.7642 55.7749C49.0326 55.6147 51.0015 57.3237 51.1617 59.5921ZM36.5851 67.5016C38.0973 67.3947 39.2367 66.0822 39.1299 64.5699C39.023 63.0576 37.7105 61.9183 36.1982 62.0251C34.6859 62.1319 33.5466 63.4445 33.6534 64.9568C33.7602 66.4691 35.0728 67.6084 36.5851 67.5016Z" fill="white"/>
<defs>
<linearGradient id="paint0_linear_1879_10583" x1="21.6149" y1="19.6768" x2="122.356" y2="104.907" gradientUnits="userSpaceOnUse">
<stop stop-color="#14A7FF"/>
<stop offset="1" stop-color="#5459FF"/>
</linearGradient>
<radialGradient id="paint1_radial_1879_10583" cx="0" cy="0" r="1" gradientUnits="userSpaceOnUse" gradientTransform="translate(48.556 29.6316) rotate(29.9756) scale(70.767 66.7798)">
<stop stop-color="white"/>
<stop offset="1" stop-color="white" stop-opacity="0"/>
</radialGradient>
</defs>
</svg>
