<svg width="39" height="39" viewBox="0 0 39 39" fill="none" xmlns="http://www.w3.org/2000/svg">
<path d="M19.0834 0.278309C19.3356 0.109836 19.6644 0.109836 19.9166 0.278309L22.6656 2.1147C22.8309 2.22516 23.0334 2.26544 23.2284 2.22666L26.4709 1.58204C26.7684 1.5229 27.0722 1.64874 27.2407 1.9009L29.0777 4.6495C29.1882 4.81483 29.3598 4.92951 29.5549 4.96833L32.7972 5.61362C33.0947 5.67282 33.3272 5.90535 33.3864 6.2028L34.0317 9.44515C34.0705 9.64018 34.1852 9.81182 34.3505 9.92231L37.0991 11.7593C37.3513 11.9278 37.4771 12.2316 37.418 12.5291L36.7733 15.7716C36.7346 15.9666 36.7748 16.1691 36.8853 16.3344L38.7217 19.0834C38.8902 19.3356 38.8902 19.6644 38.7217 19.9166L36.8853 22.6656C36.7748 22.8309 36.7346 23.0334 36.7733 23.2284L37.418 26.4709C37.4771 26.7684 37.3513 27.0722 37.0991 27.2407L34.3505 29.0777C34.1852 29.1882 34.0705 29.3598 34.0317 29.5549L33.3864 32.7972C33.3272 33.0947 33.0947 33.3272 32.7972 33.3864L29.5549 34.0317C29.3598 34.0705 29.1882 34.1852 29.0777 34.3505L27.2407 37.0991C27.0722 37.3513 26.7684 37.4771 26.4709 37.418L23.2284 36.7733C23.0334 36.7346 22.8309 36.7748 22.6656 36.8853L19.9166 38.7217C19.6644 38.8902 19.3356 38.8902 19.0834 38.7217L16.3344 36.8853C16.1691 36.7748 15.9666 36.7346 15.7716 36.7733L12.5291 37.418C12.2316 37.4771 11.9278 37.3513 11.7593 37.0991L9.92231 34.3505C9.81182 34.1852 9.64018 34.0705 9.44515 34.0317L6.2028 33.3864C5.90535 33.3272 5.67282 33.0947 5.61362 32.7972L4.96833 29.5549C4.92951 29.3598 4.81483 29.1882 4.6495 29.0777L1.9009 27.2407C1.64874 27.0722 1.5229 26.7684 1.58204 26.4709L2.22666 23.2284C2.26544 23.0334 2.22516 22.8309 2.1147 22.6656L0.278309 19.9166C0.109836 19.6644 0.109836 19.3356 0.278309 19.0834L2.1147 16.3344C2.22516 16.1691 2.26544 15.9666 2.22666 15.7716L1.58204 12.5291C1.5229 12.2316 1.64874 11.9278 1.9009 11.7593L4.6495 9.92231C4.81483 9.81182 4.92951 9.64018 4.96833 9.44515L5.61362 6.2028C5.67282 5.90535 5.90535 5.67282 6.2028 5.61362L9.44515 4.96833C9.64018 4.92951 9.81182 4.81483 9.92231 4.6495L11.7593 1.9009C11.9278 1.64874 12.2316 1.5229 12.5291 1.58204L15.7716 2.22666C15.9666 2.26544 16.1691 2.22516 16.3344 2.1147L19.0834 0.278309Z" fill="url(#paint0_linear_1940_8244)"/>
<path d="M13.4267 9V10.9865C13.4267 11.4567 13.802 11.8378 14.2649 11.8378C14.7278 11.8378 15.1031 11.4567 15.1031 10.9865V9H25.7206V10.9865C25.7206 11.4567 26.0959 11.8378 26.5589 11.8378C27.0218 11.8378 27.3971 11.4567 27.3971 10.9865L27.3971 9C29.2489 9 30.75 10.5247 30.75 12.4054V14.6591C30.3586 14.3161 29.8484 14.1081 29.2911 14.1081H11.974C11.1726 14.1081 10.47 14.5357 10.0738 15.1795V12.4054C10.0738 10.5247 11.5749 9 13.4267 9Z" fill="white"/>
<path d="M28.7861 26.1425C29.1567 25.3357 30.2036 23 30.6884 21.2344C30.7092 21.1584 30.7298 21.0809 30.75 21.002V26.5946C30.75 28.4753 29.2489 30 27.3971 30H13.4267C11.8644 30 10.5516 28.9147 10.1794 27.4459H26.7668C27.6181 27.4459 28.4138 26.9528 28.7861 26.1425Z" fill="white"/>
<path d="M22.3469 22.7551C22.6432 22.7551 22.8831 22.6017 23.0664 22.2951C23.2498 21.9866 23.3405 21.5135 23.3387 20.8758C23.3387 20.4582 23.297 20.1139 23.2137 19.843C23.1303 19.5703 23.0146 19.3671 22.8664 19.2336C22.7182 19.1 22.545 19.0332 22.3469 19.0332C22.0524 19.0332 21.8144 19.1846 21.6329 19.4875C21.4514 19.7885 21.3597 20.2513 21.3578 20.8758C21.356 21.2991 21.3958 21.6499 21.4773 21.9283C21.5606 22.2067 21.6773 22.4146 21.8273 22.5519C21.9774 22.6873 22.1505 22.7551 22.3469 22.7551Z" fill="white"/>
<path fill-rule="evenodd" clip-rule="evenodd" d="M29.2911 15.8108H11.974C11.688 15.8108 11.4477 16.03 11.4133 16.3184C11.2996 17.2701 11.0232 19.3546 10.6326 20.777C10.2616 22.128 9.5071 23.9036 9.05131 24.9246C8.88119 25.3057 9.15485 25.7432 9.56682 25.7432H26.7669C26.9814 25.7432 27.1762 25.62 27.2669 25.4225C27.6429 24.604 28.6311 22.3884 29.0735 20.777C29.4487 19.4108 29.7185 17.434 29.84 16.4366C29.8807 16.1022 29.6229 15.8108 29.2911 15.8108ZM15.0048 23.7568V22.7522L17.0801 20.9068C17.2357 20.7639 17.3681 20.6331 17.4774 20.5146C17.5866 20.3942 17.67 20.2738 17.7274 20.1534C17.7848 20.0312 17.8135 19.8985 17.8135 19.7556C17.8135 19.5957 17.7793 19.4593 17.7107 19.3464C17.6422 19.2317 17.5477 19.1433 17.4274 19.0812C17.307 19.0191 17.169 18.9881 17.0134 18.9881C16.856 18.9881 16.718 19.021 16.5994 19.0868C16.4809 19.1508 16.3883 19.2439 16.3216 19.3662C16.2568 19.4884 16.2244 19.6371 16.2244 19.812H14.9214C14.9214 19.4188 15.0085 19.0793 15.1826 18.7934C15.3567 18.5074 15.6011 18.2873 15.916 18.1331C16.2327 17.977 16.6004 17.8989 17.019 17.8989C17.4505 17.8989 17.8256 17.9722 18.1441 18.119C18.4627 18.2657 18.709 18.4708 18.8831 18.7341C19.0591 18.9956 19.1471 19.2994 19.1471 19.6455C19.1471 19.8656 19.1035 20.0838 19.0165 20.3002C18.9294 20.5165 18.7729 20.7554 18.547 21.0169C18.3229 21.2784 18.0043 21.5916 17.5913 21.9565L16.9106 22.5942V22.6309H19.2165V23.7568H15.0048ZM22.3469 23.8978C21.8505 23.8978 21.4226 23.7784 21.0633 23.5395C20.704 23.2987 20.4271 22.9535 20.2326 22.5039C20.0382 22.0524 19.9419 21.5097 19.9437 20.8758C19.9456 20.2418 20.0428 19.7038 20.2354 19.2618C20.4299 18.8178 20.7059 18.4802 21.0633 18.2488C21.4226 18.0155 21.8505 17.8989 22.3469 17.8989C22.8432 17.8989 23.2711 18.0155 23.6304 18.2488C23.9916 18.4802 24.2694 18.8178 24.4639 19.2618C24.6583 19.7057 24.7546 20.2437 24.7528 20.8758C24.7528 21.5116 24.6556 22.0553 24.4611 22.5067C24.2666 22.9582 23.9897 23.3034 23.6304 23.5423C23.2729 23.7793 22.8451 23.8978 22.3469 23.8978Z" fill="white"/>
<defs>
<linearGradient id="paint0_linear_1940_8244" x1="27.124" y1="42.0782" x2="5.85763" y2="7.39691" gradientUnits="userSpaceOnUse">
<stop stop-color="#4054E8"/>
<stop offset="1" stop-color="#5C47FF"/>
</linearGradient>
</defs>
</svg>
