<svg width="40" height="39" viewBox="0 0 40 39" fill="none" xmlns="http://www.w3.org/2000/svg">
<g clip-path="url(#clip0_1183_5375)">
<path d="M19.5834 0.278309C19.8356 0.109836 20.1644 0.109836 20.4166 0.278309L23.1656 2.1147C23.3309 2.22516 23.5334 2.26544 23.7284 2.22666L26.9709 1.58204C27.2684 1.5229 27.5722 1.64874 27.7407 1.9009L29.5777 4.6495C29.6882 4.81483 29.8598 4.92951 30.0549 4.96833L33.2972 5.61362C33.5947 5.67282 33.8272 5.90535 33.8864 6.2028L34.5317 9.44515C34.5705 9.64018 34.6852 9.81182 34.8505 9.92231L37.5991 11.7593C37.8513 11.9278 37.9771 12.2316 37.918 12.5291L37.2733 15.7716C37.2346 15.9666 37.2748 16.1691 37.3853 16.3344L39.2217 19.0834C39.3902 19.3356 39.3902 19.6644 39.2217 19.9166L37.3853 22.6656C37.2748 22.8309 37.2346 23.0334 37.2733 23.2284L37.918 26.4709C37.9771 26.7684 37.8513 27.0722 37.5991 27.2407L34.8505 29.0777C34.6852 29.1882 34.5705 29.3598 34.5317 29.5549L33.8864 32.7972C33.8272 33.0947 33.5947 33.3272 33.2972 33.3864L30.0549 34.0317C29.8598 34.0705 29.6882 34.1852 29.5777 34.3505L27.7407 37.0991C27.5722 37.3513 27.2684 37.4771 26.9709 37.418L23.7284 36.7733C23.5334 36.7346 23.3309 36.7748 23.1656 36.8853L20.4166 38.7217C20.1644 38.8902 19.8356 38.8902 19.5834 38.7217L16.8344 36.8853C16.6691 36.7748 16.4666 36.7346 16.2716 36.7733L13.0291 37.418C12.7316 37.4771 12.4278 37.3513 12.2593 37.0991L10.4223 34.3505C10.3118 34.1852 10.1402 34.0705 9.94515 34.0317L6.7028 33.3864C6.40535 33.3272 6.17282 33.0947 6.11362 32.7972L5.46833 29.5549C5.42951 29.3598 5.31483 29.1882 5.1495 29.0777L2.4009 27.2407C2.14874 27.0722 2.0229 26.7684 2.08204 26.4709L2.72666 23.2284C2.76544 23.0334 2.72516 22.8309 2.6147 22.6656L0.778309 19.9166C0.609836 19.6644 0.609836 19.3356 0.778309 19.0834L2.6147 16.3344C2.72516 16.1691 2.76544 15.9666 2.72666 15.7716L2.08204 12.5291C2.0229 12.2316 2.14874 11.9278 2.4009 11.7593L5.1495 9.92231C5.31483 9.81182 5.42951 9.64018 5.46833 9.44515L6.11362 6.2028C6.17282 5.90535 6.40535 5.67282 6.7028 5.61362L9.94515 4.96833C10.1402 4.92951 10.3118 4.81483 10.4223 4.6495L12.2593 1.9009C12.4278 1.64874 12.7316 1.5229 13.0291 1.58204L16.2716 2.22666C16.4666 2.26544 16.6691 2.22516 16.8344 2.1147L19.5834 0.278309Z" fill="url(#paint0_linear_1183_5375)"/>
<path d="M16.3902 9.07875L15.1371 8.25L13.8839 9.07875L12.4058 8.78784L11.5684 10.0283L10.0904 10.3195L9.79624 11.7827L8.54328 12.6117L8.83713 14.075L8 15.3156L8.83713 16.5562L8.54328 18.0195L9.79624 18.8485L10.0904 20.3118L11.5684 20.603L12.4058 21.8434L13.8839 21.5525L15.1371 22.3812L16.3902 21.5525L16.8767 21.6482L16.9981 21.0437L16.3491 20.082C15.9399 20.188 15.5104 20.2445 15.0675 20.2445C12.2795 20.2445 10.0193 18.0069 10.0193 15.2468C10.0193 12.4866 12.2795 10.2491 15.0675 10.2491C17.1652 10.2491 18.964 11.5156 19.7263 13.3184L20.2756 13.2102L21.0042 12.1309L20.4779 11.7827L20.1837 10.3195L18.7057 10.0283L17.8683 8.78784L16.3902 9.07875Z" fill="white"/>
<path d="M16.5907 22.5504L16.6915 22.5702L16.6454 22.7997L18.149 23.7945L18.3364 24.7267L17.5284 25.5089C17.2162 25.8111 16.6907 25.6686 16.5777 25.251L15.9597 22.9677L16.5907 22.5504Z" fill="white"/>
<path fill-rule="evenodd" clip-rule="evenodd" d="M18.9901 13.4634L18.502 13.5596L18.149 15.3155L16.6454 16.3103L16.9981 18.0663L16.0601 19.4562C15.7629 19.5209 15.454 19.555 15.1371 19.555C12.7721 19.555 10.8548 17.657 10.8548 15.3156C10.8548 12.9743 12.7721 11.0762 15.1371 11.0762C16.8312 11.0762 18.2956 12.0502 18.9901 13.4634ZM15.8655 15.2658L16.1522 14.6307H14.3062C14.3146 14.6037 14.3234 14.5775 14.3326 14.5521C14.4272 14.2973 14.5616 14.1118 14.7357 13.9956C14.9098 13.8776 15.118 13.8186 15.3602 13.8186C15.5286 13.8186 15.6791 13.8411 15.8115 13.886C15.9459 13.931 16.0613 13.9825 16.1578 14.0406C16.2563 14.0968 16.3357 14.1418 16.3963 14.1755L16.9129 13.0879C16.6991 12.9287 16.4625 12.806 16.2033 12.7198C15.9459 12.6336 15.6649 12.5905 15.3602 12.5905C14.8549 12.5905 14.4074 12.7076 14.0175 12.9418C13.6296 13.176 13.3259 13.5142 13.1063 13.9563C13.0044 14.1615 12.9262 14.3863 12.8716 14.6307H12.2775L12.0362 15.2658H12.7853C12.7798 15.36 12.7771 15.4565 12.7771 15.5553C12.7771 15.6482 12.7795 15.7391 12.7843 15.8279H12.2775L12.0362 16.4798H12.8713C12.9259 16.7247 13.0043 16.9495 13.1063 17.1543C13.3259 17.5927 13.6296 17.9271 14.0175 18.1575C14.4074 18.388 14.8549 18.5032 15.3602 18.5032C15.6535 18.5032 15.9298 18.4629 16.1891 18.3823C16.4502 18.2999 16.6849 18.1772 16.893 18.0142L16.3736 16.9239C16.3187 16.9613 16.243 17.0082 16.1465 17.0644C16.0519 17.1187 15.9383 17.1674 15.8059 17.2105C15.6753 17.2536 15.5267 17.2751 15.3602 17.2751C15.118 17.2751 14.9098 17.2189 14.7357 17.1065C14.5616 16.9941 14.4272 16.8124 14.3326 16.5613C14.323 16.5351 14.3139 16.5079 14.3052 16.4798H15.2665L15.593 15.8279H14.2007C14.1959 15.7413 14.1935 15.6504 14.1935 15.5553C14.1935 15.454 14.1963 15.3576 14.2018 15.2658H15.8655Z" fill="white"/>
<path d="M8.70957 24.0576L9.49572 21.1531L10.9975 21.449L11.9688 22.8878L13.6834 22.5504L14.323 22.9733L13.6732 25.3743C13.5633 25.7802 13.0604 25.9297 12.7428 25.6509L11.4984 24.5584C11.3639 24.4404 11.1811 24.3919 11.0051 24.4276L9.37555 24.7577C8.95972 24.8419 8.59972 24.4635 8.70957 24.0576Z" fill="white"/>
<path d="M26.4649 31.0807L25.4759 27.4267L26.0618 27.0392L27.8355 27.3883L28.8404 25.8998L30.614 25.5504L30.727 24.9883L31.98 29.6177C32.0899 30.0236 31.7299 30.402 31.314 30.3178L29.3718 29.9243C29.1958 29.8886 29.013 29.9371 28.8785 30.0552L27.3952 31.3573C27.0777 31.6361 26.5748 31.4866 26.4649 31.0807Z" fill="white"/>
<path d="M17.707 29.6177L18.7924 25.6076L20.2757 25.8998L21.2805 27.3883L23.0543 27.0392L24.1244 27.747L23.2221 31.0807C23.1122 31.4866 22.6093 31.6361 22.2917 31.3573L20.8085 30.0552C20.674 29.9371 20.4912 29.8886 20.3152 29.9243L18.373 30.3178C17.9571 30.402 17.5971 30.0236 17.707 29.6177Z" fill="white"/>
<path d="M24.4462 19.018V17.7271C24.3465 17.7409 24.257 17.764 24.1777 17.7963C24.0387 17.8509 23.9321 17.9273 23.8578 18.0253C23.7855 18.1233 23.7493 18.2345 23.7493 18.3589C23.7455 18.4626 23.7674 18.5531 23.815 18.6304C23.8645 18.7077 23.9321 18.7746 24.0178 18.8311C24.1034 18.8858 24.2025 18.9339 24.3148 18.9753C24.3575 18.9904 24.4013 19.0046 24.4462 19.018Z" fill="white"/>
<path d="M24.9146 21.598C25.024 21.5834 25.124 21.5584 25.2145 21.523C25.3706 21.4627 25.4915 21.3788 25.5772 21.2713C25.6629 21.1639 25.7057 21.0404 25.7057 20.9009C25.7057 20.7708 25.6667 20.6615 25.5886 20.5729C25.5125 20.4843 25.4001 20.4089 25.2516 20.3467C25.154 20.3053 25.0417 20.2664 24.9146 20.23V21.598Z" fill="white"/>
<path fill-rule="evenodd" clip-rule="evenodd" d="M29.1257 19.555C29.1257 22.0524 27.0807 24.077 24.558 24.077C22.0353 24.077 19.9903 22.0524 19.9903 19.555C19.9903 17.0576 22.0353 15.033 24.558 15.033C27.0807 15.033 29.1257 17.0576 29.1257 19.555ZM24.4462 23.2817V22.6336C24.072 22.6132 23.7398 22.5437 23.4494 22.425C23.1009 22.2817 22.8286 22.0696 22.6325 21.7888C22.4383 21.506 22.3364 21.1563 22.3269 20.7397H23.5236C23.537 20.9339 23.5931 21.096 23.6921 21.2261C23.7931 21.3543 23.9273 21.4513 24.0949 21.5173C24.203 21.5582 24.3201 21.5861 24.4462 21.6009V20.111L24.0749 20.0187C23.5817 19.9 23.1923 19.7143 22.9067 19.4617C22.6211 19.2091 22.4792 18.8688 22.4811 18.4409C22.4792 18.0903 22.5735 17.784 22.7639 17.522C22.9562 17.26 23.2199 17.0554 23.5551 16.9084C23.8229 16.7909 24.1199 16.7203 24.4462 16.6967V16.0432H24.9146V16.6942C25.2592 16.715 25.5657 16.7864 25.8343 16.9084C26.1599 17.0554 26.4131 17.26 26.594 17.522C26.7749 17.784 26.8682 18.0875 26.8739 18.4325H25.6886C25.6658 18.2044 25.5677 18.0272 25.3944 17.9009C25.2676 17.8084 25.1077 17.7498 24.9146 17.7251V19.1339L25.2002 19.2015C25.4554 19.2581 25.6896 19.3335 25.9028 19.4278C26.1161 19.522 26.3008 19.6379 26.4569 19.7755C26.613 19.9132 26.734 20.0753 26.8196 20.2619C26.9072 20.4485 26.952 20.6625 26.9539 20.9037C26.952 21.2581 26.8606 21.5654 26.6797 21.8255C26.5007 22.0838 26.2417 22.2845 25.9028 22.4278C25.6217 22.5457 25.2923 22.6144 24.9146 22.634V23.2817H24.4462Z" fill="white"/>
<path fill-rule="evenodd" clip-rule="evenodd" d="M25.8613 13.0686L24.558 12.2067L23.2547 13.0686L21.7175 12.7661L20.8466 14.0561L19.3095 14.359L19.0035 15.8808L17.7005 16.7429L18.0061 18.2648L17.1354 19.555L18.0061 20.8452L17.7005 22.367L19.0035 23.2292L19.3095 24.751L20.8466 25.0538L21.7175 26.3439L23.2547 26.0413L24.558 26.9032L25.8613 26.0413L27.3985 26.3439L28.2694 25.0538L29.8065 24.751L30.1125 23.2292L31.4155 22.367L31.1099 20.8452L31.9805 19.555L31.1099 18.2648L31.4155 16.7429L30.1125 15.8808L29.8065 14.359L28.2694 14.0561L27.3985 12.7661L25.8613 13.0686ZM24.558 24.9249C27.5537 24.9249 29.9822 22.5207 29.9822 19.555C29.9822 16.5893 27.5537 14.1851 24.558 14.1851C21.5623 14.1851 19.1338 16.5893 19.1338 19.555C19.1338 22.5207 21.5623 24.9249 24.558 24.9249Z" fill="white"/>
</g>
<defs>
<linearGradient id="paint0_linear_1183_5375" x1="27.624" y1="42.0782" x2="6.35763" y2="7.39691" gradientUnits="userSpaceOnUse">
<stop stop-color="#4054E8"/>
<stop offset="1" stop-color="#5C47FF"/>
</linearGradient>
<clipPath id="clip0_1183_5375">
<rect width="39" height="39" fill="white" transform="translate(0.5)"/>
</clipPath>
</defs>
</svg>
