<svg width="40" height="39" viewBox="0 0 40 39" fill="none" xmlns="http://www.w3.org/2000/svg">
<path d="M19.5834 0.278309C19.8356 0.109836 20.1644 0.109836 20.4166 0.278309L23.1656 2.1147C23.3309 2.22516 23.5334 2.26544 23.7284 2.22666L26.9709 1.58204C27.2684 1.5229 27.5722 1.64874 27.7407 1.9009L29.5777 4.6495C29.6882 4.81483 29.8598 4.92951 30.0549 4.96833L33.2972 5.61362C33.5947 5.67282 33.8272 5.90535 33.8864 6.2028L34.5317 9.44515C34.5705 9.64018 34.6852 9.81182 34.8505 9.92231L37.5991 11.7593C37.8513 11.9278 37.9771 12.2316 37.918 12.5291L37.2733 15.7716C37.2346 15.9666 37.2748 16.1691 37.3853 16.3344L39.2217 19.0834C39.3902 19.3356 39.3902 19.6644 39.2217 19.9166L37.3853 22.6656C37.2748 22.8309 37.2346 23.0334 37.2733 23.2284L37.918 26.4709C37.9771 26.7684 37.8513 27.0722 37.5991 27.2407L34.8505 29.0777C34.6852 29.1882 34.5705 29.3598 34.5317 29.5549L33.8864 32.7972C33.8272 33.0947 33.5947 33.3272 33.2972 33.3864L30.0549 34.0317C29.8598 34.0705 29.6882 34.1852 29.5777 34.3505L27.7407 37.0991C27.5722 37.3513 27.2684 37.4771 26.9709 37.418L23.7284 36.7733C23.5334 36.7346 23.3309 36.7748 23.1656 36.8853L20.4166 38.7217C20.1644 38.8902 19.8356 38.8902 19.5834 38.7217L16.8344 36.8853C16.6691 36.7748 16.4666 36.7346 16.2716 36.7733L13.0291 37.418C12.7316 37.4771 12.4278 37.3513 12.2593 37.0991L10.4223 34.3505C10.3118 34.1852 10.1402 34.0705 9.94515 34.0317L6.7028 33.3864C6.40535 33.3272 6.17282 33.0947 6.11362 32.7972L5.46833 29.5549C5.42951 29.3598 5.31483 29.1882 5.1495 29.0777L2.4009 27.2407C2.14874 27.0722 2.0229 26.7684 2.08204 26.4709L2.72666 23.2284C2.76544 23.0334 2.72516 22.8309 2.6147 22.6656L0.778309 19.9166C0.609836 19.6644 0.609836 19.3356 0.778309 19.0834L2.6147 16.3344C2.72516 16.1691 2.76544 15.9666 2.72666 15.7716L2.08204 12.5291C2.0229 12.2316 2.14874 11.9278 2.4009 11.7593L5.1495 9.92231C5.31483 9.81182 5.42951 9.64018 5.46833 9.44515L6.11362 6.2028C6.17282 5.90535 6.40535 5.67282 6.7028 5.61362L9.94515 4.96833C10.1402 4.92951 10.3118 4.81483 10.4223 4.6495L12.2593 1.9009C12.4278 1.64874 12.7316 1.5229 13.0291 1.58204L16.2716 2.22666C16.4666 2.26544 16.6691 2.22516 16.8344 2.1147L19.5834 0.278309Z" fill="url(#paint0_linear_1183_5367)"/>
<path d="M13.9267 9V10.9865C13.9267 11.4567 14.302 11.8378 14.7649 11.8378C15.2278 11.8378 15.6031 11.4567 15.6031 10.9865V9H26.2206V10.9865C26.2206 11.4567 26.5959 11.8378 27.0589 11.8378C27.5218 11.8378 27.8971 11.4567 27.8971 10.9865L27.8971 9C29.7489 9 31.25 10.5247 31.25 12.4054V14.6591C30.8586 14.3161 30.3484 14.1081 29.7911 14.1081H12.474C11.6726 14.1081 10.97 14.5357 10.5738 15.1795V12.4054C10.5738 10.5247 12.0749 9 13.9267 9Z" fill="white"/>
<path d="M29.2861 26.1425C29.6567 25.3357 30.7036 23 31.1884 21.2344C31.2092 21.1584 31.2298 21.0809 31.25 21.002V26.5946C31.25 28.4753 29.7489 30 27.8971 30H13.9267C12.3644 30 11.0516 28.9147 10.6794 27.4459H27.2668C28.1181 27.4459 28.9138 26.9528 29.2861 26.1425Z" fill="white"/>
<path d="M22.8469 22.7551C23.1432 22.7551 23.3831 22.6017 23.5664 22.2951C23.7498 21.9866 23.8405 21.5135 23.8387 20.8758C23.8387 20.4582 23.797 20.1139 23.7137 19.843C23.6303 19.5703 23.5146 19.3671 23.3664 19.2336C23.2182 19.1 23.045 19.0332 22.8469 19.0332C22.5524 19.0332 22.3144 19.1846 22.1329 19.4875C21.9514 19.7885 21.8597 20.2513 21.8578 20.8758C21.856 21.2991 21.8958 21.6499 21.9773 21.9283C22.0606 22.2067 22.1773 22.4146 22.3273 22.5519C22.4774 22.6873 22.6505 22.7551 22.8469 22.7551Z" fill="white"/>
<path fill-rule="evenodd" clip-rule="evenodd" d="M29.7911 15.8108H12.474C12.188 15.8108 11.9477 16.03 11.9133 16.3184C11.7996 17.2701 11.5232 19.3546 11.1326 20.777C10.7616 22.128 10.0071 23.9036 9.55131 24.9246C9.38119 25.3057 9.65485 25.7432 10.0668 25.7432H27.2669C27.4814 25.7432 27.6762 25.62 27.7669 25.4225C28.1429 24.604 29.1311 22.3884 29.5735 20.777C29.9487 19.4108 30.2185 17.434 30.34 16.4366C30.3807 16.1022 30.1229 15.8108 29.7911 15.8108ZM15.5048 23.7568V22.7522L17.5801 20.9068C17.7357 20.7639 17.8681 20.6331 17.9774 20.5146C18.0866 20.3942 18.17 20.2738 18.2274 20.1534C18.2848 20.0312 18.3135 19.8985 18.3135 19.7556C18.3135 19.5957 18.2793 19.4593 18.2107 19.3464C18.1422 19.2317 18.0477 19.1433 17.9274 19.0812C17.807 19.0191 17.669 18.9881 17.5134 18.9881C17.356 18.9881 17.218 19.021 17.0994 19.0868C16.9809 19.1508 16.8883 19.2439 16.8216 19.3662C16.7568 19.4884 16.7244 19.6371 16.7244 19.812H15.4214C15.4214 19.4188 15.5085 19.0793 15.6826 18.7934C15.8567 18.5074 16.1011 18.2873 16.416 18.1331C16.7327 17.977 17.1004 17.8989 17.519 17.8989C17.9505 17.8989 18.3256 17.9722 18.6441 18.119C18.9627 18.2657 19.209 18.4708 19.3831 18.7341C19.5591 18.9956 19.6471 19.2994 19.6471 19.6455C19.6471 19.8656 19.6035 20.0838 19.5165 20.3002C19.4294 20.5165 19.2729 20.7554 19.047 21.0169C18.8229 21.2784 18.5043 21.5916 18.0913 21.9565L17.4106 22.5942V22.6309H19.7165V23.7568H15.5048ZM22.8469 23.8978C22.3505 23.8978 21.9226 23.7784 21.5633 23.5395C21.204 23.2987 20.9271 22.9535 20.7326 22.5039C20.5382 22.0524 20.4419 21.5097 20.4437 20.8758C20.4456 20.2418 20.5428 19.7038 20.7354 19.2618C20.9299 18.8178 21.2059 18.4802 21.5633 18.2488C21.9226 18.0155 22.3505 17.8989 22.8469 17.8989C23.3432 17.8989 23.7711 18.0155 24.1304 18.2488C24.4916 18.4802 24.7694 18.8178 24.9639 19.2618C25.1583 19.7057 25.2546 20.2437 25.2528 20.8758C25.2528 21.5116 25.1556 22.0553 24.9611 22.5067C24.7666 22.9582 24.4897 23.3034 24.1304 23.5423C23.7729 23.7793 23.3451 23.8978 22.8469 23.8978Z" fill="white"/>
<defs>
<linearGradient id="paint0_linear_1183_5367" x1="27.624" y1="42.0782" x2="6.35763" y2="7.39691" gradientUnits="userSpaceOnUse">
<stop stop-color="#4054E8"/>
<stop offset="1" stop-color="#5C47FF"/>
</linearGradient>
</defs>
</svg>
