<svg width="39" height="39" viewBox="0 0 39 39" fill="none" xmlns="http://www.w3.org/2000/svg">
<g clip-path="url(#clip0_1183_5354)">
<path d="M19.0834 0.278309C19.3356 0.109836 19.6644 0.109836 19.9166 0.278309L22.6656 2.1147C22.8309 2.22516 23.0334 2.26544 23.2284 2.22666L26.4709 1.58204C26.7684 1.5229 27.0722 1.64874 27.2407 1.9009L29.0777 4.6495C29.1882 4.81483 29.3598 4.92951 29.5549 4.96833L32.7972 5.61362C33.0947 5.67282 33.3272 5.90535 33.3864 6.2028L34.0317 9.44515C34.0705 9.64018 34.1852 9.81182 34.3505 9.92231L37.0991 11.7593C37.3513 11.9278 37.4771 12.2316 37.418 12.5291L36.7733 15.7716C36.7346 15.9666 36.7748 16.1691 36.8853 16.3344L38.7217 19.0834C38.8902 19.3356 38.8902 19.6644 38.7217 19.9166L36.8853 22.6656C36.7748 22.8309 36.7346 23.0334 36.7733 23.2284L37.418 26.4709C37.4771 26.7684 37.3513 27.0722 37.0991 27.2407L34.3505 29.0777C34.1852 29.1882 34.0705 29.3598 34.0317 29.5549L33.3864 32.7972C33.3272 33.0947 33.0947 33.3272 32.7972 33.3864L29.5549 34.0317C29.3598 34.0705 29.1882 34.1852 29.0777 34.3505L27.2407 37.0991C27.0722 37.3513 26.7684 37.4771 26.4709 37.418L23.2284 36.7733C23.0334 36.7346 22.8309 36.7748 22.6656 36.8853L19.9166 38.7217C19.6644 38.8902 19.3356 38.8902 19.0834 38.7217L16.3344 36.8853C16.1691 36.7748 15.9666 36.7346 15.7716 36.7733L12.5291 37.418C12.2316 37.4771 11.9278 37.3513 11.7593 37.0991L9.92231 34.3505C9.81182 34.1852 9.64018 34.0705 9.44515 34.0317L6.2028 33.3864C5.90535 33.3272 5.67282 33.0947 5.61362 32.7972L4.96833 29.5549C4.92951 29.3598 4.81483 29.1882 4.6495 29.0777L1.9009 27.2407C1.64874 27.0722 1.5229 26.7684 1.58204 26.4709L2.22666 23.2284C2.26544 23.0334 2.22516 22.8309 2.1147 22.6656L0.278309 19.9166C0.109836 19.6644 0.109836 19.3356 0.278309 19.0834L2.1147 16.3344C2.22516 16.1691 2.26544 15.9666 2.22666 15.7716L1.58204 12.5291C1.5229 12.2316 1.64874 11.9278 1.9009 11.7593L4.6495 9.92231C4.81483 9.81182 4.92951 9.64018 4.96833 9.44515L5.61362 6.2028C5.67282 5.90535 5.90535 5.67282 6.2028 5.61362L9.44515 4.96833C9.64018 4.92951 9.81182 4.81483 9.92231 4.6495L11.7593 1.9009C11.9278 1.64874 12.2316 1.5229 12.5291 1.58204L15.7716 2.22666C15.9666 2.26544 16.1691 2.22516 16.3344 2.1147L19.0834 0.278309Z" fill="url(#paint0_linear_1183_5354)"/>
<path d="M20.6781 12.3258C20.6832 11.9724 20.6467 11.6146 20.5588 11.25C20.3316 10.3086 19.4128 9.53382 18.8628 9.14274C18.7519 9.06387 18.5959 9.20041 18.6378 9.3299C18.8065 9.85148 18.9503 10.761 18.4411 11.7794C18.0769 12.5078 17.7127 13.0692 17.3741 13.5912C16.9743 14.2074 16.6101 14.7688 16.3235 15.4853C16.1236 15.9851 16.0133 16.5077 15.9767 17.0272L20.6781 12.3258Z" fill="white"/>
<path d="M17.0045 20.4917C17.6896 21.2075 18.6384 21.7107 19.146 21.9482C19.2603 22.0017 19.3703 21.8767 19.3108 21.7654C19.0127 21.2081 18.4649 20.0697 18.4411 19.1912C18.4399 19.1454 18.4391 19.1008 18.4387 19.0575L17.0045 20.4917Z" fill="white"/>
<path d="M19.543 17.9531C19.4329 18.7012 19.5417 19.4585 19.7836 20.0912C20.1364 21.0143 21.3208 21.6679 21.9225 21.949C22.0371 22.0025 22.1464 21.876 22.0864 21.7647C21.8461 21.3187 21.4652 20.5172 21.4476 19.89C21.4248 19.0721 21.5806 18.7828 21.9846 18.0324C22.0713 17.8714 22.1695 17.6891 22.2797 17.4759C22.8285 16.4143 23.2986 15.3934 23.1902 14.3059L19.543 17.9531Z" fill="white"/>
<path fill-rule="evenodd" clip-rule="evenodd" d="M19.5 6.75C14.5294 6.75 10.5 10.7794 10.5 15.75C10.5 20.7206 14.5294 24.75 19.5 24.75C24.4706 24.75 28.5 20.7206 28.5 15.75C28.5 10.7794 24.4706 6.75 19.5 6.75ZM12.6176 15.75C12.6176 11.949 15.699 8.86765 19.5 8.86765C21.0185 8.86765 22.4221 9.3594 23.5603 10.1923L13.9423 19.8103C13.1094 18.6721 12.6176 17.2685 12.6176 15.75ZM15.4398 21.3077C16.5779 22.1406 17.9815 22.6324 19.5 22.6324C23.301 22.6324 26.3824 19.551 26.3824 15.75C26.3824 14.2315 25.8906 12.8279 25.0577 11.6898L15.4398 21.3077Z" fill="white"/>
<path fill-rule="evenodd" clip-rule="evenodd" d="M31.5 26.25C31.5 25.8358 31.1642 25.5 30.75 25.5H8.25C7.83579 25.5 7.5 25.8358 7.5 26.25V27.25C7.5 27.6642 7.96983 28.0514 7.99876 28.4646C7.99958 28.4763 8 28.4881 8 28.5C8 28.5995 7.97091 28.6923 7.92078 28.7702C7.77135 29.0024 7.5 29.2239 7.5 29.5V29.5C7.5 29.7761 7.72386 30 8 30H31C31.2761 30 31.5 29.7761 31.5 29.5V29.5C31.5 29.2239 31.2286 29.0024 31.0792 28.7702C31.0291 28.6923 31 28.5995 31 28.5C31 28.4881 31.0004 28.4763 31.0012 28.4646C31.0302 28.0514 31.5 27.6642 31.5 27.25V26.25ZM9.5 27C9.5 27.2761 9.27614 27.5 9 27.5C8.72386 27.5 8.5 27.2761 8.5 27C8.5 26.7239 8.72386 26.5 9 26.5C9.27614 26.5 9.5 26.7239 9.5 27ZM21.5 27C21.5 27.2761 21.2761 27.5 21 27.5C20.7239 27.5 20.5 27.2761 20.5 27C20.5 26.7239 20.7239 26.5 21 26.5C21.2761 26.5 21.5 26.7239 21.5 27ZM15 27.5C15.2761 27.5 15.5 27.2761 15.5 27C15.5 26.7239 15.2761 26.5 15 26.5C14.7239 26.5 14.5 26.7239 14.5 27C14.5 27.2761 14.7239 27.5 15 27.5ZM27.5 27C27.5 27.2761 27.2761 27.5 27 27.5C26.7239 27.5 26.5 27.2761 26.5 27C26.5 26.7239 26.7239 26.5 27 26.5C27.2761 26.5 27.5 26.7239 27.5 27ZM12 27.5C12.2761 27.5 12.5 27.2761 12.5 27C12.5 26.7239 12.2761 26.5 12 26.5C11.7239 26.5 11.5 26.7239 11.5 27C11.5 27.2761 11.7239 27.5 12 27.5ZM24.5 27C24.5 27.2761 24.2761 27.5 24 27.5C23.7239 27.5 23.5 27.2761 23.5 27C23.5 26.7239 23.7239 26.5 24 26.5C24.2761 26.5 24.5 26.7239 24.5 27ZM18 27.5C18.2761 27.5 18.5 27.2761 18.5 27C18.5 26.7239 18.2761 26.5 18 26.5C17.7239 26.5 17.5 26.7239 17.5 27C17.5 27.2761 17.7239 27.5 18 27.5ZM30.5 27C30.5 27.2761 30.2761 27.5 30 27.5C29.7239 27.5 29.5 27.2761 29.5 27C29.5 26.7239 29.7239 26.5 30 26.5C30.2761 26.5 30.5 26.7239 30.5 27ZM10.5 29C10.7761 29 11 28.7761 11 28.5C11 28.2239 10.7761 28 10.5 28C10.2239 28 10 28.2239 10 28.5C10 28.7761 10.2239 29 10.5 29ZM23 28.5C23 28.7761 22.7761 29 22.5 29C22.2239 29 22 28.7761 22 28.5C22 28.2239 22.2239 28 22.5 28C22.7761 28 23 28.2239 23 28.5ZM16.5 29C16.7761 29 17 28.7761 17 28.5C17 28.2239 16.7761 28 16.5 28C16.2239 28 16 28.2239 16 28.5C16 28.7761 16.2239 29 16.5 29ZM29 28.5C29 28.7761 28.7761 29 28.5 29C28.2239 29 28 28.7761 28 28.5C28 28.2239 28.2239 28 28.5 28C28.7761 28 29 28.2239 29 28.5ZM13.5 29C13.7761 29 14 28.7761 14 28.5C14 28.2239 13.7761 28 13.5 28C13.2239 28 13 28.2239 13 28.5C13 28.7761 13.2239 29 13.5 29ZM26 28.5C26 28.7761 25.7761 29 25.5 29C25.2239 29 25 28.7761 25 28.5C25 28.2239 25.2239 28 25.5 28C25.7761 28 26 28.2239 26 28.5ZM19.5 29C19.7761 29 20 28.7761 20 28.5C20 28.2239 19.7761 28 19.5 28C19.2239 28 19 28.2239 19 28.5C19 28.7761 19.2239 29 19.5 29Z" fill="white"/>
</g>
<defs>
<linearGradient id="paint0_linear_1183_5354" x1="27.124" y1="42.0782" x2="5.85763" y2="7.39691" gradientUnits="userSpaceOnUse">
<stop stop-color="#4054E8"/>
<stop offset="1" stop-color="#5C47FF"/>
</linearGradient>
<clipPath id="clip0_1183_5354">
<rect width="39" height="39" fill="white"/>
</clipPath>
</defs>
</svg>
