<svg width="21" height="20" viewBox="0 0 21 20" fill="none" xmlns="http://www.w3.org/2000/svg">
<path d="M9.50604 0.996991C10.0545 0.44686 10.9455 0.44686 11.494 0.996991V0.996991C11.8959 1.40011 12.5014 1.52057 13.027 1.30193V1.30193C13.7442 1.00356 14.5674 1.34454 14.8636 2.06268V2.06268C15.0806 2.58891 15.594 2.93194 16.1633 2.93108V2.93108C16.9401 2.92989 17.5701 3.55993 17.5689 4.33675V4.33675C17.5681 4.90598 17.9111 5.41936 18.4373 5.6364V5.6364C19.1555 5.93258 19.4964 6.75576 19.1981 7.473V7.473C18.9794 7.99857 19.0999 8.60414 19.503 9.00604V9.00604C20.0531 9.5545 20.0531 10.4455 19.503 10.994V10.994C19.0999 11.3959 18.9794 12.0014 19.1981 12.527V12.527C19.4964 13.2442 19.1555 14.0674 18.4373 14.3636V14.3636C17.9111 14.5806 17.5681 15.094 17.5689 15.6633V15.6633C17.5701 16.4401 16.9401 17.0701 16.1633 17.0689V17.0689C15.594 17.0681 15.0806 17.4111 14.8636 17.9373V17.9373C14.5674 18.6555 13.7442 18.9964 13.027 18.6981V18.6981C12.5014 18.4794 11.8959 18.5999 11.494 19.003V19.003C10.9455 19.5531 10.0545 19.5531 9.50604 19.003V19.003C9.10414 18.5999 8.49857 18.4794 7.973 18.6981V18.6981C7.25576 18.9964 6.43258 18.6555 6.1364 17.9373V17.9373C5.91936 17.4111 5.40598 17.0681 4.83675 17.0689V17.0689C4.05993 17.0701 3.42989 16.4401 3.43108 15.6633V15.6633C3.43194 15.094 3.08891 14.5806 2.56268 14.3636V14.3636C1.84454 14.0674 1.50356 13.2442 1.80193 12.527V12.527C2.02057 12.0014 1.90011 11.3959 1.49699 10.994V10.994C0.94686 10.4455 0.94686 9.5545 1.49699 9.00604V9.00604C1.90011 8.60414 2.02057 7.99857 1.80193 7.473V7.473C1.50356 6.75576 1.84454 5.93258 2.56268 5.6364V5.6364C3.08891 5.41936 3.43194 4.90598 3.43108 4.33675V4.33675C3.42989 3.55993 4.05993 2.92989 4.83675 2.93108V2.93108C5.40598 2.93194 5.91936 2.58891 6.1364 2.06268V2.06268C6.43258 1.34454 7.25576 1.00356 7.973 1.30193V1.30193C8.49857 1.52057 9.10414 1.40011 9.50604 0.996991V0.996991Z" stroke="#4552EC"/>
<rect x="9.5" y="5" width="2" height="10" rx="1" fill="#4552EC"/>
<rect x="15.5" y="9" width="2" height="10" rx="1" transform="rotate(90 15.5 9)" fill="#4552EC"/>
</svg>
