<svg width="70" height="70" viewBox="0 0 70 70" fill="none" xmlns="http://www.w3.org/2000/svg">
<path d="M19.7388 27.9601C19.5045 34.2625 22.5499 41.2651 28.5236 44.0662C31.8032 45.2333 35.3171 44.4163 38.831 44.533C40.9394 44.533 43.1648 44.6497 45.2732 44.8831C47.1473 44.9999 49.0214 45.5834 50.7783 44.9999C51.4811 44.6497 51.8325 43.9495 52.1839 43.3659C53.1209 41.6152 53.5894 39.6312 54.058 37.7638C54.4093 36.3633 54.6436 35.0794 54.8779 33.6789C55.1121 30.8778 59.5631 31.1113 59.5631 33.9123C59.2117 37.0635 58.7432 40.2147 57.8061 43.2492C55.5806 51.419 50.8954 51.8858 43.3991 51.3022C40.2366 51.1855 36.9569 51.4189 33.7944 51.8858C21.0272 54.1033 11.4225 41.3818 10.3684 29.8274C8.72855 22.7081 19.2703 20.724 19.7388 27.9601Z" fill="url(#paint0_linear_295_1802)"/>
<path d="M19.274 27.3766C21.968 27.1431 24.662 27.4933 27.2389 28.427C30.1671 29.4774 32.8611 31.1113 35.6723 32.3951C39.7718 34.3792 44.2228 35.7797 48.7909 35.663C51.1335 35.663 53.3589 35.3129 55.5844 34.8461C58.7469 34.0291 61.9094 32.7453 64.7206 31.1113C69.0544 28.427 64.9548 22.358 60.621 25.2758C53.5932 28.7771 46.6825 29.2439 39.7718 25.3925C36.8436 23.8752 33.9153 22.0079 30.8699 20.724C26.419 18.74 21.3824 18.0397 16.4629 18.6233C14.2374 18.8567 11.8948 19.4402 9.78649 20.1405C7.20962 21.0742 4.51562 22.358 4.51562 25.5092C4.74989 29.8275 9.0837 31.3447 12.4805 29.1272C14.5888 27.8434 16.9314 27.61 19.274 27.3766Z" fill="url(#paint1_linear_295_1802)"/>
<defs>
<linearGradient id="paint0_linear_295_1802" x1="59.3932" y1="52.1397" x2="10.418" y2="23.2256" gradientUnits="userSpaceOnUse">
<stop stop-color="#4054E8"/>
<stop offset="1" stop-color="#5C47FF"/>
</linearGradient>
<linearGradient id="paint1_linear_295_1802" x1="71.3179" y1="27.1665" x2="1.34725" y2="27.1665" gradientUnits="userSpaceOnUse">
<stop stop-color="#538FFF"/>
<stop offset="1" stop-color="#40A1E8"/>
</linearGradient>
</defs>
</svg>
