<svg width="39" height="39" viewBox="0 0 39 39" fill="none" xmlns="http://www.w3.org/2000/svg">
<g clip-path="url(#clip0_1940_8223)">
<path d="M19.0834 0.278309C19.3356 0.109836 19.6644 0.109836 19.9166 0.278309L22.6656 2.1147C22.8309 2.22516 23.0334 2.26544 23.2284 2.22666L26.4709 1.58204C26.7684 1.5229 27.0722 1.64874 27.2407 1.9009L29.0777 4.6495C29.1882 4.81483 29.3598 4.92951 29.5549 4.96833L32.7972 5.61362C33.0947 5.67282 33.3272 5.90535 33.3864 6.2028L34.0317 9.44515C34.0705 9.64018 34.1852 9.81182 34.3505 9.92231L37.0991 11.7593C37.3513 11.9278 37.4771 12.2316 37.418 12.5291L36.7733 15.7716C36.7346 15.9666 36.7748 16.1691 36.8853 16.3344L38.7217 19.0834C38.8902 19.3356 38.8902 19.6644 38.7217 19.9166L36.8853 22.6656C36.7748 22.8309 36.7346 23.0334 36.7733 23.2284L37.418 26.4709C37.4771 26.7684 37.3513 27.0722 37.0991 27.2407L34.3505 29.0777C34.1852 29.1882 34.0705 29.3598 34.0317 29.5549L33.3864 32.7972C33.3272 33.0947 33.0947 33.3272 32.7972 33.3864L29.5549 34.0317C29.3598 34.0705 29.1882 34.1852 29.0777 34.3505L27.2407 37.0991C27.0722 37.3513 26.7684 37.4771 26.4709 37.418L23.2284 36.7733C23.0334 36.7346 22.8309 36.7748 22.6656 36.8853L19.9166 38.7217C19.6644 38.8902 19.3356 38.8902 19.0834 38.7217L16.3344 36.8853C16.1691 36.7748 15.9666 36.7346 15.7716 36.7733L12.5291 37.418C12.2316 37.4771 11.9278 37.3513 11.7593 37.0991L9.92231 34.3505C9.81182 34.1852 9.64018 34.0705 9.44515 34.0317L6.2028 33.3864C5.90535 33.3272 5.67282 33.0947 5.61362 32.7972L4.96833 29.5549C4.92951 29.3598 4.81483 29.1882 4.6495 29.0777L1.9009 27.2407C1.64874 27.0722 1.5229 26.7684 1.58204 26.4709L2.22666 23.2284C2.26544 23.0334 2.22516 22.8309 2.1147 22.6656L0.278309 19.9166C0.109836 19.6644 0.109836 19.3356 0.278309 19.0834L2.1147 16.3344C2.22516 16.1691 2.26544 15.9666 2.22666 15.7716L1.58204 12.5291C1.5229 12.2316 1.64874 11.9278 1.9009 11.7593L4.6495 9.92231C4.81483 9.81182 4.92951 9.64018 4.96833 9.44515L5.61362 6.2028C5.67282 5.90535 5.90535 5.67282 6.2028 5.61362L9.44515 4.96833C9.64018 4.92951 9.81182 4.81483 9.92231 4.6495L11.7593 1.9009C11.9278 1.64874 12.2316 1.5229 12.5291 1.58204L15.7716 2.22666C15.9666 2.26544 16.1691 2.22516 16.3344 2.1147L19.0834 0.278309Z" fill="url(#paint0_linear_1940_8223)"/>
<path fill-rule="evenodd" clip-rule="evenodd" d="M24.0329 11.3951C25.2264 10.2016 27.1614 10.2016 28.3549 11.3951C29.5484 12.5886 29.5484 14.5236 28.3549 15.7171L25.4736 18.5984L25.8338 18.9586C26.6294 19.7542 26.6294 21.0442 25.8338 21.8399C25.0381 22.6355 23.7481 22.6355 22.9525 21.8399L22.5923 21.4797L17.5442 26.5278C16.9065 27.1654 16.0549 27.4598 15.2186 27.4127L13.228 29.4033C12.4324 30.1989 11.1424 30.1989 10.3467 29.4033C9.55109 28.6076 9.55109 27.3176 10.3467 26.522L12.3373 24.5314C12.2902 23.6951 12.5846 22.8435 13.2222 22.2058L18.2703 17.1577L17.9102 16.7976C17.1145 16.0019 17.1145 14.7119 17.9102 13.9163C18.7058 13.1206 19.9958 13.1206 20.7915 13.9163L21.1516 14.2764L24.0329 11.3951ZM14.3156 25.4485L14.3015 25.4345C14.3039 25.4368 14.3062 25.4391 14.3085 25.4415C14.3109 25.4438 14.3132 25.4461 14.3156 25.4485ZM14.8546 22.7345L19.3508 18.2382L21.5118 20.3992L19.1765 22.7345H14.8546Z" fill="white"/>
</g>
<defs>
<linearGradient id="paint0_linear_1940_8223" x1="27.124" y1="42.0782" x2="5.85763" y2="7.39691" gradientUnits="userSpaceOnUse">
<stop stop-color="#4054E8"/>
<stop offset="1" stop-color="#5C47FF"/>
</linearGradient>
<clipPath id="clip0_1940_8223">
<rect width="39" height="39" fill="white"/>
</clipPath>
</defs>
</svg>
