<svg width="24" height="24" viewBox="0 0 24 24" fill="none" xmlns="http://www.w3.org/2000/svg">
<path fill-rule="evenodd" clip-rule="evenodd" d="M4 2C2.89543 2 2 2.89543 2 4V20C2 21.1046 2.89543 22 4 22H20C21.1046 22 22 21.1046 22 20V4C22 2.89543 21.1046 2 20 2H4ZM5 11C4.44772 11 4 11.4477 4 12C4 12.5523 4.44772 13 5 13H19C19.5523 13 20 12.5523 20 12C20 11.4477 19.5523 11 19 11H5ZM7.58569 18L11.116 14.4696C11.6042 13.9815 12.3956 13.9815 12.8838 14.4696L16.4141 18L14.9999 19.4142L11.9999 16.4142L8.99991 19.4142L7.58569 18ZM11.116 9.53036L7.58569 6.00003L8.99991 4.58582L11.9999 7.58582L14.9999 4.58582L16.4141 6.00003L12.8838 9.53036C12.3956 10.0185 11.6042 10.0185 11.116 9.53036Z" fill="#383838"/>
</svg>
