<svg width="24" height="24" viewBox="0 0 24 24" fill="none" xmlns="http://www.w3.org/2000/svg">
<path fill-rule="evenodd" clip-rule="evenodd" d="M14 5C13.4477 5 13 4.55228 13 4C13 3.44772 13.4477 3 14 3H19C19.5523 3 20 3.44772 20 4V9C20 9.55228 19.5523 10 19 10C18.4477 10 18 9.55228 18 9V6.41421L14.2071 10.2071C13.8166 10.5976 13.1834 10.5976 12.7929 10.2071C12.4024 9.81658 12.4024 9.18342 12.7929 8.79289L16.5858 5H14ZM11.2071 11.7929C11.5976 12.1834 11.5976 12.8166 11.2071 13.2071L7.41421 17H10C10.5523 17 11 17.4477 11 18C11 18.5523 10.5523 19 10 19H5C4.44772 19 4 18.5523 4 18V13C4 12.4477 4.44772 12 5 12C5.55228 12 6 12.4477 6 13V15.5858L9.79289 11.7929C10.1834 11.4024 10.8166 11.4024 11.2071 11.7929Z" fill="#383838"/>
</svg>
