<svg width="39" height="39" viewBox="0 0 39 39" fill="none" xmlns="http://www.w3.org/2000/svg">
<g clip-path="url(#clip0_1940_8265)">
<path d="M19.0834 0.278309C19.3356 0.109836 19.6644 0.109836 19.9166 0.278309L22.6656 2.1147C22.8309 2.22516 23.0334 2.26544 23.2284 2.22666L26.4709 1.58204C26.7684 1.5229 27.0722 1.64874 27.2407 1.9009L29.0777 4.6495C29.1882 4.81483 29.3598 4.92951 29.5549 4.96833L32.7972 5.61362C33.0947 5.67282 33.3272 5.90535 33.3864 6.2028L34.0317 9.44515C34.0705 9.64018 34.1852 9.81182 34.3505 9.92231L37.0991 11.7593C37.3513 11.9278 37.4771 12.2316 37.418 12.5291L36.7733 15.7716C36.7346 15.9666 36.7748 16.1691 36.8853 16.3344L38.7217 19.0834C38.8902 19.3356 38.8902 19.6644 38.7217 19.9166L36.8853 22.6656C36.7748 22.8309 36.7346 23.0334 36.7733 23.2284L37.418 26.4709C37.4771 26.7684 37.3513 27.0722 37.0991 27.2407L34.3505 29.0777C34.1852 29.1882 34.0705 29.3598 34.0317 29.5549L33.3864 32.7972C33.3272 33.0947 33.0947 33.3272 32.7972 33.3864L29.5549 34.0317C29.3598 34.0705 29.1882 34.1852 29.0777 34.3505L27.2407 37.0991C27.0722 37.3513 26.7684 37.4771 26.4709 37.418L23.2284 36.7733C23.0334 36.7346 22.8309 36.7748 22.6656 36.8853L19.9166 38.7217C19.6644 38.8902 19.3356 38.8902 19.0834 38.7217L16.3344 36.8853C16.1691 36.7748 15.9666 36.7346 15.7716 36.7733L12.5291 37.418C12.2316 37.4771 11.9278 37.3513 11.7593 37.0991L9.92231 34.3505C9.81182 34.1852 9.64018 34.0705 9.44515 34.0317L6.2028 33.3864C5.90535 33.3272 5.67282 33.0947 5.61362 32.7972L4.96833 29.5549C4.92951 29.3598 4.81483 29.1882 4.6495 29.0777L1.9009 27.2407C1.64874 27.0722 1.5229 26.7684 1.58204 26.4709L2.22666 23.2284C2.26544 23.0334 2.22516 22.8309 2.1147 22.6656L0.278309 19.9166C0.109836 19.6644 0.109836 19.3356 0.278309 19.0834L2.1147 16.3344C2.22516 16.1691 2.26544 15.9666 2.22666 15.7716L1.58204 12.5291C1.5229 12.2316 1.64874 11.9278 1.9009 11.7593L4.6495 9.92231C4.81483 9.81182 4.92951 9.64018 4.96833 9.44515L5.61362 6.2028C5.67282 5.90535 5.90535 5.67282 6.2028 5.61362L9.44515 4.96833C9.64018 4.92951 9.81182 4.81483 9.92231 4.6495L11.7593 1.9009C11.9278 1.64874 12.2316 1.5229 12.5291 1.58204L15.7716 2.22666C15.9666 2.26544 16.1691 2.22516 16.3344 2.1147L19.0834 0.278309Z" fill="url(#paint0_linear_1940_8265)"/>
<path d="M15.8902 9.07875L14.6371 8.25L13.3839 9.07875L11.9058 8.78784L11.0684 10.0283L9.5904 10.3195L9.29624 11.7827L8.04328 12.6117L8.33713 14.075L7.5 15.3156L8.33713 16.5562L8.04328 18.0195L9.29624 18.8485L9.5904 20.3118L11.0684 20.603L11.9058 21.8434L13.3839 21.5525L14.6371 22.3812L15.8902 21.5525L16.3767 21.6482L16.4981 21.0437L15.8491 20.082C15.4399 20.188 15.0104 20.2445 14.5675 20.2445C11.7795 20.2445 9.51929 18.0069 9.51929 15.2468C9.51929 12.4866 11.7795 10.2491 14.5675 10.2491C16.6652 10.2491 18.464 11.5156 19.2263 13.3184L19.7756 13.2102L20.5042 12.1309L19.9779 11.7827L19.6837 10.3195L18.2057 10.0283L17.3683 8.78784L15.8902 9.07875Z" fill="white"/>
<path d="M16.0907 22.5504L16.1915 22.5702L16.1454 22.7997L17.649 23.7945L17.8364 24.7267L17.0284 25.5089C16.7162 25.8111 16.1907 25.6686 16.0777 25.251L15.4597 22.9677L16.0907 22.5504Z" fill="white"/>
<path fill-rule="evenodd" clip-rule="evenodd" d="M18.4901 13.4634L18.002 13.5596L17.649 15.3155L16.1454 16.3103L16.4981 18.0663L15.5601 19.4562C15.2629 19.5209 14.954 19.555 14.6371 19.555C12.2721 19.555 10.3548 17.657 10.3548 15.3156C10.3548 12.9743 12.2721 11.0762 14.6371 11.0762C16.3312 11.0762 17.7956 12.0502 18.4901 13.4634ZM15.3655 15.2658L15.6522 14.6307H13.8062C13.8146 14.6037 13.8234 14.5775 13.8326 14.5521C13.9272 14.2973 14.0616 14.1118 14.2357 13.9956C14.4098 13.8776 14.618 13.8186 14.8602 13.8186C15.0286 13.8186 15.1791 13.8411 15.3115 13.886C15.4459 13.931 15.5613 13.9825 15.6578 14.0406C15.7563 14.0968 15.8357 14.1418 15.8963 14.1755L16.4129 13.0879C16.1991 12.9287 15.9625 12.806 15.7033 12.7198C15.4459 12.6336 15.1649 12.5905 14.8602 12.5905C14.3549 12.5905 13.9074 12.7076 13.5175 12.9418C13.1296 13.176 12.8259 13.5142 12.6063 13.9563C12.5044 14.1615 12.4262 14.3863 12.3716 14.6307H11.7775L11.5362 15.2658H12.2853C12.2798 15.36 12.2771 15.4565 12.2771 15.5553C12.2771 15.6482 12.2795 15.7391 12.2843 15.8279H11.7775L11.5362 16.4798H12.3713C12.4259 16.7247 12.5043 16.9495 12.6063 17.1543C12.8259 17.5927 13.1296 17.9271 13.5175 18.1575C13.9074 18.388 14.3549 18.5032 14.8602 18.5032C15.1535 18.5032 15.4298 18.4629 15.6891 18.3823C15.9502 18.2999 16.1849 18.1772 16.393 18.0142L15.8736 16.9239C15.8187 16.9613 15.743 17.0082 15.6465 17.0644C15.5519 17.1187 15.4383 17.1674 15.3059 17.2105C15.1753 17.2536 15.0267 17.2751 14.8602 17.2751C14.618 17.2751 14.4098 17.2189 14.2357 17.1065C14.0616 16.9941 13.9272 16.8124 13.8326 16.5613C13.823 16.5351 13.8139 16.5079 13.8052 16.4798H14.7665L15.093 15.8279H13.7007C13.6959 15.7413 13.6935 15.6504 13.6935 15.5553C13.6935 15.454 13.6963 15.3576 13.7018 15.2658H15.3655Z" fill="white"/>
<path d="M8.20957 24.0576L8.99572 21.1531L10.4975 21.449L11.4688 22.8878L13.1834 22.5504L13.823 22.9733L13.1732 25.3743C13.0633 25.7802 12.5604 25.9297 12.2428 25.6509L10.9984 24.5584C10.8639 24.4404 10.6811 24.3919 10.5051 24.4276L8.87555 24.7577C8.45972 24.8419 8.09972 24.4635 8.20957 24.0576Z" fill="white"/>
<path d="M25.9649 31.0807L24.9759 27.4267L25.5618 27.0392L27.3355 27.3883L28.3404 25.8998L30.114 25.5504L30.227 24.9883L31.48 29.6177C31.5899 30.0236 31.2299 30.402 30.814 30.3178L28.8718 29.9243C28.6958 29.8886 28.513 29.9371 28.3785 30.0552L26.8952 31.3573C26.5777 31.6361 26.0748 31.4866 25.9649 31.0807Z" fill="white"/>
<path d="M17.207 29.6177L18.2924 25.6076L19.7757 25.8998L20.7805 27.3883L22.5543 27.0392L23.6244 27.747L22.7221 31.0807C22.6122 31.4866 22.1093 31.6361 21.7917 31.3573L20.3085 30.0552C20.174 29.9371 19.9912 29.8886 19.8152 29.9243L17.873 30.3178C17.4571 30.402 17.0971 30.0236 17.207 29.6177Z" fill="white"/>
<path d="M23.9462 19.018V17.7271C23.8465 17.7409 23.757 17.764 23.6777 17.7963C23.5387 17.8509 23.4321 17.9273 23.3578 18.0253C23.2855 18.1233 23.2493 18.2345 23.2493 18.3589C23.2455 18.4626 23.2674 18.5531 23.315 18.6304C23.3645 18.7077 23.4321 18.7746 23.5178 18.8311C23.6034 18.8858 23.7024 18.9339 23.8148 18.9753C23.8575 18.9904 23.9013 19.0046 23.9462 19.018Z" fill="white"/>
<path d="M24.4146 21.598C24.524 21.5834 24.624 21.5584 24.7145 21.523C24.8706 21.4627 24.9915 21.3788 25.0772 21.2713C25.1629 21.1639 25.2057 21.0404 25.2057 20.9009C25.2057 20.7708 25.1667 20.6615 25.0886 20.5729C25.0125 20.4843 24.9001 20.4089 24.7516 20.3467C24.654 20.3053 24.5417 20.2664 24.4146 20.23V21.598Z" fill="white"/>
<path fill-rule="evenodd" clip-rule="evenodd" d="M28.6257 19.555C28.6257 22.0524 26.5807 24.077 24.058 24.077C21.5353 24.077 19.4903 22.0524 19.4903 19.555C19.4903 17.0576 21.5353 15.033 24.058 15.033C26.5807 15.033 28.6257 17.0576 28.6257 19.555ZM23.9462 23.2817V22.6336C23.572 22.6132 23.2398 22.5437 22.9494 22.425C22.6009 22.2817 22.3286 22.0696 22.1325 21.7888C21.9383 21.506 21.8364 21.1563 21.8269 20.7397H23.0236C23.037 20.9339 23.0931 21.096 23.1921 21.2261C23.2931 21.3543 23.4273 21.4513 23.5949 21.5173C23.703 21.5582 23.8202 21.5861 23.9462 21.6009V20.111L23.5749 20.0187C23.0817 19.9 22.6923 19.7143 22.4067 19.4617C22.1211 19.2091 21.9792 18.8688 21.9811 18.4409C21.9792 18.0903 22.0735 17.784 22.2639 17.522C22.4562 17.26 22.7199 17.0554 23.0551 16.9084C23.3229 16.7909 23.6199 16.7203 23.9462 16.6967V16.0432H24.4146V16.6942C24.7592 16.715 25.0657 16.7864 25.3343 16.9084C25.6599 17.0554 25.9131 17.26 26.094 17.522C26.2749 17.784 26.3682 18.0875 26.3739 18.4325H25.1886C25.1658 18.2044 25.0677 18.0272 24.8944 17.9009C24.7676 17.8084 24.6077 17.7498 24.4146 17.7251V19.1339L24.7002 19.2015C24.9554 19.2581 25.1896 19.3335 25.4028 19.4278C25.6161 19.522 25.8008 19.6379 25.9569 19.7755C26.113 19.9132 26.234 20.0753 26.3196 20.2619C26.4072 20.4485 26.452 20.6625 26.4539 20.9037C26.452 21.2581 26.3606 21.5654 26.1797 21.8255C26.0007 22.0838 25.7417 22.2845 25.4028 22.4278C25.1217 22.5457 24.7923 22.6144 24.4146 22.634V23.2817H23.9462Z" fill="white"/>
<path fill-rule="evenodd" clip-rule="evenodd" d="M25.3613 13.0686L24.058 12.2067L22.7547 13.0686L21.2175 12.7661L20.3466 14.0561L18.8095 14.359L18.5035 15.8808L17.2005 16.7429L17.5061 18.2648L16.6354 19.555L17.5061 20.8452L17.2005 22.367L18.5035 23.2292L18.8095 24.751L20.3466 25.0538L21.2175 26.3439L22.7547 26.0413L24.058 26.9032L25.3613 26.0413L26.8985 26.3439L27.7694 25.0538L29.3065 24.751L29.6125 23.2292L30.9155 22.367L30.6099 20.8452L31.4805 19.555L30.6099 18.2648L30.9155 16.7429L29.6125 15.8808L29.3065 14.359L27.7694 14.0561L26.8985 12.7661L25.3613 13.0686ZM24.058 24.9249C27.0537 24.9249 29.4822 22.5207 29.4822 19.555C29.4822 16.5893 27.0537 14.1851 24.058 14.1851C21.0623 14.1851 18.6338 16.5893 18.6338 19.555C18.6338 22.5207 21.0623 24.9249 24.058 24.9249Z" fill="white"/>
</g>
<defs>
<linearGradient id="paint0_linear_1940_8265" x1="27.124" y1="42.0782" x2="5.85763" y2="7.39691" gradientUnits="userSpaceOnUse">
<stop stop-color="#4054E8"/>
<stop offset="1" stop-color="#5C47FF"/>
</linearGradient>
<clipPath id="clip0_1940_8265">
<rect width="39" height="39" fill="white"/>
</clipPath>
</defs>
</svg>
