<svg width="39" height="39" viewBox="0 0 39 39" fill="none" xmlns="http://www.w3.org/2000/svg">
<g clip-path="url(#clip0_1940_8255)">
<path d="M19.0834 0.278309C19.3356 0.109836 19.6644 0.109836 19.9166 0.278309L22.6656 2.1147C22.8309 2.22516 23.0334 2.26544 23.2284 2.22666L26.4709 1.58204C26.7684 1.5229 27.0722 1.64874 27.2407 1.9009L29.0777 4.6495C29.1882 4.81483 29.3598 4.92951 29.5549 4.96833L32.7972 5.61362C33.0947 5.67282 33.3272 5.90535 33.3864 6.2028L34.0317 9.44515C34.0705 9.64018 34.1852 9.81182 34.3505 9.92231L37.0991 11.7593C37.3513 11.9278 37.4771 12.2316 37.418 12.5291L36.7733 15.7716C36.7346 15.9666 36.7748 16.1691 36.8853 16.3344L38.7217 19.0834C38.8902 19.3356 38.8902 19.6644 38.7217 19.9166L36.8853 22.6656C36.7748 22.8309 36.7346 23.0334 36.7733 23.2284L37.418 26.4709C37.4771 26.7684 37.3513 27.0722 37.0991 27.2407L34.3505 29.0777C34.1852 29.1882 34.0705 29.3598 34.0317 29.5549L33.3864 32.7972C33.3272 33.0947 33.0947 33.3272 32.7972 33.3864L29.5549 34.0317C29.3598 34.0705 29.1882 34.1852 29.0777 34.3505L27.2407 37.0991C27.0722 37.3513 26.7684 37.4771 26.4709 37.418L23.2284 36.7733C23.0334 36.7346 22.8309 36.7748 22.6656 36.8853L19.9166 38.7217C19.6644 38.8902 19.3356 38.8902 19.0834 38.7217L16.3344 36.8853C16.1691 36.7748 15.9666 36.7346 15.7716 36.7733L12.5291 37.418C12.2316 37.4771 11.9278 37.3513 11.7593 37.0991L9.92231 34.3505C9.81182 34.1852 9.64018 34.0705 9.44515 34.0317L6.2028 33.3864C5.90535 33.3272 5.67282 33.0947 5.61362 32.7972L4.96833 29.5549C4.92951 29.3598 4.81483 29.1882 4.6495 29.0777L1.9009 27.2407C1.64874 27.0722 1.5229 26.7684 1.58204 26.4709L2.22666 23.2284C2.26544 23.0334 2.22516 22.8309 2.1147 22.6656L0.278309 19.9166C0.109836 19.6644 0.109836 19.3356 0.278309 19.0834L2.1147 16.3344C2.22516 16.1691 2.26544 15.9666 2.22666 15.7716L1.58204 12.5291C1.5229 12.2316 1.64874 11.9278 1.9009 11.7593L4.6495 9.92231C4.81483 9.81182 4.92951 9.64018 4.96833 9.44515L5.61362 6.2028C5.67282 5.90535 5.90535 5.67282 6.2028 5.61362L9.44515 4.96833C9.64018 4.92951 9.81182 4.81483 9.92231 4.6495L11.7593 1.9009C11.9278 1.64874 12.2316 1.5229 12.5291 1.58204L15.7716 2.22666C15.9666 2.26544 16.1691 2.22516 16.3344 2.1147L19.0834 0.278309Z" fill="url(#paint0_linear_1940_8255)"/>
<path fill-rule="evenodd" clip-rule="evenodd" d="M10.5 11.3886C10.5 10.0694 11.5604 9 12.8684 9H23.0358C23.3499 9 23.6511 9.12583 23.8732 9.3498L26.7321 12.2331C26.9542 12.457 27.0789 12.7608 27.0789 13.0775V19.1514H25.4921C25.1221 19.1514 24.771 19.2674 24.4796 19.4681C24.1979 19.662 23.6883 19.9955 23.3438 20.149C22.8802 20.3556 22.1023 20.5061 21.5237 20.5896C20.6642 20.7136 19.9737 21.4534 19.9737 22.3814V26.2643C19.9737 27.3765 20.0542 28.6817 20.5384 29.9H12.8684C11.5604 29.9 10.5 28.8306 10.5 27.5114V11.3886ZM18.4934 11.3886C18.1664 11.3886 17.9013 11.6559 17.9013 11.9857V14.0757H15.8289C15.5019 14.0757 15.2368 14.3431 15.2368 14.6728V15.27C15.2368 15.5998 15.5019 15.8671 15.8289 15.8671H17.9013V17.9571C17.9013 18.2869 18.1664 18.5543 18.4934 18.5543H19.0855C19.4125 18.5543 19.6776 18.2869 19.6776 17.9571V15.8671H21.75C22.077 15.8671 22.3421 15.5998 22.3421 15.27V14.6728C22.3421 14.3431 22.077 14.0757 21.75 14.0757H19.6776V11.9857C19.6776 11.6559 19.4125 11.3886 19.0855 11.3886H18.4934ZM12.8684 21.54C12.8684 21.2102 13.1335 20.9428 13.4605 20.9428H18.1974C18.5244 20.9428 18.7895 21.2102 18.7895 21.54C18.7895 21.8698 18.5244 22.1371 18.1974 22.1371H13.4605C13.1335 22.1371 12.8684 21.8698 12.8684 21.54ZM12.8684 23.9285C12.8684 23.5988 13.1335 23.3314 13.4605 23.3314H16.4211C16.7481 23.3314 17.0132 23.5988 17.0132 23.9285C17.0132 24.2583 16.7481 24.5257 16.4211 24.5257H13.4605C13.1335 24.5257 12.8684 24.2583 12.8684 23.9285ZM13.4605 25.72C13.1335 25.72 12.8684 25.9873 12.8684 26.3171C12.8684 26.6469 13.1335 26.9143 13.4605 26.9143H17.6053C17.9323 26.9143 18.1974 26.6469 18.1974 26.3171C18.1974 25.9873 17.9323 25.72 17.6053 25.72H13.4605Z" fill="white"/>
<path fill-rule="evenodd" clip-rule="evenodd" d="M22.3421 23.5757C22.3421 23.2679 22.574 23.0098 22.8758 22.9636C23.3396 22.8924 24.0084 22.7625 24.4737 22.5551C24.8225 22.3997 25.27 22.1058 25.5023 21.947C25.6043 21.8773 25.7241 21.8385 25.8473 21.8385H28.3105C28.4338 21.8385 28.5536 21.8773 28.6556 21.947C28.8879 22.1058 29.3354 22.3997 29.6842 22.5551C30.1495 22.7625 30.8183 22.8924 31.2821 22.9636C31.5839 23.0098 31.8158 23.2679 31.8158 23.5757V26.1448C31.8158 27.5621 31.6817 29.0506 30.8179 30.1685C30.6928 30.3305 30.5533 30.4972 30.3947 30.6762C29.5437 31.6375 27.8209 32.3195 27.2599 32.5236C27.142 32.5665 27.0159 32.5665 26.898 32.5236C26.337 32.3195 24.6142 31.6375 23.7632 30.6762C23.6046 30.4972 23.4651 30.3305 23.34 30.1685C22.4762 29.0506 22.3421 27.5621 22.3421 26.1448V23.5757ZM26.7829 23.63C26.4559 23.63 26.1908 23.8973 26.1908 24.2271V25.72H24.7105C24.3835 25.72 24.1184 25.9873 24.1184 26.3171V26.9143C24.1184 27.244 24.3835 27.5114 24.7105 27.5114H26.1908V29.0042C26.1908 29.334 26.4559 29.6014 26.7829 29.6014H27.375C27.702 29.6014 27.9671 29.334 27.9671 29.0042V27.5114H29.4474C29.7744 27.5114 30.0395 27.244 30.0395 26.9143V26.3171C30.0395 25.9873 29.7744 25.72 29.4474 25.72H27.9671V24.2271C27.9671 23.8973 27.702 23.63 27.375 23.63H26.7829Z" fill="white"/>
<path fill-rule="evenodd" clip-rule="evenodd" d="M21.6915 21.7718C21.3893 21.8154 21.1579 22.0736 21.1579 22.3814V26.2643C21.1579 27.6815 21.3042 29.152 22.0923 30.3254C22.3225 30.6681 22.5931 31.0075 22.9342 31.3928C24.0217 32.6212 26.2481 33.4848 26.8974 33.7182C27.0155 33.7606 27.1424 33.7606 27.2605 33.7182C27.9098 33.4848 30.1362 32.6212 31.2237 31.3928C31.5648 31.0075 31.8354 30.6681 32.0656 30.3254C32.8537 29.152 33 27.6815 33 26.2643V22.3814C33 22.0736 32.7686 21.8154 32.4664 21.7718C31.888 21.6883 30.9635 21.5213 30.3355 21.2414C29.879 21.038 29.2872 20.6449 29.0105 20.4544C28.9088 20.3843 28.789 20.3457 28.6658 20.3457H25.4921C25.3689 20.3457 25.2491 20.3843 25.1473 20.4544C24.8707 20.6449 24.2789 21.038 23.8224 21.2414C23.1944 21.5213 22.2699 21.6883 21.6915 21.7718ZM22.2846 22.5012C21.9823 22.5455 21.75 22.8038 21.75 23.1119V26.2392C21.75 27.6728 21.8917 29.172 22.7399 30.3224C22.9135 30.5578 23.1123 30.7973 23.3487 31.0611C24.3184 32.1429 26.2945 32.9065 26.8991 33.1222C27.016 33.1639 27.1419 33.1639 27.2588 33.1222C27.8634 32.9065 29.8395 32.1429 30.8092 31.0611C31.0456 30.7973 31.2444 30.5578 31.418 30.3224C32.2662 29.172 32.4079 27.6727 32.4079 26.2392V23.1119C32.4079 22.8038 32.1756 22.5455 31.8733 22.5012C31.3506 22.4246 30.5558 22.2779 30.0099 22.0376C29.607 21.8603 29.0869 21.5208 28.8321 21.348C28.7309 21.2794 28.6121 21.2414 28.4901 21.2414H25.6678C25.5458 21.2414 25.427 21.2794 25.3258 21.348C25.071 21.5208 24.5509 21.8603 24.148 22.0376C23.6021 22.2779 22.8073 22.4246 22.2846 22.5012Z" fill="white"/>
</g>
<defs>
<linearGradient id="paint0_linear_1940_8255" x1="27.124" y1="42.0782" x2="5.85763" y2="7.39691" gradientUnits="userSpaceOnUse">
<stop stop-color="#4054E8"/>
<stop offset="1" stop-color="#5C47FF"/>
</linearGradient>
<clipPath id="clip0_1940_8255">
<rect width="39" height="39" fill="white"/>
</clipPath>
</defs>
</svg>
