<svg width="39" height="39" viewBox="0 0 39 39" fill="none" xmlns="http://www.w3.org/2000/svg">
<g clip-path="url(#clip0_1940_8234)">
<path d="M19.0834 0.278309C19.3356 0.109836 19.6644 0.109836 19.9166 0.278309L22.6656 2.1147C22.8309 2.22516 23.0334 2.26544 23.2284 2.22666L26.4709 1.58204C26.7684 1.5229 27.0722 1.64874 27.2407 1.9009L29.0777 4.6495C29.1882 4.81483 29.3598 4.92951 29.5549 4.96833L32.7972 5.61362C33.0947 5.67282 33.3272 5.90535 33.3864 6.2028L34.0317 9.44515C34.0705 9.64018 34.1852 9.81182 34.3505 9.92231L37.0991 11.7593C37.3513 11.9278 37.4771 12.2316 37.418 12.5291L36.7733 15.7716C36.7346 15.9666 36.7748 16.1691 36.8853 16.3344L38.7217 19.0834C38.8902 19.3356 38.8902 19.6644 38.7217 19.9166L36.8853 22.6656C36.7748 22.8309 36.7346 23.0334 36.7733 23.2284L37.418 26.4709C37.4771 26.7684 37.3513 27.0722 37.0991 27.2407L34.3505 29.0777C34.1852 29.1882 34.0705 29.3598 34.0317 29.5549L33.3864 32.7972C33.3272 33.0947 33.0947 33.3272 32.7972 33.3864L29.5549 34.0317C29.3598 34.0705 29.1882 34.1852 29.0777 34.3505L27.2407 37.0991C27.0722 37.3513 26.7684 37.4771 26.4709 37.418L23.2284 36.7733C23.0334 36.7346 22.8309 36.7748 22.6656 36.8853L19.9166 38.7217C19.6644 38.8902 19.3356 38.8902 19.0834 38.7217L16.3344 36.8853C16.1691 36.7748 15.9666 36.7346 15.7716 36.7733L12.5291 37.418C12.2316 37.4771 11.9278 37.3513 11.7593 37.0991L9.92231 34.3505C9.81182 34.1852 9.64018 34.0705 9.44515 34.0317L6.2028 33.3864C5.90535 33.3272 5.67282 33.0947 5.61362 32.7972L4.96833 29.5549C4.92951 29.3598 4.81483 29.1882 4.6495 29.0777L1.9009 27.2407C1.64874 27.0722 1.5229 26.7684 1.58204 26.4709L2.22666 23.2284C2.26544 23.0334 2.22516 22.8309 2.1147 22.6656L0.278309 19.9166C0.109836 19.6644 0.109836 19.3356 0.278309 19.0834L2.1147 16.3344C2.22516 16.1691 2.26544 15.9666 2.22666 15.7716L1.58204 12.5291C1.5229 12.2316 1.64874 11.9278 1.9009 11.7593L4.6495 9.92231C4.81483 9.81182 4.92951 9.64018 4.96833 9.44515L5.61362 6.2028C5.67282 5.90535 5.90535 5.67282 6.2028 5.61362L9.44515 4.96833C9.64018 4.92951 9.81182 4.81483 9.92231 4.6495L11.7593 1.9009C11.9278 1.64874 12.2316 1.5229 12.5291 1.58204L15.7716 2.22666C15.9666 2.26544 16.1691 2.22516 16.3344 2.1147L19.0834 0.278309Z" fill="url(#paint0_linear_1940_8234)"/>
<path fill-rule="evenodd" clip-rule="evenodd" d="M25.3125 27.9923C27.4871 27.9923 29.25 26.148 29.25 23.8731C29.25 21.5981 27.4871 19.7538 25.3125 19.7538C23.1379 19.7538 21.375 21.5981 21.375 23.8731C21.375 26.148 23.1379 27.9923 25.3125 27.9923ZM27.4104 23.6871C27.6228 23.45 27.6114 23.0776 27.3847 22.8553C27.1581 22.633 26.8021 22.645 26.5896 22.8821L24.8906 24.778L24.0354 23.8237C23.8229 23.5866 23.4669 23.5745 23.2403 23.7968C23.0136 24.0191 23.0022 24.3915 23.2146 24.6286L24.0699 25.583C24.5144 26.079 25.2669 26.079 25.7114 25.583L27.4104 23.6871Z" fill="white"/>
<path fill-rule="evenodd" clip-rule="evenodd" d="M13.5 9.75C12.2574 9.75 11.25 10.8039 11.25 12.1038L11.25 27.9923C11.25 29.2923 12.2574 30.3461 13.5 30.3461H21.375V27.2022C20.6714 26.2926 20.25 25.1343 20.25 23.8731C20.25 20.9481 22.5166 18.5769 25.3125 18.5769C26.1207 18.5769 26.8847 18.775 27.5625 19.1274V12.1038C27.5625 10.8039 26.5551 9.75 25.3125 9.75L13.5 9.75ZM14.625 14.4577C14.625 14.1327 14.8768 13.8692 15.1875 13.8692L23.0625 13.8692C23.3732 13.8692 23.625 14.1327 23.625 14.4577C23.625 14.7827 23.3732 15.0461 23.0625 15.0461L15.1875 15.0461C14.8768 15.0461 14.625 14.7827 14.625 14.4577ZM14.625 16.8115C14.625 16.4865 14.8768 16.2231 15.1875 16.2231H24.1875C24.4982 16.2231 24.75 16.4865 24.75 16.8115C24.75 17.1365 24.4982 17.4 24.1875 17.4H15.1875C14.8768 17.4 14.625 17.1365 14.625 16.8115ZM15.1875 18.5769C14.8768 18.5769 14.625 18.8404 14.625 19.1654C14.625 19.4904 14.8768 19.7538 15.1875 19.7538H19.6875C19.9982 19.7538 20.25 19.4904 20.25 19.1654C20.25 18.8404 19.9982 18.5769 19.6875 18.5769H15.1875ZM14.625 21.5192C14.625 21.1942 14.8768 20.9308 15.1875 20.9308H18C18.3107 20.9308 18.5625 21.1942 18.5625 21.5192C18.5625 21.8442 18.3107 22.1077 18 22.1077H15.1875C14.8768 22.1077 14.625 21.8442 14.625 21.5192ZM15.1875 23.2846C14.8768 23.2846 14.625 23.5481 14.625 23.8731C14.625 24.1981 14.8768 24.4615 15.1875 24.4615H17.4375C17.7482 24.4615 18 24.1981 18 23.8731C18 23.5481 17.7482 23.2846 17.4375 23.2846H15.1875Z" fill="white"/>
<path d="M28.125 28.2774C27.3206 28.8407 26.3532 29.1692 25.3125 29.1692C24.2718 29.1692 23.3044 28.8407 22.5 28.2774V31.6606C22.5 32.118 22.977 32.4006 23.3519 32.1652L25.0231 31.1162C25.2012 31.0044 25.4238 31.0044 25.6019 31.1162L27.2731 32.1652C27.648 32.4006 28.125 32.118 28.125 31.6606V28.2774Z" fill="white"/>
</g>
<defs>
<linearGradient id="paint0_linear_1940_8234" x1="27.124" y1="42.0782" x2="5.85763" y2="7.39691" gradientUnits="userSpaceOnUse">
<stop stop-color="#4054E8"/>
<stop offset="1" stop-color="#5C47FF"/>
</linearGradient>
<clipPath id="clip0_1940_8234">
<rect width="39" height="39" fill="white"/>
</clipPath>
</defs>
</svg>
