<svg width="24" height="24" viewBox="0 0 24 24" fill="none" xmlns="http://www.w3.org/2000/svg">
<path d="M12 2C17.5228 2 22 6.47715 22 12C22 17.5228 17.5228 22 12 22C6.47715 22 2 17.5228 2 12C2 6.47715 6.47715 2 12 2ZM16.4415 8C16.0606 8.00676 15.4761 8.20741 12.6631 9.3625C11.678 9.76705 9.70898 10.6044 6.75619 11.8745C6.27671 12.0627 6.02553 12.2469 6.00267 12.427C5.95877 12.7727 6.46291 12.8803 7.09724 13.0839C7.6144 13.2498 8.31008 13.444 8.67173 13.4517C8.99979 13.4587 9.36594 13.3252 9.77017 13.0512C12.5291 11.2125 13.9532 10.2832 14.0426 10.2632C14.1057 10.2491 14.1931 10.2313 14.2523 10.2833C14.3115 10.3352 14.3057 10.4336 14.2995 10.4601C14.2493 10.6712 11.6576 12.9985 11.5085 13.1514L11.437 13.2233C10.8874 13.7661 10.332 14.1205 11.2903 14.744C12.1557 15.307 12.6593 15.6661 13.5508 16.2431C14.1205 16.6118 14.5671 17.049 15.1553 16.9955C15.426 16.971 15.7056 16.7197 15.8476 15.9703C16.1831 14.1993 16.8427 10.3621 16.9951 8.78087C17.0085 8.64234 16.9917 8.46504 16.9782 8.38721C16.9647 8.30938 16.9365 8.19849 16.834 8.1164C16.7127 8.01918 16.5253 7.99868 16.4415 8Z" fill="#5D5F69"/>
</svg>
