<svg width="24" height="24" viewBox="0 0 24 24" fill="none" xmlns="http://www.w3.org/2000/svg">
<path fill-rule="evenodd" clip-rule="evenodd" d="M5.68526 4.64271C5.71859 6.14941 5.73894 6.33838 5.93092 6.92492C6.04603 7.27674 6.27719 7.77549 6.44463 8.03326C6.61207 8.2911 7.34824 9.2145 8.08061 10.0853C8.81298 10.9559 9.46009 11.7831 9.51875 11.9234C9.57733 12.0636 9.62523 12.3327 9.62523 12.5215C9.62523 12.7663 9.55952 12.9658 9.39612 13.2168C9.27009 13.4103 8.57667 14.2812 7.85522 15.1521C7.03062 16.1474 6.43853 16.9412 6.26088 17.2896C6.10548 17.5944 5.92213 18.0397 5.85341 18.2792C5.76546 18.5855 5.71669 19.2016 5.68867 20.3573L5.64893 22H12.0002H18.3515L18.3118 20.3573C18.2838 19.2016 18.235 18.5855 18.147 18.2792C18.0783 18.0397 17.895 17.5944 17.7396 17.2896C17.5619 16.9412 16.9698 16.1474 16.1452 15.1521C15.4238 14.2812 14.7304 13.4103 14.6043 13.2168C14.4409 12.9658 14.3752 12.7663 14.3752 12.5215C14.3752 12.3327 14.4231 12.0636 14.4817 11.9234C14.5404 11.7831 15.1875 10.9559 15.9199 10.0853C16.6522 9.2145 17.3884 8.2911 17.5558 8.03326C17.7233 7.77549 17.9544 7.27674 18.0695 6.92492C18.2615 6.33838 18.2819 6.14941 18.3152 4.64271L18.3515 3H12.0002H5.64893L5.68526 4.64271ZM16.7213 5.86718C16.6919 6.1487 16.5734 6.56385 16.4444 6.83697C16.3204 7.09965 15.9911 7.59016 15.7127 7.92694L15.2065 8.53921H12.0002H8.79398L8.28779 7.92694C8.00936 7.59016 7.68011 7.09965 7.55605 6.83697C7.42709 6.56385 7.30858 6.1487 7.27913 5.86718L7.22767 5.375H12.0002H16.7728L16.7213 5.86718ZM11.2086 13.6875V14.0833H12.0002H12.7919V13.6875C12.7919 13.4698 12.8201 13.2917 12.8546 13.2917C12.889 13.2917 13.0132 13.4965 13.1306 13.7469C13.2638 14.0312 13.8648 14.8264 14.731 15.8646C15.6612 16.9794 16.2113 17.7125 16.4011 18.0898C16.5962 18.4777 16.6977 18.8036 16.7281 19.1388L16.7722 19.625H16.3344C15.939 19.625 15.8594 19.594 15.512 19.3047C15.3004 19.1285 14.8779 18.8613 14.5731 18.7109C14.2684 18.5604 13.734 18.3621 13.3856 18.2702C12.954 18.1563 12.5128 18.1031 12.0002 18.1031C11.4877 18.1031 11.0464 18.1563 10.6148 18.2702C10.2665 18.3621 9.73211 18.5604 9.42731 18.7109C9.12252 18.8613 8.70009 19.1285 8.48848 19.3047C8.14101 19.594 8.06145 19.625 7.66601 19.625H7.22822L7.27232 19.1388C7.30272 18.8036 7.40429 18.4777 7.59936 18.0898C7.78912 17.7125 8.33925 16.9794 9.26946 15.8646C10.1357 14.8264 10.7367 14.0312 10.8699 13.7469C10.9872 13.4965 11.1114 13.2917 11.1459 13.2917C11.1804 13.2917 11.2086 13.4698 11.2086 13.6875ZM11.2086 15.2708V15.6667H12.0002H12.7919V15.2708V14.875H12.0002H11.2086V15.2708ZM11.2086 16.8542V17.25H12.0002H12.7919V16.8542V16.4583H12.0002H11.2086V16.8542Z" fill="#383838"/>
</svg>
