<svg width="24" height="24" viewBox="0 0 24 24" fill="none" xmlns="http://www.w3.org/2000/svg">
<path fill-rule="evenodd" clip-rule="evenodd" d="M18.6931 3.32175C18.3755 3.51205 17.7585 3.80423 17.3218 3.97113C16.8852 4.13804 16.0937 4.36773 15.5629 4.48157C15.032 4.5954 13.852 4.73212 12.9405 4.78539C12.0292 4.83867 10.6214 4.88302 9.81225 4.88414C9.00296 4.88515 7.92703 4.93468 7.42115 4.99402C6.91538 5.05337 6.17009 5.1908 5.76506 5.29947C5.36003 5.40804 4.7077 5.65698 4.31547 5.85254C3.92324 6.0481 3.33634 6.40794 3.01128 6.65201C2.68622 6.89609 2.36588 7.16488 2.29929 7.24934C2.19854 7.37715 2.47019 8.07626 3.92642 11.4361C4.88794 13.6544 5.70367 15.5026 5.73937 15.5432C5.77497 15.5839 6.04682 15.4359 6.34349 15.2144C6.64016 14.9929 7.1801 14.6573 7.54346 14.4684C7.90692 14.2796 8.51345 14.0284 8.89143 13.9101C9.26942 13.7918 10.0251 13.6248 10.5707 13.5389C11.1623 13.4458 12.8271 13.3463 14.6949 13.2924C16.8065 13.2314 18.1249 13.1477 18.7412 13.0352C19.244 12.9436 19.9802 12.7555 20.3771 12.6174C20.774 12.4792 21.4236 12.1838 21.8205 11.9609C22.2175 11.7381 22.6452 11.4672 22.7711 11.359L23 11.1622L21.2268 7.09419C20.2515 4.85669 19.4124 3.01478 19.362 3.00091C19.3117 2.98714 19.0106 3.13145 18.6931 3.32175ZM17.8543 5.93802C18.1039 6.07099 18.4858 6.23577 18.703 6.30413C19.0924 6.42667 19.1061 6.44734 19.7204 7.85133L20.3431 9.27425L19.9752 10.0227C19.7729 10.4343 19.6073 10.8384 19.6073 10.9206C19.6073 11.0029 19.5532 11.0919 19.487 11.1183C19.4209 11.1446 19.0636 11.2376 18.6931 11.3247C18.1998 11.4408 17.079 11.5071 14.5071 11.5724C12.1689 11.6318 10.7053 11.7133 10.1287 11.8163C9.65241 11.9015 8.97563 12.0555 8.62478 12.1588C8.00007 12.3426 7.97736 12.3425 7.51815 12.1512C7.26036 12.0437 6.77392 11.9018 6.43712 11.8356L5.82491 11.7154L5.30297 10.5061L4.78102 9.29664L5.03122 8.81284C5.16883 8.54669 5.37735 8.04719 5.49446 7.70275C5.67316 7.17733 5.75342 7.06269 5.99351 6.99018C6.15084 6.94258 6.60437 6.8332 7.00131 6.74711C7.5069 6.63743 8.70292 6.56502 10.9948 6.50526C13.1774 6.44825 14.5549 6.36733 15.1326 6.262C15.609 6.1751 16.2802 6.01742 16.6242 5.91169C16.9682 5.80585 17.2835 5.7141 17.325 5.70772C17.3665 5.70144 17.6047 5.80504 17.8543 5.93802ZM11.101 7.34363C10.8948 7.4681 10.6459 7.72868 10.5477 7.92273C10.4496 8.11687 10.3693 8.45564 10.3693 8.67571C10.3693 8.89568 10.4596 9.27192 10.5699 9.51164C10.6801 9.75137 10.964 10.127 11.2006 10.3463C11.4374 10.5655 11.8311 10.8167 12.0758 10.9044C12.3204 10.9921 12.741 11.0639 13.0102 11.0639C13.3018 11.0639 13.6353 10.988 13.8351 10.8763C14.0195 10.7732 14.2677 10.5386 14.3869 10.3551C14.5386 10.1209 14.6034 9.8731 14.6034 9.52572C14.6034 9.23344 14.526 8.87067 14.4147 8.64097C14.3108 8.42678 14.0844 8.10269 13.9115 7.9206C13.7385 7.73861 13.3795 7.48319 13.1139 7.35295C12.7755 7.18706 12.4577 7.11636 12.0533 7.11677C11.6327 7.11728 11.3741 7.17885 11.101 7.34363ZM12.1014 7.71541C12.1014 7.76757 12.2418 7.82449 12.4134 7.84201C12.6189 7.86287 12.7362 7.93417 12.7572 8.05094C12.779 8.17166 12.728 8.22817 12.5975 8.22817C12.4921 8.22817 12.3374 8.25582 12.2537 8.28965C12.1699 8.32347 12.1014 8.4125 12.1014 8.48744C12.1014 8.56238 12.2639 8.67126 12.4623 8.72919C12.6608 8.78722 12.871 8.83492 12.9294 8.83522C12.9878 8.83553 13.1502 8.94764 13.2902 9.08416C13.4343 9.22473 13.5449 9.44207 13.5449 9.58487C13.5449 9.72666 13.456 9.90257 13.342 9.98663C13.2289 10.07 13.1692 10.1875 13.2071 10.2521C13.256 10.3353 13.1709 10.3493 12.9047 10.3019C12.7011 10.2656 12.4633 10.2157 12.3765 10.1909C12.2896 10.166 12.1961 10.0561 12.169 9.94653C12.1261 9.77395 12.1689 9.74731 12.4897 9.74731C12.6933 9.74731 12.8907 9.69485 12.9284 9.63064C12.966 9.56654 12.9171 9.4526 12.8195 9.37745C12.7218 9.30241 12.517 9.24093 12.3643 9.24093C12.1857 9.24093 11.9862 9.1353 11.8053 8.94491C11.6506 8.78205 11.5241 8.56127 11.5241 8.45422C11.5241 8.34717 11.6089 8.17875 11.7127 8.07991C11.8164 7.98106 11.8979 7.87148 11.8938 7.83634C11.8896 7.80119 11.8913 7.7382 11.8976 7.69647C11.9039 7.65475 11.9523 7.62052 12.0052 7.62052C12.0581 7.62052 12.1014 7.66315 12.1014 7.71541ZM0.635302 10.3297L0 11.0133L1.76483 15.1149C2.73559 17.3709 3.70317 19.6179 3.91516 20.1084L4.30056 21L5.19375 20.1703C5.68509 19.714 6.40816 19.1126 6.80048 18.8339C7.1929 18.5552 7.91712 18.1263 8.40981 17.8806C8.9024 17.635 9.71034 17.3259 10.2051 17.1938C10.7 17.0618 11.5347 16.9066 12.0602 16.8492C12.5857 16.7917 14.1162 16.7195 15.4613 16.6887C16.8871 16.6561 18.3276 16.567 18.9157 16.4752C19.4704 16.3884 20.2752 16.2014 20.7041 16.0596C21.1329 15.9177 21.8194 15.6408 22.2295 15.4442C22.6397 15.2476 22.9753 15.0237 22.9753 14.9467C22.9753 14.8697 22.8481 14.5114 22.6926 14.1506C22.5371 13.7898 22.3868 13.4945 22.3585 13.4945C22.3302 13.4945 22.0638 13.6078 21.7663 13.7462C21.4689 13.8846 20.8797 14.1129 20.457 14.2535C20.0341 14.3941 19.3128 14.581 18.8539 14.669C18.2886 14.7775 17.0107 14.8557 14.8921 14.9116C12.7793 14.9674 11.4992 15.0457 10.9467 15.1528C10.4968 15.24 9.73901 15.4504 9.26268 15.6203C8.78635 15.7902 8.03471 16.1178 7.59244 16.3483C7.15018 16.5788 6.38035 17.0545 5.88169 17.4054L4.97512 18.0432L4.6133 17.2121C4.4143 16.7549 3.60357 14.8667 2.81171 13.016C2.01984 11.1653 1.34913 9.64989 1.32122 9.64857C1.29331 9.64715 0.984708 9.95361 0.635302 10.3297Z" fill="#383838"/>
</svg>
