<svg width="99" height="90" viewBox="0 0 99 90" fill="none" xmlns="http://www.w3.org/2000/svg">
<g filter="url(#filter0_d_1407_6112)">
<rect x="20" y="13" width="73" height="48" rx="3" transform="rotate(5 20 13)" fill="#1894FF"/>
<rect x="20" y="13" width="73" height="48" rx="3" transform="rotate(5 20 13)" fill="url(#paint0_linear_1407_6112)"/>
<rect x="20" y="13" width="73" height="48" rx="3" transform="rotate(5 20 13)" fill="url(#paint1_linear_1407_6112)"/>
<rect x="20" y="13" width="73" height="48" rx="3" transform="rotate(5 20 13)" fill="url(#paint2_linear_1407_6112)" style="mix-blend-mode:overlay"/>
</g>
<g filter="url(#filter1_bd_1407_6112)">
<rect x="10" y="30" width="73" height="48" rx="8" fill="#DFE8F3" fill-opacity="0.5" shape-rendering="crispEdges"/>
<rect x="10" y="30" width="73" height="48" rx="8" stroke="white" stroke-width="2" shape-rendering="crispEdges"/>
</g>
<g filter="url(#filter2_di_1407_6112)">
<path d="M12 40C10.8954 40 10 40.8954 10 42L10 49C10 50.1046 10.8954 51 12 51L81 51C82.1046 51 83 50.1046 83 49L83 42C83 40.8954 82.1046 40 81 40L12 40Z" fill="white"/>
<path d="M12 40C10.8954 40 10 40.8954 10 42L10 49C10 50.1046 10.8954 51 12 51L81 51C82.1046 51 83 50.1046 83 49L83 42C83 40.8954 82.1046 40 81 40L12 40Z" stroke="white"/>
</g>
<g filter="url(#filter3_di_1407_6112)">
<path d="M58 58C56.8954 58 56 58.8954 56 60L56 68C56 69.1046 56.8954 70 58 70L74 70C75.1046 70 76 69.1046 76 68L76 60C76 58.8954 75.1046 58 74 58L58 58Z" fill="white"/>
<path d="M58 58C56.8954 58 56 58.8954 56 60L56 68C56 69.1046 56.8954 70 58 70L74 70C75.1046 70 76 69.1046 76 68L76 60C76 58.8954 75.1046 58 74 58L58 58Z" stroke="white"/>
</g>
<defs>
<filter id="filter0_d_1407_6112" x="10.0664" y="9.24988" width="88.4059" height="65.6799" filterUnits="userSpaceOnUse" color-interpolation-filters="sRGB">
<feFlood flood-opacity="0" result="BackgroundImageFix"/>
<feColorMatrix in="SourceAlpha" type="matrix" values="0 0 0 0 0 0 0 0 0 0 0 0 0 0 0 0 0 0 127 0" result="hardAlpha"/>
<feOffset dy="2"/>
<feGaussianBlur stdDeviation="3"/>
<feComposite in2="hardAlpha" operator="out"/>
<feColorMatrix type="matrix" values="0 0 0 0 0 0 0 0 0 0 0 0 0 0 0 0 0 0 0.16 0"/>
<feBlend mode="normal" in2="BackgroundImageFix" result="effect1_dropShadow_1407_6112"/>
<feBlend mode="normal" in="SourceGraphic" in2="effect1_dropShadow_1407_6112" result="shape"/>
</filter>
<filter id="filter1_bd_1407_6112" x="0" y="21" width="93" height="69" filterUnits="userSpaceOnUse" color-interpolation-filters="sRGB">
<feFlood flood-opacity="0" result="BackgroundImageFix"/>
<feGaussianBlur in="BackgroundImageFix" stdDeviation="4"/>
<feComposite in2="SourceAlpha" operator="in" result="effect1_backgroundBlur_1407_6112"/>
<feColorMatrix in="SourceAlpha" type="matrix" values="0 0 0 0 0 0 0 0 0 0 0 0 0 0 0 0 0 0 127 0" result="hardAlpha"/>
<feOffset dy="2"/>
<feGaussianBlur stdDeviation="4.5"/>
<feComposite in2="hardAlpha" operator="out"/>
<feColorMatrix type="matrix" values="0 0 0 0 0 0 0 0 0 0 0 0 0 0 0 0 0 0 0.3 0"/>
<feBlend mode="normal" in2="effect1_backgroundBlur_1407_6112" result="effect2_dropShadow_1407_6112"/>
<feBlend mode="normal" in="SourceGraphic" in2="effect2_dropShadow_1407_6112" result="shape"/>
</filter>
<filter id="filter2_di_1407_6112" x="7.5" y="38.5" width="78" height="16" filterUnits="userSpaceOnUse" color-interpolation-filters="sRGB">
<feFlood flood-opacity="0" result="BackgroundImageFix"/>
<feColorMatrix in="SourceAlpha" type="matrix" values="0 0 0 0 0 0 0 0 0 0 0 0 0 0 0 0 0 0 127 0" result="hardAlpha"/>
<feOffset dy="1"/>
<feGaussianBlur stdDeviation="1"/>
<feComposite in2="hardAlpha" operator="out"/>
<feColorMatrix type="matrix" values="0 0 0 0 0 0 0 0 0 0 0 0 0 0 0 0 0 0 0.08 0"/>
<feBlend mode="normal" in2="BackgroundImageFix" result="effect1_dropShadow_1407_6112"/>
<feBlend mode="normal" in="SourceGraphic" in2="effect1_dropShadow_1407_6112" result="shape"/>
<feColorMatrix in="SourceAlpha" type="matrix" values="0 0 0 0 0 0 0 0 0 0 0 0 0 0 0 0 0 0 127 0" result="hardAlpha"/>
<feOffset/>
<feGaussianBlur stdDeviation="2"/>
<feComposite in2="hardAlpha" operator="arithmetic" k2="-1" k3="1"/>
<feColorMatrix type="matrix" values="0 0 0 0 1 0 0 0 0 1 0 0 0 0 1 0 0 0 0.25 0"/>
<feBlend mode="normal" in2="shape" result="effect2_innerShadow_1407_6112"/>
</filter>
<filter id="filter3_di_1407_6112" x="53.5" y="56.5" width="25" height="17" filterUnits="userSpaceOnUse" color-interpolation-filters="sRGB">
<feFlood flood-opacity="0" result="BackgroundImageFix"/>
<feColorMatrix in="SourceAlpha" type="matrix" values="0 0 0 0 0 0 0 0 0 0 0 0 0 0 0 0 0 0 127 0" result="hardAlpha"/>
<feOffset dy="1"/>
<feGaussianBlur stdDeviation="1"/>
<feComposite in2="hardAlpha" operator="out"/>
<feColorMatrix type="matrix" values="0 0 0 0 0 0 0 0 0 0 0 0 0 0 0 0 0 0 0.08 0"/>
<feBlend mode="normal" in2="BackgroundImageFix" result="effect1_dropShadow_1407_6112"/>
<feBlend mode="normal" in="SourceGraphic" in2="effect1_dropShadow_1407_6112" result="shape"/>
<feColorMatrix in="SourceAlpha" type="matrix" values="0 0 0 0 0 0 0 0 0 0 0 0 0 0 0 0 0 0 127 0" result="hardAlpha"/>
<feOffset/>
<feGaussianBlur stdDeviation="2"/>
<feComposite in2="hardAlpha" operator="arithmetic" k2="-1" k3="1"/>
<feColorMatrix type="matrix" values="0 0 0 0 1 0 0 0 0 1 0 0 0 0 1 0 0 0 0.25 0"/>
<feBlend mode="normal" in2="shape" result="effect2_innerShadow_1407_6112"/>
</filter>
<linearGradient id="paint0_linear_1407_6112" x1="97.4905" y1="29.9711" x2="72.4434" y2="29.9711" gradientUnits="userSpaceOnUse">
<stop stop-color="#016ECF"/>
<stop offset="1" stop-color="#0187F9"/>
</linearGradient>
<linearGradient id="paint1_linear_1407_6112" x1="46.1663" y1="29.9711" x2="22.079" y2="29.9711" gradientUnits="userSpaceOnUse">
<stop stop-color="#0187F9" stop-opacity="0"/>
<stop offset="1" stop-color="#39A5FF"/>
</linearGradient>
<linearGradient id="paint2_linear_1407_6112" x1="56.5" y1="13" x2="56.5" y2="61" gradientUnits="userSpaceOnUse">
<stop stop-color="#0787F5"/>
<stop offset="1" stop-color="#66ADE7"/>
</linearGradient>
</defs>
</svg>
