<svg width="95" height="90" viewBox="0 0 95 90" fill="none" xmlns="http://www.w3.org/2000/svg">
<g filter="url(#filter0_bd_1407_6110)">
<rect x="10" y="12" width="75" height="65" rx="8" fill="#DFE8F3" fill-opacity="0.5" shape-rendering="crispEdges"/>
<rect x="10" y="12" width="75" height="65" rx="8" stroke="white" stroke-width="2" shape-rendering="crispEdges"/>
</g>
<g filter="url(#filter1_d_1407_6110)">
<rect x="21" y="27" width="53" height="38" rx="3" fill="#1894FF"/>
<rect x="21" y="27" width="53" height="38" rx="3" fill="url(#paint0_linear_1407_6110)"/>
<rect x="21" y="27" width="53" height="38" rx="3" fill="url(#paint1_linear_1407_6110)"/>
<rect x="21" y="27" width="53" height="38" rx="3" fill="url(#paint2_linear_1407_6110)" style="mix-blend-mode:overlay"/>
</g>
<g filter="url(#filter2_di_1407_6110)">
<path d="M38.3058 34C39.4104 34 40.3058 34.8954 40.3058 36V56.1836C40.3058 57.1868 39.4926 58 38.4894 58C37.4862 58 36.673 57.1868 36.673 56.1836V37.7412C36.673 37.6813 36.6245 37.6328 36.5646 37.6328C36.5436 37.6328 36.523 37.6389 36.5054 37.6504L33.0366 39.9158C32.0706 40.5466 30.7902 39.8535 30.7902 38.6998C30.7902 38.2096 31.0375 37.7524 31.4479 37.4842L36.2799 34.3259C36.6052 34.1132 36.9854 34 37.3741 34H38.3058Z" fill="white"/>
<path d="M55.8749 58.3281C54.4061 58.3281 53.0858 58.0469 51.9139 57.4844C50.7499 56.9141 49.8202 56.1328 49.1249 55.1406C48.7822 54.6516 48.5182 54.1284 48.333 53.5711C48.0121 52.6053 48.857 51.7422 49.8748 51.7422C50.8088 51.7422 51.5362 52.5052 52.0215 53.3033C52.2421 53.666 52.5344 53.9933 52.8983 54.2852C53.7264 54.9492 54.7186 55.2812 55.8749 55.2812C56.7967 55.2812 57.6131 55.0703 58.3241 54.6484C59.0428 54.2188 59.6053 53.6289 60.0116 52.8789C60.4256 52.1289 60.6327 51.2734 60.6327 50.3125C60.6327 49.3359 60.4217 48.4648 59.9999 47.6992C59.578 46.9336 58.996 46.332 58.2538 45.8945C57.5194 45.457 56.6756 45.2344 55.7225 45.2266C54.996 45.2266 54.2655 45.3516 53.5311 45.6016C53.1561 45.7292 52.8177 45.8773 52.516 46.0457C51.9964 46.3358 51.4093 46.5354 50.8206 46.448L50.3411 46.3769C49.2765 46.2189 48.5278 45.2467 48.647 44.177L49.5829 35.7785C49.6958 34.7659 50.5518 34 51.5706 34H61.4237C62.2812 34 62.9764 34.6952 62.9764 35.5527C62.9764 36.4103 62.2812 37.1055 61.4237 37.1055H54.5788C53.5614 37.1055 52.7062 37.8692 52.5915 38.88L52.0428 43.7177C52.0366 43.7724 52.0794 43.8203 52.1344 43.8203C52.1584 43.8203 52.1813 43.811 52.1987 43.7945C52.6642 43.3528 53.2763 42.9825 54.035 42.6836C54.8163 42.3789 55.6522 42.2266 56.5428 42.2266C58.0038 42.2266 59.3046 42.5742 60.4452 43.2695C61.5936 43.9648 62.496 44.9141 63.1522 46.1172C63.8163 47.3125 64.1444 48.6875 64.1366 50.2422C64.1444 51.7969 63.7928 53.1836 63.0819 54.4023C62.3788 55.6211 61.4022 56.582 60.1522 57.2852C58.91 57.9805 57.4842 58.3281 55.8749 58.3281Z" fill="white"/>
<path d="M38.3058 34C39.4104 34 40.3058 34.8954 40.3058 36V56.1836C40.3058 57.1868 39.4926 58 38.4894 58C37.4862 58 36.673 57.1868 36.673 56.1836V37.7412C36.673 37.6813 36.6245 37.6328 36.5646 37.6328C36.5436 37.6328 36.523 37.6389 36.5054 37.6504L33.0366 39.9158C32.0706 40.5466 30.7902 39.8535 30.7902 38.6998C30.7902 38.2096 31.0375 37.7524 31.4479 37.4842L36.2799 34.3259C36.6052 34.1132 36.9854 34 37.3741 34H38.3058Z" stroke="white"/>
<path d="M55.8749 58.3281C54.4061 58.3281 53.0858 58.0469 51.9139 57.4844C50.7499 56.9141 49.8202 56.1328 49.1249 55.1406C48.7822 54.6516 48.5182 54.1284 48.333 53.5711C48.0121 52.6053 48.857 51.7422 49.8748 51.7422C50.8088 51.7422 51.5362 52.5052 52.0215 53.3033C52.2421 53.666 52.5344 53.9933 52.8983 54.2852C53.7264 54.9492 54.7186 55.2812 55.8749 55.2812C56.7967 55.2812 57.6131 55.0703 58.3241 54.6484C59.0428 54.2188 59.6053 53.6289 60.0116 52.8789C60.4256 52.1289 60.6327 51.2734 60.6327 50.3125C60.6327 49.3359 60.4217 48.4648 59.9999 47.6992C59.578 46.9336 58.996 46.332 58.2538 45.8945C57.5194 45.457 56.6756 45.2344 55.7225 45.2266C54.996 45.2266 54.2655 45.3516 53.5311 45.6016C53.1561 45.7292 52.8177 45.8773 52.516 46.0457C51.9964 46.3358 51.4093 46.5354 50.8206 46.448L50.3411 46.3769C49.2765 46.2189 48.5278 45.2467 48.647 44.177L49.5829 35.7785C49.6958 34.7659 50.5518 34 51.5706 34H61.4237C62.2812 34 62.9764 34.6952 62.9764 35.5527C62.9764 36.4103 62.2812 37.1055 61.4237 37.1055H54.5788C53.5614 37.1055 52.7062 37.8692 52.5915 38.88L52.0428 43.7177C52.0366 43.7724 52.0794 43.8203 52.1344 43.8203C52.1584 43.8203 52.1813 43.811 52.1987 43.7945C52.6642 43.3528 53.2763 42.9825 54.035 42.6836C54.8163 42.3789 55.6522 42.2266 56.5428 42.2266C58.0038 42.2266 59.3046 42.5742 60.4452 43.2695C61.5936 43.9648 62.496 44.9141 63.1522 46.1172C63.8163 47.3125 64.1444 48.6875 64.1366 50.2422C64.1444 51.7969 63.7928 53.1836 63.0819 54.4023C62.3788 55.6211 61.4022 56.582 60.1522 57.2852C58.91 57.9805 57.4842 58.3281 55.8749 58.3281Z" stroke="white"/>
</g>
<g filter="url(#filter3_d_1407_6110)">
<path d="M25 12.5C25 8.91015 27.9101 6 31.5 6C35.0899 6 38 8.91015 38 12.5C38 16.0899 35.0899 19 31.5 19C30.8876 19 30.295 18.9153 29.7333 18.757M67 12.5C67 8.91015 69.9101 6 73.5 6C77.0899 6 80 8.91015 80 12.5C80 16.0899 77.0899 19 73.5 19C72.8876 19 72.295 18.9153 71.7333 18.757" stroke="#1894FF" stroke-width="2" stroke-linecap="round"/>
<path d="M25 12.5C25 8.91015 27.9101 6 31.5 6C35.0899 6 38 8.91015 38 12.5C38 16.0899 35.0899 19 31.5 19C30.8876 19 30.295 18.9153 29.7333 18.757M67 12.5C67 8.91015 69.9101 6 73.5 6C77.0899 6 80 8.91015 80 12.5C80 16.0899 77.0899 19 73.5 19C72.8876 19 72.295 18.9153 71.7333 18.757" stroke="url(#paint3_linear_1407_6110)" stroke-width="2" stroke-linecap="round"/>
<path d="M25 12.5C25 8.91015 27.9101 6 31.5 6C35.0899 6 38 8.91015 38 12.5C38 16.0899 35.0899 19 31.5 19C30.8876 19 30.295 18.9153 29.7333 18.757M67 12.5C67 8.91015 69.9101 6 73.5 6C77.0899 6 80 8.91015 80 12.5C80 16.0899 77.0899 19 73.5 19C72.8876 19 72.295 18.9153 71.7333 18.757" stroke="url(#paint4_linear_1407_6110)" stroke-width="2" stroke-linecap="round"/>
<path d="M25 12.5C25 8.91015 27.9101 6 31.5 6C35.0899 6 38 8.91015 38 12.5C38 16.0899 35.0899 19 31.5 19C30.8876 19 30.295 18.9153 29.7333 18.757M67 12.5C67 8.91015 69.9101 6 73.5 6C77.0899 6 80 8.91015 80 12.5C80 16.0899 77.0899 19 73.5 19C72.8876 19 72.295 18.9153 71.7333 18.757" stroke="url(#paint5_linear_1407_6110)" stroke-width="2" stroke-linecap="round" style="mix-blend-mode:overlay"/>
</g>
<defs>
<filter id="filter0_bd_1407_6110" x="0" y="3" width="95" height="86" filterUnits="userSpaceOnUse" color-interpolation-filters="sRGB">
<feFlood flood-opacity="0" result="BackgroundImageFix"/>
<feGaussianBlur in="BackgroundImageFix" stdDeviation="4"/>
<feComposite in2="SourceAlpha" operator="in" result="effect1_backgroundBlur_1407_6110"/>
<feColorMatrix in="SourceAlpha" type="matrix" values="0 0 0 0 0 0 0 0 0 0 0 0 0 0 0 0 0 0 127 0" result="hardAlpha"/>
<feOffset dy="2"/>
<feGaussianBlur stdDeviation="4.5"/>
<feComposite in2="hardAlpha" operator="out"/>
<feColorMatrix type="matrix" values="0 0 0 0 0 0 0 0 0 0 0 0 0 0 0 0 0 0 0.3 0"/>
<feBlend mode="normal" in2="effect1_backgroundBlur_1407_6110" result="effect2_dropShadow_1407_6110"/>
<feBlend mode="normal" in="SourceGraphic" in2="effect2_dropShadow_1407_6110" result="shape"/>
</filter>
<filter id="filter1_d_1407_6110" x="15" y="23" width="65" height="50" filterUnits="userSpaceOnUse" color-interpolation-filters="sRGB">
<feFlood flood-opacity="0" result="BackgroundImageFix"/>
<feColorMatrix in="SourceAlpha" type="matrix" values="0 0 0 0 0 0 0 0 0 0 0 0 0 0 0 0 0 0 127 0" result="hardAlpha"/>
<feOffset dy="2"/>
<feGaussianBlur stdDeviation="3"/>
<feComposite in2="hardAlpha" operator="out"/>
<feColorMatrix type="matrix" values="0 0 0 0 0 0 0 0 0 0 0 0 0 0 0 0 0 0 0.16 0"/>
<feBlend mode="normal" in2="BackgroundImageFix" result="effect1_dropShadow_1407_6110"/>
<feBlend mode="normal" in="SourceGraphic" in2="effect1_dropShadow_1407_6110" result="shape"/>
</filter>
<filter id="filter2_di_1407_6110" x="28.2902" y="32.5" width="38.3465" height="29.3281" filterUnits="userSpaceOnUse" color-interpolation-filters="sRGB">
<feFlood flood-opacity="0" result="BackgroundImageFix"/>
<feColorMatrix in="SourceAlpha" type="matrix" values="0 0 0 0 0 0 0 0 0 0 0 0 0 0 0 0 0 0 127 0" result="hardAlpha"/>
<feOffset dy="1"/>
<feGaussianBlur stdDeviation="1"/>
<feComposite in2="hardAlpha" operator="out"/>
<feColorMatrix type="matrix" values="0 0 0 0 0 0 0 0 0 0 0 0 0 0 0 0 0 0 0.08 0"/>
<feBlend mode="normal" in2="BackgroundImageFix" result="effect1_dropShadow_1407_6110"/>
<feBlend mode="normal" in="SourceGraphic" in2="effect1_dropShadow_1407_6110" result="shape"/>
<feColorMatrix in="SourceAlpha" type="matrix" values="0 0 0 0 0 0 0 0 0 0 0 0 0 0 0 0 0 0 127 0" result="hardAlpha"/>
<feOffset/>
<feGaussianBlur stdDeviation="2"/>
<feComposite in2="hardAlpha" operator="arithmetic" k2="-1" k3="1"/>
<feColorMatrix type="matrix" values="0 0 0 0 1 0 0 0 0 1 0 0 0 0 1 0 0 0 0.25 0"/>
<feBlend mode="normal" in2="shape" result="effect2_innerShadow_1407_6110"/>
</filter>
<filter id="filter3_d_1407_6110" x="18" y="1" width="69" height="27" filterUnits="userSpaceOnUse" color-interpolation-filters="sRGB">
<feFlood flood-opacity="0" result="BackgroundImageFix"/>
<feColorMatrix in="SourceAlpha" type="matrix" values="0 0 0 0 0 0 0 0 0 0 0 0 0 0 0 0 0 0 127 0" result="hardAlpha"/>
<feOffset dy="2"/>
<feGaussianBlur stdDeviation="3"/>
<feComposite in2="hardAlpha" operator="out"/>
<feColorMatrix type="matrix" values="0 0 0 0 0 0 0 0 0 0 0 0 0 0 0 0 0 0 0.16 0"/>
<feBlend mode="normal" in2="BackgroundImageFix" result="effect1_dropShadow_1407_6110"/>
<feBlend mode="normal" in="SourceGraphic" in2="effect1_dropShadow_1407_6110" result="shape"/>
</filter>
<linearGradient id="paint0_linear_1407_6110" x1="77.2602" y1="40.4354" x2="59.0754" y2="40.4354" gradientUnits="userSpaceOnUse">
<stop stop-color="#016ECF"/>
<stop offset="1" stop-color="#0187F9"/>
</linearGradient>
<linearGradient id="paint1_linear_1407_6110" x1="39.9975" y1="40.4354" x2="22.5094" y2="40.4354" gradientUnits="userSpaceOnUse">
<stop stop-color="#0187F9" stop-opacity="0"/>
<stop offset="1" stop-color="#39A5FF"/>
</linearGradient>
<linearGradient id="paint2_linear_1407_6110" x1="47.5" y1="27" x2="47.5" y2="65" gradientUnits="userSpaceOnUse">
<stop stop-color="#0787F5"/>
<stop offset="1" stop-color="#66ADE7"/>
</linearGradient>
<linearGradient id="paint3_linear_1407_6110" x1="83.3833" y1="10.5963" x2="64.5122" y2="10.5963" gradientUnits="userSpaceOnUse">
<stop stop-color="#016ECF"/>
<stop offset="1" stop-color="#0187F9"/>
</linearGradient>
<linearGradient id="paint4_linear_1407_6110" x1="44.7144" y1="10.5963" x2="26.5664" y2="10.5963" gradientUnits="userSpaceOnUse">
<stop stop-color="#0187F9" stop-opacity="0"/>
<stop offset="1" stop-color="#39A5FF"/>
</linearGradient>
<linearGradient id="paint5_linear_1407_6110" x1="52.5" y1="6" x2="52.5" y2="19" gradientUnits="userSpaceOnUse">
<stop stop-color="#0787F5"/>
<stop offset="1" stop-color="#66ADE7"/>
</linearGradient>
</defs>
</svg>
