<svg width="101" height="90" viewBox="0 0 101 90" fill="none" xmlns="http://www.w3.org/2000/svg">
<g filter="url(#filter0_d_1539_6511)">
<path d="M26.601 41.8189C26.601 40.8931 27.9325 40.2799 28.7236 40.7606C31.7235 42.5835 38.296 45.2939 50.8577 45.2939C63.4194 45.2939 69.992 42.5835 72.9918 40.7606C73.783 40.2799 75.1145 40.8927 75.1145 41.8185C75.1145 45.6482 75.1145 52.422 75.1145 54.1713C75.1145 56.6486 72.5366 65.8242 50.8577 65.8242C29.1789 65.8242 26.601 56.4192 26.601 54.1713C26.601 52.5783 26.601 45.6943 26.601 41.8189Z" fill="#1894FF"/>
<path d="M26.601 41.8189C26.601 40.8931 27.9325 40.2799 28.7236 40.7606C31.7235 42.5835 38.296 45.2939 50.8577 45.2939C63.4194 45.2939 69.992 42.5835 72.9918 40.7606C73.783 40.2799 75.1145 40.8927 75.1145 41.8185C75.1145 45.6482 75.1145 52.422 75.1145 54.1713C75.1145 56.6486 72.5366 65.8242 50.8577 65.8242C29.1789 65.8242 26.601 56.4192 26.601 54.1713C26.601 52.5783 26.601 45.6943 26.601 41.8189Z" fill="url(#paint0_linear_1539_6511)"/>
<path d="M26.601 41.8189C26.601 40.8931 27.9325 40.2799 28.7236 40.7606C31.7235 42.5835 38.296 45.2939 50.8577 45.2939C63.4194 45.2939 69.992 42.5835 72.9918 40.7606C73.783 40.2799 75.1145 40.8927 75.1145 41.8185C75.1145 45.6482 75.1145 52.422 75.1145 54.1713C75.1145 56.6486 72.5366 65.8242 50.8577 65.8242C29.1789 65.8242 26.601 56.4192 26.601 54.1713C26.601 52.5783 26.601 45.6943 26.601 41.8189Z" fill="url(#paint1_linear_1539_6511)"/>
<path d="M26.601 41.8189C26.601 40.8931 27.9325 40.2799 28.7236 40.7606C31.7235 42.5835 38.296 45.2939 50.8577 45.2939C63.4194 45.2939 69.992 42.5835 72.9918 40.7606C73.783 40.2799 75.1145 40.8927 75.1145 41.8185C75.1145 45.6482 75.1145 52.422 75.1145 54.1713C75.1145 56.6486 72.5366 65.8242 50.8577 65.8242C29.1789 65.8242 26.601 56.4192 26.601 54.1713C26.601 52.5783 26.601 45.6943 26.601 41.8189Z" fill="url(#paint2_linear_1539_6511)" style="mix-blend-mode:overlay"/>
</g>
<g filter="url(#filter1_bd_1539_6511)">
<path d="M14.0959 37.5125C9.29593 35.4238 9.3177 28.5476 14.1308 26.49L46.0527 12.843C48.2142 11.9189 50.6497 11.8932 52.8299 12.7714L86.771 26.4426C91.7378 28.4432 91.7593 35.5307 86.8047 37.562L52.8821 51.4698C50.6714 52.3761 48.1929 52.3496 46.0018 51.3961L14.0959 37.5125Z" fill="#DFE8F3" fill-opacity="0.5" shape-rendering="crispEdges"/>
<path d="M14.0959 37.5125C9.29593 35.4238 9.3177 28.5476 14.1308 26.49L46.0527 12.843C48.2142 11.9189 50.6497 11.8932 52.8299 12.7714L86.771 26.4426C91.7378 28.4432 91.7593 35.5307 86.8047 37.562L52.8821 51.4698C50.6714 52.3761 48.1929 52.3496 46.0018 51.3961L14.0959 37.5125Z" stroke="white" stroke-width="2" shape-rendering="crispEdges"/>
</g>
<g filter="url(#filter2_di_1539_6511)">
<path fill-rule="evenodd" clip-rule="evenodd" d="M26.601 45.5454C27.4294 45.5454 28.101 46.217 28.101 47.0454C28.101 47.7121 28.5364 50.1889 31.5258 52.5347C34.5236 54.8872 40.2139 57.1983 50.8577 57.1983C51.6862 57.1983 52.3577 57.8698 52.3577 58.6983C52.3577 59.5267 51.6862 60.1983 50.8577 60.1983C39.8227 60.1983 33.3847 57.8069 29.6738 54.8948C28.2851 53.8051 27.296 52.6554 26.6016 51.56L26.601 45.5454ZM75.1145 45.5454L75.1127 51.6637C74.5618 52.5337 73.825 53.4332 72.8495 54.3072C72.2325 54.86 71.2842 54.808 70.7314 54.191C70.1786 53.574 70.2306 52.6257 70.8476 52.0729C73.2356 49.9333 73.6145 47.7779 73.6145 47.0454C73.6145 46.217 74.2861 45.5454 75.1145 45.5454ZM70.1991 54.5339C70.5928 55.2628 70.3211 56.1728 69.5922 56.5665C68.214 57.3109 66.5856 57.9821 64.6648 58.5389C63.8691 58.7696 63.0371 58.3115 62.8064 57.5158C62.5758 56.7202 63.0338 55.8882 63.8295 55.6575C65.5669 55.1539 66.9946 54.5599 68.1665 53.927C68.8953 53.5333 69.8054 53.805 70.1991 54.5339Z" fill="white"/>
</g>
<g filter="url(#filter3_d_1539_6511)">
<path d="M17.3258 58.3821V39.3981C17.3258 37.8972 18.435 36.6273 19.9222 36.4254L50.1122 32.3267" stroke="#1894FF" stroke-width="3" stroke-linecap="round" stroke-linejoin="round"/>
<path d="M17.3258 58.3821V39.3981C17.3258 37.8972 18.435 36.6273 19.9222 36.4254L50.1122 32.3267" stroke="url(#paint3_linear_1539_6511)" stroke-width="3" stroke-linecap="round" stroke-linejoin="round"/>
<path d="M17.3258 58.3821V39.3981C17.3258 37.8972 18.435 36.6273 19.9222 36.4254L50.1122 32.3267" stroke="url(#paint4_linear_1539_6511)" stroke-width="3" stroke-linecap="round" stroke-linejoin="round"/>
<path d="M17.3258 58.3821V39.3981C17.3258 37.8972 18.435 36.6273 19.9222 36.4254L50.1122 32.3267" stroke="url(#paint5_linear_1539_6511)" stroke-width="3" stroke-linecap="round" stroke-linejoin="round" style="mix-blend-mode:overlay"/>
</g>
<g filter="url(#filter4_di_1539_6511)">
<ellipse cx="50.812" cy="32.1308" rx="6.4693" ry="3.85284" fill="white"/>
<ellipse cx="50.812" cy="32.1308" rx="6.4693" ry="3.85284" stroke="white"/>
</g>
<g filter="url(#filter5_d_1539_6511)">
<path d="M14.1715 63.6279C14.3592 62.1266 15.6354 61 17.1483 61H17.8517C19.3646 61 20.6408 62.1266 20.8285 63.6279L22.0785 73.6279C22.3023 75.4185 20.9061 77 19.1017 77H15.8983C14.0939 77 12.6977 75.4185 12.9215 73.6279L14.1715 63.6279Z" fill="#1894FF"/>
<path d="M14.1715 63.6279C14.3592 62.1266 15.6354 61 17.1483 61H17.8517C19.3646 61 20.6408 62.1266 20.8285 63.6279L22.0785 73.6279C22.3023 75.4185 20.9061 77 19.1017 77H15.8983C14.0939 77 12.6977 75.4185 12.9215 73.6279L14.1715 63.6279Z" fill="url(#paint6_linear_1539_6511)"/>
<path d="M14.1715 63.6279C14.3592 62.1266 15.6354 61 17.1483 61H17.8517C19.3646 61 20.6408 62.1266 20.8285 63.6279L22.0785 73.6279C22.3023 75.4185 20.9061 77 19.1017 77H15.8983C14.0939 77 12.6977 75.4185 12.9215 73.6279L14.1715 63.6279Z" fill="url(#paint7_linear_1539_6511)"/>
<path d="M14.1715 63.6279C14.3592 62.1266 15.6354 61 17.1483 61H17.8517C19.3646 61 20.6408 62.1266 20.8285 63.6279L22.0785 73.6279C22.3023 75.4185 20.9061 77 19.1017 77H15.8983C14.0939 77 12.6977 75.4185 12.9215 73.6279L14.1715 63.6279Z" fill="url(#paint8_linear_1539_6511)" style="mix-blend-mode:overlay"/>
</g>
<g filter="url(#filter6_bd_1539_6511)">
<circle cx="17.5" cy="60" r="3" fill="#DFE8F3" fill-opacity="0.5" shape-rendering="crispEdges"/>
<circle cx="17.5" cy="60" r="3" stroke="white" stroke-width="2" shape-rendering="crispEdges"/>
</g>
<defs>
<filter id="filter0_d_1539_6511" x="20.601" y="36.5927" width="60.5135" height="37.2316" filterUnits="userSpaceOnUse" color-interpolation-filters="sRGB">
<feFlood flood-opacity="0" result="BackgroundImageFix"/>
<feColorMatrix in="SourceAlpha" type="matrix" values="0 0 0 0 0 0 0 0 0 0 0 0 0 0 0 0 0 0 127 0" result="hardAlpha"/>
<feOffset dy="2"/>
<feGaussianBlur stdDeviation="3"/>
<feComposite in2="hardAlpha" operator="out"/>
<feColorMatrix type="matrix" values="0 0 0 0 0 0 0 0 0 0 0 0 0 0 0 0 0 0 0.16 0"/>
<feBlend mode="normal" in2="BackgroundImageFix" result="effect1_dropShadow_1539_6511"/>
<feBlend mode="normal" in="SourceGraphic" in2="effect1_dropShadow_1539_6511" result="shape"/>
</filter>
<filter id="filter1_bd_1539_6511" x="0.508423" y="3.13086" width="100" height="61" filterUnits="userSpaceOnUse" color-interpolation-filters="sRGB">
<feFlood flood-opacity="0" result="BackgroundImageFix"/>
<feGaussianBlur in="BackgroundImageFix" stdDeviation="4"/>
<feComposite in2="SourceAlpha" operator="in" result="effect1_backgroundBlur_1539_6511"/>
<feColorMatrix in="SourceAlpha" type="matrix" values="0 0 0 0 0 0 0 0 0 0 0 0 0 0 0 0 0 0 127 0" result="hardAlpha"/>
<feOffset dy="2"/>
<feGaussianBlur stdDeviation="4.5"/>
<feComposite in2="hardAlpha" operator="out"/>
<feColorMatrix type="matrix" values="0 0 0 0 0 0 0 0 0 0 0 0 0 0 0 0 0 0 0.3 0"/>
<feBlend mode="normal" in2="effect1_backgroundBlur_1539_6511" result="effect2_dropShadow_1539_6511"/>
<feBlend mode="normal" in="SourceGraphic" in2="effect2_dropShadow_1539_6511" result="shape"/>
</filter>
<filter id="filter2_di_1539_6511" x="24.601" y="44.5454" width="52.5135" height="18.6528" filterUnits="userSpaceOnUse" color-interpolation-filters="sRGB">
<feFlood flood-opacity="0" result="BackgroundImageFix"/>
<feColorMatrix in="SourceAlpha" type="matrix" values="0 0 0 0 0 0 0 0 0 0 0 0 0 0 0 0 0 0 127 0" result="hardAlpha"/>
<feOffset dy="1"/>
<feGaussianBlur stdDeviation="1"/>
<feComposite in2="hardAlpha" operator="out"/>
<feColorMatrix type="matrix" values="0 0 0 0 0 0 0 0 0 0 0 0 0 0 0 0 0 0 0.08 0"/>
<feBlend mode="normal" in2="BackgroundImageFix" result="effect1_dropShadow_1539_6511"/>
<feBlend mode="normal" in="SourceGraphic" in2="effect1_dropShadow_1539_6511" result="shape"/>
<feColorMatrix in="SourceAlpha" type="matrix" values="0 0 0 0 0 0 0 0 0 0 0 0 0 0 0 0 0 0 127 0" result="hardAlpha"/>
<feOffset/>
<feGaussianBlur stdDeviation="2"/>
<feComposite in2="hardAlpha" operator="arithmetic" k2="-1" k3="1"/>
<feColorMatrix type="matrix" values="0 0 0 0 1 0 0 0 0 1 0 0 0 0 1 0 0 0 0.25 0"/>
<feBlend mode="normal" in2="shape" result="effect2_innerShadow_1539_6511"/>
</filter>
<filter id="filter3_d_1539_6511" x="9.82581" y="26.8265" width="47.7865" height="41.0555" filterUnits="userSpaceOnUse" color-interpolation-filters="sRGB">
<feFlood flood-opacity="0" result="BackgroundImageFix"/>
<feColorMatrix in="SourceAlpha" type="matrix" values="0 0 0 0 0 0 0 0 0 0 0 0 0 0 0 0 0 0 127 0" result="hardAlpha"/>
<feOffset dy="2"/>
<feGaussianBlur stdDeviation="3"/>
<feComposite in2="hardAlpha" operator="out"/>
<feColorMatrix type="matrix" values="0 0 0 0 0 0 0 0 0 0 0 0 0 0 0 0 0 0 0.16 0"/>
<feBlend mode="normal" in2="BackgroundImageFix" result="effect1_dropShadow_1539_6511"/>
<feBlend mode="normal" in="SourceGraphic" in2="effect1_dropShadow_1539_6511" result="shape"/>
</filter>
<filter id="filter4_di_1539_6511" x="41.8427" y="26.778" width="17.9386" height="12.7057" filterUnits="userSpaceOnUse" color-interpolation-filters="sRGB">
<feFlood flood-opacity="0" result="BackgroundImageFix"/>
<feColorMatrix in="SourceAlpha" type="matrix" values="0 0 0 0 0 0 0 0 0 0 0 0 0 0 0 0 0 0 127 0" result="hardAlpha"/>
<feOffset dy="1"/>
<feGaussianBlur stdDeviation="1"/>
<feComposite in2="hardAlpha" operator="out"/>
<feColorMatrix type="matrix" values="0 0 0 0 0 0 0 0 0 0 0 0 0 0 0 0 0 0 0.08 0"/>
<feBlend mode="normal" in2="BackgroundImageFix" result="effect1_dropShadow_1539_6511"/>
<feBlend mode="normal" in="SourceGraphic" in2="effect1_dropShadow_1539_6511" result="shape"/>
<feColorMatrix in="SourceAlpha" type="matrix" values="0 0 0 0 0 0 0 0 0 0 0 0 0 0 0 0 0 0 127 0" result="hardAlpha"/>
<feOffset/>
<feGaussianBlur stdDeviation="2"/>
<feComposite in2="hardAlpha" operator="arithmetic" k2="-1" k3="1"/>
<feColorMatrix type="matrix" values="0 0 0 0 1 0 0 0 0 1 0 0 0 0 1 0 0 0 0.25 0"/>
<feBlend mode="normal" in2="shape" result="effect2_innerShadow_1539_6511"/>
</filter>
<filter id="filter5_d_1539_6511" x="6.89795" y="57" width="21.2041" height="28" filterUnits="userSpaceOnUse" color-interpolation-filters="sRGB">
<feFlood flood-opacity="0" result="BackgroundImageFix"/>
<feColorMatrix in="SourceAlpha" type="matrix" values="0 0 0 0 0 0 0 0 0 0 0 0 0 0 0 0 0 0 127 0" result="hardAlpha"/>
<feOffset dy="2"/>
<feGaussianBlur stdDeviation="3"/>
<feComposite in2="hardAlpha" operator="out"/>
<feColorMatrix type="matrix" values="0 0 0 0 0 0 0 0 0 0 0 0 0 0 0 0 0 0 0.16 0"/>
<feBlend mode="normal" in2="BackgroundImageFix" result="effect1_dropShadow_1539_6511"/>
<feBlend mode="normal" in="SourceGraphic" in2="effect1_dropShadow_1539_6511" result="shape"/>
</filter>
<filter id="filter6_bd_1539_6511" x="4.5" y="48" width="26" height="27" filterUnits="userSpaceOnUse" color-interpolation-filters="sRGB">
<feFlood flood-opacity="0" result="BackgroundImageFix"/>
<feGaussianBlur in="BackgroundImageFix" stdDeviation="4"/>
<feComposite in2="SourceAlpha" operator="in" result="effect1_backgroundBlur_1539_6511"/>
<feColorMatrix in="SourceAlpha" type="matrix" values="0 0 0 0 0 0 0 0 0 0 0 0 0 0 0 0 0 0 127 0" result="hardAlpha"/>
<feOffset dy="2"/>
<feGaussianBlur stdDeviation="4.5"/>
<feComposite in2="hardAlpha" operator="out"/>
<feColorMatrix type="matrix" values="0 0 0 0 0 0 0 0 0 0 0 0 0 0 0 0 0 0 0.3 0"/>
<feBlend mode="normal" in2="effect1_backgroundBlur_1539_6511" result="effect2_dropShadow_1539_6511"/>
<feBlend mode="normal" in="SourceGraphic" in2="effect2_dropShadow_1539_6511" result="shape"/>
</filter>
<linearGradient id="paint0_linear_1539_6511" x1="78.0988" y1="49.5136" x2="61.4532" y2="49.5136" gradientUnits="userSpaceOnUse">
<stop stop-color="#016ECF"/>
<stop offset="1" stop-color="#0187F9"/>
</linearGradient>
<linearGradient id="paint1_linear_1539_6511" x1="43.9903" y1="49.5136" x2="27.9826" y2="49.5136" gradientUnits="userSpaceOnUse">
<stop stop-color="#0187F9" stop-opacity="0"/>
<stop offset="1" stop-color="#39A5FF"/>
</linearGradient>
<linearGradient id="paint2_linear_1539_6511" x1="50.8577" y1="40.5927" x2="50.8577" y2="65.8242" gradientUnits="userSpaceOnUse">
<stop stop-color="#0787F5"/>
<stop offset="1" stop-color="#66ADE7"/>
</linearGradient>
<linearGradient id="paint3_linear_1539_6511" x1="52.129" y1="41.5389" x2="40.8796" y2="41.5389" gradientUnits="userSpaceOnUse">
<stop stop-color="#016ECF"/>
<stop offset="1" stop-color="#0187F9"/>
</linearGradient>
<linearGradient id="paint4_linear_1539_6511" x1="29.0778" y1="41.5389" x2="18.2596" y2="41.5389" gradientUnits="userSpaceOnUse">
<stop stop-color="#0187F9" stop-opacity="0"/>
<stop offset="1" stop-color="#39A5FF"/>
</linearGradient>
<linearGradient id="paint5_linear_1539_6511" x1="33.719" y1="32.3267" x2="33.719" y2="58.3821" gradientUnits="userSpaceOnUse">
<stop stop-color="#0787F5"/>
<stop offset="1" stop-color="#66ADE7"/>
</linearGradient>
<linearGradient id="paint6_linear_1539_6511" x1="23.1151" y1="66.657" x2="19.684" y2="66.657" gradientUnits="userSpaceOnUse">
<stop stop-color="#016ECF"/>
<stop offset="1" stop-color="#0187F9"/>
</linearGradient>
<linearGradient id="paint7_linear_1539_6511" x1="16.0844" y1="66.657" x2="12.7848" y2="66.657" gradientUnits="userSpaceOnUse">
<stop stop-color="#0187F9" stop-opacity="0"/>
<stop offset="1" stop-color="#39A5FF"/>
</linearGradient>
<linearGradient id="paint8_linear_1539_6511" x1="17.5" y1="61" x2="17.5" y2="77" gradientUnits="userSpaceOnUse">
<stop stop-color="#0787F5"/>
<stop offset="1" stop-color="#66ADE7"/>
</linearGradient>
</defs>
</svg>
