<svg width="90" height="91" viewBox="0 0 90 91" fill="none" xmlns="http://www.w3.org/2000/svg">
<g filter="url(#filter0_d_1407_6113)">
<path d="M79.6708 32.4662C78.6171 29.0493 76.04 25.5177 75.4772 24.7712C75.4035 24.6733 75.3241 24.584 75.2375 24.4973L55.8614 5.12132C54.6899 3.94974 52.7904 3.94974 51.6188 5.12132L43.8406 12.8995C42.669 14.0711 42.669 15.9706 43.8406 17.1421L49.8873 23.1888C51.0683 24.3698 51.0574 26.2881 49.8628 27.4556L15.435 61.1041C13.4824 63.0567 13.4824 66.2225 15.435 68.1751L19.0919 71.832C21.0445 73.7847 24.2103 73.7847 26.1629 71.832L59.8115 37.4042C60.9789 36.2097 62.8972 36.1987 64.0782 37.3798L73.9986 47.3001C75.5163 48.8178 78.0425 48.2792 78.6385 46.2172C79.7633 42.326 80.9395 36.5803 79.6708 32.4662Z" fill="#1894FF"/>
<path d="M79.6708 32.4662C78.6171 29.0493 76.04 25.5177 75.4772 24.7712C75.4035 24.6733 75.3241 24.584 75.2375 24.4973L55.8614 5.12132C54.6899 3.94974 52.7904 3.94974 51.6188 5.12132L43.8406 12.8995C42.669 14.0711 42.669 15.9706 43.8406 17.1421L49.8873 23.1888C51.0683 24.3698 51.0574 26.2881 49.8628 27.4556L15.435 61.1041C13.4824 63.0567 13.4824 66.2225 15.435 68.1751L19.0919 71.832C21.0445 73.7847 24.2103 73.7847 26.1629 71.832L59.8115 37.4042C60.9789 36.2097 62.8972 36.1987 64.0782 37.3798L73.9986 47.3001C75.5163 48.8178 78.0425 48.2792 78.6385 46.2172C79.7633 42.326 80.9395 36.5803 79.6708 32.4662Z" fill="url(#paint0_linear_1407_6113)"/>
<path d="M79.6708 32.4662C78.6171 29.0493 76.04 25.5177 75.4772 24.7712C75.4035 24.6733 75.3241 24.584 75.2375 24.4973L55.8614 5.12132C54.6899 3.94974 52.7904 3.94974 51.6188 5.12132L43.8406 12.8995C42.669 14.0711 42.669 15.9706 43.8406 17.1421L49.8873 23.1888C51.0683 24.3698 51.0574 26.2881 49.8628 27.4556L15.435 61.1041C13.4824 63.0567 13.4824 66.2225 15.435 68.1751L19.0919 71.832C21.0445 73.7847 24.2103 73.7847 26.1629 71.832L59.8115 37.4042C60.9789 36.2097 62.8972 36.1987 64.0782 37.3798L73.9986 47.3001C75.5163 48.8178 78.0425 48.2792 78.6385 46.2172C79.7633 42.326 80.9395 36.5803 79.6708 32.4662Z" fill="url(#paint1_linear_1407_6113)"/>
</g>
<g filter="url(#filter1_bd_1407_6113)">
<path d="M74.4107 61.097C75.5844 62.2707 75.5607 64.1973 74.3578 65.4003L67.4003 72.3578C66.1973 73.5607 64.2707 73.5844 63.097 72.4107L15.8284 25.1421C14.2663 23.58 14.2663 21.0474 15.8284 19.4853L21.4853 13.8284C23.0474 12.2663 25.58 12.2663 27.1421 13.8284L74.4107 61.097Z" fill="#DFE8F3" fill-opacity="0.5" shape-rendering="crispEdges"/>
<path d="M74.4107 61.097C75.5844 62.2707 75.5607 64.1973 74.3578 65.4003L67.4003 72.3578C66.1973 73.5607 64.2707 73.5844 63.097 72.4107L15.8284 25.1421C14.2663 23.58 14.2663 21.0474 15.8284 19.4853L21.4853 13.8284C23.0474 12.2663 25.58 12.2663 27.1421 13.8284L74.4107 61.097Z" stroke="white" stroke-width="2" shape-rendering="crispEdges"/>
</g>
<g filter="url(#filter2_di_1407_6113)">
<path d="M28.594 16.6944C28.9845 16.3039 29.6177 16.3039 30.0082 16.6944C30.3987 17.0849 30.3987 17.7181 30.0082 18.1086L25.7656 22.3513C25.375 22.7418 24.7419 22.7418 24.3514 22.3513C23.9608 21.9607 23.9608 21.3276 24.3514 20.9371L28.594 16.6944Z" fill="#F4F4F4"/>
<path d="M33.6852 21.7856C34.0757 21.3951 34.7089 21.3951 35.0994 21.7856C35.4899 22.1761 35.4899 22.8093 35.0994 23.1998L30.8567 27.4424C30.4662 27.833 29.833 27.833 29.4425 27.4424C29.052 27.0519 29.052 26.4187 29.4425 26.0282L33.6852 21.7856Z" fill="#F4F4F4"/>
<path d="M38.7763 26.8767C39.1669 26.4862 39.8 26.4862 40.1905 26.8767C40.5811 27.2673 40.5811 27.9004 40.1905 28.291L35.9479 32.5336C35.5574 32.9241 34.9242 32.9241 34.5337 32.5336C34.1432 32.1431 34.1432 31.5099 34.5337 31.1194L38.7763 26.8767Z" fill="#F4F4F4"/>
<path d="M43.8675 31.9679C44.258 31.5774 44.8912 31.5774 45.2817 31.9679C45.6722 32.3584 45.6722 32.9916 45.2817 33.3821L41.0391 37.6248C40.6485 38.0153 40.0154 38.0153 39.6249 37.6248C39.2343 37.2342 39.2343 36.6011 39.6249 36.2106L43.8675 31.9679Z" fill="#F4F4F4"/>
<path d="M48.9587 37.0591C49.3492 36.6686 49.9824 36.6686 50.3729 37.0591C50.7634 37.4496 50.7634 38.0828 50.3729 38.4733L46.1302 42.7159C45.7397 43.1065 45.1066 43.1065 44.716 42.7159C44.3255 42.3254 44.3255 41.6923 44.716 41.3017L48.9587 37.0591Z" fill="#F4F4F4"/>
<path d="M54.0498 42.1503C54.4404 41.7597 55.0735 41.7597 55.4641 42.1503C55.8546 42.5408 55.8546 43.1739 55.4641 43.5645L51.2214 47.8071C50.8309 48.1976 50.1977 48.1976 49.8072 47.8071C49.4167 47.4166 49.4167 46.7834 49.8072 46.3929L54.0498 42.1503Z" fill="#F4F4F4"/>
<path d="M59.141 47.2414C59.5315 46.8509 60.1647 46.8509 60.5552 47.2414C60.9457 47.6319 60.9457 48.2651 60.5552 48.6556L56.3126 52.8983C55.9221 53.2888 55.2889 53.2888 54.8984 52.8983C54.5078 52.5078 54.5078 51.8746 54.8984 51.4841L59.141 47.2414Z" fill="#F4F4F4"/>
<path d="M64.2322 52.3326C64.6227 51.9421 65.2559 51.9421 65.6464 52.3326C66.0369 52.7231 66.0369 53.3563 65.6464 53.7468L61.4038 57.9894C61.0132 58.38 60.3801 58.38 59.9895 57.9894C59.599 57.5989 59.599 56.9658 59.9895 56.5752L64.2322 52.3326Z" fill="#F4F4F4"/>
<path d="M69.3233 57.4238C69.7139 57.0332 70.347 57.0332 70.7376 57.4238C71.1281 57.8143 71.1281 58.4475 70.7376 58.838L66.4949 63.0806C66.1044 63.4711 65.4712 63.4711 65.0807 63.0806C64.6902 62.6901 64.6902 62.0569 65.0807 61.6664L69.3233 57.4238Z" fill="#F4F4F4"/>
</g>
<defs>
<filter id="filter0_d_1407_6113" x="7.97054" y="0.242676" width="78.2497" height="81.0538" filterUnits="userSpaceOnUse" color-interpolation-filters="sRGB">
<feFlood flood-opacity="0" result="BackgroundImageFix"/>
<feColorMatrix in="SourceAlpha" type="matrix" values="0 0 0 0 0 0 0 0 0 0 0 0 0 0 0 0 0 0 127 0" result="hardAlpha"/>
<feOffset dy="2"/>
<feGaussianBlur stdDeviation="3"/>
<feComposite in2="hardAlpha" operator="out"/>
<feColorMatrix type="matrix" values="0 0 0 0 0 0 0 0 0 0 0 0 0 0 0 0 0 0 0.16 0"/>
<feBlend mode="normal" in2="BackgroundImageFix" result="effect1_dropShadow_1407_6113"/>
<feBlend mode="normal" in="SourceGraphic" in2="effect1_dropShadow_1407_6113" result="shape"/>
</filter>
<filter id="filter1_bd_1407_6113" x="4.65685" y="3.65686" width="80.6189" height="81.6189" filterUnits="userSpaceOnUse" color-interpolation-filters="sRGB">
<feFlood flood-opacity="0" result="BackgroundImageFix"/>
<feGaussianBlur in="BackgroundImageFix" stdDeviation="4"/>
<feComposite in2="SourceAlpha" operator="in" result="effect1_backgroundBlur_1407_6113"/>
<feColorMatrix in="SourceAlpha" type="matrix" values="0 0 0 0 0 0 0 0 0 0 0 0 0 0 0 0 0 0 127 0" result="hardAlpha"/>
<feOffset dy="2"/>
<feGaussianBlur stdDeviation="4.5"/>
<feComposite in2="hardAlpha" operator="out"/>
<feColorMatrix type="matrix" values="0 0 0 0 0 0 0 0 0 0 0 0 0 0 0 0 0 0 0.3 0"/>
<feBlend mode="normal" in2="effect1_backgroundBlur_1407_6113" result="effect2_dropShadow_1407_6113"/>
<feBlend mode="normal" in="SourceGraphic" in2="effect2_dropShadow_1407_6113" result="shape"/>
</filter>
<filter id="filter2_di_1407_6113" x="22.0585" y="15.4015" width="50.972" height="50.972" filterUnits="userSpaceOnUse" color-interpolation-filters="sRGB">
<feFlood flood-opacity="0" result="BackgroundImageFix"/>
<feColorMatrix in="SourceAlpha" type="matrix" values="0 0 0 0 0 0 0 0 0 0 0 0 0 0 0 0 0 0 127 0" result="hardAlpha"/>
<feOffset dy="1"/>
<feGaussianBlur stdDeviation="1"/>
<feComposite in2="hardAlpha" operator="out"/>
<feColorMatrix type="matrix" values="0 0 0 0 0 0 0 0 0 0 0 0 0 0 0 0 0 0 0.08 0"/>
<feBlend mode="normal" in2="BackgroundImageFix" result="effect1_dropShadow_1407_6113"/>
<feBlend mode="normal" in="SourceGraphic" in2="effect1_dropShadow_1407_6113" result="shape"/>
<feColorMatrix in="SourceAlpha" type="matrix" values="0 0 0 0 0 0 0 0 0 0 0 0 0 0 0 0 0 0 127 0" result="hardAlpha"/>
<feOffset/>
<feGaussianBlur stdDeviation="2"/>
<feComposite in2="hardAlpha" operator="arithmetic" k2="-1" k3="1"/>
<feColorMatrix type="matrix" values="0 0 0 0 1 0 0 0 0 1 0 0 0 0 1 0 0 0 0.25 0"/>
<feBlend mode="normal" in2="shape" result="effect2_innerShadow_1407_6113"/>
</filter>
<linearGradient id="paint0_linear_1407_6113" x1="70.0269" y1="61.788" x2="57.5705" y2="49.3316" gradientUnits="userSpaceOnUse">
<stop stop-color="#016ECF"/>
<stop offset="1" stop-color="#0187F9"/>
</linearGradient>
<linearGradient id="paint1_linear_1407_6113" x1="44.5025" y1="36.2636" x2="32.5234" y2="24.2845" gradientUnits="userSpaceOnUse">
<stop stop-color="#0187F9" stop-opacity="0"/>
<stop offset="1" stop-color="#39A5FF"/>
</linearGradient>
</defs>
</svg>
