<svg width="90" height="90" viewBox="0 0 90 90" fill="none" xmlns="http://www.w3.org/2000/svg">
<g filter="url(#filter0_d_1360_6613)">
<path d="M45.6378 50.6549V71.0243C45.6378 73.0421 47.5741 74.4507 49.4422 73.6881C54.6727 71.5531 63.6639 67.034 65.6378 60.5839C66.6256 57.3561 66.1903 52.5523 65.8696 50.1175C65.7425 49.1526 66.0375 48.1752 66.6974 47.4597C69.2527 44.6888 75.7216 37.3047 78.1378 31.0839C80.415 25.2211 80.7021 16.2475 80.6894 11.7905C80.685 10.2504 79.473 9.02499 77.933 9.00668C73.3899 8.95265 64.136 9.17597 58.1378 11.5839C52.0918 14.0111 44.9798 20.4136 42.2665 22.9885C41.5497 23.6688 40.5588 23.9778 39.5787 23.8516C37.2194 23.5476 32.6937 23.1554 29.6378 24.0839C23.2322 26.0302 18.9194 35.1048 16.9188 40.3371C16.208 42.196 17.6149 44.0839 19.6051 44.0839H39.7161C40.6159 44.0839 41.4682 44.4878 42.038 45.1842L44.9597 48.7552C45.3982 49.2911 45.6378 49.9623 45.6378 50.6549Z" fill="#1894FF"/>
<path d="M45.6378 50.6549V71.0243C45.6378 73.0421 47.5741 74.4507 49.4422 73.6881C54.6727 71.5531 63.6639 67.034 65.6378 60.5839C66.6256 57.3561 66.1903 52.5523 65.8696 50.1175C65.7425 49.1526 66.0375 48.1752 66.6974 47.4597C69.2527 44.6888 75.7216 37.3047 78.1378 31.0839C80.415 25.2211 80.7021 16.2475 80.6894 11.7905C80.685 10.2504 79.473 9.02499 77.933 9.00668C73.3899 8.95265 64.136 9.17597 58.1378 11.5839C52.0918 14.0111 44.9798 20.4136 42.2665 22.9885C41.5497 23.6688 40.5588 23.9778 39.5787 23.8516C37.2194 23.5476 32.6937 23.1554 29.6378 24.0839C23.2322 26.0302 18.9194 35.1048 16.9188 40.3371C16.208 42.196 17.6149 44.0839 19.6051 44.0839H39.7161C40.6159 44.0839 41.4682 44.4878 42.038 45.1842L44.9597 48.7552C45.3982 49.2911 45.6378 49.9623 45.6378 50.6549Z" fill="url(#paint0_linear_1360_6613)"/>
<path d="M45.6378 50.6549V71.0243C45.6378 73.0421 47.5741 74.4507 49.4422 73.6881C54.6727 71.5531 63.6639 67.034 65.6378 60.5839C66.6256 57.3561 66.1903 52.5523 65.8696 50.1175C65.7425 49.1526 66.0375 48.1752 66.6974 47.4597C69.2527 44.6888 75.7216 37.3047 78.1378 31.0839C80.415 25.2211 80.7021 16.2475 80.6894 11.7905C80.685 10.2504 79.473 9.02499 77.933 9.00668C73.3899 8.95265 64.136 9.17597 58.1378 11.5839C52.0918 14.0111 44.9798 20.4136 42.2665 22.9885C41.5497 23.6688 40.5588 23.9778 39.5787 23.8516C37.2194 23.5476 32.6937 23.1554 29.6378 24.0839C23.2322 26.0302 18.9194 35.1048 16.9188 40.3371C16.208 42.196 17.6149 44.0839 19.6051 44.0839H39.7161C40.6159 44.0839 41.4682 44.4878 42.038 45.1842L44.9597 48.7552C45.3982 49.2911 45.6378 49.9623 45.6378 50.6549Z" fill="url(#paint1_linear_1360_6613)"/>
<path d="M45.6378 50.6549V71.0243C45.6378 73.0421 47.5741 74.4507 49.4422 73.6881C54.6727 71.5531 63.6639 67.034 65.6378 60.5839C66.6256 57.3561 66.1903 52.5523 65.8696 50.1175C65.7425 49.1526 66.0375 48.1752 66.6974 47.4597C69.2527 44.6888 75.7216 37.3047 78.1378 31.0839C80.415 25.2211 80.7021 16.2475 80.6894 11.7905C80.685 10.2504 79.473 9.02499 77.933 9.00668C73.3899 8.95265 64.136 9.17597 58.1378 11.5839C52.0918 14.0111 44.9798 20.4136 42.2665 22.9885C41.5497 23.6688 40.5588 23.9778 39.5787 23.8516C37.2194 23.5476 32.6937 23.1554 29.6378 24.0839C23.2322 26.0302 18.9194 35.1048 16.9188 40.3371C16.208 42.196 17.6149 44.0839 19.6051 44.0839H39.7161C40.6159 44.0839 41.4682 44.4878 42.038 45.1842L44.9597 48.7552C45.3982 49.2911 45.6378 49.9623 45.6378 50.6549Z" fill="url(#paint2_linear_1360_6613)" style="mix-blend-mode:overlay"/>
</g>
<g filter="url(#filter1_bd_1360_6613)">
<path d="M47.6378 61.5321C42.3658 66.8042 23.818 76.8042 18.5459 71.5321C13.2739 66.26 23.2739 47.7123 28.5459 42.4402C33.818 37.1682 42.3658 37.1682 47.6378 42.4402C52.9099 47.7123 52.9099 56.26 47.6378 61.5321Z" fill="#DFE8F3" fill-opacity="0.5" shape-rendering="crispEdges"/>
<path d="M47.6378 61.5321C42.3658 66.8042 23.818 76.8042 18.5459 71.5321C13.2739 66.26 23.2739 47.7123 28.5459 42.4402C33.818 37.1682 42.3658 37.1682 47.6378 42.4402C52.9099 47.7123 52.9099 56.26 47.6378 61.5321Z" stroke="white" stroke-width="2" shape-rendering="crispEdges"/>
</g>
<defs>
<filter id="filter0_d_1360_6613" x="10.7319" y="5" width="75.9579" height="76.8983" filterUnits="userSpaceOnUse" color-interpolation-filters="sRGB">
<feFlood flood-opacity="0" result="BackgroundImageFix"/>
<feColorMatrix in="SourceAlpha" type="matrix" values="0 0 0 0 0 0 0 0 0 0 0 0 0 0 0 0 0 0 127 0" result="hardAlpha"/>
<feOffset dy="2"/>
<feGaussianBlur stdDeviation="3"/>
<feComposite in2="hardAlpha" operator="out"/>
<feColorMatrix type="matrix" values="0 0 0 0 0 0 0 0 0 0 0 0 0 0 0 0 0 0 0.16 0"/>
<feBlend mode="normal" in2="BackgroundImageFix" result="effect1_dropShadow_1360_6613"/>
<feBlend mode="normal" in="SourceGraphic" in2="effect1_dropShadow_1360_6613" result="shape"/>
</filter>
<filter id="filter1_bd_1360_6613" x="7.05554" y="29.4862" width="54.5363" height="55.5363" filterUnits="userSpaceOnUse" color-interpolation-filters="sRGB">
<feFlood flood-opacity="0" result="BackgroundImageFix"/>
<feGaussianBlur in="BackgroundImageFix" stdDeviation="4"/>
<feComposite in2="SourceAlpha" operator="in" result="effect1_backgroundBlur_1360_6613"/>
<feColorMatrix in="SourceAlpha" type="matrix" values="0 0 0 0 0 0 0 0 0 0 0 0 0 0 0 0 0 0 127 0" result="hardAlpha"/>
<feOffset dy="2"/>
<feGaussianBlur stdDeviation="4.5"/>
<feComposite in2="hardAlpha" operator="out"/>
<feColorMatrix type="matrix" values="0 0 0 0 0 0 0 0 0 0 0 0 0 0 0 0 0 0 0.3 0"/>
<feBlend mode="normal" in2="effect1_backgroundBlur_1360_6613" result="effect2_dropShadow_1360_6613"/>
<feBlend mode="normal" in="SourceGraphic" in2="effect2_dropShadow_1360_6613" result="shape"/>
</filter>
<linearGradient id="paint0_linear_1360_6613" x1="84.6914" y1="32.3649" x2="62.3714" y2="32.3649" gradientUnits="userSpaceOnUse">
<stop stop-color="#016ECF"/>
<stop offset="1" stop-color="#0187F9"/>
</linearGradient>
<linearGradient id="paint1_linear_1360_6613" x1="38.9552" y1="32.3649" x2="17.4905" y2="32.3649" gradientUnits="userSpaceOnUse">
<stop stop-color="#0187F9" stop-opacity="0"/>
<stop offset="1" stop-color="#39A5FF"/>
</linearGradient>
<linearGradient id="paint2_linear_1360_6613" x1="48.1638" y1="9" x2="48.1638" y2="75.0839" gradientUnits="userSpaceOnUse">
<stop stop-color="#0787F5"/>
<stop offset="1" stop-color="#66ADE7"/>
</linearGradient>
</defs>
</svg>
