<svg width="123" height="76" viewBox="0 0 123 76" fill="none" xmlns="http://www.w3.org/2000/svg">
<path d="M60.9542 0.982558C61.4359 0.787375 61.9747 0.787375 62.4564 0.982558L71.9375 4.8243C72.2512 4.9514 72.592 4.99682 72.9281 4.9563L84.142 3.60405C84.718 3.53459 85.2959 3.71872 85.7255 4.10867L91.7343 9.56206C92.0413 9.84065 92.4272 10.017 92.8387 10.0667L103.575 11.3627C104.346 11.4558 104.994 11.9868 105.236 12.7248L107.064 18.2963C107.247 18.8553 107.667 19.3052 108.213 19.5263L116.331 22.8173C117.306 23.2123 117.808 24.2945 117.48 25.2937L115.954 29.9497C115.709 30.6992 115.926 31.5231 116.51 32.0533L121.075 36.1975C121.949 36.9912 121.949 38.3653 121.075 39.1589L116.51 43.3032C115.926 43.8334 115.709 44.6573 115.954 45.4068L117.48 50.0628C117.808 51.062 117.306 52.1441 116.331 52.5392L108.213 55.8302C107.667 56.0512 107.247 56.5011 107.064 57.0602L105.236 62.6317C104.994 63.3696 104.346 63.9007 103.575 63.9937L92.8387 65.2898C92.4272 65.3395 92.0413 65.5158 91.7343 65.7944L85.7255 71.2478C85.2959 71.6377 84.718 71.8219 84.142 71.7524L72.9281 70.4001C72.592 70.3596 72.2512 70.405 71.9375 70.5321L62.4564 74.3739C61.9747 74.5691 61.4359 74.5691 60.9542 74.3739L51.4731 70.5321C51.1594 70.405 50.8186 70.3596 50.4826 70.4001L39.2687 71.7524C38.6926 71.8219 38.1148 71.6377 37.6851 71.2478L31.6763 65.7944C31.3694 65.5158 30.9835 65.3395 30.5719 65.2898L19.8356 63.9937C19.0645 63.9007 18.4171 63.3696 18.175 62.6317L16.3469 57.0602C16.1634 56.5011 15.7432 56.0512 15.1979 55.8302L7.07952 52.5392C6.10503 52.1441 5.60286 51.062 5.93036 50.0628L7.4564 45.4068C7.70205 44.6573 7.48426 43.8334 6.90032 43.3032L2.33608 39.1589C1.46201 38.3653 1.46201 36.9912 2.33608 36.1975L6.90032 32.0533C7.48426 31.5231 7.70205 30.6992 7.4564 29.9497L5.93036 25.2937C5.60286 24.2945 6.10503 23.2123 7.07951 22.8173L15.1979 19.5263C15.7432 19.3052 16.1634 18.8553 16.3469 18.2963L18.175 12.7248C18.4171 11.9868 19.0645 11.4558 19.8356 11.3627L30.5719 10.0667C30.9835 10.017 31.3694 9.84065 31.6763 9.56206L37.6851 4.10867C38.1148 3.71872 38.6926 3.53459 39.2687 3.60405L50.4826 4.9563C50.8186 4.99682 51.1594 4.9514 51.4731 4.8243L60.9542 0.982558Z" fill="url(#paint0_linear_1879_10573)"/>
<path d="M60.9542 0.982558C61.4359 0.787375 61.9747 0.787375 62.4564 0.982558L71.9375 4.8243C72.2512 4.9514 72.592 4.99682 72.9281 4.9563L84.142 3.60405C84.718 3.53459 85.2959 3.71872 85.7255 4.10867L91.7343 9.56206C92.0413 9.84065 92.4272 10.017 92.8387 10.0667L103.575 11.3627C104.346 11.4558 104.994 11.9868 105.236 12.7248L107.064 18.2963C107.247 18.8553 107.667 19.3052 108.213 19.5263L116.331 22.8173C117.306 23.2123 117.808 24.2945 117.48 25.2937L115.954 29.9497C115.709 30.6992 115.926 31.5231 116.51 32.0533L121.075 36.1975C121.949 36.9912 121.949 38.3653 121.075 39.1589L116.51 43.3032C115.926 43.8334 115.709 44.6573 115.954 45.4068L117.48 50.0628C117.808 51.062 117.306 52.1441 116.331 52.5392L108.213 55.8302C107.667 56.0512 107.247 56.5011 107.064 57.0602L105.236 62.6317C104.994 63.3696 104.346 63.9007 103.575 63.9937L92.8387 65.2898C92.4272 65.3395 92.0413 65.5158 91.7343 65.7944L85.7255 71.2478C85.2959 71.6377 84.718 71.8219 84.142 71.7524L72.9281 70.4001C72.592 70.3596 72.2512 70.405 71.9375 70.5321L62.4564 74.3739C61.9747 74.5691 61.4359 74.5691 60.9542 74.3739L51.4731 70.5321C51.1594 70.405 50.8186 70.3596 50.4826 70.4001L39.2687 71.7524C38.6926 71.8219 38.1148 71.6377 37.6851 71.2478L31.6763 65.7944C31.3694 65.5158 30.9835 65.3395 30.5719 65.2898L19.8356 63.9937C19.0645 63.9007 18.4171 63.3696 18.175 62.6317L16.3469 57.0602C16.1634 56.5011 15.7432 56.0512 15.1979 55.8302L7.07952 52.5392C6.10503 52.1441 5.60286 51.062 5.93036 50.0628L7.4564 45.4068C7.70205 44.6573 7.48426 43.8334 6.90032 43.3032L2.33608 39.1589C1.46201 38.3653 1.46201 36.9912 2.33608 36.1975L6.90032 32.0533C7.48426 31.5231 7.70205 30.6992 7.4564 29.9497L5.93036 25.2937C5.60286 24.2945 6.10503 23.2123 7.07951 22.8173L15.1979 19.5263C15.7432 19.3052 16.1634 18.8553 16.3469 18.2963L18.175 12.7248C18.4171 11.9868 19.0645 11.4558 19.8356 11.3627L30.5719 10.0667C30.9835 10.017 31.3694 9.84065 31.6763 9.56206L37.6851 4.10867C38.1148 3.71872 38.6926 3.53459 39.2687 3.60405L50.4826 4.9563C50.8186 4.99682 51.1594 4.9514 51.4731 4.8243L60.9542 0.982558Z" fill="url(#paint1_radial_1879_10573)" fill-opacity="0.52" style="mix-blend-mode:overlay"/>
<path d="M60.9542 0.982558C61.4359 0.787375 61.9747 0.787375 62.4564 0.982558L71.9375 4.8243C72.2512 4.9514 72.592 4.99682 72.9281 4.9563L84.142 3.60405C84.718 3.53459 85.2959 3.71872 85.7255 4.10867L91.7343 9.56206C92.0413 9.84065 92.4272 10.017 92.8387 10.0667L103.575 11.3627C104.346 11.4558 104.994 11.9868 105.236 12.7248L107.064 18.2963C107.247 18.8553 107.667 19.3052 108.213 19.5263L116.331 22.8173C117.306 23.2123 117.808 24.2945 117.48 25.2937L115.954 29.9497C115.709 30.6992 115.926 31.5231 116.51 32.0533L121.075 36.1975C121.949 36.9912 121.949 38.3653 121.075 39.1589L116.51 43.3032C115.926 43.8334 115.709 44.6573 115.954 45.4068L117.48 50.0628C117.808 51.062 117.306 52.1441 116.331 52.5392L108.213 55.8302C107.667 56.0512 107.247 56.5011 107.064 57.0602L105.236 62.6317C104.994 63.3696 104.346 63.9007 103.575 63.9937L92.8387 65.2898C92.4272 65.3395 92.0413 65.5158 91.7343 65.7944L85.7255 71.2478C85.2959 71.6377 84.718 71.8219 84.142 71.7524L72.9281 70.4001C72.592 70.3596 72.2512 70.405 71.9375 70.5321L62.4564 74.3739C61.9747 74.5691 61.4359 74.5691 60.9542 74.3739L51.4731 70.5321C51.1594 70.405 50.8186 70.3596 50.4826 70.4001L39.2687 71.7524C38.6926 71.8219 38.1148 71.6377 37.6851 71.2478L31.6763 65.7944C31.3694 65.5158 30.9835 65.3395 30.5719 65.2898L19.8356 63.9937C19.0645 63.9007 18.4171 63.3696 18.175 62.6317L16.3469 57.0602C16.1634 56.5011 15.7432 56.0512 15.1979 55.8302L7.07952 52.5392C6.10503 52.1441 5.60286 51.062 5.93036 50.0628L7.4564 45.4068C7.70205 44.6573 7.48426 43.8334 6.90032 43.3032L2.33608 39.1589C1.46201 38.3653 1.46201 36.9912 2.33608 36.1975L6.90032 32.0533C7.48426 31.5231 7.70205 30.6992 7.4564 29.9497L5.93036 25.2937C5.60286 24.2945 6.10503 23.2123 7.07951 22.8173L15.1979 19.5263C15.7432 19.3052 16.1634 18.8553 16.3469 18.2963L18.175 12.7248C18.4171 11.9868 19.0645 11.4558 19.8356 11.3627L30.5719 10.0667C30.9835 10.017 31.3694 9.84065 31.6763 9.56206L37.6851 4.10867C38.1148 3.71872 38.6926 3.53459 39.2687 3.60405L50.4826 4.9563C50.8186 4.99682 51.1594 4.9514 51.4731 4.8243L60.9542 0.982558Z" stroke="#F2F2F2"/>
<path d="M9.96851 37.6782V36.1952L10.2157 36.1739C10.5338 36.1483 10.7909 36.0276 10.987 35.8117C11.183 35.593 11.3293 35.2449 11.4259 34.7677C11.5253 34.2876 11.5892 33.6427 11.6177 32.833L11.7625 28.9509H17.6858V37.6782H15.8918V30.4296H13.4756L13.3392 33.468C13.2938 34.4452 13.1773 35.2435 12.9898 35.8628C12.8052 36.4822 12.5097 36.9395 12.1034 37.235C11.7 37.5305 11.1475 37.6782 10.4458 37.6782H9.96851Z" fill="white"/>
<path d="M19.6938 40.1327C19.4637 40.1327 19.2478 40.1143 19.0461 40.0773C18.8472 40.0432 18.6824 39.9992 18.5517 39.9452L18.9608 38.5901C19.1739 38.6555 19.3657 38.691 19.5361 38.6966C19.7094 38.7023 19.8586 38.6626 19.9836 38.5773C20.1114 38.4921 20.2151 38.3472 20.2946 38.1427L20.4012 37.8657L18.0532 31.1327H19.9623L21.3174 35.9395H21.3856L22.7534 31.1327H24.6753L22.1313 38.3856C22.0091 38.7378 21.8429 39.0447 21.6327 39.306C21.4253 39.5702 21.1625 39.7733 20.8444 39.9154C20.5262 40.0603 20.1427 40.1327 19.6938 40.1327Z" fill="white"/>
<path d="M30.5089 31.1327V37.6782H28.7873V31.1327H30.5089ZM29.6694 34.0049V35.4367C29.5302 35.4992 29.3569 35.5589 29.1495 35.6157C28.9422 35.6697 28.7248 35.7137 28.4976 35.7478C28.2703 35.7819 28.0572 35.7989 27.8583 35.7989C26.918 35.7989 26.178 35.6057 25.6382 35.2194C25.0984 34.8302 24.8285 34.2094 24.8285 33.3572V31.1242H26.5416V33.3572C26.5416 33.61 26.5842 33.8103 26.6694 33.958C26.7575 34.1057 26.8967 34.2123 27.087 34.2776C27.2802 34.3401 27.5373 34.3714 27.8583 34.3714C28.1566 34.3714 28.4493 34.3401 28.7362 34.2776C29.0231 34.2151 29.3342 34.1242 29.6694 34.0049Z" fill="white"/>
<path d="M31.3184 31.1327H33.0527V36.2378H34.8979V31.1327H36.6323V36.2378H38.4775V31.1327H40.2118V37.6782H31.3184V31.1327Z" fill="white"/>
<path d="M42.7535 35.2833L45.1101 31.1327H46.8998V37.6782H45.1697V33.5148L42.8217 37.6782H41.0191V31.1327H42.7535V35.2833Z" fill="white"/>
<path d="M49.4895 35.2833L51.846 31.1327H53.6358V37.6782H51.9057V33.5148L49.5576 37.6782H47.7551V31.1327H49.4895V35.2833ZM51.5349 28.8486H52.8005C52.7977 29.3657 52.6059 29.7819 52.2253 30.0972C51.8474 30.4126 51.336 30.5702 50.6912 30.5702C50.0434 30.5702 49.5307 30.4126 49.1528 30.0972C48.775 29.7819 48.586 29.3657 48.586 28.8486H49.8432C49.8403 29.0447 49.9028 29.2208 50.0307 29.377C50.1613 29.5333 50.3815 29.6114 50.6912 29.6114C50.9923 29.6114 51.2082 29.5347 51.3389 29.3813C51.4696 29.2279 51.5349 29.0503 51.5349 28.8486Z" fill="white"/>
<path d="M56.6684 37.6782V31.1327H59.4596C60.2664 31.1327 60.9042 31.2861 61.3729 31.593C61.8417 31.8998 62.076 32.3358 62.076 32.9012C62.076 33.2563 61.9439 33.5518 61.6797 33.7876C61.4155 34.0233 61.049 34.1824 60.5803 34.2648C60.9723 34.2932 61.3061 34.3827 61.5817 34.5333C61.8601 34.681 62.0718 34.8728 62.2167 35.1086C62.3644 35.3444 62.4382 35.6057 62.4382 35.8927C62.4382 36.2648 62.3388 36.5844 62.14 36.8515C61.9439 37.1185 61.6556 37.3231 61.2749 37.4651C60.8971 37.6072 60.4354 37.6782 59.89 37.6782H56.6684ZM58.3601 36.3188H59.89C60.1428 36.3188 60.3402 36.2591 60.4823 36.1398C60.6272 36.0177 60.6996 35.8515 60.6996 35.6412C60.6996 35.4083 60.6272 35.2251 60.4823 35.0915C60.3402 34.958 60.1428 34.8912 59.89 34.8912H58.3601V36.3188ZM58.3601 33.8259H59.4979C59.6797 33.8259 59.8346 33.8003 59.9624 33.7492C60.0931 33.6952 60.1925 33.6185 60.2607 33.5191C60.3317 33.4197 60.3672 33.3018 60.3672 33.1654C60.3672 32.9637 60.2863 32.806 60.1243 32.6924C59.9624 32.5787 59.7408 32.5219 59.4596 32.5219H58.3601V33.8259Z" fill="white"/>
<path d="M65.1598 37.6782V31.1327H70.8828V37.6782H69.1484V32.5603H66.8728V37.6782H65.1598Z" fill="white"/>
<path d="M71.7316 40.1327V31.1327H73.5214V32.2322H73.6024C73.6819 32.056 73.797 31.877 73.9476 31.6952C74.101 31.5106 74.2998 31.3572 74.5442 31.235C74.7913 31.11 75.0981 31.0475 75.4646 31.0475C75.9419 31.0475 76.3822 31.1725 76.7856 31.4225C77.189 31.6697 77.5115 32.0432 77.753 32.5432C77.9944 33.0404 78.1152 33.664 78.1152 34.414C78.1152 35.1441 77.9973 35.7606 77.7615 36.2634C77.5285 36.7634 77.2103 37.1427 76.8069 37.4012C76.4064 37.6569 75.9575 37.7847 75.4603 37.7847C75.1081 37.7847 74.8084 37.7265 74.5612 37.61C74.3169 37.4935 74.1166 37.3472 73.9603 37.1711C73.8041 36.9921 73.6848 36.8117 73.6024 36.6299H73.547V40.1327H71.7316ZM73.5086 34.4055C73.5086 34.7947 73.5626 35.1341 73.6706 35.4239C73.7785 35.7137 73.9348 35.9395 74.1393 36.1015C74.3439 36.2606 74.5924 36.3401 74.8851 36.3401C75.1805 36.3401 75.4305 36.2591 75.6351 36.0972C75.8396 35.9324 75.9944 35.7052 76.0995 35.4154C76.2075 35.1228 76.2615 34.7861 76.2615 34.4055C76.2615 34.0276 76.2089 33.6952 76.1038 33.4083C75.9987 33.1214 75.8439 32.8969 75.6393 32.735C75.4348 32.5731 75.1834 32.4921 74.8851 32.4921C74.5896 32.4921 74.3396 32.5702 74.1351 32.7265C73.9334 32.8827 73.7785 33.1043 73.6706 33.3912C73.5626 33.6782 73.5086 34.0162 73.5086 34.4055Z" fill="white"/>
<path d="M81.7084 37.806C81.0351 37.806 80.4555 37.6697 79.9697 37.3969C79.4868 37.1214 79.1146 36.7322 78.8532 36.2293C78.5919 35.7236 78.4612 35.1256 78.4612 34.4353C78.4612 33.762 78.5919 33.1711 78.8532 32.6626C79.1146 32.154 79.4825 31.7577 79.9569 31.4736C80.4342 31.1895 80.9939 31.0475 81.6359 31.0475C82.0677 31.0475 82.4697 31.1171 82.8419 31.2563C83.2169 31.3927 83.5436 31.5986 83.822 31.8742C84.1032 32.1498 84.322 32.4964 84.4782 32.914C84.6345 33.3287 84.7126 33.8145 84.7126 34.3714V34.8699H79.1856V33.7449H83.0038C83.0038 33.4836 82.947 33.252 82.8334 33.0503C82.7197 32.8486 82.562 32.691 82.3603 32.5773C82.1615 32.4608 81.9299 32.4026 81.6657 32.4026C81.3902 32.4026 81.1458 32.4665 80.9328 32.5944C80.7226 32.7194 80.5578 32.8884 80.4385 33.1015C80.3191 33.3117 80.2581 33.5461 80.2552 33.8046V34.8742C80.2552 35.1981 80.3149 35.4779 80.4342 35.7137C80.5564 35.9495 80.7282 36.1313 80.9498 36.2591C81.1714 36.387 81.4342 36.4509 81.7382 36.4509C81.9399 36.4509 82.1245 36.4225 82.2922 36.3657C82.4598 36.3089 82.6032 36.2236 82.7225 36.11C82.8419 35.9964 82.9328 35.8572 82.9953 35.6924L84.6743 35.8032C84.589 36.2066 84.4143 36.5589 84.1501 36.86C83.8887 37.1583 83.5507 37.3912 83.1359 37.5589C82.724 37.7236 82.2481 37.806 81.7084 37.806Z" fill="white"/>
<path d="M89.1666 35.6711L90.9393 31.1327H92.32L89.7674 37.6782H88.5615L86.0686 31.1327H87.445L89.1666 35.6711ZM87.0317 31.1327V37.6782H85.2973V31.1327H87.0317ZM91.391 37.6782V31.1327H93.1041V37.6782H91.391Z" fill="white"/>
<path d="M95.6426 35.2833L97.9991 31.1327H99.7889V37.6782H98.0588V33.5148L95.7108 37.6782H93.9082V31.1327H95.6426V35.2833Z" fill="white"/>
<path d="M101.531 40.1327C101.3 40.1327 101.084 40.1143 100.883 40.0773C100.684 40.0432 100.519 39.9992 100.388 39.9452L100.798 38.5901C101.011 38.6555 101.202 38.691 101.373 38.6966C101.546 38.7023 101.695 38.6626 101.82 38.5773C101.948 38.4921 102.052 38.3472 102.131 38.1427L102.238 37.8657L99.8899 31.1327H101.799L103.154 35.9395H103.222L104.59 31.1327H106.512L103.968 38.3856C103.846 38.7378 103.68 39.0447 103.469 39.306C103.262 39.5702 102.999 39.7733 102.681 39.9154C102.363 40.0603 101.979 40.1327 101.531 40.1327Z" fill="white"/>
<path d="M110.71 35.6711L112.483 31.1327H113.864L111.311 37.6782H110.105L107.612 31.1327H108.989L110.71 35.6711ZM108.575 31.1327V37.6782H106.841V31.1327H108.575ZM112.935 37.6782V31.1327H114.648V37.6782H112.935Z" fill="white"/>
<path d="M41.9777 51.6782V45.1327H43.7931V47.6725H44.3044L46.0857 45.1327H48.2164L45.9025 48.3799L48.2419 51.6782H46.0857L44.4706 49.3557H43.7931V51.6782H41.9777Z" fill="white"/>
<path d="M48.5055 51.6782L48.4969 50.2378H48.7143C48.8677 50.2378 48.9998 50.2009 49.1106 50.127C49.2242 50.0503 49.318 49.9268 49.3918 49.7563C49.4657 49.5858 49.5239 49.36 49.5665 49.0787C49.6092 48.7947 49.6376 48.4452 49.6518 48.0305L49.7583 45.1327H54.7356V51.6782H53.0055V46.5603H51.3904L51.2881 48.5589C51.2626 49.1072 51.1958 49.5787 51.0879 49.9736C50.9827 50.3685 50.8364 50.6924 50.6489 50.9452C50.4614 51.1952 50.2356 51.3799 49.9714 51.4992C49.7072 51.6185 49.4004 51.6782 49.0509 51.6782H48.5055Z" fill="white"/>
<path d="M57.8894 51.8018C57.4718 51.8018 57.0996 51.7293 56.7729 51.5844C56.4462 51.4367 56.1877 51.2194 55.9973 50.9324C55.8098 50.6427 55.7161 50.2819 55.7161 49.8501C55.7161 49.4864 55.7828 49.181 55.9164 48.9339C56.0499 48.6867 56.2317 48.4878 56.4618 48.3373C56.6919 48.1867 56.9533 48.0731 57.2459 47.9964C57.5414 47.9197 57.851 47.8657 58.1749 47.8344C58.5556 47.7947 58.8624 47.7577 59.0953 47.7236C59.3283 47.6867 59.4973 47.6327 59.6024 47.5617C59.7076 47.4907 59.7601 47.3856 59.7601 47.2464V47.2208C59.7601 46.9509 59.6749 46.7421 59.5044 46.5944C59.3368 46.4466 59.0982 46.3728 58.7885 46.3728C58.4618 46.3728 58.2019 46.4452 58.0087 46.5901C57.8155 46.7322 57.6877 46.9111 57.6252 47.127L55.9462 46.9907C56.0314 46.593 56.199 46.2492 56.449 45.9594C56.699 45.6668 57.0215 45.4424 57.4164 45.2861C57.8141 45.127 58.2743 45.0475 58.797 45.0475C59.1607 45.0475 59.5087 45.0901 59.8411 45.1753C60.1763 45.2606 60.4732 45.3927 60.7317 45.5716C60.9931 45.7506 61.199 45.9807 61.3496 46.262C61.5002 46.5404 61.5755 46.8742 61.5755 47.2634V51.6782H59.8539V50.7705H59.8027C59.6976 50.9751 59.557 51.1555 59.3808 51.3117C59.2047 51.4651 58.9931 51.5858 58.7459 51.6739C58.4987 51.7591 58.2132 51.8018 57.8894 51.8018ZM58.4093 50.5489C58.6763 50.5489 58.9121 50.4964 59.1166 50.3912C59.3212 50.2833 59.4817 50.1384 59.5982 49.9566C59.7147 49.7748 59.7729 49.5688 59.7729 49.3387V48.6441C59.7161 48.681 59.6379 48.7151 59.5385 48.7464C59.4419 48.7748 59.3326 48.8018 59.2104 48.8273C59.0882 48.8501 58.9661 48.8714 58.8439 48.8912C58.7218 48.9083 58.611 48.9239 58.5115 48.9381C58.2985 48.9694 58.1124 49.0191 57.9533 49.0873C57.7942 49.1555 57.6706 49.2478 57.5826 49.3643C57.4945 49.4779 57.4505 49.6199 57.4505 49.7904C57.4505 50.0376 57.5399 50.2265 57.7189 50.3572C57.9007 50.485 58.1308 50.5489 58.4093 50.5489Z" fill="white"/>
<path d="M65.8212 51.806C65.1508 51.806 64.5741 51.664 64.0911 51.3799C63.611 51.093 63.2417 50.6952 62.9832 50.1867C62.7275 49.6782 62.5996 49.093 62.5996 48.431C62.5996 47.7606 62.7289 47.1725 62.9874 46.6668C63.2488 46.1583 63.6195 45.762 64.0996 45.4779C64.5797 45.191 65.1508 45.0475 65.8127 45.0475C66.3837 45.0475 66.8837 45.1512 67.3127 45.3586C67.7417 45.566 68.0812 45.8572 68.3312 46.2322C68.5812 46.6072 68.719 47.0475 68.7445 47.5532H67.0314C66.9832 47.2265 66.8553 46.9637 66.6479 46.7648C66.4434 46.5631 66.1749 46.4623 65.8425 46.4623C65.5613 46.4623 65.3155 46.539 65.1053 46.6924C64.8979 46.843 64.736 47.0631 64.6195 47.3529C64.503 47.6427 64.4448 47.9935 64.4448 48.4055C64.4448 48.8231 64.5016 49.1782 64.6153 49.4708C64.7317 49.7634 64.8951 49.9864 65.1053 50.1398C65.3155 50.2932 65.5613 50.3699 65.8425 50.3699C66.0499 50.3699 66.236 50.3273 66.4008 50.2421C66.5684 50.1569 66.7062 50.0333 66.8141 49.8714C66.9249 49.7066 66.9974 49.5091 67.0314 49.279H68.7445C68.7161 49.779 68.5797 50.2194 68.3354 50.6001C68.0939 50.9779 67.7601 51.2733 67.334 51.4864C66.9079 51.6995 66.4036 51.806 65.8212 51.806Z" fill="white"/>
<path d="M72.7442 51.806C72.0737 51.806 71.497 51.664 71.0141 51.3799C70.534 51.093 70.1646 50.6952 69.9061 50.1867C69.6504 49.6782 69.5226 49.093 69.5226 48.431C69.5226 47.7606 69.6519 47.1725 69.9104 46.6668C70.1717 46.1583 70.5425 45.762 71.0226 45.4779C71.5027 45.191 72.0737 45.0475 72.7357 45.0475C73.3067 45.0475 73.8067 45.1512 74.2357 45.3586C74.6646 45.566 75.0041 45.8572 75.2541 46.2322C75.5041 46.6072 75.6419 47.0475 75.6675 47.5532H73.9544C73.9061 47.2265 73.7783 46.9637 73.5709 46.7648C73.3663 46.5631 73.0979 46.4623 72.7655 46.4623C72.4842 46.4623 72.2385 46.539 72.0283 46.6924C71.8209 46.843 71.659 47.0631 71.5425 47.3529C71.426 47.6427 71.3678 47.9935 71.3678 48.4055C71.3678 48.8231 71.4246 49.1782 71.5382 49.4708C71.6547 49.7634 71.8181 49.9864 72.0283 50.1398C72.2385 50.2932 72.4842 50.3699 72.7655 50.3699C72.9729 50.3699 73.159 50.3273 73.3237 50.2421C73.4913 50.1569 73.6291 50.0333 73.7371 49.8714C73.8479 49.7066 73.9203 49.5091 73.9544 49.279H75.6675C75.6391 49.779 75.5027 50.2194 75.2584 50.6001C75.0169 50.9779 74.6831 51.2733 74.257 51.4864C73.8308 51.6995 73.3266 51.806 72.7442 51.806Z" fill="white"/>
<path d="M79.6927 51.806C79.0194 51.806 78.4399 51.6697 77.9541 51.3969C77.4711 51.1214 77.099 50.7322 76.8376 50.2293C76.5762 49.7236 76.4456 49.1256 76.4456 48.4353C76.4456 47.762 76.5762 47.1711 76.8376 46.6626C77.099 46.154 77.4669 45.7577 77.9413 45.4736C78.4186 45.1895 78.9782 45.0475 79.6203 45.0475C80.0521 45.0475 80.4541 45.1171 80.8262 45.2563C81.2012 45.3927 81.5279 45.5986 81.8064 45.8742C82.0876 46.1498 82.3064 46.4964 82.4626 46.914C82.6189 47.3287 82.697 47.8145 82.697 48.3714V48.8699H77.17V47.7449H80.9882C80.9882 47.4836 80.9314 47.252 80.8177 47.0503C80.7041 46.8486 80.5464 46.691 80.3447 46.5773C80.1458 46.4608 79.9143 46.4026 79.6501 46.4026C79.3745 46.4026 79.1302 46.4665 78.9172 46.5944C78.7069 46.7194 78.5422 46.8884 78.4228 47.1015C78.3035 47.3117 78.2424 47.5461 78.2396 47.8046V48.8742C78.2396 49.1981 78.2993 49.4779 78.4186 49.7137C78.5407 49.9495 78.7126 50.1313 78.9342 50.2591C79.1558 50.387 79.4186 50.4509 79.7225 50.4509C79.9243 50.4509 80.1089 50.4225 80.2765 50.3657C80.4441 50.3089 80.5876 50.2236 80.7069 50.11C80.8262 49.9964 80.9172 49.8572 80.9797 49.6924L82.6586 49.8032C82.5734 50.2066 82.3987 50.5589 82.1345 50.86C81.8731 51.1583 81.5351 51.3912 81.1203 51.5589C80.7083 51.7236 80.2325 51.806 79.6927 51.806Z" fill="white"/>
<defs>
<linearGradient id="paint0_linear_1879_10573" x1="85.5546" y1="80.519" x2="55.969" y2="0.974128" gradientUnits="userSpaceOnUse">
<stop stop-color="#4054E8"/>
<stop offset="1" stop-color="#5C47FF"/>
</linearGradient>
<radialGradient id="paint1_radial_1879_10573" cx="0" cy="0" r="1" gradientUnits="userSpaceOnUse" gradientTransform="translate(64.2053 0.678224) rotate(90) scale(41.5 41.5)">
<stop stop-color="white"/>
<stop offset="1" stop-color="white" stop-opacity="0"/>
</radialGradient>
</defs>
</svg>
