<svg width="261" height="84" viewBox="0 0 261 84" fill="none" xmlns="http://www.w3.org/2000/svg">
<path d="M53.9183 37.4465C53.6623 37.4465 53.4863 37.3985 53.3903 37.3025C53.3103 37.2065 53.2543 37.0225 53.2223 36.7505L53.0063 32.2145L53.0303 31.5425L53.0543 29.3105C53.0543 26.9905 53.0463 25.2465 53.0303 24.0785C53.0143 23.6945 53.0063 22.8225 53.0063 21.4625L53.0303 20.5025C53.0303 20.3265 52.9983 20.2225 52.9343 20.1905C52.8703 20.1425 52.6943 20.1025 52.4063 20.0705C52.0863 20.0385 51.8543 20.0225 51.7103 20.0225C51.2623 20.0225 50.8383 20.1105 50.4383 20.2865C50.3423 20.5105 50.2863 20.9745 50.2703 21.6785C50.2543 22.3825 50.2463 23.2465 50.2463 24.2705C50.2303 24.5105 50.2383 25.5585 50.2703 27.4145V29.3585C50.2703 29.6625 50.3023 30.1025 50.3663 30.6785C50.4303 31.3505 50.4623 31.8625 50.4623 32.2145C50.4623 32.4385 50.4463 32.7265 50.4143 33.0785L50.3903 33.8225L50.5103 36.5585C50.5103 36.7825 50.4463 36.9505 50.3183 37.0625C50.1903 37.1745 50.0143 37.2225 49.7903 37.2065C49.3423 37.2065 49.1183 36.9905 49.1183 36.5585C49.1663 34.8785 49.1903 33.1905 49.1903 31.4945V30.3665C49.1583 29.1185 49.1263 28.1905 49.0943 27.5825C49.0623 27.1025 49.0303 26.4145 48.9983 25.5185C48.9503 24.2545 48.8943 22.3985 48.8303 19.9505C48.8303 19.6785 48.8863 19.4785 48.9983 19.3505C49.1263 19.2065 49.3183 19.1265 49.5743 19.1105C51.2383 19.0785 52.4943 19.0625 53.3423 19.0625C53.6463 19.0625 53.8943 19.1585 54.0863 19.3505C54.2943 19.5425 54.3663 19.7745 54.3023 20.0465C54.2383 20.4305 54.2063 20.8705 54.2063 21.3665C54.2063 21.7345 54.2143 22.0145 54.2303 22.2065V22.7345C54.2463 22.9425 54.2463 23.1825 54.2303 23.4545C54.2143 23.8065 54.2063 24.2465 54.2063 24.7745C54.1743 25.9265 54.1343 26.7425 54.0863 27.2225C54.1023 27.5905 54.1183 28.1825 54.1343 28.9985C54.1663 29.7985 54.1983 30.3665 54.2303 30.7025C54.1823 31.0065 54.1583 31.3185 54.1583 31.6385C54.1583 32.0065 54.2063 32.5745 54.3023 33.3425C54.3663 33.9025 54.4063 34.3425 54.4223 34.6625L54.4463 35.2385C54.4783 35.7505 54.4943 36.1265 54.4943 36.3665L54.4703 36.8945C54.4863 37.2625 54.3023 37.4465 53.9183 37.4465Z" fill="#4552EC"/>
<path fill-rule="evenodd" clip-rule="evenodd" d="M58.062 37.3745C57.854 36.5265 57.75 35.3505 57.75 33.8465L57.798 31.7105C57.83 31.0705 57.846 30.3585 57.846 29.5745C57.75 29.3505 57.702 29.1505 57.702 28.9745V28.9025C57.862 28.5985 57.942 27.9105 57.942 26.8385L57.966 25.7345C57.982 25.3825 57.99 24.9905 57.99 24.5585C57.99 23.6145 57.926 22.8705 57.798 22.3265C57.846 22.1025 57.926 21.9105 58.038 21.7505C58.15 21.5745 58.286 21.4865 58.446 21.4865H59.502C59.95 21.4865 60.342 21.5905 60.678 21.7985C61.014 21.9905 61.27 22.2705 61.446 22.6385C61.766 23.2945 61.926 24.0705 61.926 24.9665C61.926 25.6065 61.918 26.1105 61.902 26.4785C61.87 26.9425 61.79 27.3665 61.662 27.7505C61.614 27.9585 61.542 28.1345 61.446 28.2785C61.366 28.4065 61.246 28.5665 61.086 28.7585C60.862 29.0305 60.494 29.2865 59.982 29.5265C59.774 29.6385 59.502 29.7425 59.166 29.8385V32.4065L59.214 33.9425L59.262 34.6865C59.326 35.5825 59.358 36.3425 59.358 36.9665C59.358 37.1585 59.278 37.3185 59.118 37.4465C58.958 37.5905 58.774 37.6625 58.566 37.6625L58.062 37.3745ZM59.19 28.8545C60.134 28.7105 60.606 27.3585 60.606 24.7985C60.606 24.3345 60.582 23.9745 60.534 23.7185C60.486 23.5265 60.422 23.3745 60.342 23.2625C60.262 23.1345 60.142 23.0305 59.982 22.9505C59.806 22.8545 59.614 22.8065 59.406 22.8065C59.406 22.7905 59.318 22.7825 59.142 22.7825V24.1505C59.142 25.0945 59.15 25.9345 59.166 26.6705C59.166 27.5025 59.174 28.0465 59.19 28.3025V28.8545Z" fill="#4552EC"/>
<path d="M64.812 37.3025C64.988 37.4465 65.18 37.5185 65.388 37.5185H67.428C67.716 37.5185 67.956 37.4545 68.148 37.3265C68.356 37.2145 68.46 37.0465 68.46 36.8225C68.46 36.4385 68.156 36.2465 67.548 36.2465C67.164 36.2465 66.836 36.2545 66.564 36.2705L65.772 36.2945C65.74 36.2945 65.724 35.8465 65.724 34.9505C65.724 34.4705 65.748 33.7425 65.796 32.7665C65.812 32.1265 65.82 31.4065 65.82 30.6065C65.82 29.8065 65.804 29.1985 65.772 28.7825H66.372C66.532 28.8145 66.756 28.8305 67.044 28.8305C67.268 28.8305 67.452 28.7745 67.596 28.6625C67.74 28.5345 67.812 28.3825 67.812 28.2065C67.812 27.7585 67.428 27.5345 66.66 27.5345C66.468 27.5345 66.308 27.5425 66.18 27.5585L65.796 27.5825L65.724 27.1985C65.724 26.8145 65.748 26.2385 65.796 25.4705C65.812 24.9585 65.82 24.3825 65.82 23.7425C65.82 23.2945 65.812 22.9505 65.796 22.7105C66.34 22.7905 66.948 22.9505 67.62 23.1905C67.812 23.1105 67.972 23.0065 68.1 22.8785C68.244 22.7345 68.316 22.5825 68.316 22.4225C68.316 22.1345 67.964 21.8865 67.26 21.6785C66.572 21.4705 65.964 21.3665 65.436 21.3665C64.764 21.3665 64.428 21.9345 64.428 23.0705C64.428 23.2785 64.452 23.6145 64.5 24.0785C64.548 24.5265 64.572 24.8625 64.572 25.0865C64.572 26.0305 64.54 27.1985 64.476 28.5905C64.428 30.1425 64.404 31.3105 64.404 32.0945L64.452 33.6305C64.5 34.3185 64.524 34.8305 64.524 35.1665C64.524 35.3585 64.532 35.5265 64.548 35.6705V36.7745C64.564 36.9825 64.652 37.1585 64.812 37.3025Z" fill="#4552EC"/>
<path fill-rule="evenodd" clip-rule="evenodd" d="M80.2003 40.1585C80.0723 40.1905 79.9763 40.2065 79.9123 40.2065C79.7203 40.2065 79.5843 40.0865 79.5043 39.8465C79.4403 39.6545 79.4083 39.4145 79.4083 39.1265L79.4323 37.4705C79.4323 37.3745 79.4243 37.2865 79.4083 37.2065L79.3603 36.9665H76.6003C76.7603 36.9665 76.3763 37.0465 75.4483 37.2065C74.5363 37.3505 73.8243 37.4465 73.3123 37.4945L72.2323 37.5905L71.0323 37.7105V38.2385C71.0483 38.4465 71.0483 38.6945 71.0323 38.9825V39.1025C71.0323 39.3585 70.9683 39.5505 70.8403 39.6785C70.7123 39.8065 70.5923 39.8705 70.4803 39.8705C70.4163 39.8705 70.3203 39.8385 70.1923 39.7745C69.9043 39.5665 69.7443 39.2785 69.7123 38.9105L69.6403 37.1585C69.6083 36.5345 69.8643 36.2225 70.4083 36.2225C70.7123 36.2065 70.9523 36.1265 71.1283 35.9825C71.3043 35.8385 71.5123 35.6145 71.7523 35.3105C71.9923 34.9905 72.1763 34.6385 72.3043 34.2545C72.4483 33.8545 72.5843 33.3745 72.7123 32.8145C72.8563 32.2065 72.9603 31.6145 73.0243 31.0385C73.0883 30.4625 73.1683 29.6385 73.2643 28.5665C73.4083 26.8865 73.4803 25.1985 73.4803 23.5025L73.4563 22.1585C73.4563 21.8545 73.5443 21.6065 73.7203 21.4145C73.8963 21.2065 74.1363 21.1025 74.4403 21.1025C74.5363 21.1025 74.6083 21.1105 74.6563 21.1265C75.3923 21.2545 75.9923 21.3345 76.4563 21.3665H76.5763C76.7843 21.3665 76.9043 21.3265 76.9363 21.2465C77.0803 21.0545 77.2563 20.9585 77.4643 20.9585C77.6083 20.9585 77.7363 20.9905 77.8483 21.0545C78.1043 21.1505 78.2723 21.3905 78.3523 21.7745L78.2323 25.8785C78.2323 28.1025 78.2403 29.7665 78.2563 30.8705C78.2563 31.4465 78.2723 32.3265 78.3043 33.5105L78.3283 34.8305C78.3283 34.9585 78.3363 35.0785 78.3523 35.1905L78.4003 35.5265C78.7203 35.5585 78.9603 35.5745 79.1203 35.5745C79.2483 35.5745 79.3443 35.5665 79.4083 35.5505C79.7603 35.5025 80.0723 35.5905 80.3443 35.8145C80.6323 36.0225 80.7763 36.2945 80.7763 36.6305C80.7763 37.0625 80.7443 37.7105 80.6803 38.5745C80.6803 38.7985 80.6643 39.1185 80.6323 39.5345C80.6003 39.8705 80.4563 40.0785 80.2003 40.1585ZM73.2883 36.3425C74.1843 36.2625 74.8883 36.1905 75.4003 36.1265C75.9283 36.0465 76.4483 35.9265 76.9603 35.7665C77.1203 33.8305 77.2003 31.7585 77.2003 29.5505C77.2003 27.5025 77.1203 25.2545 76.9603 22.8065C76.5443 22.7905 75.7683 22.7505 74.6323 22.6865L74.6083 23.8145C74.4803 26.2785 74.3923 28.1185 74.3443 29.3345C74.2803 31.1585 73.9683 32.9505 73.4083 34.7105C73.3763 34.8065 73.3043 35.0465 73.1923 35.4305C73.0963 35.7985 72.9443 36.1185 72.7363 36.3905L73.2883 36.3425Z" fill="#4552EC"/>
<path fill-rule="evenodd" clip-rule="evenodd" d="M83.6588 37.2545C84.0108 37.5265 84.3948 37.6625 84.8108 37.6625C86.9548 37.6625 88.0268 35.3585 88.0268 30.7505L88.0028 29.3825C87.9868 28.9825 87.9788 28.5345 87.9788 28.0385V27.8465C87.9788 27.0945 87.9308 26.3825 87.8348 25.7105C87.7388 25.0545 87.5788 24.4385 87.3548 23.8625C87.1308 23.2705 86.8588 22.7745 86.5388 22.3745C86.1868 21.9585 85.7548 21.6385 85.2428 21.4145C84.7308 21.1745 84.1548 21.0545 83.5148 21.0545C83.2908 21.0545 83.0908 21.1425 82.9148 21.3185C82.7388 21.4785 82.5948 21.7185 82.4828 22.0385C82.1948 22.7585 82.0108 23.5025 81.9308 24.2705C81.8188 25.3905 81.7548 26.2065 81.7388 26.7185L81.7148 28.3985V28.8305C81.7308 28.8305 81.7388 28.8705 81.7388 28.9505V29.3825C81.7228 29.5105 81.7148 29.6705 81.7148 29.8625C81.7148 30.8705 81.7868 31.9185 81.9308 33.0065C82.0428 34.1585 82.3308 35.2225 82.7948 36.1985C83.0188 36.6465 83.3068 36.9985 83.6588 37.2545ZM85.5068 36.3185C85.2668 36.5425 85.0028 36.6545 84.7148 36.6545C84.2188 36.6545 83.8428 36.0625 83.5868 34.8785C83.3308 33.7425 83.1708 32.5745 83.1068 31.3745C83.0588 30.5265 83.0348 29.6705 83.0348 28.8065C83.0348 28.4065 83.0508 28.0385 83.0828 27.7025L83.1308 26.5985V25.9505C83.1148 25.7425 83.1068 25.4865 83.1068 25.1825C83.1068 24.3985 83.1868 23.7585 83.3468 23.2625C83.5228 22.6385 83.8828 22.3265 84.4268 22.3265C84.9708 22.3265 85.4268 22.5505 85.7948 22.9985C86.1788 23.4465 86.3868 23.9745 86.4188 24.5825V25.0145C86.4188 25.6225 86.4668 26.5425 86.5628 27.7745C86.6748 28.9425 86.7308 29.8865 86.7308 30.6065C86.7308 31.1985 86.6908 31.9025 86.6108 32.7185C86.5468 33.6625 86.3628 34.5425 86.0588 35.3585C85.9308 35.7585 85.7468 36.0785 85.5068 36.3185Z" fill="#4552EC"/>
<path d="M93.8672 37.5425C93.5152 37.5425 93.1392 37.4865 92.7392 37.3745C92.3552 37.2785 92.0592 37.1665 91.8512 37.0385C90.7792 36.3505 90.2432 34.4705 90.2432 31.3985V29.4305C90.2432 28.7905 90.2512 28.2225 90.2672 27.7265C90.2832 27.2145 90.3152 26.6625 90.3632 26.0705C90.4112 25.4465 90.4832 24.9425 90.5792 24.5585C90.6752 24.1585 90.8352 23.7105 91.0592 23.2145C91.2512 22.7505 91.4832 22.3905 91.7552 22.1345C92.0432 21.8785 92.4112 21.6625 92.8592 21.4865C93.2592 21.3105 93.7552 21.2225 94.3472 21.2225C94.5872 21.2225 94.7712 21.2785 94.8992 21.3905C95.0272 21.5025 95.0912 21.6465 95.0912 21.8225C95.0912 21.9825 95.0352 22.1265 94.9232 22.2545C94.8272 22.3825 94.7072 22.4545 94.5632 22.4705H93.4352C93.1152 22.4705 92.8352 22.6705 92.5952 23.0705C92.3552 23.4705 92.1872 23.9905 92.0912 24.6305C91.8832 25.8145 91.7792 26.7745 91.7792 27.5105V27.6305L91.7312 29.9345C91.6992 30.6225 91.6832 31.3985 91.6832 32.2625C91.6832 32.8705 91.7072 33.3665 91.7552 33.7505C91.8352 34.3265 91.9712 34.8065 92.1632 35.1905C92.3552 35.6225 92.6832 35.9345 93.1472 36.1265C93.3872 36.2225 93.6512 36.2705 93.9392 36.2705C94.1152 36.2705 94.2912 36.2065 94.4672 36.0785C94.6752 36.0785 94.8432 36.1265 94.9712 36.2225C95.1152 36.3025 95.1872 36.4305 95.1872 36.6065C95.1872 37.2305 94.7472 37.5425 93.8672 37.5425Z" fill="#4552EC"/>
<path d="M98.6743 35.8865L98.6983 36.8225L99.1303 37.1345C99.3383 37.1345 99.5223 37.0625 99.6823 36.9185C99.8583 36.7745 99.9463 36.6065 99.9463 36.4145C99.9463 34.7985 99.8183 32.5265 99.5623 29.5985C99.2903 26.4785 99.1543 24.2065 99.1543 22.7825L99.2023 22.5425L99.6823 22.6385C99.9543 22.6865 100.162 22.7105 100.306 22.7105C100.514 22.7105 100.698 22.6545 100.858 22.5425C101.018 22.4145 101.098 22.2545 101.098 22.0625C101.098 21.6785 100.85 21.4865 100.354 21.4865H99.9703C99.4903 21.4865 98.9463 21.4465 98.3383 21.3665C97.6983 21.3025 97.1543 21.2705 96.7063 21.2705C96.5303 21.2705 96.3543 21.3265 96.1783 21.4385C96.0183 21.5345 95.9383 21.6465 95.9383 21.7745C95.9383 21.9345 96.0263 22.0785 96.2023 22.2065C96.4583 22.3665 97.0503 22.4625 97.9783 22.4945C98.0103 23.4385 98.1223 25.5745 98.3143 28.9025C98.5063 32.2305 98.6263 33.9825 98.6743 34.1585L98.6503 34.9745C98.6503 35.3105 98.6583 35.6145 98.6743 35.8865Z" fill="#4552EC"/>
<path fill-rule="evenodd" clip-rule="evenodd" d="M108.223 37.4225C107.855 37.4225 107.583 37.3665 107.407 37.2545C107.231 37.1425 107.143 36.9345 107.143 36.6305C107.143 36.1505 107.063 35.3345 106.903 34.1825L106.807 33.6785L104.431 33.3185C104.335 33.6865 104.199 34.4305 104.023 35.5505C103.927 36.3345 103.775 36.8545 103.567 37.1105C103.455 37.2545 103.295 37.3265 103.087 37.3265C102.895 37.3265 102.719 37.2705 102.559 37.1585C102.399 37.0305 102.319 36.8785 102.319 36.7025L102.367 36.5825L102.391 36.4865C103.447 32.3745 104.247 28.3185 104.791 24.3185C104.791 24.2545 104.799 24.1505 104.815 24.0065C104.831 23.8465 104.847 23.6225 104.863 23.3345C104.911 22.7425 104.959 22.2705 105.007 21.9185C105.071 21.5665 105.167 21.3025 105.295 21.1265H106.111C106.335 21.1265 106.527 21.1825 106.687 21.2945C106.847 21.3905 106.927 21.5345 106.927 21.7265C106.927 22.9425 107.095 24.7505 107.431 27.1505C107.751 29.6145 107.911 31.3425 107.911 32.3345C107.911 32.4305 107.951 32.6785 108.031 33.0785C108.111 33.4465 108.151 33.6865 108.151 33.7985C108.151 33.9105 108.231 34.3905 108.391 35.2385C108.535 36.0065 108.607 36.5025 108.607 36.7265V36.7505C108.607 37.1025 108.479 37.3265 108.223 37.4225ZM106.639 32.8145C106.591 32.5745 106.567 32.2785 106.567 31.9265C106.567 30.4865 106.439 28.6465 106.183 26.4065L105.943 23.9105C105.255 27.6705 104.783 30.5105 104.527 32.4305C104.767 32.5905 105.471 32.7185 106.639 32.8145Z" fill="#4552EC"/>
<path fill-rule="evenodd" clip-rule="evenodd" d="M110.715 36.9905C110.795 37.2945 111.011 37.4465 111.363 37.4465C111.811 37.4465 112.259 37.3665 112.707 37.2065C113.443 36.9025 114.003 36.3425 114.387 35.5265C114.723 34.8065 114.891 33.9585 114.891 32.9825C114.891 32.0065 114.811 31.1985 114.651 30.5585C114.507 29.9025 114.219 29.3665 113.787 28.9505C114.139 28.4545 114.387 27.9185 114.531 27.3425C114.675 26.7505 114.747 26.0225 114.747 25.1585C114.747 24.0065 114.515 23.0465 114.051 22.2785C113.827 21.9105 113.467 21.6065 112.971 21.3665C112.475 21.1265 112.019 21.0065 111.603 21.0065C111.299 21.0065 111.091 21.0945 110.979 21.2705C110.867 21.4465 110.811 21.7185 110.811 22.0865V22.2065L110.883 22.8065C110.931 23.0945 110.955 23.3105 110.955 23.4545L110.907 27.2465C110.859 28.9425 110.835 30.2145 110.835 31.0625C110.835 31.8145 110.795 32.6705 110.715 33.6305C110.651 34.6385 110.619 35.4865 110.619 36.1745C110.619 36.5265 110.651 36.7985 110.715 36.9905ZM113.379 25.3505C113.379 27.2705 112.963 28.2385 112.131 28.2545V24.7025C112.131 23.3425 112.219 22.4785 112.395 22.1105C113.051 22.2065 113.379 23.2865 113.379 25.3505ZM113.187 35.3105C112.899 35.8065 112.499 36.1105 111.987 36.2225V35.0945C111.971 35.0785 111.963 35.0545 111.963 35.0225L112.011 34.2065C112.043 33.6945 112.059 33.3905 112.059 33.2945C112.059 31.7905 112.091 30.5825 112.155 29.6705C112.411 29.7185 112.635 29.8625 112.827 30.1025C113.003 30.3265 113.139 30.5745 113.235 30.8465C113.347 31.1025 113.435 31.4305 113.499 31.8305C113.579 32.3425 113.619 32.9345 113.619 33.6065C113.619 34.2465 113.475 34.8145 113.187 35.3105Z" fill="#4552EC"/>
<path d="M116.874 37.7345C116.746 37.7345 116.634 37.6945 116.538 37.6145C116.442 37.5345 116.37 37.4305 116.322 37.3025C116.306 37.2705 116.298 37.2225 116.298 37.1585C116.298 36.9505 116.41 36.7825 116.634 36.6545C117.082 36.4625 117.418 36.1745 117.642 35.7905C117.882 35.3905 118.05 34.9265 118.146 34.3985C118.434 32.8305 118.578 31.1265 118.578 29.2865C118.578 28.5985 118.57 28.0785 118.554 27.7265C118.442 25.0225 118.346 23.1185 118.266 22.0145V21.9185C118.266 21.7745 118.298 21.6625 118.362 21.5825C118.426 21.5025 118.538 21.4465 118.698 21.4145C119.722 21.2225 120.538 21.1265 121.146 21.1265C121.466 21.1265 121.706 21.1345 121.866 21.1505C122.234 21.1665 122.514 21.2785 122.706 21.4865C122.898 21.6945 122.994 21.9825 122.994 22.3505L123.018 23.6225C123.05 24.7425 123.066 25.5825 123.066 26.1425L123.042 27.2945C123.042 28.9905 123.106 31.1345 123.234 33.7265C123.298 34.8945 123.354 35.7985 123.402 36.4385C123.418 36.7265 123.37 36.9345 123.258 37.0625C123.162 37.1905 122.994 37.2705 122.754 37.3025C122.226 37.3345 121.946 37.0865 121.914 36.5585C121.962 36.0945 121.986 35.6305 121.986 35.1665C121.986 34.7025 121.978 34.3185 121.962 34.0145L121.938 31.2785C121.938 29.9505 121.914 28.5905 121.866 27.1985C121.834 26.0465 121.786 24.9585 121.722 23.9345C121.658 22.9105 121.594 22.2865 121.53 22.0625C121.434 22.0785 121.234 22.1185 120.93 22.1825C120.626 22.2465 120.21 22.3025 119.682 22.3505C119.634 23.0865 119.61 23.6145 119.61 23.9345C119.61 24.3025 119.634 24.6225 119.682 24.8945C119.714 25.3265 119.746 25.9585 119.778 26.7905V27.3185C119.778 29.9105 119.754 31.6625 119.706 32.5745C119.674 32.8305 119.658 33.0305 119.658 33.1745C119.594 33.8465 119.53 34.3585 119.466 34.7105C119.306 35.5585 118.818 36.4225 118.002 37.3025C117.778 37.5585 117.418 37.7025 116.922 37.7345H116.874Z" fill="#4552EC"/>
<path fill-rule="evenodd" clip-rule="evenodd" d="M125.576 37.2785C125.672 37.3425 125.792 37.3905 125.936 37.4225C126.144 37.4545 126.36 37.4225 126.584 37.3265C126.808 37.2305 126.984 37.0785 127.112 36.8705C127.384 36.4545 127.56 36.0145 127.64 35.5505C127.72 35.0705 127.76 34.4865 127.76 33.7985L127.736 32.8865C127.704 32.5025 127.688 32.2065 127.688 31.9985C127.688 31.5825 127.712 31.2705 127.76 31.0625C127.824 30.7265 127.912 30.4705 128.024 30.2945C128.152 30.1025 128.352 29.9505 128.624 29.8385C128.896 29.7265 129.312 29.6225 129.872 29.5265L129.944 35.5025C129.944 35.8865 129.968 36.2625 130.016 36.6305C130.032 36.8065 130.112 36.9425 130.256 37.0385C130.416 37.1345 130.592 37.1825 130.784 37.1825C131.232 37.1825 131.456 36.9665 131.456 36.5345C131.456 36.4225 131.44 36.2785 131.408 36.1025C131.376 35.9265 131.352 35.7665 131.336 35.6225L131.24 34.0625C131.144 32.7185 131.08 31.6785 131.048 30.9425L131.024 29.5985L131.048 28.2545L131.12 24.8465C131.152 23.3745 131.168 22.2945 131.168 21.6065C131.168 21.4145 131.048 21.2465 130.808 21.1025C130.584 20.9585 130.32 20.8865 130.016 20.8865C129.808 20.8865 129.6 20.9265 129.392 21.0065C129.28 21.1345 129.128 21.2225 128.936 21.2705C128.76 21.3185 128.624 21.3665 128.528 21.4145C128.4 21.4785 128.216 21.5665 127.976 21.6785C127.752 21.7905 127.544 21.9185 127.352 22.0625C127.16 22.1905 127.008 22.3745 126.896 22.6145C126.592 23.1265 126.384 23.5985 126.272 24.0305C126.144 24.4465 126.08 25.0705 126.08 25.9025V26.6705C126.08 27.6785 126.544 28.6065 127.472 29.4545C126.784 30.3505 126.44 31.2625 126.44 32.1905C126.44 32.3505 126.456 32.6065 126.488 32.9585C126.52 33.3105 126.536 33.5825 126.536 33.7745L126.512 34.1825C126.496 34.5345 126.448 34.9025 126.368 35.2865C126.288 35.6705 126.24 35.9105 126.224 36.0065C126.176 36.1505 126.12 36.2625 126.056 36.3425C125.992 36.4225 125.888 36.4705 125.744 36.4865C125.68 36.5025 125.616 36.5665 125.552 36.6785C125.488 36.7905 125.448 36.8945 125.432 36.9905C125.448 37.1345 125.496 37.2305 125.576 37.2785ZM128.624 28.8305C128.48 28.8305 128.376 28.8225 128.312 28.8065C128.04 28.7425 127.832 28.5585 127.688 28.2545C127.544 27.9505 127.464 27.6225 127.448 27.2705C127.416 26.8705 127.4 26.2465 127.4 25.3985C127.416 24.6465 127.632 23.8785 128.048 23.0945C128.16 22.9025 128.384 22.7265 128.72 22.5665C129.056 22.4065 129.44 22.2945 129.872 22.2305C129.824 22.9185 129.8 23.5985 129.8 24.2705C129.8 25.0705 129.824 25.8785 129.872 26.6945C129.904 27.5585 129.92 28.1985 129.92 28.6145C129.392 28.7585 128.96 28.8305 128.624 28.8305Z" fill="#4552EC"/>
<path d="M135.443 37.5185C135.235 37.5185 135.043 37.4465 134.867 37.3025C134.707 37.1585 134.619 36.9825 134.603 36.7745V35.6705C134.587 35.5265 134.579 35.3585 134.579 35.1665C134.579 34.8305 134.555 34.3185 134.507 33.6305L134.459 32.0945C134.459 31.3105 134.483 30.1425 134.531 28.5905C134.595 27.1985 134.627 26.0305 134.627 25.0865C134.627 24.8625 134.603 24.5265 134.555 24.0785C134.507 23.6145 134.483 23.2785 134.483 23.0705C134.483 21.9345 134.819 21.3665 135.491 21.3665C136.019 21.3665 136.627 21.4705 137.315 21.6785C138.019 21.8865 138.371 22.1345 138.371 22.4225C138.371 22.5825 138.299 22.7345 138.155 22.8785C138.027 23.0065 137.867 23.1105 137.675 23.1905C137.003 22.9505 136.395 22.7905 135.851 22.7105C135.867 22.9505 135.875 23.2945 135.875 23.7425C135.875 24.3825 135.867 24.9585 135.851 25.4705C135.803 26.2385 135.779 26.8145 135.779 27.1985L135.851 27.5825L136.235 27.5585C136.363 27.5425 136.523 27.5345 136.715 27.5345C137.483 27.5345 137.867 27.7585 137.867 28.2065C137.867 28.3825 137.795 28.5345 137.651 28.6625C137.507 28.7745 137.323 28.8305 137.099 28.8305C136.811 28.8305 136.587 28.8145 136.427 28.7825H135.827C135.859 29.1985 135.875 29.8065 135.875 30.6065C135.875 31.4065 135.867 32.1265 135.851 32.7665C135.803 33.7425 135.779 34.4705 135.779 34.9505C135.779 35.8465 135.795 36.2945 135.827 36.2945L136.619 36.2705C136.891 36.2545 137.219 36.2465 137.603 36.2465C138.211 36.2465 138.515 36.4385 138.515 36.8225C138.515 37.0465 138.411 37.2145 138.203 37.3265C138.011 37.4545 137.771 37.5185 137.483 37.5185H135.443Z" fill="#4552EC"/>
<path d="M150.087 36.9665C150.087 37.9585 150.335 38.4545 150.831 38.4545C151.055 38.4545 151.247 38.3505 151.407 38.1425C151.567 37.9345 151.647 37.6945 151.647 37.4225C151.647 37.3265 151.607 37.1745 151.527 36.9665C151.527 36.9505 151.519 36.9025 151.503 36.8225C151.503 36.7425 151.495 36.6305 151.479 36.4865L151.407 35.6465C151.359 35.2625 151.335 34.9745 151.335 34.7825L151.383 33.5105L151.407 32.2385C151.407 31.0545 151.351 29.3905 151.239 27.2465C151.143 24.9425 151.095 23.2145 151.095 22.0625C151.095 21.8705 150.999 21.7185 150.807 21.6065C150.631 21.4785 150.431 21.4145 150.207 21.4145C149.967 21.4145 149.703 21.7505 149.415 22.4225C149.127 23.0465 148.831 23.9105 148.527 25.0145C148.015 26.8225 147.503 28.8465 146.991 31.0865L146.847 31.6625C146.767 32.0305 146.663 32.4305 146.535 32.8625C146.375 32.0145 146.015 30.6385 145.455 28.7345C144.895 26.8305 144.335 25.1265 143.775 23.6225C143.215 22.1185 142.831 21.3665 142.623 21.3665C142.367 21.3665 142.143 21.4225 141.951 21.5345C141.775 21.6305 141.687 21.7745 141.687 21.9665C141.687 22.1265 141.735 22.2785 141.831 22.4225C141.831 24.0545 141.711 26.5025 141.471 29.7665C141.231 33.0305 141.111 35.4785 141.111 37.1105C141.111 37.2545 141.183 37.3825 141.327 37.4945C141.471 37.6225 141.623 37.6865 141.783 37.6865C142.087 37.6865 142.295 37.6145 142.407 37.4705C142.519 37.3425 142.575 37.1425 142.575 36.8705V36.5345C142.559 36.4225 142.551 36.3025 142.551 36.1745C142.551 35.6305 142.567 34.6225 142.599 33.1505C142.647 31.6305 142.735 29.7265 142.863 27.4385L143.007 24.7265C143.471 26.1825 143.983 28.0545 144.543 30.3425C145.119 32.6305 145.407 34.1265 145.407 34.8305C145.407 35.1505 145.495 35.4065 145.671 35.5985C145.863 35.7745 146.111 35.8625 146.415 35.8625C146.719 35.8625 147.111 35.0705 147.591 33.4865C148.087 31.8385 148.567 30.0465 149.031 28.1105C149.495 26.1105 149.759 25.0065 149.823 24.7985C149.823 25.3425 149.807 25.8305 149.775 26.2625L149.727 27.7505C149.727 28.2945 149.791 29.2945 149.919 30.7505C150.031 32.0465 150.087 33.0945 150.087 33.8945V36.9665Z" fill="#4552EC"/>
<path d="M162.211 37.5425C161.859 37.5425 161.483 37.4865 161.083 37.3745C160.699 37.2785 160.403 37.1665 160.195 37.0385C159.123 36.3505 158.587 34.4705 158.587 31.3985V29.4305C158.587 28.7905 158.595 28.2225 158.611 27.7265C158.627 27.2145 158.659 26.6625 158.707 26.0705C158.755 25.4465 158.827 24.9425 158.923 24.5585C159.019 24.1585 159.179 23.7105 159.403 23.2145C159.595 22.7505 159.827 22.3905 160.099 22.1345C160.387 21.8785 160.755 21.6625 161.203 21.4865C161.603 21.3105 162.099 21.2225 162.691 21.2225C162.931 21.2225 163.115 21.2785 163.243 21.3905C163.371 21.5025 163.435 21.6465 163.435 21.8225C163.435 21.9825 163.379 22.1265 163.267 22.2545C163.171 22.3825 163.051 22.4545 162.907 22.4705H161.779C161.459 22.4705 161.179 22.6705 160.939 23.0705C160.699 23.4705 160.531 23.9905 160.435 24.6305C160.227 25.8145 160.123 26.7745 160.123 27.5105V27.6305L160.075 29.9345C160.043 30.6225 160.027 31.3985 160.027 32.2625C160.027 32.8705 160.051 33.3665 160.099 33.7505C160.179 34.3265 160.315 34.8065 160.507 35.1905C160.699 35.6225 161.027 35.9345 161.491 36.1265C161.731 36.2225 161.995 36.2705 162.283 36.2705C162.459 36.2705 162.635 36.2065 162.811 36.0785C163.019 36.0785 163.187 36.1265 163.315 36.2225C163.459 36.3025 163.531 36.4305 163.531 36.6065C163.531 37.2305 163.091 37.5425 162.211 37.5425Z" fill="#4552EC"/>
<path d="M166.37 37.2065C166.514 37.2225 166.618 37.2385 166.682 37.2545C166.858 37.0945 166.978 36.9665 167.042 36.8705C167.122 36.7585 167.154 36.6145 167.138 36.4385C167.074 35.0305 167.042 33.9825 167.042 33.2945C167.042 32.2065 167.058 31.0865 167.09 29.9345C167.234 29.8865 167.354 29.8625 167.45 29.8625C167.562 29.8625 167.65 29.8945 167.714 29.9585C167.778 30.0065 167.842 30.0865 167.906 30.1985C168.146 30.6625 168.298 31.1505 168.362 31.6625C168.442 32.1585 168.514 32.8945 168.578 33.8705C168.658 34.5745 168.754 35.2705 168.866 35.9585C168.93 36.2305 169.01 36.4465 169.106 36.6065C169.218 36.8465 169.394 37.0385 169.634 37.1825C169.89 37.3265 170.154 37.3985 170.426 37.3985C170.794 37.3985 171.098 37.2785 171.338 37.0385C171.498 36.8785 171.578 36.7105 171.578 36.5345C171.578 36.4545 171.57 36.3985 171.554 36.3665C171.474 36.0625 171.306 35.9025 171.05 35.8865C170.922 35.8705 170.802 35.8545 170.69 35.8385C170.594 35.8225 170.506 35.8065 170.426 35.7905C170.154 35.3585 169.994 34.8545 169.946 34.2785C169.914 33.7025 169.858 33.2065 169.778 32.7905C169.698 32.3585 169.562 31.8865 169.37 31.3745C169.338 31.2465 169.306 31.0545 169.274 30.7985C169.258 30.7505 169.218 30.5745 169.154 30.2705C169.106 29.9665 169.018 29.6865 168.89 29.4305C168.698 29.2065 168.506 29.0305 168.314 28.9025C168.138 28.7745 167.994 28.7505 167.882 28.8305C167.93 28.7825 167.986 28.7345 168.05 28.6865C168.114 28.6385 168.162 28.5905 168.194 28.5425C168.274 28.3985 168.354 28.1905 168.434 27.9185C168.53 27.6465 168.602 27.4545 168.65 27.3425L169.61 24.9905C169.754 24.4945 169.874 24.1265 169.97 23.8865C170.082 23.6305 170.25 23.3905 170.474 23.1665C170.698 22.9425 171.01 22.7985 171.41 22.7345C171.57 22.7025 171.698 22.6225 171.794 22.4945C171.906 22.3665 171.962 22.2225 171.962 22.0625C171.962 21.9025 171.914 21.7665 171.818 21.6545C171.738 21.5425 171.57 21.4465 171.314 21.3665C171.074 21.2865 170.882 21.2705 170.738 21.3185C170.322 21.4465 169.994 21.6785 169.754 22.0145C169.514 22.3345 169.322 22.7265 169.178 23.1905C168.842 24.0545 168.41 25.2865 167.882 26.8865C167.85 27.0305 167.794 27.1745 167.714 27.3185C167.634 27.4465 167.578 27.5425 167.546 27.6065C167.29 28.1345 167.138 28.4305 167.09 28.4945C167.058 27.7265 167.042 27.1665 167.042 26.8145V24.8945C167.042 23.4545 167.098 22.4945 167.21 22.0145C167.226 21.7745 167.13 21.5665 166.922 21.3905C166.73 21.2145 166.538 21.1265 166.346 21.1265C166.138 21.1265 165.962 21.2145 165.818 21.3905C165.69 21.5665 165.634 21.7825 165.65 22.0385C165.73 23.5105 165.77 24.9025 165.77 26.2145C165.818 28.7585 165.842 31.2865 165.842 33.7985C165.842 34.2305 165.81 34.8785 165.746 35.7425L165.722 36.2705C165.674 36.6545 165.77 36.9265 166.01 37.0865C166.106 37.1505 166.226 37.1905 166.37 37.2065Z" fill="#4552EC"/>
<path d="M174.786 37.1585C174.578 37.0945 174.466 36.9585 174.45 36.7505V36.3905C174.418 35.7185 174.386 34.7105 174.354 33.3665C174.29 32.1985 174.25 31.3025 174.234 30.6785C174.186 29.7025 174.13 28.2385 174.066 26.2865C174.05 25.9505 174.034 25.4865 174.018 24.8945C174.002 24.3025 173.994 23.8545 173.994 23.5505C173.978 23.3745 173.97 23.1265 173.97 22.8065C173.97 22.4385 173.986 22.1665 174.018 21.9905C174.082 21.4945 174.354 21.2625 174.834 21.2945C175.282 21.2945 175.522 21.5505 175.554 22.0625V22.3505L175.53 28.3985V32.6945C175.53 32.9185 175.546 33.1825 175.578 33.4865C175.61 33.7745 175.634 33.9825 175.65 34.1105C175.73 33.6465 175.858 33.1745 176.034 32.6945C176.226 32.1985 176.346 31.8945 176.394 31.7825C176.634 31.2065 176.81 30.7345 176.922 30.3665C177.306 29.1345 177.802 27.6225 178.41 25.8305C178.538 25.4625 178.682 25.0145 178.842 24.4865C179.274 23.1265 179.57 22.2465 179.73 21.8465C179.874 21.4625 180.09 21.2225 180.378 21.1265C180.522 21.0785 180.666 21.0545 180.81 21.0545C181.034 21.0545 181.266 21.1265 181.506 21.2705V22.4225C181.506 23.6225 181.53 24.8625 181.578 26.1425C181.594 26.4145 181.602 26.8225 181.602 27.3665V28.0625C181.602 28.2065 181.594 28.3985 181.578 28.6385C181.578 28.8785 181.586 29.1585 181.602 29.4785L181.674 35.9585C181.674 36.1985 181.618 36.4625 181.506 36.7505C181.458 36.8785 181.378 36.9825 181.266 37.0625C181.154 37.1265 181.034 37.1585 180.906 37.1585C180.458 37.1585 180.234 36.9505 180.234 36.5345C180.234 36.0545 180.258 35.5905 180.306 35.1425C180.338 34.5345 180.354 34.0705 180.354 33.7505C180.322 30.5825 180.282 28.2145 180.234 26.6465C180.234 26.4065 180.202 26.0145 180.138 25.4705L180.066 24.6065C179.922 24.7665 179.842 24.8705 179.826 24.9185L179.442 26.0945C179.186 26.9265 178.986 27.5425 178.842 27.9425L176.754 33.7505L175.674 36.7025C175.546 37.0385 175.354 37.2065 175.098 37.2065C175.05 37.2065 174.946 37.1905 174.786 37.1585Z" fill="#4552EC"/>
<path fill-rule="evenodd" clip-rule="evenodd" d="M193.373 40.2065C193.437 40.2065 193.533 40.1905 193.661 40.1585C193.917 40.0785 194.061 39.8705 194.093 39.5345C194.125 39.1185 194.141 38.7985 194.141 38.5745C194.205 37.7105 194.237 37.0625 194.237 36.6305C194.237 36.2945 194.093 36.0225 193.805 35.8145C193.533 35.5905 193.221 35.5025 192.869 35.5505C192.805 35.5665 192.709 35.5745 192.581 35.5745C192.421 35.5745 192.181 35.5585 191.861 35.5265L191.813 35.1905C191.797 35.0785 191.789 34.9585 191.789 34.8305L191.765 33.5105C191.733 32.3265 191.717 31.4465 191.717 30.8705C191.701 29.7665 191.693 28.1025 191.693 25.8785L191.813 21.7745C191.733 21.3905 191.565 21.1505 191.309 21.0545C191.197 20.9905 191.069 20.9585 190.925 20.9585C190.717 20.9585 190.541 21.0545 190.397 21.2465C190.365 21.3265 190.245 21.3665 190.037 21.3665H189.917C189.453 21.3345 188.853 21.2545 188.117 21.1265C188.069 21.1105 187.997 21.1025 187.901 21.1025C187.597 21.1025 187.357 21.2065 187.181 21.4145C187.005 21.6065 186.917 21.8545 186.917 22.1585L186.941 23.5025C186.941 25.1985 186.869 26.8865 186.725 28.5665C186.629 29.6385 186.549 30.4625 186.485 31.0385C186.421 31.6145 186.317 32.2065 186.173 32.8145C186.045 33.3745 185.909 33.8545 185.765 34.2545C185.637 34.6385 185.453 34.9905 185.213 35.3105C184.973 35.6145 184.765 35.8385 184.589 35.9825C184.413 36.1265 184.173 36.2065 183.869 36.2225C183.325 36.2225 183.069 36.5345 183.101 37.1585L183.173 38.9105C183.205 39.2785 183.365 39.5665 183.653 39.7745C183.781 39.8385 183.877 39.8705 183.941 39.8705C184.053 39.8705 184.173 39.8065 184.301 39.6785C184.429 39.5505 184.493 39.3585 184.493 39.1025V38.9825C184.509 38.6945 184.509 38.4465 184.493 38.2385V37.7105L185.693 37.5905L186.773 37.4945C187.285 37.4465 187.997 37.3505 188.909 37.2065C189.837 37.0465 190.221 36.9665 190.061 36.9665H192.821L192.869 37.2065C192.885 37.2865 192.893 37.3745 192.893 37.4705L192.869 39.1265C192.869 39.4145 192.901 39.6545 192.965 39.8465C193.045 40.0865 193.181 40.2065 193.373 40.2065ZM188.861 36.1265C188.349 36.1905 187.645 36.2625 186.749 36.3425L186.197 36.3905C186.405 36.1185 186.557 35.7985 186.653 35.4305C186.765 35.0465 186.837 34.8065 186.869 34.7105C187.429 32.9505 187.741 31.1585 187.805 29.3345C187.853 28.1185 187.941 26.2785 188.069 23.8145L188.093 22.6865C189.229 22.7505 190.005 22.7905 190.421 22.8065C190.581 25.2545 190.661 27.5025 190.661 29.5505C190.661 31.7585 190.581 33.8305 190.421 35.7665C189.909 35.9265 189.389 36.0465 188.861 36.1265Z" fill="#4552EC"/>
<path d="M196.682 37.2545C196.618 37.2385 196.514 37.2225 196.37 37.2065C196.226 37.1905 196.106 37.1505 196.01 37.0865C195.77 36.9265 195.674 36.6545 195.722 36.2705L195.746 35.7425C195.81 34.8785 195.842 34.2305 195.842 33.7985C195.842 31.2865 195.818 28.7585 195.77 26.2145C195.77 24.9025 195.73 23.5105 195.65 22.0385C195.634 21.7825 195.69 21.5665 195.818 21.3905C195.962 21.2145 196.138 21.1265 196.346 21.1265C196.538 21.1265 196.73 21.2145 196.922 21.3905C197.13 21.5665 197.226 21.7745 197.21 22.0145C197.098 22.4945 197.042 23.4545 197.042 24.8945V26.8145C197.042 27.1665 197.058 27.7265 197.09 28.4945C197.138 28.4305 197.29 28.1345 197.546 27.6065C197.578 27.5425 197.634 27.4465 197.714 27.3185C197.794 27.1745 197.85 27.0305 197.882 26.8865C198.41 25.2865 198.842 24.0545 199.178 23.1905C199.322 22.7265 199.514 22.3345 199.754 22.0145C199.994 21.6785 200.322 21.4465 200.738 21.3185C200.882 21.2705 201.074 21.2865 201.314 21.3665C201.57 21.4465 201.738 21.5425 201.818 21.6545C201.914 21.7665 201.962 21.9025 201.962 22.0625C201.962 22.2225 201.906 22.3665 201.794 22.4945C201.698 22.6225 201.57 22.7025 201.41 22.7345C201.01 22.7985 200.698 22.9425 200.474 23.1665C200.25 23.3905 200.082 23.6305 199.97 23.8865C199.874 24.1265 199.754 24.4945 199.61 24.9905L198.65 27.3425C198.602 27.4545 198.53 27.6465 198.434 27.9185C198.354 28.1905 198.274 28.3985 198.194 28.5425C198.162 28.5905 198.114 28.6385 198.05 28.6865C197.986 28.7345 197.93 28.7825 197.882 28.8305C197.994 28.7505 198.138 28.7745 198.314 28.9025C198.506 29.0305 198.698 29.2065 198.89 29.4305C199.018 29.6865 199.106 29.9665 199.154 30.2705C199.218 30.5745 199.258 30.7505 199.274 30.7985C199.306 31.0545 199.338 31.2465 199.37 31.3745C199.562 31.8865 199.698 32.3585 199.778 32.7905C199.858 33.2065 199.914 33.7025 199.946 34.2785C199.994 34.8545 200.154 35.3585 200.426 35.7905C200.506 35.8065 200.594 35.8225 200.69 35.8385C200.802 35.8545 200.922 35.8705 201.05 35.8865C201.306 35.9025 201.474 36.0625 201.554 36.3665C201.57 36.3985 201.578 36.4545 201.578 36.5345C201.578 36.7105 201.498 36.8785 201.338 37.0385C201.098 37.2785 200.794 37.3985 200.426 37.3985C200.154 37.3985 199.89 37.3265 199.634 37.1825C199.394 37.0385 199.218 36.8465 199.106 36.6065C199.01 36.4465 198.93 36.2305 198.866 35.9585C198.754 35.2705 198.658 34.5745 198.578 33.8705C198.514 32.8945 198.442 32.1585 198.362 31.6625C198.298 31.1505 198.146 30.6625 197.906 30.1985C197.842 30.0865 197.778 30.0065 197.714 29.9585C197.65 29.8945 197.562 29.8625 197.45 29.8625C197.354 29.8625 197.234 29.8865 197.09 29.9345C197.058 31.0865 197.042 32.2065 197.042 33.2945C197.042 33.9825 197.074 35.0305 197.138 36.4385C197.154 36.6145 197.122 36.7585 197.042 36.8705C196.978 36.9665 196.858 37.0945 196.682 37.2545Z" fill="#4552EC"/>
<path d="M204.45 36.7505C204.466 36.9585 204.578 37.0945 204.786 37.1585C204.946 37.1905 205.05 37.2065 205.098 37.2065C205.354 37.2065 205.546 37.0385 205.674 36.7025L206.754 33.7505L208.842 27.9425C208.986 27.5425 209.186 26.9265 209.442 26.0945L209.826 24.9185C209.842 24.8705 209.922 24.7665 210.066 24.6065L210.138 25.4705C210.202 26.0145 210.234 26.4065 210.234 26.6465C210.282 28.2145 210.322 30.5825 210.354 33.7505C210.354 34.0705 210.338 34.5345 210.306 35.1425C210.258 35.5905 210.234 36.0545 210.234 36.5345C210.234 36.9505 210.458 37.1585 210.906 37.1585C211.034 37.1585 211.154 37.1265 211.266 37.0625C211.378 36.9825 211.458 36.8785 211.506 36.7505C211.618 36.4625 211.674 36.1985 211.674 35.9585L211.602 29.4785C211.586 29.1585 211.578 28.8785 211.578 28.6385C211.594 28.3985 211.602 28.2065 211.602 28.0625V27.3665C211.602 26.8225 211.594 26.4145 211.578 26.1425C211.53 24.8625 211.506 23.6225 211.506 22.4225V21.2705C211.266 21.1265 211.034 21.0545 210.81 21.0545C210.666 21.0545 210.522 21.0785 210.378 21.1265C210.09 21.2225 209.874 21.4625 209.73 21.8465C209.57 22.2465 209.274 23.1265 208.842 24.4865C208.682 25.0145 208.538 25.4625 208.41 25.8305C207.802 27.6225 207.306 29.1345 206.922 30.3665C206.81 30.7345 206.634 31.2065 206.394 31.7825C206.346 31.8945 206.226 32.1985 206.034 32.6945C205.858 33.1745 205.73 33.6465 205.65 34.1105C205.634 33.9825 205.61 33.7745 205.578 33.4865C205.546 33.1825 205.53 32.9185 205.53 32.6945V28.3985L205.554 22.3505V22.0625C205.522 21.5505 205.282 21.2945 204.834 21.2945C204.354 21.2625 204.082 21.4945 204.018 21.9905C203.986 22.1665 203.97 22.4385 203.97 22.8065C203.97 23.1265 203.978 23.3745 203.994 23.5505C203.994 23.8545 204.002 24.3025 204.018 24.8945C204.034 25.4865 204.05 25.9505 204.066 26.2865C204.13 28.2385 204.186 29.7025 204.234 30.6785C204.25 31.3025 204.29 32.1985 204.354 33.3665C204.386 34.7105 204.418 35.7185 204.45 36.3905V36.7505Z" fill="#4552EC"/>
<path d="M16.9129 66.7345C16.7849 66.7345 16.6729 66.6945 16.5769 66.6145C16.4809 66.5345 16.4089 66.4305 16.3609 66.3025C16.3449 66.2705 16.3369 66.2225 16.3369 66.1585C16.3369 65.9505 16.4489 65.7825 16.6729 65.6545C17.1209 65.4625 17.4569 65.1745 17.6809 64.7905C17.9209 64.3905 18.0889 63.9265 18.1849 63.3985C18.4729 61.8305 18.6169 60.1265 18.6169 58.2865C18.6169 57.5985 18.6089 57.0785 18.5929 56.7265C18.4809 54.0225 18.3849 52.1185 18.3049 51.0145V50.9185C18.3049 50.7745 18.3369 50.6625 18.4009 50.5825C18.4649 50.5025 18.5769 50.4465 18.7369 50.4145C19.7609 50.2225 20.5769 50.1265 21.1849 50.1265C21.5049 50.1265 21.7449 50.1345 21.9049 50.1505C22.2729 50.1665 22.5529 50.2785 22.7449 50.4865C22.9369 50.6945 23.0329 50.9825 23.0329 51.3505L23.0569 52.6225C23.0889 53.7425 23.1049 54.5825 23.1049 55.1425L23.0809 56.2945C23.0809 57.9905 23.1449 60.1345 23.2729 62.7265C23.3369 63.8945 23.3929 64.7985 23.4409 65.4385C23.4569 65.7265 23.4089 65.9345 23.2969 66.0625C23.2009 66.1905 23.0329 66.2705 22.7929 66.3025C22.2649 66.3345 21.9849 66.0865 21.9529 65.5585C22.0009 65.0945 22.0249 64.6305 22.0249 64.1665C22.0249 63.7025 22.0169 63.3185 22.0009 63.0145L21.9769 60.2785C21.9769 58.9505 21.9529 57.5905 21.9049 56.1985C21.8729 55.0465 21.8249 53.9585 21.7609 52.9345C21.6969 51.9105 21.6329 51.2865 21.5689 51.0625C21.4729 51.0785 21.2729 51.1185 20.9689 51.1825C20.6649 51.2465 20.2489 51.3025 19.7209 51.3505C19.6729 52.0865 19.6489 52.6145 19.6489 52.9345C19.6489 53.3025 19.6729 53.6225 19.7209 53.8945C19.7529 54.3265 19.7849 54.9585 19.8169 55.7905V56.3185C19.8169 58.9105 19.7929 60.6625 19.7449 61.5745C19.7129 61.8305 19.6969 62.0305 19.6969 62.1745C19.6329 62.8465 19.5689 63.3585 19.5049 63.7105C19.3449 64.5585 18.8569 65.4225 18.0409 66.3025C17.8169 66.5585 17.4569 66.7025 16.9609 66.7345H16.9129Z" fill="#4552EC"/>
<path fill-rule="evenodd" clip-rule="evenodd" d="M26.4314 65.6065C26.4793 65.9265 26.6633 66.0945 26.9833 66.1105C27.0793 66.1265 27.2554 66.1505 27.5113 66.1825C27.7833 66.1985 28.0313 66.2065 28.2553 66.2065C28.5593 66.2065 28.8074 66.1745 28.9993 66.1105C30.1833 65.6945 30.8553 64.9265 31.0153 63.8065C31.1593 63.2305 31.2313 62.5425 31.2313 61.7425C31.2313 61.4065 31.2233 61.1505 31.2073 60.9745C31.1433 60.2225 30.9193 59.4945 30.5353 58.7905C30.1673 58.0705 29.6313 57.6465 28.9273 57.5185C28.8793 57.5185 28.7193 57.4705 28.4473 57.3745C28.0954 57.2305 27.7994 57.1745 27.5593 57.2065C27.5273 57.2225 27.5273 56.9825 27.5593 56.4865C27.6073 55.9905 27.6474 55.6305 27.6793 55.4065C27.6793 55.2785 27.6873 55.0145 27.7034 54.6145C27.7193 54.2145 27.7514 53.8465 27.7994 53.5105C27.9114 52.7585 27.9674 52.2065 27.9674 51.8545C27.9674 51.3585 27.8953 50.9825 27.7514 50.7265C27.6873 50.5985 27.5913 50.4945 27.4633 50.4145C27.3354 50.3345 27.2073 50.2945 27.0793 50.2945C26.9193 50.2945 26.7833 50.3345 26.6713 50.4145C26.5753 50.4945 26.5273 50.5825 26.5273 50.6785C26.5113 51.4625 26.5033 52.6385 26.5033 54.2065V59.6065L26.4314 65.6065ZM28.2553 65.2225C28.1113 65.2225 27.9513 65.1985 27.7753 65.1505L27.6553 58.3585C27.8153 58.3745 28.0633 58.4145 28.3993 58.4785C28.8793 58.5425 29.2473 58.8625 29.5033 59.4385C29.7593 59.9985 29.8873 60.6145 29.8873 61.2865C29.8873 61.4785 29.8793 61.6225 29.8633 61.7185C29.8313 61.9265 29.7993 62.2065 29.7673 62.5585C29.6713 63.2945 29.5833 63.8465 29.5033 64.2145C29.4394 64.5185 29.2953 64.7665 29.0714 64.9585C28.8473 65.1345 28.5753 65.2225 28.2553 65.2225Z" fill="#4552EC"/>
<path d="M33.7032 66.3985C33.6872 66.3345 33.6552 66.2225 33.6072 66.0625C33.5752 65.9025 33.5672 65.7665 33.5832 65.6545C33.6152 63.7985 33.6632 62.4145 33.7272 61.5025C33.7432 61.1665 33.7512 60.6705 33.7512 60.0145C33.7512 58.8305 33.6952 57.3985 33.5832 55.7185C33.4872 53.6705 33.4392 52.1185 33.4392 51.0625C33.4392 50.8225 33.5352 50.6065 33.7272 50.4145C33.9192 50.2225 34.1512 50.1265 34.4232 50.1265C35.3352 50.1265 36.1272 50.1985 36.7992 50.3425C37.1192 50.4065 37.3272 50.5185 37.4232 50.6785C37.5192 50.8225 37.5512 51.0705 37.5192 51.4225C37.2952 51.5665 37.0632 51.6385 36.8232 51.6385C36.7432 51.6385 36.6232 51.6225 36.4632 51.5905C36.3192 51.5585 35.9352 51.5265 35.3112 51.4945H35.2632C35.0392 51.4945 34.9272 51.6145 34.9272 51.8545C34.8472 54.1745 34.8072 55.4945 34.8072 55.8145C34.8392 57.4785 34.8712 58.7345 34.9032 59.5825C34.9032 59.6945 34.9112 59.8305 34.9272 59.9905C34.9432 60.1505 34.9432 60.2865 34.9272 60.3985C34.8792 61.1345 34.8552 61.9105 34.8552 62.7265C34.8552 64.0545 34.8792 64.9825 34.9272 65.5105C34.9112 65.8625 34.8552 66.1025 34.7592 66.2305C34.6632 66.3745 34.4872 66.4465 34.2312 66.4465C34.1672 66.4465 33.9912 66.4305 33.7032 66.3985Z" fill="#4552EC"/>
<path fill-rule="evenodd" clip-rule="evenodd" d="M40.815 66.2545C41.167 66.5265 41.551 66.6625 41.967 66.6625C44.111 66.6625 45.183 64.3585 45.183 59.7505L45.159 58.3825C45.143 57.9825 45.135 57.5345 45.135 57.0385V56.8465C45.135 56.0945 45.087 55.3825 44.991 54.7105C44.895 54.0545 44.735 53.4385 44.511 52.8625C44.287 52.2705 44.015 51.7745 43.695 51.3745C43.343 50.9585 42.911 50.6385 42.399 50.4145C41.887 50.1745 41.311 50.0545 40.671 50.0545C40.447 50.0545 40.247 50.1425 40.071 50.3185C39.895 50.4785 39.751 50.7185 39.639 51.0385C39.351 51.7585 39.167 52.5025 39.087 53.2705C38.975 54.3905 38.911 55.2065 38.895 55.7185L38.871 57.3985V57.8305C38.887 57.8305 38.895 57.8705 38.895 57.9505V58.3825C38.879 58.5105 38.871 58.6705 38.871 58.8625C38.871 59.8705 38.943 60.9185 39.087 62.0065C39.199 63.1585 39.487 64.2225 39.951 65.1985C40.175 65.6465 40.463 65.9985 40.815 66.2545ZM42.663 65.3185C42.423 65.5425 42.159 65.6545 41.871 65.6545C41.375 65.6545 40.999 65.0625 40.743 63.8785C40.487 62.7425 40.327 61.5745 40.263 60.3745C40.215 59.5265 40.191 58.6705 40.191 57.8065C40.191 57.4065 40.207 57.0385 40.239 56.7025L40.287 55.5985V54.9505C40.271 54.7425 40.263 54.4865 40.263 54.1825C40.263 53.3985 40.343 52.7585 40.503 52.2625C40.679 51.6385 41.039 51.3265 41.583 51.3265C42.127 51.3265 42.583 51.5505 42.951 51.9985C43.335 52.4465 43.543 52.9745 43.575 53.5825V54.0145C43.575 54.6225 43.623 55.5425 43.719 56.7745C43.831 57.9425 43.887 58.8865 43.887 59.6065C43.887 60.1985 43.847 60.9025 43.767 61.7185C43.703 62.6625 43.519 63.5425 43.215 64.3585C43.087 64.7585 42.903 65.0785 42.663 65.3185Z" fill="#4552EC"/>
<path d="M49.1515 65.8225L49.1275 64.8865C49.1115 64.6145 49.1035 64.3105 49.1035 63.9745L49.1275 63.1585C49.0795 62.9825 48.9595 61.2305 48.7675 57.9025C48.5755 54.5745 48.4635 52.4385 48.4315 51.4945C47.5035 51.4625 46.9115 51.3665 46.6555 51.2065C46.4795 51.0785 46.3915 50.9345 46.3915 50.7745C46.3915 50.6465 46.4715 50.5345 46.6315 50.4385C46.8075 50.3265 46.9835 50.2705 47.1595 50.2705C47.6075 50.2705 48.1515 50.3025 48.7915 50.3665C49.3995 50.4465 49.9435 50.4865 50.4235 50.4865H50.8075C51.3035 50.4865 51.5515 50.6785 51.5515 51.0625C51.5515 51.2545 51.4715 51.4145 51.3115 51.5425C51.1515 51.6545 50.9675 51.7105 50.7595 51.7105C50.6155 51.7105 50.4075 51.6865 50.1355 51.6385L49.6555 51.5425L49.6075 51.7825C49.6075 53.2065 49.7435 55.4785 50.0155 58.5985C50.2715 61.5265 50.3995 63.7985 50.3995 65.4145C50.3995 65.6065 50.3115 65.7745 50.1355 65.9185C49.9755 66.0625 49.7915 66.1345 49.5835 66.1345L49.1515 65.8225Z" fill="#4552EC"/>
<path d="M57.3561 62.2465C57.3561 64.8865 57.6281 66.2065 58.1721 66.2065C58.3961 66.2065 58.5881 66.1425 58.7481 66.0145C58.9241 65.8865 59.0121 65.7105 59.0121 65.4865L58.7961 59.4145C58.6361 55.6225 58.5561 52.5905 58.5561 50.3185L58.3401 50.2225C58.1321 50.1425 57.9721 50.1025 57.8601 50.1025C57.6681 50.1025 57.5001 50.1665 57.3561 50.2945C57.2281 50.4065 57.1641 50.5505 57.1641 50.7265C57.1641 51.6065 57.2201 52.7505 57.3321 54.1585C57.4281 55.6625 57.4761 56.7985 57.4761 57.5665C57.4761 57.6625 57.4601 57.7585 57.4281 57.8545H56.5401C55.9161 57.8545 55.4841 57.8145 55.2441 57.7345C55.2441 56.6305 55.2601 55.6305 55.2921 54.7345L55.3401 51.7585C55.3401 50.7985 55.0841 50.3185 54.5721 50.3185C54.3801 50.3185 54.2201 50.3905 54.0921 50.5345C53.9641 50.6785 53.9001 50.8465 53.9001 51.0385C53.9001 51.6465 53.9241 52.5505 53.9721 53.7505C54.0201 54.9505 54.0441 55.8545 54.0441 56.4625L53.9721 57.8545V57.9745C53.9881 58.0545 53.9961 58.2225 53.9961 58.4785V59.2225C53.9961 59.8305 53.9881 60.4065 53.9721 60.9505L53.9241 62.8945C53.9241 63.8705 53.9881 64.6625 54.1161 65.2705C54.2441 65.8625 54.4601 66.1585 54.7641 66.1585C54.9721 66.1585 55.1401 66.0705 55.2681 65.8945C55.3961 65.7185 55.4601 65.5105 55.4601 65.2705C55.4601 64.8385 55.4361 64.1825 55.3881 63.3025C55.3401 62.4065 55.3161 61.7505 55.3161 61.3345V58.5745C55.7321 58.6385 55.9881 58.6785 56.0841 58.6945C56.3881 58.7585 56.6441 58.7905 56.8521 58.7905C57.0601 58.7905 57.2041 58.7745 57.2841 58.7425V58.7665C57.2841 58.7985 57.3081 58.8385 57.3561 58.8865C57.4041 58.9345 57.4281 58.9745 57.4281 59.0065C57.4281 59.1825 57.4201 59.3345 57.4041 59.4625V59.7745L57.3801 60.8785L57.3561 62.2465Z" fill="#4552EC"/>
<path d="M68.3254 66.4465C67.8614 66.4465 67.6294 66.2705 67.6294 65.9185V65.4145C67.6294 65.1585 67.6454 64.9185 67.6774 64.6945C67.7414 64.1185 67.7734 63.4385 67.7734 62.6545C67.7734 61.9025 67.7414 60.8865 67.6774 59.6065C67.6454 58.8865 67.6134 57.7745 67.5814 56.2705L67.4854 52.3345L67.4614 50.5345C67.4614 50.2785 67.6054 50.1345 67.8934 50.1025C68.1814 50.0865 68.4214 50.1665 68.6134 50.3425C68.8054 50.5185 68.9014 50.7425 68.9014 51.0145C68.9014 51.4145 68.8854 52.0465 68.8534 52.9105L68.7814 59.0785C68.7654 59.2865 68.7574 59.5665 68.7574 59.9185C68.7734 60.2705 68.7814 60.6145 68.7814 60.9505V63.2545C68.7494 64.2625 68.7894 65.1025 68.9014 65.7745C68.9334 65.9985 68.8934 66.1665 68.7814 66.2785C68.6854 66.3905 68.5334 66.4465 68.3254 66.4465Z" fill="#4552EC"/>
<path fill-rule="evenodd" clip-rule="evenodd" d="M62.6854 66.4465C62.4614 66.4465 62.2614 66.4145 62.0854 66.3505C61.9094 66.2865 61.8294 66.1265 61.8454 65.8705C61.8774 65.5025 61.9014 65.0465 61.9174 64.5025C61.9334 63.9585 61.9414 63.5825 61.9414 63.3745C61.9414 62.4625 61.9654 61.5025 62.0134 60.4945C62.0454 60.1105 62.0614 59.5025 62.0614 58.6705C62.0614 58.2065 62.0534 57.6545 62.0374 57.0145C62.0214 56.3745 62.0054 55.8945 61.9894 55.5745C61.9734 55.3025 61.9574 54.9825 61.9414 54.6145C61.9254 54.2465 61.9174 53.8385 61.9174 53.3905C61.8854 52.8465 61.8694 52.4225 61.8694 52.1185L61.8454 51.4945V51.0145C61.8454 50.7585 61.8854 50.5585 61.9654 50.4145C62.0614 50.2705 62.2214 50.1985 62.4454 50.1985C62.6534 50.1985 62.8294 50.2865 62.9734 50.4625C63.1174 50.6225 63.1894 50.8145 63.1894 51.0385C63.1894 51.2145 63.2054 51.5105 63.2374 51.9265C63.2694 52.6625 63.2854 53.2465 63.2854 53.6785C63.2854 54.2065 63.2454 54.7265 63.1654 55.2385C63.1334 55.3345 63.1174 55.4945 63.1174 55.7185C63.1174 55.9105 63.1334 56.1825 63.1654 56.5345C63.2934 56.5825 63.5654 56.6865 63.9814 56.8465C64.3974 56.9905 64.7574 57.1665 65.0614 57.3745C65.3654 57.5665 65.6054 57.7905 65.7814 58.0465C66.3254 58.9265 66.5974 59.6865 66.5974 60.3265C66.5974 61.3185 66.5254 62.4225 66.3814 63.6385C66.3014 64.3585 66.0694 64.8945 65.6854 65.2465C65.3014 65.5985 64.7414 65.9025 64.0054 66.1585C63.8134 66.2225 63.5814 66.2785 63.3094 66.3265C63.0374 66.3745 62.8294 66.4145 62.6854 66.4465ZM63.1654 65.1505C63.3574 65.1825 63.5014 65.1985 63.5974 65.1985C63.9174 65.1985 64.1814 65.0865 64.3894 64.8625C64.9494 64.3185 65.2294 63.6705 65.2294 62.9185C65.2614 62.1825 65.2774 61.5185 65.2774 60.9265C65.2774 59.8705 65.1974 59.1905 65.0374 58.8865C64.9254 58.5345 64.7014 58.2385 64.3654 57.9985C64.0294 57.7585 63.6454 57.5905 63.2134 57.4945C63.1014 58.6305 63.0454 59.9025 63.0454 61.3105C63.0454 62.5105 63.0854 63.7905 63.1654 65.1505Z" fill="#4552EC"/>
<path d="M80.712 65.9665C80.712 66.9585 80.96 67.4545 81.456 67.4545C81.68 67.4545 81.872 67.3505 82.032 67.1425C82.192 66.9345 82.272 66.6945 82.272 66.4225C82.272 66.3265 82.232 66.1745 82.152 65.9665C82.152 65.9505 82.144 65.9025 82.128 65.8225C82.128 65.7425 82.12 65.6305 82.104 65.4865L82.032 64.6465C81.984 64.2625 81.96 63.9745 81.96 63.7825L82.008 62.5105L82.032 61.2385C82.032 60.0545 81.976 58.3905 81.864 56.2465C81.768 53.9425 81.72 52.2145 81.72 51.0625C81.72 50.8705 81.624 50.7185 81.432 50.6065C81.256 50.4785 81.056 50.4145 80.832 50.4145C80.592 50.4145 80.328 50.7505 80.04 51.4225C79.752 52.0465 79.456 52.9105 79.152 54.0145C78.64 55.8225 78.128 57.8465 77.616 60.0865L77.472 60.6625C77.392 61.0305 77.288 61.4305 77.16 61.8625C77 61.0145 76.64 59.6385 76.08 57.7345C75.52 55.8305 74.96 54.1265 74.4 52.6225C73.84 51.1185 73.456 50.3665 73.248 50.3665C72.992 50.3665 72.768 50.4225 72.576 50.5345C72.4 50.6305 72.312 50.7745 72.312 50.9665C72.312 51.1265 72.36 51.2785 72.456 51.4225C72.456 53.0545 72.336 55.5025 72.096 58.7665C71.856 62.0305 71.736 64.4785 71.736 66.1105C71.736 66.2545 71.808 66.3825 71.952 66.4945C72.096 66.6225 72.248 66.6865 72.408 66.6865C72.712 66.6865 72.92 66.6145 73.032 66.4705C73.144 66.3425 73.2 66.1425 73.2 65.8705V65.5345C73.184 65.4225 73.176 65.3025 73.176 65.1745C73.176 64.6305 73.192 63.6225 73.224 62.1505C73.272 60.6305 73.36 58.7265 73.488 56.4385L73.632 53.7265C74.096 55.1825 74.608 57.0545 75.168 59.3425C75.744 61.6305 76.032 63.1265 76.032 63.8305C76.032 64.1505 76.12 64.4065 76.296 64.5985C76.488 64.7745 76.736 64.8625 77.04 64.8625C77.344 64.8625 77.736 64.0705 78.216 62.4865C78.712 60.8385 79.192 59.0465 79.656 57.1105C80.12 55.1105 80.384 54.0065 80.448 53.7985C80.448 54.3425 80.432 54.8305 80.4 55.2625L80.352 56.7505C80.352 57.2945 80.416 58.2945 80.544 59.7505C80.656 61.0465 80.712 62.0945 80.712 62.8945V65.9665Z" fill="#4552EC"/>
<path d="M90.604 66.2545C90.54 66.2385 90.436 66.2225 90.292 66.2065C90.148 66.1905 90.028 66.1505 89.932 66.0865C89.692 65.9265 89.596 65.6545 89.644 65.2705L89.668 64.7425C89.732 63.8785 89.764 63.2305 89.764 62.7985C89.764 60.2865 89.74 57.7585 89.692 55.2145C89.692 53.9025 89.652 52.5105 89.572 51.0385C89.556 50.7825 89.612 50.5665 89.74 50.3905C89.884 50.2145 90.06 50.1265 90.268 50.1265C90.46 50.1265 90.652 50.2145 90.844 50.3905C91.052 50.5665 91.148 50.7745 91.132 51.0145C91.02 51.4945 90.964 52.4545 90.964 53.8945V55.8145C90.964 56.1665 90.98 56.7265 91.012 57.4945C91.06 57.4305 91.212 57.1345 91.468 56.6065C91.5 56.5425 91.556 56.4465 91.636 56.3185C91.716 56.1745 91.772 56.0305 91.804 55.8865C92.332 54.2865 92.764 53.0545 93.1 52.1905C93.244 51.7265 93.436 51.3345 93.676 51.0145C93.916 50.6785 94.244 50.4465 94.66 50.3185C94.804 50.2705 94.996 50.2865 95.236 50.3665C95.492 50.4465 95.66 50.5425 95.74 50.6545C95.836 50.7665 95.884 50.9025 95.884 51.0625C95.884 51.2225 95.828 51.3665 95.716 51.4945C95.62 51.6225 95.492 51.7025 95.332 51.7345C94.932 51.7985 94.62 51.9425 94.396 52.1665C94.172 52.3905 94.004 52.6305 93.892 52.8865C93.796 53.1265 93.676 53.4945 93.532 53.9905L92.572 56.3425C92.524 56.4545 92.452 56.6465 92.356 56.9185C92.276 57.1905 92.196 57.3985 92.116 57.5425C92.084 57.5905 92.036 57.6385 91.972 57.6865C91.908 57.7345 91.852 57.7825 91.804 57.8305C91.916 57.7505 92.06 57.7745 92.236 57.9025C92.428 58.0305 92.62 58.2065 92.812 58.4305C92.94 58.6865 93.028 58.9665 93.076 59.2705C93.14 59.5745 93.18 59.7505 93.196 59.7985C93.228 60.0545 93.26 60.2465 93.292 60.3745C93.484 60.8865 93.62 61.3585 93.7 61.7905C93.78 62.2065 93.836 62.7025 93.868 63.2785C93.916 63.8545 94.076 64.3585 94.348 64.7905C94.428 64.8065 94.516 64.8225 94.612 64.8385C94.724 64.8545 94.844 64.8705 94.972 64.8865C95.228 64.9025 95.396 65.0625 95.476 65.3665C95.492 65.3985 95.5 65.4545 95.5 65.5345C95.5 65.7105 95.42 65.8785 95.26 66.0385C95.02 66.2785 94.716 66.3985 94.348 66.3985C94.076 66.3985 93.812 66.3265 93.556 66.1825C93.316 66.0385 93.14 65.8465 93.028 65.6065C92.932 65.4465 92.852 65.2305 92.788 64.9585C92.676 64.2705 92.58 63.5745 92.5 62.8705C92.436 61.8945 92.364 61.1585 92.284 60.6625C92.22 60.1505 92.068 59.6625 91.828 59.1985C91.764 59.0865 91.7 59.0065 91.636 58.9585C91.572 58.8945 91.484 58.8625 91.372 58.8625C91.276 58.8625 91.156 58.8865 91.012 58.9345C90.98 60.0865 90.964 61.2065 90.964 62.2945C90.964 62.9825 90.996 64.0305 91.06 65.4385C91.076 65.6145 91.044 65.7585 90.964 65.8705C90.9 65.9665 90.78 66.0945 90.604 66.2545Z" fill="#4552EC"/>
<path fill-rule="evenodd" clip-rule="evenodd" d="M101.852 66.2545C102.028 66.3665 102.3 66.4225 102.668 66.4225C102.924 66.3265 103.052 66.1025 103.052 65.7505V65.7265C103.052 65.5025 102.98 65.0065 102.836 64.2385C102.676 63.3905 102.596 62.9105 102.596 62.7985C102.596 62.6865 102.556 62.4465 102.476 62.0785C102.396 61.6785 102.356 61.4305 102.356 61.3345C102.356 60.3425 102.196 58.6145 101.876 56.1505C101.54 53.7505 101.372 51.9425 101.372 50.7265C101.372 50.5345 101.292 50.3905 101.132 50.2945C100.972 50.1825 100.78 50.1265 100.556 50.1265H99.7403C99.6123 50.3025 99.5163 50.5665 99.4523 50.9185C99.4043 51.2705 99.3563 51.7425 99.3083 52.3345C99.2923 52.6225 99.2763 52.8465 99.2603 53.0065C99.2443 53.1505 99.2363 53.2545 99.2363 53.3185C98.6923 57.3185 97.8923 61.3745 96.8363 65.4865L96.8123 65.5825L96.7643 65.7025C96.7643 65.8785 96.8443 66.0305 97.0043 66.1585C97.1643 66.2705 97.3403 66.3265 97.5323 66.3265C97.7403 66.3265 97.9003 66.2545 98.0123 66.1105C98.2203 65.8545 98.3723 65.3345 98.4683 64.5505C98.6443 63.4305 98.7803 62.6865 98.8763 62.3185L101.252 62.6785L101.348 63.1825C101.508 64.3345 101.588 65.1505 101.588 65.6305C101.588 65.9345 101.676 66.1425 101.852 66.2545ZM101.012 60.9265C101.012 61.2785 101.036 61.5745 101.084 61.8145C99.9163 61.7185 99.2123 61.5905 98.9723 61.4305C99.2283 59.5105 99.7003 56.6705 100.388 52.9105L100.628 55.4065C100.884 57.6465 101.012 59.4865 101.012 60.9265Z" fill="#4552EC"/>
<path d="M106.456 65.8225L106.432 64.8865C106.416 64.6145 106.408 64.3105 106.408 63.9745L106.432 63.1585C106.384 62.9825 106.264 61.2305 106.072 57.9025C105.88 54.5745 105.768 52.4385 105.736 51.4945C104.808 51.4625 104.216 51.3665 103.96 51.2065C103.784 51.0785 103.696 50.9345 103.696 50.7745C103.696 50.6465 103.776 50.5345 103.936 50.4385C104.112 50.3265 104.288 50.2705 104.464 50.2705C104.912 50.2705 105.456 50.3025 106.096 50.3665C106.704 50.4465 107.248 50.4865 107.728 50.4865H108.112C108.608 50.4865 108.856 50.6785 108.856 51.0625C108.856 51.2545 108.776 51.4145 108.616 51.5425C108.456 51.6545 108.272 51.7105 108.064 51.7105C107.92 51.7105 107.712 51.6865 107.44 51.6385L106.96 51.5425L106.912 51.7825C106.912 53.2065 107.048 55.4785 107.32 58.5985C107.576 61.5265 107.704 63.7985 107.704 65.4145C107.704 65.6065 107.616 65.7745 107.44 65.9185C107.28 66.0625 107.096 66.1345 106.888 66.1345L106.456 65.8225Z" fill="#4552EC"/>
<path d="M111.781 66.3025C111.957 66.4465 112.149 66.5185 112.357 66.5185H114.397C114.685 66.5185 114.925 66.4545 115.117 66.3265C115.325 66.2145 115.429 66.0465 115.429 65.8225C115.429 65.4385 115.125 65.2465 114.517 65.2465C114.133 65.2465 113.805 65.2545 113.533 65.2705L112.741 65.2945C112.709 65.2945 112.693 64.8465 112.693 63.9505C112.693 63.4705 112.717 62.7425 112.765 61.7665C112.781 61.1265 112.789 60.4065 112.789 59.6065C112.789 58.8065 112.773 58.1985 112.741 57.7825H113.341C113.501 57.8145 113.725 57.8305 114.013 57.8305C114.237 57.8305 114.421 57.7745 114.565 57.6625C114.709 57.5345 114.781 57.3825 114.781 57.2065C114.781 56.7585 114.397 56.5345 113.629 56.5345C113.437 56.5345 113.277 56.5425 113.149 56.5585L112.765 56.5825L112.693 56.1985C112.693 55.8145 112.717 55.2385 112.765 54.4705C112.781 53.9585 112.789 53.3825 112.789 52.7425C112.789 52.2945 112.781 51.9505 112.765 51.7105C113.309 51.7905 113.917 51.9505 114.589 52.1905C114.781 52.1105 114.941 52.0065 115.069 51.8785C115.213 51.7345 115.285 51.5825 115.285 51.4225C115.285 51.1345 114.933 50.8865 114.229 50.6785C113.541 50.4705 112.933 50.3665 112.405 50.3665C111.733 50.3665 111.397 50.9345 111.397 52.0705C111.397 52.2785 111.421 52.6145 111.469 53.0785C111.517 53.5265 111.541 53.8625 111.541 54.0865C111.541 55.0305 111.509 56.1985 111.445 57.5905C111.397 59.1425 111.373 60.3105 111.373 61.0945L111.421 62.6305C111.469 63.3185 111.493 63.8305 111.493 64.1665C111.493 64.3585 111.501 64.5265 111.517 64.6705V65.7745C111.533 65.9825 111.621 66.1585 111.781 66.3025Z" fill="#4552EC"/>
<path d="M118.289 66.3985C118.273 66.3345 118.241 66.2225 118.193 66.0625C118.161 65.9025 118.153 65.7665 118.169 65.6545C118.201 63.7985 118.249 62.4145 118.313 61.5025C118.329 61.1665 118.337 60.6705 118.337 60.0145C118.337 58.8305 118.281 57.3985 118.169 55.7185C118.073 53.6705 118.025 52.1185 118.025 51.0625C118.025 50.8225 118.121 50.6065 118.313 50.4145C118.505 50.2225 118.737 50.1265 119.009 50.1265C119.921 50.1265 120.713 50.1985 121.385 50.3425C121.705 50.4065 121.913 50.5185 122.009 50.6785C122.105 50.8225 122.137 51.0705 122.105 51.4225C121.881 51.5665 121.649 51.6385 121.409 51.6385C121.329 51.6385 121.209 51.6225 121.049 51.5905C120.905 51.5585 120.521 51.5265 119.897 51.4945H119.849C119.625 51.4945 119.513 51.6145 119.513 51.8545C119.433 54.1745 119.393 55.4945 119.393 55.8145C119.425 57.4785 119.457 58.7345 119.489 59.5825C119.489 59.6945 119.497 59.8305 119.513 59.9905C119.529 60.1505 119.529 60.2865 119.513 60.3985C119.465 61.1345 119.441 61.9105 119.441 62.7265C119.441 64.0545 119.465 64.9825 119.513 65.5105C119.497 65.8625 119.441 66.1025 119.345 66.2305C119.249 66.3745 119.073 66.4465 118.817 66.4465C118.753 66.4465 118.577 66.4305 118.289 66.3985Z" fill="#4552EC"/>
<path fill-rule="evenodd" clip-rule="evenodd" d="M125.401 66.2545C125.753 66.5265 126.137 66.6625 126.553 66.6625C128.697 66.6625 129.769 64.3585 129.769 59.7505L129.745 58.3825C129.729 57.9825 129.721 57.5345 129.721 57.0385V56.8465C129.721 56.0945 129.673 55.3825 129.577 54.7105C129.481 54.0545 129.321 53.4385 129.097 52.8625C128.873 52.2705 128.601 51.7745 128.281 51.3745C127.929 50.9585 127.497 50.6385 126.985 50.4145C126.473 50.1745 125.897 50.0545 125.257 50.0545C125.033 50.0545 124.833 50.1425 124.657 50.3185C124.481 50.4785 124.337 50.7185 124.225 51.0385C123.937 51.7585 123.753 52.5025 123.673 53.2705C123.561 54.3905 123.497 55.2065 123.481 55.7185L123.457 57.3985V57.8305C123.473 57.8305 123.481 57.8705 123.481 57.9505V58.3825C123.465 58.5105 123.457 58.6705 123.457 58.8625C123.457 59.8705 123.529 60.9185 123.673 62.0065C123.785 63.1585 124.073 64.2225 124.537 65.1985C124.761 65.6465 125.049 65.9985 125.401 66.2545ZM127.249 65.3185C127.009 65.5425 126.745 65.6545 126.457 65.6545C125.961 65.6545 125.585 65.0625 125.329 63.8785C125.073 62.7425 124.913 61.5745 124.849 60.3745C124.801 59.5265 124.777 58.6705 124.777 57.8065C124.777 57.4065 124.793 57.0385 124.825 56.7025L124.873 55.5985V54.9505C124.857 54.7425 124.849 54.4865 124.849 54.1825C124.849 53.3985 124.929 52.7585 125.089 52.2625C125.265 51.6385 125.625 51.3265 126.169 51.3265C126.713 51.3265 127.169 51.5505 127.537 51.9985C127.921 52.4465 128.129 52.9745 128.161 53.5825V54.0145C128.161 54.6225 128.209 55.5425 128.305 56.7745C128.417 57.9425 128.473 58.8865 128.473 59.6065C128.473 60.1985 128.433 60.9025 128.353 61.7185C128.289 62.6625 128.105 63.5425 127.801 64.3585C127.673 64.7585 127.489 65.0785 127.249 65.3185Z" fill="#4552EC"/>
<path fill-rule="evenodd" clip-rule="evenodd" d="M132.921 66.3745C132.713 65.5265 132.609 64.3505 132.609 62.8465L132.657 60.7105C132.689 60.0705 132.705 59.3585 132.705 58.5745C132.609 58.3505 132.561 58.1505 132.561 57.9745V57.9025C132.721 57.5985 132.801 56.9105 132.801 55.8385L132.825 54.7345C132.841 54.3825 132.849 53.9905 132.849 53.5585C132.849 52.6145 132.785 51.8705 132.657 51.3265C132.705 51.1025 132.785 50.9105 132.897 50.7505C133.009 50.5745 133.145 50.4865 133.305 50.4865H134.361C134.809 50.4865 135.201 50.5905 135.537 50.7985C135.873 50.9905 136.129 51.2705 136.305 51.6385C136.625 52.2945 136.785 53.0705 136.785 53.9665C136.785 54.6065 136.777 55.1105 136.761 55.4785C136.729 55.9425 136.649 56.3665 136.521 56.7505C136.473 56.9585 136.401 57.1345 136.305 57.2785C136.225 57.4065 136.105 57.5665 135.945 57.7585C135.721 58.0305 135.353 58.2865 134.841 58.5265C134.633 58.6385 134.361 58.7425 134.025 58.8385V61.4065L134.073 62.9425L134.121 63.6865C134.185 64.5825 134.217 65.3425 134.217 65.9665C134.217 66.1585 134.137 66.3185 133.977 66.4465C133.817 66.5905 133.633 66.6625 133.425 66.6625L132.921 66.3745ZM134.049 57.8545C134.993 57.7105 135.465 56.3585 135.465 53.7985C135.465 53.3345 135.441 52.9745 135.393 52.7185C135.345 52.5265 135.281 52.3745 135.201 52.2625C135.121 52.1345 135.001 52.0305 134.841 51.9505C134.665 51.8545 134.473 51.8065 134.265 51.8065C134.265 51.7905 134.177 51.7825 134.001 51.7825V53.1505C134.001 54.0945 134.009 54.9345 134.025 55.6705C134.025 56.5025 134.033 57.0465 134.049 57.3025V57.8545Z" fill="#4552EC"/>
<path d="M139.575 65.7505C139.591 65.9585 139.703 66.0945 139.911 66.1585C140.071 66.1905 140.175 66.2065 140.223 66.2065C140.479 66.2065 140.671 66.0385 140.799 65.7025L141.879 62.7505L143.967 56.9425C144.111 56.5425 144.311 55.9265 144.567 55.0945L144.951 53.9185C144.967 53.8705 145.047 53.7665 145.191 53.6065L145.263 54.4705C145.327 55.0145 145.359 55.4065 145.359 55.6465C145.407 57.2145 145.447 59.5825 145.479 62.7505C145.479 63.0705 145.463 63.5345 145.431 64.1425C145.383 64.5905 145.359 65.0545 145.359 65.5345C145.359 65.9505 145.583 66.1585 146.031 66.1585C146.159 66.1585 146.279 66.1265 146.391 66.0625C146.503 65.9825 146.583 65.8785 146.631 65.7505C146.743 65.4625 146.799 65.1985 146.799 64.9585L146.727 58.4785C146.711 58.1585 146.703 57.8785 146.703 57.6385C146.719 57.3985 146.727 57.2065 146.727 57.0625V56.3665C146.727 55.8225 146.719 55.4145 146.703 55.1425C146.655 53.8625 146.631 52.6225 146.631 51.4225V50.2705C146.391 50.1265 146.159 50.0545 145.935 50.0545C145.791 50.0545 145.647 50.0785 145.503 50.1265C145.215 50.2225 144.999 50.4625 144.855 50.8465C144.695 51.2465 144.399 52.1265 143.967 53.4865C143.807 54.0145 143.663 54.4625 143.535 54.8305C142.927 56.6225 142.431 58.1345 142.047 59.3665C141.935 59.7345 141.759 60.2065 141.519 60.7825C141.471 60.8945 141.351 61.1985 141.159 61.6945C140.983 62.1745 140.855 62.6465 140.775 63.1105C140.759 62.9825 140.735 62.7745 140.703 62.4865C140.671 62.1825 140.655 61.9185 140.655 61.6945V57.3985L140.679 51.3505V51.0625C140.647 50.5505 140.407 50.2945 139.959 50.2945C139.479 50.2625 139.207 50.4945 139.143 50.9905C139.111 51.1665 139.095 51.4385 139.095 51.8065C139.095 52.1265 139.103 52.3745 139.119 52.5505C139.119 52.8545 139.127 53.3025 139.143 53.8945C139.159 54.4865 139.175 54.9505 139.191 55.2865C139.255 57.2385 139.311 58.7025 139.359 59.6785C139.375 60.3025 139.415 61.1985 139.479 62.3665C139.511 63.7105 139.543 64.7185 139.575 65.3905V65.7505Z" fill="#4552EC"/>
<path fill-rule="evenodd" clip-rule="evenodd" d="M149.186 66.4225C149.042 66.3905 148.922 66.3425 148.826 66.2785C148.746 66.2305 148.698 66.1345 148.682 65.9905C148.698 65.8945 148.738 65.7905 148.802 65.6785C148.866 65.5665 148.93 65.5025 148.994 65.4865C149.138 65.4705 149.242 65.4225 149.306 65.3425C149.37 65.2625 149.426 65.1505 149.474 65.0065C149.49 64.9105 149.538 64.6705 149.618 64.2865C149.698 63.9025 149.746 63.5345 149.762 63.1825L149.786 62.7745C149.786 62.5825 149.77 62.3105 149.738 61.9585C149.706 61.6065 149.69 61.3505 149.69 61.1905C149.69 60.2625 150.034 59.3505 150.722 58.4545C149.794 57.6065 149.33 56.6785 149.33 55.6705V54.9025C149.33 54.0705 149.394 53.4465 149.522 53.0305C149.634 52.5985 149.842 52.1265 150.146 51.6145C150.258 51.3745 150.41 51.1905 150.602 51.0625C150.794 50.9185 151.002 50.7905 151.226 50.6785C151.466 50.5665 151.65 50.4785 151.778 50.4145C151.874 50.3665 152.01 50.3185 152.186 50.2705C152.378 50.2225 152.53 50.1345 152.642 50.0065C152.85 49.9265 153.058 49.8865 153.266 49.8865C153.57 49.8865 153.834 49.9585 154.058 50.1025C154.298 50.2465 154.418 50.4145 154.418 50.6065C154.418 51.2945 154.402 52.3745 154.37 53.8465L154.298 57.2545L154.274 58.5985L154.298 59.9425C154.33 60.6785 154.394 61.7185 154.49 63.0625L154.586 64.6225C154.602 64.7665 154.626 64.9265 154.658 65.1025C154.69 65.2785 154.706 65.4225 154.706 65.5345C154.706 65.9665 154.482 66.1825 154.034 66.1825C153.842 66.1825 153.666 66.1345 153.506 66.0385C153.362 65.9425 153.282 65.8065 153.266 65.6305C153.218 65.2625 153.194 64.8865 153.194 64.5025L153.122 58.5265C152.562 58.6225 152.146 58.7265 151.874 58.8385C151.602 58.9505 151.402 59.1025 151.274 59.2945C151.162 59.4705 151.074 59.7265 151.01 60.0625C150.962 60.2705 150.938 60.5825 150.938 60.9985C150.938 61.2065 150.954 61.5025 150.986 61.8865L151.01 62.7985C151.01 63.4865 150.97 64.0705 150.89 64.5505C150.81 65.0145 150.634 65.4545 150.362 65.8705C150.234 66.0785 150.058 66.2305 149.834 66.3265C149.61 66.4225 149.394 66.4545 149.186 66.4225ZM151.562 57.8065C151.626 57.8225 151.73 57.8305 151.874 57.8305C152.21 57.8305 152.642 57.7585 153.17 57.6145C153.17 57.1985 153.154 56.5585 153.122 55.6945C153.074 54.8785 153.05 54.0705 153.05 53.2705C153.05 52.5985 153.074 51.9185 153.122 51.2305C152.69 51.2945 152.306 51.4065 151.97 51.5665C151.634 51.7265 151.41 51.9025 151.298 52.0945C150.882 52.8785 150.666 53.6465 150.65 54.3985C150.65 55.2465 150.666 55.8705 150.698 56.2705C150.714 56.6225 150.794 56.9505 150.938 57.2545C151.082 57.5585 151.29 57.7425 151.562 57.8065Z" fill="#4552EC"/>
<path d="M166.517 65.9665C166.517 66.9585 166.765 67.4545 167.261 67.4545C167.485 67.4545 167.677 67.3505 167.837 67.1425C167.997 66.9345 168.077 66.6945 168.077 66.4225C168.077 66.3265 168.037 66.1745 167.957 65.9665C167.957 65.9505 167.949 65.9025 167.933 65.8225C167.933 65.7425 167.925 65.6305 167.909 65.4865L167.837 64.6465C167.789 64.2625 167.765 63.9745 167.765 63.7825L167.813 62.5105L167.837 61.2385C167.837 60.0545 167.781 58.3905 167.669 56.2465C167.573 53.9425 167.525 52.2145 167.525 51.0625C167.525 50.8705 167.429 50.7185 167.237 50.6065C167.061 50.4785 166.861 50.4145 166.637 50.4145C166.397 50.4145 166.133 50.7505 165.845 51.4225C165.557 52.0465 165.261 52.9105 164.957 54.0145C164.445 55.8225 163.933 57.8465 163.421 60.0865L163.277 60.6625C163.197 61.0305 163.093 61.4305 162.965 61.8625C162.805 61.0145 162.445 59.6385 161.885 57.7345C161.325 55.8305 160.765 54.1265 160.205 52.6225C159.645 51.1185 159.261 50.3665 159.053 50.3665C158.797 50.3665 158.573 50.4225 158.381 50.5345C158.205 50.6305 158.117 50.7745 158.117 50.9665C158.117 51.1265 158.165 51.2785 158.261 51.4225C158.261 53.0545 158.141 55.5025 157.901 58.7665C157.661 62.0305 157.541 64.4785 157.541 66.1105C157.541 66.2545 157.613 66.3825 157.757 66.4945C157.901 66.6225 158.053 66.6865 158.213 66.6865C158.517 66.6865 158.725 66.6145 158.837 66.4705C158.949 66.3425 159.005 66.1425 159.005 65.8705V65.5345C158.989 65.4225 158.981 65.3025 158.981 65.1745C158.981 64.6305 158.997 63.6225 159.029 62.1505C159.077 60.6305 159.165 58.7265 159.293 56.4385L159.437 53.7265C159.901 55.1825 160.413 57.0545 160.973 59.3425C161.549 61.6305 161.837 63.1265 161.837 63.8305C161.837 64.1505 161.925 64.4065 162.101 64.5985C162.293 64.7745 162.541 64.8625 162.845 64.8625C163.149 64.8625 163.541 64.0705 164.021 62.4865C164.517 60.8385 164.997 59.0465 165.461 57.1105C165.925 55.1105 166.189 54.0065 166.253 53.7985C166.253 54.3425 166.237 54.8305 166.205 55.2625L166.157 56.7505C166.157 57.2945 166.221 58.2945 166.349 59.7505C166.461 61.0465 166.517 62.0945 166.517 62.8945V65.9665Z" fill="#4552EC"/>
<path d="M179.649 66.2065C179.105 66.2065 178.833 64.8865 178.833 62.2465L178.857 60.8785L178.881 59.7745V59.4625C178.897 59.3345 178.905 59.1825 178.905 59.0065C178.905 58.9745 178.881 58.9345 178.833 58.8865C178.785 58.8385 178.761 58.7985 178.761 58.7665V58.7425C178.681 58.7745 178.537 58.7905 178.329 58.7905C178.121 58.7905 177.865 58.7585 177.561 58.6945C177.465 58.6785 177.209 58.6385 176.793 58.5745V61.3345C176.793 61.7505 176.817 62.4065 176.865 63.3025C176.913 64.1825 176.937 64.8385 176.937 65.2705C176.937 65.5105 176.873 65.7185 176.745 65.8945C176.617 66.0705 176.449 66.1585 176.241 66.1585C175.937 66.1585 175.721 65.8625 175.593 65.2705C175.465 64.6625 175.401 63.8705 175.401 62.8945L175.449 60.9505C175.465 60.4065 175.473 59.8305 175.473 59.2225V58.4785C175.473 58.2225 175.465 58.0545 175.449 57.9745V57.8545L175.521 56.4625C175.521 55.8545 175.497 54.9505 175.449 53.7505C175.401 52.5505 175.377 51.6465 175.377 51.0385C175.377 50.8465 175.441 50.6785 175.569 50.5345C175.697 50.3905 175.857 50.3185 176.049 50.3185C176.561 50.3185 176.817 50.7985 176.817 51.7585L176.769 54.7345C176.737 55.6305 176.721 56.6305 176.721 57.7345C176.961 57.8145 177.393 57.8545 178.017 57.8545H178.905C178.937 57.7585 178.953 57.6625 178.953 57.5665C178.953 56.7985 178.905 55.6625 178.809 54.1585C178.697 52.7505 178.641 51.6065 178.641 50.7265C178.641 50.5505 178.705 50.4065 178.833 50.2945C178.977 50.1665 179.145 50.1025 179.337 50.1025C179.449 50.1025 179.609 50.1425 179.817 50.2225L180.033 50.3185C180.033 52.5905 180.113 55.6225 180.273 59.4145L180.489 65.4865C180.489 65.7105 180.401 65.8865 180.225 66.0145C180.065 66.1425 179.873 66.2065 179.649 66.2065Z" fill="#4552EC"/>
<path fill-rule="evenodd" clip-rule="evenodd" d="M187.282 66.2545C187.458 66.3665 187.73 66.4225 188.098 66.4225C188.354 66.3265 188.482 66.1025 188.482 65.7505V65.7265C188.482 65.5025 188.41 65.0065 188.266 64.2385C188.106 63.3905 188.026 62.9105 188.026 62.7985C188.026 62.6865 187.986 62.4465 187.906 62.0785C187.826 61.6785 187.786 61.4305 187.786 61.3345C187.786 60.3425 187.626 58.6145 187.306 56.1505C186.97 53.7505 186.802 51.9425 186.802 50.7265C186.802 50.5345 186.722 50.3905 186.562 50.2945C186.402 50.1825 186.21 50.1265 185.986 50.1265H185.17C185.042 50.3025 184.946 50.5665 184.882 50.9185C184.834 51.2705 184.786 51.7425 184.738 52.3345C184.722 52.6225 184.706 52.8465 184.69 53.0065C184.674 53.1505 184.666 53.2545 184.666 53.3185C184.122 57.3185 183.322 61.3745 182.266 65.4865L182.242 65.5825L182.194 65.7025C182.194 65.8785 182.274 66.0305 182.434 66.1585C182.594 66.2705 182.77 66.3265 182.962 66.3265C183.17 66.3265 183.33 66.2545 183.442 66.1105C183.65 65.8545 183.802 65.3345 183.898 64.5505C184.074 63.4305 184.21 62.6865 184.306 62.3185L186.682 62.6785L186.778 63.1825C186.938 64.3345 187.018 65.1505 187.018 65.6305C187.018 65.9345 187.106 66.1425 187.282 66.2545ZM186.442 60.9265C186.442 61.2785 186.466 61.5745 186.514 61.8145C185.346 61.7185 184.642 61.5905 184.402 61.4305C184.658 59.5105 185.13 56.6705 185.818 52.9105L186.058 55.4065C186.314 57.6465 186.442 59.4865 186.442 60.9265Z" fill="#4552EC"/>
<path d="M193.758 66.5425C193.406 66.5425 193.03 66.4865 192.63 66.3745C192.246 66.2785 191.95 66.1665 191.742 66.0385C190.67 65.3505 190.134 63.4705 190.134 60.3985V58.4305C190.134 57.7905 190.142 57.2225 190.158 56.7265C190.174 56.2145 190.206 55.6625 190.254 55.0705C190.302 54.4465 190.374 53.9425 190.47 53.5585C190.566 53.1585 190.726 52.7105 190.95 52.2145C191.142 51.7505 191.374 51.3905 191.646 51.1345C191.934 50.8785 192.302 50.6625 192.75 50.4865C193.15 50.3105 193.646 50.2225 194.238 50.2225C194.478 50.2225 194.662 50.2785 194.79 50.3905C194.918 50.5025 194.982 50.6465 194.982 50.8225C194.982 50.9825 194.926 51.1265 194.814 51.2545C194.718 51.3825 194.598 51.4545 194.454 51.4705H193.326C193.006 51.4705 192.726 51.6705 192.486 52.0705C192.246 52.4705 192.078 52.9905 191.982 53.6305C191.774 54.8145 191.67 55.7745 191.67 56.5105V56.6305L191.622 58.9345C191.59 59.6225 191.574 60.3985 191.574 61.2625C191.574 61.8705 191.598 62.3665 191.646 62.7505C191.726 63.3265 191.862 63.8065 192.054 64.1905C192.246 64.6225 192.574 64.9345 193.038 65.1265C193.278 65.2225 193.542 65.2705 193.83 65.2705C194.006 65.2705 194.182 65.2065 194.358 65.0785C194.566 65.0785 194.734 65.1265 194.862 65.2225C195.006 65.3025 195.078 65.4305 195.078 65.6065C195.078 66.2305 194.638 66.5425 193.758 66.5425Z" fill="#4552EC"/>
<path d="M197.773 66.3025C197.949 66.4465 198.141 66.5185 198.349 66.5185H200.389C200.677 66.5185 200.917 66.4545 201.109 66.3265C201.317 66.2145 201.421 66.0465 201.421 65.8225C201.421 65.4385 201.117 65.2465 200.509 65.2465C200.125 65.2465 199.797 65.2545 199.525 65.2705L198.733 65.2945C198.701 65.2945 198.685 64.8465 198.685 63.9505C198.685 63.4705 198.709 62.7425 198.757 61.7665C198.773 61.1265 198.781 60.4065 198.781 59.6065C198.781 58.8065 198.765 58.1985 198.733 57.7825H199.333C199.493 57.8145 199.717 57.8305 200.005 57.8305C200.229 57.8305 200.413 57.7745 200.557 57.6625C200.701 57.5345 200.773 57.3825 200.773 57.2065C200.773 56.7585 200.389 56.5345 199.621 56.5345C199.429 56.5345 199.269 56.5425 199.141 56.5585L198.757 56.5825L198.685 56.1985C198.685 55.8145 198.709 55.2385 198.757 54.4705C198.773 53.9585 198.781 53.3825 198.781 52.7425C198.781 52.2945 198.773 51.9505 198.757 51.7105C199.301 51.7905 199.909 51.9505 200.581 52.1905C200.773 52.1105 200.933 52.0065 201.061 51.8785C201.205 51.7345 201.277 51.5825 201.277 51.4225C201.277 51.1345 200.925 50.8865 200.221 50.6785C199.533 50.4705 198.925 50.3665 198.397 50.3665C197.725 50.3665 197.389 50.9345 197.389 52.0705C197.389 52.2785 197.413 52.6145 197.461 53.0785C197.509 53.5265 197.533 53.8625 197.533 54.0865C197.533 55.0305 197.501 56.1985 197.437 57.5905C197.389 59.1425 197.365 60.3105 197.365 61.0945L197.413 62.6305C197.461 63.3185 197.485 63.8305 197.485 64.1665C197.485 64.3585 197.493 64.5265 197.509 64.6705V65.7745C197.525 65.9825 197.613 66.1585 197.773 66.3025Z" fill="#4552EC"/>
<path d="M203.897 66.7345C203.769 66.7345 203.657 66.6945 203.561 66.6145C203.465 66.5345 203.393 66.4305 203.345 66.3025C203.329 66.2705 203.321 66.2225 203.321 66.1585C203.321 65.9505 203.433 65.7825 203.657 65.6545C204.105 65.4625 204.441 65.1745 204.665 64.7905C204.905 64.3905 205.073 63.9265 205.169 63.3985C205.457 61.8305 205.601 60.1265 205.601 58.2865C205.601 57.5985 205.593 57.0785 205.577 56.7265C205.465 54.0225 205.369 52.1185 205.289 51.0145V50.9185C205.289 50.7745 205.321 50.6625 205.385 50.5825C205.449 50.5025 205.561 50.4465 205.721 50.4145C206.745 50.2225 207.561 50.1265 208.169 50.1265C208.489 50.1265 208.729 50.1345 208.889 50.1505C209.257 50.1665 209.537 50.2785 209.729 50.4865C209.921 50.6945 210.017 50.9825 210.017 51.3505L210.041 52.6225C210.073 53.7425 210.089 54.5825 210.089 55.1425L210.065 56.2945C210.065 57.9905 210.129 60.1345 210.257 62.7265C210.321 63.8945 210.377 64.7985 210.425 65.4385C210.441 65.7265 210.393 65.9345 210.281 66.0625C210.185 66.1905 210.017 66.2705 209.777 66.3025C209.249 66.3345 208.969 66.0865 208.937 65.5585C208.985 65.0945 209.009 64.6305 209.009 64.1665C209.009 63.7025 209.001 63.3185 208.985 63.0145L208.961 60.2785C208.961 58.9505 208.937 57.5905 208.889 56.1985C208.857 55.0465 208.809 53.9585 208.745 52.9345C208.681 51.9105 208.617 51.2865 208.553 51.0625C208.457 51.0785 208.257 51.1185 207.953 51.1825C207.649 51.2465 207.233 51.3025 206.705 51.3505C206.657 52.0865 206.633 52.6145 206.633 52.9345C206.633 53.3025 206.657 53.6225 206.705 53.8945C206.737 54.3265 206.769 54.9585 206.801 55.7905V56.3185C206.801 58.9105 206.777 60.6625 206.729 61.5745C206.697 61.8305 206.681 62.0305 206.681 62.1745C206.617 62.8465 206.553 63.3585 206.489 63.7105C206.329 64.5585 205.841 65.4225 205.025 66.3025C204.801 66.5585 204.441 66.7025 203.945 66.7345H203.897Z" fill="#4552EC"/>
<path d="M213.992 66.3025C214.168 66.4465 214.36 66.5185 214.568 66.5185H216.608C216.896 66.5185 217.136 66.4545 217.328 66.3265C217.536 66.2145 217.64 66.0465 217.64 65.8225C217.64 65.4385 217.336 65.2465 216.728 65.2465C216.344 65.2465 216.016 65.2545 215.744 65.2705L214.952 65.2945C214.92 65.2945 214.904 64.8465 214.904 63.9505C214.904 63.4705 214.928 62.7425 214.976 61.7665C214.992 61.1265 215 60.4065 215 59.6065C215 58.8065 214.984 58.1985 214.952 57.7825H215.552C215.712 57.8145 215.936 57.8305 216.224 57.8305C216.448 57.8305 216.632 57.7745 216.776 57.6625C216.92 57.5345 216.992 57.3825 216.992 57.2065C216.992 56.7585 216.608 56.5345 215.84 56.5345C215.648 56.5345 215.488 56.5425 215.36 56.5585L214.976 56.5825L214.904 56.1985C214.904 55.8145 214.928 55.2385 214.976 54.4705C214.992 53.9585 215 53.3825 215 52.7425C215 52.2945 214.992 51.9505 214.976 51.7105C215.52 51.7905 216.128 51.9505 216.8 52.1905C216.992 52.1105 217.152 52.0065 217.28 51.8785C217.424 51.7345 217.496 51.5825 217.496 51.4225C217.496 51.1345 217.144 50.8865 216.44 50.6785C215.752 50.4705 215.144 50.3665 214.616 50.3665C213.944 50.3665 213.608 50.9345 213.608 52.0705C213.608 52.2785 213.632 52.6145 213.68 53.0785C213.728 53.5265 213.752 53.8625 213.752 54.0865C213.752 55.0305 213.72 56.1985 213.656 57.5905C213.608 59.1425 213.584 60.3105 213.584 61.0945L213.632 62.6305C213.68 63.3185 213.704 63.8305 213.704 64.1665C213.704 64.3585 213.712 64.5265 213.728 64.6705V65.7745C213.744 65.9825 213.832 66.1585 213.992 66.3025Z" fill="#4552EC"/>
<path d="M224.508 66.2065C223.964 66.2065 223.692 64.8865 223.692 62.2465L223.716 60.8785L223.74 59.7745V59.4625C223.756 59.3345 223.764 59.1825 223.764 59.0065C223.764 58.9745 223.74 58.9345 223.692 58.8865C223.644 58.8385 223.62 58.7985 223.62 58.7665V58.7425C223.54 58.7745 223.396 58.7905 223.188 58.7905C222.98 58.7905 222.724 58.7585 222.42 58.6945C222.324 58.6785 222.068 58.6385 221.652 58.5745V61.3345C221.652 61.7505 221.676 62.4065 221.724 63.3025C221.772 64.1825 221.796 64.8385 221.796 65.2705C221.796 65.5105 221.732 65.7185 221.604 65.8945C221.476 66.0705 221.308 66.1585 221.1 66.1585C220.796 66.1585 220.58 65.8625 220.452 65.2705C220.324 64.6625 220.26 63.8705 220.26 62.8945L220.308 60.9505C220.324 60.4065 220.332 59.8305 220.332 59.2225V58.4785C220.332 58.2225 220.324 58.0545 220.308 57.9745V57.8545L220.38 56.4625C220.38 55.8545 220.356 54.9505 220.308 53.7505C220.26 52.5505 220.236 51.6465 220.236 51.0385C220.236 50.8465 220.3 50.6785 220.428 50.5345C220.556 50.3905 220.716 50.3185 220.908 50.3185C221.42 50.3185 221.676 50.7985 221.676 51.7585L221.628 54.7345C221.596 55.6305 221.58 56.6305 221.58 57.7345C221.82 57.8145 222.252 57.8545 222.876 57.8545H223.764C223.796 57.7585 223.812 57.6625 223.812 57.5665C223.812 56.7985 223.764 55.6625 223.668 54.1585C223.556 52.7505 223.5 51.6065 223.5 50.7265C223.5 50.5505 223.564 50.4065 223.692 50.2945C223.836 50.1665 224.004 50.1025 224.196 50.1025C224.308 50.1025 224.468 50.1425 224.676 50.2225L224.892 50.3185C224.892 52.5905 224.972 55.6225 225.132 59.4145L225.348 65.4865C225.348 65.7105 225.26 65.8865 225.084 66.0145C224.924 66.1425 224.732 66.2065 224.508 66.2065Z" fill="#4552EC"/>
<path d="M228.661 65.7505C228.677 65.9585 228.789 66.0945 228.997 66.1585C229.157 66.1905 229.261 66.2065 229.309 66.2065C229.565 66.2065 229.757 66.0385 229.885 65.7025L230.965 62.7505L233.053 56.9425C233.197 56.5425 233.397 55.9265 233.653 55.0945L234.037 53.9185C234.053 53.8705 234.133 53.7665 234.277 53.6065L234.349 54.4705C234.413 55.0145 234.445 55.4065 234.445 55.6465C234.493 57.2145 234.533 59.5825 234.565 62.7505C234.565 63.0705 234.549 63.5345 234.517 64.1425C234.469 64.5905 234.445 65.0545 234.445 65.5345C234.445 65.9505 234.669 66.1585 235.117 66.1585C235.245 66.1585 235.365 66.1265 235.477 66.0625C235.589 65.9825 235.669 65.8785 235.717 65.7505C235.829 65.4625 235.885 65.1985 235.885 64.9585L235.813 58.4785C235.797 58.1585 235.789 57.8785 235.789 57.6385C235.805 57.3985 235.813 57.2065 235.813 57.0625V56.3665C235.813 55.8225 235.805 55.4145 235.789 55.1425C235.741 53.8625 235.717 52.6225 235.717 51.4225V50.2705C235.477 50.1265 235.245 50.0545 235.021 50.0545C234.877 50.0545 234.733 50.0785 234.589 50.1265C234.301 50.2225 234.085 50.4625 233.941 50.8465C233.781 51.2465 233.485 52.1265 233.053 53.4865C232.893 54.0145 232.749 54.4625 232.621 54.8305C232.013 56.6225 231.517 58.1345 231.133 59.3665C231.021 59.7345 230.845 60.2065 230.605 60.7825C230.557 60.8945 230.437 61.1985 230.245 61.6945C230.069 62.1745 229.941 62.6465 229.861 63.1105C229.845 62.9825 229.821 62.7745 229.789 62.4865C229.757 62.1825 229.741 61.9185 229.741 61.6945V57.3985L229.765 51.3505V51.0625C229.733 50.5505 229.493 50.2945 229.045 50.2945C228.565 50.2625 228.293 50.4945 228.229 50.9905C228.197 51.1665 228.181 51.4385 228.181 51.8065C228.181 52.1265 228.189 52.3745 228.205 52.5505C228.205 52.8545 228.213 53.3025 228.229 53.8945C228.245 54.4865 228.261 54.9505 228.277 55.2865C228.341 57.2385 228.397 58.7025 228.445 59.6785C228.461 60.3025 228.501 61.1985 228.565 62.3665C228.597 63.7105 228.629 64.7185 228.661 65.3905V65.7505Z" fill="#4552EC"/>
<path fill-rule="evenodd" clip-rule="evenodd" d="M238.272 66.4225C238.128 66.3905 238.008 66.3425 237.912 66.2785C237.832 66.2305 237.784 66.1345 237.768 65.9905C237.784 65.8945 237.824 65.7905 237.888 65.6785C237.952 65.5665 238.016 65.5025 238.08 65.4865C238.224 65.4705 238.328 65.4225 238.392 65.3425C238.456 65.2625 238.512 65.1505 238.56 65.0065C238.576 64.9105 238.624 64.6705 238.704 64.2865C238.784 63.9025 238.832 63.5345 238.848 63.1825L238.872 62.7745C238.872 62.5825 238.856 62.3105 238.824 61.9585C238.792 61.6065 238.776 61.3505 238.776 61.1905C238.776 60.2625 239.12 59.3505 239.808 58.4545C238.88 57.6065 238.416 56.6785 238.416 55.6705V54.9025C238.416 54.0705 238.48 53.4465 238.608 53.0305C238.72 52.5985 238.928 52.1265 239.232 51.6145C239.344 51.3745 239.496 51.1905 239.688 51.0625C239.88 50.9185 240.088 50.7905 240.312 50.6785C240.552 50.5665 240.736 50.4785 240.864 50.4145C240.96 50.3665 241.096 50.3185 241.272 50.2705C241.464 50.2225 241.616 50.1345 241.728 50.0065C241.936 49.9265 242.144 49.8865 242.352 49.8865C242.656 49.8865 242.92 49.9585 243.144 50.1025C243.384 50.2465 243.504 50.4145 243.504 50.6065C243.504 51.2945 243.488 52.3745 243.456 53.8465L243.384 57.2545L243.36 58.5985L243.384 59.9425C243.416 60.6785 243.48 61.7185 243.576 63.0625L243.672 64.6225C243.688 64.7665 243.712 64.9265 243.744 65.1025C243.776 65.2785 243.792 65.4225 243.792 65.5345C243.792 65.9665 243.568 66.1825 243.12 66.1825C242.928 66.1825 242.752 66.1345 242.592 66.0385C242.448 65.9425 242.368 65.8065 242.352 65.6305C242.304 65.2625 242.28 64.8865 242.28 64.5025L242.208 58.5265C241.648 58.6225 241.232 58.7265 240.96 58.8385C240.688 58.9505 240.488 59.1025 240.36 59.2945C240.248 59.4705 240.16 59.7265 240.096 60.0625C240.048 60.2705 240.024 60.5825 240.024 60.9985C240.024 61.2065 240.04 61.5025 240.072 61.8865L240.096 62.7985C240.096 63.4865 240.056 64.0705 239.976 64.5505C239.896 65.0145 239.72 65.4545 239.448 65.8705C239.32 66.0785 239.144 66.2305 238.92 66.3265C238.696 66.4225 238.48 66.4545 238.272 66.4225ZM240.648 57.8065C240.712 57.8225 240.816 57.8305 240.96 57.8305C241.296 57.8305 241.728 57.7585 242.256 57.6145C242.256 57.1985 242.24 56.5585 242.208 55.6945C242.16 54.8785 242.136 54.0705 242.136 53.2705C242.136 52.5985 242.16 51.9185 242.208 51.2305C241.776 51.2945 241.392 51.4065 241.056 51.5665C240.72 51.7265 240.496 51.9025 240.384 52.0945C239.968 52.8785 239.752 53.6465 239.736 54.3985C239.736 55.2465 239.752 55.8705 239.784 56.2705C239.8 56.6225 239.88 56.9505 240.024 57.2545C240.168 57.5585 240.376 57.7425 240.648 57.8065Z" fill="#4552EC"/>
<path fill-rule="evenodd" clip-rule="evenodd" d="M38.1564 26.4114C37.332 26.8906 36.4478 27.3102 35.5385 27.6587C35.5459 27.7126 35.5497 27.7688 35.5497 27.8271C35.3721 29.4198 35.1353 31.0125 34.6617 32.5463C33.5369 36.6755 31.1688 36.9115 27.3799 36.6165C25.7815 36.5575 24.1239 36.6755 22.5254 36.9115C16.1072 38.0262 11.2702 31.6713 10.6942 25.8566C9.24785 26.1691 7.82195 25.3292 7.72705 23.5799C7.72705 21.9872 9.08868 21.3383 10.3911 20.8664C11.4567 20.5125 12.6407 20.2176 13.7656 20.0996C16.252 19.8046 18.7977 20.1586 21.0473 21.1614C22.0472 21.5829 23.0222 22.1289 23.9883 22.67C24.5094 22.9618 25.028 23.2523 25.5466 23.5209C29.0395 25.4676 32.5323 25.2316 36.0844 23.462C38.2748 21.9872 40.3469 25.0547 38.1564 26.4114ZM15.4213 24.8187C15.4143 24.7113 15.403 24.6079 15.3876 24.5085C16.682 24.4239 17.9738 24.606 19.2121 25.0547C20.147 25.39 21.0347 25.8431 21.92 26.2949C22.436 26.5583 22.9513 26.8213 23.4746 27.0603C25.5466 28.0631 27.7962 28.771 30.1051 28.712C31.122 28.712 32.0952 28.5815 33.0623 28.3951C32.9786 28.8519 32.8862 29.2996 32.7672 29.7738L32.7299 29.9228C32.5049 30.8225 32.2688 31.7668 31.82 32.6053C31.8005 32.6376 31.781 32.6707 31.7613 32.7042C31.6013 32.9758 31.4258 33.2736 31.1096 33.4311C30.4778 33.641 29.816 33.5522 29.1455 33.4622C28.8737 33.4258 28.6004 33.3891 28.3272 33.3721C27.2615 33.2541 26.1367 33.1951 25.0711 33.1951C24.5004 33.1762 23.9296 33.206 23.3628 33.2355C22.1658 33.298 20.9863 33.3595 19.8614 32.9592C16.8421 31.5435 15.3029 28.0041 15.4213 24.8187Z" fill="#4552EC"/>
<path fill-rule="evenodd" clip-rule="evenodd" d="M224.55 27.6597C223.641 27.3112 222.757 26.8916 221.932 26.4124C219.742 25.0556 221.814 21.9882 224.004 23.4629C227.557 25.2326 231.049 25.4686 234.542 23.5219C235.061 23.2532 235.579 22.9628 236.101 22.671C237.067 22.1299 238.042 21.5839 239.042 21.1624C241.291 20.1595 243.837 19.8056 246.323 20.1005C247.448 20.2185 248.632 20.5135 249.698 20.8674C251 21.3393 252.362 21.9882 252.362 23.5809C252.267 25.3302 250.841 26.1701 249.395 25.8576C248.819 31.6722 243.982 38.0272 237.563 36.9124C235.965 36.6765 234.307 36.5585 232.709 36.6175C228.92 36.9124 226.552 36.6765 225.427 32.5472C224.954 31.0135 224.717 29.4208 224.539 27.8281C224.539 27.7698 224.543 27.7136 224.55 27.6597ZM244.701 24.5095C243.407 24.4249 242.115 24.607 240.877 25.0556C239.942 25.391 239.054 25.8441 238.169 26.2959C237.653 26.5593 237.138 26.8223 236.614 27.0613C234.542 28.0641 232.293 28.772 229.984 28.713C228.967 28.713 227.994 28.5824 227.027 28.3961C227.11 28.8528 227.203 29.3006 227.322 29.7747L227.359 29.924C227.584 30.8236 227.82 31.7679 228.269 32.6062L228.296 32.6513L228.328 32.7052C228.488 32.9768 228.663 33.2745 228.979 33.4321C229.611 33.6419 230.273 33.5532 230.943 33.4632C231.215 33.4268 231.488 33.3901 231.762 33.3731C232.827 33.2551 233.952 33.1961 235.018 33.1961C235.589 33.1772 236.159 33.2069 236.726 33.2365C237.923 33.299 239.103 33.3605 240.227 32.9602C243.247 31.5444 244.786 28.0051 244.668 24.8197C244.675 24.7123 244.686 24.6089 244.701 24.5095Z" fill="#4552EC"/>
<path fill-rule="evenodd" clip-rule="evenodd" d="M7 0H254C257.866 0 261 3.13401 261 7V77C261 80.866 257.866 84 254 84H7C3.13401 84 0 80.866 0 77V7C0 3.13401 3.13401 0 7 0ZM7 3C4.79086 3 3 4.79086 3 7V77C3 79.2091 4.79086 81 7 81H254C256.209 81 258 79.2091 258 77V7C258 4.79086 256.209 3 254 3H7Z" fill="#4552EC"/>
</svg>
