<svg width="46" height="46" viewBox="0 0 46 46" fill="none" xmlns="http://www.w3.org/2000/svg">
<path d="M21.889 1.74216C22.5615 1.2929 23.4385 1.2929 24.111 1.74216L26.1741 3.12041C26.6151 3.41498 27.155 3.52237 27.6751 3.41897L30.1086 2.93517C30.9019 2.77746 31.712 3.11304 32.1614 3.78546L33.5401 5.84834C33.8348 6.28923 34.2925 6.59505 34.8125 6.69856L37.246 7.18286C38.0392 7.34073 38.6593 7.96079 38.8171 8.75401L39.3014 11.1875C39.405 11.7075 39.7108 12.1652 40.1517 12.4599L42.2145 13.8386C42.887 14.288 43.2225 15.0981 43.0648 15.8914L42.581 18.3249C42.4776 18.845 42.585 19.3849 42.8796 19.8259L44.2578 21.889C44.7071 22.5615 44.7071 23.4385 44.2578 24.111L42.8796 26.1741C42.585 26.6151 42.4776 27.155 42.581 27.6751L43.0648 30.1086C43.2225 30.9019 42.887 31.712 42.2145 32.1614L40.1517 33.5401C39.7108 33.8348 39.4049 34.2925 39.3014 34.8125L38.8171 37.246C38.6593 38.0392 38.0392 38.6593 37.246 38.8171L34.8125 39.3014C34.2925 39.405 33.8348 39.7108 33.5401 40.1517L32.1614 42.2145C31.712 42.887 30.9019 43.2225 30.1086 43.0648L27.6751 42.581C27.155 42.4776 26.6151 42.585 26.1741 42.8796L24.111 44.2578C23.4385 44.7071 22.5615 44.7071 21.889 44.2578L19.8259 42.8796C19.3849 42.585 18.845 42.4776 18.3249 42.581L15.8914 43.0648C15.0981 43.2225 14.288 42.887 13.8386 42.2145L12.4599 40.1517C12.1652 39.7108 11.7075 39.4049 11.1875 39.3014L8.75401 38.8171C7.96079 38.6593 7.34073 38.0392 7.18286 37.246L6.69856 34.8125C6.59505 34.2925 6.28923 33.8348 5.84834 33.5401L3.78546 32.1614C3.11304 31.712 2.77746 30.9019 2.93517 30.1086L3.41897 27.6751C3.52237 27.155 3.41498 26.6151 3.12041 26.1741L1.74216 24.111C1.2929 23.4385 1.2929 22.5615 1.74216 21.889L3.12041 19.8259C3.41498 19.3849 3.52237 18.845 3.41897 18.3249L2.93517 15.8914C2.77746 15.0981 3.11304 14.288 3.78546 13.8386L5.84834 12.4599C6.28923 12.1652 6.59505 11.7075 6.69856 11.1875L7.18286 8.75401C7.34073 7.96079 7.96079 7.34073 8.75401 7.18286L11.1875 6.69856C11.7075 6.59505 12.1652 6.28923 12.4599 5.84834L13.8386 3.78546C14.288 3.11304 15.0981 2.77746 15.8914 2.93517L18.3249 3.41897C18.845 3.52237 19.3849 3.41498 19.8259 3.12041L21.889 1.74216Z" fill="url(#paint0_linear_1729_8450)" stroke="#F2F2F2"/>
<defs>
<linearGradient id="paint0_linear_1729_8450" x1="31.6014" y1="48.4729" x2="7.60861" y2="9.34523" gradientUnits="userSpaceOnUse">
<stop stop-color="#4054E8"/>
<stop offset="1" stop-color="#5C47FF"/>
</linearGradient>
</defs>
</svg>
