<svg width="36" height="36" viewBox="0 0 36 36" fill="none" xmlns="http://www.w3.org/2000/svg">
<path fill-rule="evenodd" clip-rule="evenodd" d="M16.875 30.0213C16.6722 30.0213 16.4755 30.0198 16.2847 30.017L12.1232 34.0693C11.1782 34.9894 9.5625 34.3377 9.5625 33.0365V28.9455C6.26062 27.5803 3.99872 24.7806 3.34999 21.1044C3.1875 20.1836 3 18.7158 3 16.5106C3 14.3054 3.1875 12.8377 3.34999 11.9168C4.15703 7.34352 7.46067 4.12664 12.1573 3.3408C13.103 3.18257 14.6103 3 16.875 3H19.125C21.3897 3 22.897 3.18257 23.8427 3.3408C28.5393 4.12664 31.843 7.34352 32.65 11.9168C32.8125 12.8377 33 14.3054 33 16.5106C33 18.7158 32.8125 20.1836 32.65 21.1044C31.843 25.6777 28.5393 28.8946 23.8427 29.6805C22.897 29.8387 21.3897 30.0213 19.125 30.0213H16.875ZM18.7174 10.0498C18.7783 10.0545 18.8348 10.0591 18.8824 10.0661C22.229 10.6034 23.7682 12.2569 24.194 15.775C24.2015 15.8347 24.203 15.908 24.2037 15.9848C24.2082 16.2602 24.2174 16.8316 24.8057 16.8432H24.8235C25.0086 16.8432 25.155 16.7851 25.2605 16.6704C25.4434 16.4711 25.4315 16.1742 25.4203 15.9354L25.4199 15.9233C25.4178 15.8693 25.4159 15.8179 25.4159 15.7726C25.459 12.1755 22.4728 8.91257 19.0273 8.79163C19.0124 8.79163 18.9991 8.79163 18.9857 8.79396C18.9721 8.79574 18.9585 8.79652 18.9448 8.79628C18.913 8.79628 18.8756 8.79371 18.8349 8.7909L18.8229 8.79008L18.817 8.78965C18.7649 8.78587 18.7054 8.78156 18.6445 8.78156C18.0961 8.78156 17.992 9.18856 17.9786 9.4312C17.9482 9.9917 18.4677 10.0312 18.7174 10.0498ZM19.4435 10.8309C21.692 11.1148 23.5072 13.1659 23.4895 15.4035C23.4897 15.4138 23.4885 15.4234 23.4873 15.4336C23.4815 15.4739 23.4835 15.5336 23.4857 15.5974L23.4858 15.6009C23.4932 15.8308 23.5085 16.3087 23.0105 16.3884C22.9604 16.3961 22.9117 16.4 22.8675 16.4C22.3329 16.4 22.3024 15.8793 22.2876 15.6272L22.2875 15.6255L22.2864 15.6084C22.2824 15.5475 22.2787 15.4904 22.2713 15.4437C21.9389 13.34 21.2587 12.5949 19.2379 12.1206C19.1913 12.1098 19.1364 12.1017 19.0785 12.0932L19.0654 12.0912C18.8495 12.0603 18.5805 12.0216 18.428 11.8042C18.3373 11.675 18.3071 11.5086 18.3388 11.3113C18.3712 11.1094 18.4943 10.769 18.9556 10.769C19.0707 10.772 19.1853 10.7849 19.2983 10.8077C19.3499 10.8169 19.3986 10.8255 19.4435 10.8309ZM23.8195 20.1481C23.8899 20.2069 23.961 20.2648 24.0328 20.3217C24.5708 20.7504 25.2412 21.2846 24.8741 22.3653C24.4556 23.5987 23.0919 24.6809 21.9563 24.6809H21.9369C21.9166 24.6807 21.8964 24.6779 21.8767 24.6724C21.8411 24.6623 21.792 24.6507 21.7355 24.6375C21.5683 24.5987 21.3401 24.5452 21.1224 24.4475C18.7085 23.363 16.6245 21.9203 14.9293 20.1582C13.1969 18.3581 11.8234 16.1765 10.8461 13.6749C10.5087 12.8097 10.4938 11.9779 10.806 11.2693C11.1293 10.5367 11.7744 9.98162 12.6744 9.6661C13.01 9.54069 13.377 9.54178 13.7119 9.6692C14.4952 9.96922 16.354 12.6136 16.4001 13.4919C16.4395 14.2664 15.8694 14.6703 15.5625 14.8873C15.0229 15.2703 14.9233 15.7401 15.2303 16.4595C15.865 17.9472 16.9753 19.0744 18.5286 19.8093C18.6923 19.8931 18.8711 19.9399 19.0533 19.9465C19.3157 19.9465 19.529 19.8116 19.7044 19.5341C20.1012 18.9085 20.5813 18.5906 21.1328 18.5906C21.5416 18.5906 21.9741 18.762 22.4557 19.1147L22.722 19.3087C23.0873 19.575 23.4643 19.8499 23.8195 20.1481ZM19.2198 12.9081C19.0258 12.9128 18.6208 12.9236 18.4788 13.3531C18.4119 13.5547 18.4201 13.7283 18.5026 13.8718C18.623 14.0811 18.8541 14.1462 19.0637 14.1819C19.8255 14.309 20.2172 14.7478 20.2952 15.5641C20.3316 15.944 20.5776 16.2099 20.892 16.2099C20.9158 16.2098 20.9397 16.2083 20.9633 16.2052C21.3424 16.1587 21.5259 15.868 21.5096 15.3416C21.5155 14.7927 21.2406 14.1695 20.7716 13.6733C20.3019 13.1756 19.7356 12.895 19.2198 12.9081Z" fill="#735FF2"/>
</svg>
