<svg width="179" height="169" viewBox="0 0 179 169" fill="none" xmlns="http://www.w3.org/2000/svg">
<path d="M0 138.497C0 121.65 13.6568 107.994 30.5033 107.994H148.497C165.343 107.994 179 121.65 179 138.497V138.497C179 155.343 165.343 169 148.497 169H30.5033C13.6568 169 0 155.343 0 138.497V138.497Z" fill="url(#paint0_radial_1195_5301)"/>
<path d="M13.3965 7.71618C13.3297 9.51354 14.1982 11.5106 15.9018 12.3094C16.8371 12.6423 17.8392 12.4093 18.8414 12.4426C19.4426 12.4426 20.0773 12.4759 20.6786 12.5424C21.213 12.5757 21.7475 12.7421 22.2486 12.5757C22.449 12.4759 22.5492 12.2762 22.6494 12.1097C22.9167 11.6105 23.0503 11.0446 23.1839 10.5121C23.2841 10.1127 23.3509 9.74653 23.4177 9.34712C23.4845 8.54829 24.7539 8.61486 24.7539 9.41369C24.6537 10.3124 24.5201 11.2111 24.2528 12.0765C23.6181 14.4064 22.282 14.5395 20.1441 14.3731C19.2422 14.3398 18.3069 14.4064 17.405 14.5395C13.7639 15.1719 11.0248 11.5439 10.7242 8.24873C10.2565 6.21838 13.2629 5.65254 13.3965 7.71618Z" fill="white"/>
<path d="M13.2636 7.54965C14.0319 7.48309 14.8002 7.58294 15.5351 7.84922C16.3702 8.14878 17.1385 8.61476 17.9402 8.98089C19.1093 9.54673 20.3787 9.94614 21.6814 9.91286C22.3495 9.91286 22.9842 9.813 23.6189 9.67986C24.5208 9.44687 25.4227 9.08074 26.2244 8.61476C27.4603 7.84922 26.2912 6.11842 25.0552 6.95053C23.051 7.94907 21.0802 8.08221 19.1093 6.98382C18.2742 6.55112 17.4391 6.01857 16.5706 5.65244C15.3013 5.0866 13.8649 4.88689 12.4619 5.05332C11.8272 5.11989 11.1591 5.28631 10.5579 5.48602C9.82298 5.75229 9.05469 6.11842 9.05469 7.0171C9.1215 8.24863 10.3574 8.68133 11.3262 8.04892C11.9274 7.68279 12.5955 7.61622 13.2636 7.54965Z" fill="white"/>
<path d="M30.9401 12.3011L29.5078 8.30356H30.8106L31.6846 11.1196H31.7008L32.5747 8.30356H33.8452L32.4129 12.3011H30.9401Z" fill="white"/>
<path d="M38.2797 12.3011H37.163V11.678H37.1468C37.0497 11.8992 36.8932 12.0772 36.6774 12.2121C36.4616 12.3415 36.2054 12.4063 35.9087 12.4063C35.6983 12.4063 35.4798 12.3658 35.2532 12.2849C35.0266 12.204 34.8189 12.0799 34.6301 11.9127C34.4467 11.74 34.293 11.5215 34.1689 11.2572C34.0502 10.9928 33.9908 10.6746 33.9908 10.3023C33.9908 10.0002 34.0421 9.71969 34.1446 9.46074C34.2525 9.20179 34.4009 8.9806 34.5897 8.79718C34.7839 8.60837 35.0105 8.46271 35.2694 8.36021C35.5337 8.25231 35.8251 8.19837 36.1434 8.19837C36.4562 8.19837 36.7449 8.24962 37.0092 8.35212C37.2736 8.44922 37.4974 8.59218 37.6809 8.781C37.8697 8.96442 38.0153 9.1883 38.1178 9.45265C38.2257 9.71699 38.2797 10.0137 38.2797 10.3428V12.3011ZM36.1434 11.2734C36.4185 11.2734 36.6397 11.1844 36.8069 11.0063C36.9795 10.8283 37.0659 10.5936 37.0659 10.3023C37.0659 10.011 36.9795 9.77633 36.8069 9.5983C36.6397 9.42028 36.4185 9.33126 36.1434 9.33126C35.8682 9.33126 35.6443 9.42028 35.4717 9.5983C35.3045 9.77633 35.2209 10.011 35.2209 10.3023C35.2209 10.5936 35.3045 10.8283 35.4717 11.0063C35.6443 11.1844 35.8682 11.2734 36.1434 11.2734Z" fill="white"/>
<path d="M41.7948 12.3011V10.2295C41.7948 9.9112 41.7246 9.68192 41.5844 9.54166C41.4441 9.40139 41.2607 9.33126 41.0341 9.33126C40.8075 9.33126 40.6241 9.40139 40.4838 9.54166C40.3436 9.68192 40.2734 9.9112 40.2734 10.2295V12.3011H39.0596V10.2295C39.0596 9.89501 39.1055 9.601 39.1972 9.34745C39.2943 9.09389 39.4292 8.8835 39.6018 8.71626C39.7744 8.54363 39.9821 8.41416 40.2249 8.32784C40.4676 8.24152 40.7374 8.19837 41.0341 8.19837C41.3308 8.19837 41.6005 8.24152 41.8433 8.32784C42.0861 8.40876 42.2938 8.53554 42.4664 8.70817C42.639 8.87541 42.7712 9.0858 42.8629 9.33936C42.96 9.59291 43.0086 9.88962 43.0086 10.2295V12.3011H41.7948Z" fill="white"/>
<path d="M46.5199 12.3011V10.2295C46.5199 9.9112 46.4498 9.68192 46.3095 9.54166C46.1693 9.40139 45.9858 9.33126 45.7593 9.33126C45.5327 9.33126 45.3493 9.40139 45.209 9.54166C45.0687 9.68192 44.9986 9.9112 44.9986 10.2295V12.3011H43.7848V10.2295C43.7848 9.89501 43.8306 9.601 43.9224 9.34745C44.0195 9.09389 44.1543 8.8835 44.327 8.71626C44.4996 8.54363 44.7073 8.41416 44.9501 8.32784C45.1928 8.24152 45.4626 8.19837 45.7593 8.19837C46.056 8.19837 46.3257 8.24152 46.5685 8.32784C46.8112 8.40876 47.0189 8.53554 47.1916 8.70817C47.3642 8.87541 47.4964 9.0858 47.5881 9.33936C47.6852 9.59291 47.7337 9.88962 47.7337 10.2295V12.3011H46.5199Z" fill="white"/>
<path d="M52.6369 12.3011H51.5202V11.678H51.504C51.4069 11.8992 51.2505 12.0772 51.0347 12.2121C50.8189 12.3415 50.5627 12.4063 50.2659 12.4063C50.0555 12.4063 49.8371 12.3658 49.6105 12.2849C49.3839 12.204 49.1762 12.0799 48.9874 11.9127C48.804 11.74 48.6502 11.5215 48.5261 11.2572C48.4075 10.9928 48.3481 10.6746 48.3481 10.3023C48.3481 10.0002 48.3994 9.71969 48.5019 9.46074C48.6098 9.20179 48.7581 8.9806 48.9469 8.79718C49.1411 8.60837 49.3677 8.46271 49.6267 8.36021C49.891 8.25231 50.1823 8.19837 50.5006 8.19837C50.8135 8.19837 51.1021 8.24962 51.3665 8.35212C51.6308 8.44922 51.8547 8.59218 52.0381 8.781C52.2269 8.96442 52.3726 9.1883 52.4751 9.45265C52.583 9.71699 52.6369 10.0137 52.6369 10.3428V12.3011ZM50.5006 11.2734C50.7757 11.2734 50.9969 11.1844 51.1642 11.0063C51.3368 10.8283 51.4231 10.5936 51.4231 10.3023C51.4231 10.011 51.3368 9.77633 51.1642 9.5983C50.9969 9.42028 50.7757 9.33126 50.5006 9.33126C50.2255 9.33126 50.0016 9.42028 49.829 9.5983C49.6617 9.77633 49.5781 10.011 49.5781 10.3023C49.5781 10.5936 49.6617 10.8283 49.829 11.0063C50.0016 11.1844 50.2255 11.2734 50.5006 11.2734Z" fill="white"/>
<path d="M53.2065 10.6907V9.51738H55.6341V10.6907H53.2065Z" fill="white"/>
<path d="M56.3275 12.3011V6.55566H57.5413V12.3011H56.3275Z" fill="white"/>
<path d="M61.1849 8.30356H62.3987V10.3751C62.3987 10.7096 62.3501 11.0036 62.253 11.2572C62.1613 11.5107 62.0292 11.7238 61.8565 11.8965C61.6839 12.0637 61.4762 12.1905 61.2334 12.2768C60.9907 12.3631 60.7209 12.4063 60.4242 12.4063C60.1275 12.4063 59.8578 12.3658 59.615 12.2849C59.3722 12.1986 59.1645 12.0718 58.9919 11.9046C58.8193 11.7319 58.6844 11.5188 58.5873 11.2653C58.4956 11.0117 58.4497 10.715 58.4497 10.3751V8.30356H59.6636V10.3751C59.6636 10.6934 59.7337 10.9227 59.874 11.063C60.0142 11.2032 60.1976 11.2734 60.4242 11.2734C60.6508 11.2734 60.8342 11.2032 60.9745 11.063C61.1147 10.9227 61.1849 10.6934 61.1849 10.3751V8.30356Z" fill="white"/>
<path d="M62.8674 12.3011L64.2269 10.2538L62.9321 8.30356H64.3806L65.1089 9.55784H65.1251L65.8534 8.30356H67.2695L65.9667 10.2538L67.3343 12.3011H65.8858L65.0927 10.9416H65.0766L64.2835 12.3011H62.8674Z" fill="white"/>
<path d="M68.485 12.4063C68.2638 12.4063 68.0777 12.3334 67.9266 12.1878C67.781 12.0367 67.7081 11.8506 67.7081 11.6294C67.7081 11.4082 67.781 11.2248 67.9266 11.0792C68.0777 10.9281 68.2638 10.8526 68.485 10.8526C68.7062 10.8526 68.8896 10.9281 69.0352 11.0792C69.1863 11.2248 69.2618 11.4082 69.2618 11.6294C69.2618 11.8506 69.1863 12.0367 69.0352 12.1878C68.8896 12.3334 68.7062 12.4063 68.485 12.4063Z" fill="white"/>
<path d="M69.9384 6.55566H71.1522V8.71626H71.1684C71.2817 8.55981 71.4354 8.43573 71.6297 8.34402C71.8239 8.24692 72.0504 8.19837 72.3094 8.19837C72.5198 8.19837 72.7383 8.23883 72.9649 8.31975C73.1914 8.40067 73.3964 8.52745 73.5799 8.70008C73.7687 8.86731 73.9224 9.0831 74.0411 9.34745C74.1652 9.61179 74.2272 9.93008 74.2272 10.3023C74.2272 10.6044 74.1733 10.885 74.0654 11.1439C73.9629 11.4028 73.8145 11.6267 73.6203 11.8155C73.4315 11.999 73.2049 12.1446 72.9406 12.2525C72.6762 12.355 72.3876 12.4063 72.0747 12.4063C71.7564 12.4063 71.4651 12.3577 71.2008 12.2606C70.9418 12.1581 70.7179 12.0152 70.5291 11.8317C70.3457 11.6429 70.2001 11.4163 70.0922 11.152C69.9897 10.8876 69.9384 10.5909 69.9384 10.2619V6.55566ZM72.0747 11.2734C72.3499 11.2734 72.571 11.1844 72.7383 11.0063C72.9109 10.8283 72.9972 10.5936 72.9972 10.3023C72.9972 10.011 72.9109 9.77633 72.7383 9.5983C72.571 9.42028 72.3499 9.33126 72.0747 9.33126C71.7996 9.33126 71.5757 9.42028 71.4031 9.5983C71.2358 9.77633 71.1522 10.011 71.1522 10.3023C71.1522 10.5936 71.2358 10.8283 71.4031 11.0063C71.5757 11.1844 71.7996 11.2734 72.0747 11.2734Z" fill="white"/>
<path d="M76.8198 11.2086C77.041 11.2086 77.2217 11.1358 77.362 10.9901C77.5076 10.8445 77.5805 10.6179 77.5805 10.3104V8.30356H78.7943V12.1635C78.7943 12.5142 78.7403 12.8109 78.6324 13.0536C78.5299 13.3018 78.3897 13.5041 78.2117 13.6606C78.0336 13.817 77.8232 13.9303 77.5805 14.0004C77.3431 14.0759 77.0868 14.1137 76.8117 14.1137C76.5743 14.1137 76.3478 14.084 76.132 14.0247C75.9216 13.9707 75.7301 13.8844 75.5574 13.7657C75.3902 13.6525 75.2472 13.5068 75.1286 13.3288C75.0099 13.1507 74.9262 12.9377 74.8777 12.6895H76.0915C76.1509 12.8244 76.2372 12.9188 76.3505 12.9727C76.4638 13.0321 76.6175 13.0617 76.8117 13.0617C77.0815 13.0617 77.2757 12.9943 77.3943 12.8594C77.5184 12.73 77.5805 12.5115 77.5805 12.204V11.8317H77.5643C77.4564 11.9882 77.3188 12.1123 77.1516 12.204C76.9843 12.2957 76.7955 12.3415 76.5851 12.3415C76.3747 12.3415 76.1643 12.3038 75.9539 12.2282C75.7489 12.1527 75.5628 12.034 75.3956 11.8722C75.2337 11.7103 75.1016 11.5027 74.9991 11.2491C74.8966 10.9901 74.8453 10.6773 74.8453 10.3104V8.30356H76.0592V10.3104C76.0592 10.6287 76.1293 10.858 76.2695 10.9982C76.4098 11.1385 76.5932 11.2086 76.8198 11.2086Z" fill="white"/>
<path d="M112.013 169C109.012 166.805 105.805 164.866 102.396 163.225C86.9148 157.568 70.3281 161.528 53.7414 160.962C43.7894 160.962 33.2844 160.397 23.3324 159.265C15.4232 158.759 7.51406 156.445 6.05411e-05 157.982L6.30684e-05 128.406C9.16725 126.801 19.8702 127.169 32.1786 128.152C47.1066 128.718 62.5876 127.587 77.5157 125.324C114.375 118.75 145.649 139.262 165.521 169L112.013 169Z" fill="url(#paint1_linear_1195_5301)"/>
<defs>
<radialGradient id="paint0_radial_1195_5301" cx="0" cy="0" r="1" gradientUnits="userSpaceOnUse" gradientTransform="translate(57.2922 183.884) rotate(90) scale(75.8906 121.708)">
<stop/>
<stop offset="1" stop-opacity="0"/>
</radialGradient>
<linearGradient id="paint1_linear_1195_5301" x1="-43.3185" y1="124.094" x2="190.982" y2="258.807" gradientUnits="userSpaceOnUse">
<stop stop-color="#4054E8"/>
<stop offset="1" stop-color="#5C47FF"/>
</linearGradient>
</defs>
</svg>
